<svg width="100" height="100" viewBox="0 0 100 100" fill="none" xmlns="http://www.w3.org/2000/svg">
<g clip-path="url(#clip0_1631_21258)">
<rect opacity="0.5" width="100" height="100" rx="50" fill="#AFAFAF"/>
<g clip-path="url(#clip1_1631_21258)">
<mask id="mask0_1631_21258" style="mask-type:luminance" maskUnits="userSpaceOnUse" x="-6" y="-8" width="113" height="113">
<path d="M107 -8H-6V105H107V-8Z" fill="white"/>
</mask>
<g mask="url(#mask0_1631_21258)">
<mask id="mask1_1631_21258" style="mask-type:luminance" maskUnits="userSpaceOnUse" x="-6" y="-8" width="113" height="113">
<path d="M107 -8H-6V105H107V-8Z" fill="white"/>
</mask>
<g mask="url(#mask1_1631_21258)">
<path d="M68.7361 88.9991C67.5406 87.0578 64.9529 90.371 63.5743 89.1619C63.5042 89.1008 63.4319 89.0602 63.3618 89.0285C63.676 87.3087 63.7438 85.4261 63.5359 83.7853C63.2556 81.575 62.1347 79.5795 61.807 77.3805C61.7505 77.0008 61.4408 76.8629 61.138 76.9059C60.182 76.246 58.991 76.5262 57.8994 76.8336C56.0914 77.3443 54.2495 77.6178 52.3737 77.7082C50.6064 77.7941 48.8368 77.724 47.0763 77.5658C45.4717 77.4212 43.7089 76.9466 42.0952 77.1025C41.9574 76.9488 41.6884 76.9081 41.5867 77.1387C40.0522 80.5806 38.8295 84.7662 39.0171 88.5652C39.0239 88.7076 39.0352 88.8522 39.0465 88.9969C38.4341 89.3268 37.7312 89.6229 37.0442 89.598C36.3865 89.5732 35.7876 89.2432 35.1842 89.0172C34.3367 88.7008 33.4349 88.5652 32.6439 89.1008C30.8224 90.3348 31.4823 93.04 32.3886 94.6265C33.5118 96.595 35.4915 97.386 37.6702 97.5035C38.8883 97.569 40.1765 97.551 41.3472 97.1758C42.597 96.7758 43.7179 96.0232 45.0513 95.9147C45.1485 95.9057 45.2321 95.8786 45.3044 95.8356C48.656 96.8978 52.4935 97.0176 55.9016 96.2763C56.0236 96.2492 56.1457 96.2221 56.2654 96.1904C56.3061 96.213 56.3536 96.2244 56.4056 96.2244C57.6124 96.1837 58.7401 96.308 59.9244 96.5498C60.9685 96.7645 62.0194 97.0063 63.0929 96.9792C65.1088 96.9272 66.4806 95.8063 67.5677 94.1949C68.3994 92.9632 69.6469 90.4794 68.7361 88.9991Z" fill="#FCFCFC"/>
</g>
<mask id="mask2_1631_21258" style="mask-type:luminance" maskUnits="userSpaceOnUse" x="-6" y="-8" width="113" height="113">
<path d="M107 -8H-6V105H107V-8Z" fill="white"/>
</mask>
<g mask="url(#mask2_1631_21258)">
<g opacity="0.43">
<mask id="mask3_1631_21258" style="mask-type:luminance" maskUnits="userSpaceOnUse" x="31" y="79" width="39" height="19">
<path d="M69.0525 79.4805H31.4868V97.5356H69.0525V79.4805Z" fill="white"/>
</mask>
<g mask="url(#mask3_1631_21258)">
<path d="M68.7358 88.9996C67.5403 87.0583 64.9526 90.3714 63.574 89.1623C63.5039 89.1013 63.4316 89.0606 63.3616 89.029C63.6757 87.3091 63.7435 85.4265 63.5356 83.7858C63.3457 82.2964 62.7762 80.9043 62.3242 79.4805C61.9626 80.7031 61.1874 81.9416 60.2744 82.7191C59.8246 83.101 59.3478 83.3812 58.8483 83.5824C58.9365 83.7767 58.9161 83.9892 58.7466 84.2197C59.7388 84.9994 60.7286 86.3486 59.9354 87.3362C60.028 87.4176 60.0845 87.5554 60.0393 87.6662C59.7501 88.4052 59.1919 88.9883 58.498 89.3341C58.5206 89.4132 58.5138 89.5036 58.4754 89.594C58.1206 90.4234 57.3341 90.8324 56.516 91.1127C56.5567 91.1398 56.5951 91.1669 56.638 91.1963C56.8075 91.3206 56.8821 91.6438 56.638 91.75C55.4741 92.2585 54.3035 92.1907 53.0921 92.1026C53.2254 92.2675 53.343 92.4438 53.4356 92.6517C53.5147 92.8325 53.465 93.0699 53.2435 93.1218C52.2627 93.3637 51.3225 93.0043 50.3869 92.7196C50.4027 92.7602 50.4185 92.8009 50.4366 92.8416C50.527 93.0427 50.4276 93.341 50.1586 93.323C49.4874 93.2778 48.8998 93.0721 48.3438 92.7467C48.2828 92.8868 48.1224 92.9749 47.9664 92.9297C47.2364 92.7218 46.7641 92.1817 46.2014 91.7477C46.2307 91.9308 46.2556 92.1139 46.2669 92.3015C46.2827 92.541 45.9821 92.706 45.7855 92.5772C45.1392 92.1613 44.6668 91.585 44.2578 90.959C44.1809 91.1217 43.9707 91.2257 43.808 91.1082C42.8362 90.4189 42.4091 89.3634 42.0882 88.2673C41.9706 88.2673 41.8441 88.2131 41.7785 88.1205C40.7389 86.6515 40.2327 85.0017 39.9864 83.2886C39.8914 83.0106 39.8056 82.7326 39.7265 82.4501C39.2112 84.4841 38.9219 86.5724 39.0191 88.5589C39.0259 88.7013 39.0372 88.8459 39.0485 88.9906C38.436 89.3205 37.7331 89.6166 37.0461 89.5917C36.3884 89.5669 35.7895 89.2369 35.1861 89.0109C34.3386 88.6945 33.4369 88.5589 32.6459 89.0945C30.8243 90.3285 31.4842 93.0337 32.3905 94.6202C33.5137 96.5887 35.4935 97.3797 37.6721 97.4972C38.8903 97.5627 40.1785 97.5447 41.3491 97.1695C42.5989 96.7695 43.7199 96.0169 45.0533 95.9084C45.1505 95.8994 45.2341 95.8723 45.3064 95.8293C48.658 96.8915 52.4955 97.0113 55.9035 96.27C56.0256 96.2429 56.1476 96.2158 56.2674 96.1841C56.3081 96.2067 56.3556 96.218 56.4075 96.218C57.6144 96.1774 58.7421 96.3016 59.9263 96.5435C60.9705 96.7582 62.0214 97 63.0949 96.9729C65.1108 96.9209 66.4826 95.7999 67.5697 94.1886C68.3991 92.9636 69.6466 90.4799 68.7358 88.9996Z" fill="#D3D3D3"/>
</g>
</g>
</g>
<mask id="mask4_1631_21258" style="mask-type:luminance" maskUnits="userSpaceOnUse" x="-6" y="-8" width="113" height="113">
<path d="M107 -8H-6V105H107V-8Z" fill="white"/>
</mask>
<g mask="url(#mask4_1631_21258)">
<path d="M41.5822 83.315C43.8987 82.3884 46.3485 81.6517 48.8255 81.3375C54.3715 80.6369 59.1604 82.6257 63.6533 85.5908C63.6465 84.9716 63.6104 84.3614 63.5358 83.7851C63.2556 81.5748 62.1346 79.5792 61.8069 77.3803C61.7504 77.0006 61.4408 76.8627 61.1379 76.9057C60.182 76.2457 58.9909 76.5237 57.8994 76.8333C56.0914 77.3441 54.2495 77.6153 52.3737 77.708C50.6063 77.7938 48.8368 77.7238 47.0762 77.5656C45.4716 77.4209 43.7088 76.9463 42.0952 77.1023C41.9573 76.9486 41.6884 76.9079 41.5867 77.1384C40.5991 79.351 39.7448 81.8709 39.3086 84.3976C40.0386 83.9569 40.8386 83.6111 41.5822 83.315Z" fill="#4E4E4E"/>
</g>
<mask id="mask5_1631_21258" style="mask-type:luminance" maskUnits="userSpaceOnUse" x="-6" y="-8" width="113" height="113">
<path d="M107 -8H-6V105H107V-8Z" fill="white"/>
</mask>
<g mask="url(#mask5_1631_21258)">
<path d="M44.8366 95.3407C44.2784 95.0085 43.7541 94.6311 43.2591 94.2198C41.8783 93.1372 40.694 91.7451 39.7742 90.2942C39.5121 89.8828 39.2657 89.4467 39.0465 88.9947V88.9969C38.4341 89.3269 37.7312 89.6229 37.0442 89.5981C36.3865 89.5732 35.7876 89.2433 35.1842 89.0173C34.3367 88.7009 33.4349 88.5653 32.6439 89.1009C30.8224 90.3348 31.4823 93.0401 32.3886 94.6288C33.5118 96.5973 35.4915 97.3883 37.6702 97.5058C38.8883 97.5714 40.1765 97.5533 41.3472 97.1781C42.597 96.7781 43.7179 96.0255 45.0513 95.917C45.1485 95.908 45.2321 95.8786 45.3044 95.8379C45.7836 95.9894 46.2717 96.1204 46.7689 96.2334C46.0954 96.0029 45.4491 95.7069 44.8366 95.3407Z" fill="#4E4E4E"/>
</g>
<mask id="mask6_1631_21258" style="mask-type:luminance" maskUnits="userSpaceOnUse" x="-6" y="-8" width="113" height="113">
<path d="M107 -8H-6V105H107V-8Z" fill="white"/>
</mask>
<g mask="url(#mask6_1631_21258)">
<path d="M68.736 88.9992C67.6647 87.259 65.4725 89.7405 64.0374 89.3992C63.6578 89.7879 63.2329 90.1405 62.8057 90.4704C62.6362 90.6015 62.4667 90.7303 62.2972 90.8592C61.3277 91.9575 60.1909 92.9225 59.0926 93.7407C58.7536 93.9938 58.3987 94.2288 58.0281 94.4503C57.0224 95.3204 55.9082 96.0481 54.6336 96.4866C54.5929 96.5001 54.5522 96.5137 54.5093 96.5272C54.9794 96.4594 55.4449 96.3758 55.9014 96.2764C56.0235 96.2493 56.1455 96.2221 56.2653 96.1905C56.306 96.2131 56.3534 96.2244 56.4054 96.2244C57.6123 96.1837 58.74 96.308 59.9242 96.5498C60.9684 96.7645 62.0193 97.0064 63.0928 96.9792C65.1087 96.9273 66.4805 95.8063 67.5676 94.1949C68.3992 92.9632 69.6468 90.4795 68.736 88.9992Z" fill="#4E4E4E"/>
</g>
<mask id="mask7_1631_21258" style="mask-type:luminance" maskUnits="userSpaceOnUse" x="-6" y="-8" width="113" height="113">
<path d="M107 -8H-6V105H107V-8Z" fill="white"/>
</mask>
<g mask="url(#mask7_1631_21258)">
<path d="M67.3234 91.9173C67.2805 91.5829 67.0386 91.1738 66.6296 91.2235C66.6002 91.2258 66.5708 91.2326 66.5392 91.2371C66.4465 91.1806 66.3267 91.1648 66.1844 91.219C64.9097 91.7026 63.4113 93.0745 63.4249 94.5299C63.4272 94.8282 63.6441 95.1604 63.9537 95.2237C64.9097 95.4203 65.6307 94.826 66.3019 94.2158C66.9528 93.6214 67.4409 92.8281 67.3234 91.9173Z" fill="#C3ACAD"/>
</g>
<mask id="mask8_1631_21258" style="mask-type:luminance" maskUnits="userSpaceOnUse" x="-6" y="-8" width="113" height="113">
<path d="M107 -8H-6V105H107V-8Z" fill="white"/>
</mask>
<g mask="url(#mask8_1631_21258)">
<path d="M67.6396 89.5076C67.5831 89.3561 67.4882 89.2386 67.3255 89.1934C67.1673 89.1505 67.0046 89.1979 66.8893 89.3087C66.7537 89.4375 66.6859 89.5912 66.6339 89.7675C66.5548 90.0319 66.7288 90.3551 67.0023 90.4183C67.2554 90.4771 67.6057 90.3415 67.6532 90.05C67.6826 89.8646 67.7074 89.6861 67.6396 89.5076Z" fill="#C3ACAD"/>
</g>
<mask id="mask9_1631_21258" style="mask-type:luminance" maskUnits="userSpaceOnUse" x="-6" y="-8" width="113" height="113">
<path d="M107 -8H-6V105H107V-8Z" fill="white"/>
</mask>
<g mask="url(#mask9_1631_21258)">
<path d="M67.9698 90.1582L67.9678 90.1602L67.9698 90.1582Z" fill="#C3ACAD"/>
</g>
<mask id="mask10_1631_21258" style="mask-type:luminance" maskUnits="userSpaceOnUse" x="-6" y="-8" width="113" height="113">
<path d="M107 -8H-6V105H107V-8Z" fill="white"/>
</mask>
<g mask="url(#mask10_1631_21258)">
<path d="M68.7042 90.0999C68.6477 89.9507 68.5188 89.8196 68.3448 89.8264C68.1889 89.8332 68.0194 89.9349 67.9855 90.0999C67.9855 90.1044 67.9742 90.136 67.9674 90.1609C67.9878 90.1338 67.9765 90.1451 67.9674 90.1609C67.9652 90.1722 67.9629 90.1812 67.9629 90.1835C67.9606 90.179 67.9629 90.1699 67.9674 90.1632C67.9267 90.2197 67.8973 90.2784 67.8702 90.3417C67.7663 90.5881 67.8748 90.8615 68.1301 90.9451C68.3991 91.0333 68.6522 90.8208 68.729 90.5767C68.7742 90.4298 68.7584 90.2423 68.7042 90.0999Z" fill="#C3ACAD"/>
</g>
<mask id="mask11_1631_21258" style="mask-type:luminance" maskUnits="userSpaceOnUse" x="-6" y="-8" width="113" height="113">
<path d="M107 -8H-6V105H107V-8Z" fill="white"/>
</mask>
<g mask="url(#mask11_1631_21258)">
<path d="M48.8682 85.3266C48.588 84.3413 47.0647 82.6666 46.9065 82.6033C45.3743 81.9728 44.6533 80.4925 44.2329 78.976C43.9934 78.1172 43.8058 77.4325 43.0125 76.9579C42.1221 76.4245 41.1706 76.4177 40.3819 76.7906C39.0078 78.1285 37.9298 79.758 37.3196 81.6157C36.106 85.3176 37.6925 89.3788 41.7673 90.1178C43.5708 90.4433 45.6319 90.5608 47.2365 89.5235C48.6603 88.6036 49.3338 86.9606 48.8682 85.3266Z" fill="#4E4E4E"/>
</g>
<mask id="mask12_1631_21258" style="mask-type:luminance" maskUnits="userSpaceOnUse" x="-6" y="-8" width="113" height="113">
<path d="M107 -8H-6V105H107V-8Z" fill="white"/>
</mask>
<g mask="url(#mask12_1631_21258)">
<path d="M36.8566 95.1732C36.1424 93.7291 35.1887 92.4635 34.0836 91.2996C33.679 90.8747 33.0666 91.3425 33.1524 91.8013C33.1344 91.8194 33.1185 91.8374 33.105 91.8623C32.7592 92.5154 33.4914 93.5347 33.8666 94.0432C34.4542 94.841 35.2226 95.467 36.0904 95.9348C36.6012 96.2105 37.1007 95.6704 36.8566 95.1732Z" fill="#C3ACAD"/>
</g>
<mask id="mask13_1631_21258" style="mask-type:luminance" maskUnits="userSpaceOnUse" x="-6" y="-8" width="113" height="113">
<path d="M107 -8H-6V105H107V-8Z" fill="white"/>
</mask>
<g mask="url(#mask13_1631_21258)">
<path d="M34.2731 89.2749C34.1737 88.9539 33.7194 88.9539 33.6222 89.2749C33.5974 89.354 33.5861 89.4308 33.5748 89.5144C33.5567 89.6523 33.6629 89.763 33.7601 89.8376C33.7669 89.8421 33.7737 89.8489 33.7804 89.8534C33.8641 89.9167 34.0336 89.9167 34.1172 89.8534C34.124 89.8489 34.1307 89.8421 34.1375 89.8376C34.2347 89.763 34.3409 89.6523 34.3228 89.5144C34.3093 89.4331 34.298 89.3562 34.2731 89.2749Z" fill="#C3ACAD"/>
</g>
<mask id="mask14_1631_21258" style="mask-type:luminance" maskUnits="userSpaceOnUse" x="-6" y="-8" width="113" height="113">
<path d="M107 -8H-6V105H107V-8Z" fill="white"/>
</mask>
<g mask="url(#mask14_1631_21258)">
<path d="M33.2562 89.969C33.1793 89.8424 33.0754 89.7317 32.942 89.6684C32.7364 89.569 32.4155 89.682 32.4403 89.9554C32.4584 90.1498 32.5217 90.2899 32.6437 90.4413C32.7658 90.5928 33.0166 90.5792 33.1567 90.473C33.3059 90.3577 33.3556 90.1385 33.2562 89.969Z" fill="#C3ACAD"/>
</g>
<mask id="mask15_1631_21258" style="mask-type:luminance" maskUnits="userSpaceOnUse" x="-6" y="-8" width="113" height="113">
<path d="M107 -8H-6V105H107V-8Z" fill="white"/>
</mask>
<g mask="url(#mask15_1631_21258)">
<path d="M32.5014 90.6425C32.4155 90.5363 32.2347 90.5295 32.1239 90.595C32.0064 90.6651 31.9454 90.812 31.9816 90.9453C32.0177 91.0809 32.0946 91.1465 32.2053 91.2233C32.3838 91.3454 32.6121 91.1804 32.6166 90.9883C32.6211 90.8391 32.594 90.7578 32.5014 90.6425Z" fill="#C3ACAD"/>
</g>
<mask id="mask16_1631_21258" style="mask-type:luminance" maskUnits="userSpaceOnUse" x="-6" y="-8" width="113" height="113">
<path d="M107 -8H-6V105H107V-8Z" fill="white"/>
</mask>
<g mask="url(#mask16_1631_21258)">
<path d="M46.8928 45.9845C46.5448 45.3245 47.8737 44.0273 48.0251 43.8849C49.9461 42.0408 53.0061 41.6972 53.2073 42.1741C53.4649 42.7843 49.2387 45.2115 49.2387 45.2115C49.2387 45.2115 49.363 45.1528 49.6003 45.0556C49.6003 45.0556 50.1066 44.8477 50.6218 44.6827C52.353 44.1313 53.4649 43.7764 53.9802 44.2691C54.1565 44.4386 54.3011 44.7437 54.2514 45.0443C53.9825 46.6579 48.4025 46.398 47.9912 46.38C47.6025 46.3619 47.0691 46.3167 46.8928 45.9845Z" fill="#FCFCFC"/>
</g>
<mask id="mask17_1631_21258" style="mask-type:luminance" maskUnits="userSpaceOnUse" x="-6" y="-8" width="113" height="113">
<path d="M107 -8H-6V105H107V-8Z" fill="white"/>
</mask>
<g mask="url(#mask17_1631_21258)">
<path d="M38.9243 76.6593C38.0429 76.3451 37.0892 76.0061 36.0564 75.3688C36.0564 75.3688 33.7806 74.0196 32.3635 71.5991C30.2324 67.956 30.8968 63.888 31.2177 61.9308C32.3726 54.8683 37.0191 50.6354 37.7649 49.9754C39.3153 48.6036 43.3042 45.5074 48.8932 45.0712C51.2413 44.8882 53.1374 45.2317 54.4121 45.4713C56.4664 45.8577 59.4903 46.4566 62.6656 48.6692C66.0714 51.0399 67.8229 53.9915 68.5642 55.4469C70.1168 58.4866 70.4106 61.1579 70.562 62.6608C70.7406 64.4304 70.8988 66.0169 70.3609 68.0374C70.2072 68.6137 69.4366 71.3211 66.9596 73.71C65.2217 75.3846 63.4973 76.083 61.635 76.8129C57.2552 78.5328 53.4584 78.578 50.9272 78.5848C48.5383 78.5916 46.6851 78.2706 42.981 77.6672C41.9663 77.5 40.6012 77.2559 38.9243 76.6593Z" fill="#FCFCFC"/>
</g>
<mask id="mask18_1631_21258" style="mask-type:luminance" maskUnits="userSpaceOnUse" x="-6" y="-8" width="113" height="113">
<path d="M107 -8H-6V105H107V-8Z" fill="white"/>
</mask>
<g mask="url(#mask18_1631_21258)">
<path d="M37.071 59.0994C38.2394 57.9355 39.5412 57.5649 40.1401 57.3999C40.904 57.192 42.2102 56.8372 43.7606 57.3434C45.2477 57.8293 46.1291 58.8373 46.5133 59.3593C47.5212 60.7289 47.5981 62.1369 47.6478 63.0205C47.702 63.9968 47.8015 65.8342 46.5675 67.4705C45.6522 68.6841 44.4634 69.1745 44.0996 69.3101C43.7086 69.457 42.9153 69.744 41.869 69.6355C41.1164 69.5564 40.5152 69.2717 40.183 69.1157C39.4553 68.7722 39.5118 68.6298 39.0056 68.4445C38.0564 68.0942 37.6021 68.501 36.8563 68.2637C35.9817 67.988 35.5387 67.0908 35.2969 66.6026C34.3884 64.763 35.1025 62.7764 35.4551 61.7979C35.7082 61.104 36.0924 60.0735 37.071 59.0994Z" fill="#D0CFCB"/>
</g>
<mask id="mask19_1631_21258" style="mask-type:luminance" maskUnits="userSpaceOnUse" x="-6" y="-8" width="113" height="113">
<path d="M107 -8H-6V105H107V-8Z" fill="white"/>
</mask>
<g mask="url(#mask19_1631_21258)">
<path d="M37.3854 59.5448C38.2148 58.7335 39.042 58.3199 39.4126 58.1527C39.9414 57.9154 41.0805 57.4159 42.5721 57.5583C42.9834 57.5967 43.6365 57.6668 44.3665 58.0419C45.7542 58.7584 46.335 60.0353 46.561 60.5302C47.2299 62.0015 47.0989 63.3326 47.0107 64.1462C46.8909 65.2242 46.735 66.6345 45.605 67.769C45.4039 67.9724 44.3394 69.0368 42.8636 69.0572C42.1065 69.0662 41.4489 68.7995 40.4725 68.3995C39.6341 68.0583 39.4171 67.8503 38.7391 67.6695C37.6521 67.3803 37.365 67.7419 36.8113 67.5204C35.5503 67.0164 35.0598 64.4875 35.5299 62.58C35.9232 60.9754 36.9605 59.9629 37.3854 59.5448Z" fill="#4E4E4E"/>
</g>
<mask id="mask20_1631_21258" style="mask-type:luminance" maskUnits="userSpaceOnUse" x="-6" y="-8" width="113" height="113">
<path d="M107 -8H-6V105H107V-8Z" fill="white"/>
</mask>
<g mask="url(#mask20_1631_21258)">
<path d="M41.8646 62.4146C42.9155 61.9829 44.2941 62.0575 45.2546 62.9208C46.2716 63.8338 46.2671 65.1333 46.2648 65.3435C46.249 66.1481 45.9258 66.7289 45.7767 66.9843C45.571 67.3414 45.1077 68.0103 44.2489 68.4352C43.9574 68.5798 43.3833 68.8556 42.6127 68.7945C42.4341 68.781 41.8646 68.72 41.268 68.3358C40.6646 67.947 40.373 67.4476 40.2352 67.2035C40.1086 66.9775 39.7877 66.356 39.7809 65.574C39.7696 64.383 40.486 62.9818 41.8646 62.4146Z" fill="#FCFCFC"/>
</g>
<mask id="mask21_1631_21258" style="mask-type:luminance" maskUnits="userSpaceOnUse" x="-6" y="-8" width="113" height="113">
<path d="M107 -8H-6V105H107V-8Z" fill="white"/>
</mask>
<g mask="url(#mask21_1631_21258)">
<path d="M55.637 57.707C55.8427 57.5578 56.6699 56.9838 57.8857 56.7442C60.7017 56.186 63.0521 57.924 63.6035 58.3308C64.2906 58.8393 65.7166 59.9241 66.3698 61.9129C66.5664 62.514 67.1178 64.1887 66.3449 65.9357C65.8794 66.9843 65.1494 67.5809 64.772 67.8815C62.6498 69.5743 60.0169 69.3031 59.2869 69.2285C58.1728 69.1132 56.3083 68.9211 54.8415 67.4453C52.8414 65.4339 52.7962 62.2654 53.7002 60.1862C53.8901 59.7455 54.4053 58.5974 55.637 57.707Z" fill="#D0CFCB"/>
</g>
<mask id="mask22_1631_21258" style="mask-type:luminance" maskUnits="userSpaceOnUse" x="-6" y="-8" width="113" height="113">
<path d="M107 -8H-6V105H107V-8Z" fill="white"/>
</mask>
<g mask="url(#mask22_1631_21258)">
<path d="M56.0191 58.0329C57.3796 57.086 58.7989 57.0883 59.3571 57.0973C62.1663 57.1425 63.9743 59.1245 64.4851 59.685C65.0591 60.3133 65.8772 61.2331 66.171 62.7134C66.2501 63.1134 66.5417 64.6886 65.7371 66.2028C64.1144 69.2583 59.669 69.0075 59.4046 68.9894C58.6611 68.9374 56.8711 68.8086 55.4067 67.4232C52.9952 65.1406 53.7772 61.6399 53.8224 61.4546C53.9625 60.867 54.401 59.1607 56.0191 58.0329Z" fill="#4E4E4E"/>
</g>
<mask id="mask23_1631_21258" style="mask-type:luminance" maskUnits="userSpaceOnUse" x="-6" y="-8" width="113" height="113">
<path d="M107 -8H-6V105H107V-8Z" fill="white"/>
</mask>
<g mask="url(#mask23_1631_21258)">
<path d="M58.5387 61.628C57.4313 61.3681 56.0821 61.6596 55.2708 62.663C54.4097 63.7252 54.6199 65.0089 54.656 65.2146C54.7984 66.0078 55.2097 66.5276 55.3973 66.7582C55.655 67.0768 56.22 67.6644 57.1353 67.9492C57.4471 68.0464 58.0551 68.2272 58.8077 68.0464C58.9817 68.0057 59.5354 67.8543 60.0642 67.3819C60.5998 66.9028 60.8078 66.3649 60.9049 66.1005C60.9953 65.8564 61.2123 65.192 61.097 64.4213C60.9185 63.2393 59.9896 61.9692 58.5387 61.628Z" fill="#FCFCFC"/>
</g>
<mask id="mask24_1631_21258" style="mask-type:luminance" maskUnits="userSpaceOnUse" x="-6" y="-8" width="113" height="113">
<path d="M107 -8H-6V105H107V-8Z" fill="white"/>
</mask>
<g mask="url(#mask24_1631_21258)">
<path d="M60.5435 63.6693C59.9378 62.2771 58.4598 61.9178 58.2971 61.8816C58.0168 61.8183 57.3117 61.6692 56.5275 62.0014C55.6031 62.3924 55.2076 63.1766 55.1059 63.3868C54.5229 64.5913 54.9997 65.7552 55.0811 65.9406C55.3523 66.4016 55.7116 66.7881 56.1275 67.1225C56.4416 67.3757 56.9591 67.7689 57.6959 67.8706C57.8112 67.8864 58.6451 67.9904 59.409 67.5361C60.591 66.831 61.1514 65.0659 60.5435 63.6693Z" fill="#191C1E"/>
</g>
<mask id="mask25_1631_21258" style="mask-type:luminance" maskUnits="userSpaceOnUse" x="-6" y="-8" width="113" height="113">
<path d="M107 -8H-6V105H107V-8Z" fill="white"/>
</mask>
<g mask="url(#mask25_1631_21258)">
<path d="M36.0518 68.6113C36.732 68.1435 37.4259 68.0644 37.7649 68.0283C38.1626 67.9876 39.4327 67.8565 40.4271 68.6678C41.4939 69.5379 41.9481 71.2555 41.2475 72.6522C40.4746 74.1913 38.6892 74.5597 37.4598 74.363C37.3196 74.3404 35.0438 73.9359 34.5783 72.0081C34.2212 70.5391 35.1681 69.2193 36.0518 68.6113Z" fill="#C3ACAD"/>
</g>
<mask id="mask26_1631_21258" style="mask-type:luminance" maskUnits="userSpaceOnUse" x="-6" y="-8" width="113" height="113">
<path d="M107 -8H-6V105H107V-8Z" fill="white"/>
</mask>
<g mask="url(#mask26_1631_21258)">
<path d="M38.4676 50.0999C38.2777 49.9078 37.6879 49.3563 36.7522 49.2365C35.6222 49.0919 34.8041 49.6795 34.5533 49.8671C34.4561 49.9394 33.0933 50.9858 33.2492 52.4322C33.2741 52.6672 33.3509 53.3723 33.9431 53.7791C34.3747 54.0775 34.8516 54.0549 35.0301 54.0368L38.4676 50.0999Z" fill="#C1C4BD"/>
</g>
<mask id="mask27_1631_21258" style="mask-type:luminance" maskUnits="userSpaceOnUse" x="-6" y="-8" width="113" height="113">
<path d="M107 -8H-6V105H107V-8Z" fill="white"/>
</mask>
<g mask="url(#mask27_1631_21258)">
<path d="M30.926 50.0704C31.0796 49.6681 31.396 48.859 32.0763 48.0906C33.0707 46.9719 34.2708 46.5787 34.7047 46.4408C36.2912 45.9436 37.611 46.2397 38.106 46.3572C40.1942 46.8544 40.8948 48.1087 40.9016 48.1245C40.9197 48.1584 40.9219 48.1946 40.9219 48.1946C40.9219 48.2081 40.9219 48.2194 40.9219 48.233C40.9016 48.3256 40.8293 48.3731 40.757 48.4228C40.1535 48.8364 39.5727 49.2816 38.9919 49.7291C38.8224 49.8602 38.6619 50.0071 38.4653 50.0975C38.2687 49.9235 37.8506 49.5958 37.2246 49.4443C37.089 49.4127 36.5692 49.2974 35.9115 49.4376C35.6855 49.485 35.064 49.6477 34.5239 50.1359C33.6673 50.9133 33.0639 52.4863 33.7577 53.3903C33.8617 53.5259 34.2052 53.9214 35.0301 54.0299C34.4267 55.0627 33.821 56.0955 33.2176 57.1283C32.7407 56.8413 31.7938 56.1836 31.1429 54.9655C30.2751 53.3383 30.5033 51.7789 30.5757 51.336C30.6706 50.7506 30.8423 50.2918 30.926 50.0704Z" fill="#4E4E4E"/>
</g>
<mask id="mask28_1631_21258" style="mask-type:luminance" maskUnits="userSpaceOnUse" x="-6" y="-8" width="113" height="113">
<path d="M107 -8H-6V105H107V-8Z" fill="white"/>
</mask>
<g mask="url(#mask28_1631_21258)">
<path d="M62.869 67.2057C63.2825 67.1695 64.4939 67.0656 65.4612 67.8656C66.6771 68.8713 67.0206 70.894 66.1234 72.3359C65.1086 73.9699 63.0633 73.9495 62.7876 73.9405C62.4576 73.9314 60.5818 73.8817 59.7004 72.3427C58.9908 71.1019 59.3592 69.6487 59.9875 68.747C60.948 67.3729 62.5367 67.235 62.869 67.2057Z" fill="#C3ACAD"/>
</g>
<mask id="mask29_1631_21258" style="mask-type:luminance" maskUnits="userSpaceOnUse" x="-6" y="-8" width="113" height="113">
<path d="M107 -8H-6V105H107V-8Z" fill="white"/>
</mask>
<g mask="url(#mask29_1631_21258)">
<path d="M45.6999 70.3768C45.7066 70.1643 45.7134 69.9519 45.7202 69.7417C45.7383 69.9406 45.8016 70.2932 46.0569 70.605C46.3191 70.9282 46.6423 71.0503 47.031 71.1633C47.9327 71.4254 48.8548 71.4458 49.7814 71.3463C49.8492 71.3395 49.917 71.3395 49.9848 71.3373C50.1114 71.3486 50.2402 71.3599 50.3735 71.3689C50.8662 71.4006 51.3318 71.3983 51.7657 71.3734C52.1115 71.3825 52.4573 71.3486 52.8008 71.3237C53.6777 71.2582 54.5297 71.0977 55.2258 70.492C55.4179 70.3248 55.4179 70.318 55.3365 70.0807C55.3049 69.9881 55.2619 69.8954 55.2551 69.796C55.2461 69.6446 55.3478 69.579 55.4834 69.6468C55.6235 69.7169 55.7004 69.8977 55.6619 70.0672C55.6732 70.3451 55.8337 70.5508 56.0009 70.7519C56.0394 70.7994 56.0868 70.8378 56.1298 70.8808C56.2156 70.9508 56.3332 71.0412 56.4823 71.1294C56.5614 71.1768 56.8575 71.3508 57.262 71.4593C58.0101 71.6605 58.6225 71.5 58.6271 71.5362C58.6316 71.5701 58.114 71.7441 57.4971 71.6673C57.4112 71.656 57.0564 71.6085 56.6405 71.4073C56.3671 71.274 56.1614 71.1226 56.0235 71.0051C55.8925 70.9034 55.7862 70.7813 55.6913 70.6435C55.6439 70.5757 55.5941 70.5531 55.5376 70.6412C55.3772 70.883 55.1354 71.039 54.9229 71.2265C54.8483 71.2921 54.8031 71.3554 54.7851 71.4503C54.5749 72.5396 54.0573 73.473 53.3296 74.3001C53.1262 74.5329 52.8912 74.7341 52.6516 74.9284C52.5431 74.9149 52.5477 74.8177 52.5318 74.7476C52.455 74.429 52.3443 74.1216 52.238 73.8143C52.1183 73.4662 51.9442 73.1475 51.7612 72.8357C51.4945 72.3837 51.0493 72.1916 50.5724 72.056C50.5137 72.0402 50.4526 72.0288 50.3916 72.0175C49.7294 71.9226 49.1486 72.117 48.6288 72.5193C48.0186 72.9984 47.7971 73.6538 47.7723 74.3996C47.7248 74.49 47.8243 74.6278 47.6819 74.6889C47.5237 73.7668 47.1756 72.5735 46.3711 71.4028C46.2106 71.17 46.0434 70.9553 45.8761 70.761C45.6886 71.2763 45.4219 71.6108 45.2456 71.8006C45.0897 71.9678 44.2354 72.8809 43.3269 72.6458C43.0534 72.5758 42.8568 72.4221 42.7393 72.3113C42.7777 72.3543 42.841 72.4153 42.9314 72.465C43.4647 72.7724 44.2083 72.3498 44.432 72.2232C44.9721 71.9158 45.2592 71.4887 45.3722 71.2966C45.5846 70.935 45.666 70.5937 45.6999 70.3768Z" fill="#4E4E4E"/>
</g>
<mask id="mask30_1631_21258" style="mask-type:luminance" maskUnits="userSpaceOnUse" x="-6" y="-8" width="113" height="113">
<path d="M107 -8H-6V105H107V-8Z" fill="white"/>
</mask>
<g mask="url(#mask30_1631_21258)">
<path d="M50.4162 71.9699C50.5609 71.9902 50.8908 72.0512 51.2411 72.2637C51.7406 72.5688 51.9711 72.9959 52.17 73.3666C52.3372 73.6785 52.57 74.2095 52.6491 74.9327C52.5406 75.0435 52.3734 75.1972 52.1497 75.3441C51.0423 76.0605 49.4467 76.004 48.3393 75.2695C48.154 75.1452 47.9189 74.9621 47.6816 74.6909C47.659 74.4469 47.6455 73.9112 47.9302 73.3304C48.1336 72.9123 48.4094 72.6411 48.5856 72.492C48.7732 72.3496 49.058 72.171 49.4399 72.058C49.6252 72.0038 49.9688 71.9066 50.4162 71.9699Z" fill="#C3ACAD"/>
</g>
<mask id="mask31_1631_21258" style="mask-type:luminance" maskUnits="userSpaceOnUse" x="-6" y="-8" width="113" height="113">
<path d="M107 -8H-6V105H107V-8Z" fill="white"/>
</mask>
<g mask="url(#mask31_1631_21258)">
<path d="M51.9598 69.1319C51.6388 69.2607 50.7394 69.4121 50.5608 69.4211C50.545 69.4211 50.4953 69.4234 50.4636 69.4596C50.441 69.4867 50.441 69.5274 50.441 69.5771C50.4478 70.0042 50.4523 70.4291 50.4569 70.8562C50.4478 71.0054 50.4591 71.1523 50.493 71.2992C50.9043 71.3693 51.3202 71.3941 51.736 71.4258C51.6524 71.4371 51.5055 71.4551 51.3247 71.4823C50.7642 71.5659 50.6173 71.6066 50.4049 71.5546C50.3054 71.5297 50.1518 71.4777 49.98 71.3376C50.1224 71.3467 50.1631 71.2495 50.1902 71.1365C50.197 71.0845 50.2037 71.0325 50.2105 70.9783C50.2467 70.5602 50.2851 70.1443 50.3213 69.7262C50.3258 69.6765 50.3213 69.6268 50.3326 69.5793C50.3597 69.4528 50.31 69.4302 50.1902 69.4257C49.971 69.4144 49.2658 69.211 48.9585 69.0302C48.7099 68.8833 48.3325 68.5307 48.3686 68.2007C48.4319 67.6267 49.7314 67.2289 50.7846 67.2809C51.4015 67.3126 52.57 67.5273 52.6717 68.1058C52.7372 68.4742 52.3666 68.9691 51.9598 69.1319Z" fill="#4E4E4E"/>
</g>
<mask id="mask32_1631_21258" style="mask-type:luminance" maskUnits="userSpaceOnUse" x="-6" y="-8" width="113" height="113">
<path d="M107 -8H-6V105H107V-8Z" fill="white"/>
</mask>
<g mask="url(#mask32_1631_21258)">
<path d="M64.3178 59.1444C64.1279 59.0134 63.859 58.9772 63.7935 58.6992C63.9675 58.8484 64.1415 58.9953 64.3178 59.1444Z" fill="#BEC0B1"/>
</g>
<mask id="mask33_1631_21258" style="mask-type:luminance" maskUnits="userSpaceOnUse" x="-6" y="-8" width="113" height="113">
<path d="M107 -8H-6V105H107V-8Z" fill="white"/>
</mask>
<g mask="url(#mask33_1631_21258)">
<path d="M40.1694 64.7723C40.5468 63.3011 41.9503 62.7135 42.104 62.6525C42.3707 62.5462 43.0419 62.2886 43.869 62.492C44.8431 62.7316 45.3584 63.4457 45.4917 63.6356C46.2579 64.7317 45.9708 65.9566 45.9211 66.1532C45.7268 66.6527 45.433 67.0888 45.0759 67.4866C44.8047 67.7872 44.3572 68.2573 43.6453 68.4742C43.5346 68.5081 42.7277 68.7409 41.9028 68.4132C40.6237 67.9047 39.7897 66.2504 40.1694 64.7723Z" fill="#191C1E"/>
</g>
<mask id="mask34_1631_21258" style="mask-type:luminance" maskUnits="userSpaceOnUse" x="-6" y="-8" width="113" height="113">
<path d="M107 -8H-6V105H107V-8Z" fill="white"/>
</mask>
<g mask="url(#mask34_1631_21258)">
<path d="M43.3087 64.5208C43.5528 64.5027 43.7879 64.688 43.8082 64.9163C43.8285 65.1445 43.6387 65.3569 43.3969 65.3795C43.1551 65.4021 42.9607 65.2146 42.9358 64.9298C42.9132 64.7038 43.0624 64.5388 43.3087 64.5208Z" fill="white"/>
</g>
<mask id="mask35_1631_21258" style="mask-type:luminance" maskUnits="userSpaceOnUse" x="-6" y="-8" width="113" height="113">
<path d="M107 -8H-6V105H107V-8Z" fill="white"/>
</mask>
<g mask="url(#mask35_1631_21258)">
<path d="M44.3978 64.39C44.3775 64.1256 44.5289 63.9425 44.7798 63.9245C44.9651 63.9109 45.2272 64.1211 45.2408 64.2996C45.2566 64.4917 45.0216 64.7539 44.8204 64.772C44.6419 64.7855 44.4114 64.5799 44.3978 64.39Z" fill="white"/>
</g>
<mask id="mask36_1631_21258" style="mask-type:luminance" maskUnits="userSpaceOnUse" x="-6" y="-8" width="113" height="113">
<path d="M107 -8H-6V105H107V-8Z" fill="white"/>
</mask>
<g mask="url(#mask36_1631_21258)">
<path d="M43.5527 63.3937C43.7923 63.3711 44.025 63.5361 44.0454 63.7417C44.0635 63.9361 43.8668 64.1169 43.616 64.1372C43.4171 64.153 43.2001 63.979 43.1821 63.7937C43.164 63.5858 43.3244 63.414 43.5527 63.3937Z" fill="white"/>
</g>
<mask id="mask37_1631_21258" style="mask-type:luminance" maskUnits="userSpaceOnUse" x="-6" y="-8" width="113" height="113">
<path d="M107 -8H-6V105H107V-8Z" fill="white"/>
</mask>
<g mask="url(#mask37_1631_21258)">
<path d="M57.7681 64.173C57.5353 64.191 57.3184 64.0396 57.3071 63.8498C57.2958 63.6599 57.5127 63.4475 57.7432 63.4272C57.9331 63.4091 58.1433 63.5718 58.1523 63.7458C58.1659 63.9741 58.0031 64.1549 57.7681 64.173Z" fill="white"/>
</g>
<mask id="mask38_1631_21258" style="mask-type:luminance" maskUnits="userSpaceOnUse" x="-6" y="-8" width="113" height="113">
<path d="M107 -8H-6V105H107V-8Z" fill="white"/>
</mask>
<g mask="url(#mask38_1631_21258)">
<path d="M56.1703 63.8887C55.9579 63.9045 55.82 63.7983 55.8132 63.6084C55.8065 63.4593 55.9375 63.3485 56.1432 63.3327C56.3534 63.3169 56.5025 63.4163 56.5116 63.579C56.5251 63.7463 56.385 63.8706 56.1703 63.8887Z" fill="white"/>
</g>
<mask id="mask39_1631_21258" style="mask-type:luminance" maskUnits="userSpaceOnUse" x="-6" y="-8" width="113" height="113">
<path d="M107 -8H-6V105H107V-8Z" fill="white"/>
</mask>
<g mask="url(#mask39_1631_21258)">
<path d="M63.6938 50.0027C63.8859 49.8152 64.4894 49.275 65.425 49.1733C66.5573 49.0513 67.3641 49.657 67.6104 49.8468C67.7076 49.9214 69.0478 50.9949 68.8625 52.4368C68.8331 52.6718 68.7427 53.3769 68.1415 53.7702C67.7031 54.0594 67.2285 54.0255 67.05 54.0052C65.9313 52.6718 64.8125 51.3384 63.6938 50.0027Z" fill="#C1C4BD"/>
</g>
<mask id="mask40_1631_21258" style="mask-type:luminance" maskUnits="userSpaceOnUse" x="-6" y="-8" width="113" height="113">
<path d="M107 -8H-6V105H107V-8Z" fill="white"/>
</mask>
<g mask="url(#mask40_1631_21258)">
<path d="M71.2334 50.1272C71.0888 49.7204 70.7882 48.9068 70.1215 48.1248C69.1497 46.9858 67.9587 46.5677 67.527 46.423C65.9518 45.8919 64.6252 46.1631 64.128 46.2716C62.0307 46.7259 61.3053 47.9666 61.2962 47.9824C61.2781 48.0163 61.2759 48.0525 61.2759 48.0525C61.2759 48.0661 61.2759 48.0774 61.2759 48.0909C61.294 48.1836 61.3663 48.2333 61.4363 48.283C62.033 48.7079 62.6025 49.1667 63.1743 49.6255C63.3415 49.7588 63.4975 49.9102 63.6941 50.0051C63.893 49.8334 64.3178 49.5147 64.9484 49.3769C65.084 49.3475 65.6083 49.2413 66.2614 49.3972C66.4852 49.4514 67.1044 49.6232 67.6355 50.1249C68.4762 50.9204 69.048 52.507 68.3361 53.3951C68.2299 53.5285 67.8773 53.9149 67.0524 54.0099L68.8017 57.1445C69.2853 56.8688 70.2458 56.2269 70.9193 55.0246C71.821 53.4155 71.6244 51.8516 71.5611 51.4086C71.4775 50.812 71.3148 50.3509 71.2334 50.1272Z" fill="#4E4E4E"/>
</g>
<mask id="mask41_1631_21258" style="mask-type:luminance" maskUnits="userSpaceOnUse" x="-6" y="-8" width="113" height="113">
<path d="M107 -8H-6V105H107V-8Z" fill="white"/>
</mask>
<g mask="url(#mask41_1631_21258)">
<g opacity="0.55">
<mask id="mask42_1631_21258" style="mask-type:luminance" maskUnits="userSpaceOnUse" x="15" y="12" width="22" height="20">
<path d="M36.4338 12.4346H15.1694V31.753H36.4338V12.4346Z" fill="white"/>
</mask>
<g mask="url(#mask42_1631_21258)">
<path d="M33.6608 13.8629C31.7489 12.2628 29.003 11.8921 26.9079 13.3476C25.3011 14.464 23.805 16.2472 23.5292 18.2405C23.023 18.0235 22.458 17.8834 22.0896 17.7659C21.0297 17.4246 19.8658 17.1444 18.7471 17.3071C16.686 17.6054 15.3571 19.5558 15.1898 21.5333C14.9932 23.8634 16.356 25.8454 17.9403 27.4116C18.8058 28.2658 19.7935 29.0749 20.8918 29.6083C22.006 30.1507 23.249 30.4693 24.4513 30.7541C26.8582 31.3236 29.3284 31.6491 31.7986 31.7304C33.0619 31.7711 34.3885 31.9112 34.8473 30.449C35.1886 29.3619 35.4824 28.2478 35.7265 27.1336C36.2327 24.8419 36.5762 22.4599 36.3796 20.1095C36.192 17.8766 35.444 15.3545 33.6608 13.8629Z" fill="#CEAFB0"/>
</g>
<mask id="mask43_1631_21258" style="mask-type:luminance" maskUnits="userSpaceOnUse" x="15" y="12" width="22" height="20">
<path d="M36.4338 12.4346H15.1694V31.753H36.4338V12.4346Z" fill="white"/>
</mask>
<g mask="url(#mask43_1631_21258)">
<path d="M33.6609 13.8625C32.2054 12.6444 30.2686 12.1404 28.5013 12.6105C29.2945 12.6512 30.0742 12.8297 30.7816 13.1574C34.3208 14.7892 35.3852 19.2933 35.0236 22.8506C34.8315 24.7467 34.0541 26.6112 32.5919 27.8723C31.1116 29.1469 29.0572 29.4972 27.1701 29.1808C23.0004 28.4802 17.8205 26.6293 15.6012 22.7534C15.4294 22.4506 15.2848 22.1409 15.1718 21.8245C15.1062 24.028 16.4193 25.9129 17.938 27.4135C18.8036 28.2678 19.7912 29.0769 20.8896 29.6102C22.0038 30.1526 23.2468 30.4713 24.4491 30.7561C26.856 31.3256 29.3262 31.651 31.7964 31.7324C33.0597 31.7731 34.3863 31.9132 34.8451 30.451C35.1864 29.3639 35.4802 28.2497 35.7242 27.1355C36.2305 24.8439 36.574 22.4619 36.3774 20.1115C36.1921 17.8763 35.444 15.3541 33.6609 13.8625Z" fill="#BB8F91"/>
</g>
<mask id="mask44_1631_21258" style="mask-type:luminance" maskUnits="userSpaceOnUse" x="15" y="12" width="22" height="20">
<path d="M36.4338 12.4346H15.1694V31.753H36.4338V12.4346Z" fill="white"/>
</mask>
<g mask="url(#mask44_1631_21258)">
<path d="M18.9299 18.4574C17.8203 18.1523 16.8891 19.0631 16.5456 20.0304C16.1117 21.2621 16.5343 22.4101 17.5378 23.1876C17.6756 23.2961 17.8587 23.2305 17.9333 23.0836C18.0824 22.7876 18.2225 22.4915 18.3265 22.1774C18.4621 21.7683 18.4598 21.3479 18.5593 20.9298C18.6881 20.392 18.9977 19.9083 19.3458 19.4857C19.6893 19.0721 19.3661 18.5772 18.9299 18.4574Z" fill="#EBDEDF"/>
</g>
<mask id="mask45_1631_21258" style="mask-type:luminance" maskUnits="userSpaceOnUse" x="15" y="12" width="22" height="20">
<path d="M36.4338 12.4346H15.1694V31.753H36.4338V12.4346Z" fill="white"/>
</mask>
<g mask="url(#mask45_1631_21258)">
<path d="M19.4092 24.8807C19.3889 24.849 19.3459 24.7699 19.303 24.727C19.26 24.6841 19.1968 24.6389 19.1606 24.6027C19.0883 24.5326 18.9979 24.4468 18.9301 24.3586C18.7877 24.1733 18.4238 24.2931 18.4849 24.5439C18.5255 24.7157 18.5775 24.8829 18.686 25.0231C18.738 25.0909 18.8035 25.17 18.8713 25.2219C18.9549 25.283 19.0566 25.3056 19.1561 25.3236C19.2623 25.3417 19.3776 25.2807 19.4295 25.188C19.486 25.0818 19.4702 24.9801 19.4092 24.8807Z" fill="#EBDEDF"/>
</g>
<mask id="mask46_1631_21258" style="mask-type:luminance" maskUnits="userSpaceOnUse" x="15" y="12" width="22" height="20">
<path d="M36.4338 12.4346H15.1694V31.753H36.4338V12.4346Z" fill="white"/>
</mask>
<g mask="url(#mask46_1631_21258)">
<path d="M28.4178 14.747C27.4641 14.1843 26.5307 14.9934 25.8753 15.6375C25.4685 16.0352 25.1521 16.5641 24.9894 17.1132C24.7815 17.8206 24.9916 18.2116 25.3103 18.8105C25.4979 19.1631 25.9747 19.102 26.0674 18.7133C26.1239 18.4715 26.4087 18.2161 26.5352 17.9901C26.7251 17.6579 26.9194 17.3302 27.1093 16.998C27.4822 16.3494 27.6697 15.5177 28.3681 15.1335C28.4969 15.0634 28.5805 14.8419 28.4178 14.747Z" fill="#EBDEDF"/>
</g>
</g>
</g>
<mask id="mask47_1631_21258" style="mask-type:luminance" maskUnits="userSpaceOnUse" x="-6" y="-8" width="113" height="113">
<path d="M107 -8H-6V105H107V-8Z" fill="white"/>
</mask>
<g mask="url(#mask47_1631_21258)">
<g opacity="0.55">
<mask id="mask48_1631_21258" style="mask-type:luminance" maskUnits="userSpaceOnUse" x="33" y="3" width="20" height="19">
<path d="M52.3579 3.65723H33.2993V21.2129H52.3579V3.65723Z" fill="white"/>
</mask>
<g mask="url(#mask48_1631_21258)">
<path d="M51.6302 6.37171C50.5454 4.42811 48.3736 3.24613 46.161 3.79305C44.4638 4.21341 42.649 5.22363 41.7857 6.79885C41.4331 6.45759 41.006 6.16153 40.737 5.94457C39.9619 5.32081 39.0782 4.71965 38.0928 4.49817C36.2781 4.09137 34.5492 5.29595 33.7808 6.89151C32.8745 8.77182 33.3807 10.8601 34.2034 12.6703C34.6531 13.6579 35.2181 14.6478 35.9639 15.4433C36.721 16.2502 37.6567 16.9123 38.5697 17.5316C40.3958 18.7723 42.3529 19.83 44.3892 20.6865C45.4288 21.1227 46.4933 21.6629 47.3385 20.5894C47.969 19.7893 48.5679 18.9531 49.1262 18.1034C50.2765 16.3519 51.3229 14.4738 51.906 12.4511C52.4642 10.5256 52.6427 8.18423 51.6302 6.37171Z" fill="#CEAFB0"/>
</g>
<mask id="mask49_1631_21258" style="mask-type:luminance" maskUnits="userSpaceOnUse" x="33" y="3" width="20" height="19">
<path d="M52.3579 3.65723H33.2993V21.2129H52.3579V3.65723Z" fill="white"/>
</mask>
<g mask="url(#mask49_1631_21258)">
<path d="M51.63 6.36878C50.8051 4.89074 49.3497 3.8534 47.7247 3.68164C48.3733 3.9664 48.9677 4.36642 49.4536 4.86362C51.8854 7.35188 51.3407 11.447 49.9079 14.3014C49.144 15.8224 47.9033 17.1309 46.2806 17.7162C44.6398 18.3084 42.816 17.9468 41.3425 17.0834C38.0858 15.1715 34.3546 11.9781 33.7376 8.03892C33.6901 7.73156 33.6698 7.42646 33.6766 7.12588C32.9195 8.94292 33.4167 10.934 34.2054 12.6674C34.6551 13.655 35.2201 14.6449 35.9659 15.4404C36.723 16.2472 37.6587 16.9094 38.5717 17.5287C40.3978 18.7694 42.355 19.8271 44.3912 20.6836C45.4308 21.1198 46.4953 21.6599 47.3405 20.5864C47.9711 19.7864 48.57 18.9502 49.1282 18.1004C50.2785 16.3489 51.3249 14.4709 51.908 12.4482C52.4639 10.5227 52.6425 8.1813 51.63 6.36878Z" fill="#BB8F91"/>
</g>
<mask id="mask50_1631_21258" style="mask-type:luminance" maskUnits="userSpaceOnUse" x="33" y="3" width="20" height="19">
<path d="M52.3579 3.65723H33.2993V21.2129H52.3579V3.65723Z" fill="white"/>
</mask>
<g mask="url(#mask50_1631_21258)">
<path d="M37.8805 5.51735C37.0511 4.90941 35.9843 5.37271 35.3922 6.07105C34.6374 6.95923 34.6261 8.05307 35.2159 9.02035C35.2973 9.15369 35.4713 9.15821 35.5798 9.05877C35.799 8.85989 36.0092 8.65649 36.1968 8.42823C36.4409 8.12991 36.5719 7.77961 36.7889 7.46095C37.0669 7.05415 37.4782 6.74905 37.9053 6.50497C38.3167 6.26993 38.2059 5.75465 37.8805 5.51735Z" fill="#EBDEDF"/>
</g>
<mask id="mask51_1631_21258" style="mask-type:luminance" maskUnits="userSpaceOnUse" x="33" y="3" width="20" height="19">
<path d="M52.3579 3.65723H33.2993V21.2129H52.3579V3.65723Z" fill="white"/>
</mask>
<g mask="url(#mask51_1631_21258)">
<path d="M36.235 11.0267C36.2282 10.9951 36.2169 10.9137 36.1943 10.864C36.1717 10.8143 36.1356 10.7555 36.1152 10.7149C36.0768 10.6335 36.0294 10.5318 36 10.4369C35.9412 10.238 35.6 10.2222 35.5683 10.4482C35.548 10.6041 35.5367 10.7601 35.5841 10.9115C35.6067 10.9838 35.6361 11.0719 35.6768 11.1375C35.7265 11.2143 35.8034 11.2663 35.8825 11.3115C35.9661 11.3612 36.0813 11.3477 36.1537 11.2866C36.235 11.2188 36.2554 11.1284 36.235 11.0267Z" fill="#EBDEDF"/>
</g>
<mask id="mask52_1631_21258" style="mask-type:luminance" maskUnits="userSpaceOnUse" x="33" y="3" width="20" height="19">
<path d="M52.3579 3.65723H33.2993V21.2129H52.3579V3.65723Z" fill="white"/>
</mask>
<g mask="url(#mask52_1631_21258)">
<path d="M46.9748 5.43789C46.3601 4.66497 45.3227 5.04465 44.5701 5.37235C44.1046 5.57575 43.6729 5.91475 43.3633 6.32155C42.9633 6.84587 43.0153 7.23911 43.0898 7.84027C43.135 8.19509 43.5509 8.29453 43.752 8.00073C43.8763 7.81767 44.195 7.69337 44.3735 7.54647C44.6379 7.32951 44.9046 7.11707 45.1668 6.90237C45.6843 6.47975 46.1047 5.84469 46.8098 5.74751C46.9409 5.72717 47.081 5.57123 46.9748 5.43789Z" fill="#EBDEDF"/>
</g>
</g>
</g>
<mask id="mask53_1631_21258" style="mask-type:luminance" maskUnits="userSpaceOnUse" x="-6" y="-8" width="113" height="113">
<path d="M107 -8H-6V105H107V-8Z" fill="white"/>
</mask>
<g mask="url(#mask53_1631_21258)">
<g opacity="0.88">
<mask id="mask54_1631_21258" style="mask-type:luminance" maskUnits="userSpaceOnUse" x="19" y="25" width="27" height="24">
<path d="M45.6252 25.1406H19.6533V48.8503H45.6252V25.1406Z" fill="white"/>
</mask>
<g mask="url(#mask54_1631_21258)">
<path d="M42.6194 27.0842C40.373 25.0344 37.044 24.4423 34.4133 26.1079C32.3952 27.3871 30.4809 29.4821 30.0425 31.898C29.4368 31.6087 28.7543 31.4076 28.3113 31.2449C27.0367 30.7725 25.631 30.3748 24.2592 30.5149C21.7302 30.7748 20.0104 33.0823 19.7053 35.4846C19.3437 38.3142 20.9053 40.8024 22.754 42.7935C23.7642 43.8805 24.9259 44.9179 26.2367 45.623C27.5678 46.3417 29.0662 46.7937 30.5171 47.2027C33.4212 48.0208 36.4157 48.5452 39.4238 48.7734C40.9606 48.8887 42.5742 49.1282 43.2047 47.37C43.6748 46.0614 44.0907 44.7167 44.4477 43.3743C45.1822 40.6058 45.7246 37.7198 45.6049 34.8428C45.4964 32.1105 44.7167 28.9962 42.6194 27.0842Z" fill="#CEAFB0"/>
</g>
<mask id="mask55_1631_21258" style="mask-type:luminance" maskUnits="userSpaceOnUse" x="19" y="25" width="27" height="24">
<path d="M45.6252 25.1406H19.6533V48.8503H45.6252V25.1406Z" fill="white"/>
</mask>
<g mask="url(#mask55_1631_21258)">
<g opacity="0.52">
<mask id="mask56_1631_21258" style="mask-type:luminance" maskUnits="userSpaceOnUse" x="19" y="25" width="27" height="24">
<path d="M45.6252 25.1406H19.6533V48.8503H45.6252V25.1406Z" fill="white"/>
</mask>
<g mask="url(#mask56_1631_21258)">
<path d="M34.4156 26.1081C32.3974 27.3872 30.4832 29.4823 30.0448 31.8982C29.4391 31.6089 28.7566 31.4078 28.3136 31.2451C27.3938 30.9061 26.4084 30.6055 25.4163 30.5151C25.344 30.5603 25.2739 30.6077 25.2039 30.6552C27.1068 30.7501 29.5702 32.7254 31.159 33.7175C31.5906 31.7423 31.4482 29.5365 32.5737 27.8008C33.819 25.8776 36.6892 25.5092 38.5921 26.6527C40.4385 27.7624 41.1346 30.036 41.5098 32.0293C41.9007 34.1017 42.2104 36.2758 42.233 38.3867C42.2533 40.4094 42.0047 42.6965 40.6916 44.3282C39.3537 45.9938 37.2225 46.2696 35.2292 45.9125C30.8991 45.135 26.9215 42.1021 24.162 38.7867C22.8987 37.268 21.9314 35.46 22.2659 33.426C22.4444 32.3412 22.9461 31.3829 23.658 30.619C21.4613 31.1524 19.9855 33.2768 19.7053 35.4826C19.3437 38.3121 20.9053 40.8004 22.754 42.7914C23.7642 43.8785 24.9259 44.9158 26.2367 45.6232C27.5678 46.3419 29.0662 46.7939 30.5171 47.2029C33.4212 48.0211 36.4157 48.5454 39.4238 48.7736C40.9606 48.8889 42.572 49.1285 43.2048 47.3702C43.6748 46.0616 44.0907 44.7169 44.4478 43.3745C45.1823 40.606 45.7224 37.72 45.6049 34.843C45.4919 32.1129 44.7122 28.9986 42.6149 27.0867C40.373 25.0368 37.044 24.4425 34.4156 26.1081Z" fill="#BB8F91"/>
</g>
</g>
</g>
<mask id="mask57_1631_21258" style="mask-type:luminance" maskUnits="userSpaceOnUse" x="19" y="25" width="27" height="24">
<path d="M45.6252 25.1406H19.6533V48.8503H45.6252V25.1406Z" fill="white"/>
</mask>
<g mask="url(#mask57_1631_21258)">
<path d="M25.8546 32.4658C24.5912 32.5697 23.2307 33.6342 24.1279 34.9608C24.3404 35.2772 24.7178 35.345 25.0161 35.1348C25.1043 35.1258 25.1924 35.1145 25.2783 35.1009C25.4274 35.067 25.5653 34.9834 25.7167 34.954C26.0218 34.8953 26.3676 34.9766 26.6727 35.0128C27.4275 35.1009 28.1688 34.9359 28.8152 34.6896C29.2468 34.5246 29.3576 34.0794 29.0683 33.7246C28.3496 32.8387 27.1428 32.3595 25.8546 32.4658Z" fill="#EBDEDF"/>
</g>
<mask id="mask58_1631_21258" style="mask-type:luminance" maskUnits="userSpaceOnUse" x="19" y="25" width="27" height="24">
<path d="M45.6252 25.1406H19.6533V48.8503H45.6252V25.1406Z" fill="white"/>
</mask>
<g mask="url(#mask58_1631_21258)">
<path d="M35.8644 27.6563C34.7503 27.5207 33.9231 28.8157 33.5751 29.6903C33.2451 30.5175 33.2858 31.8916 33.957 32.5515C34.2169 32.8069 34.7322 32.7752 34.8972 32.4159C35.0825 32.0181 35.0983 31.5797 35.2859 31.1797C35.4734 30.7751 35.6769 30.3593 35.9481 30.009C36.2622 29.5999 36.7549 29.2022 36.7571 28.644C36.7594 28.1242 36.3729 27.7174 35.8644 27.6563Z" fill="#EBDEDF"/>
</g>
</g>
</g>
<mask id="mask59_1631_21258" style="mask-type:luminance" maskUnits="userSpaceOnUse" x="-6" y="-8" width="113" height="113">
<path d="M107 -8H-6V105H107V-8Z" fill="white"/>
</mask>
<g mask="url(#mask59_1631_21258)">
<path d="M59.793 68.2677C58.9342 65.3727 57.255 62.8008 56.3736 59.9035C55.3498 56.5316 54.6718 52.3799 56.3261 49.1188C56.3781 49.0148 56.2357 48.9334 56.1702 49.0284C54.7193 51.1392 55.0357 54.3348 55.3656 56.7304C55.7837 59.7679 56.8369 62.4663 58.1341 65.219C59.5489 68.2225 60.2495 71.1899 59.576 74.4963C59.2777 75.963 58.7602 77.3778 58.0912 78.7157C57.4539 79.9836 56.5906 81.1475 56.1453 82.5057C55.7046 83.8527 55.6459 85.3262 55.9668 86.7048C56.3487 88.3501 57.7228 90.1174 57.0154 91.8418C56.977 91.9344 57.1239 91.9887 57.1736 91.9096C57.7793 90.9197 57.5895 89.9276 57.2075 88.8857C56.6538 87.3715 56.0843 86.0019 56.2177 84.3454C56.3578 82.621 57.1556 81.2605 58.0098 79.8028C58.6788 78.6592 59.2235 77.4546 59.6144 76.1868C60.4009 73.6239 60.5614 70.8509 59.793 68.2677Z" fill="#443744"/>
</g>
<mask id="mask60_1631_21258" style="mask-type:luminance" maskUnits="userSpaceOnUse" x="-6" y="-8" width="113" height="113">
<path d="M107 -8H-6V105H107V-8Z" fill="white"/>
</mask>
<g mask="url(#mask60_1631_21258)">
<path d="M60.1841 62.6679C58.9411 60.7334 57.6461 58.9118 56.9998 56.6722C56.3918 54.5636 56.3014 52.229 57.0947 50.1543C57.9828 47.8333 60.0101 46.4818 61.7141 44.8049C64.9436 41.6228 67.389 37.1526 66.8217 32.4902C66.7855 32.1873 66.3087 32.176 66.3381 32.4902C66.7426 37.1661 64.5414 41.5505 61.2192 44.7484C59.6778 46.2332 57.9241 47.4966 56.9907 49.4854C56.1907 51.1894 56.0166 53.1217 56.2675 54.9727C56.5319 56.9253 57.2529 58.7446 58.306 60.3989C59.6146 62.4532 61.1401 64.3607 61.7909 66.7495C62.4305 69.1022 62.3627 71.6718 61.574 73.9792C60.9593 75.7782 59.888 77.2879 58.8507 78.8405C59.1874 78.1444 59.5355 77.4529 59.8496 76.7523C60.6519 74.9669 61.1242 73.1204 61.2644 71.1655C61.4113 69.127 61.3683 67.0162 60.5615 65.111C59.7682 63.2397 58.5411 61.5289 57.4789 59.8068C56.2562 57.8248 55.0268 55.8473 53.8154 53.8607C53.2708 52.968 52.7397 52.0573 52.5204 51.0244C52.2831 49.9035 52.4052 48.7577 52.6357 47.6457C53.0651 45.5711 53.8787 43.5529 53.8697 41.4059C53.8629 39.4487 53.2301 37.5955 52.03 36.0565C51.9645 35.9706 51.8153 36.0858 51.8786 36.1717C53.1442 37.8735 53.7996 39.9075 53.56 42.0296C53.3408 43.9619 52.5905 45.7903 52.2131 47.6909C51.908 49.2209 51.8763 50.7691 52.482 52.2313C53.2866 54.1771 54.6448 55.9625 55.7432 57.7502C56.9116 59.6531 58.1139 61.5425 59.2484 63.4657C60.3943 65.4093 60.9186 67.31 60.9141 69.5655C60.9095 71.8707 60.5615 74.1035 59.6462 76.2279C58.8936 77.9749 57.915 79.627 57.2935 81.4305C55.3025 85.3561 54.7533 90.0094 55.9398 94.256C55.9873 94.4209 56.2246 94.3509 56.1929 94.1859C55.5692 90.8524 55.7251 87.433 56.7353 84.2464C56.6969 85.3764 56.8958 86.4951 57.3749 87.6138C58.2902 89.7473 59.7411 91.8039 58.8552 94.2085C58.7964 94.3667 59.0541 94.4752 59.1287 94.3238C59.8858 92.787 59.4315 91.0852 58.7671 89.5958C58.3399 88.6376 57.8179 87.7155 57.4856 86.7166C57.0901 85.5278 57.0608 84.2984 57.289 83.0712C57.3365 82.8204 57.393 82.5763 57.4585 82.3322C57.7478 81.6768 58.071 81.035 58.4394 80.4112C59.5852 78.4699 61.0338 76.6822 61.7774 74.5284C62.435 72.6232 62.6407 70.5395 62.3898 68.5439C62.1186 66.4241 61.3322 64.4556 60.1841 62.6679Z" fill="#443744"/>
</g>
<mask id="mask61_1631_21258" style="mask-type:luminance" maskUnits="userSpaceOnUse" x="-6" y="-8" width="113" height="113">
<path d="M107 -8H-6V105H107V-8Z" fill="white"/>
</mask>
<g mask="url(#mask61_1631_21258)">
<g opacity="0.74">
<mask id="mask62_1631_21258" style="mask-type:luminance" maskUnits="userSpaceOnUse" x="29" y="12" width="27" height="25">
<path d="M55.8923 12.8369H29.9746V36.6641H55.8923V12.8369Z" fill="white"/>
</mask>
<g mask="url(#mask62_1631_21258)">
<path d="M53.5757 15.2052C51.5213 12.9791 48.2714 12.1045 45.5188 13.5328C43.4079 14.6289 41.3287 16.5431 40.6846 18.9026C40.1083 18.5636 39.4484 18.3059 39.0235 18.1048C37.7986 17.5285 36.4404 17.011 35.0663 17.0313C32.5351 17.072 30.6322 19.2145 30.1214 21.5694C29.5202 24.3469 30.8536 26.9482 32.5193 29.0816C33.4278 30.2455 34.4922 31.3755 35.733 32.1891C36.9918 33.0163 38.4405 33.5948 39.8439 34.1237C42.6554 35.1859 45.5798 35.9633 48.5472 36.4447C50.0636 36.691 51.6411 37.0662 52.4185 35.3757C52.9971 34.1192 53.5259 32.8197 53.9938 31.5179C54.9588 28.8353 55.7453 26.0171 55.8741 23.1536C55.9984 20.4371 55.4921 17.2822 53.5757 15.2052Z" fill="#CEAFB0"/>
</g>
<mask id="mask63_1631_21258" style="mask-type:luminance" maskUnits="userSpaceOnUse" x="29" y="12" width="27" height="25">
<path d="M55.8923 12.8369H29.9746V36.6641H55.8923V12.8369Z" fill="white"/>
</mask>
<g mask="url(#mask63_1631_21258)">
<path d="M53.5757 15.2052C52.0118 13.5124 49.7563 12.6017 47.555 12.8909C48.5042 13.0627 49.4173 13.4017 50.2173 13.9034C54.2266 16.4211 54.8096 22.0146 53.8198 26.2453C53.2932 28.5008 52.066 30.6274 50.1066 31.9179C48.1246 33.2242 45.5956 33.3259 43.3695 32.6524C38.4518 31.1608 32.4989 28.1211 30.4288 23.1039C30.2683 22.7129 30.144 22.3151 30.0559 21.9174C29.631 24.5638 30.9237 27.0385 32.5193 29.0838C33.4278 30.2477 34.4922 31.3777 35.733 32.1913C36.9918 33.0185 38.4405 33.5971 39.8439 34.1259C42.6554 35.1881 45.5798 35.9655 48.5472 36.4469C50.0636 36.6933 51.6411 37.0684 52.4186 35.3779C52.9971 34.1214 53.526 32.8219 53.9938 31.5201C54.9588 28.8375 55.7453 26.0193 55.8741 23.1559C55.9984 20.4371 55.4922 17.2821 53.5757 15.2052Z" fill="#BB8F91"/>
</g>
<mask id="mask64_1631_21258" style="mask-type:luminance" maskUnits="userSpaceOnUse" x="29" y="12" width="27" height="25">
<path d="M55.8923 12.8369H29.9746V36.6641H55.8923V12.8369Z" fill="white"/>
</mask>
<g mask="url(#mask64_1631_21258)">
<path d="M35.1094 18.4486C33.819 17.9062 32.5556 18.8599 31.9929 19.9741C31.2765 21.3911 31.6087 22.8398 32.698 23.9336C32.8472 24.085 33.08 24.0353 33.1907 23.8703C33.4167 23.5358 33.6314 23.2036 33.8077 22.8398C34.0359 22.3674 34.097 21.8612 34.2823 21.373C34.5196 20.7447 34.9693 20.2114 35.4552 19.7549C35.9253 19.3096 35.6157 18.6633 35.1094 18.4486Z" fill="#EBDEDF"/>
</g>
<mask id="mask65_1631_21258" style="mask-type:luminance" maskUnits="userSpaceOnUse" x="29" y="12" width="27" height="25">
<path d="M55.8923 12.8369H29.9746V36.6641H55.8923V12.8369Z" fill="white"/>
</mask>
<g mask="url(#mask65_1631_21258)">
<path d="M34.6868 26.2636C34.6687 26.2229 34.6281 26.119 34.5829 26.0602C34.5377 26.0015 34.4699 25.9359 34.4314 25.8862C34.3546 25.7913 34.2597 25.6715 34.1919 25.5562C34.0495 25.3099 33.593 25.398 33.6246 25.7099C33.6472 25.9224 33.6834 26.1325 33.7919 26.3179C33.8438 26.4083 33.9116 26.5145 33.984 26.5868C34.0744 26.6749 34.1941 26.7156 34.3117 26.754C34.4382 26.7925 34.5851 26.7382 34.662 26.6343C34.7478 26.519 34.7433 26.3924 34.6868 26.2636Z" fill="#EBDEDF"/>
</g>
<mask id="mask66_1631_21258" style="mask-type:luminance" maskUnits="userSpaceOnUse" x="29" y="12" width="27" height="25">
<path d="M55.8923 12.8369H29.9746V36.6641H55.8923V12.8369Z" fill="white"/>
</mask>
<g mask="url(#mask66_1631_21258)">
<path d="M47.1192 15.454C46.0593 14.6269 44.8072 15.4585 43.9145 16.132C43.3608 16.5501 42.8998 17.1355 42.6173 17.7728C42.2557 18.5932 42.4478 19.0971 42.7393 19.8678C42.9111 20.3221 43.4942 20.3221 43.6659 19.8678C43.7721 19.5853 44.1541 19.3231 44.3439 19.07C44.6242 18.6994 44.9089 18.3333 45.1892 17.9649C45.7384 17.2417 46.0954 16.2676 46.9972 15.9151C47.1667 15.8473 47.3 15.5941 47.1192 15.454Z" fill="#EBDEDF"/>
</g>
</g>
</g>
<mask id="mask67_1631_21258" style="mask-type:luminance" maskUnits="userSpaceOnUse" x="-6" y="-8" width="113" height="113">
<path d="M107 -8H-6V105H107V-8Z" fill="white"/>
</mask>
<g mask="url(#mask67_1631_21258)">
<g opacity="0.85">
<mask id="mask68_1631_21258" style="mask-type:luminance" maskUnits="userSpaceOnUse" x="53" y="1" width="31" height="33">
<path d="M83.9776 1.10547H53.7637V33.0732H83.9776V1.10547Z" fill="white"/>
</mask>
<g mask="url(#mask68_1631_21258)">
<path d="M83.9733 15.1937C83.8332 11.5438 81.537 8.19453 77.8939 7.34703C75.1005 6.69615 71.6924 6.82271 69.2539 8.48381C68.9917 7.72219 68.5872 6.96961 68.3544 6.45207C67.6832 4.96273 66.8425 3.42367 65.5656 2.36825C63.2129 0.422389 59.789 0.894729 57.4748 2.65527C54.7469 4.72995 53.9333 8.16289 53.7864 11.4241C53.7073 13.2049 53.7977 15.074 54.2972 16.7916C54.8034 18.5363 55.6803 20.2019 56.5527 21.7884C58.2997 24.9637 60.3721 27.9695 62.7134 30.7358C63.909 32.1505 65.0638 33.7303 67.1024 32.7901C68.6188 32.0918 70.1195 31.3143 71.5704 30.4872C74.5581 28.7831 77.4871 26.8147 79.8488 24.2902C82.0929 21.8901 84.1021 18.5996 83.9733 15.1937Z" fill="#CEAFB0"/>
</g>
<mask id="mask69_1631_21258" style="mask-type:luminance" maskUnits="userSpaceOnUse" x="53" y="1" width="31" height="33">
<path d="M83.9776 1.10547H53.7637V33.0732H83.9776V1.10547Z" fill="white"/>
</mask>
<g mask="url(#mask69_1631_21258)">
<path d="M83.9733 15.1946C83.8332 11.5447 81.537 8.19534 77.8939 7.34784C75.4983 6.79188 72.6552 6.8077 70.3545 7.86764C70.3387 8.09138 70.3183 8.31738 70.298 8.54112C72.4315 7.70492 74.7841 7.384 76.8904 8.42812C79.9369 9.94006 80.8477 13.7843 80.0657 16.8557C79.3312 19.7326 77.4193 22.3 75.313 24.3317C73.0236 26.542 70.1466 28.5173 66.9193 28.9037C65.3215 29.0936 63.6197 28.863 62.3066 27.8822C61.2015 27.0573 60.4693 25.8866 59.9065 24.6436C58.6048 21.7712 57.7889 18.6795 57.3595 15.5584C56.9075 12.2814 56.8555 8.83718 57.8386 5.6438C58.4217 3.74766 59.4364 2.27866 60.9574 1.17578C59.7054 1.35884 58.4827 1.88316 57.4748 2.65156C54.7469 4.72624 53.9333 8.15918 53.7864 11.4204C53.7073 13.2012 53.7977 15.0703 54.2972 16.7879C54.8034 18.5326 55.6803 20.1982 56.5527 21.7847C58.2997 24.96 60.3721 27.9658 62.7134 30.7321C63.909 32.1468 65.0638 33.7266 67.1024 32.7864C68.6188 32.0881 70.1195 31.3106 71.5704 30.4835C74.5581 28.7794 77.4871 26.811 79.8488 24.2865C82.0929 21.8909 84.1021 18.6004 83.9733 15.1946Z" fill="#BB8F91"/>
</g>
<mask id="mask70_1631_21258" style="mask-type:luminance" maskUnits="userSpaceOnUse" x="53" y="1" width="31" height="33">
<path d="M83.9776 1.10547H53.7637V33.0732H83.9776V1.10547Z" fill="white"/>
</mask>
<g mask="url(#mask70_1631_21258)">
<path d="M65.7958 4.32411C64.7675 2.50707 61.9584 3.44949 60.6656 4.44163C59.9402 4.99759 59.4791 5.60101 59.1514 6.45529C58.7876 7.40449 58.9706 8.34465 58.7944 9.31871C58.7311 9.67127 59.2531 9.82721 59.339 9.47013C59.6193 8.31527 61.0069 7.26889 61.9245 6.59993C62.3742 6.26997 62.9256 6.03945 63.4793 5.96487C64.2048 5.86543 64.7675 6.02363 65.4501 5.63265C65.9043 5.37049 66.049 4.77159 65.7958 4.32411Z" fill="#EBDEDF"/>
</g>
<mask id="mask71_1631_21258" style="mask-type:luminance" maskUnits="userSpaceOnUse" x="53" y="1" width="31" height="33">
<path d="M83.9776 1.10547H53.7637V33.0732H83.9776V1.10547Z" fill="white"/>
</mask>
<g mask="url(#mask71_1631_21258)">
<path d="M76.1061 10.116C75.9411 9.21197 74.8111 8.84133 74.0405 8.78257C73.0529 8.70799 71.9522 8.82551 71.1477 9.44249C70.4765 9.95777 71.0324 10.9928 71.8234 10.5996C72.5805 10.2244 74.0902 10.3307 74.8857 10.5951C75.3671 10.7555 76.2779 11.0539 76.1061 10.116Z" fill="#EBDEDF"/>
</g>
</g>
</g>
<mask id="mask72_1631_21258" style="mask-type:luminance" maskUnits="userSpaceOnUse" x="-6" y="-8" width="113" height="113">
<path d="M107 -8H-6V105H107V-8Z" fill="white"/>
</mask>
<g mask="url(#mask72_1631_21258)">
<g opacity="0.85">
<mask id="mask73_1631_21258" style="mask-type:luminance" maskUnits="userSpaceOnUse" x="64" y="19" width="27" height="30">
<path d="M90.4409 19.8955H64.0825V48.5274H90.4409V19.8955Z" fill="white"/>
</mask>
<g mask="url(#mask73_1631_21258)">
<path d="M90.3891 35.2364C90.7507 32.0182 89.1845 28.7796 86.1041 27.5524C83.7424 26.6123 80.7389 26.271 78.3817 27.401C78.2529 26.6982 77.9997 25.9863 77.8641 25.5004C77.4732 24.1059 76.9421 22.646 75.9635 21.5499C74.16 19.5317 71.0977 19.491 68.8354 20.7272C66.1709 22.1827 65.0002 25.0823 64.4397 27.9208C64.1346 29.4689 63.9651 31.121 64.1753 32.6917C64.3878 34.2872 64.9347 35.8625 65.4861 37.3699C66.5958 40.3847 68.0128 43.2933 69.6965 46.0302C70.5576 47.4291 71.3576 48.9659 73.2696 48.4145C74.6911 48.0032 76.1104 47.5218 77.4912 46.9907C80.3366 45.8946 83.1638 44.5567 85.5685 42.6583C87.8533 40.8548 90.0501 38.2377 90.3891 35.2364Z" fill="#CEAFB0"/>
</g>
<mask id="mask74_1631_21258" style="mask-type:luminance" maskUnits="userSpaceOnUse" x="64" y="19" width="27" height="30">
<path d="M90.4409 19.8955H64.0825V48.5274H90.4409V19.8955Z" fill="white"/>
</mask>
<g mask="url(#mask74_1631_21258)">
<path d="M90.3891 35.2364C90.7507 32.0182 89.1845 28.7796 86.1041 27.5524C84.0791 26.7456 81.5841 26.384 79.4281 27.0055C79.3829 27.1999 79.3377 27.3942 79.2902 27.5886C81.2722 27.1389 83.3763 27.1705 85.0826 28.3638C87.5505 30.0927 87.8398 33.5844 86.7459 36.1698C85.7199 38.5948 83.704 40.5881 81.5864 42.091C79.2857 43.7227 76.5014 45.072 73.6244 44.9816C72.2006 44.9364 70.7384 44.507 69.7191 43.4741C68.8603 42.604 68.3744 41.4808 68.0467 40.3192C67.2873 37.6298 66.9845 34.8116 67.0207 32.0205C67.0591 29.087 67.4727 26.0654 68.7586 23.3963C69.5225 21.8143 70.605 20.6594 72.0853 19.8956C70.9644 19.891 69.8231 20.1871 68.8354 20.725C66.1709 22.1804 65.0002 25.08 64.4397 27.9186C64.1346 29.4667 63.9651 31.1187 64.1753 32.6894C64.3878 34.285 64.9347 35.8602 65.4861 37.3676C66.5958 40.3825 68.0128 43.2911 69.6965 46.0279C70.5576 47.4269 71.3576 48.9637 73.2696 48.4122C74.6911 48.0009 76.1104 47.5195 77.4912 46.9884C80.3366 45.8923 83.1638 44.5544 85.5685 42.656C87.8533 40.8548 90.0501 38.2377 90.3891 35.2364Z" fill="#BB8F91"/>
</g>
<mask id="mask75_1631_21258" style="mask-type:luminance" maskUnits="userSpaceOnUse" x="64" y="19" width="27" height="30">
<path d="M90.4409 19.8955H64.0825V48.5274H90.4409V19.8955Z" fill="white"/>
</mask>
<g mask="url(#mask75_1631_21258)">
<path d="M75.9046 23.2948C75.2447 21.5659 72.6593 22.0179 71.3937 22.7163C70.684 23.1073 70.1981 23.5751 69.7981 24.2802C69.3529 25.0644 69.389 25.9119 69.1065 26.7413C69.0048 27.0419 69.441 27.2476 69.5653 26.9447C69.9631 25.9707 71.3191 25.2384 72.2118 24.7729C72.6502 24.5446 73.1632 24.4158 73.6604 24.4226C74.3091 24.4316 74.7814 24.6463 75.4323 24.3932C75.8617 24.226 76.0673 23.7197 75.9046 23.2948Z" fill="#EBDEDF"/>
</g>
<mask id="mask76_1631_21258" style="mask-type:luminance" maskUnits="userSpaceOnUse" x="64" y="19" width="27" height="30">
<path d="M90.4409 19.8955H64.0825V48.5274H90.4409V19.8955Z" fill="white"/>
</mask>
<g mask="url(#mask76_1631_21258)">
<path d="M84.1718 29.7399C84.1469 28.924 83.2068 28.4517 82.5378 28.298C81.6813 28.1014 80.7027 28.0585 79.914 28.4924C79.2563 28.854 79.6066 29.8348 80.3524 29.5975C81.0666 29.3693 82.3751 29.6631 83.035 29.9998C83.4396 30.2032 84.1967 30.5851 84.1718 29.7399Z" fill="#EBDEDF"/>
</g>
</g>
</g>
<mask id="mask77_1631_21258" style="mask-type:luminance" maskUnits="userSpaceOnUse" x="-6" y="-8" width="113" height="113">
<path d="M107 -8H-6V105H107V-8Z" fill="white"/>
</mask>
<g mask="url(#mask77_1631_21258)">
<g opacity="0.88">
<mask id="mask78_1631_21258" style="mask-type:luminance" maskUnits="userSpaceOnUse" x="45" y="23" width="26" height="28">
<path d="M70.6841 23.8887H45.5303V50.5024H70.6841V23.8887Z" fill="white"/>
</mask>
<g mask="url(#mask78_1631_21258)">
<path d="M70.6793 35.6187C70.5618 32.579 68.6521 29.7902 65.6192 29.085C63.2936 28.5449 60.4573 28.6489 58.4256 30.0297C58.2086 29.3947 57.8719 28.7686 57.6775 28.337C57.1193 27.0962 56.4187 25.8171 55.3565 24.9357C53.3994 23.3153 50.5472 23.7085 48.6217 25.1752C46.3527 26.9041 45.6724 29.7608 45.5526 32.475C45.4871 33.9576 45.5617 35.5125 45.9775 36.9431C46.4001 38.3962 47.1279 39.7816 47.8533 41.1015C49.3065 43.7457 51.0331 46.2475 52.9835 48.5504C53.9802 49.7279 54.9407 51.0432 56.6379 50.2612C57.9013 49.6782 59.1511 49.0318 60.3579 48.3448C62.8462 46.9255 65.2824 45.287 67.2486 43.1852C69.1154 41.1941 70.7878 38.4527 70.6793 35.6187Z" fill="#CEAFB0"/>
</g>
<mask id="mask79_1631_21258" style="mask-type:luminance" maskUnits="userSpaceOnUse" x="45" y="23" width="26" height="28">
<path d="M70.6841 23.8887H45.5303V50.5024H70.6841V23.8887Z" fill="white"/>
</mask>
<g mask="url(#mask79_1631_21258)">
<g opacity="0.52">
<mask id="mask80_1631_21258" style="mask-type:luminance" maskUnits="userSpaceOnUse" x="45" y="23" width="26" height="28">
<path d="M70.6841 23.8906H45.5303V50.5021H70.6841V23.8906Z" fill="white"/>
</mask>
<g mask="url(#mask80_1631_21258)">
<path d="M65.6195 29.0868C63.294 28.5466 60.4577 28.6506 58.4259 30.0314C58.209 29.3964 57.8722 28.7703 57.6779 28.3387C57.2756 27.446 56.7965 26.5329 56.1659 25.7623C56.0823 25.7419 56.0009 25.7239 55.9173 25.7103C57.1874 27.1319 57.5061 30.2755 57.9129 32.1038C59.6237 31.0258 61.095 29.3783 63.1222 28.9625C65.3664 28.5014 67.6422 30.2891 68.162 32.4474C68.666 34.5424 67.5337 36.6329 66.3766 38.2985C65.1743 40.0297 63.8409 41.7767 62.3515 43.2728C60.9232 44.7079 59.1197 46.1317 57.036 46.3441C54.9116 46.5588 53.2189 45.2345 52.0753 43.5621C49.5916 39.9302 48.9633 34.9673 49.3927 30.6755C49.5893 28.7093 50.1995 26.7522 51.8832 25.5634C52.7827 24.9283 53.8155 24.6142 54.8596 24.5848C52.9386 23.3915 50.3894 23.8322 48.6198 25.1792C46.3507 26.9081 45.6705 29.7648 45.5507 32.479C45.4852 33.9616 45.5597 35.5165 45.9756 36.947C46.3982 38.4002 47.1259 39.7856 47.8536 41.1054C49.3068 43.7496 51.0335 46.2515 52.9838 48.5544C53.9805 49.7319 54.941 51.0472 56.636 50.2652C57.8993 49.6821 59.1491 49.038 60.356 48.3487C62.8442 46.9295 65.2805 45.291 67.2467 43.1892C69.1135 41.1936 70.7859 38.4522 70.6774 35.6182C70.5644 32.5785 68.6524 29.7919 65.6195 29.0868Z" fill="#BB8F91"/>
</g>
</g>
</g>
<mask id="mask81_1631_21258" style="mask-type:luminance" maskUnits="userSpaceOnUse" x="45" y="23" width="26" height="28">
<path d="M70.6841 23.8887H45.5303V50.5024H70.6841V23.8887Z" fill="white"/>
</mask>
<g mask="url(#mask81_1631_21258)">
<path d="M55.0833 27.4435C54.1228 26.6164 52.412 26.3926 52.0934 27.9633C52.0188 28.3362 52.2335 28.6526 52.5928 28.7182C52.6606 28.7747 52.7307 28.8289 52.8007 28.8809C52.9318 28.9645 53.0855 29.0029 53.2143 29.0911C53.4697 29.2674 53.655 29.5725 53.8426 29.812C54.3104 30.4109 54.9455 30.8245 55.576 31.1115C55.9964 31.3036 56.3919 31.0686 56.4416 30.6143C56.5704 29.4843 56.0642 28.2888 55.0833 27.4435Z" fill="#EBDEDF"/>
</g>
<mask id="mask82_1631_21258" style="mask-type:luminance" maskUnits="userSpaceOnUse" x="45" y="23" width="26" height="28">
<path d="M70.6841 23.8887H45.5303V50.5024H70.6841V23.8887Z" fill="white"/>
</mask>
<g mask="url(#mask82_1631_21258)">
<path d="M65.5337 31.2039C64.8489 30.3157 63.346 30.6344 62.4759 31.0005C61.6556 31.3463 60.7041 32.3384 60.7041 33.2808C60.7041 33.6447 61.0883 33.9882 61.4589 33.8571C61.8725 33.7102 62.1957 33.4142 62.6115 33.265C63.0296 33.1159 63.4703 32.969 63.911 32.9147C64.4241 32.8537 65.0523 32.9238 65.4524 32.5328C65.8275 32.1689 65.8456 31.6084 65.5337 31.2039Z" fill="#EBDEDF"/>
</g>
</g>
</g>
<mask id="mask83_1631_21258" style="mask-type:luminance" maskUnits="userSpaceOnUse" x="-6" y="-8" width="113" height="113">
<path d="M107 -8H-6V105H107V-8Z" fill="white"/>
</mask>
<g mask="url(#mask83_1631_21258)">
<path d="M56.5885 60.8146C54.8054 58.2586 52.9228 55.8019 50.2266 54.1544C47.3903 52.4232 43.9936 51.1373 42.4794 47.9349C42.4568 47.8874 42.3731 47.9213 42.3912 47.971C43.4738 50.7938 46.1044 52.2018 48.6175 53.6143C51.9058 55.4629 54.1816 57.9602 56.4846 60.8937C56.5298 60.9525 56.6315 60.8756 56.5885 60.8146Z" fill="#443744"/>
</g>
<mask id="mask84_1631_21258" style="mask-type:luminance" maskUnits="userSpaceOnUse" x="-6" y="-8" width="113" height="113">
<path d="M107 -8H-6V105H107V-8Z" fill="white"/>
</mask>
<g mask="url(#mask84_1631_21258)">
<path d="M71.5882 47.8421C71.0887 50.6038 68.0558 51.1213 65.8546 52.0253C64.0895 52.7508 62.3742 53.7113 61.1741 55.2323C58.3333 58.8279 60.9911 62.8824 60.8555 66.8758C60.8509 67.0114 61.0679 67.043 61.0927 66.9074C61.4792 64.957 60.8125 63.0202 60.469 61.115C59.9966 58.5002 60.5662 56.1792 62.6589 54.439C64.4918 52.9158 66.7405 52.353 68.8897 51.449C70.4469 50.7936 71.8933 49.6975 72.056 47.9053C72.0831 47.6387 71.6379 47.5754 71.5882 47.8421Z" fill="#443744"/>
</g>
<mask id="mask85_1631_21258" style="mask-type:luminance" maskUnits="userSpaceOnUse" x="-6" y="-8" width="113" height="113">
<path d="M107 -8H-6V105H107V-8Z" fill="white"/>
</mask>
<g mask="url(#mask85_1631_21258)">
<path d="M54.6427 82.0653C55.3184 81.4167 57.2914 80.7974 57.4451 80.8178C58.9457 81.0257 60.1955 80.1895 61.2261 79.1883C61.8114 78.6188 62.2747 78.1668 63.1199 78.1555C64.0691 78.1442 64.8217 78.5781 65.2737 79.2358C65.7415 80.9262 65.841 82.7094 65.4658 84.4564C64.7178 87.9368 61.5922 90.4137 58.0349 89.1188C56.462 88.547 54.7805 87.6859 53.9895 86.1288C53.298 84.7502 53.5217 83.141 54.6427 82.0653Z" fill="#4E4E4E"/>
</g>
</g>
</g>
</g>
<defs>
<clipPath id="clip0_1631_21258">
<rect width="100" height="100" fill="white"/>
</clipPath>
<clipPath id="clip1_1631_21258">
<rect width="113" height="113" fill="white" transform="translate(-6 -8)"/>
</clipPath>
</defs>
</svg>
