<svg width="100" height="100" viewBox="0 0 100 100" fill="none" xmlns="http://www.w3.org/2000/svg">
<g clip-path="url(#clip0_1631_21262)">
<rect opacity="0.5" width="100" height="100" rx="50" fill="#AFAFAF"/>
<g clip-path="url(#clip1_1631_21262)">
<mask id="mask0_1631_21262" style="mask-type:luminance" maskUnits="userSpaceOnUse" x="-1" y="4" width="100" height="100">
<path d="M99 4H-1V104H99V4Z" fill="white"/>
</mask>
<g mask="url(#mask0_1631_21262)">
<path d="M38.4123 61.5391C40.0753 59.9495 41.8039 61.2865 48.7289 60.9627C52.3371 60.794 54.1441 60.3524 59.1606 60.3291C63.1195 60.31 63.5929 60.5774 63.8864 60.7898C68.1021 63.8421 64.1849 75.6333 63.5985 77.388C62.584 80.4205 62.0491 81.9601 60.6881 83.0939C58.0134 85.322 54.3699 84.9199 47.3199 84.0414C42.7543 83.4728 40.4457 83.163 39.1919 81.9495C37.0894 79.9139 37.1317 76.1329 37.2164 68.5707C37.2784 62.9742 37.8394 62.0866 38.4123 61.5391Z" fill="#FCFEFE"/>
</g>
<mask id="mask1_1631_21262" style="mask-type:luminance" maskUnits="userSpaceOnUse" x="-1" y="4" width="100" height="100">
<path d="M99 4H-1V104H99V4Z" fill="white"/>
</mask>
<g mask="url(#mask1_1631_21262)">
<path d="M65.4776 89.2332C65.1411 89.3263 64.8052 89.4187 64.4687 89.5119C64.4687 89.5119 61.0136 91.2475 57.1238 91.9136C56.7047 91.9855 56.3985 92.097 55.9604 92.0864C54.8202 92.0589 53.9347 91.4599 53.4253 91.0345L51.5302 89.3489C50.5142 89.9677 49.4982 90.5864 48.4822 91.2045C46.9384 90.0347 45.4786 89.4653 44.5275 89.176C43.3725 88.8247 41.8231 88.3512 39.8878 88.7435C38.3673 89.0518 37.2709 89.7518 36.6606 90.2132C36.6232 88.9009 36.6472 87.4418 36.7756 85.862C36.9103 84.2089 37.1368 82.7032 37.4021 81.3662C38.0131 81.6386 38.9064 82.009 40.0127 82.3653C42.662 83.219 44.7089 83.4067 47.2884 83.6423C48.3396 83.7383 51.1252 83.962 54.6346 83.7954C56.3033 83.7164 57.5161 83.5788 58.0566 83.5132C59.2433 83.3686 60.6283 83.1999 62.3217 82.7639C62.9087 82.6129 63.567 82.4838 64.3791 82.1931C64.9019 82.0061 65.3266 81.8206 65.6216 81.683C65.6773 82.8331 65.7013 84.0558 65.6794 85.3427C65.6561 86.7172 65.5835 88.0168 65.4776 89.2332Z" fill="#3A3A3A"/>
</g>
<mask id="mask2_1631_21262" style="mask-type:luminance" maskUnits="userSpaceOnUse" x="-1" y="4" width="100" height="100">
<path d="M99 4H-1V104H99V4Z" fill="white"/>
</mask>
<g mask="url(#mask2_1631_21262)">
<path d="M37.1297 20.8507C36.6309 19.8143 35.6989 18.2945 34.0175 17.1769C30.2506 14.6736 24.9963 15.6995 21.6555 18.2141C17.2119 21.5591 17.0044 26.8974 16.9868 27.6805C16.9635 28.7226 16.9861 33.7991 20.8772 36.9304C22.2347 38.0233 23.6353 38.5341 24.5948 38.7888L37.1297 20.8507Z" fill="#4D4D4D"/>
</g>
<mask id="mask3_1631_21262" style="mask-type:luminance" maskUnits="userSpaceOnUse" x="-1" y="4" width="100" height="100">
<path d="M99 4H-1V104H99V4Z" fill="white"/>
</mask>
<g mask="url(#mask3_1631_21262)">
<path d="M61.4658 20.7369C61.5794 20.171 61.8052 19.3667 62.2885 18.5024C63.4463 16.433 65.2991 15.4247 66.2333 15.036C70.5421 13.2403 75.0351 16.3808 75.6771 16.8288C79.2028 19.2933 80.2294 22.8846 80.4989 23.8815C80.9858 25.6864 81.7816 28.6398 80.1003 31.4522C78.129 34.7499 74.2879 35.2876 73.7249 35.3574L61.4658 20.7369Z" fill="#4D4D4D"/>
</g>
<mask id="mask4_1631_21262" style="mask-type:luminance" maskUnits="userSpaceOnUse" x="-1" y="4" width="100" height="100">
<path d="M99 4H-1V104H99V4Z" fill="white"/>
</mask>
<g mask="url(#mask4_1631_21262)">
<path d="M42.5905 67.3893C44.9435 65.7567 47.2973 64.1233 49.6503 62.4906L41.7544 61.8281C42.0331 63.6816 42.3118 65.5358 42.5905 67.3893Z" fill="#D3D1CD"/>
</g>
<mask id="mask5_1631_21262" style="mask-type:luminance" maskUnits="userSpaceOnUse" x="-1" y="4" width="100" height="100">
<path d="M99 4H-1V104H99V4Z" fill="white"/>
</mask>
<g mask="url(#mask5_1631_21262)">
<path d="M56.6604 67.3893C54.3074 65.7567 51.9536 64.1233 49.6006 62.4906L57.4965 61.8281C57.2171 63.6816 56.9384 65.5358 56.6604 67.3893Z" fill="#D3D1CD"/>
</g>
<mask id="mask6_1631_21262" style="mask-type:luminance" maskUnits="userSpaceOnUse" x="-1" y="4" width="100" height="100">
<path d="M99 4H-1V104H99V4Z" fill="white"/>
</mask>
<g mask="url(#mask6_1631_21262)">
<path d="M60.1733 82.2615C60.9918 82.1035 62.2646 81.9659 63.7865 81.4219C64.5054 81.1651 65.0777 80.9026 65.4544 80.7178C65.5236 80.8031 65.6809 81.0233 65.7112 81.3464C65.7338 81.5934 65.6717 81.7881 65.6315 81.889C65.6195 81.9264 65.4601 81.9793 65.108 82.0527C65.0988 82.0555 60.9939 83.3044 56.436 83.8095C54.8591 83.9845 53.1544 84.0826 53.0232 84.0903C52.5717 84.1172 52.1088 84.1383 51.5973 84.1567C49.6655 84.2244 48.0003 84.1976 46.6922 84.1454C44.4648 84.0565 42.7919 83.83 41.5579 83.6691C39.7961 83.4398 38.2926 83.1766 37.1221 82.948C37.1898 82.5522 37.2582 82.1564 37.326 81.7613C39.7728 82.2707 41.8056 82.5487 43.2033 82.7074C52.1956 83.7305 58.6917 82.548 60.1733 82.2615Z" fill="#676767"/>
</g>
<mask id="mask7_1631_21262" style="mask-type:luminance" maskUnits="userSpaceOnUse" x="-1" y="4" width="100" height="100">
<path d="M99 4H-1V104H99V4Z" fill="white"/>
</mask>
<g mask="url(#mask7_1631_21262)">
<path d="M67.053 77.6862C67.1969 77.9536 67.4241 78.3621 67.7303 78.8518C67.9935 79.2723 68.0217 79.2843 68.0351 79.3675C68.2052 80.3758 64.6097 81.7692 64.3084 81.8842C62.3321 82.6385 61.3711 83.0851 60.6818 82.8523C60.0186 82.6279 59.3737 82.0423 57.9407 78.1504C57.2105 76.1664 56.7074 74.4985 56.3857 73.3505C56.3793 73.1741 56.4449 73.014 56.5183 72.8609C56.9875 71.8759 57.4468 70.886 57.8469 69.87C58.2293 69.0205 58.5468 68.147 58.846 67.2658C59.1479 66.3768 59.4859 65.5012 59.7836 64.6108C60.0793 63.7267 60.0969 63.7909 60.243 63.3641C60.6543 62.159 60.9774 60.9426 60.9774 60.9426C61.405 60.8114 61.774 60.6801 62.0732 60.5651C62.3752 60.4494 62.7554 60.3027 63.2324 60.0698C63.521 59.9287 63.5203 59.9153 63.8801 59.7375C64.3084 59.5265 64.3154 59.5435 64.8248 59.3043C64.8248 59.3043 65.3307 59.0129 66.121 58.845C66.2522 58.8175 66.3799 58.8083 66.4413 58.967C66.7933 59.65 66.9401 60.2363 67.0085 60.6258C67.2647 62.0743 66.9055 63.3824 66.5676 64.6101C66.3926 65.2465 66.3524 65.2373 66.2472 65.7164C66.0814 66.4713 65.8839 67.4239 66.2099 68.4751C66.2875 68.7263 66.4476 68.9119 66.6734 69.4608C66.8075 69.7868 66.902 70.0598 66.9606 70.2404C66.9175 70.4888 66.7186 71.6494 66.6551 72.0198C66.5556 72.6019 66.4314 73.3336 66.3199 74.2621C66.2705 74.6735 66.267 74.787 66.2621 74.8943C66.236 75.4778 66.3051 76.0458 66.5393 76.5869C66.6304 76.8614 66.7687 77.1133 66.914 77.3609C66.9733 77.4653 67.0332 77.5669 67.053 77.6862Z" fill="#272727"/>
</g>
<mask id="mask8_1631_21262" style="mask-type:luminance" maskUnits="userSpaceOnUse" x="-1" y="4" width="100" height="100">
<path d="M99 4H-1V104H99V4Z" fill="white"/>
</mask>
<g mask="url(#mask8_1631_21262)">
<path d="M66.4563 69.3054C66.1268 68.6922 66.069 68.1179 66.0266 67.6974C65.9307 66.7322 66.1367 65.9307 66.4507 64.7524C66.7837 63.5029 66.9291 63.4379 67.0561 62.6922C67.2317 61.6607 67.1259 60.7759 67.0045 60.1797C67.1153 60.2961 67.3002 60.4915 67.5217 60.7385C68.1744 61.4666 69.2793 62.7959 70.4371 64.8053C71.8376 67.2367 72.5382 68.4523 72.7894 70.0286C73.2847 73.133 72.1727 76.5324 72.1727 76.5331C72.1727 76.5331 71.995 76.0032 71.5512 75.424C71.2238 74.9971 70.8527 74.8038 70.1534 74.4404C69.4373 74.0686 68.8503 73.8823 68.355 73.7271C67.8646 73.574 67.2035 73.3955 66.4034 73.2579C66.4034 73.2579 66.426 72.9072 66.6687 71.3C66.7421 70.811 66.9121 70.3185 66.7026 69.7611C66.6299 69.5685 66.5727 69.522 66.4563 69.3054Z" fill="#3A3A3A"/>
</g>
<mask id="mask9_1631_21262" style="mask-type:luminance" maskUnits="userSpaceOnUse" x="-1" y="4" width="100" height="100">
<path d="M99 4H-1V104H99V4Z" fill="white"/>
</mask>
<g mask="url(#mask9_1631_21262)">
<path d="M66.4494 79.8284C66.1904 80.0859 65.8525 80.2207 65.5406 80.3893C64.634 80.8797 63.7181 81.3503 62.705 81.5994C61.9535 81.7842 61.3256 81.6283 60.7604 81.0892C60.0845 80.4444 59.6125 79.6598 59.1278 78.878C58.5316 77.9149 57.8832 76.9829 57.4119 75.9478C57.1304 75.3291 56.8778 74.7011 56.7423 74.0259C56.6562 73.5969 56.8368 73.2667 57.0238 72.9443C58.2854 70.7641 58.6459 69.5322 59.1546 68.8386C59.2788 68.6693 60.0655 67.2088 60.6151 65.5021C60.97 64.4007 61.3355 62.8238 61.3489 60.8094C61.9881 60.5963 62.6944 60.3473 63.4162 59.9804C65.2443 59.0505 66.2624 58.3174 66.2624 58.3174C67.3518 60.0707 67.4216 61.359 67.2805 62.2156C67.0978 63.3261 66.5086 64.0239 66.1925 65.8619C66.0592 66.6352 66.0317 67.2808 66.0281 67.6978C65.8976 68.0273 65.7177 68.5049 65.53 69.0898C65.0262 70.6611 64.7433 72.1498 64.6657 72.9224C64.3701 75.8491 65.9717 78.9514 66.4494 79.8284Z" fill="#4D4D4D"/>
</g>
<mask id="mask10_1631_21262" style="mask-type:luminance" maskUnits="userSpaceOnUse" x="-1" y="4" width="100" height="100">
<path d="M99 4H-1V104H99V4Z" fill="white"/>
</mask>
<g mask="url(#mask10_1631_21262)">
<path d="M71.3422 77.4531C70.6211 77.9759 69.869 78.0175 69.4372 78.0365C68.8269 78.0627 67.7114 78.1099 66.9134 77.3627C65.673 76.2021 66.1874 74.0494 66.2657 73.7214C66.3123 73.5266 66.3638 73.3679 66.4026 73.2578C67.7446 73.5337 68.8121 73.8801 69.5712 74.1637C70.3361 74.4495 70.7749 74.6654 71.2004 75.0612C71.75 75.5727 72.0294 76.1527 72.1733 76.533C72.0294 76.7764 71.7719 77.1419 71.3422 77.4531Z" fill="#FDFDFD"/>
</g>
<mask id="mask11_1631_21262" style="mask-type:luminance" maskUnits="userSpaceOnUse" x="-1" y="4" width="100" height="100">
<path d="M99 4H-1V104H99V4Z" fill="white"/>
</mask>
<g mask="url(#mask11_1631_21262)">
<path d="M57.4701 70.959C57.2662 71.4268 57.0969 71.7937 56.8944 72.2262C56.7603 72.5119 56.5896 72.8718 56.3864 73.2873C56.2707 72.2551 56.2622 71.3979 56.2791 70.7784C56.3052 69.8273 56.404 69.0385 56.5353 67.9985C56.6263 67.2753 56.7081 66.7482 56.7483 66.49C56.8993 65.5051 57.1053 64.0721 57.3368 62.1586C57.3368 62.1586 57.7742 62.0203 59.0492 61.6012C60.3996 61.1574 60.9767 60.9443 60.9767 60.9443C60.8984 61.2188 60.818 61.494 60.7361 61.7705C60.4476 62.7414 60.1484 63.6882 59.8394 64.6125C59.1938 66.375 58.5482 68.1375 57.9026 69.9007C57.7855 70.2062 57.643 70.5632 57.4701 70.959Z" fill="#5B5C5B"/>
</g>
<mask id="mask12_1631_21262" style="mask-type:luminance" maskUnits="userSpaceOnUse" x="-1" y="4" width="100" height="100">
<path d="M99 4H-1V104H99V4Z" fill="white"/>
</mask>
<g mask="url(#mask12_1631_21262)">
<path d="M58.3435 75.6976C58.0253 75.5134 57.8447 75.1755 57.8863 74.8481C57.9449 74.3902 58.4211 74.0917 58.8522 74.1326C59.2085 74.1665 59.5775 74.4374 59.6297 74.8234C59.6855 75.2319 59.3539 75.5198 59.3136 75.5529C58.9037 75.898 58.3668 75.7067 58.3435 75.6976Z" fill="#272727"/>
</g>
<mask id="mask13_1631_21262" style="mask-type:luminance" maskUnits="userSpaceOnUse" x="-1" y="4" width="100" height="100">
<path d="M99 4H-1V104H99V4Z" fill="white"/>
</mask>
<g mask="url(#mask13_1631_21262)">
<path d="M60.8317 77.523C60.8585 77.5547 61.1619 77.9195 61.0426 78.3104C60.8994 78.7796 60.2242 79.0392 59.7839 78.7619C59.4713 78.5651 59.3147 78.1199 59.4671 77.7728C59.5927 77.4856 59.8799 77.3776 59.9949 77.3452C60.433 77.2203 60.7907 77.4912 60.8317 77.523Z" fill="#272727"/>
</g>
<mask id="mask14_1631_21262" style="mask-type:luminance" maskUnits="userSpaceOnUse" x="-1" y="4" width="100" height="100">
<path d="M99 4H-1V104H99V4Z" fill="white"/>
</mask>
<g mask="url(#mask14_1631_21262)">
<path d="M58.4052 75.0953C58.3558 74.9514 58.3854 74.7785 58.4877 74.6706C58.6938 74.4526 59.1742 74.5189 59.285 74.7856C59.3697 74.9895 59.2399 75.3112 58.9654 75.386C58.7333 75.4495 58.48 75.3127 58.4052 75.0953Z" fill="#D3D1CD"/>
</g>
<mask id="mask15_1631_21262" style="mask-type:luminance" maskUnits="userSpaceOnUse" x="-1" y="4" width="100" height="100">
<path d="M99 4H-1V104H99V4Z" fill="white"/>
</mask>
<g mask="url(#mask15_1631_21262)">
<path d="M59.8281 77.8884C59.8923 77.7607 60.0271 77.6478 60.1823 77.6401C60.4773 77.6253 60.7785 77.99 60.6762 78.2765C60.5958 78.5023 60.2691 78.6638 60.0102 78.5206C59.7837 78.395 59.7223 78.098 59.8281 77.8884Z" fill="#D3D1CD"/>
</g>
<mask id="mask16_1631_21262" style="mask-type:luminance" maskUnits="userSpaceOnUse" x="-1" y="4" width="100" height="100">
<path d="M99 4H-1V104H99V4Z" fill="white"/>
</mask>
<g mask="url(#mask16_1631_21262)">
<path d="M36.388 79.2169C36.3076 79.5097 36.1771 79.9591 35.9873 80.5045C35.825 80.9737 35.8003 80.9913 35.8053 81.0753C35.8645 82.0963 39.6802 82.6522 39.9998 82.6967C42.0946 82.9909 43.1311 83.2124 43.7512 82.8314C44.3481 82.4653 44.8456 81.7498 45.374 77.6371C45.6435 75.5402 45.7614 73.8017 45.8192 72.6114C45.7861 72.4379 45.6859 72.2968 45.5808 72.1641C44.9034 71.3083 44.2353 70.4461 43.6186 69.5451C43.057 68.8028 42.5518 68.0218 42.0635 67.2295C41.5711 66.4301 41.0461 65.6518 40.5572 64.851C40.0718 64.0552 40.0689 64.1215 39.8319 63.7384C39.1616 62.6553 38.576 61.542 38.576 61.542C38.1301 61.5095 37.7413 61.4636 37.4238 61.4185C37.1042 61.3733 36.6999 61.3148 36.1834 61.1948C35.8702 61.1215 35.8688 61.108 35.4779 61.0156C35.0136 60.9056 35.0101 60.9232 34.4605 60.804C34.4605 60.804 33.9024 60.6325 33.0945 60.6452C32.9612 60.6473 32.8342 60.6671 32.8095 60.8357C32.6183 61.5801 32.6063 62.184 32.626 62.5791C32.6994 64.0481 33.3415 65.2433 33.9447 66.3651C34.2573 66.9465 34.2947 66.9282 34.5035 67.372C34.833 68.0705 35.2387 68.9552 35.1561 70.0524C35.1364 70.3149 35.0214 70.5315 34.924 71.1171C34.8662 71.4642 34.8351 71.7521 34.8182 71.9412C34.9156 72.174 35.3685 73.2606 35.5125 73.6077C35.7396 74.1531 36.024 74.8382 36.3394 75.7187C36.4791 76.1082 36.5087 76.2183 36.5369 76.322C36.6929 76.885 36.7521 77.4544 36.6442 78.0337C36.6166 78.3215 36.5383 78.5974 36.4516 78.8719C36.4163 78.984 36.381 79.0962 36.388 79.2169Z" fill="#272727"/>
</g>
<mask id="mask17_1631_21262" style="mask-type:luminance" maskUnits="userSpaceOnUse" x="-1" y="4" width="100" height="100">
<path d="M99 4H-1V104H99V4Z" fill="white"/>
</mask>
<g mask="url(#mask17_1631_21262)">
<path d="M35.0999 70.9133C35.2071 70.6487 35.6164 69.0246 35.6749 68.743C35.9388 67.4688 34.6596 66.3449 33.7727 64.3919C33.3628 63.4888 32.919 62.1503 32.8471 60.3145C32.7158 60.8838 32.495 61.7573 32.1493 62.8001C31.4077 65.0375 30.6951 65.851 30.2153 67.4152C29.3926 70.0977 28.9813 71.439 29.0878 73.0314C29.2981 76.1683 31.1396 79.234 31.1396 79.234C31.1396 79.234 31.1946 78.678 31.498 78.0141C31.7217 77.5244 32.0406 77.2535 32.641 76.7434C33.2563 76.2205 33.7869 75.908 34.2356 75.6469C34.6794 75.388 35.284 75.0669 36.0333 74.7544C36.0333 74.7544 35.9332 74.4178 35.3384 72.9051C35.157 72.4451 34.8826 72.0027 34.9863 71.2809C35.0159 71.0784 35.0893 70.9401 35.0999 70.9133Z" fill="#3A3A3A"/>
</g>
<mask id="mask18_1631_21262" style="mask-type:luminance" maskUnits="userSpaceOnUse" x="-1" y="4" width="100" height="100">
<path d="M99 4H-1V104H99V4Z" fill="white"/>
</mask>
<g mask="url(#mask18_1631_21262)">
<path d="M37.4548 81.17C37.7645 81.3633 38.1237 81.4197 38.4651 81.5143C39.4586 81.7894 40.4562 82.0441 41.4997 82.0611C42.273 82.0738 42.8509 81.7817 43.2813 81.1304C43.7963 80.3515 44.0814 79.4809 44.3791 78.6102C44.7453 77.5385 45.1701 76.4851 45.3979 75.371C45.5341 74.7049 45.64 74.0368 45.6216 73.3475C45.6096 72.91 45.3598 72.6285 45.1058 72.3554C43.3892 70.5118 42.7634 69.3914 42.1129 68.8291C41.9534 68.6915 40.8612 67.4433 39.9447 65.9024C39.3534 64.9083 38.6451 63.452 38.1822 61.492C37.5119 61.4271 36.7676 61.3417 35.9823 61.1455C33.9926 60.6467 32.8369 60.1592 32.8369 60.1592C32.9202 61.7467 33.1713 63.0837 33.4254 64.1047C33.5319 64.5308 33.8769 65.8573 34.5881 67.4984C34.8908 68.1969 35.1829 68.7747 35.4136 69.2051C35.5328 69.5008 35.7177 69.9523 35.9541 70.497C36.7902 72.4218 37.5373 73.7009 37.6516 74.0403C38.5936 76.8266 37.725 80.2083 37.4548 81.17Z" fill="#4D4D4D"/>
</g>
<mask id="mask19_1631_21262" style="mask-type:luminance" maskUnits="userSpaceOnUse" x="-1" y="4" width="100" height="100">
<path d="M99 4H-1V104H99V4Z" fill="white"/>
</mask>
<g mask="url(#mask19_1631_21262)">
<path d="M32.1549 79.9464C32.9741 80.2949 33.717 80.1679 34.1418 80.0896C34.7422 79.9788 35.8401 79.7763 36.4518 78.8697C37.4022 77.4614 36.42 75.4781 36.2705 75.1761C36.1816 74.9969 36.0962 74.8537 36.0334 74.7549C34.7867 75.3236 33.8243 75.8993 33.147 76.3445C32.4647 76.7932 32.0858 77.1023 31.7591 77.5828C31.3372 78.2036 31.1947 78.8316 31.1396 79.2345C31.3344 79.4405 31.6674 79.7389 32.1549 79.9464Z" fill="#FDFDFD"/>
</g>
<mask id="mask20_1631_21262" style="mask-type:luminance" maskUnits="userSpaceOnUse" x="-1" y="4" width="100" height="100">
<path d="M99 4H-1V104H99V4Z" fill="white"/>
</mask>
<g mask="url(#mask20_1631_21262)">
<path d="M44.2282 70.5204C44.5309 70.931 44.7778 71.2506 45.072 71.6274C45.266 71.8757 45.513 72.1883 45.8044 72.5481C45.6866 71.5159 45.5038 70.6784 45.3493 70.0787C45.1115 69.1572 44.8392 68.4108 44.4794 67.4258C44.2289 66.7414 44.0313 66.2454 43.9354 66.0027C43.5685 65.0763 43.0478 63.7251 42.3951 61.9119C42.3951 61.9119 41.9379 61.8745 40.6023 61.7503C39.187 61.6184 38.5767 61.54 38.5767 61.54C38.7142 61.7898 38.8539 62.0403 38.9958 62.2915C39.4932 63.1734 39.9969 64.0299 40.5042 64.8611C41.5266 66.4352 42.5497 68.0093 43.572 69.5834C43.7526 69.8564 43.9714 70.1732 44.2282 70.5204Z" fill="#5B5C5B"/>
</g>
<mask id="mask21_1631_21262" style="mask-type:luminance" maskUnits="userSpaceOnUse" x="-1" y="4" width="100" height="100">
<path d="M99 4H-1V104H99V4Z" fill="white"/>
</mask>
<g mask="url(#mask21_1631_21262)">
<path d="M44.4343 75.3357C44.7031 75.0846 44.804 74.7156 44.6904 74.4058C44.5309 73.9726 44.0003 73.7878 43.589 73.9239C43.2489 74.0368 42.9505 74.3825 42.9858 74.7706C43.0231 75.1812 43.4105 75.3872 43.4571 75.4112C43.9326 75.6561 44.4138 75.3491 44.4343 75.3357Z" fill="#272727"/>
</g>
<mask id="mask22_1631_21262" style="mask-type:luminance" maskUnits="userSpaceOnUse" x="-1" y="4" width="100" height="100">
<path d="M99 4H-1V104H99V4Z" fill="white"/>
</mask>
<g mask="url(#mask22_1631_21262)">
<path d="M42.4167 77.6696C42.3969 77.7063 42.1831 78.1304 42.3863 78.4845C42.6304 78.91 43.3473 79.0123 43.7135 78.644C43.9738 78.3822 44.0274 77.9137 43.8017 77.6089C43.6154 77.3571 43.3113 77.3161 43.1914 77.3098C42.7377 77.2858 42.4491 77.6294 42.4167 77.6696Z" fill="#272727"/>
</g>
<mask id="mask23_1631_21262" style="mask-type:luminance" maskUnits="userSpaceOnUse" x="-1" y="4" width="100" height="100">
<path d="M99 4H-1V104H99V4Z" fill="white"/>
</mask>
<g mask="url(#mask23_1631_21262)">
<path d="M44.2396 74.7609C44.2558 74.6099 44.1881 74.4476 44.0639 74.3651C43.8141 74.1986 43.3605 74.3707 43.3125 74.6551C43.2758 74.8724 43.474 75.1567 43.7577 75.1687C43.9997 75.18 44.2149 74.9902 44.2396 74.7609Z" fill="#D3D1CD"/>
</g>
<mask id="mask24_1631_21262" style="mask-type:luminance" maskUnits="userSpaceOnUse" x="-1" y="4" width="100" height="100">
<path d="M99 4H-1V104H99V4Z" fill="white"/>
</mask>
<g mask="url(#mask24_1631_21262)">
<path d="M43.476 77.801C43.385 77.6909 43.2284 77.6112 43.0753 77.638C42.7846 77.6895 42.5729 78.1122 42.7359 78.369C42.865 78.5715 43.2192 78.6554 43.4393 78.4586C43.632 78.285 43.6256 77.9823 43.476 77.801Z" fill="#D3D1CD"/>
</g>
<mask id="mask25_1631_21262" style="mask-type:luminance" maskUnits="userSpaceOnUse" x="-1" y="4" width="100" height="100">
<path d="M99 4H-1V104H99V4Z" fill="white"/>
</mask>
<g mask="url(#mask25_1631_21262)">
<path d="M71.9194 31.8583C71.4262 31.1563 70.7454 30.2376 69.8775 29.2054C69.0224 28.1887 68.3422 27.4853 67.5174 26.6329C66.1211 25.1901 65.0755 24.2383 64.7728 23.9652C64.3269 23.5624 63.9445 23.23 63.6602 22.988C63.7434 22.8512 63.8641 22.6628 64.0221 22.4476C64.3826 21.9572 65.1087 20.9913 66.4231 20.3097C67.9231 19.5315 69.3335 19.5668 69.905 19.6134C70.0553 19.6254 70.7362 19.686 71.5137 19.9556C73.8583 20.7691 75.2073 22.8349 75.6793 23.64C75.9277 24.16 76.4801 25.5097 76.1288 27.1438C75.8169 28.5916 74.9152 29.6309 74.2957 30.1755C73.6544 30.7393 72.9657 31.2445 72.2186 31.6636C72.1148 31.7221 72.0288 31.8082 71.9194 31.8583Z" fill="#99B1B8"/>
</g>
<mask id="mask26_1631_21262" style="mask-type:luminance" maskUnits="userSpaceOnUse" x="-1" y="4" width="100" height="100">
<path d="M99 4H-1V104H99V4Z" fill="white"/>
</mask>
<g mask="url(#mask26_1631_21262)">
<path d="M33.2321 22.6624C32.1646 23.8209 31.3856 24.8165 30.896 25.4734C29.4164 27.4595 28.895 28.6089 27.1389 31.0346C26.4834 31.9398 25.9268 32.6496 25.5895 33.0715C25.0561 32.7342 24.4782 32.4739 23.9646 32.1028C23.8094 31.9906 22.7934 31.2244 22.2289 30.4235C21.0351 28.7302 21.3999 26.2114 22.1012 24.5971C22.2917 24.1589 23.3691 21.8023 25.9994 20.8378C27.7633 20.1908 29.324 20.5048 29.8221 20.605C31.0653 20.8555 32.1491 21.4256 33.0374 22.3442C33.127 22.4345 33.2321 22.5171 33.2321 22.6624Z" fill="#99B1B8"/>
</g>
<mask id="mask27_1631_21262" style="mask-type:luminance" maskUnits="userSpaceOnUse" x="-1" y="4" width="100" height="100">
<path d="M99 4H-1V104H99V4Z" fill="white"/>
</mask>
<g mask="url(#mask27_1631_21262)">
<path d="M41.5819 62.0874C36.1626 61.408 32.6644 60.9698 29.306 58.197C21.5244 51.7736 23.066 39.9019 23.2805 38.4244C23.5423 36.6182 25.0423 27.6979 33.1964 21.9744C40.3635 16.9438 47.951 17.6952 51.0054 17.9979C53.6477 18.2596 62.3507 19.2566 68.9872 26.5563C70.7962 28.5467 76.3546 34.6603 75.5573 43.2413C74.8031 51.3608 68.8651 56.2405 67.4307 57.4195C59.0805 64.281 48.5317 62.9588 41.5819 62.0874Z" fill="#FDFDFD"/>
</g>
<mask id="mask28_1631_21262" style="mask-type:luminance" maskUnits="userSpaceOnUse" x="-1" y="4" width="100" height="100">
<path d="M99 4H-1V104H99V4Z" fill="white"/>
</mask>
<g mask="url(#mask28_1631_21262)">
<path d="M61.3679 33.7924C61.6487 33.8524 62.9384 34.0479 64.4737 35.2064C65.6767 36.1144 66.7209 37.1918 67.7172 38.3151C69.7943 40.6561 70.3172 40.5213 71.0756 41.7137C71.47 42.3339 72.1728 43.4649 72.3696 45.099C72.4522 45.7862 72.5876 47.0407 71.9752 48.4123C71.3811 49.7423 70.4089 50.457 69.8085 50.8874C69.3513 51.2148 66.4669 53.2044 63.5212 52.2096C62.4692 51.854 61.8251 51.1964 60.536 49.882C59.369 48.691 57.4478 46.4614 55.9739 43.0268C55.607 42.1724 54.7011 39.9223 54.8006 37.6871C54.8492 36.5872 55.1315 35.9338 55.4899 35.4442C55.7827 35.0448 56.1764 34.704 56.6858 34.431C56.8467 34.3449 57.4076 34.0027 58.2712 33.7939C58.5329 33.7289 59.7592 33.4495 61.3679 33.7924Z" fill="#4D4D4D"/>
</g>
<mask id="mask29_1631_21262" style="mask-type:luminance" maskUnits="userSpaceOnUse" x="-1" y="4" width="100" height="100">
<path d="M99 4H-1V104H99V4Z" fill="white"/>
</mask>
<g mask="url(#mask29_1631_21262)">
<path d="M57.7313 40.5819C57.9352 40.0937 58.2858 39.7092 58.7219 39.4474C59.3244 39.0855 59.9467 38.89 60.581 38.8696C60.7299 38.8646 61.4242 38.854 62.2327 39.2103C62.5996 39.3719 63.5288 39.7818 64.0305 40.7922C64.3445 41.4251 64.3452 41.9994 64.3416 42.1652C64.3254 42.8538 64.0629 43.3456 63.9183 43.6095C63.8287 43.7725 63.5246 44.296 63.0131 44.6855C61.7918 45.6147 60.164 45.1871 59.939 45.1243C59.7386 45.0608 58.3733 44.6001 57.768 43.1551C57.2536 41.9267 57.6388 40.8261 57.7313 40.5819Z" fill="#D3D1CD"/>
</g>
<mask id="mask30_1631_21262" style="mask-type:luminance" maskUnits="userSpaceOnUse" x="-1" y="4" width="100" height="100">
<path d="M99 4H-1V104H99V4Z" fill="white"/>
</mask>
<g mask="url(#mask30_1631_21262)">
<path d="M64.0469 42.8116C63.656 44.3546 61.9154 45.1279 60.486 44.9226C58.8738 44.6912 58.0123 43.2659 57.7922 42.5731C57.5861 41.924 57.6764 41.3588 57.6764 41.3588C57.704 41.1203 57.7802 40.8946 57.8931 40.6815C58.5224 39.578 59.4855 39.1123 60.7414 39.0721C60.8472 39.0686 61.2974 39.0714 61.7115 39.1927C62.8884 39.5371 64.49 41.0611 64.0469 42.8116Z" fill="#111618"/>
</g>
<mask id="mask31_1631_21262" style="mask-type:luminance" maskUnits="userSpaceOnUse" x="-1" y="4" width="100" height="100">
<path d="M99 4H-1V104H99V4Z" fill="white"/>
</mask>
<g mask="url(#mask31_1631_21262)">
<path d="M34.5713 38.4308C34.9375 37.915 35.7701 36.8898 37.1311 36.0537C38.0257 35.5041 38.7941 35.2656 38.9733 35.2113C40.4535 34.7661 41.6459 34.9143 41.9338 34.9545C42.2372 34.9975 42.7106 35.0674 43.2864 35.308C43.6236 35.4484 44.2875 35.7341 44.8661 36.3705C45.4009 36.959 45.6062 37.565 45.7353 37.9609C46.352 39.8518 45.8877 41.833 45.6747 42.5971C45.2803 43.6801 44.6728 45.2076 43.7873 46.9751C42.9703 48.6063 42.561 49.4219 41.895 50.2594C41.1492 51.1971 39.1998 53.6482 36.1271 53.8846C33.3909 54.0948 30.1566 52.5193 29.4356 50.0675C28.9508 48.42 29.6642 46.5898 29.9422 45.8758C30.2357 45.1216 30.5306 44.471 31.3032 43.3612C32.135 42.1667 32.8519 40.8981 33.6746 39.6979C33.9667 39.2711 34.2715 38.8527 34.5713 38.4308Z" fill="#4D4D4D"/>
</g>
<mask id="mask32_1631_21262" style="mask-type:luminance" maskUnits="userSpaceOnUse" x="-1" y="4" width="100" height="100">
<path d="M99 4H-1V104H99V4Z" fill="white"/>
</mask>
<g mask="url(#mask32_1631_21262)">
<path d="M52.1116 53.6011C52.01 52.7156 51.986 51.8216 51.8441 50.9397C51.8357 50.7774 51.7962 50.5481 51.6297 50.4303C51.449 50.3026 51.2042 50.3668 51.1202 50.3865C50.783 50.4656 50.1833 50.4973 49.0283 50.3012C48.5273 50.117 48.032 49.9166 47.5826 49.6267C46.6837 49.0467 46.4904 48.248 47.0111 47.3188C47.8895 45.7524 49.8291 44.7978 51.6459 45.0137C52.7049 45.1393 53.6722 45.5196 54.5958 46.022C55.1462 46.3211 55.5815 46.7437 55.8066 47.3533C55.9039 47.6186 55.9385 47.8762 55.9145 48.1245C55.9067 48.2035 55.8609 48.6135 55.597 48.955C55.0234 49.6986 53.7541 49.6817 52.7473 50.2363C52.7141 50.2546 52.676 50.2765 52.6337 50.3139C52.3479 50.5657 52.4749 50.9799 52.5419 52.0291C52.5843 52.6972 52.5631 53.0049 52.7212 53.5453C52.7593 53.6751 52.7966 53.781 52.8235 53.8529C52.9349 53.9087 53.0916 53.9813 53.2835 54.0498C53.9333 54.2826 54.4773 54.2946 54.7659 54.2981C55.1687 54.3031 55.7014 54.3101 56.3103 54.078C56.9573 53.8311 57.4533 53.4938 57.4533 53.4938C57.6191 53.3809 57.7532 53.2751 57.7779 53.3005C57.8195 53.3421 57.5599 53.7471 57.2106 54.0364C56.7598 54.4089 56.2743 54.4936 55.5638 54.6178C54.8858 54.7363 54.3192 54.7398 54.1683 54.7391C53.6419 54.7384 53.4415 54.6841 52.9152 54.7222C52.5335 54.7497 52.314 54.8012 51.9768 54.8619C51.835 54.8873 50.9297 55.0982 49.9469 55.0968C48.6473 55.0954 48.3008 55.0792 47.8267 55.0023C47.3871 54.931 47.064 54.845 46.8241 54.7695C46.6477 54.7144 46.5186 54.6636 46.4241 54.6269C46.0805 54.4936 45.8025 54.3581 45.6028 54.253C45.1844 53.9997 44.9438 53.7344 44.8055 53.5467C44.7427 53.4621 44.5339 53.1784 44.5988 53.105C44.6185 53.0825 44.6566 53.0867 44.6736 53.0888C44.8697 53.1114 45.0059 53.4317 45.1943 53.6236C45.7735 54.2156 46.5285 54.3856 46.7183 54.4287H46.719C48.0673 54.7328 49.7162 54.6587 49.7162 54.6587C49.7162 54.6587 51.0899 54.5966 51.7334 54.205C51.8413 54.1394 52.1172 53.9708 52.1285 53.7245C52.1306 53.6716 52.12 53.6279 52.1116 53.6011Z" fill="#4D4D4D"/>
</g>
<mask id="mask33_1631_21262" style="mask-type:luminance" maskUnits="userSpaceOnUse" x="-1" y="4" width="100" height="100">
<path d="M99 4H-1V104H99V4Z" fill="white"/>
</mask>
<g mask="url(#mask33_1631_21262)">
<path d="M43.3522 87.6218C45.0541 87.8533 46.0736 88.4212 47.3288 89.1204C48.4732 89.7576 48.7032 90.0969 48.7406 90.4173C48.8507 91.362 47.2893 92.2341 46.7234 92.5494C46.2041 92.8394 44.9017 93.4885 42.4061 93.6043C39.8414 93.7228 38.1304 93.8025 37.1172 92.5784C36.3884 91.6978 36.1168 90.2599 36.6382 89.2065C37.796 86.8655 42.344 87.4842 43.3522 87.6218Z" fill="#272727"/>
</g>
<mask id="mask34_1631_21262" style="mask-type:luminance" maskUnits="userSpaceOnUse" x="-1" y="4" width="100" height="100">
<path d="M99 4H-1V104H99V4Z" fill="white"/>
</mask>
<g mask="url(#mask34_1631_21262)">
<path d="M37.8227 89.4004C37.4925 89.9027 37.5758 90.3931 37.4685 90.3966C37.3366 90.4008 37.017 89.6664 37.3013 89.1266C37.6809 88.4069 38.91 88.4634 38.9446 88.5763C38.9721 88.6659 38.2461 88.7569 37.8227 89.4004Z" fill="#FAFBFC"/>
</g>
<mask id="mask35_1631_21262" style="mask-type:luminance" maskUnits="userSpaceOnUse" x="-1" y="4" width="100" height="100">
<path d="M99 4H-1V104H99V4Z" fill="white"/>
</mask>
<g mask="url(#mask35_1631_21262)">
<path d="M38.4984 40.3012C39.4593 39.6775 40.4528 39.7748 40.7745 39.8115C41.0539 39.8433 42.1002 39.995 42.9645 40.8776C43.203 41.1217 43.7787 41.7257 43.9156 42.6641C44.0885 43.8494 43.4937 45.1074 42.4749 45.7763C41.123 46.6639 39.4833 46.2138 38.5273 45.5456C38.2712 45.3664 37.035 44.5028 36.9998 42.9809C36.9624 41.3334 38.3671 40.3866 38.4984 40.3012Z" fill="#D3D1CD"/>
</g>
<mask id="mask36_1631_21262" style="mask-type:luminance" maskUnits="userSpaceOnUse" x="-1" y="4" width="100" height="100">
<path d="M99 4H-1V104H99V4Z" fill="white"/>
</mask>
<g mask="url(#mask36_1631_21262)">
<path d="M60.59 39.7686C60.9068 39.7721 61.1897 39.8299 61.4458 39.9774C61.6723 40.1072 61.7266 40.2646 61.5848 40.4614C61.3202 40.8276 60.935 40.9715 60.494 40.9567C60.1074 40.944 59.8407 40.738 59.6819 40.3909C59.5669 40.1397 59.6128 40.0162 59.8618 39.8991C60.0996 39.7869 60.3564 39.7791 60.59 39.7686Z" fill="white"/>
</g>
<mask id="mask37_1631_21262" style="mask-type:luminance" maskUnits="userSpaceOnUse" x="-1" y="4" width="100" height="100">
<path d="M99 4H-1V104H99V4Z" fill="white"/>
</mask>
<g mask="url(#mask37_1631_21262)">
<path d="M62.6122 40.8849C62.6073 41.0464 62.5607 41.1671 62.3977 41.16C62.21 41.1523 62.1416 41.021 62.1388 40.8468C62.1367 40.7078 62.1642 40.5801 62.3321 40.5744C62.5515 40.5674 62.5656 40.7529 62.6122 40.8849Z" fill="white"/>
</g>
<mask id="mask38_1631_21262" style="mask-type:luminance" maskUnits="userSpaceOnUse" x="-1" y="4" width="100" height="100">
<path d="M99 4H-1V104H99V4Z" fill="white"/>
</mask>
<g mask="url(#mask38_1631_21262)">
<path d="M59.3337 41.2944C59.3041 41.3889 59.2582 41.4969 59.1461 41.5004C59.0395 41.5039 58.988 41.3967 58.9873 41.3035C58.9866 41.1878 59.0826 41.1532 59.1842 41.1554C59.2667 41.1568 59.3344 41.1871 59.3337 41.2944Z" fill="white"/>
</g>
<mask id="mask39_1631_21262" style="mask-type:luminance" maskUnits="userSpaceOnUse" x="-1" y="4" width="100" height="100">
<path d="M99 4H-1V104H99V4Z" fill="white"/>
</mask>
<g mask="url(#mask39_1631_21262)">
<path d="M44.073 83.3544C44.0384 83.7114 44.2007 83.9457 44.176 83.9563C44.1386 83.9725 43.711 83.4165 43.8966 83.0461C43.9791 82.8817 44.1682 82.7808 44.2134 82.8154C44.2649 82.8549 44.1033 83.0404 44.073 83.3544Z" fill="#272727"/>
</g>
<mask id="mask40_1631_21262" style="mask-type:luminance" maskUnits="userSpaceOnUse" x="-1" y="4" width="100" height="100">
<path d="M99 4H-1V104H99V4Z" fill="white"/>
</mask>
<g mask="url(#mask40_1631_21262)">
<path d="M42.4398 40.853C42.6472 41.0152 43.3415 41.5599 43.5214 42.5315C43.6717 43.3429 43.3774 43.9828 43.2582 44.2411C43.1658 44.4421 42.9435 44.9106 42.4489 45.2973C42.3163 45.401 42.1949 45.4751 42.1067 45.5238C41.3666 45.9323 39.5865 46.0148 38.3567 44.9C38.0985 44.6665 37.5926 44.1952 37.4324 43.4071C37.237 42.4454 37.6914 41.6785 37.8184 41.4809C37.8748 41.3927 38.1457 40.9828 38.6629 40.6526C39.0538 40.4028 39.5039 40.2554 40.0148 40.2003C40.2102 40.1792 40.4924 40.1643 40.824 40.2074C41.0943 40.242 41.7836 40.3393 42.4398 40.853Z" fill="#111618"/>
</g>
<mask id="mask41_1631_21262" style="mask-type:luminance" maskUnits="userSpaceOnUse" x="-1" y="4" width="100" height="100">
<path d="M99 4H-1V104H99V4Z" fill="white"/>
</mask>
<g mask="url(#mask41_1631_21262)">
<path d="M42.2328 41.6163C42.2314 42.1286 41.8264 42.5759 41.3643 42.5752C40.9762 42.5752 40.5755 42.089 40.5762 41.6184C40.5762 41.2501 41.0016 40.9079 41.4609 40.9072C41.9083 40.9065 42.2342 41.2057 42.2328 41.6163Z" fill="white"/>
</g>
<mask id="mask42_1631_21262" style="mask-type:luminance" maskUnits="userSpaceOnUse" x="-1" y="4" width="100" height="100">
<path d="M99 4H-1V104H99V4Z" fill="white"/>
</mask>
<g mask="url(#mask42_1631_21262)">
<path d="M39.2191 42.1047C39.394 42.0137 39.6946 41.9742 39.8364 42.1506C39.9832 42.3326 39.8738 42.6346 39.7221 42.7912C39.4921 43.029 39.0413 43.0579 38.8987 42.8597C38.7576 42.6621 38.9305 42.255 39.2191 42.1047Z" fill="white"/>
</g>
<mask id="mask43_1631_21262" style="mask-type:luminance" maskUnits="userSpaceOnUse" x="-1" y="4" width="100" height="100">
<path d="M99 4H-1V104H99V4Z" fill="white"/>
</mask>
<g mask="url(#mask43_1631_21262)">
<path d="M58.5781 87.7484C56.8925 88.133 55.9216 88.7934 54.7257 89.6069C53.6356 90.3484 53.4353 90.709 53.4261 91.0335C53.4 91.9903 55.0439 92.7247 55.6394 92.9907C56.1855 93.2349 57.5501 93.7697 60.0626 93.6617C62.6442 93.5509 64.3672 93.4769 65.2738 92.1596C65.9257 91.212 66.0697 89.7459 65.4523 88.7362C64.0807 86.4925 59.5764 87.5205 58.5781 87.7484Z" fill="#272727"/>
</g>
<mask id="mask44_1631_21262" style="mask-type:luminance" maskUnits="userSpaceOnUse" x="-1" y="4" width="100" height="100">
<path d="M99 4H-1V104H99V4Z" fill="white"/>
</mask>
<g mask="url(#mask44_1631_21262)">
<path d="M64.4405 89.068C64.8356 89.5661 64.794 90.0903 64.9069 90.084C65.0458 90.0762 65.3133 89.2719 64.9633 88.7307C64.4955 88.0083 63.2065 88.1839 63.1811 88.306C63.1606 88.4027 63.9346 88.4302 64.4405 89.068Z" fill="#FAFBFC"/>
</g>
<mask id="mask45_1631_21262" style="mask-type:luminance" maskUnits="userSpaceOnUse" x="-1" y="4" width="100" height="100">
<path d="M99 4H-1V104H99V4Z" fill="white"/>
</mask>
<g mask="url(#mask45_1631_21262)">
<path d="M45.1252 83.462C45.0906 83.8191 45.2529 84.0533 45.2282 84.0639C45.1908 84.0801 44.7633 83.5248 44.9488 83.1537C45.0314 82.9893 45.2205 82.8877 45.2656 82.923C45.3171 82.9618 45.1555 83.1481 45.1252 83.462Z" fill="#272727"/>
</g>
<mask id="mask46_1631_21262" style="mask-type:luminance" maskUnits="userSpaceOnUse" x="-1" y="4" width="100" height="100">
<path d="M99 4H-1V104H99V4Z" fill="white"/>
</mask>
<g mask="url(#mask46_1631_21262)">
<path d="M57.4457 83.2171C57.476 83.5021 57.366 83.687 57.3836 83.6926C57.4111 83.7018 57.7195 83.2262 57.5501 82.9017C57.4746 82.7585 57.3208 82.6724 57.2877 82.6978C57.2467 82.7302 57.414 82.9123 57.4457 83.2171Z" fill="#272727"/>
</g>
<mask id="mask47_1631_21262" style="mask-type:luminance" maskUnits="userSpaceOnUse" x="-1" y="4" width="100" height="100">
<path d="M99 4H-1V104H99V4Z" fill="white"/>
</mask>
<g mask="url(#mask47_1631_21262)">
<path d="M56.3722 83.13C56.5197 83.463 56.3228 83.8109 56.3447 83.8179C56.3715 83.8264 56.7024 83.3078 56.4978 83.0079C56.3997 82.8647 56.2007 82.8019 56.1768 82.833C56.1542 82.8619 56.2939 82.9536 56.3722 83.13Z" fill="#272727"/>
</g>
<mask id="mask48_1631_21262" style="mask-type:luminance" maskUnits="userSpaceOnUse" x="-1" y="4" width="100" height="100">
<path d="M99 4H-1V104H99V4Z" fill="white"/>
</mask>
<g mask="url(#mask48_1631_21262)">
<path d="M50.8726 66.7849L52.4933 64.4622L51.3425 62.8027H47.9587L46.8086 64.4622L48.4293 66.7849H50.8726Z" fill="#99B1B8"/>
</g>
<mask id="mask49_1631_21262" style="mask-type:luminance" maskUnits="userSpaceOnUse" x="-1" y="4" width="100" height="100">
<path d="M99 4H-1V104H99V4Z" fill="white"/>
</mask>
<g mask="url(#mask49_1631_21262)">
<path d="M50.8858 67.0635L52.4796 77.9255L49.7301 79.9822L46.8218 78.0229L48.4417 67.0635H50.8858Z" fill="#99B1B8"/>
</g>
<mask id="mask50_1631_21262" style="mask-type:luminance" maskUnits="userSpaceOnUse" x="-1" y="4" width="100" height="100">
<path d="M99 4H-1V104H99V4Z" fill="white"/>
</mask>
<g mask="url(#mask50_1631_21262)">
<path d="M50.122 82.9683C50.364 82.708 50.8882 82.7009 51.174 82.9542C51.4124 83.1652 51.416 83.4968 51.4188 83.7606C51.4209 83.9709 51.423 84.1402 51.3172 84.2948C51.0836 84.637 50.443 84.735 50.1368 84.4521C49.9209 84.2531 49.9406 83.93 49.9639 83.5589C49.9809 83.2837 49.9914 83.1087 50.122 82.9683Z" fill="#272727"/>
</g>
<mask id="mask51_1631_21262" style="mask-type:luminance" maskUnits="userSpaceOnUse" x="-1" y="4" width="100" height="100">
<path d="M99 4H-1V104H99V4Z" fill="white"/>
</mask>
<g mask="url(#mask51_1631_21262)">
<path d="M50.366 83.2822C50.5029 83.1348 50.7999 83.1305 50.9622 83.2738C51.0977 83.3937 51.0998 83.5814 51.1012 83.731C51.1026 83.8502 51.1033 83.9462 51.0433 84.0337C50.9107 84.2277 50.548 84.2834 50.3738 84.1233C50.251 84.0104 50.263 83.8276 50.2757 83.6167C50.2856 83.4607 50.2919 83.362 50.366 83.2822Z" fill="#D3D1CD"/>
</g>
</g>
</g>
<defs>
<clipPath id="clip0_1631_21262">
<rect width="100" height="100" fill="white"/>
</clipPath>
<clipPath id="clip1_1631_21262">
<rect width="100" height="100" fill="white" transform="translate(-1 4)"/>
</clipPath>
</defs>
</svg>
