<svg width="100" height="100" viewBox="0 0 100 100" fill="none" xmlns="http://www.w3.org/2000/svg">
<g clip-path="url(#clip0_1631_21259)">
<rect opacity="0.5" width="100" height="100" rx="50" fill="#AFAFAF"/>
<g clip-path="url(#clip1_1631_21259)">
<mask id="mask0_1631_21259" style="mask-type:luminance" maskUnits="userSpaceOnUse" x="1" y="-3" width="110" height="110">
<path d="M111 -3H1V107H111V-3Z" fill="white"/>
</mask>
<g mask="url(#mask0_1631_21259)">
<path d="M74.0479 27.6801C74.0479 35.4396 80.0441 41.73 87.4405 41.73C94.8368 41.73 100.833 35.4396 100.833 27.6801C100.833 19.9205 94.8368 13.6309 87.4405 13.6309C80.0433 13.6309 74.0479 19.9205 74.0479 27.6801Z" fill="#BDCCC7"/>
</g>
<mask id="mask1_1631_21259" style="mask-type:luminance" maskUnits="userSpaceOnUse" x="1" y="-3" width="110" height="110">
<path d="M111 -3H1V107H111V-3Z" fill="white"/>
</mask>
<g mask="url(#mask1_1631_21259)">
<path d="M77.8748 36.6436C78.0595 36.663 78.2434 36.6769 78.4281 36.6855C80.5857 32.3074 80.9746 27.1377 79.4992 22.4624C79.0863 21.1531 78.5306 19.8997 77.8507 18.7185C77.6613 18.3894 78.1542 18.0898 78.3435 18.4181C80.8457 22.7643 81.5954 28.0559 80.3886 32.9687C80.0727 34.2547 79.6241 35.5042 79.0614 36.6948C80.2372 36.6723 81.3937 36.4317 82.4748 35.9971C82.3366 35.9288 82.2482 35.765 82.3591 35.5966C83.8858 33.2636 84.4065 30.4106 84.2963 27.6244C84.2366 26.1164 84.0029 24.6239 83.6785 23.1547C83.4178 21.9712 83.1003 20.7884 82.6114 19.6832C82.0805 18.4841 81.3455 17.3673 80.3071 16.5896C80.0114 16.3684 80.2962 15.8515 80.595 16.0758C82.5834 17.5652 83.5225 20.0262 84.0976 22.4229C84.8047 25.369 85.1749 28.4812 84.5928 31.4863C84.2955 33.0215 83.7422 34.5093 82.9055 35.8139C84.6595 35.0106 86.1893 33.6874 87.2471 31.952C88.256 30.2981 88.7791 28.402 88.811 26.4447C88.8467 24.2716 88.3841 22.1008 87.8354 20.0161C87.2991 17.9788 86.5362 15.9353 85.0701 14.4227C84.8085 14.1526 85.2121 13.7319 85.4737 14.002C86.6278 15.1934 87.3783 16.7037 87.9161 18.2846C87.972 18.2497 88.0411 18.2334 88.1194 18.2474C90.3244 18.6401 92.6481 17.7382 94.1041 15.9796C94.3446 15.6893 94.7467 16.1115 94.5076 16.4002C92.9391 18.2939 90.4586 19.2152 88.0962 18.8419C88.1249 18.9342 88.1528 19.0274 88.18 19.1197C88.308 19.5543 88.4291 19.9936 88.544 20.4376C88.5975 20.4313 88.6565 20.4445 88.7163 20.4857C90.0038 21.3689 91.324 22.2808 92.8382 22.6712C94.2081 23.0243 95.768 22.9126 96.8639 21.899C97.3893 21.4131 97.7883 20.7565 97.876 20.02C97.9202 19.6451 98.4914 19.6405 98.4464 20.02C98.2694 21.5101 97.1945 22.696 95.8588 23.1827C94.2306 23.7748 92.4432 23.327 90.9422 22.5664C90.1723 22.1768 89.4489 21.698 88.7334 21.209C89.0469 22.5548 89.2766 23.9285 89.355 25.2984C89.414 25.3007 89.4753 25.3224 89.5312 25.3705C90.7846 26.4509 92.2546 27.2534 93.8184 27.7159C95.321 28.1599 97.193 28.4781 98.6055 27.5863C99.2605 27.1734 99.8069 26.4843 99.8985 25.6709C99.9404 25.2952 100.512 25.2906 100.469 25.6709C100.264 27.4963 98.6319 28.5441 96.999 28.707C96.0816 28.7986 95.144 28.6605 94.25 28.4463C93.3644 28.2336 92.5029 27.9139 91.6834 27.5056C90.863 27.0966 90.0939 26.589 89.3799 26.0038C89.3915 26.8677 89.3193 27.7245 89.1571 28.5604C91.2674 30.8538 94.3741 31.9869 97.3948 31.4886C98.292 31.3404 99.1682 31.0633 99.9893 30.6582C100.319 30.4952 100.609 31.0082 100.277 31.172C99.2256 31.692 98.1049 32.0102 96.9695 32.1297C96.0164 35.1045 94.2158 37.7697 91.8456 39.7022C91.1649 40.2572 90.4455 40.7531 89.6849 41.1807C89.362 41.3623 89.0733 40.8486 89.3969 40.6669C91.9705 39.2187 94.0947 36.9742 95.4685 34.2826C95.8154 33.6035 96.1095 32.8996 96.3524 32.1739C95.0657 32.2267 93.7734 32.0249 92.5542 31.5662C91.3714 34.8251 89.0422 37.5881 86.1085 39.256C85.2626 39.7364 84.3669 40.1237 83.4434 40.4093C83.0902 40.5179 82.9397 39.9444 83.292 39.8357C86.426 38.8679 89.1618 36.6513 90.8855 33.7603C91.3403 32.9974 91.7229 32.1902 92.0248 31.3489C91.6112 31.1642 91.2076 30.9508 90.818 30.7055C90.1622 30.2926 89.5522 29.8006 89.0034 29.2433C88.7869 30.0877 88.4749 30.9065 88.062 31.685C87.1609 33.3831 85.8268 34.8282 84.2164 35.8046C82.3141 36.9587 80.0642 37.4725 77.8748 37.2396C77.5131 37.2 77.5092 36.6048 77.8748 36.6436Z" fill="#9BB2AA"/>
</g>
<mask id="mask2_1631_21259" style="mask-type:luminance" maskUnits="userSpaceOnUse" x="1" y="-3" width="110" height="110">
<path d="M111 -3H1V107H111V-3Z" fill="white"/>
</mask>
<g mask="url(#mask2_1631_21259)">
<path d="M75.6465 22.3527C76.924 25.1677 77.4681 28.3272 77.191 31.4293C77.1118 32.318 76.9683 33.1989 76.7603 34.0642C76.671 34.4352 76.1207 34.2784 76.21 33.9059C76.9085 30.9994 76.8394 27.9174 76.0276 25.0442C75.7955 24.2247 75.5045 23.4253 75.1537 22.653C74.9977 22.3085 75.4898 22.0058 75.6465 22.3527Z" fill="#9BB2AA"/>
</g>
<mask id="mask3_1631_21259" style="mask-type:luminance" maskUnits="userSpaceOnUse" x="1" y="-3" width="110" height="110">
<path d="M111 -3H1V107H111V-3Z" fill="white"/>
</mask>
<g mask="url(#mask3_1631_21259)">
<path d="M74.1779 53.0325C74.6971 52.6631 75.2163 52.2944 75.7356 51.925C76.046 51.7046 76.3378 52.23 76.0297 52.4496C75.5105 52.8191 74.9913 53.1877 74.472 53.5572C74.1616 53.7776 73.8698 53.2514 74.1779 53.0325Z" fill="#D35384"/>
</g>
<mask id="mask4_1631_21259" style="mask-type:luminance" maskUnits="userSpaceOnUse" x="1" y="-3" width="110" height="110">
<path d="M111 -3H1V107H111V-3Z" fill="white"/>
</mask>
<g mask="url(#mask4_1631_21259)">
<path d="M73.2336 51.4091C73.8273 51.08 74.4218 50.7509 75.0163 50.4211C75.347 50.2379 75.6419 50.7618 75.3105 50.9457C74.7168 51.2748 74.1223 51.6039 73.5278 51.9337C73.1971 52.1169 72.9022 51.593 73.2336 51.4091Z" fill="#D35384"/>
</g>
<mask id="mask5_1631_21259" style="mask-type:luminance" maskUnits="userSpaceOnUse" x="1" y="-3" width="110" height="110">
<path d="M111 -3H1V107H111V-3Z" fill="white"/>
</mask>
<g mask="url(#mask5_1631_21259)">
<path d="M30.5732 81.0809C30.5763 81.5629 30.5639 82.0852 30.7261 82.5447C31.0745 83.5319 32.0439 83.5754 32.9069 83.6274C33.8111 83.6809 34.6889 83.9386 35.5349 84.2638C37.2633 84.9274 38.897 85.9068 40.7154 86.2941C41.6157 86.4858 42.5331 86.513 43.4357 86.322C44.3841 86.1218 45.2867 85.6942 46.1001 85.1532C49.3023 83.0228 51.5104 79.2928 52.2081 75.434C52.229 75.3168 52.191 75.2205 52.1266 75.1538C52.1258 75.1421 52.1258 75.1313 52.125 75.1204C52.0761 74.2752 51.6089 73.4797 50.905 73.0559C50.0862 72.5631 49.0656 72.5476 48.1777 72.827C46.1738 73.4572 44.953 75.3804 43.1982 76.4429C41.3534 77.5605 39.1096 77.4262 37.1011 76.9497C36.0261 76.6944 34.9737 76.3459 33.9151 76.0277C33.0637 75.7716 31.9733 75.5185 31.3314 76.356C31.0559 76.7161 30.9434 77.1709 30.865 77.6156C30.7649 78.1837 30.6919 78.758 30.643 79.3331C30.5926 79.9145 30.5693 80.4973 30.5732 81.0809Z" fill="#444444"/>
</g>
<mask id="mask6_1631_21259" style="mask-type:luminance" maskUnits="userSpaceOnUse" x="1" y="-3" width="110" height="110">
<path d="M111 -3H1V107H111V-3Z" fill="white"/>
</mask>
<g mask="url(#mask6_1631_21259)">
<path d="M33.9672 68.5401C34.2388 69.317 35.1337 70.3524 36.4926 70.1079C37.15 69.9899 37.6211 69.6166 37.9253 69.2115C38.2606 68.7644 38.5035 68.2693 38.6091 67.7702C38.8062 66.8389 38.4888 65.8369 37.4511 65.1889C37.285 65.0849 37.0708 65.1454 36.9847 65.2471C36.7278 65.1687 36.4313 65.1446 36.1511 65.1811C35.4379 65.2743 34.8783 65.7027 34.5097 66.1117C33.8678 66.8242 33.6823 67.726 33.9672 68.5401Z" fill="#4D4D4D"/>
</g>
<mask id="mask7_1631_21259" style="mask-type:luminance" maskUnits="userSpaceOnUse" x="1" y="-3" width="110" height="110">
<path d="M111 -3H1V107H111V-3Z" fill="white"/>
</mask>
<g mask="url(#mask7_1631_21259)">
<path d="M37.0355 73.9389C38.3471 75.9638 40.4163 77.3934 42.6988 77.9188C45.3345 78.5257 48.1293 78.0135 50.5026 76.7127C55.2711 74.0988 57.9424 68.8569 59.2711 63.6135C59.3317 63.3737 59.1299 63.2223 58.9483 63.2379C58.9545 63.1672 58.9607 63.0958 58.9653 63.0252C59.1407 60.5269 58.3165 57.9556 56.7076 56.0914C55.1259 54.2582 52.8053 53.174 50.4529 53.0584C48.1153 52.9435 45.8296 53.8725 44.1113 55.5148C43.2886 56.301 42.5971 57.2525 42.1121 58.3026C41.568 59.4807 41.398 60.8707 40.4791 61.8253C39.6238 62.714 38.4899 63.2386 37.6533 64.156C36.8911 64.9911 36.3417 66.0233 36.0227 67.1246C35.3552 69.432 35.7433 71.9435 37.0355 73.9389Z" fill="#E9E9E9"/>
</g>
<mask id="mask8_1631_21259" style="mask-type:luminance" maskUnits="userSpaceOnUse" x="1" y="-3" width="110" height="110">
<path d="M111 -3H1V107H111V-3Z" fill="white"/>
</mask>
<g mask="url(#mask8_1631_21259)">
<path d="M56.9119 60.1621C57.085 60.9468 57.6197 61.5638 58.2794 61.9534C59.7595 62.8265 61.6695 62.7714 63.2861 62.4392C65.1216 62.062 66.8485 61.2564 68.5388 60.4454C69.9607 59.7632 71.3903 59.0655 72.6778 58.1295C73.922 57.2245 75.1071 56.0534 75.7264 54.5826C76.3271 53.1577 76.3737 51.3517 75.0605 50.342C74.095 49.6 72.9246 49.6582 70.7422 49.8996C68.223 50.179 66.3774 50.945 65.3669 51.3734C64.8352 51.5985 62.9679 52.4056 60.9477 53.909C60.267 54.415 59.6166 54.966 59.0113 55.5675C58.395 56.1799 57.7827 56.8442 57.3574 57.6188C56.9391 58.3817 56.7202 59.2898 56.9119 60.1621Z" fill="#444444"/>
</g>
<mask id="mask9_1631_21259" style="mask-type:luminance" maskUnits="userSpaceOnUse" x="1" y="-3" width="110" height="110">
<path d="M111 -3H1V107H111V-3Z" fill="white"/>
</mask>
<g mask="url(#mask9_1631_21259)">
<path d="M66.3106 27.8632C67.9094 27.3487 68.7321 25.9462 68.9657 25.4984C70.1562 23.2205 69.3553 20.3334 67.6797 18.6112C67.5097 18.4366 65.588 16.5258 62.7428 16.7439C62.2275 16.7835 60.1809 16.9402 58.8428 18.6112C58.6961 18.7944 57.8587 19.8685 57.8059 21.2663C57.6694 24.8349 62.6993 29.0251 66.3106 27.8632Z" fill="#4D4D4D"/>
</g>
<mask id="mask10_1631_21259" style="mask-type:luminance" maskUnits="userSpaceOnUse" x="1" y="-3" width="110" height="110">
<path d="M111 -3H1V107H111V-3Z" fill="white"/>
</mask>
<g mask="url(#mask10_1631_21259)">
<path d="M63.6898 26.0783C63.7116 25.9549 63.8311 25.9526 63.911 25.9122C64.7702 25.4768 65.4012 24.8233 65.7442 23.9238C66.0314 23.1718 66.0329 22.3995 65.7233 21.6483C65.4555 20.9979 64.9852 20.5237 64.3294 20.2738C63.0697 19.7941 61.8807 19.9168 60.805 20.7736C60.5707 20.9606 60.3976 21.2082 60.1857 21.4185C59.9079 21.7981 59.7324 22.2195 59.6626 22.6844C59.8403 22.9032 60.0996 23.0181 60.3161 23.1865C60.9851 23.7065 61.6432 24.2382 62.2758 24.8016C62.75 25.2238 63.2187 25.6522 63.6898 26.0783Z" fill="#BDCCC7"/>
</g>
<mask id="mask11_1631_21259" style="mask-type:luminance" maskUnits="userSpaceOnUse" x="1" y="-3" width="110" height="110">
<path d="M111 -3H1V107H111V-3Z" fill="white"/>
</mask>
<g mask="url(#mask11_1631_21259)">
<path d="M33.4679 27.8632C31.8691 27.3487 31.0464 25.9462 30.8128 25.4984C29.6222 23.2205 30.4232 20.3334 32.0988 18.6112C32.2688 18.4366 34.1904 16.5258 37.0357 16.7439C37.551 16.7835 39.5976 16.9402 40.9356 18.6112C41.0823 18.7944 41.9197 19.8685 41.9725 21.2663C42.1083 24.8349 37.0791 29.0251 33.4679 27.8632Z" fill="#4D4D4D"/>
</g>
<mask id="mask12_1631_21259" style="mask-type:luminance" maskUnits="userSpaceOnUse" x="1" y="-3" width="110" height="110">
<path d="M111 -3H1V107H111V-3Z" fill="white"/>
</mask>
<g mask="url(#mask12_1631_21259)">
<path d="M36.0891 26.0783C36.0673 25.9549 35.9478 25.9526 35.8679 25.9122C35.0079 25.4768 34.3777 24.8233 34.0347 23.9238C33.7475 23.1718 33.746 22.3995 34.0556 21.6483C34.3234 20.9979 34.7937 20.5237 35.4495 20.2738C36.7092 19.7941 37.8982 19.9168 38.9739 20.7736C39.2082 20.9606 39.3813 21.2082 39.5932 21.4185C39.871 21.7981 40.0465 22.2195 40.1163 22.6844C39.9386 22.9032 39.6793 23.0181 39.4628 23.1865C38.7938 23.7065 38.1357 24.2382 37.5031 24.8016C37.0289 25.2238 36.5602 25.6522 36.0891 26.0783Z" fill="#BDCCC7"/>
</g>
<mask id="mask13_1631_21259" style="mask-type:luminance" maskUnits="userSpaceOnUse" x="1" y="-3" width="110" height="110">
<path d="M111 -3H1V107H111V-3Z" fill="white"/>
</mask>
<g mask="url(#mask13_1631_21259)">
<path d="M37.1241 24.7783C41.1327 21.5248 45.1794 20.6626 46.0859 20.4841C54.2444 18.8798 60.6069 23.0515 61.7688 23.8446C68.3036 28.3073 72.199 36.4759 71.0418 43.7589C70.8656 44.8672 70.3301 48.0004 67.9924 51.0404C65.46 54.3335 62.257 55.6397 60.0264 56.5167C58.1567 57.2516 47.0467 61.6204 37.1249 55.4588C35.1861 54.2551 30.909 51.5984 29.0968 46.435C25.9473 37.4584 33.36 28.589 34.1943 27.6127C35.4733 26.1155 36.7803 25.0577 37.1241 24.7783Z" fill="white"/>
</g>
<mask id="mask14_1631_21259" style="mask-type:luminance" maskUnits="userSpaceOnUse" x="1" y="-3" width="110" height="110">
<path d="M111 -3H1V107H111V-3Z" fill="white"/>
</mask>
<g mask="url(#mask14_1631_21259)">
<path d="M59.7695 29.6768C60.3966 30.0835 60.846 30.3955 60.9438 30.477C60.9787 30.5057 61.0136 30.536 61.0136 30.536C61.0781 30.5919 61.1417 30.6485 61.2061 30.7052C61.7409 31.1848 62.2531 31.6877 62.7234 32.2302C63.7471 33.4115 64.6924 34.6471 65.3218 36.0937C65.6711 36.8962 65.959 37.7189 66.0514 38.5936C66.2609 40.5773 65.4809 42.3857 63.5267 43.4249C63.238 43.5786 62.9252 43.6787 62.6093 43.7648C61.307 44.0737 60.0637 43.9162 58.8685 43.3162C58.17 42.9654 57.5576 42.5036 57.0019 41.9573C56.0698 41.0414 55.2495 40.0356 54.5152 38.9568C53.7244 37.795 53.2952 36.5058 53.1338 35.1166C52.9933 33.9097 53.029 32.7145 53.32 31.5325C53.3643 31.3525 53.4217 31.1794 53.4908 31.0125C53.4908 31.0125 53.7593 30.3614 54.2421 29.8592C55.1074 28.9581 56.8063 28.82 58.0295 29.0404C58.4556 29.1165 59.0772 29.2826 59.7695 29.6768Z" fill="#4D4D4D"/>
</g>
<mask id="mask15_1631_21259" style="mask-type:luminance" maskUnits="userSpaceOnUse" x="1" y="-3" width="110" height="110">
<path d="M111 -3H1V107H111V-3Z" fill="white"/>
</mask>
<g mask="url(#mask15_1631_21259)">
<path d="M46.5182 34.263C46.5337 36.3539 45.635 38.4028 44.2007 40.2531C43.5209 41.1301 42.775 41.9442 41.8646 42.5899C41.0055 43.1992 40.0873 43.6742 39.0279 43.8372C37.6868 44.0436 36.5095 43.6874 35.4796 42.8251C34.4372 41.9528 33.8901 40.8072 33.7418 39.4762C33.5897 38.1094 33.9506 36.832 34.5443 35.6166C35.3965 33.8711 36.6616 32.4516 38.0989 31.171C38.622 30.7046 39.1568 30.2521 39.7451 29.8695C40.643 29.2858 41.6101 28.8737 42.6896 28.8C44.3226 28.6874 45.659 29.5326 46.1984 31.2773C46.4693 32.1551 46.5531 33.0562 46.5182 34.263Z" fill="#4D4D4D"/>
</g>
<mask id="mask16_1631_21259" style="mask-type:luminance" maskUnits="userSpaceOnUse" x="1" y="-3" width="110" height="110">
<path d="M111 -3H1V107H111V-3Z" fill="white"/>
</mask>
<g mask="url(#mask16_1631_21259)">
<path d="M55.6603 42.9883C55.8341 43.0674 55.8465 43.225 55.8582 43.3755C55.8853 43.7186 55.9102 44.0616 55.9249 44.4054C55.9746 45.558 55.9335 46.7027 55.5702 47.8118C55.2613 48.754 54.7848 49.5992 54.0553 50.2783C53.1806 51.0924 52.146 51.5659 50.9454 51.666C50.0855 51.7374 49.2325 51.7397 48.3749 51.6054C47.2728 51.4331 46.3904 50.8922 45.6438 50.0936C44.7085 49.0924 44.1792 47.8948 43.9573 46.5553C43.792 45.5556 43.7695 44.5513 43.9154 43.5463C43.9301 43.4438 43.9611 43.3437 43.9906 43.2436C44.0139 43.1637 44.0877 43.1101 44.1552 43.1218C44.2258 43.1342 44.1963 43.2265 44.1955 43.2824C44.1885 43.8847 44.357 44.4194 44.7869 44.8564C45.362 45.4416 46.0535 45.7116 46.877 45.6666C47.6019 45.627 48.2631 45.4276 48.8413 44.9805C49.3132 44.6165 49.6244 44.1718 49.5849 43.5416C49.5755 43.3949 49.6407 43.218 49.5787 43.1078C49.5135 42.9929 49.3132 43.0426 49.1735 43.0084C48.4098 42.8191 47.6811 42.5552 47.0734 42.0321C46.863 41.8513 46.6737 41.6495 46.5541 41.3933C46.3353 40.9238 46.3943 40.535 46.7489 40.157C47.1254 39.7558 47.591 39.5089 48.125 39.3863C49.3652 39.1023 50.5915 39.1915 51.8007 39.547C52.2694 39.6844 52.6994 39.9133 53.0316 40.2882C53.4755 40.7888 53.4755 41.3755 53.0417 41.8831C52.6963 42.2874 52.2205 42.4752 51.7502 42.6693C51.3288 42.8431 50.8841 42.937 50.4394 43.0302C50.1025 43.1008 50.035 43.2102 50.087 43.5478C50.1289 43.821 50.1809 44.0911 50.2826 44.3503C50.3959 44.6391 50.569 44.8835 50.8313 45.0473C51.6447 45.5549 52.5279 45.7978 53.4848 45.648C54.7235 45.454 55.4655 44.4342 55.6036 43.2972C55.6168 43.1963 55.6122 43.0923 55.6603 42.9883Z" fill="#4D4D4D"/>
</g>
<mask id="mask17_1631_21259" style="mask-type:luminance" maskUnits="userSpaceOnUse" x="1" y="-3" width="110" height="110">
<path d="M111 -3H1V107H111V-3Z" fill="white"/>
</mask>
<g mask="url(#mask17_1631_21259)">
<path d="M62.6482 44.0898C63.3048 44.1411 63.9754 44.1007 64.6032 44.346C65.3297 44.6292 65.8799 45.1011 66.0864 45.8827C66.2773 46.6045 66.0414 47.2253 65.5579 47.7578C64.9564 48.4206 64.1702 48.7147 63.3071 48.8505C63.013 48.8971 62.7196 48.8699 62.4262 48.8878C61.6439 48.8257 60.8833 48.679 60.2244 48.2203C59.7696 47.9044 59.3816 47.5179 59.2256 46.9646C59.0339 46.2816 59.3133 45.514 59.893 45.0639C60.3385 44.7185 60.8267 44.4507 61.3669 44.2924C61.6944 44.1962 62.0312 44.1294 62.3758 44.1232C62.4674 44.1209 62.5574 44.1015 62.6482 44.0898Z" fill="#CEAFB0"/>
</g>
<mask id="mask18_1631_21259" style="mask-type:luminance" maskUnits="userSpaceOnUse" x="1" y="-3" width="110" height="110">
<path d="M111 -3H1V107H111V-3Z" fill="white"/>
</mask>
<g mask="url(#mask18_1631_21259)">
<path d="M36.9023 48.8815C36.0462 48.8784 35.2538 48.6658 34.5607 48.1489C34.0477 47.7663 33.6426 47.2998 33.506 46.6525C33.3927 46.1132 33.5735 45.6475 33.9057 45.2338C34.3985 44.6191 35.0575 44.3002 35.8274 44.1985C36.9659 44.0471 38.0796 44.1636 39.1352 44.6137C39.8352 44.9125 40.2776 45.4775 40.4072 46.2366C40.5461 47.0491 40.1488 47.6367 39.5302 48.1047C38.9 48.5812 38.1767 48.7977 37.3967 48.8482C37.3113 48.8536 37.2275 48.8746 37.1421 48.88C37.0629 48.8854 36.9822 48.8815 36.9023 48.8815Z" fill="#CEAFB0"/>
</g>
<mask id="mask19_1631_21259" style="mask-type:luminance" maskUnits="userSpaceOnUse" x="1" y="-3" width="110" height="110">
<path d="M111 -3H1V107H111V-3Z" fill="white"/>
</mask>
<g mask="url(#mask19_1631_21259)">
<path d="M47.1987 52.7578C47.652 53.2126 48.1712 53.5526 48.7836 53.7295C49.9431 54.0632 51.0397 53.9189 52.0619 53.2662C52.1923 53.1823 52.2924 53.0644 52.4018 52.9573C52.4554 52.9045 52.5128 52.8098 52.5982 52.8859C52.6734 52.9526 52.6114 53.0364 52.571 53.1016C52.3979 53.3779 52.1566 53.5937 51.8772 53.7481C50.6276 54.4389 49.354 54.4769 48.0758 53.832C47.7203 53.6527 47.4355 53.3787 47.2515 53.0155C47.2127 52.9379 47.1801 52.8587 47.1987 52.7578Z" fill="#4D4D4D"/>
</g>
<mask id="mask20_1631_21259" style="mask-type:luminance" maskUnits="userSpaceOnUse" x="1" y="-3" width="110" height="110">
<path d="M111 -3H1V107H111V-3Z" fill="white"/>
</mask>
<g mask="url(#mask20_1631_21259)">
<path d="M47.0259 51.1638C47.0259 51.1638 47.1431 50.1572 47.3526 49.7583C47.4496 49.5735 47.5521 49.4315 47.6274 49.3368C47.6561 49.3058 47.7104 49.2507 47.7849 49.1863C48.1342 48.8828 48.502 48.747 48.7473 48.6818C48.8528 48.6647 50.5106 48.4101 51.4645 48.9534C51.8843 49.1925 52.1374 49.5161 52.1374 49.5161C52.2468 49.6504 52.409 49.8871 52.4936 50.2177C52.5953 50.6166 52.6341 51.2336 52.6341 51.2336C52.6341 51.2336 51.8168 51.7133 49.8812 51.7125C47.8734 51.7125 47.0259 51.1638 47.0259 51.1638Z" fill="#CEAFB0"/>
</g>
<mask id="mask21_1631_21259" style="mask-type:luminance" maskUnits="userSpaceOnUse" x="1" y="-3" width="110" height="110">
<path d="M111 -3H1V107H111V-3Z" fill="white"/>
</mask>
<g mask="url(#mask21_1631_21259)">
<path d="M44.4461 36.3809C44.3546 37.9572 43.7686 39.2176 42.2334 39.8936C40.9358 40.4656 39.5667 39.8897 38.786 38.9662C37.8818 37.8967 37.8034 36.6487 38.578 35.5202C39.3308 34.4236 40.3359 33.6692 41.6948 33.5062C43.0328 33.3456 43.9362 33.9703 44.294 35.2657C44.3949 35.6281 44.4469 35.9991 44.4461 36.3809Z" fill="#D3D1CD"/>
</g>
<mask id="mask22_1631_21259" style="mask-type:luminance" maskUnits="userSpaceOnUse" x="1" y="-3" width="110" height="110">
<path d="M111 -3H1V107H111V-3Z" fill="white"/>
</mask>
<g mask="url(#mask22_1631_21259)">
<path d="M44.2379 36.4066C44.1944 37.8036 43.5627 38.8739 42.331 39.5724C41.3049 40.1537 39.9545 39.8564 39.0581 38.8785C38.2083 37.9526 38.0918 36.8296 38.781 35.7787C39.4593 34.7434 40.3852 34.0325 41.6154 33.7515C42.7182 33.4993 43.6108 33.9673 44.005 35.0259C44.1672 35.4644 44.2262 35.9215 44.2379 36.4066Z" fill="#111618"/>
</g>
<mask id="mask23_1631_21259" style="mask-type:luminance" maskUnits="userSpaceOnUse" x="1" y="-3" width="110" height="110">
<path d="M111 -3H1V107H111V-3Z" fill="white"/>
</mask>
<g mask="url(#mask23_1631_21259)">
<path d="M43.0334 36.0027C43.0388 36.3488 42.858 36.584 42.5809 36.5917C42.2674 36.6003 42.0586 36.3845 42.0462 36.0391C42.0361 35.7496 42.3225 35.4237 42.5832 35.4268C42.8137 35.4299 43.0287 35.7039 43.0334 36.0027Z" fill="white"/>
</g>
<mask id="mask24_1631_21259" style="mask-type:luminance" maskUnits="userSpaceOnUse" x="1" y="-3" width="110" height="110">
<path d="M111 -3H1V107H111V-3Z" fill="white"/>
</mask>
<g mask="url(#mask24_1631_21259)">
<path d="M42.5935 38.0989C42.5927 38.2837 42.4755 38.4164 42.3102 38.4195C42.1177 38.4234 41.9276 38.2355 41.9307 38.0446C41.9338 37.8428 42.0603 37.7024 42.2404 37.7031C42.4367 37.7047 42.5935 37.8801 42.5935 38.0989Z" fill="#F9FBFC"/>
</g>
<mask id="mask25_1631_21259" style="mask-type:luminance" maskUnits="userSpaceOnUse" x="1" y="-3" width="110" height="110">
<path d="M111 -3H1V107H111V-3Z" fill="white"/>
</mask>
<g mask="url(#mask25_1631_21259)">
<path d="M40.5112 37.8544C40.5143 38.0306 40.3769 38.1812 40.2101 38.1827C40.044 38.185 39.9058 38.0508 39.902 37.8847C39.8973 37.7054 40.0564 37.5471 40.2411 37.5479C40.3971 37.5486 40.5073 37.6744 40.5112 37.8544Z" fill="#F7F8FC"/>
</g>
<mask id="mask26_1631_21259" style="mask-type:luminance" maskUnits="userSpaceOnUse" x="1" y="-3" width="110" height="110">
<path d="M111 -3H1V107H111V-3Z" fill="white"/>
</mask>
<g mask="url(#mask26_1631_21259)">
<path d="M61.4334 36.6597C61.3419 35.0835 60.7559 33.8231 59.2207 33.1471C57.9231 32.5751 56.554 33.1509 55.7733 34.0745C54.8691 35.144 54.7907 36.392 55.5653 37.5205C56.3181 38.6171 57.3232 39.3715 58.6821 39.5345C60.0194 39.6951 60.9235 39.0704 61.2813 37.775C61.3822 37.4126 61.4334 37.0416 61.4334 36.6597Z" fill="#D3D1CD"/>
</g>
<mask id="mask27_1631_21259" style="mask-type:luminance" maskUnits="userSpaceOnUse" x="1" y="-3" width="110" height="110">
<path d="M111 -3H1V107H111V-3Z" fill="white"/>
</mask>
<g mask="url(#mask27_1631_21259)">
<path d="M61.2247 36.6337C61.1812 35.2367 60.5495 34.1664 59.3178 33.4679C58.2918 32.8866 56.9413 33.1839 56.0449 34.1618C55.1951 35.0877 55.0786 36.2107 55.7678 37.2616C56.4462 38.2969 57.3721 39.0078 58.6022 39.2888C59.7051 39.541 60.5976 39.073 60.9919 38.0144C61.1541 37.5767 61.2138 37.1196 61.2247 36.6337Z" fill="#111618"/>
</g>
<mask id="mask28_1631_21259" style="mask-type:luminance" maskUnits="userSpaceOnUse" x="1" y="-3" width="110" height="110">
<path d="M111 -3H1V107H111V-3Z" fill="white"/>
</mask>
<g mask="url(#mask28_1631_21259)">
<path d="M57.9914 35.434C57.9968 35.0887 57.816 34.8527 57.5389 34.845C57.2254 34.8364 57.0158 35.0522 57.0042 35.3976C56.9941 35.6871 57.2805 36.013 57.5412 36.0099C57.7717 36.0068 57.9867 35.7321 57.9914 35.434Z" fill="white"/>
</g>
<mask id="mask29_1631_21259" style="mask-type:luminance" maskUnits="userSpaceOnUse" x="1" y="-3" width="110" height="110">
<path d="M111 -3H1V107H111V-3Z" fill="white"/>
</mask>
<g mask="url(#mask29_1631_21259)">
<path d="M59.8284 37.011C59.8276 36.8263 59.7104 36.6936 59.5451 36.6905C59.3526 36.6866 59.1625 36.8744 59.1656 37.0654C59.1687 37.2671 59.2952 37.4076 59.4752 37.4068C59.6724 37.4053 59.8291 37.2299 59.8284 37.011Z" fill="#F9FBFC"/>
</g>
<mask id="mask30_1631_21259" style="mask-type:luminance" maskUnits="userSpaceOnUse" x="1" y="-3" width="110" height="110">
<path d="M111 -3H1V107H111V-3Z" fill="white"/>
</mask>
<g mask="url(#mask30_1631_21259)">
<path d="M58.1074 38.093C58.1105 37.9168 57.9731 37.7662 57.8063 37.7647C57.6402 37.7623 57.502 37.8966 57.4981 38.0627C57.4935 38.242 57.6526 38.4003 57.8373 38.3995C57.9941 38.3988 58.1043 38.2738 58.1074 38.093Z" fill="#F7F8FC"/>
</g>
<mask id="mask31_1631_21259" style="mask-type:luminance" maskUnits="userSpaceOnUse" x="1" y="-3" width="110" height="110">
<path d="M111 -3H1V107H111V-3Z" fill="white"/>
</mask>
<g mask="url(#mask31_1631_21259)">
<path d="M45.7529 59.6584C46.1883 58.8908 46.8899 58.3467 47.6567 57.9781C48.4801 57.5823 49.3649 57.3425 50.2404 57.105C51.1919 56.8465 52.1488 56.6137 53.1003 56.3537C54.0495 56.0945 54.9909 55.8058 55.9091 55.4449C56.8334 55.0816 57.7384 54.6625 58.6775 54.3397C60.3686 53.7568 62.3516 53.4844 63.9651 54.4561C65.3513 55.2912 66.1421 56.883 65.7207 58.5361C65.196 60.5936 63.4389 62.1202 62.6659 62.7434C60.9391 64.135 57.9231 66.5666 53.2742 67.0501C51.4255 67.2426 49.7289 67.3108 47.992 66.3446C46.5499 65.5421 45.475 64.0644 45.3617 62.3336C45.3477 62.1187 45.3524 61.9029 45.3726 61.6895C45.2422 60.9948 45.4075 60.2676 45.7529 59.6584Z" fill="#4D4D4D"/>
</g>
<mask id="mask32_1631_21259" style="mask-type:luminance" maskUnits="userSpaceOnUse" x="1" y="-3" width="110" height="110">
<path d="M111 -3H1V107H111V-3Z" fill="white"/>
</mask>
<g mask="url(#mask32_1631_21259)">
<path d="M28.4682 90.1685C28.6025 90.7808 28.7911 91.3785 28.9859 91.9722C29.1357 92.4301 29.2855 92.8989 29.5284 93.3141C30.0274 94.1686 30.9099 94.5551 31.8063 94.0949C32.7927 93.5888 33.1156 92.4635 33.6092 91.5306C34.1206 90.5651 34.9076 89.8115 35.6961 89.0951C36.4948 88.3695 37.2841 87.6399 38.0284 86.8537C40.5205 84.2235 42.5888 81.1796 44.1581 77.8694C44.3894 77.5916 44.5912 77.2874 44.7542 76.9606C45.5636 75.3416 45.5264 73.2112 44.4631 71.7219C43.4355 70.2822 41.6295 69.6 39.9477 69.9026C37.922 70.2666 36.8013 72.1441 35.7947 73.8212C34.4691 76.0285 33.1443 78.235 31.8187 80.4423C31.1737 81.5164 30.5164 82.5843 29.8869 83.6693C29.3313 84.6278 28.8105 85.629 28.5132 86.7109C28.1989 87.8541 28.2152 89.0152 28.4682 90.1685Z" fill="#4D4D4D"/>
</g>
</g>
</g>
<defs>
<clipPath id="clip0_1631_21259">
<rect width="100" height="100" fill="white"/>
</clipPath>
<clipPath id="clip1_1631_21259">
<rect width="110" height="110" fill="white" transform="translate(1 -3)"/>
</clipPath>
</defs>
</svg>
