<svg width="100" height="100" viewBox="0 0 100 100" fill="none" xmlns="http://www.w3.org/2000/svg">
<g clip-path="url(#clip0_1631_21260)">
<rect opacity="0.5" width="100" height="100" rx="50" fill="#AFAFAF"/>
<g clip-path="url(#clip1_1631_21260)">
<mask id="mask0_1631_21260" style="mask-type:luminance" maskUnits="userSpaceOnUse" x="-16" y="1" width="108" height="108">
<path d="M91.048 1H-15.9761V108.024H91.048V1Z" fill="white"/>
</mask>
<g mask="url(#mask0_1631_21260)">
<path d="M48.6523 90.7045C48.7044 91.0088 48.9121 92.1445 49.6294 93.6925C50.4147 95.3862 50.901 96.4366 52.0715 97.1978C52.4211 97.425 53.5281 98.1447 54.9439 97.9446C56.0524 97.7875 56.7811 97.1472 57.2138 96.7666C58.0694 96.0145 58.4613 95.2058 58.8222 94.4393C59.2979 93.4312 59.4905 92.442 59.8567 90.5037C60.1595 88.9013 60.3068 88.0933 60.115 87.7747C59.6256 86.9606 58.4356 87.0936 54.1971 87.1426C50.266 87.1887 49.1756 87.0988 48.6523 87.9181C48.277 88.5056 48.4024 89.2388 48.6523 90.7045Z" fill="#4D4D4D"/>
</g>
<mask id="mask1_1631_21260" style="mask-type:luminance" maskUnits="userSpaceOnUse" x="-16" y="1" width="108" height="108">
<path d="M91.048 1H-15.9761V108.024H91.048V1Z" fill="white"/>
</mask>
<g mask="url(#mask1_1631_21260)">
<path d="M48.1869 90.4623C48.1348 90.7666 47.9272 91.9023 47.2098 93.4503C46.4245 95.144 45.9382 96.1944 44.7678 96.9556C44.4182 97.1829 43.3112 97.9025 41.8953 97.7024C40.7868 97.5453 40.0581 96.905 39.6254 96.5244C38.7699 95.7723 38.378 94.9636 38.017 94.1971C37.5413 93.1891 37.3488 92.1999 36.9825 90.2615C36.6797 88.6591 36.5325 87.8511 36.7243 87.5325C37.2136 86.7185 38.4029 86.8514 42.6421 86.9004C46.5733 86.9465 47.6637 86.8574 48.1869 87.676C48.5622 88.2634 48.4376 88.9959 48.1869 90.4623Z" fill="#4D4D4D"/>
</g>
<mask id="mask2_1631_21260" style="mask-type:luminance" maskUnits="userSpaceOnUse" x="-16" y="1" width="108" height="108">
<path d="M91.048 1H-15.9761V108.024H91.048V1Z" fill="white"/>
</mask>
<g mask="url(#mask2_1631_21260)">
<path d="M22.8792 48.2227C19.6639 47.6375 18.2035 43.282 18.1386 43.0804C17.2135 40.1996 18.0925 37.7145 18.3394 37.047C19.389 34.2115 21.5011 32.6922 22.6776 31.8465C24.7451 30.3597 27.0436 29.5532 31.6416 27.9395C32.6451 27.5869 33.1835 27.4207 33.9975 26.9911C36.4464 25.6998 37.5934 24.0046 38.6513 22.8538C40.0309 21.3526 39.7976 22.1583 47.5005 17.2803C49.9456 15.7315 51.7246 14.5392 54.5103 13.4881C55.9971 12.927 57.1509 12.6409 58.4754 12.6265C59.7394 12.6129 59.9947 12.8598 62.7848 13.4307C65.4111 13.9676 66.7235 14.2364 68.3583 14.2923C70.006 14.3489 70.6146 14.176 72.1505 14.4645C72.6315 14.5551 73.6932 14.7824 74.9664 15.326C75.7743 15.6711 77.1131 16.2579 78.4716 17.5098C79.1157 18.1041 78.8567 18.0248 80.2529 19.6363C81.8711 21.5037 82.4798 21.922 82.3793 22.5669C82.2653 23.2948 81.409 23.951 80.6554 24.0031C80.0151 24.0476 79.8225 23.6323 78.7231 23.3371C77.9634 23.1332 77.9204 23.294 76.9206 23.1415C75.4723 22.9203 75.393 22.5555 73.99 22.3373C73.1231 22.2021 72.5032 22.2406 71.8643 22.2799C70.8366 22.3426 70.3103 22.3826 70.0256 22.7398C69.6043 23.2684 69.969 24.1737 70.1404 24.6933C71.1719 27.8179 69.2607 29.2202 70.083 32.4506C70.5882 34.4343 71.7775 35.7482 72.3816 36.4149C73.5996 37.7598 74.4068 37.9456 77.3231 40.4374C78.2617 41.2394 78.7306 41.6396 79.2192 42.1614C79.5159 42.4778 81.7707 44.8941 82.1498 46.8159C82.7705 49.9632 78.7291 53.6686 75.5991 55.4348C72.5303 57.1663 68.9088 57.8406 57.2121 56.0668C43.6411 54.0092 30.7649 45.8645 25.4745 47.8972C25.1679 48.0143 24.1357 48.4515 22.8792 48.2227Z" fill="#6C8F99"/>
</g>
<mask id="mask3_1631_21260" style="mask-type:luminance" maskUnits="userSpaceOnUse" x="-16" y="1" width="108" height="108">
<path d="M91.048 1H-15.9761V108.024H91.048V1Z" fill="white"/>
</mask>
<g mask="url(#mask3_1631_21260)">
<path d="M28.0301 53.2219C25.9747 52.0288 24.1714 50.4212 24.1714 50.4212C22.7201 49.1269 20.9327 47.5004 19.7329 44.819C19.1476 43.5111 18.4069 41.8559 18.6553 39.691C18.9249 37.3433 20.201 35.7636 20.9826 34.8212C22.4037 33.1079 24.0612 32.0809 26.0245 31.1581C29.4331 29.5558 32.9451 28.6504 37.4879 28.0554C42.9935 27.3342 46.1264 26.9182 50.5023 27.5381C56.5939 28.4005 60.929 30.6741 63.6029 32.1058C66.1552 33.4726 68.4213 35.229 72.9542 38.7425C80.3883 44.5041 81.2333 46.2167 81.3579 47.8787C81.5709 50.7225 79.6468 53.0271 79.1598 53.61C77.3301 55.8021 74.956 56.5346 72.0058 57.4022C68.7867 58.3499 66.1922 58.4926 65.5843 58.5228C53.6799 59.1065 35.8916 57.7835 28.0301 53.2219Z" fill="#272727"/>
</g>
<mask id="mask4_1631_21260" style="mask-type:luminance" maskUnits="userSpaceOnUse" x="-16" y="1" width="108" height="108">
<path d="M91.048 1H-15.9761V108.024H91.048V1Z" fill="white"/>
</mask>
<g mask="url(#mask4_1631_21260)">
<path d="M31.689 33.9915C30.8697 34.7444 30.2369 35.3319 29.5437 36.2516C28.8882 37.1215 28.5605 37.5564 28.3755 38.0329C28.3264 38.159 28.1422 38.6612 27.7375 39.223C27.7035 39.2706 27.674 39.3091 27.6551 39.334C27.6219 38.9836 27.412 38.7722 27.2391 38.5441C26.8404 38.0186 26.4228 37.5119 26.2506 36.8497C26.0792 36.192 26.0369 35.541 26.1645 34.8675C26.2944 34.1849 26.558 33.5679 26.9748 33.0235C27.8726 31.8515 29.0838 31.212 30.5238 30.9469C31.7652 30.7181 32.9485 30.8903 34.1016 31.369C34.1152 31.3743 34.1408 31.3826 34.1726 31.3962C34.3364 31.4672 34.4557 31.5759 34.5403 31.6779C33.3427 32.5349 32.3935 33.3444 31.689 33.9915Z" fill="#4D4D4D"/>
</g>
<mask id="mask5_1631_21260" style="mask-type:luminance" maskUnits="userSpaceOnUse" x="-16" y="1" width="108" height="108">
<path d="M91.048 1H-15.9761V108.024H91.048V1Z" fill="white"/>
</mask>
<g mask="url(#mask5_1631_21260)">
<path d="M65.939 34.9163C66.7085 35.7197 67.3035 36.3465 67.9363 37.3077C68.5351 38.2169 68.8349 38.6722 68.9897 39.1593C69.0305 39.2884 69.183 39.8004 69.5515 40.3871C69.5825 40.4369 69.6089 40.477 69.627 40.5034C69.6821 40.156 69.9056 39.9582 70.0922 39.7415C70.5233 39.2423 70.9719 38.7628 71.1863 38.1127C71.3993 37.4671 71.4831 36.8199 71.3977 36.1403C71.3117 35.4509 71.0874 34.8181 70.7053 34.2488C69.8837 33.0224 68.7148 32.3066 67.2952 31.9509C66.0704 31.6444 64.8788 31.741 63.6978 32.1458C63.6842 32.1503 63.6578 32.1563 63.6253 32.1684C63.457 32.2288 63.3316 32.33 63.2402 32.4267C64.3812 33.3577 65.2768 34.2253 65.939 34.9163Z" fill="#4D4D4D"/>
</g>
<mask id="mask6_1631_21260" style="mask-type:luminance" maskUnits="userSpaceOnUse" x="-16" y="1" width="108" height="108">
<path d="M91.048 1H-15.9761V108.024H91.048V1Z" fill="white"/>
</mask>
<g mask="url(#mask6_1631_21260)">
<path d="M32.6185 87.1376C33.5013 89.104 35.8451 89.8395 37.4883 90.2835C49.3074 93.4761 59.5097 91.0159 59.5097 91.0159C63.866 89.9656 64.8537 89.0624 65.3279 88.1284C66.3231 86.1658 64.6793 84.793 63.3457 78.561C62.4335 74.3014 62.8088 73.1083 61.3635 71.1488C59.6358 68.8072 57.1787 67.9071 56.8389 67.7878C55.4366 67.2939 54.3055 67.2909 53.5209 67.2705C46.444 67.087 45.0402 64.9425 41.6701 65.9347C38.7659 66.7895 37.1379 69.1674 35.7228 71.2357C34.4754 73.0577 33.7995 76.717 32.4479 84.0349C32.2916 84.8678 32.1005 85.9846 32.6185 87.1376Z" fill="#FDFDFD"/>
</g>
<mask id="mask7_1631_21260" style="mask-type:luminance" maskUnits="userSpaceOnUse" x="-16" y="1" width="108" height="108">
<path d="M91.048 1H-15.9761V108.024H91.048V1Z" fill="white"/>
</mask>
<g mask="url(#mask7_1631_21260)">
<path d="M33.9974 32.0478C34.7276 31.5305 38.2253 29.1194 43.536 28.1982C49.7483 27.1199 54.6294 28.7418 57.2111 29.6344C60.0043 30.6002 63.1509 31.7291 65.9448 34.6907C68.1717 37.0512 69.2326 39.5763 69.5075 40.2642C70.2195 42.0447 70.4657 43.5187 70.5994 44.3441C70.8266 45.7531 71.1415 47.7021 70.7141 50.1471C70.1856 53.1736 68.8218 55.2389 68.186 56.1805C66.7528 58.3032 65.2093 59.5408 63.9339 60.5474C60.7753 63.0393 60.0202 62.4767 57.039 64.6273C52.833 67.6613 52.1662 70.3473 50.2014 70.1434C48.7251 69.9901 48.9887 67.6024 46.5814 65.9487C45.266 65.0448 44.2345 65.0365 42.7318 64.6846C38.6428 63.7279 35.8466 61.3531 32.7341 58.7087C29.8744 56.2802 28.445 55.0652 27.3901 53.0204C24.7676 47.9331 26.0581 41.7993 28.4246 37.7934C30.212 34.7654 32.5407 33.0792 33.9974 32.0478Z" fill="#FDFDFD"/>
</g>
<mask id="mask8_1631_21260" style="mask-type:luminance" maskUnits="userSpaceOnUse" x="-16" y="1" width="108" height="108">
<path d="M91.048 1H-15.9761V108.024H91.048V1Z" fill="white"/>
</mask>
<g mask="url(#mask8_1631_21260)">
<path d="M38.7471 80.1726C38.9789 79.8864 39.2945 79.5768 39.5641 79.6455C39.8193 79.7105 39.8775 80.0744 40.0685 80.6227C40.3434 81.4118 40.7194 82.4765 41.5455 82.9597C41.8665 83.1478 42.1776 83.2021 42.4343 83.2467C43.0822 83.3592 43.6229 83.2565 43.9377 83.1697C44.1031 83.0979 44.5381 82.8827 44.7993 82.3942C44.9806 82.0551 44.9957 81.7395 45.0002 81.599C45.0123 81.2638 44.9337 81.0244 44.828 80.7087C44.6694 80.2375 44.4814 79.6788 43.9755 79.2529C43.6697 78.9961 43.5338 79.0278 43.4681 78.8504C43.2702 78.3188 44.2103 77.2458 44.7993 77.3855C45.0009 77.433 45.0772 77.603 45.6133 78.6397C46.2401 79.8524 46.1978 79.7399 46.2408 79.8441C46.4704 80.4052 46.9416 81.5545 46.552 82.8223C46.4825 83.0481 46.2575 83.7511 45.6043 84.3325C45.2365 84.6603 44.8809 84.8173 44.6755 84.9064C43.8841 85.2493 43.1653 85.2409 42.8051 85.2115C42.5257 85.1888 41.8582 85.105 41.1355 84.6882C40.9271 84.5674 40.2075 84.1279 39.6864 83.2603C39.4342 82.8404 39.3202 82.4425 39.0922 81.6466C38.9207 81.0425 38.8135 80.5313 38.7471 80.1726Z" fill="#CEAFB0"/>
</g>
<mask id="mask9_1631_21260" style="mask-type:luminance" maskUnits="userSpaceOnUse" x="-16" y="1" width="108" height="108">
<path d="M91.048 1H-15.9761V108.024H91.048V1Z" fill="white"/>
</mask>
<g mask="url(#mask9_1631_21260)">
<path d="M50.6217 24.4993C50.6118 24.3573 51.5293 24.1134 52.4581 24.1142C52.7413 24.1142 52.9391 24.1368 53.254 24.1746C54.1767 24.2848 55.1018 24.3807 56.0192 24.5265C56.7532 24.6435 57.4766 24.8285 58.206 24.9773C59.2851 25.1963 60.3491 25.4764 61.4123 25.7581C61.9831 25.9091 62.5404 26.1168 63.1007 26.307C63.3069 26.3773 63.3612 26.3184 63.3627 26.1054C63.3695 25.4077 63.2955 24.7205 63.1589 24.0379C63.1083 23.7857 62.9625 23.5735 62.8976 23.2994C63.0577 23.4316 63.2306 23.5524 63.3763 23.6989C63.7229 24.047 64.0514 24.414 64.3972 24.7628C65.3359 25.709 65.9467 26.5827 66.2707 26.4437C66.43 26.3758 66.3885 26.1273 66.5524 24.941C66.7056 23.828 66.8015 23.6173 66.9594 23.5622C67.306 23.4421 67.7704 24.1399 67.9168 24.0417C68.0097 23.9798 67.9493 23.6158 67.5967 22.9294C66.5773 20.948 64.9787 19.8961 65.0912 19.7202C65.2475 19.477 68.302 21.537 68.9483 20.8868C69.4188 20.4141 68.2944 18.8284 68.7007 18.4984C69.2179 18.0778 71.4296 20.3326 71.817 19.992C72.076 19.764 71.4108 18.4674 70.6519 17.4865C69.7216 16.2844 68.7981 15.7498 68.8653 15.6516C68.9378 15.5451 70.1165 16.0125 71.1925 16.9738C72.4332 18.0831 72.9467 19.3215 73.0886 19.2527C73.2835 19.1591 72.1968 16.8998 72.5314 16.6884C72.9822 16.4044 75.582 20.1038 76.0698 19.8085C76.4195 19.5971 74.6366 16.9345 75.3177 16.2851C75.7852 15.8396 77.2221 16.5698 77.9123 17.0297C78.4364 17.3793 78.8887 17.8966 79.7926 18.9318C80.8308 20.1204 80.5061 19.9369 81.3096 20.8219C82.0269 21.6117 82.4385 21.9274 82.4362 22.4899C82.434 22.9709 82.1289 23.3342 82.0337 23.4474C81.5814 23.9858 80.932 24.0938 80.6738 24.118C79.8454 24.1942 79.6332 23.7193 78.4137 23.39C77.6148 23.1741 77.6692 23.3689 76.4791 23.1605C75.4106 22.9732 75.3608 22.8154 73.9683 22.5164C72.6733 22.2377 72.1598 22.2543 71.8631 22.2793C71.0717 22.3457 70.6337 22.3827 70.3498 22.7006C69.791 23.3266 70.5635 24.2207 70.5416 26.3591C70.5348 27.0108 70.4555 27.5024 70.2977 28.4848C70.2215 28.9583 69.8839 30.9646 69.9579 31.6835C70.013 32.2166 70.158 32.724 70.158 32.724C70.2351 32.974 70.3015 33.1884 70.4216 33.4731C70.5764 33.8393 70.7704 34.2033 70.7062 34.2478C70.6942 34.2562 70.6549 34.2682 70.2456 33.9239C70.0115 33.7276 69.8439 33.572 69.6808 33.4263C69.4505 33.2201 69.3214 33.1144 69.1824 32.9951C68.5375 32.4409 67.7643 31.6623 67.1081 31.0718C66.6241 30.6361 66.2352 30.3129 65.4204 29.7156C64.5717 29.0934 63.7373 28.4516 62.8432 27.8943C62.2603 27.5311 61.6667 27.183 61.0483 26.8817C59.7729 26.2919 58.4666 25.7868 57.0938 25.4696C56.7215 25.3835 56.347 25.3035 55.9694 25.2423C55.397 25.1502 54.253 24.9207 52.8258 24.7583C51.2341 24.5786 50.6292 24.6133 50.6217 24.4993Z" fill="#56747C"/>
</g>
<mask id="mask10_1631_21260" style="mask-type:luminance" maskUnits="userSpaceOnUse" x="-16" y="1" width="108" height="108">
<path d="M91.048 1H-15.9761V108.024H91.048V1Z" fill="white"/>
</mask>
<g mask="url(#mask10_1631_21260)">
<path d="M31.2904 88.2312C30.9401 88.3724 30.5497 88.5287 30.0166 88.7152C29.3166 88.9599 28.8265 89.1283 28.2639 89.2181C27.7301 89.3035 27.4454 89.3186 27.4454 89.3186C27.1237 89.3359 26.9908 89.3178 26.981 89.3533C26.9546 89.453 27.9309 89.8486 28.8514 90.1046C29.8089 90.3704 31.3478 90.6272 33.4501 90.264C34.1403 90.1832 35.1393 89.9876 36.2425 89.4756C37.2612 89.0029 38.0117 88.426 38.5078 87.9797C39.5899 86.8523 40.0619 85.805 40.2922 85.0529C40.709 83.6929 40.6305 82.3398 40.9695 80.1545C41.0118 79.8811 41.079 79.4363 41.2021 78.8534C41.3811 78.0016 41.5215 77.6475 41.7949 75.9092C42.2804 72.8178 41.9315 71.0289 41.9315 71.0289C41.8553 71.0206 41.739 71.0176 41.6053 71.0515C41.3358 71.121 41.1727 71.3 41.079 71.4057C40.9809 71.5167 40.9008 71.642 40.811 71.8459C40.669 72.1691 40.6373 72.3851 40.5527 72.7649C40.518 72.9212 40.4115 73.3856 40.2703 73.8281C40.1563 74.1853 40.0528 74.4254 39.9494 74.6708C39.6941 75.2779 39.4676 75.8971 39.2267 76.5095C38.7223 77.7872 38.4708 78.4268 38.3697 78.7696C38.199 79.3495 38.2262 79.3941 37.9241 80.4693C37.6817 81.3332 37.6712 81.2811 37.5602 81.7432C37.4386 82.2522 37.3948 82.552 37.2106 83.0556C37.1569 83.2021 37.0777 83.4173 36.9425 83.6831C36.8375 83.8893 36.679 84.1672 36.3203 84.6315C35.6965 85.4388 35.1106 85.9794 34.884 86.1826C34.6537 86.3887 34.4159 86.6001 34.0655 86.8486C33.592 87.1831 33.2032 87.3772 32.7629 87.5954C32.2736 87.8355 31.9111 87.9812 31.2904 88.2312Z" fill="#6C8F99"/>
</g>
<mask id="mask11_1631_21260" style="mask-type:luminance" maskUnits="userSpaceOnUse" x="-16" y="1" width="108" height="108">
<path d="M91.048 1H-15.9761V108.024H91.048V1Z" fill="white"/>
</mask>
<g mask="url(#mask11_1631_21260)">
<path d="M50.0815 69.1668C50.154 69.095 49.827 68.6057 49.454 68.2093C48.8907 67.6112 48.2632 67.2676 47.7814 67.057C47.1222 66.7678 46.8398 66.77 45.8528 66.5239C44.9029 66.2867 44.2595 66.0587 42.9796 65.6049C42.084 65.287 41.4029 65.0453 40.4892 64.6285C40.126 64.4624 39.5627 64.2049 38.8423 63.8047C37.9906 63.332 37.7293 63.1092 37.0519 62.7891C36.4297 62.4946 35.8936 62.3247 35.55 62.2288C35.0516 61.9524 34.5533 61.6768 34.0549 61.4004C34.0345 61.5257 34.0134 61.6511 33.9915 61.7779C33.928 62.1517 33.8616 62.5202 33.7921 62.8834C33.6313 63.1613 33.3791 63.6053 33.0831 64.1566C30.7414 68.5249 30.0437 71.5401 29.7719 73.0465C29.3837 75.2001 29.5967 75.7521 29.7288 76.0202C29.7288 76.0202 30.1011 76.7776 33.1827 78.5921C33.1827 78.5921 32.9909 80.347 32.0735 82.5935C31.6144 83.7179 31.1726 84.6504 30.6561 85.6026C30.1079 86.613 29.824 87.1295 29.3339 87.6581C28.165 88.9191 26.9213 89.1917 26.9779 89.354C27.0519 89.564 29.1481 89.1819 31.3531 88.2727C32.7886 87.6807 34.0035 87.1793 35.2366 85.9749C36.2915 84.9442 36.8126 83.9346 37.3245 82.9046C38.7963 79.9445 38.9986 77.3401 40.2151 74.1022C40.2491 74.0123 40.2989 73.8802 40.3692 73.7163C40.4001 73.6438 40.8691 72.5587 41.2662 72.1246C41.933 71.3966 42.9064 71.9471 44.1221 71.5386C44.7957 71.312 45.6489 70.7563 46.4139 69.3004C46.4962 69.1464 46.651 68.9062 46.9198 68.7137C47.7814 68.0975 48.979 68.5702 49.1172 68.6269C49.7047 68.867 50.015 69.2325 50.0815 69.1668Z" fill="#A8BCC2"/>
</g>
<mask id="mask12_1631_21260" style="mask-type:luminance" maskUnits="userSpaceOnUse" x="-16" y="1" width="108" height="108">
<path d="M91.048 1H-15.9761V108.024H91.048V1Z" fill="white"/>
</mask>
<g mask="url(#mask12_1631_21260)">
<path d="M36.2139 87.7101C36.2207 87.5145 36.2517 87.3039 35.9783 87.257C35.7261 87.214 35.5819 87.3242 35.498 87.6142C35.5547 87.7773 35.6204 87.9193 35.8303 87.9389C36.0259 87.957 36.1286 87.8566 36.2139 87.7101Z" fill="#F0F4F8"/>
</g>
<mask id="mask13_1631_21260" style="mask-type:luminance" maskUnits="userSpaceOnUse" x="-16" y="1" width="108" height="108">
<path d="M91.048 1H-15.9761V108.024H91.048V1Z" fill="white"/>
</mask>
<g mask="url(#mask13_1631_21260)">
<path d="M33.7105 88.3478C33.709 88.6574 33.8381 88.7971 34.0457 88.8008C34.2375 88.8046 34.3198 88.6966 34.3214 88.5169C34.3244 88.2934 34.1726 88.094 34.0027 88.1039C33.7965 88.1167 33.7135 88.2473 33.7105 88.3478Z" fill="#E5E9EE"/>
</g>
<mask id="mask14_1631_21260" style="mask-type:luminance" maskUnits="userSpaceOnUse" x="-16" y="1" width="108" height="108">
<path d="M91.048 1H-15.9761V108.024H91.048V1Z" fill="white"/>
</mask>
<g mask="url(#mask14_1631_21260)">
<path d="M39.6837 77.8839C39.6791 78.1104 39.8528 78.3098 40.0582 78.3136C40.2674 78.3173 40.4932 78.0885 40.4969 77.8695C40.5007 77.6392 40.3376 77.4807 40.0945 77.4776C39.8347 77.4731 39.689 77.6181 39.6837 77.8839Z" fill="#EEEEEF"/>
</g>
<mask id="mask15_1631_21260" style="mask-type:luminance" maskUnits="userSpaceOnUse" x="-16" y="1" width="108" height="108">
<path d="M91.048 1H-15.9761V108.024H91.048V1Z" fill="white"/>
</mask>
<g mask="url(#mask15_1631_21260)">
<path d="M40.3939 80.6849C40.3803 80.7 40.3644 80.7136 40.3486 80.7257C40.2882 80.7732 40.2278 80.8208 40.1674 80.8684C40.1402 80.8903 40.1122 80.9122 40.0934 80.9409C40.0133 81.0632 40.0828 81.252 40.0926 81.3849C40.0994 81.4725 40.0111 81.4642 39.9605 81.4362C39.8615 81.3811 39.7702 81.3131 39.6765 81.2497C39.6614 81.2391 39.6448 81.2286 39.6267 81.2255C39.6033 81.2218 39.5806 81.2308 39.5587 81.2399C39.4591 81.2814 39.3594 81.3222 39.2597 81.3637C39.2038 81.3864 39.1026 81.3856 39.1276 81.2935C39.1585 81.1787 39.1902 81.0639 39.222 80.9492C39.2288 80.9258 39.2348 80.9016 39.2295 80.8782C39.2242 80.8563 39.2091 80.8389 39.1948 80.8216C39.1268 80.7423 39.0581 80.6622 38.9894 80.5829C38.9637 80.5527 38.9358 80.5142 38.9494 80.4772C38.9886 80.37 39.296 80.4123 39.3805 80.413C39.3971 80.413 39.4153 80.4138 39.4304 80.4062C39.4515 80.3964 39.4651 80.376 39.4772 80.3557L39.6494 80.0748C39.6697 80.0423 39.6977 80.0053 39.7354 80.0091C39.7641 80.0121 39.7845 80.037 39.8004 80.0619C39.86 80.1578 39.8759 80.2673 39.9144 80.3723C39.9242 80.3979 39.934 80.4251 39.9529 80.4455C40.008 80.5037 40.3071 80.5467 40.3675 80.5618C40.4211 80.5746 40.4324 80.6252 40.4037 80.6698C40.4022 80.6758 40.3984 80.6804 40.3939 80.6849Z" fill="#FDEEC4"/>
</g>
<mask id="mask16_1631_21260" style="mask-type:luminance" maskUnits="userSpaceOnUse" x="-16" y="1" width="108" height="108">
<path d="M91.048 1H-15.9761V108.024H91.048V1Z" fill="white"/>
</mask>
<g mask="url(#mask16_1631_21260)">
<path d="M39.2906 83.6271C39.2914 83.6422 39.2891 83.6581 39.2869 83.6732C39.2786 83.7313 39.2703 83.7887 39.262 83.8469C39.2582 83.8733 39.2544 83.8997 39.2589 83.9261C39.2786 84.0349 39.416 84.1036 39.4908 84.1708C39.5406 84.2154 39.4877 84.2569 39.4447 84.2682C39.3616 84.2894 39.2755 84.2999 39.1902 84.3143C39.1766 84.3165 39.1615 84.3188 39.1502 84.3271C39.1358 84.3369 39.1275 84.3543 39.1207 84.3702C39.0875 84.4449 39.0543 84.5197 39.0211 84.5952C39.0022 84.6367 38.9463 84.6896 38.9116 84.6254C38.8685 84.5461 38.8262 84.4661 38.7832 84.386C38.7749 84.3702 38.7651 84.3528 38.75 84.343C38.7356 84.3339 38.7183 84.3316 38.7009 84.3301C38.6216 84.3218 38.5423 84.3143 38.463 84.306C38.4328 84.3029 38.3973 84.2962 38.386 84.2682C38.3513 84.1882 38.5431 84.0507 38.5907 84.0069C38.6005 83.9986 38.6095 83.9888 38.6148 83.9775C38.6216 83.9609 38.6178 83.9428 38.6141 83.9254C38.5967 83.8438 38.5793 83.7623 38.562 83.68C38.5559 83.6513 38.5521 83.6165 38.5748 83.5984C38.5922 83.5848 38.6163 83.5879 38.6382 83.5931C38.7213 83.615 38.7877 83.6671 38.864 83.7041C38.8829 83.7132 38.9025 83.723 38.9237 83.7238C38.9848 83.7268 39.1721 83.5946 39.2129 83.5712C39.2491 83.5509 39.2816 83.5728 39.2891 83.612C39.2899 83.6181 39.2906 83.6226 39.2906 83.6271Z" fill="#FDEEC4"/>
</g>
<mask id="mask17_1631_21260" style="mask-type:luminance" maskUnits="userSpaceOnUse" x="-16" y="1" width="108" height="108">
<path d="M91.048 1H-15.9761V108.024H91.048V1Z" fill="white"/>
</mask>
<g mask="url(#mask17_1631_21260)">
<path d="M37.8926 86.1207C37.8971 86.1298 37.9009 86.1403 37.9039 86.1509C37.916 86.1894 37.9273 86.2272 37.9386 86.2657C37.9439 86.2831 37.9492 86.3004 37.9598 86.3155C38.0036 86.3774 38.1085 86.3797 38.1742 86.3993C38.218 86.4129 38.1976 86.4537 38.1742 86.4726C38.1289 86.5096 38.0783 86.5421 38.03 86.5753C38.0224 86.5806 38.0141 86.5866 38.0088 86.5949C38.0028 86.6055 38.0028 86.6183 38.0028 86.6304C38.0043 86.6863 38.0051 86.7422 38.0066 86.7988C38.0073 86.8298 37.9877 86.8789 37.9477 86.8494C37.8978 86.8124 37.848 86.7754 37.7989 86.7384C37.7891 86.7309 37.7778 86.7233 37.7657 86.7218C37.7544 86.7203 37.743 86.7241 37.7317 86.7278C37.6804 86.746 37.629 86.7641 37.5777 86.7822C37.558 86.789 37.5346 86.795 37.5188 86.7814C37.4742 86.7422 37.5528 86.6017 37.5694 86.5602C37.5724 86.5519 37.5762 86.5436 37.5754 86.5345C37.5747 86.5224 37.5671 86.5119 37.5595 86.5021C37.5248 86.4567 37.4908 86.4107 37.4561 86.3654C37.444 86.3495 37.4319 86.3291 37.4402 86.311C37.447 86.2974 37.4629 86.2921 37.478 86.2899C37.5361 86.2785 37.592 86.2921 37.6502 86.2929C37.6645 86.2929 37.6796 86.2936 37.6932 86.2876C37.7317 86.2717 37.8095 86.1351 37.8276 86.1086C37.8442 86.0852 37.8707 86.089 37.8873 86.1117C37.8888 86.1147 37.8903 86.1177 37.8926 86.1207Z" fill="#FDEEC4"/>
</g>
<mask id="mask18_1631_21260" style="mask-type:luminance" maskUnits="userSpaceOnUse" x="-16" y="1" width="108" height="108">
<path d="M91.048 1H-15.9761V108.024H91.048V1Z" fill="white"/>
</mask>
<g mask="url(#mask18_1631_21260)">
<path d="M41.0358 63.507C42.6517 64.1323 43.6862 64.3777 46.7988 65.5353C47.9488 65.9634 49.1329 66.4225 49.749 67.5658C50.0783 68.1774 50.2527 68.999 50.0972 69.0775C49.9756 69.1387 49.7377 68.7491 49.2469 68.3051C48.7115 67.821 48.2358 67.599 47.4716 67.2426C46.7973 66.9285 45.7703 66.5283 44.4194 66.2828C42.5732 65.7837 41.2132 65.1751 40.2889 64.6941C39.8419 64.4615 39.2839 64.1889 38.4865 63.7683C37.8643 63.4398 37.8718 63.427 37.3598 63.1604C36.8335 62.8863 36.493 62.7232 35.6941 62.3041C35.5347 62.2203 35.4343 62.1675 35.349 62.1222C32.919 60.8369 32.4033 60.7176 32.1805 60.146C31.9457 59.5442 32.4153 58.4395 32.4153 58.4395C33.4363 59.2927 34.9057 60.408 36.8131 61.4962C38.6979 62.5722 40.3275 63.2329 41.0358 63.507Z" fill="#6C8F99"/>
</g>
<mask id="mask19_1631_21260" style="mask-type:luminance" maskUnits="userSpaceOnUse" x="-16" y="1" width="108" height="108">
<path d="M91.048 1H-15.9761V108.024H91.048V1Z" fill="white"/>
</mask>
<g mask="url(#mask19_1631_21260)">
<path d="M67.6114 87.0376C67.9618 87.1781 68.3522 87.3351 68.8853 87.5209C69.5853 87.7655 70.0754 87.9339 70.6379 88.0238C71.1725 88.1091 71.4565 88.1242 71.4565 88.1242C71.7781 88.1416 71.911 88.1235 71.9209 88.159C71.9473 88.2586 70.9709 88.6543 70.0504 88.9103C69.0929 89.1761 67.554 89.4328 65.4518 89.0696C64.7616 88.9888 63.7626 88.7932 62.6594 88.2813C61.6407 87.8086 60.8901 87.2317 60.394 86.7854C59.3112 85.658 58.84 84.6107 58.6089 83.8586C58.1921 82.4986 58.2706 81.1454 57.9323 78.9601C57.89 78.6868 57.8228 78.242 57.6998 77.6591C57.5208 76.8073 57.3803 76.4531 57.107 74.7149C56.6222 71.6234 56.9711 69.8345 56.9711 69.8345C57.0473 69.8262 57.1636 69.8232 57.2973 69.8572C57.5668 69.9267 57.73 70.1056 57.8243 70.2113C57.9225 70.3223 58.0026 70.4477 58.0924 70.6516C58.2344 70.9748 58.2661 71.1907 58.3514 71.5706C58.3862 71.7269 58.4926 72.1913 58.6338 72.6338C58.7479 72.9909 58.8513 73.2311 58.9548 73.4765C59.21 74.0836 59.4365 74.7028 59.6782 75.3152C60.1826 76.5928 60.434 77.2324 60.5352 77.5752C60.7059 78.1559 60.6787 78.1997 60.9807 79.275C61.2231 80.1389 61.2337 80.0868 61.3447 80.5489C61.4663 81.0578 61.5101 81.3576 61.6943 81.8613C61.7479 82.0078 61.8272 82.223 61.9624 82.4888C62.0673 82.6949 62.2259 82.9728 62.5846 83.4372C63.2083 84.2444 63.7943 84.7851 64.0208 84.989C64.2511 85.1951 64.4882 85.4065 64.8394 85.6542C65.3128 85.9887 65.7017 86.1828 66.142 86.401C66.6282 86.6412 66.9899 86.7869 67.6114 87.0376Z" fill="#6C8F99"/>
</g>
<mask id="mask20_1631_21260" style="mask-type:luminance" maskUnits="userSpaceOnUse" x="-16" y="1" width="108" height="108">
<path d="M91.048 1H-15.9761V108.024H91.048V1Z" fill="white"/>
</mask>
<g mask="url(#mask20_1631_21260)">
<path d="M37.4218 27.4048C36.1615 27.6434 34.3417 27.8783 31.9736 27.8239C32.6011 27.6299 33.3585 27.3414 34.1446 26.9125C34.7419 26.587 35.1912 26.2691 35.3611 26.146C35.5831 25.986 35.7885 25.8251 35.9788 25.6665C35.9788 25.6665 36.1245 25.5299 37.4799 25.1523C37.9942 25.0088 38.1724 24.9575 38.4993 24.8782C38.8618 24.7899 39.185 24.7211 39.4561 24.6675C39.9469 24.5037 40.4589 24.4395 40.9671 24.367C42.5422 24.1405 44.1287 24.1314 45.7152 24.1624C46.5874 24.179 47.3825 24.2394 47.7707 24.2651C48.4465 24.3104 48.7969 24.3443 49.5716 24.4078C50.1938 24.4584 51.0788 24.5271 52.1639 24.5973C52.9772 24.6758 54.0638 24.808 55.3354 25.0406C56.2657 25.2112 57.2293 25.3872 58.3045 25.7126C60.508 26.3779 62.0628 27.3278 63.1448 27.9983C64.464 28.8161 65.3196 29.5161 66.9189 30.824C69.7264 33.1203 69.2084 33.155 70.4657 33.8679C71.1959 34.2817 71.9382 34.592 72.1579 35.3403C72.352 36.0026 72.099 36.8755 71.6399 37.025C71.2744 37.1443 70.8584 36.7781 70.5963 36.5538C69.4002 35.5314 67.9942 34.7816 66.7415 33.8286C66.0596 33.3098 65.0387 32.6046 63.6621 31.9038C63.0882 31.4681 62.2372 30.8814 61.1309 30.3294C60.7511 30.1399 60.2588 29.9126 58.1852 29.1907C55.9697 28.4197 54.862 28.0338 53.5511 27.7122C52.352 27.4177 51.3212 27.2379 50.5487 27.1247C50.0806 27.0688 49.6011 27.0182 49.111 26.9729C48.7063 26.9359 48.3083 26.9034 47.9172 26.8762C47.7933 26.8846 47.6091 26.8959 47.3856 26.9057C45.6216 26.9827 44.7449 26.8272 43.394 26.7909C42.1511 26.7577 41.2019 26.8453 40.5593 26.9057C39.1148 27.0424 38.2003 27.2568 37.4218 27.4048Z" fill="#CEAFB0"/>
</g>
<mask id="mask21_1631_21260" style="mask-type:luminance" maskUnits="userSpaceOnUse" x="-16" y="1" width="108" height="108">
<path d="M91.048 1H-15.9761V108.024H91.048V1Z" fill="white"/>
</mask>
<g mask="url(#mask21_1631_21260)">
<path d="M50.0815 69.1668C50.0317 69.1268 50.1396 68.8972 50.3209 68.5393C50.3843 68.4139 50.4379 68.3113 50.4742 68.2425C50.7694 67.8106 51.0752 67.5358 51.298 67.3666C51.8681 66.9309 52.4971 66.7383 53.7317 66.3714C54.0285 66.283 54.1697 66.2407 54.4151 66.1788C55.5214 65.8987 56.5966 65.5279 57.65 65.0892C58.6113 64.689 59.5046 64.1649 60.3919 63.628C61.3622 63.0564 62.2434 62.3708 63.0355 61.5711C63.1835 61.4223 63.3089 61.2539 63.3497 61.0334C63.848 60.7571 64.3464 60.4815 64.8448 60.2051C64.8652 60.3304 64.8863 60.4565 64.9075 60.5826C64.9709 60.9564 65.0373 61.3249 65.1068 61.6881C65.2548 61.9177 65.5327 62.367 65.8159 62.9613C68.7042 69.0233 65.806 76.8645 65.7162 77.3968C65.7162 77.3968 65.908 79.1517 66.8255 81.3982C67.2846 82.5225 67.7263 83.4551 68.2428 84.4073C68.791 85.4184 69.0749 85.9342 69.565 86.4627C70.7339 87.7238 71.9776 87.9964 71.921 88.1587C71.847 88.3687 69.7508 87.9866 67.5458 87.0774C66.1104 86.4854 64.8954 85.984 63.6623 84.7796C62.6074 83.7489 62.0863 82.7393 61.5744 81.7093C59.3732 77.2828 60.5421 73.7186 58.6838 72.9069C57.9785 72.5988 57.3676 72.9076 56.4932 72.2703C55.7894 71.7569 55.8793 71.3325 55.2435 70.5464C53.9167 68.9055 51.4513 68.1882 50.5512 68.8557C50.4145 68.9561 50.1419 69.2166 50.0815 69.1668Z" fill="#A8BCC2"/>
</g>
<mask id="mask22_1631_21260" style="mask-type:luminance" maskUnits="userSpaceOnUse" x="-16" y="1" width="108" height="108">
<path d="M91.048 1H-15.9761V108.024H91.048V1Z" fill="white"/>
</mask>
<g mask="url(#mask22_1631_21260)">
<path d="M68.918 15.7828C68.8523 15.7474 68.7867 15.7119 68.6719 15.6499C68.8395 15.6197 68.9347 15.6673 69.026 15.73C68.9898 15.7474 68.9535 15.7655 68.918 15.7828Z" fill="#4E8AA6"/>
</g>
<mask id="mask23_1631_21260" style="mask-type:luminance" maskUnits="userSpaceOnUse" x="-16" y="1" width="108" height="108">
<path d="M91.048 1H-15.9761V108.024H91.048V1Z" fill="white"/>
</mask>
<g mask="url(#mask23_1631_21260)">
<path d="M66.3774 16.1402C66.3857 16.3206 66.311 16.4316 66.1199 16.4369C65.9787 16.4407 65.7492 16.2194 65.7899 16.0911C65.8247 15.9823 65.8436 15.8223 66.0376 15.8283C66.2558 15.8343 66.3721 15.9287 66.3774 16.1402Z" fill="#FDEEC4"/>
</g>
<mask id="mask24_1631_21260" style="mask-type:luminance" maskUnits="userSpaceOnUse" x="-16" y="1" width="108" height="108">
<path d="M91.048 1H-15.9761V108.024H91.048V1Z" fill="white"/>
</mask>
<g mask="url(#mask24_1631_21260)">
<path d="M37.7336 38.6874C38.2803 38.5862 39.2635 38.405 40.4097 38.7992C41.5235 39.1828 42.185 39.9009 42.4553 40.2029C44.4171 42.3867 43.8818 45.4472 43.7934 45.9501C43.5971 47.073 43.1923 47.8024 43.0813 47.9935C42.6902 48.6716 42.1601 49.2613 41.4986 49.7672C40.6423 50.4219 39.6523 50.8123 38.5484 50.8403C37.273 50.7602 36.0014 50.5118 34.7199 50.767C34.2465 50.881 33.804 51.066 33.4007 51.3409C32.9454 51.6505 32.8488 51.5757 32.7657 51.5886C31.9154 51.7222 31.1127 50.8259 30.9897 50.6847C30.1885 49.7619 30.1892 48.5938 30.19 47.7518C30.1907 46.4394 30.5811 45.457 30.8288 44.8499C31.2207 43.8894 31.7048 43.1728 32.0642 42.7084C32.5271 42.0794 34.692 39.2492 37.7336 38.6874Z" fill="#4D4D4D"/>
</g>
<mask id="mask25_1631_21260" style="mask-type:luminance" maskUnits="userSpaceOnUse" x="-16" y="1" width="108" height="108">
<path d="M91.048 1H-15.9761V108.024H91.048V1Z" fill="white"/>
</mask>
<g mask="url(#mask25_1631_21260)">
<path d="M46.1646 48.0452C46.1639 47.9591 46.1677 47.8964 46.1903 47.8474C46.2779 47.6548 46.4304 47.5166 46.6003 47.4033C47.693 46.6762 48.8823 46.3522 50.2007 46.5131C51.017 46.6127 51.7706 46.8581 52.4419 47.3339C52.8202 47.6019 52.9728 47.981 52.8542 48.3737C52.7674 48.6636 52.5393 48.8758 52.3521 49.0993C51.1847 50.494 49.0039 50.6571 47.6915 49.9549C47.5148 49.8605 47.3479 49.7525 47.1931 49.6309C46.8677 49.378 46.6713 49.1326 46.6192 49.0669C46.4644 48.8683 46.1692 48.4824 46.1646 48.0452Z" fill="#4D4D4D"/>
</g>
<mask id="mask26_1631_21260" style="mask-type:luminance" maskUnits="userSpaceOnUse" x="-16" y="1" width="108" height="108">
<path d="M91.048 1H-15.9761V108.024H91.048V1Z" fill="white"/>
</mask>
<g mask="url(#mask26_1631_21260)">
<path d="M38.7759 52.5419C38.8619 52.8054 38.9662 53.2268 38.948 53.7486C38.9405 53.9819 38.9178 54.4878 38.6415 55.061C38.5327 55.286 38.2458 55.8629 37.5979 56.2676C37.141 56.5531 36.7235 56.6173 36.3874 56.6678C35.4096 56.8166 34.628 56.5644 34.3229 56.4496C34.1976 56.402 33.5799 56.1627 32.9532 55.5971C32.5492 55.2324 32.223 54.9371 32.0531 54.4191C31.828 53.732 32.0304 53.1165 32.112 52.8787C32.1459 52.7805 32.2917 52.3743 32.6662 51.9386C33.4364 51.0437 34.4959 50.8142 34.807 50.7508C35.149 50.6813 36.799 50.3475 37.9905 51.4115C38.427 51.8011 38.6566 52.2474 38.7759 52.5419Z" fill="#CEAFB0"/>
</g>
<mask id="mask27_1631_21260" style="mask-type:luminance" maskUnits="userSpaceOnUse" x="-16" y="1" width="108" height="108">
<path d="M91.048 1H-15.9761V108.024H91.048V1Z" fill="white"/>
</mask>
<g mask="url(#mask27_1631_21260)">
<path d="M54.5247 50.9756C54.542 51.2384 54.4182 51.3796 54.3306 51.5268C53.6329 52.698 52.2706 53.3164 50.9265 53.0574C50.3353 52.9434 49.9298 52.5795 49.7191 52.0041C49.6179 52.0426 49.5817 52.1339 49.5333 52.2042C49.0969 52.8385 48.4694 53.108 47.7271 53.133C46.531 53.1737 45.5599 52.7388 44.8796 51.7277C44.8275 51.6507 44.7882 51.5653 44.7436 51.4838C44.7112 51.4256 44.7006 51.3698 44.7738 51.335C44.8546 51.2965 44.8765 51.363 44.9052 51.4136C45.2888 52.0984 45.868 52.5485 46.6073 52.7818C47.4364 53.0431 48.2496 53.0612 48.9912 52.51C49.1973 52.3559 49.3589 52.1566 49.5167 51.9572C49.6149 51.8334 49.67 51.8213 49.784 51.9504C50.0521 52.254 50.2983 52.5802 50.6909 52.7524C51.6212 53.1609 52.8951 52.8709 53.6872 52.0577C53.9908 51.7466 54.2762 51.4234 54.5247 50.9756Z" fill="#4D4D4D"/>
</g>
<mask id="mask28_1631_21260" style="mask-type:luminance" maskUnits="userSpaceOnUse" x="-16" y="1" width="108" height="108">
<path d="M91.048 1H-15.9761V108.024H91.048V1Z" fill="white"/>
</mask>
<g mask="url(#mask28_1631_21260)">
<path d="M40.329 27.1787C40.2897 27.3539 40.1621 27.375 40.0088 27.3803C39.9053 27.3841 39.7694 27.3169 39.709 27.4732C39.4712 27.5019 39.2356 27.5631 38.9932 27.5268C39.0037 27.5042 39.0113 27.4649 39.0264 27.4619C39.4606 27.3652 39.8948 27.2723 40.329 27.1787Z" fill="#5691A5"/>
</g>
<mask id="mask29_1631_21260" style="mask-type:luminance" maskUnits="userSpaceOnUse" x="-16" y="1" width="108" height="108">
<path d="M91.048 1H-15.9761V108.024H91.048V1Z" fill="white"/>
</mask>
<g mask="url(#mask29_1631_21260)">
<path d="M61.0225 63.6888C60.2764 64.049 59.4337 64.4115 59.4337 64.4115C59.1241 64.5444 58.7843 64.6863 58.4113 64.8343C57.478 65.2051 56.1784 65.7216 54.4311 66.2449C52.5856 66.7969 51.872 66.8928 51.0686 67.632C50.7914 67.8865 50.3965 68.3313 50.0975 69.0781C49.9736 68.8591 49.7335 68.3562 49.8619 67.7785C49.8913 67.6471 49.954 67.4448 50.1133 67.2122C50.8405 66.1467 52.7728 65.3999 52.7728 65.3999C53.9916 64.8562 55.2542 64.4266 56.519 64.0045C57.2764 63.7923 58.3328 63.4479 59.541 62.8907C59.9366 62.7079 60.54 62.4172 61.4824 61.8705C62.5788 61.2347 64.1109 60.2674 65.9134 58.8682C66.0025 58.8946 66.2479 58.9814 66.4238 59.2276C66.5137 59.3522 66.5635 59.4881 66.5771 59.5727C66.6549 60.0537 65.8341 60.5929 65.6385 60.722C62.6785 62.6694 62.5546 62.9481 61.0225 63.6888Z" fill="#6C8F99"/>
</g>
<mask id="mask30_1631_21260" style="mask-type:luminance" maskUnits="userSpaceOnUse" x="-16" y="1" width="108" height="108">
<path d="M91.048 1H-15.9761V108.024H91.048V1Z" fill="white"/>
</mask>
<g mask="url(#mask30_1631_21260)">
<path d="M62.6876 86.5158C62.6808 86.3202 62.6499 86.1095 62.9232 86.0627C63.1754 86.0197 63.3197 86.1299 63.4035 86.4199C63.3469 86.583 63.2812 86.7249 63.0712 86.7446C62.8764 86.7627 62.773 86.663 62.6876 86.5158Z" fill="#F0F4F8"/>
</g>
<mask id="mask31_1631_21260" style="mask-type:luminance" maskUnits="userSpaceOnUse" x="-16" y="1" width="108" height="108">
<path d="M91.048 1H-15.9761V108.024H91.048V1Z" fill="white"/>
</mask>
<g mask="url(#mask31_1631_21260)">
<path d="M65.1913 87.1534C65.1928 87.463 65.0636 87.6027 64.8552 87.6065C64.6634 87.6103 64.5811 87.5023 64.5796 87.3226C64.5773 87.0991 64.7284 86.8997 64.8983 86.9095C65.1044 86.9224 65.1882 87.053 65.1913 87.1534Z" fill="#E5E9EE"/>
</g>
<mask id="mask32_1631_21260" style="mask-type:luminance" maskUnits="userSpaceOnUse" x="-16" y="1" width="108" height="108">
<path d="M91.048 1H-15.9761V108.024H91.048V1Z" fill="white"/>
</mask>
<g mask="url(#mask32_1631_21260)">
<path d="M51.769 26.0222C51.7781 25.7972 51.8891 25.5956 52.0877 25.4408C52.3105 25.2671 52.54 25.317 52.6435 25.5782C52.7431 25.8289 52.7371 26.0932 52.6533 26.3485C52.5725 26.5931 52.3641 26.5818 52.1662 26.5538C51.9707 26.5267 51.7713 26.2616 51.769 26.0222Z" fill="#FBF3F6"/>
</g>
<mask id="mask33_1631_21260" style="mask-type:luminance" maskUnits="userSpaceOnUse" x="-16" y="1" width="108" height="108">
<path d="M91.048 1H-15.9761V108.024H91.048V1Z" fill="white"/>
</mask>
<g mask="url(#mask33_1631_21260)">
<path d="M54.0559 79.3305C54.2696 79.5314 54.5565 79.8206 54.8631 80.1966C55.1055 80.4942 55.4921 80.9736 55.8364 81.6736C56.0637 82.1358 56.2525 82.5201 56.3356 83.0714C56.4526 83.8454 56.288 84.454 56.1498 84.9637C55.9165 85.8238 55.5518 86.4165 55.4264 86.6106C55.1433 87.0493 54.7423 87.6723 53.9721 88.1389C53.6141 88.3557 52.5396 89.0058 51.3722 88.6056C51.2582 88.5663 50.5212 88.3021 50.0606 87.5552C49.9662 87.402 49.686 86.9096 49.726 86.2851C49.7291 86.2361 49.7646 85.7316 49.9299 85.7029C50.0568 85.681 50.1104 85.9635 50.4336 86.2353C50.7666 86.5154 51.1389 86.5743 51.2514 86.591C51.598 86.6415 51.8668 86.5675 52.0458 86.5162C52.6861 86.332 53.078 85.9227 53.2434 85.746C53.6919 85.2665 53.8618 84.7681 53.957 84.4797C54.2016 83.7351 54.1676 83.0714 54.108 82.6583C54.0589 82.3842 54.0279 82.1063 53.9585 81.8383C53.8528 81.4297 53.4994 80.8324 52.9428 80.2661C52.8288 80.1498 52.6567 79.9844 52.4286 79.8017C52.1809 79.6144 51.8441 79.3396 51.4787 78.9703C51.1004 78.5882 50.6609 78.1382 50.2992 77.451C50.0372 76.9542 49.9246 76.5396 49.8438 76.2338C49.7804 75.9929 49.6362 75.3948 49.5463 73.057C49.5207 72.3955 49.5154 71.99 49.2775 71.5113C49.0532 71.059 48.7527 70.803 48.5292 70.6119C48.2354 70.3612 48.1184 70.3499 48.0542 70.3522C47.7771 70.3635 47.5566 70.5832 47.3376 70.8203C47.2372 70.9291 47.0831 71.0967 46.9706 71.3512C46.7841 71.7725 46.8272 72.169 46.8392 72.3185C46.8996 73.0623 46.6875 73.7751 46.3794 74.8111C46.0086 76.0571 45.4257 76.887 45.4219 76.8854C45.4196 76.8839 45.7337 76.4097 45.9437 75.6954C46.1226 75.0852 46.134 74.6088 46.1476 73.8416C46.1679 72.6636 46.0433 72.4355 46.1747 71.5943C46.2518 71.1013 46.3794 70.6369 46.7607 70.2903C46.9238 70.1415 47.0771 70.066 47.1775 70.0177C47.9032 69.6658 48.8864 69.7239 49.5003 70.1574C49.6717 70.2782 50.081 70.6165 50.081 70.6165C50.081 70.6165 50.2954 70.3982 50.6277 70.0894C50.7198 70.0041 51.046 69.7066 51.521 69.5782C51.7082 69.5276 51.8887 69.5253 52.2504 69.5208C52.5109 69.5178 52.7586 69.5389 53.2532 69.582C53.5688 69.6091 53.7002 69.6265 53.8671 69.6665C54.1103 69.7254 54.1495 69.847 54.4704 69.9867C54.7453 70.1068 54.8873 70.1158 54.8865 70.1551C54.885 70.2019 54.6894 70.2631 53.7772 70.3212C53.7772 70.3212 53.3076 70.2684 52.7639 70.2842C52.4769 70.2925 51.9952 70.3069 51.6131 70.5991C51.2959 70.8422 51.1902 71.1677 51.0528 71.5868C50.8421 72.2332 50.8497 72.7708 50.8617 73.2586C50.8776 73.9458 51.0362 74.4509 51.0807 74.898C51.151 75.6123 51.3949 76.1311 51.5436 76.4475C51.7271 76.8371 52.079 77.4465 52.7563 78.0513C53.1966 78.4712 53.667 78.8593 54.0559 79.3305Z" fill="#CEAFB0"/>
</g>
<mask id="mask34_1631_21260" style="mask-type:luminance" maskUnits="userSpaceOnUse" x="-16" y="1" width="108" height="108">
<path d="M91.048 1H-15.9761V108.024H91.048V1Z" fill="white"/>
</mask>
<g mask="url(#mask34_1631_21260)">
<path d="M56.177 39.6322C56.5221 39.3075 57.1089 38.7684 58.0346 38.5215C59.0268 38.2572 59.8469 38.4784 60.5054 38.6559C61.6539 38.9655 62.406 39.4933 63.2057 40.0544C63.8233 40.4878 64.6691 41.0904 65.5231 42.1422C65.7059 42.3673 66.5674 43.4486 67.1897 45.1106C67.4207 45.7283 67.6442 46.3384 67.7258 47.1985C67.8504 48.5086 67.5582 49.4797 67.4577 49.784C67.1798 50.6282 66.8113 51.1002 66.7298 51.2014C66.3923 51.6242 66.2533 51.8916 66.0207 51.8908C65.8946 51.8908 65.8169 51.8228 65.5518 51.6326C65.317 51.4634 65.067 51.3154 64.8337 51.144C64.2983 50.7513 63.507 50.7392 62.4875 50.7226C62.1568 50.7174 62.3169 50.7355 60.8497 50.7702C60.1595 50.7868 59.9866 50.7861 59.7487 50.7702C59.264 50.7377 58.8064 50.7038 58.2642 50.5021C57.8723 50.3564 57.6125 50.188 57.2682 49.966C56.9518 49.7614 56.5501 49.4986 56.1287 49.0561C55.69 48.5955 55.4476 48.1703 55.3049 47.9166C54.8193 47.0513 54.6608 46.2878 54.5769 45.8672C54.5392 45.6785 54.4078 44.9815 54.4335 44.0474C54.4501 43.4516 54.4705 42.7003 54.7974 41.7972C54.9462 41.3864 55.292 40.4651 56.177 39.6322Z" fill="#4D4D4D"/>
</g>
<mask id="mask35_1631_21260" style="mask-type:luminance" maskUnits="userSpaceOnUse" x="-16" y="1" width="108" height="108">
<path d="M91.048 1H-15.9761V108.024H91.048V1Z" fill="white"/>
</mask>
<g mask="url(#mask35_1631_21260)">
<path d="M63.9531 50.7129C64.3511 50.7846 64.8721 50.879 65.3705 51.2777C65.9277 51.724 66.1309 52.2918 66.2034 52.5032C66.4964 53.3565 66.2895 54.0928 66.2222 54.3034C65.8621 55.4376 64.9053 55.9496 64.5663 56.1316C64.2959 56.2766 63.7583 56.5469 63.0319 56.5333C62.1038 56.5159 61.4363 56.0493 60.978 55.2836C60.7733 54.9423 60.6359 54.5927 60.5574 54.237C60.4796 53.8806 60.3014 53.0854 60.6925 52.242C60.9802 51.622 61.4416 51.2618 61.7112 51.0866C61.9558 50.9417 62.3885 50.7287 62.9654 50.6653C63.4057 50.6162 63.7424 50.6744 63.9531 50.7129Z" fill="#CEAFB0"/>
</g>
<mask id="mask36_1631_21260" style="mask-type:luminance" maskUnits="userSpaceOnUse" x="-16" y="1" width="108" height="108">
<path d="M91.048 1H-15.9761V108.024H91.048V1Z" fill="white"/>
</mask>
<g mask="url(#mask36_1631_21260)">
<path d="M41.2852 44.7273C41.3501 45.1395 41.3109 45.4695 41.2852 45.6273C41.2542 45.8199 41.1953 46.1657 40.9778 46.5259C40.6509 47.0681 40.1721 47.3188 39.898 47.4434C38.9919 47.8557 38.0593 47.8784 37.1298 47.491C36.4683 47.2146 36.0922 46.6883 35.8831 46.0313C35.7487 45.61 35.7464 45.1743 35.8272 44.7386C35.9427 44.1692 36.1315 43.6338 36.5272 43.1891C36.867 42.8077 37.2732 42.5329 37.7641 42.3864C38.0004 42.3214 38.4188 42.2407 38.9292 42.323C39.0976 42.3501 39.5771 42.4438 40.0785 42.7919C40.2159 42.8878 40.5708 43.1528 40.8684 43.6233C41.1613 44.0884 41.2527 44.5203 41.2852 44.7273Z" fill="#D3D1CD"/>
</g>
<mask id="mask37_1631_21260" style="mask-type:luminance" maskUnits="userSpaceOnUse" x="-16" y="1" width="108" height="108">
<path d="M91.048 1H-15.9761V108.024H91.048V1Z" fill="white"/>
</mask>
<g mask="url(#mask37_1631_21260)">
<path d="M59.7585 42.257C60.2003 42.2434 60.5446 42.3552 60.6911 42.4095C61.225 42.6066 61.5421 42.9358 61.6984 43.102C62.1251 43.5543 62.3101 44.0406 62.3931 44.326C62.4784 44.5865 62.6491 45.2261 62.4407 45.988C62.3841 46.1957 62.2323 46.7258 61.7913 47.16C60.8723 48.0623 59.1529 48.1069 58.2226 47.3223C57.6027 46.799 57.2266 46.1028 57.1519 45.2714C57.1534 45.165 57.1541 45.0585 57.1541 44.9505C57.1541 44.8637 57.1534 44.8002 57.1534 44.798C57.1534 44.7398 57.1987 43.8563 57.9062 43.1141C58.0353 42.9796 58.7202 42.288 59.7585 42.257Z" fill="#D3D1CD"/>
</g>
<mask id="mask38_1631_21260" style="mask-type:luminance" maskUnits="userSpaceOnUse" x="-16" y="1" width="108" height="108">
<path d="M91.048 1H-15.9761V108.024H91.048V1Z" fill="white"/>
</mask>
<g mask="url(#mask38_1631_21260)">
<path d="M59.2176 76.6896C59.2221 76.9161 59.0485 77.1154 58.8431 77.1192C58.6339 77.123 58.4081 76.8942 58.4044 76.6752C58.4006 76.4449 58.5637 76.2863 58.8068 76.2833C59.0666 76.2788 59.2123 76.4238 59.2176 76.6896Z" fill="#EEEEEF"/>
</g>
<mask id="mask39_1631_21260" style="mask-type:luminance" maskUnits="userSpaceOnUse" x="-16" y="1" width="108" height="108">
<path d="M91.048 1H-15.9761V108.024H91.048V1Z" fill="white"/>
</mask>
<g mask="url(#mask39_1631_21260)">
<path d="M37.8199 42.5943C38.9065 42.3142 39.7923 42.6653 40.5232 43.4702C40.8751 43.8584 41.0231 44.3477 41.1356 44.8476C41.1583 45.398 41.1069 45.9387 40.8192 46.4227C40.3798 47.1628 39.6601 47.452 38.8605 47.5962C38.4708 47.6664 38.085 47.6219 37.6961 47.5577C36.8013 47.4097 35.9721 46.4499 35.9283 45.4237C35.8785 44.2586 36.3467 43.1976 37.8199 42.5943Z" fill="#111618"/>
</g>
<mask id="mask40_1631_21260" style="mask-type:luminance" maskUnits="userSpaceOnUse" x="-16" y="1" width="108" height="108">
<path d="M91.048 1H-15.9761V108.024H91.048V1Z" fill="white"/>
</mask>
<g mask="url(#mask40_1631_21260)">
<path d="M58.3116 43.0569C58.6688 42.8055 59.0509 42.6152 59.4881 42.5435C60.7378 42.3381 62.0124 43.4428 62.2337 44.3927C62.2488 44.4584 62.2737 44.5219 62.2933 44.5861C62.3462 45.0089 62.3779 45.4318 62.2646 45.8501C62.0071 46.8031 61.323 47.2599 60.4063 47.4434C60.2817 47.4683 60.1541 47.4834 60.0272 47.494C58.93 47.5861 58.2263 47.198 57.74 46.205C57.3594 45.4288 57.2786 44.6298 57.6516 43.8234C57.7981 43.5093 58.0579 43.2827 58.3116 43.0569Z" fill="#111618"/>
</g>
<mask id="mask41_1631_21260" style="mask-type:luminance" maskUnits="userSpaceOnUse" x="-16" y="1" width="108" height="108">
<path d="M91.048 1H-15.9761V108.024H91.048V1Z" fill="white"/>
</mask>
<g mask="url(#mask41_1631_21260)">
<path d="M38.7402 43.3756C38.7341 43.5523 38.642 43.6829 38.5016 43.7728C38.2728 43.9192 38.0274 44.037 37.7646 44.1095C37.6302 44.1465 37.4859 44.1465 37.3893 44.025C37.304 43.9177 37.3115 43.7909 37.3576 43.6625C37.5093 43.2411 38.1263 42.9542 38.5371 43.1181C38.682 43.1762 38.7425 43.2525 38.7402 43.3756Z" fill="white"/>
</g>
<mask id="mask42_1631_21260" style="mask-type:luminance" maskUnits="userSpaceOnUse" x="-16" y="1" width="108" height="108">
<path d="M91.048 1H-15.9761V108.024H91.048V1Z" fill="white"/>
</mask>
<g mask="url(#mask42_1631_21260)">
<path d="M38.3288 45.1558C38.0509 45.1581 37.8335 44.9912 37.8259 44.7707C37.8176 44.5328 38.0426 44.3191 38.3016 44.3184C38.6007 44.3176 38.8121 44.4868 38.8121 44.7261C38.8121 44.9927 38.6309 45.1535 38.3288 45.1558Z" fill="white"/>
</g>
<mask id="mask43_1631_21260" style="mask-type:luminance" maskUnits="userSpaceOnUse" x="-16" y="1" width="108" height="108">
<path d="M91.048 1H-15.9761V108.024H91.048V1Z" fill="white"/>
</mask>
<g mask="url(#mask43_1631_21260)">
<path d="M59.4231 43.0762C59.5205 43.0943 59.6421 43.0875 59.7478 43.1555C59.9441 43.2808 60.0355 43.5187 59.9547 43.7044C59.8686 43.9045 59.5847 44.0442 59.3785 43.9559C59.2691 43.9091 59.2373 43.9249 59.1671 44.0118C59.0274 44.1869 58.8303 44.159 58.6559 44.0775C58.4717 43.9914 58.4936 43.8154 58.5366 43.6561C58.628 43.3148 58.9889 43.0777 59.4231 43.0762Z" fill="white"/>
</g>
<mask id="mask44_1631_21260" style="mask-type:luminance" maskUnits="userSpaceOnUse" x="-16" y="1" width="108" height="108">
<path d="M91.048 1H-15.9761V108.024H91.048V1Z" fill="white"/>
</mask>
<g mask="url(#mask44_1631_21260)">
<path d="M59.1839 44.4256C59.3976 44.4211 59.5811 44.449 59.7518 44.5329C59.9421 44.6265 59.9723 44.7488 59.8499 44.9202C59.6385 45.2177 59.1545 45.2827 58.8758 45.0463C58.7611 44.9497 58.6795 44.8319 58.7384 44.6695C58.8207 44.4475 58.9936 44.3932 59.1839 44.4256Z" fill="white"/>
</g>
<mask id="mask45_1631_21260" style="mask-type:luminance" maskUnits="userSpaceOnUse" x="-16" y="1" width="108" height="108">
<path d="M91.048 1H-15.9761V108.024H91.048V1Z" fill="white"/>
</mask>
<g mask="url(#mask45_1631_21260)">
<path d="M58.5071 79.4905C58.52 79.5056 58.5366 79.5192 58.5524 79.5313C58.6128 79.5789 58.6732 79.6265 58.7337 79.674C58.7608 79.6959 58.7888 79.7178 58.8077 79.7465C58.8877 79.8689 58.8182 80.0576 58.8084 80.1905C58.8016 80.2781 58.89 80.2698 58.9406 80.2419C59.0395 80.1868 59.1308 80.1188 59.2245 80.0554C59.2396 80.0448 59.2562 80.0342 59.2743 80.0312C59.2977 80.0274 59.3204 80.0365 59.3423 80.0456C59.4419 80.0871 59.5416 80.1279 59.6413 80.1694C59.6972 80.1928 59.7984 80.1913 59.7734 80.0992C59.7425 79.9844 59.7108 79.8696 59.6791 79.7548C59.6723 79.7314 59.6662 79.7073 59.6715 79.6839C59.6768 79.662 59.6919 79.6446 59.7062 79.6272L59.9116 79.3886C59.9373 79.3584 59.9652 79.3199 59.9517 79.2829C59.9124 79.1757 59.6051 79.218 59.5205 79.2187C59.5039 79.2187 59.4857 79.2195 59.4706 79.2119C59.4495 79.2021 59.4359 79.1817 59.4238 79.1613C59.3664 79.0677 59.309 78.974 59.2517 78.8804C59.2313 78.8479 59.2033 78.8109 59.1656 78.8147C59.1369 78.8177 59.1165 78.8427 59.1014 78.8676C59.041 78.9635 59.0259 79.073 58.9874 79.1779C58.9776 79.2036 58.9677 79.2308 58.9489 79.2512C58.8937 79.3093 58.5947 79.3524 58.5343 79.3675C58.4814 79.3803 58.4694 79.4309 58.4981 79.4754C58.4996 79.4807 58.5033 79.4853 58.5071 79.4905Z" fill="#FDEEC4"/>
</g>
<mask id="mask46_1631_21260" style="mask-type:luminance" maskUnits="userSpaceOnUse" x="-16" y="1" width="108" height="108">
<path d="M91.048 1H-15.9761V108.024H91.048V1Z" fill="white"/>
</mask>
<g mask="url(#mask46_1631_21260)">
<path d="M59.6104 82.4335C59.6097 82.4486 59.6119 82.4645 59.6142 82.4796C59.6225 82.5377 59.6308 82.5951 59.6391 82.6533C59.6429 82.6797 59.6467 82.7061 59.6421 82.7318C59.6225 82.8405 59.4851 82.9093 59.4103 82.9765C59.3605 83.021 59.4133 83.0633 59.4564 83.0739C59.5395 83.095 59.6255 83.1056 59.7109 83.1199C59.7252 83.1222 59.7396 83.1245 59.7509 83.1328C59.7652 83.1426 59.7735 83.16 59.7803 83.1758C59.8136 83.2506 59.8468 83.3261 59.88 83.4008C59.8989 83.4424 59.9548 83.4952 59.9895 83.431C60.0325 83.3518 60.0748 83.2717 60.1179 83.1917C60.1262 83.1758 60.136 83.1585 60.1511 83.1486C60.1654 83.1396 60.1828 83.1373 60.2002 83.1358C60.2795 83.1275 60.3588 83.1199 60.438 83.1116C60.4682 83.1086 60.5037 83.1018 60.5151 83.0739C60.5498 82.9938 60.358 82.8564 60.3104 82.8126C60.3006 82.8043 60.2915 82.7945 60.2863 82.7832C60.2795 82.7665 60.2832 82.7484 60.287 82.7311C60.3044 82.6495 60.3218 82.5679 60.3391 82.4856C60.3452 82.4569 60.3489 82.4222 60.3263 82.4041C60.3089 82.3905 60.2848 82.3935 60.2629 82.3988C60.1798 82.4207 60.1133 82.4728 60.0371 82.5098C60.0182 82.5189 59.9986 82.5287 59.9774 82.5294C59.9163 82.5325 59.729 82.4003 59.6882 82.3769C59.652 82.3565 59.6195 82.3784 59.6119 82.4177C59.6112 82.4237 59.6104 82.4283 59.6104 82.4335Z" fill="#FDEEC4"/>
</g>
<mask id="mask47_1631_21260" style="mask-type:luminance" maskUnits="userSpaceOnUse" x="-16" y="1" width="108" height="108">
<path d="M91.048 1H-15.9761V108.024H91.048V1Z" fill="white"/>
</mask>
<g mask="url(#mask47_1631_21260)">
<path d="M61.0096 84.9259C61.0043 84.935 61.0013 84.9456 60.9982 84.9554C60.9869 84.9939 60.9748 85.0316 60.9635 85.0702C60.9582 85.0875 60.9529 85.1049 60.9424 85.12C60.8986 85.1819 60.7936 85.1842 60.7279 85.2038C60.6841 85.2174 60.7045 85.2582 60.7279 85.2771C60.7732 85.3141 60.8231 85.3458 60.8721 85.379C60.8797 85.3843 60.8887 85.3903 60.8933 85.3986C60.8993 85.4092 60.8993 85.422 60.8993 85.4341C60.8978 85.49 60.8971 85.5459 60.8955 85.6025C60.8948 85.6335 60.9144 85.6826 60.9544 85.6531C61.0043 85.6161 61.0534 85.5791 61.1032 85.5421C61.113 85.5346 61.1243 85.527 61.1364 85.5255C61.1478 85.524 61.1591 85.5278 61.1704 85.5315C61.2218 85.5497 61.2731 85.5678 61.3244 85.5859C61.3441 85.5927 61.3675 85.5987 61.3833 85.5852C61.4279 85.5459 61.3494 85.4054 61.3328 85.3639C61.3297 85.3556 61.326 85.3473 61.3267 85.3382C61.3275 85.3261 61.335 85.3156 61.3426 85.3058C61.3773 85.2604 61.4113 85.2144 61.446 85.1691C61.4581 85.1532 61.4702 85.1328 61.4619 85.1147C61.4551 85.1011 61.4392 85.0958 61.4241 85.0936C61.366 85.0822 61.3101 85.0958 61.252 85.0966C61.2376 85.0966 61.2225 85.0973 61.2097 85.0913C61.1712 85.0754 61.0934 84.9388 61.0753 84.9123C61.0586 84.8889 61.0322 84.8927 61.0164 84.9154C61.0126 84.9206 61.0111 84.9229 61.0096 84.9259Z" fill="#FDEEC4"/>
</g>
<mask id="mask48_1631_21260" style="mask-type:luminance" maskUnits="userSpaceOnUse" x="-16" y="1" width="108" height="108">
<path d="M91.048 1H-15.9761V108.024H91.048V1Z" fill="white"/>
</mask>
<g mask="url(#mask48_1631_21260)">
<path d="M50.308 18.2948C50.2446 18.325 50.1872 18.3681 50.1306 18.4103C49.9176 18.5697 49.7047 18.729 49.491 18.8876C49.3943 18.9593 49.2961 19.0326 49.1821 19.0703C48.7034 19.2281 48.1325 18.8272 47.6991 18.6761C47.4121 18.5757 47.3608 18.8763 47.4106 19.0711C47.508 19.4501 47.6507 19.8179 47.7799 20.1864C47.801 20.2475 47.8229 20.3102 47.8161 20.3744C47.8078 20.4544 47.7565 20.5232 47.7074 20.5873L47.0263 21.4754C46.8994 21.6407 46.8126 21.9805 47.1441 21.979C47.5556 21.9775 47.9664 21.9753 48.3779 21.9715C48.4617 21.9707 48.5493 21.9707 48.6226 22.0107C48.6905 22.0477 48.7366 22.1134 48.7804 22.1776C48.985 22.4774 49.1897 22.7764 49.3943 23.0762C49.4713 23.1895 49.5755 23.3156 49.7122 23.3035C50.1064 23.268 50.2393 22.2048 50.3103 21.9194C50.3246 21.8627 50.3397 21.8038 50.3767 21.7585C50.4273 21.6959 50.5096 21.6702 50.5866 21.6468C50.9506 21.538 51.3146 21.4301 51.6785 21.3213C51.8046 21.2836 51.9534 21.2232 51.9753 21.0925C51.9919 20.9944 51.9255 20.9022 51.8575 20.8297C51.5909 20.5436 51.2376 20.3925 50.9227 20.1713C50.8441 20.1162 50.7641 20.0588 50.7135 19.9765C50.5685 19.7394 50.6908 18.7026 50.6954 18.4881C50.6992 18.2986 50.5406 18.214 50.3661 18.2699C50.3473 18.2774 50.3276 18.2858 50.308 18.2948Z" fill="#FDEEC4"/>
</g>
<mask id="mask49_1631_21260" style="mask-type:luminance" maskUnits="userSpaceOnUse" x="-16" y="1" width="108" height="108">
<path d="M91.048 1H-15.9761V108.024H91.048V1Z" fill="white"/>
</mask>
<g mask="url(#mask49_1631_21260)">
<path d="M60.5746 14.6794C60.512 14.7398 60.4606 14.8123 60.4108 14.8848C60.222 15.1551 60.0332 15.4262 59.8445 15.6966C59.7591 15.8189 59.6715 15.9435 59.5515 16.0326C59.0493 16.4049 58.221 16.1564 57.6523 16.1466C57.2755 16.1406 57.3322 16.5144 57.4673 16.7243C57.7294 17.1328 58.0412 17.5088 58.3372 17.8932C58.3863 17.9566 58.4362 18.0223 58.4535 18.1001C58.4754 18.1983 58.4422 18.2987 58.409 18.3938C58.2572 18.831 58.1054 19.2675 57.9536 19.7047C57.8691 19.9486 57.8993 20.3821 58.2889 20.2514C58.7722 20.0891 59.2555 19.926 59.738 19.7606C59.8361 19.7274 59.9396 19.6934 60.0415 19.7115C60.1359 19.7289 60.216 19.7885 60.2922 19.8467C60.6502 20.1193 61.0081 20.3919 61.3653 20.6645C61.5004 20.7672 61.6726 20.8759 61.8281 20.8079C62.2774 20.6124 62.0199 19.309 61.9928 18.9458C61.9875 18.8733 61.9822 18.7986 62.0079 18.7306C62.0434 18.637 62.1294 18.5743 62.2117 18.5169C62.5976 18.2473 62.9842 17.9778 63.3701 17.7082C63.5045 17.6146 63.6548 17.4854 63.6298 17.3231C63.611 17.2008 63.497 17.1192 63.389 17.0595C62.9638 16.827 62.4889 16.7869 62.032 16.6488C61.918 16.614 61.801 16.5778 61.7096 16.5015C61.4461 16.2788 61.1863 15.0117 61.1078 14.7564C61.0383 14.5322 60.8193 14.4944 60.6358 14.6281C60.6132 14.6439 60.5935 14.6605 60.5746 14.6794Z" fill="#FDEEC4"/>
</g>
<mask id="mask50_1631_21260" style="mask-type:luminance" maskUnits="userSpaceOnUse" x="-16" y="1" width="108" height="108">
<path d="M91.048 1H-15.9761V108.024H91.048V1Z" fill="white"/>
</mask>
<g mask="url(#mask50_1631_21260)">
<path d="M40.6695 70.9815C41.0003 70.5911 41.2706 70.3177 41.7954 69.9326C42.845 73.6093 43.5526 78.1792 41.9495 81.1499C40.0828 78.1981 38.2803 73.8018 40.6695 70.9815Z" fill="#272727"/>
</g>
<mask id="mask51_1631_21260" style="mask-type:luminance" maskUnits="userSpaceOnUse" x="-16" y="1" width="108" height="108">
<path d="M91.048 1H-15.9761V108.024H91.048V1Z" fill="white"/>
</mask>
<g mask="url(#mask51_1631_21260)">
<path d="M34.0271 61.5963C34.0618 61.5932 34.1169 61.5902 34.1849 61.5963C34.5353 61.6295 34.8026 61.8787 35.0034 62.1279C36.1671 63.5694 36.5046 64.6258 36.5046 64.6258C37.2673 67.0142 37.5792 69.7613 37.666 70.5988C39.3514 70.518 40.6019 70.3224 41.798 69.9312C40.7506 73.515 41.4053 78.7208 41.952 81.1477C40.956 81.1711 39.5296 81.1251 37.8653 80.7815C35.526 80.299 31.357 79.4389 29.9291 76.5219C28.9822 74.5873 29.6882 72.4737 31.0972 68.2473C32.0585 65.3628 33.1866 63.1042 34.0271 61.5963Z" fill="#99B1B8"/>
</g>
<mask id="mask52_1631_21260" style="mask-type:luminance" maskUnits="userSpaceOnUse" x="-16" y="1" width="108" height="108">
<path d="M91.048 1H-15.9761V108.024H91.048V1Z" fill="white"/>
</mask>
<g mask="url(#mask52_1631_21260)">
<path d="M58.4527 70.9815C58.122 70.5911 57.8516 70.3177 57.3261 69.9326C56.2765 73.6093 55.5689 78.1792 57.172 81.1499C59.0394 78.1981 60.8419 73.8018 58.4527 70.9815Z" fill="#272727"/>
</g>
<mask id="mask53_1631_21260" style="mask-type:luminance" maskUnits="userSpaceOnUse" x="-16" y="1" width="108" height="108">
<path d="M91.048 1H-15.9761V108.024H91.048V1Z" fill="white"/>
</mask>
<g mask="url(#mask53_1631_21260)">
<path d="M65.0956 61.5963C65.0608 61.5932 65.0057 61.5902 64.9378 61.5963C64.5874 61.6295 64.3201 61.8787 64.1192 62.1279C62.9556 63.5694 62.6188 64.6258 62.6188 64.6258C61.8561 67.0142 61.545 69.7613 61.4574 70.5988C59.7728 70.518 58.5215 70.3224 57.3254 69.9312C58.3728 73.515 57.7181 78.7208 57.1714 81.1477C58.1674 81.1711 59.5938 81.1251 61.2581 80.7815C63.5974 80.299 67.7664 79.4389 69.1943 76.5219C70.1413 74.5873 69.4352 72.4737 68.0262 68.2473C67.0642 65.3628 65.936 63.1042 65.0956 61.5963Z" fill="#99B1B8"/>
</g>
<mask id="mask54_1631_21260" style="mask-type:luminance" maskUnits="userSpaceOnUse" x="-16" y="1" width="108" height="108">
<path d="M91.048 1H-15.9761V108.024H91.048V1Z" fill="white"/>
</mask>
<g mask="url(#mask54_1631_21260)">
<path d="M56.5066 80.2378C55.5702 81.7526 54.2201 82.8566 52.694 83.4939C50.3365 84.4771 47.5562 84.3487 45.2176 82.9034C41.3635 80.5218 40.1712 75.467 42.552 71.6144C43.1614 70.6282 43.9452 69.8165 44.8408 69.195C47.4407 67.3835 50.9731 67.1766 53.841 68.9489C57.6951 71.3305 58.8882 76.3837 56.5066 80.2378Z" fill="#DAE2DF"/>
</g>
<mask id="mask55_1631_21260" style="mask-type:luminance" maskUnits="userSpaceOnUse" x="-16" y="1" width="108" height="108">
<path d="M91.048 1H-15.9761V108.024H91.048V1Z" fill="white"/>
</mask>
<g mask="url(#mask55_1631_21260)">
<path d="M53.2982 70.7255C53.5859 71.0313 53.7777 71.3847 53.869 71.7344C54.0095 72.2743 53.9098 72.8059 53.5504 73.1449C52.9576 73.7029 51.8831 73.524 51.1514 72.7462C50.9641 72.5469 50.8176 72.3279 50.7126 72.1029C50.4076 71.4482 50.4582 70.7421 50.8992 70.3276C51.4919 69.7688 52.5657 69.947 53.2982 70.7255Z" fill="white"/>
</g>
<mask id="mask56_1631_21260" style="mask-type:luminance" maskUnits="userSpaceOnUse" x="-16" y="1" width="108" height="108">
<path d="M91.048 1H-15.9761V108.024H91.048V1Z" fill="white"/>
</mask>
<g mask="url(#mask56_1631_21260)">
<path d="M48.0145 82.014C44.1861 79.6482 43.0013 74.6275 45.3671 70.8005C45.9727 69.8211 46.7512 69.0147 47.6408 68.397C47.9859 68.1569 48.3483 67.9454 48.7228 67.7627C47.338 67.9009 45.9976 68.3879 44.8408 69.1936C43.9452 69.8151 43.1614 70.6269 42.552 71.613C40.1712 75.4656 41.3635 80.5204 45.2176 82.902C47.5562 84.3473 50.3365 84.4757 52.694 83.4925C52.9341 83.3921 53.1697 83.2788 53.4 83.1557C51.5915 83.4042 49.6886 83.0493 48.0145 82.014Z" fill="#BDCCC7"/>
</g>
<mask id="mask57_1631_21260" style="mask-type:luminance" maskUnits="userSpaceOnUse" x="-16" y="1" width="108" height="108">
<path d="M91.048 1H-15.9761V108.024H91.048V1Z" fill="white"/>
</mask>
<g mask="url(#mask57_1631_21260)">
<path d="M43.3632 79.4136C42.6602 79.5239 41.5902 79.1531 41.5894 79.1531C41.5894 79.1531 41.4709 78.7129 41.3689 78.003C41.2557 77.214 41.2526 76.5449 41.2496 75.2393C41.2481 74.5778 41.2473 74.1565 41.2753 73.5524C41.31 72.8131 41.3697 72.1834 41.4256 71.7024C41.6309 71.6216 42.8527 71.1602 43.9952 71.7907C44.8832 72.2808 45.1883 73.1348 45.4126 73.7638C45.5092 74.0357 46.0703 75.6901 45.2593 77.4412C45.0327 77.9298 44.4226 79.2475 43.3632 79.4136Z" fill="#4D4D4D"/>
</g>
<mask id="mask58_1631_21260" style="mask-type:luminance" maskUnits="userSpaceOnUse" x="-16" y="1" width="108" height="108">
<path d="M91.048 1H-15.9761V108.024H91.048V1Z" fill="white"/>
</mask>
<g mask="url(#mask58_1631_21260)">
<path d="M56.9751 72.4791C57.3096 72.4678 57.5905 72.4965 57.7929 72.5259C57.8699 73.5672 57.9009 74.7384 57.8443 76.0168C57.7899 77.2326 57.6645 78.3441 57.5075 79.3333C57.3655 79.405 55.9149 80.1118 54.6554 79.3793C53.3022 78.5933 53.3264 76.8187 53.3339 76.2622C53.34 75.8039 53.4374 74.0573 54.7558 73.1308C55.6197 72.5236 56.6987 72.4882 56.9751 72.4791Z" fill="#4D4D4D"/>
</g>
<mask id="mask59_1631_21260" style="mask-type:luminance" maskUnits="userSpaceOnUse" x="-16" y="1" width="108" height="108">
<path d="M91.048 1H-15.9761V108.024H91.048V1Z" fill="white"/>
</mask>
<g mask="url(#mask59_1631_21260)">
<path d="M55.9926 26.3481C55.979 26.3557 55.9677 26.3663 55.9564 26.3768C55.9133 26.4161 55.8696 26.4546 55.8265 26.4939C55.8069 26.5113 55.7865 26.5294 55.7631 26.5399C55.6619 26.5837 55.529 26.5082 55.4316 26.4841C55.3674 26.4682 55.3621 26.5347 55.3765 26.5762C55.4052 26.657 55.4437 26.734 55.4799 26.8118C55.486 26.8246 55.492 26.8382 55.4912 26.8518C55.4912 26.8692 55.4814 26.8858 55.4716 26.9009C55.4278 26.9704 55.3848 27.0391 55.341 27.1086C55.3168 27.1471 55.3047 27.2226 55.3772 27.2158C55.4671 27.2067 55.5562 27.1984 55.646 27.1893C55.6642 27.1871 55.683 27.1856 55.7004 27.1931C55.7163 27.1999 55.7276 27.2135 55.7382 27.2264C55.7888 27.2875 55.8393 27.3487 55.8899 27.4098C55.9088 27.4333 55.9345 27.4582 55.9639 27.4529C56.0493 27.437 56.0568 27.2029 56.0666 27.1388C56.0689 27.1259 56.0704 27.1131 56.078 27.1025C56.0878 27.0882 56.1051 27.0806 56.1218 27.0738C56.1988 27.0429 56.2758 27.0119 56.3536 26.9809C56.38 26.9704 56.4117 26.9538 56.4132 26.9251C56.4148 26.9032 56.3981 26.8843 56.3823 26.8699C56.3181 26.8133 56.2381 26.7876 56.1648 26.7453C56.1467 26.7348 56.1278 26.7242 56.115 26.7068C56.0787 26.6577 56.084 26.4297 56.081 26.3829C56.078 26.3414 56.0417 26.3262 56.0047 26.3421C56.0009 26.3436 55.9972 26.3459 55.9926 26.3481Z" fill="#FBF3F6"/>
</g>
<mask id="mask60_1631_21260" style="mask-type:luminance" maskUnits="userSpaceOnUse" x="-16" y="1" width="108" height="108">
<path d="M91.048 1H-15.9761V108.024H91.048V1Z" fill="white"/>
</mask>
<g mask="url(#mask60_1631_21260)">
<path d="M61.8477 28.5223C61.8304 28.5238 61.8138 28.5291 61.7971 28.5344C61.7345 28.5533 61.6718 28.5722 61.6091 28.5911C61.5804 28.5994 61.5517 28.6084 61.5223 28.6077C61.3984 28.6039 61.3003 28.4634 61.2127 28.3925C61.1545 28.3449 61.1175 28.4106 61.113 28.4597C61.1039 28.5556 61.1062 28.6522 61.1047 28.7481C61.1047 28.764 61.1039 28.7806 61.0972 28.7949C61.0888 28.8131 61.0707 28.8244 61.0541 28.835C60.9771 28.884 60.8993 28.9339 60.8223 28.983C60.7792 29.0101 60.7309 29.0819 60.8072 29.1091C60.9023 29.143 60.9975 29.177 61.0926 29.211C61.1123 29.2178 61.1319 29.2253 61.1455 29.2405C61.1583 29.2548 61.1628 29.2737 61.1681 29.2918C61.19 29.3786 61.2127 29.4647 61.2346 29.5508C61.2429 29.5833 61.2565 29.6218 61.2889 29.6301C61.3826 29.655 61.5026 29.4202 61.5434 29.3605C61.5517 29.3484 61.56 29.3364 61.5721 29.3288C61.5895 29.3182 61.6106 29.3197 61.6303 29.3205L61.9097 29.3371C61.9421 29.3394 61.9814 29.3371 61.9972 29.3092C62.0093 29.288 62.0018 29.2608 61.992 29.2382C61.9542 29.1498 61.8855 29.0849 61.8311 29.0079C61.8175 28.9882 61.8039 28.9686 61.7994 28.9452C61.7858 28.878 61.9013 28.6492 61.9202 28.5994C61.9368 28.5563 61.9074 28.5231 61.8628 28.5216C61.8583 28.5216 61.853 28.5216 61.8477 28.5223Z" fill="#FBF3F6"/>
</g>
<mask id="mask61_1631_21260" style="mask-type:luminance" maskUnits="userSpaceOnUse" x="-16" y="1" width="108" height="108">
<path d="M91.048 1H-15.9761V108.024H91.048V1Z" fill="white"/>
</mask>
<g mask="url(#mask61_1631_21260)">
<path d="M65.3891 30.9376C65.559 30.9406 65.7471 31.0516 65.7916 31.2442C65.8271 31.399 65.7584 31.5598 65.6383 31.6466C65.4571 31.778 65.1905 31.7161 65.0637 31.5507C65.0569 31.5424 64.924 31.3627 65.0063 31.1679C65.075 31.004 65.2494 30.9346 65.3891 30.9376Z" fill="#FBF3F6"/>
</g>
<mask id="mask62_1631_21260" style="mask-type:luminance" maskUnits="userSpaceOnUse" x="-16" y="1" width="108" height="108">
<path d="M91.048 1H-15.9761V108.024H91.048V1Z" fill="white"/>
</mask>
<g mask="url(#mask62_1631_21260)">
<path d="M37.3026 26.1063C37.289 26.1048 37.2754 26.1056 37.2618 26.1063C37.2112 26.1101 37.1607 26.1139 37.1093 26.1169C37.0866 26.1184 37.0632 26.1199 37.0406 26.1146C36.947 26.0905 36.8964 25.9674 36.8427 25.8979C36.8073 25.8519 36.768 25.8949 36.7552 25.9319C36.7317 26.0029 36.7166 26.0769 36.6993 26.1494C36.6963 26.1614 36.6932 26.1735 36.6857 26.1833C36.6759 26.1954 36.6608 26.2015 36.6464 26.2068C36.5792 26.2309 36.512 26.2551 36.4456 26.2792C36.4078 26.2928 36.3587 26.3381 36.4123 26.3721C36.4788 26.4144 36.5452 26.4559 36.6117 26.4982C36.6253 26.5065 36.6396 26.5156 36.6472 26.5299C36.654 26.5428 36.6547 26.5586 36.6555 26.573C36.6577 26.6425 36.6593 26.7119 36.6615 26.7814C36.6623 26.8078 36.666 26.8388 36.6895 26.8509C36.7567 26.8856 36.8881 26.7285 36.9288 26.69C36.9371 26.6825 36.9454 26.6742 36.956 26.6712C36.9704 26.6666 36.9862 26.6704 37.0013 26.6749C37.0708 26.6953 37.141 26.7149 37.2105 26.7353C37.2346 26.7421 37.2649 26.7482 37.2815 26.7293C37.2943 26.7149 37.2928 26.6938 37.2898 26.6749C37.2762 26.6017 37.2354 26.5405 37.2075 26.4726C37.2007 26.4559 37.1939 26.4378 37.1939 26.4197C37.1946 26.3668 37.3215 26.212 37.3441 26.1781C37.3645 26.1479 37.3472 26.1177 37.3139 26.1093C37.3109 26.1078 37.3064 26.1071 37.3026 26.1063Z" fill="#FBF3F6"/>
</g>
<mask id="mask63_1631_21260" style="mask-type:luminance" maskUnits="userSpaceOnUse" x="-16" y="1" width="108" height="108">
<path d="M91.048 1H-15.9761V108.024H91.048V1Z" fill="white"/>
</mask>
<g mask="url(#mask63_1631_21260)">
<path d="M39.8422 25.263C39.8287 25.2705 39.8173 25.2811 39.806 25.2917C39.763 25.3309 39.7192 25.3694 39.6761 25.4087C39.6565 25.4261 39.6361 25.4442 39.6127 25.4548C39.5115 25.4986 39.3786 25.423 39.2812 25.3989C39.217 25.383 39.2117 25.4495 39.2261 25.491C39.2548 25.5718 39.2933 25.6488 39.3295 25.7266C39.3356 25.7394 39.3416 25.753 39.3409 25.7666C39.3409 25.784 39.331 25.8006 39.3212 25.815C39.2774 25.8844 39.2344 25.9531 39.1906 26.0226C39.1664 26.0611 39.1543 26.1366 39.2268 26.1298C39.3167 26.1208 39.4058 26.1125 39.4956 26.1034C39.5138 26.1011 39.5327 26.0996 39.55 26.1072C39.5659 26.114 39.5772 26.1276 39.5878 26.1404C39.6384 26.2016 39.689 26.2627 39.7396 26.3239C39.7584 26.3473 39.7841 26.3722 39.8136 26.3669C39.8989 26.3511 39.9064 26.117 39.9162 26.0528C39.9185 26.04 39.92 26.0271 39.9276 26.0166C39.9374 26.0022 39.9548 25.9947 39.9714 25.9879C40.0484 25.9569 40.1254 25.926 40.2032 25.895C40.2296 25.8844 40.2613 25.8678 40.2629 25.8391C40.2644 25.8172 40.2477 25.7983 40.2319 25.784C40.1677 25.7274 40.0877 25.7017 40.0144 25.6594C39.9963 25.6488 39.9774 25.6383 39.9646 25.6209C39.9283 25.5718 39.9336 25.3438 39.9306 25.2969C39.9276 25.2554 39.8913 25.2403 39.8543 25.2562C39.8498 25.2584 39.846 25.2607 39.8422 25.263Z" fill="#FBF3F6"/>
</g>
<mask id="mask64_1631_21260" style="mask-type:luminance" maskUnits="userSpaceOnUse" x="-16" y="1" width="108" height="108">
<path d="M91.048 1H-15.9761V108.024H91.048V1Z" fill="white"/>
</mask>
<g mask="url(#mask64_1631_21260)">
<path d="M41.9457 25.1909C41.9751 25.1766 42.1518 25.089 42.2523 25.172C42.3255 25.2324 42.3157 25.3487 42.3097 25.4212C42.3036 25.493 42.2825 25.7489 42.099 25.8041C41.9344 25.8539 41.7184 25.7172 41.6965 25.536C41.6731 25.3351 41.9019 25.2128 41.9457 25.1909Z" fill="#FBF3F6"/>
</g>
<mask id="mask65_1631_21260" style="mask-type:luminance" maskUnits="userSpaceOnUse" x="-16" y="1" width="108" height="108">
<path d="M91.048 1H-15.9761V108.024H91.048V1Z" fill="white"/>
</mask>
<g mask="url(#mask65_1631_21260)">
<path d="M43.7844 25.3246C43.8456 25.3594 43.8902 25.4288 43.8418 25.4734C43.7912 25.5202 43.6674 25.5149 43.5926 25.4855C43.5051 25.4515 43.4507 25.3707 43.4967 25.3246C43.5466 25.2748 43.6999 25.277 43.7844 25.3246Z" fill="#FBF3F6"/>
</g>
<mask id="mask66_1631_21260" style="mask-type:luminance" maskUnits="userSpaceOnUse" x="-16" y="1" width="108" height="108">
<path d="M91.048 1H-15.9761V108.024H91.048V1Z" fill="white"/>
</mask>
<g mask="url(#mask66_1631_21260)">
<path d="M44.9527 24.9036C45.2329 24.8749 45.5273 25.044 45.5847 25.2675C45.6746 25.6179 45.1792 26.1087 44.7994 25.9955C44.5593 25.9237 44.3501 25.6058 44.4354 25.306C44.5057 25.0606 44.7435 24.9247 44.9527 24.9036Z" fill="#FBF3F6"/>
</g>
<mask id="mask67_1631_21260" style="mask-type:luminance" maskUnits="userSpaceOnUse" x="-16" y="1" width="108" height="108">
<path d="M91.048 1H-15.9761V108.024H91.048V1Z" fill="white"/>
</mask>
<g mask="url(#mask67_1631_21260)">
<path d="M48.3833 24.9382C48.3712 24.9533 48.3622 24.9707 48.3531 24.988C48.3199 25.053 48.2859 25.1187 48.2527 25.1836C48.2376 25.213 48.2217 25.2432 48.1983 25.2667C48.0986 25.3641 47.9091 25.3339 47.783 25.349C47.6999 25.3588 47.7234 25.4396 47.7596 25.4819C47.8298 25.5642 47.9099 25.6374 47.9861 25.7137C47.999 25.7258 48.0118 25.7394 48.0178 25.756C48.0254 25.7771 48.0209 25.7998 48.0171 25.8217C47.9967 25.9229 47.9763 26.0233 47.9559 26.1245C47.9446 26.1811 47.9642 26.2755 48.0458 26.2347C48.1477 26.1849 48.2489 26.1343 48.3509 26.0829C48.3712 26.0724 48.3931 26.0618 48.4166 26.0633C48.4377 26.0641 48.4573 26.0754 48.4755 26.086L48.7367 26.234C48.7692 26.2528 48.8107 26.271 48.8432 26.2521C48.9368 26.1955 48.8409 25.9161 48.8236 25.8368C48.8205 25.8209 48.8168 25.8043 48.8205 25.7884C48.8258 25.7665 48.8424 25.7507 48.859 25.7356L49.0901 25.5226C49.1173 25.4977 49.146 25.4653 49.1362 25.4298C49.1286 25.4033 49.1007 25.389 49.075 25.3792C48.9746 25.3407 48.8681 25.3459 48.7632 25.3293C48.7375 25.3248 48.7103 25.321 48.6876 25.3067C48.6227 25.2652 48.5276 24.9941 48.5026 24.9397C48.4807 24.8921 48.4309 24.8906 48.3947 24.9253C48.3909 24.9291 48.3871 24.9337 48.3833 24.9382Z" fill="#FBF3F6"/>
</g>
<mask id="mask68_1631_21260" style="mask-type:luminance" maskUnits="userSpaceOnUse" x="-16" y="1" width="108" height="108">
<path d="M91.048 1H-15.9761V108.024H91.048V1Z" fill="white"/>
</mask>
<g mask="url(#mask68_1631_21260)">
<path d="M59.0989 27.6733C59.1601 27.7224 59.2046 27.8213 59.1563 27.8855C59.1057 27.9527 58.9819 27.9451 58.9071 27.9029C58.8195 27.8538 58.7651 27.739 58.8112 27.6725C58.861 27.6023 59.0143 27.6053 59.0989 27.6733Z" fill="#FBF3F6"/>
</g>
<mask id="mask69_1631_21260" style="mask-type:luminance" maskUnits="userSpaceOnUse" x="-16" y="1" width="108" height="108">
<path d="M91.048 1H-15.9761V108.024H91.048V1Z" fill="white"/>
</mask>
<g mask="url(#mask69_1631_21260)">
<path d="M67.7351 32.8124C67.7298 32.8056 67.7238 32.7995 67.7178 32.7935C67.6944 32.7716 67.6702 32.7497 67.6468 32.7278C67.6362 32.718 67.6256 32.7074 67.6181 32.6953C67.5886 32.6417 67.6241 32.5654 67.6324 32.5103C67.6385 32.4741 67.6015 32.4741 67.5788 32.4846C67.5358 32.5043 67.4958 32.5292 67.4542 32.5526C67.4474 32.5564 67.4406 32.5601 67.4323 32.5609C67.4225 32.5617 67.4134 32.5571 67.4044 32.5526C67.3644 32.5322 67.3243 32.5118 67.2836 32.4907C67.2609 32.4793 67.2186 32.4763 67.2262 32.5156C67.2352 32.5647 67.2443 32.613 67.2541 32.6621C67.2564 32.6719 67.2579 32.6825 67.2549 32.6923C67.2519 32.7013 67.2451 32.7081 67.2383 32.7149L67.1446 32.8078C67.1325 32.8199 67.1205 32.8342 67.1242 32.8509C67.1371 32.8969 67.2662 32.8894 67.3017 32.8916C67.3085 32.8924 67.316 32.8924 67.3221 32.8962C67.3304 32.9007 67.3357 32.9098 67.3402 32.9188C67.3613 32.9596 67.3817 33.0004 67.4029 33.0419C67.4104 33.0563 67.4202 33.0721 67.4369 33.0721C67.4489 33.0721 67.458 33.0623 67.4656 33.0525C67.4935 33.0147 67.5041 32.9694 67.5237 32.9271C67.5282 32.9166 67.5335 32.906 67.5426 32.8977C67.5675 32.875 67.6936 32.8675 67.7193 32.8629C67.7419 32.8592 67.7487 32.8388 67.7381 32.8191C67.7381 32.8169 67.7366 32.8146 67.7351 32.8124Z" fill="#FBF3F6"/>
</g>
<mask id="mask70_1631_21260" style="mask-type:luminance" maskUnits="userSpaceOnUse" x="-16" y="1" width="108" height="108">
<path d="M91.048 1H-15.9761V108.024H91.048V1Z" fill="white"/>
</mask>
<g mask="url(#mask70_1631_21260)">
<path d="M71.2506 35.5449C71.246 35.5419 71.2407 35.5396 71.2355 35.5373L71.1751 35.5109C71.166 35.5071 71.1569 35.5026 71.1494 35.4966C71.1184 35.4686 71.1237 35.412 71.1169 35.375C71.1124 35.3508 71.089 35.3591 71.0769 35.3705C71.0535 35.3931 71.0338 35.418 71.0127 35.4422C71.0089 35.446 71.0052 35.4505 71.0006 35.4528C70.9946 35.455 70.9878 35.4543 70.981 35.4535C70.9508 35.4497 70.9206 35.4452 70.8896 35.4414C70.8723 35.4392 70.8451 35.4467 70.8587 35.4701C70.8753 35.4996 70.8926 35.5283 70.9093 35.5577C70.913 35.5638 70.916 35.5698 70.916 35.5766C70.916 35.5826 70.913 35.5887 70.9108 35.5947C70.8979 35.6212 70.8851 35.6483 70.8715 35.6755C70.867 35.6853 70.8617 35.6982 70.8685 35.7072C70.8874 35.7337 70.9682 35.6997 70.9916 35.6936C70.9961 35.6921 71.0014 35.6914 71.0059 35.6921C71.0127 35.6929 71.018 35.6982 71.0225 35.7027L71.0905 35.7676C71.098 35.7752 71.1086 35.7835 71.1192 35.7797C71.1267 35.7767 71.1305 35.7684 71.1328 35.7608C71.1426 35.7299 71.1388 35.6989 71.1418 35.6672C71.1426 35.6597 71.1433 35.6514 71.1471 35.6446C71.1577 35.6242 71.237 35.5909 71.2521 35.5826C71.2657 35.5751 71.2657 35.5607 71.2543 35.5502C71.2528 35.5472 71.2521 35.5456 71.2506 35.5449Z" fill="#FBF3F6"/>
</g>
<mask id="mask71_1631_21260" style="mask-type:luminance" maskUnits="userSpaceOnUse" x="-16" y="1" width="108" height="108">
<path d="M91.048 1H-15.9761V108.024H91.048V1Z" fill="white"/>
</mask>
<g mask="url(#mask71_1631_21260)">
<path d="M85.3754 22.8591C86.0905 21.771 84.754 19.8417 83.3698 20.0486C82.0446 20.2464 81.3295 21.5573 81.7886 22.6122C80.634 21.8005 78.5552 22.2128 78.7795 23.9072C78.8331 24.3105 79.0105 24.6578 79.2597 24.9319C78.7878 25.7663 79.5467 27.6352 80.7103 26.8182C79.9393 27.8248 82.4441 28.8986 83.1373 27.8089C84.4927 28.416 86.2861 28.2099 85.4222 26.3463C85.4003 26.2994 85.3822 26.2526 85.3603 26.2096C86.9355 26.1288 87.0435 22.6417 85.3754 22.8591Z" fill="#CEAFB0"/>
</g>
</g>
</g>
<defs>
<clipPath id="clip0_1631_21260">
<rect width="100" height="100" fill="white"/>
</clipPath>
<clipPath id="clip1_1631_21260">
<rect width="81.024" height="107" fill="white" transform="translate(10 1)"/>
</clipPath>
</defs>
</svg>
