<svg width="100" height="100" viewBox="0 0 100 100" fill="none" xmlns="http://www.w3.org/2000/svg">
<g clip-path="url(#clip0_1631_20989)">
<rect opacity="0.5" width="100" height="100" rx="50" fill="#AFAFAF"/>
<g clip-path="url(#clip1_1631_20989)">
<mask id="mask0_1631_20989" style="mask-type:luminance" maskUnits="userSpaceOnUse" x="2" y="8" width="100" height="100">
<path d="M102 8H2V108H102V8Z" fill="white"/>
</mask>
<g mask="url(#mask0_1631_20989)">
<mask id="mask1_1631_20989" style="mask-type:luminance" maskUnits="userSpaceOnUse" x="2" y="8" width="100" height="100">
<path d="M102 8H2V108H102V8Z" fill="white"/>
</mask>
<g mask="url(#mask1_1631_20989)">
<path d="M46.5437 22.6205C46.1267 21.6482 48.151 19.9655 48.3789 19.7792C51.3013 17.3881 55.6652 17.2462 55.8966 17.944C56.1915 18.8344 49.9473 21.7914 49.9473 21.7914C49.9473 21.7914 50.1308 21.7216 50.4744 21.6122C50.4744 21.6122 51.2131 21.3737 51.9603 21.1995C54.4692 20.6139 56.0807 20.2371 56.7552 20.992C56.986 21.251 57.156 21.6976 57.0516 22.1167C56.4892 24.3688 48.6322 23.3733 48.0543 23.3006C47.5026 23.2322 46.754 23.1101 46.5437 22.6205Z" fill="#FDFDFD"/>
</g>
<mask id="mask2_1631_20989" style="mask-type:luminance" maskUnits="userSpaceOnUse" x="2" y="8" width="100" height="100">
<path d="M102 8H2V108H102V8Z" fill="white"/>
</mask>
<g mask="url(#mask2_1631_20989)">
<path d="M31.8346 65.077C30.6252 64.5351 29.315 63.9474 27.9279 62.9314C27.9279 62.9314 24.8623 60.7696 23.1329 57.1896C20.5301 51.8005 21.9278 46.1264 22.6002 43.3973C25.0266 33.5464 32.0674 28.0861 33.1956 27.2373C35.5402 25.4734 41.5261 21.5434 49.4742 21.5547C52.8122 21.5597 55.4552 22.2574 57.229 22.7386C60.0893 23.514 64.2951 24.7022 68.5348 28.1848C73.0821 31.9193 75.2256 36.2853 76.1118 38.4253C77.9632 42.8964 78.0796 46.7057 78.1247 48.8435C78.1777 51.3631 78.2256 53.6258 77.2372 56.4205C76.9549 57.2178 75.5629 60.9573 71.791 64.0568C69.1472 66.2292 66.6312 67.0215 63.9184 67.8456C57.5359 69.7838 52.1631 69.4218 48.5873 69.1481C45.2098 68.8891 42.6275 68.228 37.4586 66.958C36.039 66.6081 34.1382 66.1099 31.8346 65.077Z" fill="#FDFDFD"/>
</g>
<mask id="mask3_1631_20989" style="mask-type:luminance" maskUnits="userSpaceOnUse" x="2" y="8" width="100" height="100">
<path d="M102 8H2V108H102V8Z" fill="white"/>
</mask>
<g mask="url(#mask3_1631_20989)">
<path d="M31.7952 74.0797C30.8441 70.6747 31.4212 67.494 32.16 65.2207C36.9881 67.2344 41.2228 68.1205 44.2525 68.5446C44.9849 68.6469 48.162 69.0737 52.3749 68.999C57.6291 68.9058 61.624 68.0831 63.3188 67.6958C65.2816 67.2478 66.9065 66.7553 68.0869 66.363C68.9061 69.3743 68.8701 71.2038 68.6535 72.3426C68.5977 72.6354 68.1857 74.7006 68.18 74.7302C68.2266 74.7958 68.2732 74.8763 68.312 74.9715C68.4482 75.3088 68.3952 75.6241 68.3578 75.7765C67.9345 76.7467 67.4413 77.3796 67.1344 77.7295C67.1344 77.7295 64.2155 81.1924 51.2361 81.1924C42.7461 80.7909 32.1458 75.1542 32.1458 75.1542C32.0167 74.8113 31.8989 74.4529 31.7952 74.0797Z" fill="#EFEFEF"/>
</g>
<mask id="mask4_1631_20989" style="mask-type:luminance" maskUnits="userSpaceOnUse" x="2" y="8" width="100" height="100">
<path d="M102 8H2V108H102V8Z" fill="white"/>
</mask>
<g mask="url(#mask4_1631_20989)">
<path d="M31.1863 40.0535C32.9692 38.5394 34.8496 38.1612 35.7146 37.9982C36.8188 37.7901 38.704 37.4352 40.8383 38.3263C42.8851 39.1808 44.0183 40.7041 44.5023 41.4844C45.7737 43.5319 45.7243 45.5315 45.694 46.7867C45.6601 48.171 45.5966 50.7801 43.6683 52.9532C42.2381 54.5654 40.5025 55.1256 39.974 55.2766C39.4039 55.4403 38.2517 55.7571 36.7863 55.4855C35.7301 55.2893 34.9131 54.8187 34.4629 54.5619C33.4716 53.996 33.5676 53.8006 32.874 53.4796C31.5736 52.8763 30.8836 53.4005 29.8549 52.9829C28.6498 52.4939 28.1249 51.1773 27.8391 50.4605C26.7618 47.7575 27.9951 45.0326 28.604 43.6879C29.0372 42.7318 29.6948 41.32 31.1863 40.0535Z" fill="#D3D1CD"/>
</g>
<mask id="mask5_1631_20989" style="mask-type:luminance" maskUnits="userSpaceOnUse" x="2" y="8" width="100" height="100">
<path d="M102 8H2V108H102V8Z" fill="white"/>
</mask>
<g mask="url(#mask5_1631_20989)">
<path d="M31.5821 40.7183C32.8451 39.6649 34.0614 39.1746 34.604 38.9791C35.3773 38.7019 37.0424 38.1261 39.1372 38.4944C39.7136 38.596 40.6309 38.7661 41.6179 39.3785C43.499 40.5455 44.177 42.4152 44.4402 43.1419C45.2212 45.2967 44.8875 47.1629 44.6681 48.3024C44.3774 49.8137 43.9985 51.7878 42.2734 53.2631C41.9651 53.527 40.3437 54.9134 38.2531 54.7744C37.1821 54.7032 36.2832 54.2509 34.9462 53.5771C33.8004 53 33.5174 52.6832 32.5798 52.3509C31.0776 51.8182 30.6282 52.2979 29.8711 51.9233C28.1467 51.0689 27.7368 47.4402 28.6166 44.7958C29.3561 42.5747 30.933 41.2595 31.5821 40.7183Z" fill="#4D4D4D"/>
</g>
<mask id="mask6_1631_20989" style="mask-type:luminance" maskUnits="userSpaceOnUse" x="2" y="8" width="100" height="100">
<path d="M102 8H2V108H102V8Z" fill="white"/>
</mask>
<g mask="url(#mask6_1631_20989)">
<path d="M37.5913 45.2769C39.1252 44.7837 41.0662 45.0447 42.327 46.3719C43.6619 47.7766 43.5102 49.6139 43.4813 49.9088C43.3691 51.0448 42.8456 51.8273 42.6085 52.173C42.2783 52.6535 41.5466 53.5467 40.2851 54.0526C39.8554 54.2247 39.0151 54.5493 37.9321 54.3778C37.6816 54.3383 36.8822 54.188 36.0821 53.5784C35.2721 52.9618 34.9179 52.2231 34.75 51.8618C34.5948 51.5281 34.2145 50.6123 34.2914 49.5088C34.4085 47.8225 35.579 45.9239 37.5913 45.2769Z" fill="#FDFDFD"/>
</g>
<mask id="mask7_1631_20989" style="mask-type:luminance" maskUnits="userSpaceOnUse" x="2" y="8" width="100" height="100">
<path d="M102 8H2V108H102V8Z" fill="white"/>
</mask>
<g mask="url(#mask7_1631_20989)">
<path d="M57.584 40.1714C57.893 39.9837 59.1235 39.2655 60.869 39.0616C64.9126 38.5895 68.0375 41.3088 68.7713 41.9473C69.685 42.7424 71.5794 44.4372 72.2786 47.3194C72.4903 48.1908 73.0794 50.6214 71.7904 53.002C71.0164 54.4314 69.9171 55.1927 69.3484 55.5765C66.1593 57.7313 62.4678 57.0518 61.4462 56.8642C59.8855 56.577 57.2721 56.0958 55.3643 53.8451C52.765 50.7787 53.0557 46.2942 54.5649 43.4565C54.8852 42.8539 55.7432 41.2904 57.584 40.1714Z" fill="#D3D1CD"/>
</g>
<mask id="mask8_1631_20989" style="mask-type:luminance" maskUnits="userSpaceOnUse" x="2" y="8" width="100" height="100">
<path d="M102 8H2V108H102V8Z" fill="white"/>
</mask>
<g mask="url(#mask8_1631_20989)">
<path d="M58.0869 40.6741C60.1182 39.4873 62.1227 39.651 62.9115 39.7272C66.8753 40.1075 69.2079 43.1111 69.8669 43.9598C70.607 44.9131 71.6597 46.3058 71.9087 48.4288C71.9765 49.0032 72.2093 51.2609 70.9026 53.312C68.2667 57.448 62.0105 56.5943 61.6387 56.5378C60.593 56.3798 58.0791 55.9995 56.1635 53.8743C53.0111 50.3769 54.5111 45.5184 54.5951 45.2616C54.8604 44.4467 55.6718 42.0852 58.0869 40.6741Z" fill="#4D4D4D"/>
</g>
<mask id="mask9_1631_20989" style="mask-type:luminance" maskUnits="userSpaceOnUse" x="2" y="8" width="100" height="100">
<path d="M102 8H2V108H102V8Z" fill="white"/>
</mask>
<g mask="url(#mask9_1631_20989)">
<path d="M61.2448 46.0376C59.7109 45.5444 57.7699 45.8055 56.5091 47.1326C55.1742 48.5374 55.3259 50.3747 55.3548 50.6696C55.467 51.8055 55.9905 52.588 56.2283 52.9337C56.5578 53.4142 57.2902 54.3074 58.5517 54.8133C58.9814 54.9855 59.8217 55.31 60.9047 55.1386C61.1552 55.0991 61.9546 54.9488 62.7547 54.3392C63.5647 53.7225 63.9189 52.9838 64.0868 52.6226C64.242 52.2888 64.6223 51.373 64.5454 50.2695C64.4276 48.5825 63.2571 46.6846 61.2448 46.0376Z" fill="#FDFDFD"/>
</g>
<mask id="mask10_1631_20989" style="mask-type:luminance" maskUnits="userSpaceOnUse" x="2" y="8" width="100" height="100">
<path d="M102 8H2V108H102V8Z" fill="white"/>
</mask>
<g mask="url(#mask10_1631_20989)">
<path d="M63.8496 49.1459C63.1497 47.1096 61.1029 46.4365 60.8764 46.3667C60.4891 46.246 59.509 45.9568 58.3618 46.3371C57.0114 46.7851 56.3637 47.8512 56.1979 48.1348C55.2383 49.7703 55.7823 51.4693 55.8747 51.7423C56.207 52.4253 56.6692 53.0102 57.2202 53.5302C57.6372 53.9239 58.3237 54.5384 59.3531 54.7642C59.5154 54.7995 60.6796 55.0394 61.8106 54.4827C63.5596 53.6226 64.5517 51.1892 63.8496 49.1459Z" fill="#111618"/>
</g>
<mask id="mask11_1631_20989" style="mask-type:luminance" maskUnits="userSpaceOnUse" x="2" y="8" width="100" height="100">
<path d="M102 8H2V108H102V8Z" fill="white"/>
</mask>
<g mask="url(#mask11_1631_20989)">
<path d="M28.677 53.3813C29.6923 52.7957 30.6801 52.7611 31.1634 52.7498C31.7307 52.7364 33.5397 52.6948 34.8528 53.9535C36.2611 55.304 36.7112 57.7798 35.5633 59.6756C34.2975 61.7647 31.7335 62.0858 30.019 61.6688C29.8235 61.6215 26.6528 60.7953 26.2111 58.0182C25.8738 55.9009 27.3597 54.1419 28.677 53.3813Z" fill="#CEAFB0"/>
</g>
<mask id="mask12_1631_20989" style="mask-type:luminance" maskUnits="userSpaceOnUse" x="2" y="8" width="100" height="100">
<path d="M102 8H2V108H102V8Z" fill="white"/>
</mask>
<g mask="url(#mask12_1631_20989)">
<path d="M34.1712 27.4908C33.9257 27.198 33.151 26.3527 31.845 26.0775C30.2653 25.7452 29.0411 26.486 28.6672 26.7203C28.5204 26.8127 26.4778 28.1363 26.5364 30.198C26.5456 30.5331 26.5745 31.5399 27.3647 32.1806C27.9426 32.6491 28.6178 32.671 28.8732 32.666C30.6392 30.9409 32.4052 29.2158 34.1712 27.4908Z" fill="#C3C6BF"/>
</g>
<mask id="mask13_1631_20989" style="mask-type:luminance" maskUnits="userSpaceOnUse" x="2" y="8" width="100" height="100">
<path d="M102 8H2V108H102V8Z" fill="white"/>
</mask>
<g mask="url(#mask13_1631_20989)">
<path d="M23.5179 26.6027C23.7804 26.0502 24.3173 24.9446 25.3679 23.935C26.8983 22.4639 28.6389 22.0434 29.2689 21.8994C31.5676 21.3738 33.3993 21.9411 34.0851 22.1633C36.9807 23.101 37.8294 24.9524 37.8386 24.9764C37.8591 25.0272 37.8584 25.078 37.8584 25.078C37.8584 25.0956 37.8563 25.1132 37.8527 25.1309C37.8139 25.26 37.7053 25.3193 37.5987 25.3807C36.6977 25.8964 35.8278 26.463 34.9578 27.0281C34.7031 27.1939 34.4618 27.3837 34.1711 27.4903C33.9143 27.2214 33.3604 26.712 32.4905 26.4277C32.3035 26.3663 31.5803 26.1455 30.637 26.2711C30.3131 26.3141 29.4143 26.4721 28.5979 27.1036C27.3004 28.1076 26.271 30.2631 27.1487 31.6171C27.28 31.8196 27.7209 32.4165 28.8738 32.6648C27.9037 34.0569 26.9335 35.4482 25.9634 36.8403C25.3199 36.3824 24.0556 35.3438 23.2738 33.5496C22.2289 31.1528 22.7277 28.9748 22.8787 28.3567C23.0791 27.5354 23.374 26.9054 23.5179 26.6027Z" fill="#4D4D4D"/>
</g>
<mask id="mask14_1631_20989" style="mask-type:luminance" maskUnits="userSpaceOnUse" x="2" y="8" width="100" height="100">
<path d="M102 8H2V108H102V8Z" fill="white"/>
</mask>
<g mask="url(#mask14_1631_20989)">
<path d="M66.7383 54.4098C67.3275 54.4055 69.0497 54.3928 70.3296 55.6332C71.9362 57.1904 72.1923 60.0895 70.7635 62.0262C69.1443 64.2212 66.2585 63.9616 65.8698 63.9207C65.4055 63.8713 62.759 63.5891 61.6865 61.3165C60.8222 59.4848 61.5052 57.4712 62.4958 56.2654C64.0029 54.4295 66.2642 54.4126 66.7383 54.4098Z" fill="#CEAFB0"/>
</g>
<mask id="mask15_1631_20989" style="mask-type:luminance" maskUnits="userSpaceOnUse" x="2" y="8" width="100" height="100">
<path d="M102 8H2V108H102V8Z" fill="white"/>
</mask>
<g mask="url(#mask15_1631_20989)">
<path d="M58.2048 68.7451C58.9238 68.1065 59.8481 67.4856 61.0391 66.6855C62.005 66.0371 62.465 65.7803 62.9151 65.5644C64.0694 65.0098 64.9126 64.6041 65.9328 64.7897C66.0859 64.8172 67.0497 65.0056 67.7066 65.7683C68.8305 67.0736 68.2604 69.1395 67.768 70.9266C67.2974 72.6327 66.6447 74.9977 64.413 76.5944C62.9709 77.6259 61.5654 77.8383 61.2641 77.8799C60.6439 77.9646 59.0706 78.1558 57.4513 77.2682C56.8671 76.9479 55.5886 76.2465 55.1674 74.9236C54.3045 72.2107 57.7639 69.1373 58.2048 68.7451Z" fill="#4D4D4D"/>
</g>
<mask id="mask16_1631_20989" style="mask-type:luminance" maskUnits="userSpaceOnUse" x="2" y="8" width="100" height="100">
<path d="M102 8H2V108H102V8Z" fill="white"/>
</mask>
<g mask="url(#mask16_1631_20989)">
<path d="M32.0258 74.8511C32.0935 74.8215 32.2106 74.7827 32.3518 74.7996C32.3906 74.8045 32.4251 74.8123 32.4555 74.8222C32.9197 75.0952 33.5357 75.4452 34.2737 75.829C34.2737 75.829 35.5966 76.5261 36.8532 77.0567C37.8953 77.4962 41.9114 79.1254 47.5205 79.5353C48.473 79.6052 49.3536 79.6306 50.1995 79.6207C51.9408 79.6002 53.6441 79.4831 57.7017 78.8248C64.1597 77.7771 65.1849 77.2415 66.0478 76.5755C67.183 75.6999 67.8977 74.7065 68.3232 74.0059C68.7451 76.2114 68.3973 77.6952 68 78.6442C67.7884 79.1501 67.6663 79.2559 67.202 80.1569C66.2474 82.0104 65.7761 83.4808 65.5779 84.0473C64.7255 86.4822 63.0294 91.3245 59.0486 94.2448C56.1361 96.3812 53.0669 96.7064 52.0784 96.7756C48.8752 96.9985 46.0106 96.0228 44.5043 95.0385C44.3025 94.9066 43.592 94.4261 42.7418 93.729C41.8006 92.9571 41.1522 92.2995 40.8114 91.9524C36.6867 87.7409 34.407 85.3752 32.9303 81.9942C32.6093 81.2597 32.4498 80.7602 32.3666 80.4829C31.6935 78.2209 31.8148 76.2008 32.0258 74.8511Z" fill="#BDCCC7"/>
</g>
<mask id="mask17_1631_20989" style="mask-type:luminance" maskUnits="userSpaceOnUse" x="2" y="8" width="100" height="100">
<path d="M102 8H2V108H102V8Z" fill="white"/>
</mask>
<g mask="url(#mask17_1631_20989)">
<path d="M76.4717 82.4593C76.533 82.6724 76.6071 82.992 76.6297 83.3829C76.6664 84.0109 76.5944 85.2364 74.216 88.7176C73.9726 89.0739 73.6678 89.5079 73.3065 89.9975C72.8063 90.5697 72.3808 91.2047 71.8496 91.7508C70.9895 92.6349 70.1569 93.5528 69.0534 94.1518C68.6167 94.3889 68.1708 94.6104 67.6818 94.7262C66.5212 94.9315 65.6138 94.8179 65.0558 94.7008C64.0884 94.4976 63.2897 94.0982 62.714 93.811C62.5588 93.7334 62.4198 93.6544 62.2081 93.5387C62.2081 93.5387 60.4717 92.5855 60.3179 92.5573C60.3116 92.5559 60.2812 92.5516 60.2502 92.5298C60.2199 92.5093 60.2022 92.4811 60.1909 92.4592C60.1909 92.4592 60.1902 92.4176 60.198 92.3879C60.2121 92.3371 60.241 92.3047 60.2481 92.2969C60.6404 91.839 60.9282 91.2979 61.3248 90.8442C61.6409 90.4829 61.9118 90.1287 62.4537 89.419C62.551 89.292 62.9172 88.8108 63.3039 88.2618C63.9868 87.2924 64.5231 86.4112 64.7594 85.9956C65.4226 84.8286 65.841 83.4704 66.6771 80.7533C66.8556 80.174 67.2155 78.9774 68.1814 78.4384C68.2801 78.3833 68.5038 78.2712 68.8107 78.214C69.4881 78.0877 70.3644 78.2923 70.6854 78.8356C70.8625 79.1362 70.9761 79.719 70.9676 79.6936C70.962 79.5891 70.9627 79.436 70.9944 79.2561C71.0417 78.9887 71.1426 78.4172 71.6026 78.1851C71.9914 77.9889 72.5198 78.0948 72.8162 78.3826C73.315 78.8674 73.1908 79.8431 73.1908 79.8431C73.2106 79.3373 73.4857 78.8843 73.9133 78.679C74.5109 78.3918 75.201 78.6867 75.5262 79.1228C75.927 79.6597 75.7344 80.3533 75.6843 80.5332C75.6377 80.7018 75.5742 80.8352 75.5241 80.9276C75.8091 80.5748 76.2903 80.4563 76.6876 80.6327C77.1462 80.8359 77.3642 81.3749 77.2125 81.8243C77.0453 82.3225 76.5027 82.4523 76.4717 82.4593Z" fill="#4D4D4D"/>
</g>
<mask id="mask18_1631_20989" style="mask-type:luminance" maskUnits="userSpaceOnUse" x="2" y="8" width="100" height="100">
<path d="M102 8H2V108H102V8Z" fill="white"/>
</mask>
<g mask="url(#mask18_1631_20989)">
<path d="M66.9888 77.7203C65.4811 78.7194 63.7228 79.1004 58.2526 79.9809C57.1823 80.1531 56.2799 80.2956 55.0494 80.4163C53.3575 80.5821 51.8984 80.6152 51.5893 80.6209C49.3026 80.6653 47.4364 80.5101 46.5975 80.4297C44.2022 80.1989 42.434 79.8271 41.1358 79.5498C39.6591 79.2344 37.5311 78.3786 33.2547 76.7234C32.9133 76.5914 32.0976 76.2633 31.9297 75.6015C31.8719 75.3743 31.8457 74.9305 32.1096 74.7852C32.3185 74.6702 32.66 74.7676 32.9048 75.0568C34.4224 75.9698 35.8159 76.6288 36.9667 77.1044C37.3942 77.2808 38.9712 77.9207 41.145 78.4873C41.6629 78.622 42.7579 78.8944 44.1817 79.1328C46.9651 79.5985 49.1467 79.6239 49.9468 79.6225C51.5978 79.6197 52.8029 79.4906 54.1336 79.3495C55.1573 79.2408 56.5247 79.015 59.2609 78.5635C59.2609 78.5635 60.8427 78.3024 63.128 77.7627C63.9789 77.5616 64.5921 77.3993 65.3138 77.0021C65.3138 77.0021 66.3094 76.4538 67.106 75.6135C67.4086 75.2939 67.705 74.9087 67.705 74.9087C67.8997 74.6554 67.9978 74.5284 68.0853 74.3781C68.2236 74.1417 68.2701 73.9971 68.3223 74.0063C68.3738 74.0154 68.3731 74.1629 68.4232 74.6229C68.4613 74.9715 68.4712 74.9715 68.4888 75.1916C68.4888 75.1916 68.5157 75.5275 68.5135 75.7963C68.5058 76.7438 66.9888 77.7203 66.9888 77.7203Z" fill="#A0B6AF"/>
</g>
<mask id="mask19_1631_20989" style="mask-type:luminance" maskUnits="userSpaceOnUse" x="2" y="8" width="100" height="100">
<path d="M102 8H2V108H102V8Z" fill="white"/>
</mask>
<g mask="url(#mask19_1631_20989)">
<path d="M34.1528 63.5048C35.2013 63.0962 36.2116 63.4624 36.5496 63.6021C37.1048 63.8477 37.9064 64.2124 38.8582 64.6873C40.6072 65.5593 41.4814 65.9954 42.3739 66.6953C43.4591 67.5469 44.1068 68.3548 44.6966 69.0921C45.6209 70.2457 46.0852 70.8411 46.2242 71.7457C46.3815 72.7737 46.0689 73.6514 45.9702 73.9047C45.8806 74.1361 45.6985 74.5912 45.2914 75.0604C44.7404 75.6947 44.0962 75.9875 43.8055 76.1152C43.8055 76.1152 43.6178 76.1977 43.4175 76.2655C40.234 77.3386 38.1639 76.2069 38.1639 76.2069C37.7222 75.9656 37.1853 75.3306 36.1107 74.0613C35.1674 72.9465 35.1624 72.7504 33.9595 71.2906C33.0267 70.1582 32.8849 70.1003 32.6246 69.5881C32.4482 69.2417 31.9183 68.1629 32.0876 66.775C32.1321 66.4088 32.403 64.187 34.1528 63.5048Z" fill="#4D4D4D"/>
</g>
<mask id="mask20_1631_20989" style="mask-type:luminance" maskUnits="userSpaceOnUse" x="2" y="8" width="100" height="100">
<path d="M102 8H2V108H102V8Z" fill="white"/>
</mask>
<g mask="url(#mask20_1631_20989)">
<path d="M40.8115 91.9521C40.8475 91.9203 40.8934 91.8709 40.923 91.7997C40.9674 91.6917 40.978 91.5908 40.978 91.5908C41.0006 91.6437 41.0415 91.734 41.0987 91.8427C41.3111 92.2449 41.5615 92.5342 41.8113 92.8185C41.8113 92.8185 41.9235 92.9462 42.0187 93.0464C42.4096 93.457 43.2626 94.2416 44.8685 94.9987C45.6404 95.362 47.1891 96.076 49.3805 96.3075C51.7978 96.5636 53.6414 96.0916 54.1458 95.9526C55.4681 95.5878 56.4848 95.0629 57.0937 94.7489C58.0469 94.2564 58.775 93.7738 59.192 93.481C59.6668 93.148 60.0626 92.8361 60.3717 92.5793C60.4295 92.604 60.4881 92.6301 60.5481 92.6583C60.6532 92.707 60.7534 92.7578 60.8479 92.8079C60.3357 93.3477 59.6485 93.9791 58.7637 94.5852C58.4208 94.8202 57.7498 95.2548 56.834 95.6767C56.3366 95.9053 55.413 96.2941 54.1938 96.5721C52.8102 96.8881 51.5543 96.9467 50.5228 96.9008C49.3657 96.8522 48.3991 96.6588 47.6773 96.4641C47.4402 96.3999 46.2873 96.0824 44.8974 95.3606C43.7452 94.7623 42.9748 94.1696 42.7222 93.97C42.0773 93.4605 41.7217 93.0908 41.5531 92.9046C41.225 92.5426 40.9816 92.2082 40.8115 91.9521Z" fill="#A0B6AF"/>
</g>
<mask id="mask21_1631_20989" style="mask-type:luminance" maskUnits="userSpaceOnUse" x="2" y="8" width="100" height="100">
<path d="M102 8H2V108H102V8Z" fill="white"/>
</mask>
<g mask="url(#mask21_1631_20989)">
<path d="M56.6558 71.7874C56.9761 71.4226 57.3662 71.0275 57.8376 70.6359C58.6602 69.9515 59.4674 69.4929 60.1271 69.1846C59.8886 69.615 59.6741 69.9684 59.5111 70.2274C59.5111 70.2274 59.0857 70.9054 58.0351 72.0936C57.9568 72.1818 57.779 72.3786 57.4883 72.4668C57.362 72.5049 57.0713 72.5931 56.8505 72.421C56.6769 72.2848 56.6071 72.0371 56.6558 71.7874Z" fill="#D3D1CD"/>
</g>
<mask id="mask22_1631_20989" style="mask-type:luminance" maskUnits="userSpaceOnUse" x="2" y="8" width="100" height="100">
<path d="M102 8H2V108H102V8Z" fill="white"/>
</mask>
<g mask="url(#mask22_1631_20989)">
<g opacity="0.79">
<mask id="mask23_1631_20989" style="mask-type:luminance" maskUnits="userSpaceOnUse" x="44" y="76" width="12" height="2">
<path d="M55.439 76.7891H44.3271V77.755H55.439V76.7891Z" fill="white"/>
</mask>
<g mask="url(#mask23_1631_20989)">
<path d="M55.1926 77.3859C54.5894 77.4677 53.5374 77.5969 52.2208 77.678C47.7793 77.9518 44.3489 77.4339 44.3263 77.0423C44.3249 77.0183 44.3313 76.9061 44.4075 76.8412C44.5338 76.7333 44.7722 76.8236 44.8237 76.8412C45.3198 77.0127 48.4284 77.3951 50.0879 77.3365C51.2486 77.2949 54.7735 76.9287 55.0063 76.9012C55.0063 76.9012 55.1736 76.8814 55.3069 76.9506C55.3648 76.9809 55.4071 77.0254 55.4353 77.0846C55.4558 77.2652 55.3316 77.3316 55.1926 77.3859Z" fill="#D3D1CD"/>
</g>
</g>
</g>
<mask id="mask24_1631_20989" style="mask-type:luminance" maskUnits="userSpaceOnUse" x="2" y="8" width="100" height="100">
<path d="M102 8H2V108H102V8Z" fill="white"/>
</mask>
<g mask="url(#mask24_1631_20989)">
<path d="M41.3926 73.4463C41.5781 73.6382 42.0156 74.0947 42.2237 74.3501C42.2745 74.4122 42.3599 74.5223 42.3289 74.566C42.3176 74.5822 42.2908 74.5886 42.2371 74.5822C42.1002 74.5667 41.9775 74.4955 41.9069 74.4341C41.7482 74.2965 41.5478 73.9437 41.3926 73.4463Z" fill="#D3D1CD"/>
</g>
<mask id="mask25_1631_20989" style="mask-type:luminance" maskUnits="userSpaceOnUse" x="2" y="8" width="100" height="100">
<path d="M102 8H2V108H102V8Z" fill="white"/>
</mask>
<g mask="url(#mask25_1631_20989)">
<path d="M42.9541 73.2168L43.5545 73.7297C43.8036 73.9456 43.9122 74.0825 43.8798 74.139C43.8614 74.1707 43.7994 74.1778 43.6935 74.1594C43.5842 74.0776 43.4579 73.9675 43.333 73.8229C43.1411 73.602 43.0247 73.3819 42.9541 73.2168Z" fill="#D3D1CD"/>
</g>
<mask id="mask26_1631_20989" style="mask-type:luminance" maskUnits="userSpaceOnUse" x="2" y="8" width="100" height="100">
<path d="M102 8H2V108H102V8Z" fill="white"/>
</mask>
<g mask="url(#mask26_1631_20989)">
<path d="M39.8501 73.7285C39.987 73.9486 40.1239 74.1681 40.2607 74.3882C40.4054 74.5999 40.55 74.8122 40.7292 75.074C40.7081 75.098 40.6862 75.1093 40.6685 75.1149C40.4675 75.1763 40.0921 74.6881 39.9383 74.2175C39.8741 74.0206 39.8557 73.847 39.8501 73.7285Z" fill="#D3D1CD"/>
</g>
<mask id="mask27_1631_20989" style="mask-type:luminance" maskUnits="userSpaceOnUse" x="2" y="8" width="100" height="100">
<path d="M102 8H2V108H102V8Z" fill="white"/>
</mask>
<g mask="url(#mask27_1631_20989)">
<path d="M42.115 56.9605L42.2159 56.0645C42.2201 56.3488 42.2702 56.8526 42.5933 57.3225C42.9278 57.8093 43.3702 58.0181 43.9064 58.2213C45.1517 58.6927 46.4513 58.8239 47.7728 58.7893C47.8681 58.7865 47.964 58.7964 48.06 58.7999C48.2378 58.8309 48.4198 58.8599 48.6054 58.8867C49.2982 58.9855 49.9565 59.0356 50.5732 59.0511C51.0614 59.1033 51.5525 59.0927 52.0407 59.0955C53.2882 59.1019 54.5095 58.9699 55.5601 58.1938C55.85 57.9793 55.8515 57.9702 55.7647 57.6259C55.7308 57.4904 55.6807 57.3563 55.6828 57.2152C55.6864 57.0007 55.8388 56.9203 56.0215 57.0304C56.2113 57.1454 56.2995 57.41 56.2268 57.6449C56.212 58.0393 56.4159 58.3476 56.6283 58.6517C56.6777 58.7223 56.7405 58.783 56.7969 58.8479C56.9091 58.9565 57.0664 59.0962 57.2668 59.2402C57.3726 59.3164 57.7734 59.5965 58.3315 59.7954C59.3673 60.1644 60.2499 60.005 60.252 60.0572C60.2541 60.1059 59.5034 60.2922 58.6405 60.1158C58.5213 60.0911 58.0253 59.9831 57.4594 59.6515C57.0883 59.4342 56.8153 59.1957 56.6325 59.013C56.4597 58.8542 56.3214 58.6687 56.2042 58.4655C56.145 58.3632 56.0779 58.3272 55.9869 58.4443C55.7343 58.7682 55.3724 58.9615 55.0514 59.2014C54.9378 59.2867 54.8665 59.3693 54.8298 59.5019C54.41 61.0182 53.5746 62.2804 52.4535 63.3656C52.1381 63.6711 51.7853 63.93 51.4248 64.1791C51.2724 64.1466 51.2914 64.0111 51.2752 63.9088C51.2025 63.4502 51.0812 63.0043 50.9662 62.5556C50.8371 62.0518 50.6275 61.5819 50.4017 61.1191C50.0758 60.4502 49.4683 60.1292 48.81 59.8836C48.7296 59.854 48.6435 59.8328 48.5602 59.8081C47.6345 59.6 46.7928 59.8088 46.0118 60.3204C45.0938 60.9272 44.7086 61.8303 44.5887 62.8808C44.511 63.0036 44.6366 63.2082 44.4292 63.2788C44.31 61.9594 43.9508 60.2308 42.9447 58.4888C42.7436 58.1409 42.5327 57.8199 42.3189 57.525C41.9964 58.2312 41.5816 58.6757 41.3106 58.9227C41.0722 59.14 39.7619 60.3352 38.5032 59.9027C38.1236 59.7722 37.8626 59.533 37.7095 59.3629C37.7603 59.4278 37.8428 59.5203 37.9628 59.6035C38.6824 60.0995 39.7817 59.5838 40.1098 59.43C40.9085 59.0553 41.3607 58.4852 41.5435 58.2263C41.8892 57.7352 42.0423 57.2618 42.115 56.9605Z" fill="#4D4D4D"/>
</g>
<mask id="mask28_1631_20989" style="mask-type:luminance" maskUnits="userSpaceOnUse" x="2" y="8" width="100" height="100">
<path d="M102 8H2V108H102V8Z" fill="white"/>
</mask>
<g mask="url(#mask28_1631_20989)">
<path d="M48.6029 59.7409C48.8068 59.7861 49.2654 59.9088 49.7346 60.2468C50.4084 60.7329 50.6843 61.3623 50.9249 61.9105C51.1259 62.3684 51.3969 63.1459 51.4272 64.1782C51.2607 64.3235 51.0088 64.5211 50.6737 64.7024C49.0297 65.5907 46.7804 65.3318 45.2959 64.1683C45.0462 63.9729 44.7357 63.6871 44.4323 63.2779C44.4288 62.9307 44.469 62.1716 44.9347 61.3828C45.2705 60.8141 45.6896 60.4627 45.9556 60.2729C46.2371 60.0916 46.6605 59.8714 47.2108 59.7571C47.4803 59.7014 47.9785 59.6033 48.6029 59.7409Z" fill="#CEAFB0"/>
</g>
<mask id="mask29_1631_20989" style="mask-type:luminance" maskUnits="userSpaceOnUse" x="2" y="8" width="100" height="100">
<path d="M102 8H2V108H102V8Z" fill="white"/>
</mask>
<g mask="url(#mask29_1631_20989)">
<path d="M43.9537 71.3859C43.8337 71.4875 43.6545 71.4571 43.6101 71.4479C43.1818 71.3562 43.0047 70.7706 42.8043 70.3148C42.6011 69.8534 42.249 69.2403 41.5957 68.5869C41.9337 68.6497 42.4283 68.7929 42.92 69.1443C43.1338 69.2967 43.5579 69.6079 43.8274 70.1702C43.9763 70.4792 44.2197 71.1615 43.9537 71.3859Z" fill="#D3D1CD"/>
</g>
<mask id="mask30_1631_20989" style="mask-type:luminance" maskUnits="userSpaceOnUse" x="2" y="8" width="100" height="100">
<path d="M102 8H2V108H102V8Z" fill="white"/>
</mask>
<g mask="url(#mask30_1631_20989)">
<path d="M59.9112 82.2754C59.8385 82.6056 59.6163 82.7785 59.4469 82.9767C58.9658 83.5398 58.3526 84.2764 56.7658 85.3107C55.771 85.9591 54.827 86.5751 53.4038 87.1035C53.4038 87.1035 51.7176 87.7258 50.2394 87.5417C50.2394 87.5417 49.9001 87.4443 49.1924 87.0746C49.1529 87.0541 49.1021 87.0287 49.1155 86.9815C49.1359 86.9081 49.2086 86.9165 49.2693 86.9137C50.3954 86.858 51.5017 86.6506 52.603 86.4311C53.54 86.2442 54.4276 85.8991 55.3004 85.5118C56.279 85.0779 57.2075 84.567 58.0499 83.9003C58.6059 83.4607 59.1252 82.981 59.6424 82.4991C59.7158 82.4299 59.7976 82.3692 59.9112 82.2754Z" fill="#A0B6AF"/>
</g>
<mask id="mask31_1631_20989" style="mask-type:luminance" maskUnits="userSpaceOnUse" x="2" y="8" width="100" height="100">
<path d="M102 8H2V108H102V8Z" fill="white"/>
</mask>
<g mask="url(#mask31_1631_20989)">
<path d="M63.7595 85.9863C63.6473 86.2325 63.4208 86.332 63.3608 86.356C62.934 86.3955 62.5939 86.3059 62.3589 86.0964C62.2602 86.0089 62.112 85.8903 62.0929 85.7083C62.057 85.3675 62.4838 85.0006 62.9093 84.9505C62.977 84.9428 63.3383 84.9004 63.5986 85.1643C63.7962 85.3668 63.8893 85.6998 63.7595 85.9863Z" fill="#E8EDEC"/>
</g>
<mask id="mask32_1631_20989" style="mask-type:luminance" maskUnits="userSpaceOnUse" x="2" y="8" width="100" height="100">
<path d="M102 8H2V108H102V8Z" fill="white"/>
</mask>
<g mask="url(#mask32_1631_20989)">
<path d="M42.4593 86.9831C42.1911 86.7912 42.1171 86.3707 42.3203 86.116C42.4684 85.9297 42.7267 85.8789 42.927 85.9319C43.2572 86.0186 43.5183 86.4109 43.3948 86.7334C43.2664 87.0657 42.7704 87.2054 42.4593 86.9831Z" fill="#E8EDEC"/>
</g>
<mask id="mask33_1631_20989" style="mask-type:luminance" maskUnits="userSpaceOnUse" x="2" y="8" width="100" height="100">
<path d="M102 8H2V108H102V8Z" fill="white"/>
</mask>
<g mask="url(#mask33_1631_20989)">
<path d="M49.4853 82.7046C49.4867 83.0715 49.3548 83.2148 49.0161 83.2155C48.5999 83.2162 48.264 82.8994 48.2661 82.5092C48.2682 82.1938 48.5018 82.0082 48.8997 82.0068C49.2151 82.0061 49.4839 82.3265 49.4853 82.7046Z" fill="#E8EDEC"/>
</g>
<mask id="mask34_1631_20989" style="mask-type:luminance" maskUnits="userSpaceOnUse" x="2" y="8" width="100" height="100">
<path d="M102 8H2V108H102V8Z" fill="white"/>
</mask>
<g mask="url(#mask34_1631_20989)">
<path d="M56.9841 87.4977C56.8606 87.1886 57.157 86.7681 57.5083 86.7434C57.7115 86.7286 57.9408 86.8457 58.0206 87.0426C58.1426 87.3432 57.8816 87.7489 57.5408 87.7947C57.3199 87.8236 57.0666 87.7037 56.9841 87.4977Z" fill="#E8EDEC"/>
</g>
<mask id="mask35_1631_20989" style="mask-type:luminance" maskUnits="userSpaceOnUse" x="2" y="8" width="100" height="100">
<path d="M102 8H2V108H102V8Z" fill="white"/>
</mask>
<g mask="url(#mask35_1631_20989)">
<path d="M42.8964 81.6318C42.605 81.6297 42.3835 81.4399 42.3799 81.1894C42.3757 80.8987 42.6636 80.6271 42.9641 80.637C43.2294 80.6454 43.422 80.855 43.4277 81.1407C43.4333 81.4209 43.2019 81.6339 42.8964 81.6318Z" fill="#E8EDEC"/>
</g>
<mask id="mask36_1631_20989" style="mask-type:luminance" maskUnits="userSpaceOnUse" x="2" y="8" width="100" height="100">
<path d="M102 8H2V108H102V8Z" fill="white"/>
</mask>
<g mask="url(#mask36_1631_20989)">
<path d="M61.0753 76.3935C60.9632 76.596 60.8489 76.7435 60.7642 76.8415C60.633 76.9932 60.5814 77.0165 60.5335 77.0172C60.4072 77.0186 60.252 76.8592 60.252 76.7061C60.252 76.4937 60.5504 76.45 60.9766 76.0182C61.1798 75.8114 61.2673 75.6633 61.3018 75.6823C61.3322 75.6992 61.3145 75.8333 61.0753 76.3935Z" fill="#D3D1CD"/>
</g>
<mask id="mask37_1631_20989" style="mask-type:luminance" maskUnits="userSpaceOnUse" x="2" y="8" width="100" height="100">
<path d="M102 8H2V108H102V8Z" fill="white"/>
</mask>
<g mask="url(#mask37_1631_20989)">
<path d="M59.5959 75.7544C59.5275 75.9696 59.3589 76.405 59.0139 76.5933C58.9412 76.6329 58.7909 76.7147 58.6886 76.6526C58.6068 76.6025 58.5962 76.4861 58.5933 76.4579C58.5736 76.2427 58.7443 76.079 59.0019 75.8003C59.4802 75.2838 59.5769 75.1089 59.6453 75.1427C59.6933 75.166 59.7201 75.2874 59.5959 75.7544Z" fill="#D3D1CD"/>
</g>
<mask id="mask38_1631_20989" style="mask-type:luminance" maskUnits="userSpaceOnUse" x="2" y="8" width="100" height="100">
<path d="M102 8H2V108H102V8Z" fill="white"/>
</mask>
<g mask="url(#mask38_1631_20989)">
<path d="M50.3764 89.6873C49.1889 89.8242 48.2103 89.597 47.6198 89.4072C47.4864 89.3127 47.4674 89.2597 47.4758 89.2287C47.5365 89.0093 49.0669 89.5243 50.8794 89.3176C52.201 89.1666 53.03 88.7059 53.0476 88.7546C53.0695 88.8124 51.9032 89.5109 50.3764 89.6873Z" fill="#A0B6AF"/>
</g>
<mask id="mask39_1631_20989" style="mask-type:luminance" maskUnits="userSpaceOnUse" x="2" y="8" width="100" height="100">
<path d="M102 8H2V108H102V8Z" fill="white"/>
</mask>
<g mask="url(#mask39_1631_20989)">
<path d="M35.4851 79.8289C35.2184 79.8261 35.0561 79.6878 35.0653 79.4698C35.0738 79.2539 35.3849 79.0013 35.6502 78.9942C35.84 78.9893 36.0164 79.2108 36.0199 79.4585C36.022 79.6772 35.7998 79.8317 35.4851 79.8289Z" fill="#E8EDEC"/>
</g>
<mask id="mask40_1631_20989" style="mask-type:luminance" maskUnits="userSpaceOnUse" x="2" y="8" width="100" height="100">
<path d="M102 8H2V108H102V8Z" fill="white"/>
</mask>
<g mask="url(#mask40_1631_20989)">
<path d="M44.0157 93.2578C43.895 92.8973 43.9945 92.5396 44.2358 92.378C44.3649 92.2919 44.5681 92.239 44.7375 92.3216C45.0098 92.4542 45.0804 92.8811 44.9343 93.1619C44.9237 93.1816 44.7445 93.5147 44.4179 93.4949C44.178 93.4801 44.0369 93.2875 44.0157 93.2578Z" fill="#E8EDEC"/>
</g>
<mask id="mask41_1631_20989" style="mask-type:luminance" maskUnits="userSpaceOnUse" x="2" y="8" width="100" height="100">
<path d="M102 8H2V108H102V8Z" fill="white"/>
</mask>
<g mask="url(#mask41_1631_20989)">
<path d="M53.3648 93.7834C53.3662 93.5908 53.4741 93.3968 53.6498 93.3072C53.9271 93.1661 54.2834 93.334 54.4273 93.5908C54.5268 93.7686 54.5727 94.0755 54.3758 94.2618C54.1712 94.4551 53.865 94.3662 53.8516 94.362C53.5602 94.2914 53.3626 94.0459 53.3648 93.7834Z" fill="#E8EDEC"/>
</g>
<mask id="mask42_1631_20989" style="mask-type:luminance" maskUnits="userSpaceOnUse" x="2" y="8" width="100" height="100">
<path d="M102 8H2V108H102V8Z" fill="white"/>
</mask>
<g mask="url(#mask42_1631_20989)">
<path d="M51.1026 55.904C50.6362 56.0501 49.3451 56.163 49.0939 56.1559C49.0727 56.1552 48.9993 56.151 48.9535 56.1989C48.9189 56.2349 48.914 56.2914 48.9097 56.3626C48.8723 56.9659 48.8293 57.5691 48.7884 58.1717C48.758 58.3812 48.7566 58.5915 48.7891 58.801C49.3627 58.9478 49.9476 59.0275 50.5311 59.1192C50.4112 59.1256 50.203 59.1369 49.9441 59.1545C49.1419 59.2095 48.9316 59.2519 48.636 59.1545C48.4984 59.1094 48.2881 59.0162 48.061 58.8003C48.262 58.8293 48.3291 58.6952 48.3792 58.5393C48.394 58.4659 48.4095 58.3925 48.4243 58.3191C48.5231 57.7335 48.6226 57.1486 48.7214 56.563C48.7326 56.4939 48.7319 56.4219 48.7524 56.3563C48.8067 56.1813 48.7376 56.1439 48.5675 56.122C48.2585 56.0811 47.2841 55.7149 46.8728 55.4249C46.5384 55.1886 46.0452 54.6488 46.1341 54.186C46.2879 53.3809 48.1682 52.9654 49.6527 53.158C50.5212 53.2709 52.1482 53.7083 52.2266 54.5366C52.2752 55.0623 51.6974 55.7177 51.1026 55.904Z" fill="#4D4D4D"/>
</g>
<mask id="mask43_1631_20989" style="mask-type:luminance" maskUnits="userSpaceOnUse" x="2" y="8" width="100" height="100">
<path d="M102 8H2V108H102V8Z" fill="white"/>
</mask>
<g mask="url(#mask43_1631_20989)">
<path d="M69.6888 43.1765C69.4369 42.9697 69.0601 42.8872 68.998 42.4893C69.2281 42.7186 69.4588 42.9472 69.6888 43.1765Z" fill="#C0C2B3"/>
</g>
<mask id="mask44_1631_20989" style="mask-type:luminance" maskUnits="userSpaceOnUse" x="2" y="8" width="100" height="100">
<path d="M102 8H2V108H102V8Z" fill="white"/>
</mask>
<g mask="url(#mask44_1631_20989)">
<path d="M34.9296 48.4193C35.6295 46.3831 37.6763 45.71 37.9028 45.6401C38.2901 45.5195 39.2702 45.2302 40.4174 45.6105C41.7678 46.0585 42.4155 47.1246 42.5813 47.4082C43.5409 49.0437 42.9969 50.7427 42.9045 51.0158C42.5722 51.6987 42.11 52.2836 41.559 52.8036C41.142 53.1973 40.4562 53.8112 39.4261 54.0377C39.2638 54.0729 38.0996 54.3128 36.9686 53.7561C35.2189 52.8961 34.2275 50.4626 34.9296 48.4193Z" fill="#111618"/>
</g>
<mask id="mask45_1631_20989" style="mask-type:luminance" maskUnits="userSpaceOnUse" x="2" y="8" width="100" height="100">
<path d="M102 8H2V108H102V8Z" fill="white"/>
</mask>
<g mask="url(#mask45_1631_20989)">
<path d="M39.3952 48.415C39.7424 48.415 40.0528 48.705 40.0549 49.031C40.057 49.3541 39.7663 49.6349 39.4234 49.6413C39.0784 49.6469 38.8273 49.3612 38.8209 48.9555C38.8153 48.6295 39.0439 48.415 39.3952 48.415Z" fill="white"/>
</g>
<mask id="mask46_1631_20989" style="mask-type:luminance" maskUnits="userSpaceOnUse" x="2" y="8" width="100" height="100">
<path d="M102 8H2V108H102V8Z" fill="white"/>
</mask>
<g mask="url(#mask46_1631_20989)">
<path d="M40.9473 48.3548C40.9494 47.9787 41.1815 47.7374 41.5399 47.7403C41.8052 47.7424 42.1495 48.0698 42.1502 48.3209C42.1517 48.594 41.7897 48.9397 41.5025 48.9397C41.2478 48.9397 40.9459 48.6215 40.9473 48.3548Z" fill="white"/>
</g>
<mask id="mask47_1631_20989" style="mask-type:luminance" maskUnits="userSpaceOnUse" x="2" y="8" width="100" height="100">
<path d="M102 8H2V108H102V8Z" fill="white"/>
</mask>
<g mask="url(#mask47_1631_20989)">
<path d="M39.8671 46.8487C40.21 46.8445 40.5197 47.1027 40.5246 47.3962C40.5289 47.6742 40.2311 47.907 39.872 47.907C39.5898 47.907 39.3019 47.6382 39.2984 47.3715C39.2948 47.0773 39.5397 46.8529 39.8671 46.8487Z" fill="white"/>
</g>
<mask id="mask48_1631_20989" style="mask-type:luminance" maskUnits="userSpaceOnUse" x="2" y="8" width="100" height="100">
<path d="M102 8H2V108H102V8Z" fill="white"/>
</mask>
<g mask="url(#mask48_1631_20989)">
<path d="M59.8678 49.5472C59.5355 49.5458 59.249 49.308 59.254 49.0392C59.2596 48.7683 59.5898 48.4945 59.9179 48.4903C60.1881 48.4867 60.4661 48.7407 60.4612 48.987C60.4541 49.3122 60.2036 49.5493 59.8678 49.5472Z" fill="white"/>
</g>
<mask id="mask49_1631_20989" style="mask-type:luminance" maskUnits="userSpaceOnUse" x="2" y="8" width="100" height="100">
<path d="M102 8H2V108H102V8Z" fill="white"/>
</mask>
<g mask="url(#mask49_1631_20989)">
<path d="M57.6442 48.9649C57.3422 48.9642 57.1609 48.7969 57.1708 48.5302C57.1786 48.3172 57.3768 48.1761 57.6682 48.1768C57.966 48.1768 58.1656 48.3341 58.1621 48.5655C58.1593 48.8033 57.9483 48.9656 57.6442 48.9649Z" fill="white"/>
</g>
<mask id="mask50_1631_20989" style="mask-type:luminance" maskUnits="userSpaceOnUse" x="2" y="8" width="100" height="100">
<path d="M102 8H2V108H102V8Z" fill="white"/>
</mask>
<g mask="url(#mask50_1631_20989)">
<path d="M58.7238 73.6566C58.8324 73.725 58.637 74.2027 58.546 74.4263C58.3491 74.9082 58.1862 75.3083 57.8355 75.393C57.6027 75.4494 57.3063 75.3626 57.2534 75.2053C57.2104 75.0776 57.3409 74.9421 57.7565 74.5244C58.5742 73.7032 58.6709 73.6227 58.7238 73.6566Z" fill="#D3D1CD"/>
</g>
<mask id="mask51_1631_20989" style="mask-type:luminance" maskUnits="userSpaceOnUse" x="2" y="8" width="100" height="100">
<path d="M102 8H2V108H102V8Z" fill="white"/>
</mask>
<g mask="url(#mask51_1631_20989)">
<path d="M69.8374 30.1881C70.1316 29.9439 71.0439 29.249 72.3781 29.2116C73.9924 29.1657 75.0649 30.1126 75.3908 30.4096C75.5193 30.5267 77.293 32.1925 76.869 34.2111C76.7998 34.5392 76.5931 35.5249 75.7006 36.0153C75.0486 36.3737 74.3805 36.2749 74.13 36.2241C72.6991 34.2119 71.2683 32.1996 69.8374 30.1881Z" fill="#C3C6BF"/>
</g>
<mask id="mask52_1631_20989" style="mask-type:luminance" maskUnits="userSpaceOnUse" x="2" y="8" width="100" height="100">
<path d="M102 8H2V108H102V8Z" fill="white"/>
</mask>
<g mask="url(#mask52_1631_20989)">
<path d="M80.4782 31.2103C80.318 30.6198 79.9871 29.4359 79.1327 28.2555C77.8881 26.536 76.2505 25.8121 75.6557 25.5581C73.4875 24.6317 71.5832 24.8639 70.8699 24.9605C67.8537 25.3683 66.6888 27.0391 66.6754 27.061C66.6464 27.1075 66.638 27.1569 66.638 27.1569C66.6352 27.1738 66.6338 27.1922 66.6345 27.2105C66.65 27.3446 66.7459 27.4222 66.8398 27.5012C67.6349 28.1694 68.3899 28.8813 69.1455 29.5925C69.3671 29.8006 69.5703 30.0306 69.837 30.1873C70.1375 29.9679 70.7733 29.5657 71.6799 29.4408C71.8746 29.414 72.626 29.3251 73.532 29.6165C73.8431 29.7167 74.6997 30.0321 75.3904 30.7983C76.489 32.0168 77.1183 34.3218 76.0134 35.498C75.8483 35.6737 75.3079 36.1824 74.1296 36.2226C74.8366 37.765 75.5435 39.3066 76.2505 40.849C76.9652 40.5124 78.394 39.7158 79.4827 38.0895C80.9375 35.9171 80.8338 33.6854 80.795 33.0497C80.7442 32.2059 80.5657 31.5342 80.4782 31.2103Z" fill="#4D4D4D"/>
</g>
<mask id="mask53_1631_20989" style="mask-type:luminance" maskUnits="userSpaceOnUse" x="2" y="8" width="100" height="100">
<path d="M102 8H2V108H102V8Z" fill="white"/>
</mask>
<g mask="url(#mask53_1631_20989)">
<path d="M68.6182 85.5736C68.8807 85.4169 69.4437 85.0811 70.2248 85.0931C70.3475 85.0952 70.9494 85.1121 71.5978 85.484C71.8384 85.6222 72.3175 85.896 72.6251 86.4746C72.9002 86.991 72.8918 87.4743 72.8861 87.7763C72.8833 87.9294 72.8643 88.3937 72.6011 89.064C72.472 89.392 72.0663 90.3234 71.0609 91.218C70.2495 91.9391 69.6476 92.4739 68.8271 92.4464C67.7454 92.409 66.86 91.4142 66.5121 90.5407C65.7424 88.6061 67.2593 86.3835 68.6182 85.5736Z" fill="#E1CFCF"/>
</g>
<mask id="mask54_1631_20989" style="mask-type:luminance" maskUnits="userSpaceOnUse" x="2" y="8" width="100" height="100">
<path d="M102 8H2V108H102V8Z" fill="white"/>
</mask>
<g mask="url(#mask54_1631_20989)">
<path d="M38.0577 86.7536C38.2827 87.0768 38.783 87.721 39.0892 88.0822C39.4314 88.4865 39.6311 88.6594 39.8216 88.8619C39.9507 88.9987 41.1791 90.3372 41.1276 91.797C41.0626 93.6434 38.9827 94.7603 38.7992 94.8556C36.7242 95.9329 34.5299 94.9868 34.036 94.7744C34.036 94.7744 32.5967 94.1733 31.0339 92.4884C30.6564 92.0813 30.3798 91.7483 30.111 91.3828C29.452 90.4889 29.1218 90.0415 28.7105 89.3677C28.46 88.9571 28.1615 88.4364 27.8525 87.8162C27.1709 86.5321 26.6855 85.1831 26.4922 83.736C26.4449 83.3811 26.3856 82.6678 26.3856 82.6678C26.2777 82.605 26.0879 82.473 25.9588 82.2374C25.7838 81.9164 25.7027 81.3667 26.0427 81.0485C26.3454 80.7656 26.7878 80.8467 26.8478 80.8587C26.8817 80.8728 26.9078 80.8622 26.9078 80.8622C26.8859 80.7388 26.8668 80.5497 26.9035 80.3267C26.9198 80.2272 27.0679 79.4025 27.7826 79.1322C28.2504 78.9551 28.6836 79.1209 28.8114 79.1753C28.8368 79.0969 28.8826 78.977 28.963 78.8444C29.2333 78.3977 29.79 77.98 30.413 78.0203C30.535 78.028 30.8194 78.0471 31.0642 78.2326C31.1982 78.3342 31.4092 78.553 31.4092 78.553C31.5087 78.4507 31.6879 78.2933 31.9525 78.1882C32.6362 77.9158 33.2698 78.2418 33.3636 78.2919C33.7023 78.4732 33.8914 78.7251 34.06 78.9495C34.1242 79.0356 34.1785 79.1153 34.2272 79.1971C34.393 79.4737 34.4742 79.7002 34.496 79.7616C34.7719 80.5179 36.9972 85.2332 38.0577 86.7536Z" fill="#4D4D4D"/>
</g>
<mask id="mask55_1631_20989" style="mask-type:luminance" maskUnits="userSpaceOnUse" x="2" y="8" width="100" height="100">
<path d="M102 8H2V108H102V8Z" fill="white"/>
</mask>
<g mask="url(#mask55_1631_20989)">
<path d="M31.3604 88.125C31.5918 87.4744 32.1633 87.0412 32.2184 87.0003C33.1462 86.3131 34.292 86.4951 34.6751 86.5565C36.8927 86.91 38.6573 89.1565 38.8189 91.2626C38.8527 91.7085 38.9197 92.577 38.3595 93.2233C37.6582 94.0333 36.4355 93.9613 36.1427 93.9444C33.3324 93.78 30.6457 90.1337 31.3604 88.125Z" fill="#E1CFCF"/>
</g>
<mask id="mask56_1631_20989" style="mask-type:luminance" maskUnits="userSpaceOnUse" x="2" y="8" width="100" height="100">
<path d="M102 8H2V108H102V8Z" fill="white"/>
</mask>
<g mask="url(#mask56_1631_20989)">
<path d="M32.2233 79.1559C32.2509 79.1101 32.3913 78.8878 32.6446 78.8518C32.9395 78.8095 33.2986 79.0318 33.3233 79.3662C33.3494 79.7161 32.9938 79.9828 32.6798 79.9744C32.4576 79.968 32.2071 79.8234 32.1415 79.5884C32.0858 79.3874 32.1909 79.2103 32.2233 79.1559Z" fill="#E1CFCF"/>
</g>
<mask id="mask57_1631_20989" style="mask-type:luminance" maskUnits="userSpaceOnUse" x="2" y="8" width="100" height="100">
<path d="M102 8H2V108H102V8Z" fill="white"/>
</mask>
<g mask="url(#mask57_1631_20989)">
<path d="M29.7378 79.1423C29.797 78.8981 30.0157 78.647 30.305 78.6307C30.6543 78.611 30.9534 78.9426 30.9732 79.2869C30.9958 79.6735 30.6642 80.0447 30.3142 80.0291C29.9283 80.0115 29.6439 79.531 29.7378 79.1423Z" fill="#E1CFCF"/>
</g>
<mask id="mask58_1631_20989" style="mask-type:luminance" maskUnits="userSpaceOnUse" x="2" y="8" width="100" height="100">
<path d="M102 8H2V108H102V8Z" fill="white"/>
</mask>
<g mask="url(#mask58_1631_20989)">
<path d="M27.9636 79.7372C28.188 79.6102 28.4639 79.6801 28.6318 79.8247C28.8752 80.0343 28.974 80.4738 28.7405 80.7772C28.4942 81.0968 28.0067 81.0997 27.7689 80.8393C27.4881 80.5317 27.6207 79.9305 27.9636 79.7372Z" fill="#E1CFCF"/>
</g>
<mask id="mask59_1631_20989" style="mask-type:luminance" maskUnits="userSpaceOnUse" x="2" y="8" width="100" height="100">
<path d="M102 8H2V108H102V8Z" fill="white"/>
</mask>
<g mask="url(#mask59_1631_20989)">
<path d="M26.7594 81.3485C26.9535 81.4226 27.0649 81.6526 26.9817 81.8494C26.8956 82.0519 26.6409 82.1267 26.4532 82.0301C26.2853 81.9433 26.1908 81.7295 26.2726 81.5432C26.3551 81.3548 26.5795 81.2793 26.7594 81.3485Z" fill="#E1CFCF"/>
</g>
<mask id="mask60_1631_20989" style="mask-type:luminance" maskUnits="userSpaceOnUse" x="2" y="8" width="100" height="100">
<path d="M102 8H2V108H102V8Z" fill="white"/>
</mask>
<g mask="url(#mask60_1631_20989)">
<path d="M68.4756 79.2099C68.7247 78.97 69.069 79.0356 69.1268 79.0469C69.1798 79.0568 69.5932 79.1429 69.6892 79.4759C69.7788 79.7857 69.5382 80.1166 69.2602 80.2457C68.9808 80.3748 68.5539 80.3494 68.3578 80.0382C68.1891 79.7722 68.2639 79.4138 68.4756 79.2099Z" fill="#E1CFCF"/>
</g>
<mask id="mask61_1631_20989" style="mask-type:luminance" maskUnits="userSpaceOnUse" x="2" y="8" width="100" height="100">
<path d="M102 8H2V108H102V8Z" fill="white"/>
</mask>
<g mask="url(#mask61_1631_20989)">
<path d="M72.166 78.8689C72.3826 78.9105 72.5414 79.0784 72.6013 79.2619C72.6874 79.5272 72.5611 79.808 72.3629 79.9498C72.0771 80.1537 71.6114 80.0895 71.4506 79.7953C71.3137 79.5455 71.4527 79.2315 71.6192 79.0657C71.6601 79.0241 71.8725 78.8124 72.166 78.8689Z" fill="#E1CFCF"/>
</g>
<mask id="mask62_1631_20989" style="mask-type:luminance" maskUnits="userSpaceOnUse" x="2" y="8" width="100" height="100">
<path d="M102 8H2V108H102V8Z" fill="white"/>
</mask>
<g mask="url(#mask62_1631_20989)">
<path d="M74.0792 79.4485C74.331 79.2664 74.6154 79.3504 74.6619 79.3652C74.9315 79.4506 75.1594 79.7137 75.1495 79.9953C75.1347 80.4115 74.6034 80.7474 74.2104 80.59C73.9726 80.4948 73.811 80.2288 73.8181 79.96C73.8188 79.9177 73.8308 79.6277 74.0792 79.4485Z" fill="#E1CFCF"/>
</g>
<mask id="mask63_1631_20989" style="mask-type:luminance" maskUnits="userSpaceOnUse" x="2" y="8" width="100" height="100">
<path d="M102 8H2V108H102V8Z" fill="white"/>
</mask>
<g mask="url(#mask63_1631_20989)">
<path d="M76.0079 81.2655C76.144 81.1843 76.3479 81.1554 76.5109 81.2655C76.6937 81.3889 76.7727 81.6514 76.6591 81.8574C76.5363 82.0804 76.2604 82.1079 76.0819 82.05C76.053 82.0409 75.8202 81.9604 75.7715 81.7396C75.7263 81.5378 75.8625 81.3523 76.0079 81.2655Z" fill="#E1CFCF"/>
</g>
</g>
</g>
</g>
<defs>
<clipPath id="clip0_1631_20989">
<rect width="100" height="100" fill="white"/>
</clipPath>
<clipPath id="clip1_1631_20989">
<rect width="100" height="100" fill="white" transform="translate(2 8)"/>
</clipPath>
</defs>
</svg>
