<svg width="100" height="100" viewBox="0 0 100 100" fill="none" xmlns="http://www.w3.org/2000/svg">
<g clip-path="url(#clip0_1631_21261)">
<rect opacity="0.5" width="100" height="100" rx="50" fill="#AFAFAF"/>
<g clip-path="url(#clip1_1631_21261)">
<mask id="mask0_1631_21261" style="mask-type:luminance" maskUnits="userSpaceOnUse" x="0" y="4" width="100" height="100">
<path d="M100 4H0V104H100V4Z" fill="white"/>
</mask>
<g mask="url(#mask0_1631_21261)">
<path d="M88.2785 56.8161C87.8318 55.0741 87.242 53.3702 86.5654 51.7043C85.8923 50.0477 85.0999 48.4454 84.3859 46.8064C83.6338 45.0813 82.979 43.2715 82.8168 41.3842C82.6467 39.4164 82.9713 37.4528 82.9931 35.4864C83.0616 29.2613 79.6566 23.1385 74.2901 19.9656C71.5123 18.323 68.2752 17.4785 65.0522 17.4834C63.4506 17.4862 61.8448 17.6993 60.3017 18.129C58.6345 18.5933 57.0844 19.3567 55.5293 20.1017C53.9185 20.8736 52.2626 21.6243 50.4775 21.8741C48.562 22.1422 46.6238 21.8466 44.7456 21.4585C42.9097 21.0796 41.0908 20.6112 39.2246 20.3945C37.5383 20.1991 35.8309 20.1871 34.1418 20.3529C27.6507 20.9879 21.4368 24.1827 17.4801 29.4179C15.5835 31.9269 14.2126 34.8818 13.706 37.9961C13.4619 39.4968 13.4118 41.0272 13.5981 42.537C13.833 44.4456 14.4469 46.2871 14.6501 48.1998C15.0452 51.9104 13.3645 55.3224 12.4727 58.8326C11.6543 62.0535 11.6649 65.45 12.5207 68.6631C13.3483 71.7711 14.9612 74.6625 17.2493 76.9315C19.4831 79.1463 22.3103 80.7698 25.3512 81.5762C26.8244 81.9671 28.3477 82.1611 29.8717 82.1484C30.1123 82.1463 30.1801 81.8761 30.0728 81.7265C30.1335 81.742 30.1942 81.759 30.2549 81.7766C30.2344 81.9191 30.317 82.0779 30.5018 82.0765C30.6987 82.075 30.8955 82.0715 31.0917 82.0687C31.3146 82.1611 31.5333 82.2634 31.7478 82.3763C31.9849 82.5019 32.2015 82.2359 32.1225 82.0468C36.2563 81.9269 40.3726 81.4746 44.4768 80.9793C49.1151 80.4198 53.7527 79.8053 58.4214 79.5633C60.9579 79.432 63.5007 79.4144 66.0358 79.5717C66.0315 79.7439 66.028 79.9153 66.0238 80.0875C65.8058 79.9859 65.5906 79.8772 65.3789 79.7601C65.0868 79.5978 64.825 80.0459 65.1171 80.2081C65.4092 80.3704 65.7077 80.5172 66.0104 80.6505C66.0033 80.9666 65.9956 81.2827 65.9885 81.5988C65.9807 81.9325 66.4993 81.9325 66.5071 81.5988C66.5127 81.3533 66.5184 81.1077 66.524 80.8622C69.1826 81.8796 72.1812 81.8761 74.9117 81.0788C78.1318 80.1383 80.9682 78.174 83.348 75.8485C85.8104 73.4433 87.8311 70.5815 88.6524 67.197C89.4829 63.78 89.1435 60.1908 88.2785 56.8161Z" fill="#B7C8CD"/>
</g>
<mask id="mask1_1631_21261" style="mask-type:luminance" maskUnits="userSpaceOnUse" x="0" y="4" width="100" height="100">
<path d="M100 4H0V104H100V4Z" fill="white"/>
</mask>
<g mask="url(#mask1_1631_21261)">
<path d="M80.0525 55.0046C79.9622 54.8811 79.8676 54.7619 79.7702 54.6462C79.7512 54.6102 79.7251 54.5756 79.6905 54.5425C79.6679 54.5206 79.6454 54.498 79.6228 54.4761C79.4281 54.2581 79.2234 54.0521 79.0118 53.851C78.3838 53.173 77.8144 52.4427 77.3135 51.6631C76.802 50.8665 76.3109 50.0022 76.1938 49.0532C76.2707 49.0829 76.3434 49.1436 76.4012 49.1873C76.5825 49.3235 76.754 49.4738 76.924 49.6233C77.2571 49.9147 77.5774 50.2202 77.8998 50.5229C78.5489 51.1325 79.2122 51.74 79.9763 52.2043C80.6473 52.6121 81.4967 52.998 82.3004 52.8668C82.7322 52.7962 83.0737 52.5443 83.3502 52.2141C83.6656 51.836 83.9549 51.4324 84.2392 51.0309C84.5172 50.6386 84.7846 50.2379 85.0394 49.8301C85.2757 49.4526 85.5396 49.0659 85.7202 48.6581C85.8966 48.2609 85.8641 47.8263 85.5078 47.5398C85.1678 47.2668 84.683 47.2054 84.283 47.0558C83.4561 46.7468 82.675 46.2875 82.0033 45.716C81.7028 45.4598 80.8893 44.7444 81.2816 44.2851C81.465 44.0706 81.815 44.1383 82.0513 44.2011C82.4316 44.3013 82.778 44.5017 83.1245 44.6823C83.9958 45.136 84.8474 45.6256 85.6786 46.1499C86.0871 46.4074 86.4893 46.6741 86.8872 46.9479C87.1151 47.1045 87.374 46.9069 87.4509 46.6974C87.542 46.4497 87.6309 46.2007 87.7191 45.9523C89.5288 42.6397 90.9082 39.0957 91.8141 35.431C91.8593 35.2476 91.764 35.0987 91.6215 34.9978C88.6539 32.8953 85.0986 31.4559 81.4713 31.0658C80.6303 30.9755 79.778 30.9698 78.949 31.1582C78.5271 31.2542 78.0741 31.3988 77.7093 31.6373C77.3001 31.9047 77.0877 32.2956 77.0214 32.7732C76.8796 33.7927 76.7977 34.8236 76.687 35.8473C76.6333 36.3391 76.5825 37.9576 75.7069 37.6613C74.8081 37.3565 74.9527 35.9645 74.9217 35.2307C74.8723 34.0665 74.8229 32.9023 74.7735 31.7389C74.7636 31.5025 74.5223 31.2873 74.2789 31.372C71.8793 32.2088 70.169 34.5145 69.9743 37.0369C69.8621 38.4918 70.4717 39.8175 70.6474 41.2357C70.6827 41.5214 70.768 41.9617 70.5783 42.215C70.4174 42.4295 70.0921 42.464 69.8494 42.4125C69.1629 42.2672 68.7389 41.4276 68.4362 40.8688C67.6643 39.4457 67.2854 37.8342 67.3122 36.2177C67.3179 35.9038 66.8515 35.6829 66.6434 35.9553C65.1391 37.921 63.8169 40.2267 63.9263 42.7844C64.0215 45.0182 65.2548 47.1673 67.4971 47.8023C68.1201 47.9787 68.784 48.0196 69.4183 47.906C69.3421 47.9935 69.2666 48.081 69.1911 48.1692C67.7116 49.9027 66.4098 51.788 65.3233 53.7918C65.0848 54.2313 65.7678 54.6046 66.007 54.1629C67.2276 51.9122 68.7233 49.8223 70.4407 47.9307C69.7789 49.6015 69.8572 51.5841 70.5112 53.2351C70.9705 54.3957 71.7057 55.4477 72.7514 56.149C73.7575 56.8242 74.9901 57.0274 76.1768 56.8623C77.4991 56.6789 78.7317 56.1335 79.9156 55.5387C80.092 55.4498 80.1703 55.1662 80.0525 55.0046Z" fill="#89A767"/>
</g>
<mask id="mask2_1631_21261" style="mask-type:luminance" maskUnits="userSpaceOnUse" x="0" y="4" width="100" height="100">
<path d="M100 4H0V104H100V4Z" fill="white"/>
</mask>
<g mask="url(#mask2_1631_21261)">
<path d="M82.7273 48.0379C80.6685 47.144 78.6633 46.1301 76.7258 44.9977C76.2439 44.7161 75.7627 44.4311 75.2928 44.1291C75.0162 43.952 74.7573 43.758 74.5358 43.5266C76.3568 41.9355 78.3302 40.5195 80.4215 39.3038C80.6826 39.4463 81.005 39.5148 81.2717 39.6009C82.1022 39.8683 82.9382 40.1152 83.7807 40.3431C84.7184 40.5957 85.6624 40.8229 86.6121 41.0268C87.1003 41.1312 87.2866 40.3763 86.7948 40.2704C84.9456 39.8739 83.1175 39.3835 81.319 38.7993C82.3293 38.2483 83.3644 37.7431 84.4213 37.2866C85.9503 36.6269 87.5251 36.0766 89.1281 35.6286C89.6114 35.4938 89.399 34.7452 88.9164 34.88C86.1161 35.6624 83.4131 36.7709 80.8667 38.165C80.9105 38.038 80.957 37.9125 81.0015 37.7869C81.1617 37.3367 81.3373 36.8929 81.5257 36.4541C81.9053 35.5735 82.3385 34.7177 82.8197 33.8887C83.0709 33.4562 82.3872 33.0836 82.136 33.5175C81.3013 34.9562 80.6155 36.4788 80.0892 38.0564C80.0222 38.2575 79.9601 38.4684 79.9714 38.6702C77.8843 39.8866 75.9109 41.2977 74.0849 42.8838C73.6672 42.064 73.5811 41.0797 73.4894 40.1808C73.3638 38.9546 73.3236 37.7213 73.3638 36.4893C73.3801 35.9877 72.6025 36.0046 72.5863 36.5042C72.5496 37.6401 72.58 38.7775 72.6837 39.9092C72.781 40.9725 72.8819 42.0879 73.318 43.0743C73.3702 43.1921 73.4287 43.3036 73.4915 43.4102C73.4513 43.4468 73.4104 43.4828 73.3702 43.5195C72.6216 44.2039 71.9019 44.9186 71.2112 45.6609C70.2001 45.7921 69.1277 45.62 68.2775 45.0365C67.4082 44.4396 66.8798 43.4052 66.9792 42.3504C66.999 42.1394 66.776 41.9673 66.5827 41.9687C66.3527 41.9708 66.2208 42.1571 66.201 42.3652C66.0768 43.674 66.7909 44.9349 67.8428 45.6764C68.6154 46.2211 69.5439 46.4582 70.4781 46.4716C70.2671 46.7122 70.0576 46.9549 69.8523 47.2011C69.5334 47.5835 70.0915 48.1261 70.4125 47.7409C70.5995 47.5165 70.7907 47.295 70.9826 47.0748C70.9988 47.2858 71.0355 47.4967 71.0821 47.7035C71.2528 48.4542 71.5012 49.1936 71.7742 49.9126C72.2342 51.1212 72.8368 52.787 74.2888 53.0551C74.7792 53.1454 74.9662 52.3898 74.4716 52.2988C73.9205 52.1972 73.5508 51.7915 73.2686 51.3314C72.9398 50.7952 72.7084 50.1969 72.4882 49.6099C72.2561 48.9904 72.0529 48.3589 71.8857 47.7183C71.7552 47.218 71.6366 46.6564 71.9062 46.1823C71.9407 46.1209 71.9562 46.0602 71.957 46.0024C72.6018 45.3208 73.2707 44.6632 73.9643 44.0325C74.4546 44.5461 75.0804 44.92 75.7126 45.3018C76.7159 45.9064 77.7383 46.4793 78.7776 47.0205C79.9488 47.6294 81.1419 48.1959 82.3526 48.7216C82.8112 48.9198 83.188 48.2383 82.7273 48.0379Z" fill="#6F8B50"/>
</g>
<mask id="mask3_1631_21261" style="mask-type:luminance" maskUnits="userSpaceOnUse" x="0" y="4" width="100" height="100">
<path d="M100 4H0V104H100V4Z" fill="white"/>
</mask>
<g mask="url(#mask3_1631_21261)">
<path d="M82.1353 72.0894C81.9173 73.6889 81.9406 75.3343 82.2525 76.9203C82.5276 78.3216 83.1161 79.7673 84.4637 80.4418C85.0451 80.7332 85.7231 80.8411 86.3581 80.6824C87.0446 80.5102 87.5844 80.0192 87.9054 79.3976C88.5905 78.0711 88.1107 76.5506 87.276 75.4182C86.1669 73.9133 84.5575 72.8782 83.0081 71.8813C82.9037 71.8142 82.7837 71.7839 82.673 71.8058C82.4599 71.7176 82.1756 71.7952 82.1353 72.0894Z" fill="#89A767"/>
</g>
<mask id="mask4_1631_21261" style="mask-type:luminance" maskUnits="userSpaceOnUse" x="0" y="4" width="100" height="100">
<path d="M100 4H0V104H100V4Z" fill="white"/>
</mask>
<g mask="url(#mask4_1631_21261)">
<path d="M82.1755 70.217C83.1111 71.0912 84.1158 71.9576 85.2235 72.6067C86.1887 73.1718 87.3797 73.416 88.3929 72.8275C89.315 72.292 89.5712 71.1271 89.1626 70.1803C88.6984 69.1036 87.5497 68.5434 86.4328 68.4277C85.7633 68.3585 85.0895 68.4185 84.4248 68.5025C83.6783 68.597 82.9326 68.6986 82.1868 68.7974C81.6993 68.8616 81.7698 69.6123 82.2475 69.5728C82.052 69.6998 81.9518 70.0074 82.1755 70.217Z" fill="#89A767"/>
</g>
<mask id="mask5_1631_21261" style="mask-type:luminance" maskUnits="userSpaceOnUse" x="0" y="4" width="100" height="100">
<path d="M100 4H0V104H100V4Z" fill="white"/>
</mask>
<g mask="url(#mask5_1631_21261)">
<path d="M79.797 66.055C81.0289 66.4967 82.6658 66.7662 83.8025 65.9223C84.9441 65.075 84.6202 63.3837 83.6783 62.5244C83.1005 61.9973 82.3441 61.725 81.599 61.5352C80.8392 61.3419 80.0546 61.2064 79.2721 61.1556C77.6522 61.0519 75.9419 61.3609 74.6846 62.4552C74.4913 62.6238 74.4623 62.8913 74.6627 63.0719C74.9449 63.3266 75.2271 63.5813 75.5094 63.836C75.5884 63.9073 75.6738 63.9362 75.7542 63.9348C77.0228 64.7589 78.3725 65.5449 79.797 66.055Z" fill="#89A767"/>
</g>
<mask id="mask6_1631_21261" style="mask-type:luminance" maskUnits="userSpaceOnUse" x="0" y="4" width="100" height="100">
<path d="M100 4H0V104H100V4Z" fill="white"/>
</mask>
<g mask="url(#mask6_1631_21261)">
<path d="M74.192 75.0904C74.8743 74.6 75.3569 73.819 75.5933 73.0224C75.831 72.2209 75.8063 71.3749 75.685 70.5543C75.4338 68.8539 74.8172 67.174 73.6918 65.8546C73.5761 65.7192 73.4209 65.6902 73.284 65.7255C73.1231 65.6422 72.939 65.7001 72.8091 65.8257C71.585 67.0082 70.7052 68.5054 70.243 70.1416C69.8599 71.4956 69.7527 73.1748 70.6657 74.3538C71.4827 75.41 73.0377 75.9208 74.192 75.0904Z" fill="#89A767"/>
</g>
<mask id="mask7_1631_21261" style="mask-type:luminance" maskUnits="userSpaceOnUse" x="0" y="4" width="100" height="100">
<path d="M100 4H0V104H100V4Z" fill="white"/>
</mask>
<g mask="url(#mask7_1631_21261)">
<path d="M79.7119 71.3831C78.5569 71.424 78.1836 72.9762 78.0143 73.873C77.7991 75.0125 77.7914 76.3756 78.2641 77.4565C78.7255 78.5106 79.9391 79.2712 81.0186 78.5621C82.0713 77.8707 82.0656 76.4899 81.8483 75.3907C81.5837 74.0522 81.0383 72.7865 80.246 71.6752C80.186 71.5905 80.1105 71.5433 80.0322 71.5249C79.9624 71.4367 79.8544 71.3782 79.7119 71.3831Z" fill="#89A767"/>
</g>
<mask id="mask8_1631_21261" style="mask-type:luminance" maskUnits="userSpaceOnUse" x="0" y="4" width="100" height="100">
<path d="M100 4H0V104H100V4Z" fill="white"/>
</mask>
<g mask="url(#mask8_1631_21261)">
<path d="M80.7093 76.4505C80.0299 74.3133 79.754 72.0598 79.8916 69.8232C80.8617 70.9196 81.7599 72.0795 82.5748 73.298C83.612 74.8496 84.5095 76.4886 85.2559 78.1988C85.4556 78.6567 86.1837 78.3823 85.9834 77.9223C84.6964 74.973 82.9699 72.2228 80.8815 69.7759C82.9897 70.0828 85.0224 70.7813 86.8808 71.8425C87.3155 72.0901 87.6315 71.3789 87.1997 71.1327C85.0287 69.8937 82.5974 69.1296 80.1089 68.901C78.3429 66.9727 76.361 65.2568 74.202 63.7864C74.3078 63.7709 74.4143 63.7596 74.5089 63.7448C75.5679 63.5748 76.6425 63.4978 77.7149 63.5176C78.9348 63.5409 80.1526 63.6975 81.3429 63.9656C81.8312 64.0757 81.949 63.3059 81.4614 63.1966C79.1896 62.6858 76.8175 62.5997 74.5159 62.9574C74.1448 63.0152 73.7222 63.059 73.392 63.2516C73.1951 63.126 72.9976 63.0011 72.7979 62.8798C71.1653 61.8835 69.4458 61.0347 67.6615 60.3454C67.1965 60.1655 66.8748 60.8739 67.3425 61.0552C69.2821 61.8045 71.142 62.7443 72.8953 63.8542C72.7132 64.2909 72.6801 64.8243 72.6124 65.2681C72.4317 66.4555 72.3365 67.6529 72.3132 68.853C72.2864 70.2063 72.3647 71.5602 72.5411 72.9015C72.606 73.3968 73.38 73.3171 73.3144 72.819C73.0244 70.6141 73.0053 68.381 73.2735 66.1726C73.3391 65.6322 73.4209 65.0938 73.5197 64.5583C73.5345 64.4765 73.5479 64.384 73.5691 64.293C74.3692 64.8278 75.146 65.3986 75.896 66.0033C77.0574 66.9396 78.1524 67.9556 79.1747 69.0386C78.9186 71.6294 79.1931 74.2456 79.9819 76.727C80.1336 77.2047 80.8603 76.9267 80.7093 76.4505Z" fill="#6F8B50"/>
</g>
<mask id="mask9_1631_21261" style="mask-type:luminance" maskUnits="userSpaceOnUse" x="0" y="4" width="100" height="100">
<path d="M100 4H0V104H100V4Z" fill="white"/>
</mask>
<g mask="url(#mask9_1631_21261)">
<path d="M49.3566 18.8425C50.2223 17.4801 50.8876 15.9744 51.2665 14.4039C51.601 13.0153 51.6701 11.456 50.7268 10.2806C50.3197 9.77328 49.7489 9.39228 49.1054 9.27163C48.4097 9.1411 47.714 9.36265 47.1637 9.79374C45.9875 10.7131 45.7893 12.2949 46.075 13.6729C46.4546 15.5031 47.4854 17.116 48.4767 18.6682C48.5438 18.7727 48.6397 18.8503 48.7498 18.8771C48.9064 19.045 49.1971 19.093 49.3566 18.8425Z" fill="#89A767"/>
</g>
<mask id="mask10_1631_21261" style="mask-type:luminance" maskUnits="userSpaceOnUse" x="0" y="4" width="100" height="100">
<path d="M100 4H0V104H100V4Z" fill="white"/>
</mask>
<g mask="url(#mask10_1631_21261)">
<path d="M48.5381 20.5275C48.0527 19.3429 47.5016 18.1364 46.7658 17.0837C46.1251 16.1672 45.1444 15.4482 43.9781 15.5604C42.9162 15.662 42.1973 16.6138 42.174 17.6446C42.1472 18.8165 42.9565 19.805 43.9231 20.3765C44.5023 20.7187 45.1394 20.9452 45.7794 21.1463C46.4969 21.3721 47.2173 21.5901 47.9363 21.8123C48.4062 21.9577 48.6559 21.2458 48.2044 21.0821C48.4344 21.0489 48.6545 20.8111 48.5381 20.5275Z" fill="#89A767"/>
</g>
<mask id="mask11_1631_21261" style="mask-type:luminance" maskUnits="userSpaceOnUse" x="0" y="4" width="100" height="100">
<path d="M100 4H0V104H100V4Z" fill="white"/>
</mask>
<g mask="url(#mask11_1631_21261)">
<path d="M48.963 25.3016C48.0282 24.3865 46.6523 23.458 45.2673 23.7501C43.876 24.0436 43.4646 25.7158 43.962 26.8898C44.2668 27.6095 44.8412 28.1732 45.4388 28.6565C46.0484 29.149 46.7045 29.5998 47.3953 29.9724C48.824 30.7428 50.5075 31.1761 52.107 30.7062C52.3532 30.6342 52.4908 30.4021 52.3843 30.1551C52.234 29.8059 52.0837 29.4566 51.9334 29.1081C51.8911 29.01 51.8262 28.9486 51.7521 28.9162C50.9428 27.6377 50.0446 26.3599 48.963 25.3016Z" fill="#89A767"/>
</g>
<mask id="mask12_1631_21261" style="mask-type:luminance" maskUnits="userSpaceOnUse" x="0" y="4" width="100" height="100">
<path d="M100 4H0V104H100V4Z" fill="white"/>
</mask>
<g mask="url(#mask12_1631_21261)">
<path d="M57.8269 19.4302C57.0021 19.5918 56.2379 20.0998 55.6904 20.7249C55.1394 21.3543 54.8092 22.1332 54.5771 22.9291C54.0959 24.5787 53.9548 26.3631 54.4268 28.0317C54.4755 28.2031 54.6039 28.2942 54.7436 28.3196C54.855 28.4621 55.0463 28.4868 55.217 28.4268C56.8228 27.8631 58.2467 26.8696 59.3501 25.5757C60.2631 24.5053 61.0618 23.0237 60.7246 21.5709C60.4226 20.2699 59.2224 19.1572 57.8269 19.4302Z" fill="#89A767"/>
</g>
<mask id="mask13_1631_21261" style="mask-type:luminance" maskUnits="userSpaceOnUse" x="0" y="4" width="100" height="100">
<path d="M100 4H0V104H100V4Z" fill="white"/>
</mask>
<g mask="url(#mask13_1631_21261)">
<path d="M51.2636 20.4956C52.3304 20.9408 53.3175 19.6856 53.8452 18.9413C54.5162 17.9958 55.0919 16.7604 55.1138 15.5807C55.135 14.4299 54.349 13.2326 53.0726 13.4259C51.8273 13.615 51.2565 14.8716 50.9948 15.9617C50.6766 17.2882 50.6441 18.6668 50.9002 20.0067C50.92 20.1083 50.968 20.1831 51.0315 20.2324C51.0583 20.3425 51.1324 20.4413 51.2636 20.4956Z" fill="#89A767"/>
</g>
<mask id="mask14_1631_21261" style="mask-type:luminance" maskUnits="userSpaceOnUse" x="0" y="4" width="100" height="100">
<path d="M100 4H0V104H100V4Z" fill="white"/>
</mask>
<g mask="url(#mask14_1631_21261)">
<path d="M52.4722 15.474C52.1977 17.6993 51.5077 19.8633 50.4494 21.8381C50.0253 20.4369 49.693 19.0081 49.4616 17.561C49.1667 15.7181 49.0347 13.8547 49.0707 11.9885C49.0799 11.489 48.3045 11.4347 48.2946 11.9363C48.2332 15.153 48.6544 18.3731 49.5307 21.4684C47.7429 20.3099 46.1871 18.8261 44.9411 17.0869C44.6497 16.6805 44.0655 17.1949 44.3555 17.5984C45.811 19.6304 47.7019 21.3393 49.868 22.586C50.6681 25.0752 51.7525 27.4621 53.1016 29.6987C52.9986 29.6691 52.8977 29.6345 52.8052 29.6084C51.7723 29.3213 50.7626 28.9424 49.7967 28.4767C48.6975 27.9461 47.6568 27.2956 46.6866 26.5555C46.2887 26.2521 45.8604 26.9019 46.2577 27.2046C48.109 28.6171 50.2285 29.6853 52.4694 30.321C52.8306 30.4233 53.2335 30.5602 53.6138 30.5221C53.7401 30.7183 53.8678 30.9144 53.9983 31.1084C55.0658 32.6952 56.2745 34.1847 57.608 35.5556C57.9558 35.9133 58.5435 35.4039 58.1936 35.044C56.7436 33.5532 55.4461 31.9234 54.3158 30.1827C54.663 29.8617 54.9163 29.3911 55.1625 29.0158C55.8215 28.0117 56.4085 26.964 56.9306 25.8831C57.5198 24.6639 58.0137 23.4016 58.413 22.1084C58.5605 21.6307 57.8239 21.3809 57.6757 21.8607C57.0188 23.9858 56.1037 26.0228 54.9388 27.9179C54.6538 28.3815 54.3546 28.8365 54.0414 29.2817C53.9934 29.3495 53.9433 29.4285 53.8861 29.5026C53.3824 28.6827 52.9146 27.8403 52.4849 26.9774C51.8203 25.6418 51.2495 24.2617 50.7725 22.8506C52.0863 20.6034 52.9287 18.1107 53.2476 15.5269C53.3097 15.0288 52.5336 14.9787 52.4722 15.474Z" fill="#6F8B50"/>
</g>
<mask id="mask15_1631_21261" style="mask-type:luminance" maskUnits="userSpaceOnUse" x="0" y="4" width="100" height="100">
<path d="M100 4H0V104H100V4Z" fill="white"/>
</mask>
<g mask="url(#mask15_1631_21261)">
<path d="M30.5639 78.7675C30.4919 78.6327 30.4256 78.4958 30.3628 78.3575C30.3388 78.3251 30.3184 78.2863 30.3036 78.2411C30.2937 78.2108 30.2831 78.1811 30.2732 78.1515C30.161 77.882 30.0644 77.6075 29.9748 77.3302C29.6361 76.4702 29.2255 75.6411 28.7393 74.8509C28.2433 74.0445 27.6775 73.2274 26.8731 72.7103C26.8668 72.7921 26.8894 72.8838 26.9035 72.9551C26.9472 73.1773 27.0086 73.3975 27.0693 73.6155C27.1878 74.0416 27.324 74.4629 27.4566 74.8848C27.7248 75.7343 27.9837 76.5951 28.0712 77.4848C28.1481 78.2658 28.1269 79.1986 27.6605 79.866C27.4094 80.2244 27.0347 80.4234 26.617 80.5285C26.1401 80.6492 25.6504 80.7339 25.1657 80.8164C24.6916 80.8968 24.2146 80.9639 23.7369 81.0168C23.2939 81.0662 22.8317 81.136 22.3858 81.1219C21.9512 81.1085 21.5737 80.8905 21.47 80.446C21.3712 80.0212 21.5264 79.5577 21.5652 79.1322C21.645 78.2531 21.5702 77.35 21.3465 76.497C21.2463 76.1153 20.9542 75.0718 20.37 75.2263C20.097 75.2982 20.0067 75.6433 19.9601 75.8832C19.886 76.2691 19.9156 76.6684 19.9283 77.0586C19.9594 78.04 20.0314 79.0208 20.1435 79.9965C20.1986 80.4763 20.2642 80.9547 20.3383 81.4316C20.3806 81.7054 20.0906 81.8529 19.8684 81.831C19.6059 81.8056 19.3434 81.7781 19.081 81.7492C15.3112 81.9432 11.5195 81.6497 7.82451 80.8771C7.63966 80.8383 7.54653 80.688 7.5176 80.5158C6.91011 76.9302 7.15494 73.1026 8.37555 69.6651C8.65848 68.8678 9.02326 68.0973 9.55242 67.4327C9.82195 67.094 10.1486 66.7483 10.5219 66.5232C10.9403 66.2706 11.384 66.2488 11.8434 66.3962C12.8234 66.7109 13.7879 67.0842 14.758 67.4278C15.2244 67.5929 16.7054 68.249 16.8175 67.3311C16.9326 66.3892 15.616 65.9158 14.9683 65.5693C13.941 65.0204 12.913 64.4708 11.8857 63.9218C11.6769 63.8104 11.5872 63.4992 11.7693 63.3172C13.5642 61.5173 16.3829 60.9761 18.7409 61.8948C20.1005 62.4247 21.0304 63.5486 22.2327 64.3226C22.4747 64.4785 22.8352 64.7459 23.1443 64.6853C23.4074 64.6338 23.5796 64.3551 23.6382 64.1145C23.8054 63.4329 23.2325 62.6871 22.8599 62.1714C21.9124 60.8583 20.6247 59.8183 19.1565 59.1417C18.8714 59.0105 18.8742 58.4947 19.2101 58.4249C21.6337 57.9218 24.2845 57.7306 26.5422 58.9378C28.5143 59.9926 29.9162 62.0352 29.5155 64.3311C29.404 64.9689 29.1528 65.5856 28.776 66.1077C28.8875 66.0766 28.9997 66.0463 29.1112 66.0166C31.3146 65.4353 33.5788 65.0797 35.8549 64.9696C36.3544 64.9456 36.3946 65.7224 35.893 65.7464C33.3353 65.8699 30.8038 66.3123 28.3541 67.039C30.1462 67.1674 31.8988 68.0973 33.1032 69.4026C33.9499 70.3198 34.5792 71.4381 34.7577 72.6849C34.9299 73.8836 34.5785 75.0831 33.9153 76.0807C33.1759 77.1927 32.1507 78.0669 31.1015 78.8754C30.9477 78.9954 30.6585 78.9431 30.5639 78.7675Z" fill="#89A767"/>
</g>
<mask id="mask16_1631_21261" style="mask-type:luminance" maskUnits="userSpaceOnUse" x="0" y="4" width="100" height="100">
<path d="M100 4H0V104H100V4Z" fill="white"/>
</mask>
<g mask="url(#mask16_1631_21261)">
<path d="M23.1276 78.1559C23.2151 75.9136 23.1707 73.6664 22.99 71.4291C22.9449 70.8724 22.8969 70.315 22.8292 69.7612C22.789 69.4352 22.7269 69.1177 22.614 68.8178C20.3908 69.7689 18.2593 70.9331 16.2569 72.2899C16.2724 72.5876 16.1941 72.9072 16.156 73.1845C16.0368 74.0481 15.8971 74.9096 15.7369 75.7669C15.5584 76.7215 15.3538 77.6704 15.1252 78.6145C15.0074 79.0999 14.2461 78.9397 14.3646 78.4515C14.8091 76.6135 15.1605 74.753 15.4138 72.879C14.4796 73.55 13.5751 74.264 12.7058 75.019C11.4485 76.1105 10.2695 77.2909 9.17099 78.5418C8.83938 78.9186 8.2573 78.4028 8.5882 78.0268C10.5073 75.8431 12.6783 73.888 15.0391 72.1981C14.9058 72.1826 14.7724 72.1699 14.6398 72.1558C14.1649 72.105 13.6887 72.0704 13.2117 72.0507C12.2536 72.0105 11.2947 72.0302 10.3394 72.1043C9.84057 72.1431 9.80176 71.3656 10.3013 71.3275C11.9601 71.1991 13.6287 71.2414 15.279 71.4517C15.4893 71.4785 15.7066 71.5138 15.883 71.6118C17.8839 70.2586 20.0119 69.0923 22.2323 68.1348C21.6742 67.4025 20.8254 66.8987 20.0549 66.426C19.0043 65.7811 17.91 65.2103 16.7825 64.7122C16.3232 64.5097 16.676 63.8161 17.1332 64.0179C18.1732 64.4772 19.1843 64.9979 20.1593 65.5821C21.0752 66.1311 22.0368 66.7054 22.736 67.5267C22.82 67.6247 22.8948 67.7256 22.9632 67.8286C23.014 67.8082 23.0641 67.787 23.1142 67.7665C24.0554 67.3884 25.0115 67.0497 25.9802 66.7498C26.5369 65.8954 26.8473 64.854 26.69 63.8359C26.5291 62.7938 25.8257 61.8688 24.8329 61.5019C24.634 61.4285 24.5761 61.1527 24.6608 60.9791C24.7624 60.7731 24.9875 60.735 25.1829 60.8069C26.4162 61.2627 27.2424 62.4523 27.4548 63.7223C27.6107 64.655 27.4216 65.5948 27.0279 66.4415C27.3363 66.3554 27.646 66.2722 27.9565 66.1939C28.4391 66.0725 28.686 66.8105 28.1999 66.9326C27.9162 67.0038 27.634 67.08 27.3525 67.1576C27.5352 67.2642 27.7102 67.3884 27.876 67.5203C28.4786 67.9994 29.0374 68.5441 29.5665 69.1022C30.4562 70.0413 31.6959 71.3063 31.3071 72.7308C31.1759 73.212 30.4146 73.0526 30.5466 72.5679C30.694 72.0274 30.4887 71.5187 30.1966 71.0643C29.8565 70.5352 29.4177 70.0674 28.9837 69.6144C28.5265 69.1367 28.0454 68.6795 27.5409 68.2513C27.1465 67.9168 26.6921 67.5669 26.1474 67.6036C26.0768 67.6085 26.0155 67.5958 25.9633 67.5718C25.07 67.8576 24.1874 68.1751 23.3181 68.5264C23.5679 69.1911 23.6342 69.9171 23.7034 70.6523C23.8134 71.8186 23.8861 72.9884 23.9228 74.1589C23.9637 75.4783 23.9566 76.7991 23.9058 78.1178C23.8854 78.6138 23.1079 78.6575 23.1276 78.1559Z" fill="#6F8B50"/>
</g>
<mask id="mask17_1631_21261" style="mask-type:luminance" maskUnits="userSpaceOnUse" x="0" y="4" width="100" height="100">
<path d="M100 4H0V104H100V4Z" fill="white"/>
</mask>
<g mask="url(#mask17_1631_21261)">
<path d="M16.3688 37.7232C14.7728 37.9645 13.1268 37.9652 11.5364 37.6767C10.1317 37.422 8.67682 36.8547 7.98326 35.517C7.6834 34.9398 7.56557 34.2632 7.71515 33.6268C7.87743 32.9374 8.36073 32.3913 8.97739 32.0611C10.294 31.3563 11.8208 31.8142 12.9652 32.6326C14.4857 33.7192 15.5447 35.3145 16.5642 36.8483C16.6327 36.9521 16.6651 37.0713 16.6447 37.1828C16.7364 37.3923 16.6623 37.6788 16.3688 37.7232Z" fill="#89A767"/>
</g>
<mask id="mask18_1631_21261" style="mask-type:luminance" maskUnits="userSpaceOnUse" x="0" y="4" width="100" height="100">
<path d="M100 4H0V104H100V4Z" fill="white"/>
</mask>
<g mask="url(#mask18_1631_21261)">
<path d="M18.2417 37.6554C17.3541 36.7332 16.4728 35.7412 15.8075 34.6426C15.2282 33.6859 14.9672 32.4984 15.5401 31.4768C16.0622 30.5469 17.2235 30.2738 18.1753 30.6682C19.2584 31.117 19.8355 32.2564 19.9675 33.3726C20.0465 34.0408 19.9964 34.7153 19.9223 35.3814C19.839 36.1292 19.7473 36.8757 19.6598 37.6229C19.6027 38.1119 18.8506 38.0519 18.8837 37.5735C18.7603 37.7711 18.454 37.8762 18.2417 37.6554Z" fill="#89A767"/>
</g>
<mask id="mask19_1631_21261" style="mask-type:luminance" maskUnits="userSpaceOnUse" x="0" y="4" width="100" height="100">
<path d="M100 4H0V104H100V4Z" fill="white"/>
</mask>
<g mask="url(#mask19_1631_21261)">
<path d="M22.4365 39.9733C21.9772 38.7478 21.6837 37.1151 22.5106 35.9658C23.341 34.8122 25.0372 35.1113 25.91 36.0398C26.4455 36.6099 26.7291 37.3621 26.9288 38.1043C27.1327 38.8614 27.2802 39.6431 27.3423 40.4256C27.47 42.0441 27.1856 43.7586 26.1104 45.0315C25.9446 45.2276 25.6771 45.2594 25.4944 45.0625C25.2355 44.7838 24.9772 44.5058 24.7183 44.2271C24.6456 44.1488 24.6153 44.0649 24.616 43.9837C23.7736 42.7278 22.9678 41.3894 22.4365 39.9733Z" fill="#89A767"/>
</g>
<mask id="mask20_1631_21261" style="mask-type:luminance" maskUnits="userSpaceOnUse" x="0" y="4" width="100" height="100">
<path d="M100 4H0V104H100V4Z" fill="white"/>
</mask>
<g mask="url(#mask20_1631_21261)">
<path d="M13.4845 45.7091C13.965 45.0198 14.739 44.5259 15.5314 44.2782C16.3293 44.0285 17.176 44.0412 17.9973 44.1505C19.7012 44.377 21.3903 44.969 22.7252 46.0746C22.8621 46.1882 22.8938 46.3427 22.8607 46.4803C22.9461 46.6397 22.891 46.8246 22.7676 46.9565C21.6034 48.1976 20.1189 49.0993 18.4898 49.5854C17.1414 49.9883 15.4636 50.1203 14.2712 49.2249C13.2044 48.4227 12.671 46.8754 13.4845 45.7091Z" fill="#89A767"/>
</g>
<mask id="mask21_1631_21261" style="mask-type:luminance" maskUnits="userSpaceOnUse" x="0" y="4" width="100" height="100">
<path d="M100 4H0V104H100V4Z" fill="white"/>
</mask>
<g mask="url(#mask21_1631_21261)">
<path d="M17.112 40.136C17.088 41.2917 15.5414 41.6875 14.6475 41.8695C13.5115 42.1009 12.1484 42.1292 11.0611 41.672C9.99997 41.2261 9.22174 40.0238 9.9153 38.9337C10.5912 37.8704 11.972 37.8563 13.0748 38.0574C14.4168 38.3022 15.691 38.8293 16.8128 39.6047C16.8982 39.664 16.9469 39.738 16.9666 39.8156C17.0541 39.8862 17.1148 39.9942 17.112 40.136Z" fill="#89A767"/>
</g>
<mask id="mask22_1631_21261" style="mask-type:luminance" maskUnits="userSpaceOnUse" x="0" y="4" width="100" height="100">
<path d="M100 4H0V104H100V4Z" fill="white"/>
</mask>
<g mask="url(#mask22_1631_21261)">
<path d="M12.0298 39.2126C14.1761 39.861 16.4345 40.1037 18.6683 39.9337C17.5578 38.9798 16.3852 38.0985 15.1547 37.302C13.5883 36.2874 11.9366 35.4139 10.2158 34.6928C9.75504 34.4995 10.0182 33.7678 10.4811 33.9619C13.4486 35.2058 16.2243 36.8913 18.7008 38.9445C18.3628 36.8412 17.6347 34.8184 16.5474 32.9762C16.2934 32.5451 16.9997 32.2191 17.2523 32.6467C18.523 34.7994 19.3224 37.2194 19.587 39.7044C21.5407 41.4422 23.2855 43.3987 24.7869 45.5365C24.801 45.43 24.8102 45.3242 24.8243 45.2296C24.9788 44.1684 25.0402 43.0925 25.0042 42.0207C24.9633 40.8008 24.7883 39.5859 24.5033 38.3998C24.3862 37.9137 25.1538 37.7839 25.2702 38.27C25.8142 40.5348 25.9349 42.9048 25.611 45.212C25.5588 45.5838 25.5207 46.0071 25.333 46.3402C25.4614 46.5349 25.5892 46.731 25.7133 46.9286C26.7336 48.5464 27.6077 50.2539 28.3225 52.0276C28.5087 52.4898 27.8053 52.8221 27.6176 52.3564C26.8401 50.4282 25.8735 48.5824 24.7375 46.8453C24.3036 47.0337 23.7709 47.0746 23.3278 47.1487C22.1432 47.3463 20.9473 47.4592 19.7478 47.5008C18.3946 47.5467 17.0406 47.4888 15.6958 47.3315C15.1998 47.2736 15.2683 46.4982 15.7671 46.5568C17.9762 46.815 20.2093 46.8009 22.4134 46.5003C22.9525 46.4269 23.4901 46.3373 24.0235 46.2301C24.1047 46.2139 24.1971 46.1997 24.2881 46.1772C23.742 45.3848 23.1599 44.6172 22.544 43.8756C21.5908 42.7277 20.5592 41.6482 19.4607 40.6414C16.8741 40.9356 14.2537 40.6985 11.7616 39.9464C11.284 39.7982 11.5514 39.068 12.0298 39.2126Z" fill="#6F8B50"/>
</g>
<mask id="mask23_1631_21261" style="mask-type:luminance" maskUnits="userSpaceOnUse" x="0" y="4" width="100" height="100">
<path d="M100 4H0V104H100V4Z" fill="white"/>
</mask>
<g mask="url(#mask23_1631_21261)">
<path d="M28.2408 35.6946C27.1437 36.7028 26.2956 37.4902 25.3671 38.7221C24.4894 39.887 24.0505 40.4698 23.8022 41.1083C23.7366 41.2777 23.4896 41.9494 22.947 42.7022C22.9012 42.7657 22.8624 42.8172 22.8363 42.8511C22.7918 42.3826 22.5103 42.0982 22.2789 41.7934C21.7455 41.09 21.1853 40.4098 20.9546 39.5237C20.7252 38.6424 20.6681 37.7704 20.8388 36.8686C21.0124 35.9542 21.3666 35.1273 21.9247 34.3985C23.127 32.8293 24.7505 31.9714 26.6787 31.6165C28.3424 31.3103 29.9271 31.541 31.4709 32.1823C31.4885 32.1901 31.5231 32.2 31.5661 32.219C31.7863 32.3143 31.945 32.4603 32.0593 32.5965C30.4556 33.743 29.1842 34.8275 28.2408 35.6946Z" fill="#4D4D4D"/>
</g>
<mask id="mask24_1631_21261" style="mask-type:luminance" maskUnits="userSpaceOnUse" x="0" y="4" width="100" height="100">
<path d="M100 4H0V104H100V4Z" fill="white"/>
</mask>
<g mask="url(#mask24_1631_21261)">
<path d="M74.1202 36.9314C75.151 38.0074 75.9483 38.847 76.7964 40.1353C77.5986 41.3538 77.9994 41.9627 78.2068 42.6161C78.2618 42.7889 78.465 43.4754 78.9596 44.2607C79.0013 44.327 79.0372 44.3807 79.0605 44.4166C79.1346 43.9517 79.4338 43.6864 79.6835 43.3964C80.2607 42.7282 80.8625 42.0855 81.149 41.2148C81.434 40.3498 81.5462 39.4834 81.4326 38.5725C81.3169 37.6489 81.0163 36.8016 80.5055 36.0382C79.4048 34.3956 77.8392 33.4375 75.9377 32.9605C74.2973 32.5499 72.7006 32.679 71.1195 33.2216C71.1011 33.2279 71.0659 33.2364 71.0221 33.2519C70.797 33.333 70.6284 33.4685 70.5063 33.5976C72.0339 34.8436 73.234 36.0064 74.1202 36.9314Z" fill="#4D4D4D"/>
</g>
<mask id="mask25_1631_21261" style="mask-type:luminance" maskUnits="userSpaceOnUse" x="0" y="4" width="100" height="100">
<path d="M100 4H0V104H100V4Z" fill="white"/>
</mask>
<g mask="url(#mask25_1631_21261)">
<path d="M31.3323 33.0901C42.5379 25.4503 59.2004 25.8666 69.6052 33.1585C71.3253 34.3636 76.4921 37.9852 78.9009 44.0968C79.8577 46.5253 80.293 49.126 80.3635 49.562C80.6683 51.4501 81.0895 54.0599 80.5173 57.3358C79.8224 61.3145 78.0507 64.0415 77.1307 65.418C74.1285 69.9117 70.3644 72.1822 68.4566 73.3047C56.8022 80.1634 43.671 76.975 43.0318 76.8099C39.6077 75.9259 26.8174 72.6238 22.4803 61.1847C19.3554 52.9423 21.9611 44.0121 23.8661 40.787C24.3077 40.0384 26.5338 36.361 31.3323 33.0901Z" fill="#FDFDFD"/>
</g>
<mask id="mask26_1631_21261" style="mask-type:luminance" maskUnits="userSpaceOnUse" x="0" y="4" width="100" height="100">
<path d="M100 4H0V104H100V4Z" fill="white"/>
</mask>
<g mask="url(#mask26_1631_21261)">
<path d="M36.3375 41.9847C37.0699 41.8492 38.3872 41.6065 39.9217 42.1343C41.414 42.6479 42.2995 43.6103 42.6628 44.0146C45.291 46.9398 44.5735 51.0398 44.4549 51.7129C44.1918 53.2171 43.6492 54.1936 43.5017 54.4505C42.9775 55.3592 42.2677 56.1487 41.3815 56.8268C40.235 57.7038 38.9079 58.2273 37.4297 58.264C35.7216 58.1567 34.0176 57.8237 32.3017 58.1659C31.6681 58.319 31.0755 58.5667 30.5343 58.9343C29.9247 59.3484 29.7949 59.2482 29.6834 59.2659C28.5439 59.4451 27.4687 58.2442 27.3036 58.0544C26.2297 56.819 26.2311 55.2534 26.2325 54.1259C26.2339 52.3677 26.756 51.0511 27.0884 50.2383C27.6133 48.9521 28.2617 47.9918 28.7436 47.3695C29.3624 46.5285 32.2629 42.7368 36.3375 41.9847Z" fill="#4D4D4D"/>
</g>
<mask id="mask27_1631_21261" style="mask-type:luminance" maskUnits="userSpaceOnUse" x="0" y="4" width="100" height="100">
<path d="M100 4H0V104H100V4Z" fill="white"/>
</mask>
<g mask="url(#mask27_1631_21261)">
<path d="M47.6315 54.52C47.6301 54.405 47.6358 54.3211 47.6661 54.2547C47.7839 53.9965 47.9878 53.8124 48.2157 53.66C49.6798 52.6856 51.2729 52.2524 53.0389 52.4669C54.1325 52.6002 55.1422 52.929 56.0418 53.5668C56.5484 53.9252 56.753 54.4332 56.5949 54.9596C56.4778 55.3476 56.173 55.632 55.9218 55.9318C54.3583 57.8002 51.4366 58.0182 49.6784 57.0784C49.4413 56.9514 49.2183 56.8067 49.0102 56.6445C48.5742 56.3051 48.311 55.977 48.2418 55.8888C48.033 55.6221 47.6372 55.1049 47.6315 54.52Z" fill="#4D4D4D"/>
</g>
<mask id="mask28_1631_21261" style="mask-type:luminance" maskUnits="userSpaceOnUse" x="0" y="4" width="100" height="100">
<path d="M100 4H0V104H100V4Z" fill="white"/>
</mask>
<g mask="url(#mask28_1631_21261)">
<path d="M37.7337 60.5433C37.8494 60.8968 37.9884 61.4605 37.9644 62.1598C37.9538 62.4723 37.9242 63.1497 37.5538 63.9173C37.4084 64.2193 37.0239 64.9912 36.1554 65.5337C35.5429 65.9161 34.9841 66.0015 34.5333 66.07C33.2231 66.2696 32.176 65.931 31.7675 65.7771C31.5996 65.7136 30.772 65.3933 29.9331 64.6356C29.3919 64.1466 28.9544 63.7522 28.7273 63.0579C28.426 62.1379 28.6962 61.3131 28.8056 60.9949C28.8507 60.8636 29.0462 60.319 29.5478 59.7355C30.5793 58.5367 31.9989 58.2291 32.4159 58.1444C32.8745 58.0513 35.0836 57.6047 36.681 59.0299C37.2659 59.5513 37.5735 60.1489 37.7337 60.5433Z" fill="#CEAFB0"/>
</g>
<mask id="mask29_1631_21261" style="mask-type:luminance" maskUnits="userSpaceOnUse" x="0" y="4" width="100" height="100">
<path d="M100 4H0V104H100V4Z" fill="white"/>
</mask>
<g mask="url(#mask29_1631_21261)">
<path d="M58.8302 58.4453C58.8542 58.7974 58.687 58.9865 58.5698 59.1833C57.635 60.7518 55.8111 61.5808 54.0105 61.2337C53.2189 61.0813 52.6756 60.5937 52.3934 59.8226C52.2572 59.8741 52.2092 59.9968 52.1443 60.0907C51.5594 60.9409 50.7191 61.3014 49.725 61.3346C48.1226 61.3889 46.8223 60.8061 45.91 59.4514C45.8409 59.3484 45.788 59.2341 45.7273 59.1248C45.6842 59.0464 45.6701 58.9724 45.7682 58.9251C45.8762 58.8729 45.9058 58.9632 45.9439 59.0302C46.4575 59.9474 47.2336 60.5507 48.2235 60.8633C49.3341 61.2132 50.4242 61.2379 51.4169 60.4992C51.6935 60.2932 51.9094 60.0258 52.121 59.7591C52.253 59.5925 52.3271 59.577 52.4795 59.7499C52.8386 60.1563 53.1688 60.593 53.6944 60.8245C54.9404 61.3713 56.6465 60.9825 57.709 59.8945C58.1147 59.4783 58.4979 59.045 58.8302 58.4453Z" fill="#4D4D4D"/>
</g>
<mask id="mask30_1631_21261" style="mask-type:luminance" maskUnits="userSpaceOnUse" x="0" y="4" width="100" height="100">
<path d="M100 4H0V104H100V4Z" fill="white"/>
</mask>
<g mask="url(#mask30_1631_21261)">
<path d="M61.0435 43.2503C61.5056 42.815 62.2916 42.0925 63.532 41.7623C64.8613 41.4081 65.9598 41.7044 66.8418 41.9415C68.3799 42.3556 69.3881 43.0633 70.4592 43.8147C71.2861 44.3947 72.4199 45.2026 73.5636 46.6116C73.8084 46.9135 74.9627 48.362 75.796 50.5888C76.1057 51.4164 76.4049 52.2341 76.5143 53.3856C76.6808 55.1403 76.2899 56.4407 76.1551 56.8492C75.7826 57.9802 75.2887 58.6124 75.1801 58.7478C74.7278 59.3144 74.5422 59.6721 74.2311 59.6714C74.0624 59.6707 73.9587 59.5811 73.6024 59.325C73.2878 59.0985 72.9533 58.9002 72.64 58.6709C71.9232 58.1453 70.8627 58.1284 69.4968 58.1065C69.0544 58.0994 69.2682 58.1234 67.3032 58.1707C66.3789 58.1926 66.1468 58.1919 65.8279 58.1707C65.1788 58.1277 64.5657 58.0818 63.8396 57.8116C63.3147 57.6161 62.9662 57.3911 62.5054 57.0933C62.0821 56.8196 61.5438 56.4675 60.9786 55.8748C60.3909 55.2582 60.0656 54.6881 59.8751 54.348C59.2246 53.1888 59.0122 52.1657 58.9 51.6027C58.8499 51.3501 58.6735 50.4159 58.7074 49.165C58.7293 48.367 58.7568 47.3602 59.1949 46.1501C59.3953 45.5998 59.8575 44.3665 61.0435 43.2503Z" fill="#4D4D4D"/>
</g>
<mask id="mask31_1631_21261" style="mask-type:luminance" maskUnits="userSpaceOnUse" x="0" y="4" width="100" height="100">
<path d="M100 4H0V104H100V4Z" fill="white"/>
</mask>
<g mask="url(#mask31_1631_21261)">
<path d="M71.4603 58.093C71.9937 58.1897 72.6915 58.316 73.3589 58.8501C74.1054 59.4477 74.3778 60.2083 74.4751 60.4919C74.8674 61.6349 74.5908 62.6213 74.5005 62.9035C74.0172 64.4233 72.7359 65.1091 72.2823 65.3518C71.9196 65.5458 71.1999 65.9085 70.227 65.8901C68.9838 65.8661 68.0898 65.2417 67.4753 64.2158C67.2015 63.7586 67.0167 63.2908 66.9123 62.8132C66.8078 62.3355 66.5694 61.2708 67.0929 60.1405C67.4781 59.3101 68.0969 58.8275 68.4574 58.5925C68.7855 58.3985 69.3655 58.1135 70.1381 58.0281C70.7272 57.9639 71.1781 58.0422 71.4603 58.093Z" fill="#CEAFB0"/>
</g>
<mask id="mask32_1631_21261" style="mask-type:luminance" maskUnits="userSpaceOnUse" x="0" y="4" width="100" height="100">
<path d="M100 4H0V104H100V4Z" fill="white"/>
</mask>
<g mask="url(#mask32_1631_21261)">
<path d="M41.095 50.0749C41.1818 50.6267 41.1288 51.0691 41.095 51.2807C41.0533 51.539 40.9743 52.0018 40.6829 52.4844C40.2448 53.2104 39.6034 53.547 39.2365 53.7135C38.0223 54.266 36.7734 54.2963 35.5281 53.777C34.6419 53.4073 34.1389 52.7024 33.8581 51.8219C33.6782 51.2575 33.6746 50.6733 33.7833 50.0905C33.9385 49.3278 34.1904 48.6102 34.721 48.0154C35.1768 47.5046 35.7207 47.1363 36.3776 46.9402C36.6944 46.8534 37.2546 46.7454 37.9383 46.8548C38.1641 46.8915 38.8061 47.0164 39.4778 47.4834C39.662 47.6118 40.1375 47.9667 40.5355 48.5975C40.9285 49.2184 41.0512 49.7984 41.095 50.0749Z" fill="#D3D1CD"/>
</g>
<mask id="mask33_1631_21261" style="mask-type:luminance" maskUnits="userSpaceOnUse" x="0" y="4" width="100" height="100">
<path d="M100 4H0V104H100V4Z" fill="white"/>
</mask>
<g mask="url(#mask33_1631_21261)">
<path d="M65.8411 46.7651C66.4331 46.7475 66.8938 46.8963 67.0907 46.969C67.8061 47.2336 68.2309 47.6746 68.4404 47.8968C69.0119 48.5029 69.2596 49.1541 69.3703 49.5365C69.4846 49.8858 69.7132 50.7423 69.4345 51.7633C69.3583 52.0413 69.1558 52.7518 68.5639 53.3331C67.3334 54.5425 65.029 54.6017 63.7837 53.5512C62.9526 52.8505 62.4495 51.9171 62.3486 50.8044C62.3507 50.6626 62.3515 50.5187 62.3515 50.374C62.3515 50.2583 62.3508 50.173 62.3508 50.1694C62.35 50.0918 62.4107 48.9086 63.359 47.9138C63.5326 47.7331 64.4505 46.8067 65.8411 46.7651Z" fill="#D3D1CD"/>
</g>
<mask id="mask34_1631_21261" style="mask-type:luminance" maskUnits="userSpaceOnUse" x="0" y="4" width="100" height="100">
<path d="M100 4H0V104H100V4Z" fill="white"/>
</mask>
<g mask="url(#mask34_1631_21261)">
<path d="M36.4525 47.2175C37.9081 46.8421 39.0948 47.3127 40.0734 48.3915C40.5454 48.9115 40.743 49.567 40.894 50.2366C40.9236 50.9746 40.8552 51.6978 40.4706 52.3462C39.8822 53.3375 38.9177 53.7255 37.8467 53.9174C37.3246 54.0113 36.8081 53.952 36.2867 53.8659C35.0879 53.6684 33.9767 52.3829 33.9188 51.0077C33.8518 49.447 34.4798 48.0253 36.4525 47.2175Z" fill="#111618"/>
</g>
<mask id="mask35_1631_21261" style="mask-type:luminance" maskUnits="userSpaceOnUse" x="0" y="4" width="100" height="100">
<path d="M100 4H0V104H100V4Z" fill="white"/>
</mask>
<g mask="url(#mask35_1631_21261)">
<path d="M63.9039 47.8365C64.3822 47.5 64.8945 47.2453 65.4801 47.1486C67.1537 46.8734 68.8618 48.353 69.1581 49.6258C69.1786 49.7133 69.2118 49.7987 69.2386 49.8848C69.3091 50.4513 69.3515 51.0172 69.1998 51.5781C68.8548 52.8545 67.9382 53.4662 66.7106 53.7124C66.5433 53.7463 66.3733 53.766 66.2033 53.7808C64.7336 53.9043 63.7903 53.3836 63.139 52.0544C62.6296 51.0151 62.521 49.944 63.0212 48.8638C63.2159 48.4426 63.5631 48.1392 63.9039 47.8365Z" fill="#111618"/>
</g>
<mask id="mask36_1631_21261" style="mask-type:luminance" maskUnits="userSpaceOnUse" x="0" y="4" width="100" height="100">
<path d="M100 4H0V104H100V4Z" fill="white"/>
</mask>
<g mask="url(#mask36_1631_21261)">
<path d="M37.6858 48.2637C37.6773 48.5001 37.5545 48.6758 37.3669 48.7964C37.0599 48.9925 36.7319 49.1506 36.3798 49.248C36.1999 49.2974 36.0065 49.2981 35.8774 49.1351C35.7631 48.9918 35.773 48.8218 35.8351 48.6504C36.039 48.0852 36.8645 47.7021 37.4155 47.9208C37.6082 47.997 37.6893 48.0993 37.6858 48.2637Z" fill="white"/>
</g>
<mask id="mask37_1631_21261" style="mask-type:luminance" maskUnits="userSpaceOnUse" x="0" y="4" width="100" height="100">
<path d="M100 4H0V104H100V4Z" fill="white"/>
</mask>
<g mask="url(#mask37_1631_21261)">
<path d="M37.1351 50.6485C36.7632 50.6513 36.4711 50.4283 36.4612 50.1327C36.45 49.8138 36.7512 49.5281 37.0984 49.5273C37.4984 49.5266 37.782 49.7531 37.782 50.0734C37.782 50.4298 37.5393 50.6449 37.1351 50.6485Z" fill="white"/>
</g>
<mask id="mask38_1631_21261" style="mask-type:luminance" maskUnits="userSpaceOnUse" x="0" y="4" width="100" height="100">
<path d="M100 4H0V104H100V4Z" fill="white"/>
</mask>
<g mask="url(#mask38_1631_21261)">
<path d="M65.3924 47.8623C65.5236 47.8863 65.6852 47.8771 65.827 47.9681C66.0901 48.1368 66.2122 48.4543 66.105 48.7033C65.9893 48.9714 65.609 49.1584 65.3331 49.0406C65.1863 48.9778 65.144 48.999 65.0502 49.1154C64.8625 49.3496 64.5993 49.3129 64.3651 49.2029C64.1188 49.0872 64.1478 48.8522 64.2049 48.6384C64.327 48.1819 64.8103 47.8644 65.3924 47.8623Z" fill="white"/>
</g>
<mask id="mask39_1631_21261" style="mask-type:luminance" maskUnits="userSpaceOnUse" x="0" y="4" width="100" height="100">
<path d="M100 4H0V104H100V4Z" fill="white"/>
</mask>
<g mask="url(#mask39_1631_21261)">
<path d="M65.0716 49.6718C65.3581 49.6655 65.6036 49.7029 65.8322 49.8158C66.0869 49.9414 66.1271 50.1051 65.9641 50.3351C65.6812 50.733 65.0328 50.8205 64.6589 50.5044C64.5057 50.3746 64.3957 50.2172 64.4754 49.9999C64.5855 49.7008 64.8162 49.6281 65.0716 49.6718Z" fill="white"/>
</g>
<mask id="mask40_1631_21261" style="mask-type:luminance" maskUnits="userSpaceOnUse" x="0" y="4" width="100" height="100">
<path d="M100 4H0V104H100V4Z" fill="white"/>
</mask>
<g mask="url(#mask40_1631_21261)">
<path d="M58.1971 72.4942C55.293 72.183 52.4412 72.339 49.5371 72.3905C49.4856 72.3905 49.3819 72.5979 49.3297 72.5979C47.7739 72.6501 46.2704 72.5464 44.7146 72.5979C44.6631 72.5979 44.5594 72.7538 44.5072 72.7538C43.7812 72.8053 43.0036 72.5979 42.3291 72.8053C41.7068 73.0128 41.1882 72.8576 40.6174 72.9613C40.5659 73.0128 40.5137 73.065 40.4622 73.1172C40.2548 73.1687 40.0473 73.1172 39.8399 73.2724C39.684 73.4276 39.425 73.2724 39.1661 73.3239C39.1139 73.3754 39.0102 73.4276 38.9587 73.4799C38.8027 73.4799 38.596 73.4276 38.4401 73.5314C38.3096 73.6407 38.1783 73.7035 38.0471 73.7437C36.1132 76.367 34.9688 79.6083 34.9688 83.1171C34.9688 91.849 42.0476 98.9279 50.7796 98.9279C59.5116 98.9279 66.5904 91.849 66.5904 83.1171C66.5904 79.1328 65.1158 75.4935 62.6844 72.7129C62.5553 72.7002 62.4262 72.6805 62.295 72.6494C60.8937 72.3383 59.4932 72.6494 58.1971 72.4942Z" fill="#89867F"/>
</g>
<mask id="mask41_1631_21261" style="mask-type:luminance" maskUnits="userSpaceOnUse" x="0" y="4" width="100" height="100">
<path d="M100 4H0V104H100V4Z" fill="white"/>
</mask>
<g mask="url(#mask41_1631_21261)">
<path d="M62.2506 75.1318C63.0881 74.7183 63.5587 74.2533 63.5587 73.7616C63.5587 72.0386 57.7809 70.6416 50.6534 70.6416C43.5259 70.6416 37.748 72.0386 37.748 73.7616C37.748 74.2533 38.2187 74.7183 39.0561 75.1318C41.1545 74.0953 45.5593 73.382 50.6534 73.382C55.7475 73.382 60.1523 74.0953 62.2506 75.1318Z" fill="#706E69"/>
</g>
<mask id="mask42_1631_21261" style="mask-type:luminance" maskUnits="userSpaceOnUse" x="0" y="4" width="100" height="100">
<path d="M100 4H0V104H100V4Z" fill="white"/>
</mask>
<g mask="url(#mask42_1631_21261)">
<path d="M62.2506 75.1316C60.1523 74.0952 55.7475 73.3818 50.6534 73.3818C45.5586 73.3818 41.1545 74.0959 39.0562 75.1316C41.1545 76.1681 45.5593 76.8814 50.6534 76.8814C55.7475 76.8814 60.1523 76.1681 62.2506 75.1316Z" fill="#99B1B8"/>
</g>
<mask id="mask43_1631_21261" style="mask-type:luminance" maskUnits="userSpaceOnUse" x="0" y="4" width="100" height="100">
<path d="M100 4H0V104H100V4Z" fill="white"/>
</mask>
<g mask="url(#mask43_1631_21261)">
<path d="M53.9921 72.3873L53.8115 74.6627C54.4239 76.076 56.1307 75.2864 56.1307 75.2864C56.1307 75.2864 56.3297 74.2718 56.6168 72.9193C55.7426 72.7182 54.8854 72.4353 54.0451 72.1396C54.0112 72.2977 53.9921 72.3873 53.9921 72.3873Z" fill="#E8EDEC"/>
</g>
<mask id="mask44_1631_21261" style="mask-type:luminance" maskUnits="userSpaceOnUse" x="0" y="4" width="100" height="100">
<path d="M100 4H0V104H100V4Z" fill="white"/>
</mask>
<g mask="url(#mask44_1631_21261)">
<path d="M54.0449 72.14C54.8852 72.4357 55.7425 72.7179 56.6167 72.9197C56.8008 72.0518 57.0217 71.0457 57.2503 70.0791C56.3972 69.8181 55.5725 69.4723 54.7103 69.1816C54.4111 70.4601 54.1522 71.6433 54.0449 72.14Z" fill="#FDCB71"/>
</g>
<mask id="mask45_1631_21261" style="mask-type:luminance" maskUnits="userSpaceOnUse" x="0" y="4" width="100" height="100">
<path d="M100 4H0V104H100V4Z" fill="white"/>
</mask>
<g mask="url(#mask45_1631_21261)">
<path d="M54.7104 69.1817C55.5719 69.4724 56.3967 69.8174 57.2505 70.0792C57.4388 69.2826 57.6315 68.5135 57.8128 67.8722C56.9654 67.5173 56.1448 67.1081 55.3208 66.708C55.1204 67.4615 54.9066 68.3421 54.7104 69.1817Z" fill="#E8EDEC"/>
</g>
<mask id="mask46_1631_21261" style="mask-type:luminance" maskUnits="userSpaceOnUse" x="0" y="4" width="100" height="100">
<path d="M100 4H0V104H100V4Z" fill="white"/>
</mask>
<g mask="url(#mask46_1631_21261)">
<path d="M57.1564 63.3047C56.635 63.7181 56.1496 64.2861 55.8546 64.9712C55.7128 65.3 55.5237 65.9378 55.3198 66.7076C56.1446 67.1076 56.9652 67.5169 57.8119 67.8718C57.85 67.7384 57.8866 67.61 57.9233 67.4886C58.2239 66.491 58.8497 65.8623 59.5271 65.4679C58.8208 64.6523 58.0913 63.8614 57.1564 63.3047Z" fill="#FDCB71"/>
</g>
<mask id="mask47_1631_21261" style="mask-type:luminance" maskUnits="userSpaceOnUse" x="0" y="4" width="100" height="100">
<path d="M100 4H0V104H100V4Z" fill="white"/>
</mask>
<g mask="url(#mask47_1631_21261)">
<path d="M58.53 62.5916C58.1165 62.6889 57.6219 62.9359 57.1562 63.3049C58.0911 63.8616 58.8207 64.6525 59.5276 65.4681C60.5606 64.867 61.7156 64.8127 62.0274 64.8331C62.0345 64.8338 62.0422 64.8338 62.05 64.8345C61.6845 63.9858 61.3677 63.1109 60.938 62.3037C59.9354 62.3933 58.9216 62.4992 58.53 62.5916Z" fill="#E8EDEC"/>
</g>
<mask id="mask48_1631_21261" style="mask-type:luminance" maskUnits="userSpaceOnUse" x="0" y="4" width="100" height="100">
<path d="M100 4H0V104H100V4Z" fill="white"/>
</mask>
<g mask="url(#mask48_1631_21261)">
<path d="M63.9251 64.592L63.4079 62.1084C63.4079 62.1084 62.1817 62.1931 60.9385 62.3038C61.3682 63.1103 61.685 63.9852 62.0504 64.8347C62.5838 64.8601 63.9251 64.592 63.9251 64.592Z" fill="#FDCB71"/>
</g>
<mask id="mask49_1631_21261" style="mask-type:luminance" maskUnits="userSpaceOnUse" x="0" y="4" width="100" height="100">
<path d="M100 4H0V104H100V4Z" fill="white"/>
</mask>
<g mask="url(#mask49_1631_21261)">
<path d="M46.8263 75.8578C45.0412 72.4408 43.4396 68.9293 42.0369 65.3387C41.6425 64.329 41.2637 63.3123 40.9003 62.2914C40.7888 61.9795 40.2879 62.1136 40.4001 62.429C41.7032 66.0866 43.2025 69.675 44.8945 73.1704C45.3742 74.161 45.8695 75.1445 46.3789 76.1196C46.5335 76.4159 46.9808 76.1542 46.8263 75.8578Z" fill="#4D4D4D"/>
</g>
<mask id="mask50_1631_21261" style="mask-type:luminance" maskUnits="userSpaceOnUse" x="0" y="4" width="100" height="100">
<path d="M100 4H0V104H100V4Z" fill="white"/>
</mask>
<g mask="url(#mask50_1631_21261)">
<path d="M43.0222 63.8328C42.6088 63.9139 39.2856 64.6195 37.6184 67.7712C36.7795 69.3573 36.7273 70.8679 36.7562 71.6391C36.9904 71.4112 37.4688 71.0083 38.1948 70.7924C39.1685 70.5031 39.989 70.7296 40.2981 70.8319C40.3771 70.652 40.6911 69.9937 41.4488 69.641C42.4606 69.1703 43.4131 69.6395 43.5323 69.7002C43.5648 69.5902 43.7765 68.9128 44.4848 68.5692C45.2694 68.1889 46.006 68.5368 46.0942 68.5805C46.2085 68.3731 46.4886 67.9307 47.0347 67.6047C47.6479 67.2378 48.2391 67.2308 48.4734 67.2399C48.4854 67.1002 48.539 66.7058 48.8537 66.3594C49.3031 65.8648 49.9233 65.8683 50.0214 65.8705C49.7024 65.5812 46.8548 63.0807 43.0222 63.8328Z" fill="#FFBA66"/>
</g>
<mask id="mask51_1631_21261" style="mask-type:luminance" maskUnits="userSpaceOnUse" x="0" y="4" width="100" height="100">
<path d="M100 4H0V104H100V4Z" fill="white"/>
</mask>
<g mask="url(#mask51_1631_21261)">
<path d="M50.0324 82.8682C49.954 82.308 49.942 81.7414 49.983 81.177C50.007 80.8439 49.4884 80.8454 49.4644 81.177C49.4192 81.7901 49.4467 82.3976 49.5321 83.0058C49.5787 83.3346 50.0782 83.1949 50.0324 82.8682Z" fill="#FDFDFD"/>
</g>
<mask id="mask52_1631_21261" style="mask-type:luminance" maskUnits="userSpaceOnUse" x="0" y="4" width="100" height="100">
<path d="M100 4H0V104H100V4Z" fill="white"/>
</mask>
<g mask="url(#mask52_1631_21261)">
<path d="M51.8655 92.4813C51.7865 91.895 51.7082 91.308 51.6292 90.7217C51.5854 90.3957 51.0662 90.3915 51.1106 90.7217C51.1889 91.308 51.2679 91.895 51.347 92.4813C51.3907 92.8073 51.91 92.8115 51.8655 92.4813Z" fill="#FDFDFD"/>
</g>
<mask id="mask53_1631_21261" style="mask-type:luminance" maskUnits="userSpaceOnUse" x="0" y="4" width="100" height="100">
<path d="M100 4H0V104H100V4Z" fill="white"/>
</mask>
<g mask="url(#mask53_1631_21261)">
<path d="M53.031 91.6594C52.9647 91.2381 52.8984 90.8169 52.8321 90.3957C52.7799 90.0669 52.2803 90.2066 52.3318 90.5333C52.3982 90.9545 52.4645 91.3757 52.5308 91.7969C52.583 92.1257 53.0826 91.9867 53.031 91.6594Z" fill="#FDFDFD"/>
</g>
<mask id="mask54_1631_21261" style="mask-type:luminance" maskUnits="userSpaceOnUse" x="0" y="4" width="100" height="100">
<path d="M100 4H0V104H100V4Z" fill="white"/>
</mask>
<g mask="url(#mask54_1631_21261)">
<path d="M54.2343 84.4559C54.1461 84.1342 53.6458 84.271 53.734 84.5935C53.8779 85.1205 53.9287 85.6532 53.8921 86.1979C53.8695 86.5309 54.3881 86.5295 54.4106 86.1979C54.4509 85.6102 54.3895 85.0246 54.2343 84.4559Z" fill="#FDFDFD"/>
</g>
<mask id="mask55_1631_21261" style="mask-type:luminance" maskUnits="userSpaceOnUse" x="0" y="4" width="100" height="100">
<path d="M100 4H0V104H100V4Z" fill="white"/>
</mask>
<g mask="url(#mask55_1631_21261)">
<path d="M43.7009 94.9771C43.2853 94.5389 42.9374 94.0535 42.6517 93.5215C42.4937 93.2273 42.0456 93.4891 42.2037 93.7833C42.5092 94.3527 42.8895 94.8748 43.334 95.344C43.5647 95.586 43.9309 95.2191 43.7009 94.9771Z" fill="#FDFDFD"/>
</g>
<mask id="mask56_1631_21261" style="mask-type:luminance" maskUnits="userSpaceOnUse" x="0" y="4" width="100" height="100">
<path d="M100 4H0V104H100V4Z" fill="white"/>
</mask>
<g mask="url(#mask56_1631_21261)">
<path d="M44.7079 94.3051C44.3381 93.9417 44.0235 93.5381 43.7617 93.0908C43.5931 92.803 43.145 93.064 43.3137 93.3526C43.5973 93.8366 43.9416 94.279 44.341 94.672C44.5787 94.9062 44.9463 94.54 44.7079 94.3051Z" fill="#FDFDFD"/>
</g>
<mask id="mask57_1631_21261" style="mask-type:luminance" maskUnits="userSpaceOnUse" x="0" y="4" width="100" height="100">
<path d="M100 4H0V104H100V4Z" fill="white"/>
</mask>
<g mask="url(#mask57_1631_21261)">
<path d="M48.7463 96.6297C48.3427 96.4011 48.0104 96.0878 47.7634 95.6948C47.5863 95.4126 47.1376 95.6729 47.3161 95.9566C47.6089 96.4229 48.0047 96.806 48.4845 97.0777C48.7752 97.2421 49.037 96.794 48.7463 96.6297Z" fill="#FDFDFD"/>
</g>
<mask id="mask58_1631_21261" style="mask-type:luminance" maskUnits="userSpaceOnUse" x="0" y="4" width="100" height="100">
<path d="M100 4H0V104H100V4Z" fill="white"/>
</mask>
<g mask="url(#mask58_1631_21261)">
<path d="M57.8368 94.2491C57.6731 94.6689 57.5087 95.0887 57.345 95.5086C57.2236 95.8197 57.7246 95.9545 57.8452 95.6461C58.0089 95.2263 58.1726 94.8065 58.337 94.386C58.4584 94.0763 57.9574 93.9415 57.8368 94.2491Z" fill="#FDFDFD"/>
</g>
<mask id="mask59_1631_21261" style="mask-type:luminance" maskUnits="userSpaceOnUse" x="0" y="4" width="100" height="100">
<path d="M100 4H0V104H100V4Z" fill="white"/>
</mask>
<g mask="url(#mask59_1631_21261)">
<path d="M61.3432 89.6429C61.1929 90.3252 60.9982 90.9947 60.759 91.6509C60.6447 91.9649 61.1457 92.1004 61.2593 91.7885C61.4977 91.1323 61.6925 90.4628 61.8435 89.7805C61.9147 89.4559 61.4152 89.3169 61.3432 89.6429Z" fill="#FDFDFD"/>
</g>
<mask id="mask60_1631_21261" style="mask-type:luminance" maskUnits="userSpaceOnUse" x="0" y="4" width="100" height="100">
<path d="M100 4H0V104H100V4Z" fill="white"/>
</mask>
<g mask="url(#mask60_1631_21261)">
<path d="M38.4008 78.0886C38.264 78.5359 38.1271 78.9833 37.9902 79.4306C37.8921 79.7502 38.3924 79.8871 38.4905 79.5682C38.6273 79.1209 38.7642 78.6735 38.9011 78.2262C38.9992 77.9066 38.4989 77.7697 38.4008 78.0886Z" fill="#FDFDFD"/>
</g>
<mask id="mask61_1631_21261" style="mask-type:luminance" maskUnits="userSpaceOnUse" x="0" y="4" width="100" height="100">
<path d="M100 4H0V104H100V4Z" fill="white"/>
</mask>
<g mask="url(#mask61_1631_21261)">
<path d="M39.833 78.0913L39.349 79.4375C39.2361 79.7522 39.737 79.8877 39.8492 79.5751C40.0108 79.1264 40.1717 78.6776 40.3332 78.2289C40.4461 77.9142 39.9452 77.7787 39.833 78.0913Z" fill="#FDFDFD"/>
</g>
<mask id="mask62_1631_21261" style="mask-type:luminance" maskUnits="userSpaceOnUse" x="0" y="4" width="100" height="100">
<path d="M100 4H0V104H100V4Z" fill="white"/>
</mask>
<g mask="url(#mask62_1631_21261)">
<path d="M62.5503 79.7215C62.297 79.2333 62.1262 78.7168 62.0303 78.1757C61.9717 77.8476 61.4722 77.9866 61.53 78.3132C61.6345 78.8989 61.8285 79.4563 62.1023 79.9833C62.2568 80.2796 62.7041 80.0179 62.5503 79.7215Z" fill="#FDFDFD"/>
</g>
<mask id="mask63_1631_21261" style="mask-type:luminance" maskUnits="userSpaceOnUse" x="0" y="4" width="100" height="100">
<path d="M100 4H0V104H100V4Z" fill="white"/>
</mask>
<g mask="url(#mask63_1631_21261)">
<path d="M36.363 74.6025C36.363 74.6025 28.6209 77.9942 29.6256 84.2729C30.6303 90.5517 37.3296 92.0439 40.3839 90.7118C43.4383 89.3797 45.579 87.2193 43.276 83.1934C41.5312 80.1426 36.2092 81.2919 34.9681 83.1172C35.093 82.1795 35.2722 81.1706 35.5241 80.1066C35.994 78.1219 36.6127 76.3954 37.2414 74.9469C36.9486 74.8326 36.6558 74.7175 36.363 74.6025Z" fill="#4D4D4D"/>
</g>
<mask id="mask64_1631_21261" style="mask-type:luminance" maskUnits="userSpaceOnUse" x="0" y="4" width="100" height="100">
<path d="M100 4H0V104H100V4Z" fill="white"/>
</mask>
<g mask="url(#mask64_1631_21261)">
<path d="M65.5832 74.79C69.9682 76.0981 72.6035 80.3223 71.9311 84.2727C71.0519 89.4402 64.752 92.273 61.1727 90.7116C58.1184 89.3795 55.9777 87.2191 58.2807 83.1932C60.0255 80.1424 65.3475 81.2917 66.5879 83.117C66.4588 82.1758 66.2795 81.1676 66.0319 80.1064C65.6036 78.2684 65.0582 76.6449 64.4966 75.2522L65.5832 74.79Z" fill="#4D4D4D"/>
</g>
</g>
</g>
<defs>
<clipPath id="clip0_1631_21261">
<rect width="100" height="100" fill="white"/>
</clipPath>
<clipPath id="clip1_1631_21261">
<rect width="100" height="100" fill="white" transform="translate(0 4)"/>
</clipPath>
</defs>
</svg>
