<svg width="78" height="81" viewBox="0 0 78 81" fill="none" xmlns="http://www.w3.org/2000/svg">
<mask id="mask0_1611_1528" style="mask-type:luminance" maskUnits="userSpaceOnUse" x="0" y="0" width="78" height="81">
<path d="M78 0.416504H0V80.0415H78V0.416504Z" fill="white"/>
</mask>
<g mask="url(#mask0_1611_1528)">
<path d="M20.056 58.3999C19.7638 57.5129 19.3329 56.4949 18.3153 56.4595C17.4348 56.4286 16.6951 57.1258 16.4596 57.9971C16.2334 58.8325 16.4337 59.7707 17.0088 60.3938C17.6313 61.0674 18.5855 61.3275 19.4446 61.1342C19.4677 61.1337 19.4919 61.128 19.5167 61.1168C19.5624 61.105 19.6075 61.0926 19.6526 61.078C19.7418 61.0494 19.7858 60.978 19.7941 60.9016C20.0236 60.669 20.1749 60.3561 20.2399 60.0224C20.3461 59.4747 20.2266 58.9185 20.056 58.3999Z" fill="#4D4D4D"/>
</g>
<mask id="mask1_1611_1528" style="mask-type:luminance" maskUnits="userSpaceOnUse" x="0" y="0" width="78" height="81">
<path d="M78 0.416504H0V80.0415H78V0.416504Z" fill="white"/>
</mask>
<g mask="url(#mask1_1611_1528)">
<path d="M38.2507 48.0891C37.1869 46.1897 37.4296 44.0593 35.4263 43.7217C34.1622 43.5088 32.8777 43.5531 31.612 43.7262C30.4018 43.8919 29.1921 44.1363 28.0172 44.488C25.8934 45.1245 23.8071 46.2245 22.4087 48.0958C22.2161 48.3537 22.0384 48.6228 21.8771 48.9032C21.8122 48.9178 21.7857 48.9891 21.7219 49.0419C19.656 50.7504 18.9972 53.2262 18.3181 55.7133C18.0143 56.8262 18.1106 58.2155 18.3775 59.3481C18.634 60.4369 19.2278 61.3583 20.0896 62.0038C20.9619 62.6571 22.0031 63.006 23.0157 63.324C24.2325 63.706 25.4675 64.0313 26.7217 64.242C29.0425 64.6313 31.4441 64.6229 33.701 63.8661C35.7764 63.1701 37.5803 61.8515 38.8687 59.9785C40.1047 58.1813 38.7669 56.2212 39.1169 54.038C39.4763 51.7987 39.381 50.1082 38.2507 48.0891Z" fill="#E9E9E9"/>
</g>
<mask id="mask2_1611_1528" style="mask-type:luminance" maskUnits="userSpaceOnUse" x="0" y="0" width="78" height="81">
<path d="M78 0.416504H0V80.0415H78V0.416504Z" fill="white"/>
</mask>
<g mask="url(#mask2_1611_1528)">
<path d="M34.5352 52.8991C34.2633 51.8255 33.4042 51.1087 32.4643 50.7289C31.4627 50.3244 30.335 50.1958 29.2696 50.2233C28.1678 50.2519 27.066 50.4727 26.0331 50.8834C25.9725 50.9076 25.912 50.9328 25.8514 50.9581C25.0612 51.1227 24.283 51.3604 23.5912 51.8092C22.7476 52.3564 22.0332 53.2278 21.9232 54.3064C21.8703 54.825 21.9991 55.3441 22.3056 55.7525C22.583 56.1222 22.9804 56.3615 23.3915 56.5239C23.8647 56.7104 24.3694 56.7868 24.8691 56.839C25.4695 56.9025 26.0738 56.9132 26.6769 56.9003C27.8684 56.8744 29.0748 56.8211 30.2585 56.6711C31.3553 56.5317 32.5633 56.3065 33.4807 55.6065C34.2925 54.9879 34.8059 53.9677 34.5352 52.8991Z" fill="#4D4D4D"/>
</g>
<mask id="mask3_1611_1528" style="mask-type:luminance" maskUnits="userSpaceOnUse" x="0" y="0" width="78" height="81">
<path d="M78 0.416504H0V80.0415H78V0.416504Z" fill="white"/>
</mask>
<g mask="url(#mask3_1611_1528)">
<path d="M35.2515 59.0047C34.9609 58.5592 34.4568 58.3221 33.9626 58.5215C33.4734 58.7187 33.158 59.1861 32.7205 59.4693C32.25 59.7743 31.6919 59.8345 31.1521 59.8047C30.5506 59.7715 29.9606 59.6277 29.3723 59.5007C28.6954 59.3547 28.0179 59.2092 27.341 59.0631C26.0802 58.7918 24.7027 58.371 23.4232 58.7502C22.486 59.0277 21.5955 59.8137 21.4678 60.8884C21.3858 61.5822 21.623 62.2019 22.0121 62.7142C22.0782 62.8878 22.2218 63.185 22.4733 63.2384C22.4837 63.2406 22.4942 63.2423 22.5052 63.2435C22.7281 63.4412 22.9697 63.6137 23.2146 63.7564C24.3114 64.3963 25.5524 64.7867 26.7643 65.0901C28.0207 65.4047 29.3007 65.6266 30.5775 65.8261C31.2071 65.9244 31.8565 65.9918 32.48 65.8154C32.7921 65.7272 33.0848 65.5772 33.3518 65.3845C33.3545 65.357 33.3562 65.3283 33.3562 65.2996C33.3562 64.6468 32.7772 63.8496 33.322 63.3418C34.2075 62.5081 34.7281 61.6508 35.4095 60.5991C35.4579 60.5221 35.508 60.3451 35.4964 60.244C35.5333 59.8109 35.4909 59.3721 35.2515 59.0047Z" fill="#4D4D4D"/>
</g>
<mask id="mask4_1611_1528" style="mask-type:luminance" maskUnits="userSpaceOnUse" x="0" y="0" width="78" height="81">
<path d="M78 0.416504H0V80.0415H78V0.416504Z" fill="white"/>
</mask>
<g mask="url(#mask4_1611_1528)">
<path d="M30.6912 21.3583C30.9416 20.7622 29.7259 19.7313 29.5894 19.6167C27.8344 18.1515 25.2148 18.0639 25.0761 18.492C24.8989 19.038 28.6478 20.8504 28.6478 20.8504C28.6478 20.8504 28.5377 20.8077 28.3314 20.7408C28.3314 20.7408 27.8878 20.5948 27.4393 20.4875C25.933 20.1285 24.965 19.8976 24.5605 20.3605C24.4218 20.5189 24.32 20.7925 24.3827 21.0498C24.7201 22.4302 29.4375 21.8195 29.7848 21.7751C30.1155 21.7335 30.5646 21.6583 30.6912 21.3583Z" fill="white"/>
</g>
<mask id="mask5_1611_1528" style="mask-type:luminance" maskUnits="userSpaceOnUse" x="0" y="0" width="78" height="81">
<path d="M78 0.416504H0V80.0415H78V0.416504Z" fill="white"/>
</mask>
<g mask="url(#mask5_1611_1528)">
<path d="M39.5223 47.3804C40.2481 47.0484 41.0351 46.6883 41.8678 46.0652C41.8678 46.0652 43.7086 44.7399 44.7466 42.5461C46.309 39.2433 45.4703 35.7657 45.0663 34.0927C43.6096 28.055 39.3819 24.7084 38.705 24.1882C37.2973 23.1073 33.7036 20.6983 28.9316 20.7056C26.9273 20.7084 25.3407 21.1365 24.2758 21.4314C22.5582 21.9067 20.0333 22.6348 17.4874 24.7691C14.7572 27.0579 13.4705 29.7337 12.9384 31.0455C11.8267 33.786 11.7568 36.1208 11.7298 37.4309C11.6979 38.9753 11.6693 40.3618 12.2631 42.0748C12.4326 42.5635 13.268 44.8551 15.5326 46.7546C17.1203 48.086 18.6305 48.5714 20.2594 49.0765C24.0914 50.2647 27.3169 50.0428 29.4643 49.8748C31.4923 49.7164 33.0426 49.3107 36.146 48.5327C36.9979 48.3186 38.1393 48.0135 39.5223 47.3804Z" fill="white"/>
</g>
<mask id="mask6_1611_1528" style="mask-type:luminance" maskUnits="userSpaceOnUse" x="0" y="0" width="78" height="81">
<path d="M78 0.416504H0V80.0415H78V0.416504Z" fill="white"/>
</mask>
<g mask="url(#mask6_1611_1528)">
<path d="M39.9115 32.043C38.8411 31.1149 37.7118 30.8829 37.1928 30.7834C36.5302 30.6559 35.3976 30.4385 34.1165 30.9845C32.8876 31.5081 32.2073 32.4419 31.9168 32.9199C31.1535 34.175 31.1826 35.4003 31.2013 36.17C31.2217 37.0188 31.2597 38.6177 32.4176 39.9497C33.2766 40.938 34.3184 41.2812 34.6354 41.3739C34.9777 41.4739 35.6695 41.6683 36.5489 41.5014C37.1835 41.3812 37.6738 41.093 37.944 40.9357C38.5395 40.5891 38.4817 40.4694 38.8978 40.2722C39.6787 39.9026 40.0925 40.2239 40.71 39.9677C41.4337 39.6677 41.749 38.861 41.9202 38.4216C42.5668 36.7649 41.8266 35.0947 41.4612 34.2711C41.202 33.6846 40.8074 32.8194 39.9115 32.043Z" fill="#D3D1CD"/>
</g>
<mask id="mask7_1611_1528" style="mask-type:luminance" maskUnits="userSpaceOnUse" x="0" y="0" width="78" height="81">
<path d="M78 0.416504H0V80.0415H78V0.416504Z" fill="white"/>
</mask>
<g mask="url(#mask7_1611_1528)">
<path d="M39.6735 32.4501C38.9151 31.8046 38.1848 31.5035 37.859 31.3844C37.3951 31.2142 36.3951 30.8619 35.1376 31.0872C34.7915 31.1496 34.2411 31.2535 33.6484 31.6288C32.5191 32.3439 32.1119 33.49 31.954 33.9355C31.4851 35.2557 31.6854 36.3996 31.8169 37.0984C31.9914 38.0249 32.2192 39.2344 33.2549 40.1389C33.4399 40.3007 34.4134 41.1507 35.6687 41.0653C36.3115 41.0215 36.8514 40.744 37.6543 40.3316C38.3422 39.9782 38.5123 39.7839 39.0753 39.5799C39.9773 39.2535 40.2469 39.5479 40.7015 39.3176C41.7372 38.794 41.9827 36.5698 41.4549 34.949C41.0103 33.5878 40.0631 32.7816 39.6735 32.4501Z" fill="#4D4D4D"/>
</g>
<mask id="mask8_1611_1528" style="mask-type:luminance" maskUnits="userSpaceOnUse" x="0" y="0" width="78" height="81">
<path d="M78 0.416504H0V80.0415H78V0.416504Z" fill="white"/>
</mask>
<g mask="url(#mask8_1611_1528)">
<path d="M36.0661 35.2447C35.1448 34.9424 33.9797 35.1025 33.223 35.916C32.4212 36.7772 32.5125 37.9031 32.5302 38.084C32.5978 38.7806 32.9121 39.2598 33.0546 39.4716C33.2527 39.766 33.6919 40.3138 34.4497 40.6233C34.7078 40.7289 35.2125 40.9278 35.8624 40.8228C36.0127 40.7986 36.4926 40.7059 36.973 40.3329C37.4595 39.9548 37.6719 39.5025 37.7726 39.2806C37.8656 39.0761 38.094 38.5149 38.0478 37.8385C37.9768 36.8042 37.274 35.6407 36.0661 35.2447Z" fill="#FDFDFD"/>
</g>
<mask id="mask9_1611_1528" style="mask-type:luminance" maskUnits="userSpaceOnUse" x="0" y="0" width="78" height="81">
<path d="M78 0.416504H0V80.0415H78V0.416504Z" fill="white"/>
</mask>
<g mask="url(#mask9_1611_1528)">
<path d="M24.063 32.1153C23.8775 32.0001 23.1384 31.5602 22.0906 31.4349C19.6625 31.1456 17.787 32.8119 17.3462 33.2035C16.7975 33.6905 15.6605 34.7293 15.2406 36.4956C15.1135 37.0299 14.7596 38.5192 15.5339 39.9782C15.9989 40.8546 16.6588 41.3209 17 41.5563C18.9146 42.8771 21.1308 42.4608 21.7444 42.3451C22.6817 42.1692 24.2507 41.8743 25.3959 40.4951C26.9567 38.6158 26.7822 35.867 25.8758 34.1276C25.6826 33.7591 25.1681 32.8006 24.063 32.1153Z" fill="#D3D1CD"/>
</g>
<mask id="mask10_1611_1528" style="mask-type:luminance" maskUnits="userSpaceOnUse" x="0" y="0" width="78" height="81">
<path d="M78 0.416504H0V80.0415H78V0.416504Z" fill="white"/>
</mask>
<g mask="url(#mask10_1611_1528)">
<path d="M23.7605 32.4241C22.541 31.6966 21.3374 31.7971 20.8641 31.8437C18.4839 32.0769 17.0838 33.9179 16.6882 34.4376C16.244 35.0218 15.6117 35.8752 15.462 37.1769C15.4218 37.5286 15.2815 38.9129 16.0663 40.1702C17.649 42.7056 21.4051 42.182 21.6285 42.1477C22.2564 42.0505 23.766 41.8174 24.9157 40.5151C26.8083 38.3719 25.9079 35.3938 25.8573 35.2365C25.6971 34.7359 25.2101 33.2887 23.7605 32.4241Z" fill="#4D4D4D"/>
</g>
<mask id="mask11_1611_1528" style="mask-type:luminance" maskUnits="userSpaceOnUse" x="0" y="0" width="78" height="81">
<path d="M78 0.416504H0V80.0415H78V0.416504Z" fill="white"/>
</mask>
<g mask="url(#mask11_1611_1528)">
<path d="M21.8643 35.711C22.7855 35.4087 23.9506 35.5688 24.7073 36.3823C25.5086 37.2436 25.4178 38.3694 25.4002 38.5503C25.3325 39.2469 25.0182 39.7261 24.8762 39.9379C24.6781 40.2323 24.239 40.7801 23.4811 41.0896C23.223 41.1952 22.7184 41.3941 22.0684 41.2891C21.9182 41.2649 21.4383 41.1728 20.9579 40.7992C20.4714 40.4211 20.2589 39.9688 20.1582 39.7469C20.0652 39.5424 19.8368 38.9812 19.8831 38.3048C19.9535 37.2711 20.6563 36.107 21.8643 35.711Z" fill="#FDFDFD"/>
</g>
<mask id="mask12_1611_1528" style="mask-type:luminance" maskUnits="userSpaceOnUse" x="0" y="0" width="78" height="81">
<path d="M78 0.416504H0V80.0415H78V0.416504Z" fill="white"/>
</mask>
<g mask="url(#mask12_1611_1528)">
<path d="M20.3008 37.6159C20.7207 36.3681 21.9502 35.9552 22.0856 35.9125C22.3184 35.8389 22.9067 35.6614 23.5951 35.8945C24.4058 36.1692 24.7949 36.8226 24.8945 36.9968C25.4707 37.9996 25.1443 39.0406 25.0887 39.2074C24.889 39.6265 24.6116 39.9844 24.2814 40.3035C24.031 40.5451 23.6188 40.9215 23.0008 41.0597C22.9034 41.0816 22.2044 41.2282 21.5253 40.8872C20.4747 40.3597 19.8787 38.8681 20.3008 37.6159Z" fill="#111618"/>
</g>
<mask id="mask13_1611_1528" style="mask-type:luminance" maskUnits="userSpaceOnUse" x="0" y="0" width="78" height="81">
<path d="M78 0.416504H0V80.0415H78V0.416504Z" fill="white"/>
</mask>
<g mask="url(#mask13_1611_1528)">
<path d="M41.4178 40.212C40.8086 39.853 40.2154 39.8317 39.9253 39.825C39.5847 39.8171 38.4983 39.7912 37.7102 40.5626C36.8644 41.3901 36.5942 42.9081 37.2837 44.0699C38.0437 45.3508 39.583 45.5469 40.6127 45.2913C40.7299 45.2621 42.6335 44.7559 42.8993 43.0542C43.1013 41.7559 42.2087 40.6778 41.4178 40.212Z" fill="#CEAFB0"/>
</g>
<mask id="mask14_1611_1528" style="mask-type:luminance" maskUnits="userSpaceOnUse" x="0" y="0" width="78" height="81">
<path d="M78 0.416504H0V80.0415H78V0.416504Z" fill="white"/>
</mask>
<g mask="url(#mask14_1611_1528)">
<path d="M38.1191 24.3429C38.2666 24.1637 38.7317 23.6451 39.5159 23.4766C40.4647 23.2727 41.1994 23.7272 41.4239 23.8704C41.512 23.9272 42.7381 24.7384 42.7034 26.0019C42.6979 26.2075 42.6809 26.8244 42.2059 27.2171C41.8592 27.5041 41.4536 27.5176 41.3006 27.5142C40.2401 26.4575 39.1796 25.4002 38.1191 24.3429Z" fill="#C3C6BF"/>
</g>
<mask id="mask15_1611_1528" style="mask-type:luminance" maskUnits="userSpaceOnUse" x="0" y="0" width="78" height="81">
<path d="M78 0.416504H0V80.0415H78V0.416504Z" fill="white"/>
</mask>
<g mask="url(#mask15_1611_1528)">
<path d="M44.5153 23.7991C44.3579 23.4603 44.0354 22.7828 43.4047 22.1637C42.4856 21.262 41.4405 21.0041 41.0625 20.9159C39.6822 20.594 38.5821 20.9418 38.171 21.0777C36.4325 21.6524 35.9229 22.7873 35.9174 22.8019C35.9053 22.8328 35.9053 22.8642 35.9053 22.8642C35.9053 22.8749 35.9064 22.8856 35.9086 22.8968C35.9322 22.976 35.9972 23.0125 36.061 23.0496C36.602 23.3659 37.1243 23.7126 37.6465 24.0597C37.7995 24.1614 37.9443 24.2777 38.1187 24.3435C38.2728 24.1788 38.6058 23.8665 39.1275 23.6923C39.2397 23.6547 39.674 23.5193 40.2403 23.5963C40.4345 23.6227 40.9744 23.7193 41.4648 24.1064C42.244 24.7215 42.8621 26.0429 42.3348 26.8727C42.2561 26.9968 41.9909 27.3626 41.2991 27.5148C41.8814 28.3676 42.4642 29.221 43.0464 30.0738C43.4327 29.7929 44.1917 29.1564 44.6611 28.0569C45.2885 26.5878 44.9891 25.253 44.8983 24.8738C44.7789 24.3704 44.6017 23.9845 44.5153 23.7991Z" fill="#4D4D4D"/>
</g>
<mask id="mask16_1611_1528" style="mask-type:luminance" maskUnits="userSpaceOnUse" x="0" y="0" width="78" height="81">
<path d="M78 0.416504H0V80.0415H78V0.416504Z" fill="white"/>
</mask>
<g mask="url(#mask16_1611_1528)">
<path d="M18.5662 40.8417C18.2123 40.8389 17.1782 40.8316 16.4099 41.5917C15.4452 42.5462 15.2917 44.3232 16.1491 45.5097C17.121 46.8552 18.854 46.6962 19.0873 46.6709C19.3658 46.6406 20.9552 46.4676 21.599 45.0749C22.118 43.9518 21.708 42.7175 21.1131 41.9788C20.2084 40.8535 18.8507 40.8434 18.5662 40.8417Z" fill="#CEAFB0"/>
</g>
<mask id="mask17_1611_1528" style="mask-type:luminance" maskUnits="userSpaceOnUse" x="0" y="0" width="78" height="81">
<path d="M78 0.416504H0V80.0415H78V0.416504Z" fill="white"/>
</mask>
<g mask="url(#mask17_1611_1528)">
<path d="M33.3499 42.4054C33.3296 42.2223 33.3097 42.0391 33.2894 41.856C33.2872 42.0301 33.2569 42.3385 33.0632 42.6267C32.8623 42.9251 32.5971 43.0532 32.2746 43.1779C31.5272 43.4666 30.7468 43.547 29.9533 43.5262C29.896 43.5245 29.8382 43.5301 29.781 43.5329C29.6742 43.552 29.5647 43.57 29.4535 43.5863C29.0375 43.647 28.6424 43.6773 28.272 43.6869C27.9787 43.7189 27.6842 43.7127 27.3909 43.7138C26.6419 43.7178 25.9088 43.6369 25.2782 43.161C25.1037 43.0296 25.1032 43.0239 25.1554 42.8127C25.1758 42.7296 25.2061 42.6475 25.2044 42.561C25.2022 42.4296 25.1109 42.3801 25.0008 42.4481C24.8869 42.5189 24.8335 42.6807 24.8775 42.8251C24.8863 43.0666 24.7636 43.256 24.6365 43.4419C24.6068 43.4852 24.5693 43.5223 24.5352 43.5621C24.4675 43.629 24.3734 43.7144 24.2529 43.8026C24.1896 43.8492 23.9486 44.0211 23.6134 44.143C22.9915 44.3695 22.4616 44.2711 22.4605 44.3032C22.4594 44.3329 22.9101 44.447 23.4279 44.3391C23.4995 44.3239 23.7972 44.2582 24.1373 44.0543C24.3602 43.9211 24.5237 43.7745 24.6337 43.6627C24.7377 43.5655 24.8208 43.4515 24.8907 43.3273C24.9259 43.2644 24.9667 43.2425 25.0212 43.3144C25.1725 43.5127 25.3899 43.6312 25.5825 43.7784C25.6507 43.8307 25.6937 43.8812 25.7157 43.9627C25.9677 44.8919 26.4696 45.6655 27.1421 46.3307C27.3315 46.5178 27.5433 46.6762 27.7596 46.829C27.8515 46.8093 27.84 46.7262 27.8493 46.6638C27.8928 46.3829 27.966 46.1093 28.0348 45.8341C28.1124 45.5251 28.2384 45.2374 28.3738 44.9537C28.5697 44.5436 28.934 44.347 29.3297 44.1964C29.3782 44.1779 29.4299 44.1655 29.48 44.1503C30.0358 44.0228 30.541 44.1503 31.0099 44.4638C31.5608 44.8357 31.7925 45.3891 31.864 46.0329C31.9108 46.1082 31.8354 46.2335 31.9598 46.2768C32.0313 45.4678 32.247 44.4088 32.8513 43.3408C32.9718 43.1273 33.0984 42.9307 33.2272 42.7503C33.4209 43.1829 33.6697 43.456 33.8326 43.6071C33.9756 43.7402 34.7626 44.4728 35.5177 44.2082C35.7455 44.1284 35.9024 43.9818 35.9943 43.8773C35.9635 43.9172 35.9145 43.9739 35.8424 44.0245C35.4104 44.3284 34.7505 44.0127 34.5529 43.9183C34.0731 43.6885 33.8023 43.3397 33.6922 43.1801C33.4853 42.8807 33.3934 42.5902 33.3499 42.4054Z" fill="#4D4D4D"/>
</g>
<mask id="mask18_1611_1528" style="mask-type:luminance" maskUnits="userSpaceOnUse" x="0" y="0" width="78" height="81">
<path d="M78 0.416504H0V80.0415H78V0.416504Z" fill="white"/>
</mask>
<g mask="url(#mask18_1611_1528)">
<path d="M29.4548 44.1093C29.3326 44.1368 29.0569 44.2121 28.7757 44.4194C28.3712 44.7171 28.2055 45.1031 28.0613 45.4391C27.9408 45.72 27.7779 46.1964 27.7598 46.8289C27.8599 46.9183 28.0107 47.0391 28.2121 47.1503C29.1989 47.6947 30.5494 47.5357 31.4409 46.8228C31.5906 46.7031 31.7772 46.5278 31.9594 46.2773C31.9616 46.0643 31.9374 45.5992 31.6578 45.116C31.4564 44.7677 31.2043 44.552 31.0447 44.4357C30.8758 44.3244 30.6215 44.1896 30.2913 44.1194C30.1284 44.0851 29.8296 44.025 29.4548 44.1093Z" fill="#CEAFB0"/>
</g>
<mask id="mask19_1611_1528" style="mask-type:luminance" maskUnits="userSpaceOnUse" x="0" y="0" width="78" height="81">
<path d="M78 0.416504H0V80.0415H78V0.416504Z" fill="white"/>
</mask>
<g mask="url(#mask19_1611_1528)">
<path d="M27.9538 41.7574C28.2339 41.8473 29.0088 41.9159 29.1596 41.9119C29.1722 41.9114 29.2162 41.9091 29.2438 41.9383C29.2647 41.9603 29.2674 41.9951 29.2702 42.0383C29.2927 42.408 29.3186 42.7777 29.3428 43.1473C29.361 43.276 29.3621 43.4046 29.3423 43.5333C28.9978 43.6232 28.6466 43.6721 28.2961 43.7282C28.3682 43.7322 28.4931 43.7389 28.6488 43.7496C29.1309 43.7833 29.257 43.8091 29.4342 43.7496C29.5167 43.7221 29.6433 43.6648 29.7792 43.5327C29.6582 43.5501 29.618 43.4681 29.5883 43.3726C29.5795 43.3277 29.5701 43.2827 29.5613 43.2378C29.5019 42.8788 29.4424 42.5204 29.383 42.1614C29.3758 42.1192 29.3764 42.0749 29.3643 42.0344C29.3318 41.9271 29.3731 41.9041 29.4754 41.8906C29.6609 41.8659 30.2459 41.6412 30.493 41.4631C30.6939 41.3181 30.99 40.9872 30.9366 40.7035C30.8447 40.2097 29.7154 39.9552 28.8239 40.0737C28.3021 40.1428 27.3258 40.4108 27.2785 40.9187C27.2499 41.2417 27.5966 41.6434 27.9538 41.7574Z" fill="#4D4D4D"/>
</g>
<mask id="mask20_1611_1528" style="mask-type:luminance" maskUnits="userSpaceOnUse" x="0" y="0" width="78" height="81">
<path d="M78 0.416504H0V80.0415H78V0.416504Z" fill="white"/>
</mask>
<g mask="url(#mask20_1611_1528)">
<path d="M16.7944 33.9569C16.9458 33.83 17.172 33.78 17.2094 33.5361L16.7944 33.9569Z" fill="#C0C2B3"/>
</g>
<mask id="mask21_1611_1528" style="mask-type:luminance" maskUnits="userSpaceOnUse" x="0" y="0" width="78" height="81">
<path d="M78 0.416504H0V80.0415H78V0.416504Z" fill="white"/>
</mask>
<g mask="url(#mask21_1611_1528)">
<path d="M37.6636 37.1706C37.2432 35.9228 36.0143 35.5099 35.8789 35.4672C35.6461 35.3936 35.0578 35.2161 34.3693 35.4492C33.5587 35.7239 33.1696 36.3773 33.07 36.5515C32.4943 37.5543 32.8207 38.5953 32.8757 38.7621C33.0755 39.1812 33.3528 39.5391 33.6836 39.8582C33.934 40.0998 34.3456 40.4762 34.9642 40.6144C35.0616 40.6363 35.7611 40.7829 36.4397 40.4419C37.4897 39.9138 38.0852 38.4228 37.6636 37.1706Z" fill="#111618"/>
</g>
<mask id="mask22_1611_1528" style="mask-type:luminance" maskUnits="userSpaceOnUse" x="0" y="0" width="78" height="81">
<path d="M78 0.416504H0V80.0415H78V0.416504Z" fill="white"/>
</mask>
<g mask="url(#mask22_1611_1528)">
<path d="M34.9827 37.168C34.7741 37.168 34.5875 37.3461 34.5864 37.5455C34.5848 37.7438 34.7598 37.9157 34.9656 37.9191C35.1725 37.9225 35.3239 37.7472 35.3277 37.4989C35.331 37.2994 35.194 37.168 34.9827 37.168Z" fill="white"/>
</g>
<mask id="mask23_1611_1528" style="mask-type:luminance" maskUnits="userSpaceOnUse" x="0" y="0" width="78" height="81">
<path d="M78 0.416504H0V80.0415H78V0.416504Z" fill="white"/>
</mask>
<g mask="url(#mask23_1611_1528)">
<path d="M34.0507 37.1308C34.0496 36.8999 33.9098 36.7527 33.6947 36.7544C33.5356 36.7555 33.3287 36.9561 33.3281 37.11C33.3276 37.2774 33.5444 37.4892 33.7167 37.4898C33.8702 37.4892 34.0518 37.2943 34.0507 37.1308Z" fill="white"/>
</g>
<mask id="mask24_1611_1528" style="mask-type:luminance" maskUnits="userSpaceOnUse" x="0" y="0" width="78" height="81">
<path d="M78 0.416504H0V80.0415H78V0.416504Z" fill="white"/>
</mask>
<g mask="url(#mask24_1611_1528)">
<path d="M34.6993 36.2075C34.4935 36.2053 34.3075 36.3637 34.3047 36.5429C34.302 36.7132 34.4808 36.8559 34.6966 36.8559C34.8661 36.8559 35.0389 36.6913 35.0411 36.5278C35.0433 36.348 34.8963 36.2104 34.6993 36.2075Z" fill="white"/>
</g>
<mask id="mask25_1611_1528" style="mask-type:luminance" maskUnits="userSpaceOnUse" x="0" y="0" width="78" height="81">
<path d="M78 0.416504H0V80.0415H78V0.416504Z" fill="white"/>
</mask>
<g mask="url(#mask25_1611_1528)">
<path d="M22.6916 37.8621C22.8908 37.861 23.0631 37.7155 23.0598 37.5509C23.0565 37.3846 22.8584 37.2172 22.6613 37.2144C22.499 37.2121 22.3322 37.3677 22.335 37.5189C22.3394 37.7183 22.4896 37.8633 22.6916 37.8621Z" fill="white"/>
</g>
<mask id="mask26_1611_1528" style="mask-type:luminance" maskUnits="userSpaceOnUse" x="0" y="0" width="78" height="81">
<path d="M78 0.416504H0V80.0415H78V0.416504Z" fill="white"/>
</mask>
<g mask="url(#mask26_1611_1528)">
<path d="M24.0264 37.5046C24.2074 37.5041 24.3164 37.4018 24.3103 37.2383C24.3054 37.108 24.1865 37.0215 24.0115 37.0215C23.8326 37.0215 23.7127 37.1181 23.7149 37.2597C23.7171 37.4058 23.8431 37.5052 24.0264 37.5046Z" fill="white"/>
</g>
<mask id="mask27_1611_1528" style="mask-type:luminance" maskUnits="userSpaceOnUse" x="0" y="0" width="78" height="81">
<path d="M78 0.416504H0V80.0415H78V0.416504Z" fill="white"/>
</mask>
<g mask="url(#mask27_1611_1528)">
<path d="M16.7061 25.9963C16.5295 25.8463 15.9819 25.4211 15.1806 25.3975C14.2115 25.3694 13.5676 25.9497 13.3716 26.1317C13.2946 26.2037 12.2297 27.2244 12.484 28.4615C12.5252 28.6626 12.6496 29.2666 13.1856 29.5671C13.5769 29.7868 13.9781 29.7261 14.1284 29.6952C14.988 28.4621 15.8471 27.2295 16.7061 25.9963Z" fill="#C3C6BF"/>
</g>
<mask id="mask28_1611_1528" style="mask-type:luminance" maskUnits="userSpaceOnUse" x="0" y="0" width="78" height="81">
<path d="M78 0.416504H0V80.0415H78V0.416504Z" fill="white"/>
</mask>
<g mask="url(#mask28_1611_1528)">
<path d="M10.3163 26.6227C10.4121 26.2609 10.6113 25.5351 11.1242 24.8121C11.871 23.7581 12.855 23.3143 13.2117 23.1587C14.5137 22.5913 15.6568 22.7334 16.085 22.7924C17.8956 23.0424 18.595 24.0666 18.6033 24.0795C18.6203 24.1081 18.6258 24.1385 18.6258 24.1385C18.6275 24.1491 18.6286 24.1598 18.628 24.171C18.6187 24.2531 18.5615 24.3008 18.5048 24.3491C18.0276 24.7587 17.5742 25.1946 17.1207 25.6312C16.9875 25.7587 16.8653 25.8997 16.7057 25.9958C16.5252 25.8615 16.1433 25.6149 15.5996 25.5385C15.4829 25.5222 15.0316 25.4677 14.4879 25.6463C14.3013 25.7076 13.7868 25.9008 13.3718 26.3705C12.7125 27.1177 12.3344 28.5301 12.9976 29.2508C13.0966 29.3587 13.4213 29.6705 14.1285 29.6947C13.7042 30.6396 13.2793 31.5851 12.855 32.5301C12.4258 32.3239 11.5684 31.8357 10.9146 30.839C10.0412 29.5076 10.1034 28.1396 10.1265 27.7497C10.1568 27.2329 10.2641 26.8211 10.3163 26.6227Z" fill="#4D4D4D"/>
</g>
<mask id="mask29_1611_1528" style="mask-type:luminance" maskUnits="userSpaceOnUse" x="0" y="0" width="78" height="81">
<path d="M78 0.416504H0V80.0415H78V0.416504Z" fill="white"/>
</mask>
<g mask="url(#mask29_1611_1528)">
<path d="M60.6451 38.2764C60.4035 38.1377 60.1894 37.9495 59.9379 37.8281C59.671 37.6995 59.3876 37.6304 59.0948 37.6152C58.4867 37.5832 57.8775 37.7826 57.3398 38.0731C56.2237 38.6764 55.3503 39.7686 54.1214 40.1382C53.4968 40.3259 52.816 40.3191 52.269 39.9113C52.0874 39.7759 51.908 40.0315 51.9894 40.209C52.5497 41.427 53.6613 42.2961 54.9244 42.4843C55.6145 42.5871 56.3046 42.4905 56.9512 42.2186C57.5588 41.963 58.157 41.5877 58.8284 41.5837C59.5059 41.5798 60.1498 41.9135 60.5785 42.468C60.6902 42.6124 60.9379 42.495 60.9274 42.3141C60.8531 41.0321 60.8542 39.7472 60.9296 38.4658C60.9401 38.2832 60.7689 38.2202 60.6451 38.2764Z" fill="#BB8F91"/>
</g>
<mask id="mask30_1611_1528" style="mask-type:luminance" maskUnits="userSpaceOnUse" x="0" y="0" width="78" height="81">
<path d="M78 0.416504H0V80.0415H78V0.416504Z" fill="white"/>
</mask>
<g mask="url(#mask30_1611_1528)">
<path d="M60.9973 37.6805C60.9902 37.4013 60.5813 37.4002 60.589 37.6805C60.6561 40.2261 60.7227 42.771 60.7898 45.3165C60.797 45.5957 61.2059 45.5969 61.1982 45.3165C61.1311 42.771 61.0645 40.2255 60.9973 37.6805Z" fill="#63C9B5"/>
</g>
<mask id="mask31_1611_1528" style="mask-type:luminance" maskUnits="userSpaceOnUse" x="0" y="0" width="78" height="81">
<path d="M78 0.416504H0V80.0415H78V0.416504Z" fill="white"/>
</mask>
<g mask="url(#mask31_1611_1528)">
<path d="M69.4233 63.855C69.2175 63.3668 68.9093 62.9426 68.5334 62.5999C67.9489 61.7392 67.3689 60.8735 66.7657 60.0274C66.3023 59.3774 65.7597 58.742 65.0569 58.4274C65.0586 58.4151 65.0602 58.4022 65.0602 58.3881C65.0608 55.9005 65.0608 53.4128 65.0613 50.9252C65.0613 50.8909 65.0553 50.8611 65.0443 50.8353C65.7107 50.2965 66.1994 49.5212 66.3821 48.6459C66.5874 47.6645 66.4058 46.615 65.8945 45.7707C66.0062 45.6443 65.9617 45.3864 65.7581 45.4027C64.9755 45.4656 64.1929 45.5291 63.4103 45.592C63.3867 45.5937 63.3652 45.5993 63.3454 45.6072C63.2183 45.5392 63.0075 45.6561 63.0394 45.8605C63.1175 46.3617 63.2172 47.1645 62.7962 47.5285C62.7774 47.1886 62.7543 46.8493 62.7103 46.5156C62.6756 46.2532 62.5936 45.9898 62.3966 45.8139C62.3042 45.7313 62.1946 45.6723 62.0802 45.6465C62.0482 45.5959 61.9943 45.5617 61.9173 45.5673C61.5573 45.5914 61.1974 45.6156 60.8375 45.6392C60.6575 45.651 60.4776 45.6634 60.2976 45.6751C60.1424 45.6853 59.9729 45.6785 59.8221 45.7229C59.5046 45.8167 59.4848 46.1274 59.4848 46.4235C59.4848 46.6521 59.4848 46.8802 59.4848 47.1089C59.4787 47.1061 59.4721 47.1032 59.4655 47.101C59.1001 46.9774 58.8943 46.5381 59.0016 46.1516C59.0495 45.9785 58.9031 45.869 58.7732 45.8847C58.7468 45.8139 58.6863 45.7594 58.5921 45.7611L56.1652 45.8128C56.0936 45.8145 56.0419 45.8476 56.0094 45.8954C55.9588 45.9038 55.9109 45.9369 55.8806 46.0044C55.4541 46.9358 55.3661 48.033 55.6886 49.0173C55.9786 49.9038 56.5647 50.6572 57.3253 51.1308C57.322 51.1454 57.3192 51.1606 57.3181 51.1769L57.2367 52.4999H55.3033C55.207 52.4999 55.146 52.5589 55.1201 52.6325C55.0838 52.66 55.0562 52.6988 55.0502 52.746C54.9974 53.1583 55.0634 53.5673 55.0304 53.9797C55.0062 54.2808 54.8543 54.7218 54.5054 54.7134C54.1686 54.705 54.0244 54.2791 53.9847 53.9881C53.9297 53.5859 53.9682 53.1791 53.851 52.7864C53.8246 52.6976 53.763 52.6516 53.6953 52.6387C53.6733 52.6297 53.6479 52.6246 53.6199 52.6246H51.5446C51.5115 52.6246 51.4829 52.6314 51.4582 52.6432C51.3822 52.6656 51.3244 52.7314 51.3349 52.8426C51.3712 53.2128 51.3646 53.5864 51.2986 53.9521C51.2666 54.1274 51.2237 54.3005 51.1692 54.4701C51.1335 54.5814 51.0801 54.7859 50.964 54.8347C50.5182 55.0224 50.4175 53.2111 50.4169 52.9667C50.4164 52.8634 50.3608 52.7982 50.2903 52.7712C50.2799 52.6729 50.2144 52.583 50.095 52.583H48.0962C47.9646 52.4853 47.7252 52.6021 47.7759 52.8184C47.8733 53.2342 47.9069 53.6583 47.8733 54.0853C47.8562 54.3038 47.821 54.5235 47.7638 54.7342C47.7291 54.86 47.6702 55.055 47.5288 55.0791C47.187 55.1375 47.0252 54.4055 46.9636 54.1623C46.8579 53.7437 46.8265 53.3151 46.8563 52.8836C46.8634 52.7814 46.8128 52.7167 46.7451 52.6892C46.7126 52.655 46.6675 52.6325 46.6097 52.6302C45.9829 52.6055 45.3566 52.5808 44.7298 52.5561C44.7193 52.5555 44.71 52.5561 44.7 52.5572C44.6984 52.2516 44.6962 51.946 44.6945 51.6403C44.6918 51.2128 44.6742 50.769 44.8024 50.3572C44.9191 49.9813 45.192 49.7437 45.4507 49.4785C45.7242 49.1976 45.9339 48.8802 45.99 48.4718C46.1304 47.4532 45.4193 46.6195 45.41 45.6285C45.4089 45.5038 45.3263 45.4341 45.2361 45.4212C45.2141 45.4105 45.1898 45.4032 45.1623 45.401C44.4788 45.3398 43.7958 45.3594 43.1173 45.451C43.0171 45.3353 42.8047 45.3577 42.7662 45.5207C42.6589 45.5914 42.6759 45.7639 42.77 45.8555C42.7849 46.428 42.7601 47.0027 42.6842 47.5701C42.6743 47.6448 42.6671 47.8482 42.6022 47.8965C42.5257 47.9532 42.4536 47.8049 42.4321 47.7392C42.3507 47.4875 42.3975 47.2285 42.2802 46.9808C42.2588 46.9353 42.2296 46.9055 42.1966 46.8886C42.1311 46.5268 42.0783 46.1628 42.0403 45.7965C42.0298 45.6982 41.9709 45.6347 41.901 45.606C41.8686 45.5667 41.819 45.5426 41.7525 45.5476C40.9435 45.6094 40.1345 45.6712 39.326 45.733C39.2776 45.7369 39.2385 45.7549 39.2083 45.7813C39.1532 45.8128 39.1158 45.8735 39.1241 45.9639C39.1593 46.3347 39.1626 46.7066 39.1274 47.078C39.1213 47.1459 39.1065 47.4622 38.9953 47.4488C38.927 47.4403 38.9078 47.2297 38.9028 47.1763C38.8957 47.1021 38.861 47.0482 38.8148 47.0134C38.7823 46.7066 38.7498 46.3999 38.7174 46.0926C38.7075 45.9993 38.6612 45.906 38.5677 45.883C38.2666 45.8077 37.9695 45.8072 37.6684 45.8813C37.6437 45.8875 37.6222 45.8971 37.604 45.9089C37.1219 45.9898 36.6393 46.0678 36.1583 46.1544C35.953 46.1909 35.7538 46.2617 35.6256 46.4471C35.4979 46.6313 35.4792 46.8695 35.4924 47.0909C35.5282 47.6802 35.6168 48.2723 35.7153 48.8527C35.7929 49.3106 35.8545 49.8319 36.111 50.224C36.2453 50.4291 36.4214 50.5679 36.6349 50.6667C36.7835 50.7358 37.0537 50.8016 37.1225 50.9797C37.1423 51.0313 37.1742 51.0673 37.2116 51.0909C37.4593 53.4566 37.5507 55.8392 37.4835 58.2185C36.8484 58.2095 36.221 58.3078 35.6256 58.6117C35.116 58.8718 34.6719 59.2864 34.4055 59.8213C34.1144 60.4055 34.0307 61.0713 33.9845 61.7218C33.9273 62.5297 33.8882 63.3393 33.8425 64.1482C33.083 64.4224 32.3858 64.8735 31.8074 65.4674C31.5581 65.4196 31.3027 65.4174 31.0429 65.4865C30.4216 65.6505 29.9351 66.3061 30.1134 67.0005C30.1167 67.0129 30.1206 67.0235 30.125 67.0342C30.131 67.137 30.1965 67.2353 30.322 67.2353H69.1674C69.2956 67.2353 69.3611 67.132 69.3644 67.0258C69.4211 67.0072 69.4717 66.964 69.4992 66.8921C69.869 65.9207 69.825 64.8084 69.4233 63.855Z" fill="#FDCB71"/>
</g>
<mask id="mask32_1611_1528" style="mask-type:luminance" maskUnits="userSpaceOnUse" x="0" y="0" width="78" height="81">
<path d="M78 0.416504H0V80.0415H78V0.416504Z" fill="white"/>
</mask>
<g mask="url(#mask32_1611_1528)">
<path d="M36.0811 64.9901C35.1863 64.8929 34.2887 65.0732 33.4808 65.4912C33.4368 65.5143 33.4082 65.5457 33.3922 65.5811C32.6515 65.3704 31.8568 65.3873 31.1226 65.6485C30.8744 65.7367 30.9806 66.157 31.231 66.0682C32.2332 65.712 33.3388 65.8463 34.2381 66.4384C34.4621 66.5862 34.6679 66.2098 34.4444 66.0626C34.27 65.948 34.0878 65.8485 33.9002 65.7648C34.5881 65.4564 35.3365 65.344 36.0817 65.4249C36.3426 65.4536 36.3409 65.0182 36.0811 64.9901Z" fill="#FAE09D"/>
</g>
<mask id="mask33_1611_1528" style="mask-type:luminance" maskUnits="userSpaceOnUse" x="0" y="0" width="78" height="81">
<path d="M78 0.416504H0V80.0415H78V0.416504Z" fill="white"/>
</mask>
<g mask="url(#mask33_1611_1528)">
<path d="M39.2658 60.5583C39.4981 60.6898 39.7044 60.3145 39.4722 60.1824C39.0484 59.942 38.5058 60.0942 38.2587 60.5353C38.1525 60.5094 38.0446 60.4898 37.9345 60.4774C37.5097 60.4319 37.0782 60.5268 36.6968 60.7274C35.9418 61.124 35.4696 61.965 35.4492 62.8516C35.2682 62.828 35.0805 62.8493 34.911 62.9128C34.4273 63.0931 34.1114 63.5538 33.8582 64.0032C33.7223 64.2437 34.0756 64.4628 34.211 64.2229C34.402 63.8841 34.6303 63.5094 34.9848 63.3465C35.2616 63.219 35.5995 63.2572 35.7926 63.5162C35.9561 63.7353 36.2434 63.4257 36.0816 63.2089C36.0166 63.1223 35.939 63.0521 35.8532 62.9971C35.8559 62.9819 35.857 62.9656 35.857 62.9487C35.8455 62.1701 36.2439 61.4504 36.9027 61.1044C37.6434 60.7156 38.3897 60.9858 39.0969 61.3156C39.3352 61.4268 39.5437 61.0521 39.3032 60.9398C39.0963 60.8437 38.8888 60.7476 38.6764 60.6673C38.8261 60.5021 39.0682 60.4465 39.2658 60.5583Z" fill="#FAE09D"/>
</g>
<mask id="mask34_1611_1528" style="mask-type:luminance" maskUnits="userSpaceOnUse" x="0" y="0" width="78" height="81">
<path d="M78 0.416504H0V80.0415H78V0.416504Z" fill="white"/>
</mask>
<g mask="url(#mask34_1611_1528)">
<path d="M44.8172 59.17C44.4843 58.9931 44.0721 59.0234 43.7639 59.2414C43.6175 58.9813 43.4067 58.7796 43.1167 58.7037C42.7678 58.6122 42.437 58.8049 42.2378 59.1043C42.0842 59.3352 42.0325 59.6054 42.0232 59.8813C41.9395 59.7768 41.8465 59.6802 41.7441 59.5942C41.2296 59.1622 40.5444 59.0178 39.9121 59.1897C39.4625 58.2959 38.4443 57.8167 37.4884 58.1414C37.2386 58.2262 37.3453 58.6464 37.5968 58.5611C38.5676 58.2313 39.556 58.8869 39.7255 59.9504C39.7695 60.2257 40.1636 60.1088 40.1196 59.8347C40.1063 59.7532 40.0893 59.674 40.0684 59.597C40.562 59.4807 41.0986 59.5953 41.4965 59.9369C41.9197 60.3004 42.1415 60.8667 42.1184 61.4397C42.1074 61.7195 42.5157 61.7189 42.5267 61.4397C42.5388 61.1386 42.492 60.8375 42.3941 60.5566C42.4321 60.5217 42.4552 60.4684 42.4497 60.3965C42.4255 60.0852 42.3842 59.7245 42.5245 59.4358C42.6252 59.2296 42.8272 59.0532 43.0545 59.1375C43.2851 59.2229 43.432 59.4863 43.5162 59.7156C43.6268 60.0178 43.6599 60.3498 43.6109 60.67C43.569 60.9436 43.9625 61.0616 44.0049 60.7858C44.0555 60.4515 44.0396 60.0279 43.9295 59.6476C44.3637 59.3116 44.9763 59.5824 44.984 60.1841C44.9873 60.4639 45.3956 60.4644 45.3923 60.1841C45.3879 59.765 45.1738 59.3599 44.8172 59.17Z" fill="#FAE09D"/>
</g>
<mask id="mask35_1611_1528" style="mask-type:luminance" maskUnits="userSpaceOnUse" x="0" y="0" width="78" height="81">
<path d="M78 0.416504H0V80.0415H78V0.416504Z" fill="white"/>
</mask>
<g mask="url(#mask35_1611_1528)">
<path d="M48.1039 63.8676C47.6185 63.6424 47.0494 63.8485 46.7555 64.3042C46.7506 64.312 46.7456 64.3204 46.7418 64.3283C46.5437 64.2137 46.3202 64.1491 46.0891 64.1525C45.5239 64.1615 45.0104 64.5716 44.8134 65.1255C44.5091 64.9064 44.1563 64.7598 43.7903 64.7019C42.7794 64.5418 41.786 64.962 40.9671 65.5682C40.4795 65.9294 40.0354 66.3514 39.594 66.7738C39.3981 66.9615 39.6876 67.2682 39.883 67.0817C40.742 66.2598 41.6545 65.3929 42.8256 65.1536C43.7848 64.9575 44.9455 65.3553 45.2801 66.4227C45.3632 66.6867 45.7578 66.5738 45.6741 66.307C45.5679 65.9682 45.3857 65.6705 45.1541 65.4249C45.1546 65.4221 45.1557 65.4188 45.1563 65.416C45.2575 64.9637 45.6417 64.5952 46.088 64.5884C46.5337 64.5811 46.9333 64.9283 47.0478 65.3789C47.116 65.6491 47.5106 65.5345 47.4418 65.2631C47.3758 65.0019 47.2393 64.7654 47.0588 64.5789C47.0764 64.5648 47.0929 64.5469 47.1072 64.5244C47.2855 64.248 47.6548 64.1294 47.9448 64.2671C48.237 64.4058 48.39 64.7817 48.3174 65.1058C48.2563 65.3778 48.6503 65.494 48.7114 65.2216C48.8325 64.6862 48.5865 64.0912 48.1039 63.8676Z" fill="#FAE09D"/>
</g>
<mask id="mask36_1611_1528" style="mask-type:luminance" maskUnits="userSpaceOnUse" x="0" y="0" width="78" height="81">
<path d="M78 0.416504H0V80.0415H78V0.416504Z" fill="white"/>
</mask>
<g mask="url(#mask36_1611_1528)">
<path d="M61.3721 63.1508C60.6765 62.2638 59.3667 62.2649 58.6733 63.1542C58.6573 63.1744 58.6458 63.1952 58.6375 63.2166C57.981 62.7362 57.2023 62.4413 56.4048 62.3806C54.8831 62.2649 53.4589 63.1155 52.6301 64.4559C52.1645 65.2093 51.9047 66.1048 51.9185 67.0082C51.9229 67.2879 52.3312 67.2885 52.3268 67.0082C52.3037 65.5368 53.0835 64.1155 54.2613 63.3587C55.4269 62.6093 56.8787 62.6537 58.0591 63.3452C58.7245 63.7351 59.2759 64.3126 59.6292 65.0301C59.7514 65.2784 60.1042 65.0587 59.982 64.8104C59.7261 64.2913 59.3722 63.8396 58.9534 63.4705C58.9562 63.4677 58.9589 63.4649 58.9611 63.4615C59.5219 62.7424 60.5197 62.7407 61.0821 63.4587C61.2522 63.6733 61.54 63.3643 61.3721 63.1508Z" fill="#FAE09D"/>
</g>
<mask id="mask37_1611_1528" style="mask-type:luminance" maskUnits="userSpaceOnUse" x="0" y="0" width="78" height="81">
<path d="M78 0.416504H0V80.0415H78V0.416504Z" fill="white"/>
</mask>
<g mask="url(#mask37_1611_1528)">
<path d="M65.0572 58.4722C62.5653 57.5672 59.7624 58.1672 57.7906 60.02C57.702 60.1031 57.6156 60.1902 57.5308 60.2779C57.5259 60.2739 57.5204 60.2705 57.5149 60.2672C56.9893 59.9492 56.3889 59.9408 55.8826 60.1902C55.7395 59.9936 55.5573 59.8475 55.3581 59.7548C55.3801 59.7014 55.379 59.6368 55.3394 59.5705C55.0653 59.1166 54.7115 58.7217 54.3042 58.4042C54.3262 58.3868 54.346 58.3621 54.362 58.329C54.9233 57.1481 56.2238 56.6481 57.3712 57.1531C57.4874 57.2042 57.5716 57.1346 57.6024 57.0368C57.6415 57.002 57.669 56.9497 57.6717 56.8801C57.7543 54.784 57.7185 52.6846 57.5644 50.5935C57.544 50.3166 57.1351 50.3138 57.1561 50.5935C57.3046 52.6093 57.3432 54.6329 57.2716 56.6531C56.6101 56.4284 55.9079 56.493 55.3031 56.7896C54.9723 56.3194 54.4792 55.9975 53.9267 55.9211C53.3054 55.8357 52.6752 56.0784 52.2322 56.5447C52.0451 56.7419 52.334 57.0492 52.5211 56.8526C53.2168 56.1205 54.3499 56.2042 54.9437 57.002C54.5568 57.2717 54.2299 57.6469 54.0103 58.1093C53.9988 58.1329 53.9922 58.1565 53.9889 58.1795C53.569 57.9104 53.1045 57.7194 52.6196 57.6245C51.5305 57.411 50.3968 57.6992 49.5053 58.3975C49.0072 58.7874 48.5917 59.2835 48.3012 59.8655C48.1779 60.1127 48.5301 60.3329 48.6539 60.0851C49.1179 59.1554 49.9296 58.4509 50.8767 58.1475C51.8481 57.8363 52.8948 57.9958 53.7654 58.5436C54.2079 58.8217 54.5926 59.1936 54.8903 59.638C54.5178 59.62 54.1391 59.7722 53.8651 60.1127C53.695 60.3245 53.9828 60.6335 54.154 60.42C54.52 59.9649 55.1798 59.9385 55.5359 60.4155C55.4049 60.5234 55.2849 60.652 55.1809 60.8003C55.0235 61.0245 55.3779 61.2419 55.5337 61.02C55.9321 60.4526 56.653 60.2947 57.237 60.6009C56.9552 60.9295 56.6993 61.2835 56.4725 61.6582C56.3295 61.8941 56.6828 62.1121 56.8253 61.8779C58.1208 59.7425 60.3981 58.443 62.7865 58.4851C63.5245 58.4981 64.2521 58.6374 64.9504 58.8908C65.1975 58.9823 65.3049 58.5621 65.0572 58.4722Z" fill="#FAE09D"/>
</g>
<mask id="mask38_1611_1528" style="mask-type:luminance" maskUnits="userSpaceOnUse" x="0" y="0" width="78" height="81">
<path d="M78 0.416504H0V80.0415H78V0.416504Z" fill="white"/>
</mask>
<g mask="url(#mask38_1611_1528)">
<path d="M49.1672 57.3766C48.7407 56.6873 47.9234 56.344 47.1733 56.5519C47.0759 56.1755 46.9092 55.8193 46.6747 55.5064C46.2224 54.9019 45.5454 54.5288 44.83 54.4389C44.8152 53.0659 44.8003 51.6929 44.7849 50.3204C44.7816 50.0406 44.3732 50.0401 44.376 50.3204C44.4024 52.7502 44.4288 55.18 44.4558 57.6097C44.4585 57.8895 44.8674 57.8901 44.8641 57.6097C44.8542 56.6985 44.8443 55.7867 44.8344 54.8755C46.1349 55.0575 47.0704 56.3923 46.8338 57.7856C46.7876 58.0592 47.181 58.1766 47.2278 57.9013C47.2801 57.5946 47.2878 57.2839 47.2526 56.9811C47.8315 56.8142 48.4809 57.0586 48.8144 57.5974C48.9581 57.8289 49.3125 57.6109 49.1672 57.3766Z" fill="#FAE09D"/>
</g>
</svg>
