<svg width="62" height="62" viewBox="0 0 62 62" fill="none" xmlns="http://www.w3.org/2000/svg">
<mask id="mask0_1611_8294" style="mask-type:luminance" maskUnits="userSpaceOnUse" x="0" y="0" width="62" height="62">
<path d="M62 0H0V62H62V0Z" fill="white"/>
</mask>
<g mask="url(#mask0_1611_8294)">
<path d="M21.8829 47.7383C20.6769 50.3285 18.4092 52.3386 16.2993 53.747C14.5812 54.8937 14.3738 57.3519 15.9098 58.7336C17.3209 60.0039 19.2585 61.1506 21.3345 61.7839C23.9613 62.5856 26.7495 61.0937 27.5915 58.4841C28.4142 55.9339 29.3023 52.49 29.2477 49.6298L21.8829 47.7383Z" fill="#89A767"/>
</g>
<mask id="mask1_1611_8294" style="mask-type:luminance" maskUnits="userSpaceOnUse" x="0" y="0" width="62" height="62">
<path d="M62 0H0V62H62V0Z" fill="white"/>
</mask>
<g mask="url(#mask1_1611_8294)">
<path d="M19.4639 51.1604C21.8165 53.0858 24.9128 54.1853 28.6996 54.4432C29.049 52.8206 29.2856 51.1434 29.2577 49.6298L21.8929 47.7383C21.2947 49.0231 20.4357 50.1638 19.4639 51.1604Z" fill="#7C9B5A"/>
</g>
<mask id="mask2_1611_8294" style="mask-type:luminance" maskUnits="userSpaceOnUse" x="0" y="0" width="62" height="62">
<path d="M62 0H0V62H62V0Z" fill="white"/>
</mask>
<g mask="url(#mask2_1611_8294)">
<path d="M51.1973 58.0685H9.55777C8.5762 58.0685 7.78027 57.2741 7.78027 56.2945V54.0167C7.78027 53.0371 8.5762 52.2427 9.55777 52.2427H51.1973C52.1788 52.2427 52.9748 53.0371 52.9748 54.0167V56.2945C52.9735 57.2741 52.1788 58.0685 51.1973 58.0685Z" fill="#89867F"/>
</g>
<mask id="mask3_1611_8294" style="mask-type:luminance" maskUnits="userSpaceOnUse" x="0" y="0" width="62" height="62">
<path d="M62 0H0V62H62V0Z" fill="white"/>
</mask>
<g mask="url(#mask3_1611_8294)">
<path d="M10.1401 9.01266L25.1414 9.69805L26.0393 4.61453L10.9215 1.9541C8.98262 1.61262 7.13354 2.9059 6.79139 4.84098C6.41769 6.95406 7.99135 8.91457 10.1401 9.01266Z" fill="#89A767"/>
</g>
<mask id="mask4_1611_8294" style="mask-type:luminance" maskUnits="userSpaceOnUse" x="0" y="0" width="62" height="62">
<path d="M62 0H0V62H62V0Z" fill="white"/>
</mask>
<g mask="url(#mask4_1611_8294)">
<path d="M55.4485 40.3931C55.4485 43.4725 52.0682 47.2167 44.9679 47.2167C41.8825 47.2167 39.3818 44.721 39.3818 41.6416C39.3818 38.5621 41.8825 36.0664 44.9679 36.0664C49.4753 36.0652 55.4485 36.552 55.4485 40.3931Z" fill="#96B077"/>
</g>
<mask id="mask5_1611_8294" style="mask-type:luminance" maskUnits="userSpaceOnUse" x="0" y="0" width="62" height="62">
<path d="M62 0H0V62H62V0Z" fill="white"/>
</mask>
<g mask="url(#mask5_1611_8294)">
<path d="M47.752 46.9987C52.1259 43.2096 51.472 38.6953 50.0548 36.3872C52.9959 36.8498 55.4395 37.9336 55.4395 40.3906C55.4395 43.034 52.9461 46.1643 47.752 46.9987Z" fill="#4D4D4D"/>
</g>
<mask id="mask6_1611_8294" style="mask-type:luminance" maskUnits="userSpaceOnUse" x="0" y="0" width="62" height="62">
<path d="M62 0H0V62H62V0Z" fill="white"/>
</mask>
<g mask="url(#mask6_1611_8294)">
<path d="M47.9333 36.1572C48.6516 36.2069 49.3674 36.2807 50.0554 36.3897C51.4713 38.699 52.1253 43.2134 47.7525 47.0012C46.8947 47.1392 45.9665 47.2167 44.9607 47.2167C44.6331 47.2167 44.3128 47.1877 44.001 47.1332C48.0935 42.8355 49.2716 39.6411 47.9333 36.1572Z" fill="#E8EDEC"/>
</g>
<mask id="mask7_1611_8294" style="mask-type:luminance" maskUnits="userSpaceOnUse" x="0" y="0" width="62" height="62">
<path d="M62 0H0V62H62V0Z" fill="white"/>
</mask>
<g mask="url(#mask7_1611_8294)">
<path d="M44.7194 39.262C44.7194 31.2201 38.341 24.7017 30.4715 24.7017C22.6032 24.7017 16.2236 31.2201 16.2236 39.262C16.2236 47.3038 20.6328 52.8075 30.4715 52.8075C40.3102 52.8075 44.7194 47.3026 44.7194 39.262Z" fill="#A2BA87"/>
</g>
<mask id="mask8_1611_8294" style="mask-type:luminance" maskUnits="userSpaceOnUse" x="0" y="0" width="62" height="62">
<path d="M62 0H0V62H62V0Z" fill="white"/>
</mask>
<g mask="url(#mask8_1611_8294)">
<path d="M13.127 9.14879L25.1363 9.69856L26.0353 4.61504L18.1549 3.22852C16.1554 4.87781 14.4495 6.88313 13.127 9.14879Z" fill="#7C9B5A"/>
</g>
<mask id="mask9_1611_8294" style="mask-type:luminance" maskUnits="userSpaceOnUse" x="0" y="0" width="62" height="62">
<path d="M62 0H0V62H62V0Z" fill="white"/>
</mask>
<g mask="url(#mask9_1611_8294)">
<path d="M51.7782 20.4334C51.7782 31.7193 42.8252 37.7994 31.7817 37.7994C20.7381 37.7994 11.7852 31.7193 11.7852 20.4334C11.7839 9.14863 20.7369 0 31.7817 0C42.8252 0 51.7782 9.14863 51.7782 20.4334Z" fill="#A2BA87"/>
</g>
<mask id="mask10_1611_8294" style="mask-type:luminance" maskUnits="userSpaceOnUse" x="0" y="0" width="62" height="62">
<path d="M62 0H0V62H62V0Z" fill="white"/>
</mask>
<g mask="url(#mask10_1611_8294)">
<path d="M31.7819 37.7977C35.0894 37.7977 38.21 37.2515 40.9582 36.1835C12.1579 37.6621 9.74582 11.5482 22.232 2.47461C16.0077 5.93789 11.7842 12.6804 11.7842 20.4316C11.7842 31.7176 20.7372 37.7977 31.7819 37.7977Z" fill="#96B077"/>
</g>
<mask id="mask11_1611_8294" style="mask-type:luminance" maskUnits="userSpaceOnUse" x="0" y="0" width="62" height="62">
<path d="M62 0H0V62H62V0Z" fill="white"/>
</mask>
<g mask="url(#mask11_1611_8294)">
<path d="M40.377 24.1359H30.7275V18.2289C30.7275 16.0844 32.4686 14.3467 34.6174 14.3467C38.9162 14.3467 42.402 17.8245 42.402 22.1161C42.402 23.2313 41.4944 24.1359 40.377 24.1359Z" fill="#FDEEC4"/>
</g>
<mask id="mask12_1611_8294" style="mask-type:luminance" maskUnits="userSpaceOnUse" x="0" y="0" width="62" height="62">
<path d="M62 0H0V62H62V0Z" fill="white"/>
</mask>
<g mask="url(#mask12_1611_8294)">
<path d="M35.0239 27.9553H32.9867C31.7394 27.9553 30.7275 26.9454 30.7275 25.7005V24.1372H38.8482C38.8482 26.2467 37.1362 27.9553 35.0239 27.9553Z" fill="#E2D4B0"/>
</g>
<mask id="mask13_1611_8294" style="mask-type:luminance" maskUnits="userSpaceOnUse" x="0" y="0" width="62" height="62">
<path d="M62 0H0V62H62V0Z" fill="white"/>
</mask>
<g mask="url(#mask13_1611_8294)">
<path d="M28.8228 19.9568C28.8228 18.1658 26.9956 16.7139 24.7425 16.7139C22.4893 16.7139 20.6621 18.1658 20.6621 19.9568C20.6621 21.7477 22.4893 23.1996 24.7425 23.1996C26.9956 23.1996 28.8228 21.7477 28.8228 19.9568Z" fill="#D8C3BF"/>
</g>
<mask id="mask14_1611_8294" style="mask-type:luminance" maskUnits="userSpaceOnUse" x="0" y="0" width="62" height="62">
<path d="M62 0H0V62H62V0Z" fill="white"/>
</mask>
<g mask="url(#mask14_1611_8294)">
<path d="M50.9359 19.9568C50.9359 18.1658 49.1086 16.7139 46.8555 16.7139C44.6024 16.7139 42.7764 18.1658 42.7764 19.9568C42.7764 21.7477 44.6024 23.1996 46.8555 23.1996C49.1098 23.1996 50.9359 21.7477 50.9359 19.9568Z" fill="#D8C3BF"/>
</g>
<mask id="mask15_1611_8294" style="mask-type:luminance" maskUnits="userSpaceOnUse" x="0" y="0" width="62" height="62">
<path d="M62 0H0V62H62V0Z" fill="white"/>
</mask>
<g mask="url(#mask15_1611_8294)">
<path d="M28.3969 17.629C27.8934 17.629 27.4869 17.2234 27.4869 16.7208C27.4869 16.211 27.0719 15.7969 26.5611 15.7969C26.0503 15.7969 25.6354 16.2122 25.6354 16.7208C25.6354 17.2234 25.2277 17.629 24.7254 17.629C24.2231 17.629 23.8154 17.2234 23.8154 16.7208C23.8154 15.2096 25.0469 13.9805 26.5611 13.9805C28.0754 13.9805 29.3069 15.2096 29.3069 16.7208C29.3069 17.2221 28.9004 17.629 28.3969 17.629Z" fill="#4D4D4D"/>
</g>
<mask id="mask16_1611_8294" style="mask-type:luminance" maskUnits="userSpaceOnUse" x="0" y="0" width="62" height="62">
<path d="M62 0H0V62H62V0Z" fill="white"/>
</mask>
<g mask="url(#mask16_1611_8294)">
<path d="M46.8734 17.629C46.3699 17.629 45.9635 17.2234 45.9635 16.7208C45.9635 16.211 45.5473 15.7969 45.0377 15.7969C44.5269 15.7969 44.112 16.2122 44.112 16.7208C44.112 17.2234 43.7055 17.629 43.202 17.629C42.6997 17.629 42.292 17.2234 42.292 16.7208C42.292 15.2096 43.5235 13.9805 45.0377 13.9805C46.5519 13.9805 47.7834 15.2096 47.7834 16.7208C47.7834 17.2221 47.3757 17.629 46.8734 17.629Z" fill="#4D4D4D"/>
</g>
<mask id="mask17_1611_8294" style="mask-type:luminance" maskUnits="userSpaceOnUse" x="0" y="0" width="62" height="62">
<path d="M62 0H0V62H62V0Z" fill="white"/>
</mask>
<g mask="url(#mask17_1611_8294)">
<path d="M27.5494 58.0184C26.3422 58.0184 25.3643 57.0424 25.3643 55.8375V51.2529C25.3643 50.0493 26.3422 49.0732 27.5494 49.0732C28.7555 49.0732 29.7334 50.0493 29.7334 51.2529V55.8375C29.7334 57.0424 28.7555 58.0184 27.5494 58.0184Z" fill="#FDEEC4"/>
</g>
<mask id="mask18_1611_8294" style="mask-type:luminance" maskUnits="userSpaceOnUse" x="0" y="0" width="62" height="62">
<path d="M62 0H0V62H62V0Z" fill="white"/>
</mask>
<g mask="url(#mask18_1611_8294)">
<path d="M36.0716 58.0184C34.8644 58.0184 33.8877 57.0424 33.8877 55.8375V51.2529C33.8877 50.0493 34.8656 49.0732 36.0716 49.0732C37.2777 49.0732 38.2556 50.0493 38.2556 51.2529V55.8375C38.2568 57.0424 37.2777 58.0184 36.0716 58.0184Z" fill="#FDEEC4"/>
</g>
<mask id="mask19_1611_8294" style="mask-type:luminance" maskUnits="userSpaceOnUse" x="0" y="0" width="62" height="62">
<path d="M62 0H0V62H62V0Z" fill="white"/>
</mask>
<g mask="url(#mask19_1611_8294)">
<path d="M10.6703 48.1534C12.8518 50.3306 17.8955 50.5922 22.915 45.5825C25.0965 43.4053 25.0965 39.8742 22.915 37.6969C20.7335 35.5196 17.1967 35.5196 15.0151 37.6969C11.8278 40.878 7.95005 45.4372 10.6703 48.1534Z" fill="#96B077"/>
</g>
<mask id="mask20_1611_8294" style="mask-type:luminance" maskUnits="userSpaceOnUse" x="0" y="0" width="62" height="62">
<path d="M62 0H0V62H62V0Z" fill="white"/>
</mask>
<g mask="url(#mask20_1611_8294)">
<path d="M20.7898 47.3979C15.0132 47.8048 12.2772 44.1514 11.6427 41.52C9.89065 43.9225 8.93092 46.4134 10.672 48.1511C12.5442 50.0196 16.525 50.4737 20.7898 47.3979Z" fill="#4D4D4D"/>
</g>
<mask id="mask21_1611_8294" style="mask-type:luminance" maskUnits="userSpaceOnUse" x="0" y="0" width="62" height="62">
<path d="M62 0H0V62H62V0Z" fill="white"/>
</mask>
<g mask="url(#mask21_1611_8294)">
<path d="M12.9814 39.8564C12.5082 40.3989 12.0556 40.956 11.6455 41.5191C12.2801 44.1504 15.0161 47.805 20.7926 47.397C21.4964 46.8884 22.2086 46.2889 22.9196 45.5781C23.1513 45.3468 23.3564 45.0998 23.5396 44.8407C17.6004 44.6917 14.5028 43.264 12.9814 39.8564Z" fill="#E8EDEC"/>
</g>
<mask id="mask22_1611_8294" style="mask-type:luminance" maskUnits="userSpaceOnUse" x="0" y="0" width="62" height="62">
<path d="M62 0H0V62H62V0Z" fill="white"/>
</mask>
<g mask="url(#mask22_1611_8294)">
<path d="M30.3709 44.6277C29.8686 44.6277 29.4609 44.2209 29.4609 43.7195V41.2129C29.4609 40.7116 29.8686 40.3047 30.3709 40.3047C30.8732 40.3047 31.2809 40.7116 31.2809 41.2129V43.7195C31.2809 44.2221 30.8732 44.6277 30.3709 44.6277Z" fill="#C1D3A7"/>
</g>
<mask id="mask23_1611_8294" style="mask-type:luminance" maskUnits="userSpaceOnUse" x="0" y="0" width="62" height="62">
<path d="M62 0H0V62H62V0Z" fill="white"/>
</mask>
<g mask="url(#mask23_1611_8294)">
<path d="M34.6649 46.1717C34.1613 46.1717 33.7549 45.7648 33.7549 45.2635V42.7568C33.7549 42.2555 34.1613 41.8486 34.6649 41.8486C35.1672 41.8486 35.5748 42.2555 35.5748 42.7568V45.2635C35.5748 45.766 35.1684 46.1717 34.6649 46.1717Z" fill="#C1D3A7"/>
</g>
<mask id="mask24_1611_8294" style="mask-type:luminance" maskUnits="userSpaceOnUse" x="0" y="0" width="62" height="62">
<path d="M62 0H0V62H62V0Z" fill="white"/>
</mask>
<g mask="url(#mask24_1611_8294)">
<path d="M38.9617 44.6277C38.4594 44.6277 38.0518 44.2209 38.0518 43.7195V41.2129C38.0518 40.7116 38.4594 40.3047 38.9617 40.3047C39.464 40.3047 39.8717 40.7116 39.8717 41.2129V43.7195C39.8717 44.2221 39.4653 44.6277 38.9617 44.6277Z" fill="#C1D3A7"/>
</g>
</svg>
