<svg width="63" height="65" viewBox="0 0 63 65" fill="none" xmlns="http://www.w3.org/2000/svg">
<g clip-path="url(#clip0_1611_10572)">
<mask id="mask0_1611_10572" style="mask-type:luminance" maskUnits="userSpaceOnUse" x="0" y="0" width="63" height="65">
<path d="M63 0.604004H0V64.9165H63V0.604004Z" fill="white"/>
</mask>
<g mask="url(#mask0_1611_10572)">
<path d="M22.2396 50.1235C21.0141 52.8103 18.7099 54.8955 16.5659 56.3563C14.8202 57.5459 14.6094 60.0957 16.1702 61.529C17.604 62.8466 19.5729 64.0361 21.6824 64.6931C24.3515 65.5246 27.1847 63.9771 28.0403 61.2702C28.8762 58.6248 29.7787 55.0525 29.7232 52.0856L22.2396 50.1235Z" fill="#959595"/>
</g>
<mask id="mask1_1611_10572" style="mask-type:luminance" maskUnits="userSpaceOnUse" x="0" y="0" width="63" height="65">
<path d="M63 0.604004H0V64.9165H63V0.604004Z" fill="white"/>
</mask>
<g mask="url(#mask1_1611_10572)">
<path d="M19.7715 53.6733C22.162 55.6705 25.3083 56.811 29.1561 57.0786C29.5112 55.3954 29.7516 53.6557 29.7233 52.0856L22.2397 50.1235C21.6319 51.4563 20.759 52.6395 19.7715 53.6733Z" fill="#888888"/>
</g>
<mask id="mask2_1611_10572" style="mask-type:luminance" maskUnits="userSpaceOnUse" x="0" y="0" width="63" height="65">
<path d="M63 0.604004H0V64.9165H63V0.604004Z" fill="white"/>
</mask>
<g mask="url(#mask2_1611_10572)">
<path d="M52.0225 60.8405H9.71144C8.71404 60.8405 7.90527 60.0165 7.90527 59.0003V56.6376C7.90527 55.6214 8.71404 54.7974 9.71144 54.7974H52.0225C53.0199 54.7974 53.8287 55.6214 53.8287 56.6376V59.0003C53.8275 60.0165 53.0199 60.8405 52.0225 60.8405Z" fill="#89867F"/>
</g>
<mask id="mask3_1611_10572" style="mask-type:luminance" maskUnits="userSpaceOnUse" x="0" y="0" width="63" height="65">
<path d="M63 0.604004H0V64.9165H63V0.604004Z" fill="white"/>
</mask>
<g mask="url(#mask3_1611_10572)">
<path d="M10.3005 9.95424L25.5438 10.6652L26.4561 5.39207L11.0945 2.63241C9.12432 2.27819 7.24542 3.61971 6.89775 5.62696C6.51802 7.81886 8.11706 9.8525 10.3005 9.95424Z" fill="#959595"/>
</g>
<mask id="mask4_1611_10572" style="mask-type:luminance" maskUnits="userSpaceOnUse" x="0" y="0" width="63" height="65">
<path d="M63 0.604004H0V64.9165H63V0.604004Z" fill="white"/>
</mask>
<g mask="url(#mask4_1611_10572)">
<path d="M56.3375 42.5012C56.3375 45.6955 52.9027 49.5794 45.6879 49.5794C42.5527 49.5794 40.0117 46.9906 40.0117 43.7963C40.0117 40.602 42.5527 38.0132 45.6879 38.0132C50.268 38.0119 56.3375 38.5169 56.3375 42.5012Z" fill="#A2A2A2"/>
</g>
<mask id="mask5_1611_10572" style="mask-type:luminance" maskUnits="userSpaceOnUse" x="0" y="0" width="63" height="65">
<path d="M63 0.604004H0V64.9165H63V0.604004Z" fill="white"/>
</mask>
<g mask="url(#mask5_1611_10572)">
<path d="M48.5259 49.3559C52.9704 45.4255 52.3059 40.7428 50.8659 38.3486C53.8544 38.8285 56.3374 39.9527 56.3374 42.5013C56.3374 45.2434 53.8038 48.4904 48.5259 49.3559Z" fill="#4D4D4D"/>
</g>
<mask id="mask6_1611_10572" style="mask-type:luminance" maskUnits="userSpaceOnUse" x="0" y="0" width="63" height="65">
<path d="M63 0.604004H0V64.9165H63V0.604004Z" fill="white"/>
</mask>
<g mask="url(#mask6_1611_10572)">
<path d="M48.7096 38.1074C49.4395 38.1589 50.1669 38.2355 50.8659 38.3486C52.3047 40.744 52.9692 45.4267 48.5259 49.3558C47.6543 49.499 46.7111 49.5794 45.6891 49.5794C45.3562 49.5794 45.0307 49.5493 44.7139 49.4927C48.8724 45.0348 50.0695 41.7212 48.7096 38.1074Z" fill="#E8EDEC"/>
</g>
<mask id="mask7_1611_10572" style="mask-type:luminance" maskUnits="userSpaceOnUse" x="0" y="0" width="63" height="65">
<path d="M63 0.604004H0V64.9165H63V0.604004Z" fill="white"/>
</mask>
<g mask="url(#mask7_1611_10572)">
<path d="M45.4412 41.3304C45.4412 32.9887 38.9599 26.2271 30.9635 26.2271C22.9683 26.2271 16.4858 32.9887 16.4858 41.3304C16.4858 49.6722 20.9661 55.3812 30.9635 55.3812C40.9609 55.3812 45.4412 49.671 45.4412 41.3304Z" fill="#AFAFAF"/>
</g>
<mask id="mask8_1611_10572" style="mask-type:luminance" maskUnits="userSpaceOnUse" x="0" y="0" width="63" height="65">
<path d="M63 0.604004H0V64.9165H63V0.604004Z" fill="white"/>
</mask>
<g mask="url(#mask8_1611_10572)">
<path d="M13.3408 10.0962L25.5438 10.6664L26.4574 5.39332L18.4499 3.95508C16.4181 5.66589 14.6847 7.746 13.3408 10.0962Z" fill="#888888"/>
</g>
<mask id="mask9_1611_10572" style="mask-type:luminance" maskUnits="userSpaceOnUse" x="0" y="0" width="63" height="65">
<path d="M63 0.604004H0V64.9165H63V0.604004Z" fill="white"/>
</mask>
<g mask="url(#mask9_1611_10572)">
<path d="M52.6181 21.7995C52.6181 33.5064 43.5207 39.8133 32.299 39.8133C21.0774 39.8133 11.98 33.5064 11.98 21.7995C11.9787 10.0939 21.0761 0.604004 32.299 0.604004C43.5207 0.604004 52.6181 10.0939 52.6181 21.7995Z" fill="#AFAFAF"/>
</g>
<mask id="mask10_1611_10572" style="mask-type:luminance" maskUnits="userSpaceOnUse" x="0" y="0" width="63" height="65">
<path d="M63 0.604004H0V64.9165H63V0.604004Z" fill="white"/>
</mask>
<g mask="url(#mask10_1611_10572)">
<path d="M32.2988 39.8134C35.6596 39.8134 38.8306 39.2469 41.623 38.139C12.3582 39.6727 9.90728 12.5848 22.5948 3.17285C16.2702 6.76531 11.9785 13.7593 11.9785 21.7996C11.9785 33.5065 21.0759 39.8134 32.2988 39.8134Z" fill="#A2A2A2"/>
</g>
<mask id="mask11_1611_10572" style="mask-type:luminance" maskUnits="userSpaceOnUse" x="0" y="0" width="63" height="65">
<path d="M63 0.604004H0V64.9165H63V0.604004Z" fill="white"/>
</mask>
<g mask="url(#mask11_1611_10572)">
<path d="M41.0253 25.6407H31.2202V19.5134C31.2202 17.2888 32.9894 15.4863 35.1728 15.4863C39.5409 15.4863 43.083 19.0939 43.083 23.5455C43.083 24.7024 42.1608 25.6407 41.0253 25.6407Z" fill="#FDEEC4"/>
</g>
<mask id="mask12_1611_10572" style="mask-type:luminance" maskUnits="userSpaceOnUse" x="0" y="0" width="63" height="65">
<path d="M63 0.604004H0V64.9165H63V0.604004Z" fill="white"/>
</mask>
<g mask="url(#mask12_1611_10572)">
<path d="M35.5858 29.5997H33.5158C32.2484 29.5997 31.2202 28.5521 31.2202 27.2608V25.6392H39.4719C39.4719 27.8273 37.7323 29.5997 35.5858 29.5997Z" fill="#E2D4B0"/>
</g>
<mask id="mask13_1611_10572" style="mask-type:luminance" maskUnits="userSpaceOnUse" x="0" y="0" width="63" height="65">
<path d="M63 0.604004H0V64.9165H63V0.604004Z" fill="white"/>
</mask>
<g mask="url(#mask13_1611_10572)">
<path d="M29.2845 21.3048C29.2845 19.447 27.4278 17.9409 25.1384 17.9409C22.8489 17.9409 20.9922 19.447 20.9922 21.3048C20.9922 23.1625 22.8489 24.6686 25.1384 24.6686C27.4278 24.6686 29.2845 23.1625 29.2845 21.3048Z" fill="#D8C3BF"/>
</g>
<mask id="mask14_1611_10572" style="mask-type:luminance" maskUnits="userSpaceOnUse" x="0" y="0" width="63" height="65">
<path d="M63 0.604004H0V64.9165H63V0.604004Z" fill="white"/>
</mask>
<g mask="url(#mask14_1611_10572)">
<path d="M51.7559 21.3048C51.7559 19.447 49.8992 17.9409 47.6098 17.9409C45.3203 17.9409 43.4648 19.447 43.4648 21.3048C43.4648 23.1625 45.3203 24.6686 47.6098 24.6686C49.9005 24.6686 51.7559 23.1625 51.7559 21.3048Z" fill="#D8C3BF"/>
</g>
<mask id="mask15_1611_10572" style="mask-type:luminance" maskUnits="userSpaceOnUse" x="0" y="0" width="63" height="65">
<path d="M63 0.604004H0V64.9165H63V0.604004Z" fill="white"/>
</mask>
<g mask="url(#mask15_1611_10572)">
<path d="M28.8507 18.8916C28.339 18.8916 27.926 18.4708 27.926 17.9495C27.926 17.4207 27.5044 16.9911 26.9853 16.9911C26.4663 16.9911 26.0446 17.4219 26.0446 17.9495C26.0446 18.4708 25.6304 18.8916 25.12 18.8916C24.6096 18.8916 24.1953 18.4708 24.1953 17.9495C24.1953 16.3819 25.4467 15.1069 26.9853 15.1069C28.5239 15.1069 29.7753 16.3819 29.7753 17.9495C29.7753 18.4695 29.3623 18.8916 28.8507 18.8916Z" fill="#4D4D4D"/>
</g>
<mask id="mask16_1611_10572" style="mask-type:luminance" maskUnits="userSpaceOnUse" x="0" y="0" width="63" height="65">
<path d="M63 0.604004H0V64.9165H63V0.604004Z" fill="white"/>
</mask>
<g mask="url(#mask16_1611_10572)">
<path d="M47.6299 18.8916C47.1183 18.8916 46.7053 18.4708 46.7053 17.9495C46.7053 17.4207 46.2824 16.9911 45.7646 16.9911C45.2456 16.9911 44.8239 17.4219 44.8239 17.9495C44.8239 18.4708 44.4109 18.8916 43.8993 18.8916C43.3889 18.8916 42.9746 18.4708 42.9746 17.9495C42.9746 16.3819 44.226 15.1069 45.7646 15.1069C47.3032 15.1069 48.5546 16.3819 48.5546 17.9495C48.5546 18.4695 48.1404 18.8916 47.6299 18.8916Z" fill="#4D4D4D"/>
</g>
<mask id="mask17_1611_10572" style="mask-type:luminance" maskUnits="userSpaceOnUse" x="0" y="0" width="63" height="65">
<path d="M63 0.604004H0V64.9165H63V0.604004Z" fill="white"/>
</mask>
<g mask="url(#mask17_1611_10572)">
<path d="M27.9948 60.7866C26.7681 60.7866 25.7744 59.7742 25.7744 58.5244V53.7688C25.7744 52.5202 26.7681 51.5078 27.9948 51.5078C29.2203 51.5078 30.214 52.5202 30.214 53.7688V58.5244C30.214 59.7742 29.2203 60.7866 27.9948 60.7866Z" fill="#FDEEC4"/>
</g>
<mask id="mask18_1611_10572" style="mask-type:luminance" maskUnits="userSpaceOnUse" x="0" y="0" width="63" height="65">
<path d="M63 0.604004H0V64.9165H63V0.604004Z" fill="white"/>
</mask>
<g mask="url(#mask18_1611_10572)">
<path d="M36.6572 60.7866C35.4305 60.7866 34.438 59.7742 34.438 58.5244V53.7688C34.438 52.5202 35.4317 51.5078 36.6572 51.5078C37.8826 51.5078 38.8763 52.5202 38.8763 53.7688V58.5244C38.8776 59.7742 37.8826 60.7866 36.6572 60.7866Z" fill="#FDEEC4"/>
</g>
<mask id="mask19_1611_10572" style="mask-type:luminance" maskUnits="userSpaceOnUse" x="0" y="0" width="63" height="65">
<path d="M63 0.604004H0V64.9165H63V0.604004Z" fill="white"/>
</mask>
<g mask="url(#mask19_1611_10572)">
<path d="M10.8418 50.5515C13.0586 52.81 18.1836 53.0813 23.284 47.8848C25.5008 45.6264 25.5008 41.9636 23.284 39.7051C21.0673 37.4466 17.4735 37.4466 15.2568 39.7051C12.018 43.0049 8.07774 47.7341 10.8418 50.5515Z" fill="#A2A2A2"/>
</g>
<mask id="mask20_1611_10572" style="mask-type:luminance" maskUnits="userSpaceOnUse" x="0" y="0" width="63" height="65">
<path d="M63 0.604004H0V64.9165H63V0.604004Z" fill="white"/>
</mask>
<g mask="url(#mask20_1611_10572)">
<path d="M21.1241 49.7714C15.2543 50.1935 12.4742 46.4038 11.8294 43.6743C10.0491 46.1664 9.07393 48.7502 10.8431 50.5527C12.7454 52.4909 16.7905 52.9619 21.1241 49.7714Z" fill="#4D4D4D"/>
</g>
<mask id="mask21_1611_10572" style="mask-type:luminance" maskUnits="userSpaceOnUse" x="0" y="0" width="63" height="65">
<path d="M63 0.604004H0V64.9165H63V0.604004Z" fill="white"/>
</mask>
<g mask="url(#mask21_1611_10572)">
<path d="M13.187 41.9497C12.7062 42.5124 12.2463 43.0902 11.8296 43.6743C12.4744 46.4038 15.2545 50.1948 21.1242 49.7715C21.8393 49.2439 22.563 48.6221 23.2855 47.8848C23.521 47.6449 23.7293 47.3886 23.9155 47.1198C17.8805 46.9653 14.733 45.4844 13.187 41.9497Z" fill="#E8EDEC"/>
</g>
<mask id="mask22_1611_10572" style="mask-type:luminance" maskUnits="userSpaceOnUse" x="0" y="0" width="63" height="65">
<path d="M63 0.604004H0V64.9165H63V0.604004Z" fill="white"/>
</mask>
<g mask="url(#mask22_1611_10572)">
<path d="M30.8661 46.894C30.3557 46.894 29.9414 46.4719 29.9414 45.9519V43.3517C29.9414 42.8317 30.3557 42.4097 30.8661 42.4097C31.3765 42.4097 31.7907 42.8317 31.7907 43.3517V45.9519C31.7907 46.4732 31.3765 46.894 30.8661 46.894Z" fill="#FDCB71"/>
</g>
<mask id="mask23_1611_10572" style="mask-type:luminance" maskUnits="userSpaceOnUse" x="0" y="0" width="63" height="65">
<path d="M63 0.604004H0V64.9165H63V0.604004Z" fill="white"/>
</mask>
<g mask="url(#mask23_1611_10572)">
<path d="M35.2245 48.4955C34.7128 48.4955 34.2998 48.0735 34.2998 47.5534V44.9533C34.2998 44.4333 34.7128 44.0112 35.2245 44.0112C35.7349 44.0112 36.1491 44.4333 36.1491 44.9533V47.5534C36.1491 48.0747 35.7361 48.4955 35.2245 48.4955Z" fill="#FDCB71"/>
</g>
<mask id="mask24_1611_10572" style="mask-type:luminance" maskUnits="userSpaceOnUse" x="0" y="0" width="63" height="65">
<path d="M63 0.604004H0V64.9165H63V0.604004Z" fill="white"/>
</mask>
<g mask="url(#mask24_1611_10572)">
<path d="M39.5838 46.894C39.0734 46.894 38.6592 46.4719 38.6592 45.9519V43.3517C38.6592 42.8317 39.0734 42.4097 39.5838 42.4097C40.0942 42.4097 40.5085 42.8317 40.5085 43.3517V45.9519C40.5085 46.4732 40.0955 46.894 39.5838 46.894Z" fill="#FDCB71"/>
</g>
</g>
<defs>
<clipPath id="clip0_1611_10572">
<rect width="63" height="64.3125" fill="white" transform="translate(0 0.604004)"/>
</clipPath>
</defs>
</svg>
