<svg width="52" height="44" viewBox="0 0 52 44" fill="none" xmlns="http://www.w3.org/2000/svg">
<path d="M23.2528 33.6375C23.2528 30.9731 22.5328 28.7069 21.0928 26.8388C18.9028 24.0213 14.6728 23.6844 12.2128 24.2356C11.1928 18.325 16.1128 10.7913 22.4728 7.545L17.5828 0.5625C7.98283 5.2175 -1.43717 15.9363 0.182828 29.4419C1.20283 37.9863 6.03283 43.6213 12.8728 43.6213C15.8728 43.6213 18.3628 42.7331 20.3128 40.9263C22.2928 39.1194 23.2528 36.7 23.2528 33.6375ZM51.5428 33.6375C51.5428 30.9731 50.8228 28.7069 49.3828 26.8388C47.1928 24.0213 42.9628 23.6844 40.5028 24.2356C39.4828 18.325 44.4028 10.7913 50.7628 7.545L45.8728 0.5625C36.2728 5.2175 26.8528 15.9363 28.4728 29.4419C29.4928 37.9863 34.3228 43.6213 41.1628 43.6213C44.1628 43.6213 46.6528 42.7331 48.6028 40.9263C50.5828 39.1194 51.5428 36.7 51.5428 33.6375Z" fill="#89A767"/>
</svg>
