<svg width="78" height="78" viewBox="0 0 78 78" fill="none" xmlns="http://www.w3.org/2000/svg">
<mask id="mask0_1424_6941" style="mask-type:luminance" maskUnits="userSpaceOnUse" x="0" y="0" width="78" height="78">
<path d="M78 0H0V78H78V0Z" fill="white"/>
</mask>
<g mask="url(#mask0_1424_6941)">
<path d="M41.3001 15.3113C41.031 14.684 42.3375 13.5976 42.4844 13.4771C44.3709 11.9334 47.1881 11.842 47.3372 12.2922C47.5277 12.8673 43.497 14.7759 43.497 14.7759C43.497 14.7759 43.6153 14.7307 43.8371 14.6603C43.8371 14.6603 44.3143 14.5062 44.7963 14.3939C46.416 14.0159 47.4567 13.7726 47.8914 14.2602C48.0406 14.4275 48.1501 14.7153 48.0824 14.9861C47.7197 16.4401 42.6473 15.7973 42.2742 15.7505C41.9192 15.7059 41.4355 15.6272 41.3001 15.3113Z" fill="#FDFDFD"/>
</g>
<mask id="mask1_1424_6941" style="mask-type:luminance" maskUnits="userSpaceOnUse" x="0" y="0" width="78" height="78">
<path d="M78 0H0V78H78V0Z" fill="white"/>
</mask>
<g mask="url(#mask1_1424_6941)">
<path d="M31.805 42.7187C31.024 42.3687 30.1782 41.9895 29.2828 41.3335C29.2828 41.3335 27.3038 39.9378 26.1877 37.627C24.5075 34.1483 25.4101 30.4853 25.8437 28.7237C27.41 22.3646 31.9552 18.8397 32.6838 18.2921C34.1973 17.1534 38.0617 14.6164 43.1919 14.6236C45.3465 14.6269 47.0531 15.0776 48.1978 15.388C50.0441 15.8888 52.7589 16.6554 55.4963 18.9035C58.4318 21.3145 59.8153 24.1328 60.3877 25.5141C61.583 28.4001 61.6578 30.8595 61.687 32.2392C61.7211 33.8654 61.752 35.3266 61.1136 37.1306C60.9314 37.6451 60.0327 40.0589 57.598 42.0599C55.8914 43.4622 54.2669 43.974 52.5157 44.5056C48.3953 45.7571 44.9271 45.5232 42.619 45.3465C40.4386 45.1792 38.7716 44.7527 35.435 43.9327C34.5192 43.7071 33.292 43.3857 31.805 42.7187Z" fill="#FDFDFD"/>
</g>
<mask id="mask2_1424_6941" style="mask-type:luminance" maskUnits="userSpaceOnUse" x="0" y="0" width="78" height="78">
<path d="M78 0H0V78H78V0Z" fill="white"/>
</mask>
<g mask="url(#mask2_1424_6941)">
<path d="M31.3864 26.5647C32.5372 25.5873 33.7512 25.3429 34.3093 25.2378C35.0219 25.1035 36.2393 24.8746 37.6168 25.4492C38.9381 26.0006 39.6695 26.984 39.9821 27.4876C40.8027 28.8095 40.7713 30.1006 40.7515 30.9107C40.73 31.8044 40.6887 33.4884 39.4439 34.8912C38.5204 35.9319 37.3999 36.2935 37.0593 36.3915C36.6917 36.4971 35.9471 36.7013 35.0016 36.5263C34.3197 36.3997 33.7925 36.0959 33.5014 35.9303C32.8613 35.5649 32.923 35.4388 32.4756 35.2313C31.6357 34.8423 31.1911 35.1802 30.5268 34.9111C29.7486 34.5952 29.4096 33.7454 29.2253 33.2826C28.5297 31.5381 29.326 29.7786 29.7189 28.9108C29.999 28.2938 30.4239 27.3825 31.3864 26.5647Z" fill="#D3D1CD"/>
</g>
<mask id="mask3_1424_6941" style="mask-type:luminance" maskUnits="userSpaceOnUse" x="0" y="0" width="78" height="78">
<path d="M78 0H0V78H78V0Z" fill="white"/>
</mask>
<g mask="url(#mask3_1424_6941)">
<path d="M31.6417 26.9937C32.4573 26.314 33.242 25.997 33.5926 25.871C34.0917 25.6916 35.1666 25.3206 36.5187 25.5578C36.8913 25.6233 37.4829 25.7328 38.1202 26.1285C39.3348 26.8819 39.7723 28.0888 39.9424 28.5577C40.447 29.9484 40.2307 31.1531 40.0898 31.8889C39.9022 32.8646 39.6573 34.1387 38.544 35.0913C38.3447 35.2613 37.298 36.1567 35.9491 36.067C35.2579 36.0208 34.6779 35.7286 33.8144 35.2938C33.0747 34.9212 32.892 34.7171 32.2866 34.5024C31.317 34.159 31.0269 34.4683 30.5382 34.2262C29.4249 33.6742 29.1607 31.332 29.7281 29.6254C30.2042 28.1923 31.2223 27.3431 31.6417 26.9937Z" fill="#4D4D4D"/>
</g>
<mask id="mask4_1424_6941" style="mask-type:luminance" maskUnits="userSpaceOnUse" x="0" y="0" width="78" height="78">
<path d="M78 0H0V78H78V0Z" fill="white"/>
</mask>
<g mask="url(#mask4_1424_6941)">
<path d="M35.5211 29.9372C36.5111 29.6191 37.7642 29.7875 38.5782 30.6443C39.44 31.5513 39.3421 32.7373 39.3233 32.9277C39.2507 33.6613 38.9128 34.1659 38.7598 34.3894C38.5468 34.6998 38.0746 35.2765 37.2601 35.6023C36.9828 35.7135 36.4401 35.9226 35.7412 35.8125C35.5794 35.7872 35.0638 35.6898 34.547 35.2969C34.0242 34.899 33.7958 34.4218 33.6874 34.1885C33.5872 33.9728 33.3418 33.3817 33.3913 32.6696C33.4667 31.5799 34.2223 30.3543 35.5211 29.9372Z" fill="#FDFDFD"/>
</g>
<mask id="mask5_1424_6941" style="mask-type:luminance" maskUnits="userSpaceOnUse" x="0" y="0" width="78" height="78">
<path d="M78 0H0V78H78V0Z" fill="white"/>
</mask>
<g mask="url(#mask5_1424_6941)">
<path d="M48.4262 26.6411C48.626 26.52 49.4201 26.056 50.5472 25.9245C53.1574 25.6196 55.175 27.3752 55.6483 27.7874C56.2382 28.3003 57.4611 29.3949 57.9123 31.2551C58.0488 31.8175 58.4296 33.3865 57.597 34.9236C57.0973 35.8465 56.3874 36.3379 56.0208 36.5856C53.962 37.9768 51.5791 37.5382 50.9198 37.4166C49.9121 37.2311 48.2253 36.9207 46.9937 35.4679C45.3157 33.4883 45.5034 30.5936 46.478 28.7615C46.6844 28.373 47.2381 27.3631 48.4262 26.6411Z" fill="#D3D1CD"/>
</g>
<mask id="mask6_1424_6941" style="mask-type:luminance" maskUnits="userSpaceOnUse" x="0" y="0" width="78" height="78">
<path d="M78 0H0V78H78V0Z" fill="white"/>
</mask>
<g mask="url(#mask6_1424_6941)">
<path d="M48.7518 26.9661C50.0627 26.2 51.3571 26.3057 51.8662 26.3546C54.4252 26.6001 55.931 28.5389 56.3558 29.0865C56.8335 29.7018 57.5132 30.601 57.6739 31.9713C57.7173 32.3423 57.8681 33.7996 57.0245 35.1237C55.3228 37.7939 51.2845 37.2424 51.0445 37.2061C50.3693 37.1043 48.7463 36.8583 47.5097 35.4869C45.4746 33.2294 46.4426 30.0931 46.4971 29.9269C46.6688 29.4013 47.1927 27.8769 48.7518 26.9661Z" fill="#4D4D4D"/>
</g>
<mask id="mask7_1424_6941" style="mask-type:luminance" maskUnits="userSpaceOnUse" x="0" y="0" width="78" height="78">
<path d="M78 0H0V78H78V0Z" fill="white"/>
</mask>
<g mask="url(#mask7_1424_6941)">
<path d="M50.7907 30.4279C49.8001 30.1098 48.5475 30.2782 47.7336 31.1351C46.8718 32.042 46.9697 33.228 46.9884 33.4184C47.0611 34.152 47.399 34.6567 47.552 34.8801C47.765 35.1905 48.2371 35.7672 49.0516 36.0936C49.329 36.2047 49.8716 36.4139 50.5706 36.3038C50.7324 36.2785 51.248 36.1811 51.7648 35.7881C52.2876 35.3902 52.516 34.9137 52.6244 34.6798C52.7246 34.464 52.97 33.873 52.9205 33.1608C52.8451 32.0712 52.0895 30.8456 50.7907 30.4279Z" fill="#FDFDFD"/>
</g>
<mask id="mask8_1424_6941" style="mask-type:luminance" maskUnits="userSpaceOnUse" x="0" y="0" width="78" height="78">
<path d="M78 0H0V78H78V0Z" fill="white"/>
</mask>
<g mask="url(#mask8_1424_6941)">
<path d="M52.4717 32.4346C52.0199 31.1204 50.6986 30.6857 50.5527 30.6405C50.3023 30.5629 49.67 30.3758 48.9298 30.6213C48.0581 30.9102 47.6398 31.5987 47.5325 31.7819C46.9134 32.838 47.2639 33.9343 47.3239 34.1104C47.5385 34.5518 47.8368 34.9287 48.1923 35.2645C48.4614 35.5187 48.9045 35.9149 49.5693 36.0613C49.6738 36.0844 50.4256 36.2391 51.1559 35.8797C52.2852 35.3244 52.9252 33.7538 52.4717 32.4346Z" fill="#111618"/>
</g>
<mask id="mask9_1424_6941" style="mask-type:luminance" maskUnits="userSpaceOnUse" x="0" y="0" width="78" height="78">
<path d="M78 0H0V78H78V0Z" fill="white"/>
</mask>
<g mask="url(#mask9_1424_6941)">
<path d="M29.7663 35.1686C30.4218 34.7905 31.0591 34.7685 31.3711 34.7608C31.7371 34.752 32.9054 34.725 33.7529 35.5379C34.6621 36.4096 34.9527 38.0083 34.2114 39.2317C33.3941 40.5806 31.7393 40.7875 30.632 40.5184C30.506 40.4876 28.4593 39.9548 28.1737 38.1618C27.9568 36.7954 28.9161 35.6595 29.7663 35.1686Z" fill="#CEAFB0"/>
</g>
<mask id="mask10_1424_6941" style="mask-type:luminance" maskUnits="userSpaceOnUse" x="0" y="0" width="78" height="78">
<path d="M78 0H0V78H78V0Z" fill="white"/>
</mask>
<g mask="url(#mask10_1424_6941)">
<path d="M33.3129 18.4548C33.1544 18.2654 32.6547 17.7201 31.8111 17.5423C30.7913 17.3277 30.001 17.8059 29.7594 17.9572C29.6648 18.0167 28.3462 18.8714 28.3836 20.2021C28.3896 20.4183 28.4084 21.0683 28.9185 21.4821C29.2916 21.7848 29.727 21.7986 29.8921 21.7953C31.0329 20.682 32.1732 19.5681 33.3129 18.4548Z" fill="#C3C6BF"/>
</g>
<mask id="mask11_1424_6941" style="mask-type:luminance" maskUnits="userSpaceOnUse" x="0" y="0" width="78" height="78">
<path d="M78 0H0V78H78V0Z" fill="white"/>
</mask>
<g mask="url(#mask11_1424_6941)">
<path d="M26.436 17.8819C26.6055 17.5253 26.9517 16.8115 27.6302 16.1593C28.6181 15.21 29.7418 14.9381 30.1485 14.8451C31.6322 14.5056 32.8149 14.8721 33.2574 15.0152C35.1263 15.6206 35.6744 16.8159 35.6805 16.8313C35.6937 16.8643 35.6932 16.8968 35.6932 16.8968C35.6932 16.9083 35.6921 16.9193 35.6893 16.9309C35.664 17.0146 35.5941 17.0525 35.5253 17.0921C34.9436 17.4251 34.3823 17.7905 33.8204 18.1559C33.6558 18.2633 33.5001 18.386 33.313 18.4548C33.1473 18.2809 32.7896 17.9523 32.2283 17.7691C32.1077 17.7294 31.641 17.5869 31.0318 17.6683C30.8227 17.6964 30.2427 17.7982 29.7154 18.2055C28.8778 18.8538 28.213 20.245 28.7799 21.1189C28.8646 21.2499 29.1497 21.6346 29.8932 21.7953C29.2669 22.6935 28.6406 23.5922 28.0143 24.4903C27.5988 24.1948 26.7827 23.5245 26.278 22.366C25.6033 20.8185 25.9253 19.4129 26.0232 19.0134C26.1526 18.4839 26.343 18.0772 26.436 17.8819Z" fill="#4D4D4D"/>
</g>
<mask id="mask12_1424_6941" style="mask-type:luminance" maskUnits="userSpaceOnUse" x="0" y="0" width="78" height="78">
<path d="M78 0H0V78H78V0Z" fill="white"/>
</mask>
<g mask="url(#mask12_1424_6941)">
<path d="M54.3366 35.8324C54.7169 35.8297 55.8285 35.8214 56.6546 36.6221C57.6914 37.6271 57.8571 39.4987 56.9347 40.7491C55.8896 42.1662 54.0267 41.9989 53.7758 41.9719C53.4764 41.94 51.7676 41.7579 51.0753 40.2907C50.5172 39.108 50.9586 37.8081 51.5976 37.0299C52.5711 35.8451 54.0306 35.8346 54.3366 35.8324Z" fill="#CEAFB0"/>
</g>
<mask id="mask13_1424_6941" style="mask-type:luminance" maskUnits="userSpaceOnUse" x="0" y="0" width="78" height="78">
<path d="M78 0H0V78H78V0Z" fill="white"/>
</mask>
<g mask="url(#mask13_1424_6941)">
<path d="M38.4411 37.4788C38.4626 37.2862 38.4846 37.093 38.5061 36.9004C38.5088 37.0842 38.5413 37.4089 38.7493 37.7121C38.965 38.0264 39.2507 38.1612 39.5974 38.2927C40.4009 38.5971 41.2401 38.6818 42.0937 38.6593C42.1553 38.6576 42.217 38.6637 42.2791 38.6664C42.3942 38.6868 42.5114 38.7055 42.6308 38.7225C43.0782 38.7864 43.5031 38.8183 43.901 38.8288C44.2163 38.8623 44.5333 38.8557 44.8487 38.8574C45.6543 38.8612 46.4424 38.7765 47.1204 38.2751C47.3075 38.1364 47.3087 38.1304 47.2525 37.9081C47.2305 37.8205 47.198 37.7341 47.1997 37.6428C47.2019 37.5047 47.3004 37.4524 47.4182 37.5234C47.5409 37.5977 47.5976 37.7683 47.5508 37.9202C47.5414 38.175 47.673 38.3736 47.81 38.5701C47.8419 38.6152 47.8821 38.6549 47.919 38.6967C47.9916 38.7666 48.0929 38.8568 48.2222 38.9498C48.2904 38.9988 48.5491 39.1799 48.9096 39.3087C49.5782 39.5469 50.1478 39.4435 50.1495 39.4776C50.1511 39.509 49.6663 39.6295 49.1093 39.5156C49.0323 39.4996 48.7126 39.4303 48.3466 39.2156C48.1072 39.0753 47.9311 38.9212 47.8128 38.8034C47.701 38.7011 47.6119 38.5811 47.5365 38.4501C47.4985 38.3841 47.455 38.361 47.3962 38.4364C47.2333 38.6455 46.9994 38.7699 46.7924 38.9251C46.7192 38.9801 46.673 39.0335 46.6493 39.1193C46.3786 40.0984 45.8387 40.9129 45.1156 41.6135C44.9119 41.8105 44.6841 41.9778 44.4519 42.1385C44.3534 42.1176 44.366 42.0301 44.3556 41.9646C44.3088 41.6685 44.2301 41.3807 44.1558 41.0906C44.0727 40.7654 43.9373 40.4622 43.7915 40.1633C43.5807 39.7313 43.1888 39.5244 42.764 39.3659C42.7123 39.3466 42.6567 39.3334 42.6027 39.3169C42.0051 39.1821 41.4619 39.3169 40.9578 39.6471C40.3656 40.0389 40.1163 40.6218 40.0393 41.3003C39.9892 41.3796 40.0701 41.5116 39.9364 41.5573C39.8593 40.7054 39.6276 39.5899 38.9777 38.465C38.8478 38.2405 38.7119 38.033 38.5737 37.8431C38.3657 38.2988 38.0977 38.5861 37.9232 38.7457C37.7692 38.886 36.9233 39.6576 36.111 39.3785C35.8661 39.2943 35.6977 39.1397 35.5986 39.0302C35.6317 39.0726 35.6845 39.132 35.7621 39.1854C36.2266 39.5057 36.9359 39.1727 37.1484 39.0731C37.664 38.831 37.9557 38.4633 38.0735 38.296C38.2958 37.979 38.3943 37.6736 38.4411 37.4788Z" fill="#4D4D4D"/>
</g>
<mask id="mask14_1424_6941" style="mask-type:luminance" maskUnits="userSpaceOnUse" x="0" y="0" width="78" height="78">
<path d="M78 0H0V78H78V0Z" fill="white"/>
</mask>
<g mask="url(#mask14_1424_6941)">
<path d="M42.629 39.2735C42.7605 39.3027 43.0566 39.3819 43.3593 39.6004C43.7941 39.9141 43.9724 40.3208 44.1276 40.6747C44.2574 40.9708 44.4324 41.4721 44.4517 42.1386C44.3444 42.2327 44.1815 42.3598 43.9652 42.477C42.9042 43.0505 41.4518 42.8832 40.4932 42.1325C40.3325 42.0065 40.1316 41.8221 39.9357 41.558C39.9335 41.334 39.9593 40.8436 40.2604 40.3346C40.4772 39.9675 40.748 39.7402 40.9197 39.618C41.1013 39.5008 41.3748 39.3588 41.7298 39.2851C41.9042 39.2482 42.2256 39.1849 42.629 39.2735Z" fill="#CEAFB0"/>
</g>
<mask id="mask15_1424_6941" style="mask-type:luminance" maskUnits="userSpaceOnUse" x="0" y="0" width="78" height="78">
<path d="M78 0H0V78H78V0Z" fill="white"/>
</mask>
<g mask="url(#mask15_1424_6941)">
<path d="M44.2434 36.7972C43.9424 36.8913 43.1086 36.964 42.9468 36.9596C42.9331 36.959 42.8857 36.9568 42.856 36.9871C42.8335 37.0102 42.8307 37.0465 42.8274 37.0928C42.8032 37.4824 42.7757 37.8715 42.7493 38.2606C42.7295 38.396 42.7289 38.5313 42.7498 38.6667C43.1196 38.7614 43.4977 38.8126 43.8741 38.872C43.7965 38.8758 43.6623 38.883 43.495 38.8946C42.9771 38.9298 42.8412 38.9573 42.6508 38.8946C42.5616 38.8654 42.4262 38.8054 42.2793 38.6662C42.4092 38.6849 42.4526 38.5979 42.4846 38.4972C42.4945 38.4499 42.5038 38.4026 42.5137 38.3552C42.5776 37.9772 42.6419 37.5996 42.7052 37.2215C42.7129 37.177 42.7124 37.1302 42.7256 37.0878C42.7603 36.975 42.7162 36.9508 42.6062 36.9365C42.407 36.9101 41.7774 36.674 41.5121 36.4863C41.2964 36.3339 40.9783 35.9855 41.035 35.6867C41.134 35.1671 42.3481 34.8986 43.3062 35.0235C43.867 35.0962 44.917 35.3785 44.9677 35.9134C45.0007 36.2541 44.6276 36.6767 44.2434 36.7972Z" fill="#4D4D4D"/>
</g>
<mask id="mask16_1424_6941" style="mask-type:luminance" maskUnits="userSpaceOnUse" x="0" y="0" width="78" height="78">
<path d="M78 0H0V78H78V0Z" fill="white"/>
</mask>
<g mask="url(#mask16_1424_6941)">
<path d="M56.2417 28.5803C56.0788 28.4466 55.8361 28.3937 55.7959 28.1367C55.9445 28.2848 56.0931 28.4328 56.2417 28.5803Z" fill="#C0C2B3"/>
</g>
<mask id="mask17_1424_6941" style="mask-type:luminance" maskUnits="userSpaceOnUse" x="0" y="0" width="78" height="78">
<path d="M78 0H0V78H78V0Z" fill="white"/>
</mask>
<g mask="url(#mask17_1424_6941)">
<path d="M33.8032 31.9649C34.255 30.6507 35.5764 30.2159 35.7222 30.1708C35.9726 30.0932 36.605 29.9061 37.3452 30.1516C38.2169 30.4405 38.6346 31.1289 38.7425 31.3122C39.3616 32.3683 39.011 33.4646 38.951 33.6407C38.7364 34.082 38.4381 34.459 38.0826 34.7947C37.8135 35.049 37.3705 35.4452 36.7057 35.5916C36.6011 35.6147 35.8493 35.7694 35.1191 35.41C33.9898 34.8547 33.3497 33.2841 33.8032 31.9649Z" fill="#111618"/>
</g>
<mask id="mask18_1424_6941" style="mask-type:luminance" maskUnits="userSpaceOnUse" x="0" y="0" width="78" height="78">
<path d="M78 0H0V78H78V0Z" fill="white"/>
</mask>
<g mask="url(#mask18_1424_6941)">
<path d="M36.6854 31.9629C36.9094 31.9629 37.1097 32.15 37.1114 32.3608C37.113 32.5694 36.9248 32.751 36.7036 32.7543C36.4807 32.7581 36.3184 32.5732 36.3145 32.3113C36.3112 32.101 36.4581 31.9623 36.6854 31.9629Z" fill="white"/>
</g>
<mask id="mask19_1424_6941" style="mask-type:luminance" maskUnits="userSpaceOnUse" x="0" y="0" width="78" height="78">
<path d="M78 0H0V78H78V0Z" fill="white"/>
</mask>
<g mask="url(#mask19_1424_6941)">
<path d="M37.6875 31.9232C37.6892 31.6805 37.8388 31.5247 38.0705 31.5264C38.2417 31.5275 38.464 31.7388 38.4646 31.9012C38.4657 32.0773 38.2318 32.3007 38.0469 32.3007C37.8818 32.3013 37.6864 32.0954 37.6875 31.9232Z" fill="white"/>
</g>
<mask id="mask20_1424_6941" style="mask-type:luminance" maskUnits="userSpaceOnUse" x="0" y="0" width="78" height="78">
<path d="M78 0H0V78H78V0Z" fill="white"/>
</mask>
<g mask="url(#mask20_1424_6941)">
<path d="M36.9901 30.9512C37.2114 30.9485 37.4117 31.1152 37.4145 31.3045C37.4172 31.4839 37.2251 31.6342 36.9934 31.6342C36.8113 31.6342 36.6253 31.4608 36.6231 31.2886C36.6209 31.0992 36.7788 30.954 36.9901 30.9512Z" fill="white"/>
</g>
<mask id="mask21_1424_6941" style="mask-type:luminance" maskUnits="userSpaceOnUse" x="0" y="0" width="78" height="78">
<path d="M78 0H0V78H78V0Z" fill="white"/>
</mask>
<g mask="url(#mask21_1424_6941)">
<path d="M49.9012 32.6937C49.6865 32.6926 49.5016 32.539 49.5049 32.3657C49.5082 32.1907 49.7218 32.014 49.9336 32.0113C50.1081 32.0085 50.2875 32.1731 50.2842 32.3321C50.2792 32.5423 50.118 32.6948 49.9012 32.6937Z" fill="white"/>
</g>
<mask id="mask22_1424_6941" style="mask-type:luminance" maskUnits="userSpaceOnUse" x="0" y="0" width="78" height="78">
<path d="M78 0H0V78H78V0Z" fill="white"/>
</mask>
<g mask="url(#mask22_1424_6941)">
<path d="M48.4659 32.3172C48.271 32.3166 48.1538 32.2088 48.1604 32.0365C48.1654 31.8989 48.2936 31.8081 48.4818 31.8081C48.6739 31.8081 48.8027 31.9094 48.801 32.0591C48.7988 32.2132 48.6629 32.3177 48.4659 32.3172Z" fill="white"/>
</g>
<mask id="mask23_1424_6941" style="mask-type:luminance" maskUnits="userSpaceOnUse" x="0" y="0" width="78" height="78">
<path d="M78 0H0V78H78V0Z" fill="white"/>
</mask>
<g mask="url(#mask23_1424_6941)">
<path d="M56.3369 20.1962C56.5268 20.0382 57.1156 19.5903 57.9769 19.5655C59.0187 19.5358 59.711 20.1472 59.9218 20.3387C60.0043 20.4141 61.1496 21.49 60.8761 22.7927C60.8315 23.0045 60.6978 23.6407 60.1221 23.9572C59.7011 24.1883 59.2702 24.1245 59.1084 24.092C58.1844 22.7938 57.2609 21.495 56.3369 20.1962Z" fill="#C3C6BF"/>
</g>
<mask id="mask24_1424_6941" style="mask-type:luminance" maskUnits="userSpaceOnUse" x="0" y="0" width="78" height="78">
<path d="M78 0H0V78H78V0Z" fill="white"/>
</mask>
<g mask="url(#mask24_1424_6941)">
<path d="M63.2061 20.856C63.1026 20.4746 62.8891 19.7108 62.3376 18.9485C61.5341 17.8385 60.4769 17.3713 60.0934 17.2073C58.6939 16.6096 57.4644 16.7593 57.0038 16.8215C55.0567 17.0846 54.305 18.1632 54.2961 18.1775C54.2774 18.2072 54.2719 18.2397 54.2719 18.2397C54.2697 18.2507 54.2692 18.2623 54.2697 18.2744C54.2796 18.3608 54.3418 18.4109 54.4024 18.462C54.9153 18.8935 55.4029 19.353 55.891 19.812C56.0341 19.9469 56.1651 20.0949 56.3373 20.1962C56.5311 20.0547 56.9416 19.795 57.5266 19.7146C57.6521 19.6976 58.1375 19.6398 58.7219 19.828C58.9228 19.8929 59.4759 20.096 59.9217 20.5907C60.631 21.3777 61.0372 22.8653 60.324 23.6242C60.2172 23.7381 59.8683 24.0661 59.1077 24.092L60.477 27.0786C60.9381 26.8618 61.8605 26.3472 62.5638 25.2972C63.5032 23.8944 63.4361 22.4542 63.4113 22.0436C63.3778 21.4988 63.2622 21.0651 63.2061 20.856Z" fill="#4D4D4D"/>
</g>
<mask id="mask25_1424_6941" style="mask-type:luminance" maskUnits="userSpaceOnUse" x="0" y="0" width="78" height="78">
<path d="M78 0H0V78H78V0Z" fill="white"/>
</mask>
<g mask="url(#mask25_1424_6941)">
<path d="M10.4884 39.2918C9.21552 38.7316 8.00203 38.7629 7.44895 38.8125C7.26349 38.829 7.10939 38.8516 7.00098 38.8692C7.08793 40.332 7.31577 41.9037 7.82923 43.2196C8.85615 45.8496 10.4807 47.9469 11.9644 47.5485C13.4481 47.1506 13.3034 45.3466 13.3034 45.3466L14.5196 43.8304C13.9952 42.5999 13.3342 41.7281 12.8461 41.1784C12.2473 40.5042 11.6089 39.7849 10.4884 39.2918Z" fill="#89867F"/>
</g>
<mask id="mask26_1424_6941" style="mask-type:luminance" maskUnits="userSpaceOnUse" x="0" y="0" width="78" height="78">
<path d="M78 0H0V78H78V0Z" fill="white"/>
</mask>
<g mask="url(#mask26_1424_6941)">
<path d="M15.9091 41.8308C15.9091 41.8308 17.4841 40.0763 17.4748 39.0901C17.4654 38.1039 15.5965 29.8764 8.64191 31.1851C8.64191 31.1851 7.11473 33.4222 7.01678 35.1778C6.9678 36.0556 6.91441 37.4077 7.00137 38.8694C7.11473 38.8507 7.26773 38.8293 7.44934 38.8127C7.44934 38.8127 7.86154 38.7759 8.27979 38.7935C9.51584 38.8463 10.4888 39.2921 10.4888 39.2921C11.5939 39.7984 12.2648 40.5832 12.5928 41.0333C13.235 41.9656 13.8778 42.8984 14.52 43.8307L14.8233 43.4526L15.9091 41.8308Z" fill="#FDFDFD"/>
</g>
<mask id="mask27_1424_6941" style="mask-type:luminance" maskUnits="userSpaceOnUse" x="0" y="0" width="78" height="78">
<path d="M78 0H0V78H78V0Z" fill="white"/>
</mask>
<g mask="url(#mask27_1424_6941)">
<path d="M65.8368 51.6454C65.7922 51.3025 65.6976 50.9806 65.5606 50.6636C65.423 50.346 65.2359 50.0301 65.2023 49.6796C65.166 49.3026 65.2738 48.9179 65.3124 48.5453C65.3531 48.1524 65.3608 47.7562 65.3371 47.3616C65.2969 46.699 65.2177 45.934 64.8671 45.3529C64.5545 44.8339 63.9624 44.5703 63.3884 44.8311C62.8155 45.092 62.4847 45.6968 62.2222 46.2356C61.5882 47.5355 61.05 48.881 60.6108 50.2585C58.5432 48.6185 55.1757 47.6775 50.357 48.093C41.5253 48.8546 31.4024 48.7424 31.4024 48.7424C31.4024 48.7424 26.8396 40.4846 26.3657 39.5375C25.8919 38.5898 23.7258 27.7438 21.8877 25.9816C20.0495 24.2195 12.2326 22.1194 8.2058 31.381C8.05336 31.8416 7.90147 32.3022 7.74902 32.7629C8.27239 32.4387 9.17604 31.9808 10.3378 31.9142C13.3993 31.7387 16.6012 34.3891 17.0491 37.6718C17.4437 40.5638 15.6282 41.8269 15.6282 41.8269C15.6282 41.8269 17.5213 49.0346 19.89 53.5242C22.2586 58.0133 29.9347 67.0432 45.1294 65.9915C57.945 65.1044 63.1138 61.651 63.1578 55.544C64.1902 55.288 65.1032 54.5853 65.5446 53.5996C65.8192 52.9871 65.9232 52.3113 65.8368 51.6454Z" fill="#BB8F91"/>
</g>
<mask id="mask28_1424_6941" style="mask-type:luminance" maskUnits="userSpaceOnUse" x="0" y="0" width="78" height="78">
<path d="M78 0H0V78H78V0Z" fill="white"/>
</mask>
<g mask="url(#mask28_1424_6941)">
<path d="M18.5211 30.3732C17.8997 30.2015 17.2823 30.6153 17.0676 31.1943C16.9999 31.3775 16.9829 31.5614 17.0082 31.7358C16.9878 31.9411 17.0126 32.1519 17.0924 32.3544C17.3197 32.9344 17.9564 33.2393 18.5585 33.1183C19.9151 32.8447 19.7489 30.7127 18.5211 30.3732Z" fill="#4D4D4D"/>
</g>
<mask id="mask29_1424_6941" style="mask-type:luminance" maskUnits="userSpaceOnUse" x="0" y="0" width="78" height="78">
<path d="M78 0H0V78H78V0Z" fill="white"/>
</mask>
<g mask="url(#mask29_1424_6941)">
<path d="M63.3817 55.3098C63.2447 53.3798 62.3829 51.5373 60.9735 50.2087C60.7187 49.9688 60.3334 50.3529 60.5888 50.5934C61.8914 51.8207 62.7109 53.5223 62.838 55.3098C62.8622 55.6571 63.4065 55.6598 63.3817 55.3098Z" fill="#B18081"/>
</g>
<mask id="mask30_1424_6941" style="mask-type:luminance" maskUnits="userSpaceOnUse" x="0" y="0" width="78" height="78">
<path d="M78 0H0V78H78V0Z" fill="white"/>
</mask>
<g mask="url(#mask30_1424_6941)">
<path d="M54.7344 57.9357C54.0036 57.0491 52.8187 56.5852 51.6867 56.5924C51.3367 56.5946 51.3361 57.1388 51.6867 57.1366C52.6047 57.1311 53.5331 57.4701 54.1808 58.1328C54.8043 58.7706 54.9782 59.6176 54.6904 60.4579C54.1395 62.0654 52.45 62.9796 50.9217 63.4402C50.0049 63.7164 49.0577 63.876 48.1106 64.0059C47.9653 64.0257 47.8844 64.2129 47.9208 64.3405C47.9648 64.4974 48.1084 64.5508 48.2554 64.5304C50.0522 64.2844 51.9575 63.925 53.4566 62.8365C54.2353 62.2707 54.9001 61.5245 55.2154 60.6021C55.5335 59.6682 55.3618 58.6974 54.7344 57.9357Z" fill="#B18081"/>
</g>
<mask id="mask31_1424_6941" style="mask-type:luminance" maskUnits="userSpaceOnUse" x="0" y="0" width="78" height="78">
<path d="M78 0H0V78H78V0Z" fill="white"/>
</mask>
<g mask="url(#mask31_1424_6941)">
<path d="M58.8068 51.3474C58.6159 50.9082 58.1668 50.5417 57.6704 50.5571C57.1481 50.5731 56.7822 50.9726 56.5395 51.3964C56.2604 51.884 56.0447 52.4013 55.7288 52.8691C55.4162 53.3319 55.0255 53.7303 54.5159 53.9708C54.3937 54.0281 54.3601 54.1332 54.3827 54.2322C54.1053 54.4964 54.0806 54.9515 54.2803 55.2828C54.55 55.7308 55.1372 55.826 55.6155 55.7699C56.584 55.6565 57.4327 55.1007 58.0265 54.3407C58.3325 53.9488 58.5719 53.5152 58.7403 53.0474C58.9334 52.5102 59.0424 51.8889 58.8068 51.3474Z" fill="#EBDEDF"/>
</g>
<mask id="mask32_1424_6941" style="mask-type:luminance" maskUnits="userSpaceOnUse" x="0" y="0" width="78" height="78">
<path d="M78 0H0V78H78V0Z" fill="white"/>
</mask>
<g mask="url(#mask32_1424_6941)">
<path d="M25.9705 42.9962C25.6568 42.4013 25.3486 41.6655 24.7421 41.31C24.2402 41.0155 23.4984 41.0876 23.194 41.6281C23.1825 41.649 23.1737 41.6693 23.1676 41.6897C23.1291 41.72 23.0966 41.7623 23.0774 41.819C22.8484 42.4778 23.0625 43.1574 23.3322 43.7683C23.6139 44.4072 23.9375 45.0308 24.265 45.6471C24.6001 46.2784 24.9518 46.9003 25.3205 47.5128C25.5016 47.8138 25.6865 48.1132 25.8764 48.4093C26.0415 48.6668 26.2159 48.9216 26.4619 49.1082C26.9121 49.4489 27.6473 49.4461 27.917 48.8787C28.1993 48.2843 27.9715 47.4935 27.7613 46.9129C27.2731 45.5679 26.6364 44.2598 25.9705 42.9962Z" fill="#EBDEDF"/>
</g>
<mask id="mask33_1424_6941" style="mask-type:luminance" maskUnits="userSpaceOnUse" x="0" y="0" width="78" height="78">
<path d="M78 0H0V78H78V0Z" fill="white"/>
</mask>
<g mask="url(#mask33_1424_6941)">
<path d="M19.0372 25.7014C18.4698 25.5885 17.8458 25.9253 17.7043 26.5015C17.4991 26.8851 17.608 27.3832 17.8997 27.7167C18.2431 28.1096 18.8518 28.3275 19.3586 28.1619C20.5512 27.7739 20.1319 25.9198 19.0372 25.7014Z" fill="#EBDEDF"/>
</g>
<mask id="mask34_1424_6941" style="mask-type:luminance" maskUnits="userSpaceOnUse" x="0" y="0" width="78" height="78">
<path d="M78 0H0V78H78V0Z" fill="white"/>
</mask>
<g mask="url(#mask34_1424_6941)">
<path d="M51.3131 49.238C51.5134 49.1807 52.0087 49.0696 52.5117 49.2957C53.5018 49.741 53.5398 51.0491 53.5409 51.146C53.5568 52.316 52.6185 53.0457 52.367 53.224C51.8161 53.6153 51.2531 53.7111 50.957 53.7391L51.3131 49.238Z" fill="#4D4D4D"/>
</g>
<mask id="mask35_1424_6941" style="mask-type:luminance" maskUnits="userSpaceOnUse" x="0" y="0" width="78" height="78">
<path d="M78 0H0V78H78V0Z" fill="white"/>
</mask>
<g mask="url(#mask35_1424_6941)">
<path d="M48.957 44.4746C47.8304 45.0382 46.5509 45.3018 45.327 45.5368C45.2532 45.5511 45.1938 45.5241 45.1542 45.4801L41.4554 46.4866L39.5518 52.2387L47.6532 58.7943C50.0428 57.2968 51.2387 54.8583 51.6338 51.8364C52.0113 48.945 49.2002 44.8246 48.957 44.4746Z" fill="#FDFDFD"/>
</g>
<mask id="mask36_1424_6941" style="mask-type:luminance" maskUnits="userSpaceOnUse" x="0" y="0" width="78" height="78">
<path d="M78 0H0V78H78V0Z" fill="white"/>
</mask>
<g mask="url(#mask36_1424_6941)">
<path d="M40.111 43.9343C40.111 43.9343 32.4921 47.0987 30.8274 48.9082C29.1626 50.7177 28.6563 51.6588 30.2484 53.4677C31.8406 55.2772 34.3138 54.7704 37.6372 53.1783C40.9607 51.5861 45.2093 49.4426 45.5428 47.4603C45.8752 45.4785 44.0387 42.8688 40.111 43.9343Z" fill="#4D4D4D"/>
</g>
<mask id="mask37_1424_6941" style="mask-type:luminance" maskUnits="userSpaceOnUse" x="0" y="0" width="78" height="78">
<path d="M78 0H0V78H78V0Z" fill="white"/>
</mask>
<g mask="url(#mask37_1424_6941)">
<path d="M48.1625 58.4478C48.7194 57.9547 48.9781 57.4605 49.1085 57.105C49.9599 54.7859 47.7833 51.7959 46.1901 51.5026C46.1901 51.5026 46.1659 51.4982 44.795 51.2962C44.795 51.2962 41.8056 51.0205 39.1733 52.4288C36.5411 53.8371 36.9786 57.0142 38.0638 59.4605C39.1497 61.9067 42.8253 65.7954 42.8253 65.7954C42.8253 65.7954 43.0576 67.3644 43.4197 67.8641C43.7818 68.3638 43.9266 68.5223 45.5412 66.858C47.1559 65.1933 47.4432 63.3106 47.4432 63.3106L45.8802 59.461L47.6523 58.7951C47.8229 58.679 47.993 58.5634 48.1625 58.4478Z" fill="#4D4D4D"/>
</g>
</svg>
