<svg width="78" height="78" viewBox="0 0 78 78" fill="none" xmlns="http://www.w3.org/2000/svg">
<g clip-path="url(#clip0_1611_2350)">
<mask id="mask0_1611_2350" style="mask-type:luminance" maskUnits="userSpaceOnUse" x="0" y="0" width="78" height="78">
<path d="M78 0H0V78H78V0Z" fill="white"/>
</mask>
<g mask="url(#mask0_1611_2350)">
<path d="M15.4135 20.9972C18.3815 17.19 23.8193 15.7008 27.3767 15.8588C30.9341 16.0167 33.6252 9.66805 36.2718 7.50634C38.9183 5.34462 46.5041 4.15645 48.9806 7.95321C51.4566 11.75 55.4405 14.3597 59.3143 14.4769C63.1881 14.5941 71.0138 18.9417 70.3815 24.8705C69.7492 30.7992 65.5595 37.7461 66.1125 41.4664C66.6656 45.1866 69.2748 50.0092 63.2668 56.4916C57.2588 62.974 51.691 62.2624 48.9806 67.0057C46.2702 71.7491 38.2387 75.1479 33.2031 70.9583C28.1675 66.7686 24.0565 62.766 19.7876 61.9212C15.5186 61.0764 10.3009 59.0782 7.92954 52.2117C5.55815 45.3451 6.34843 41.3921 10.6174 37.0439C14.8863 32.6968 11.5926 25.8985 15.4135 20.9972Z" fill="#8AA6AE"/>
</g>
<mask id="mask1_1611_2350" style="mask-type:luminance" maskUnits="userSpaceOnUse" x="0" y="0" width="78" height="78">
<path d="M78 0H0V78H78V0Z" fill="white"/>
</mask>
<g mask="url(#mask1_1611_2350)">
<path d="M66.9403 27.1643C66.6689 26.7174 66.2457 26.3195 65.7086 26.2502C65.2084 26.1858 64.7516 26.4268 64.4109 26.7785C64.0279 27.1747 63.7846 27.6722 63.5717 28.1741C63.3389 28.7228 63.138 29.2842 62.9503 29.8499C62.5734 30.9869 62.247 32.1426 61.7957 33.2537C61.5723 33.8041 61.3142 34.3423 61.0071 34.8513C60.7072 35.3488 60.3506 35.8023 59.978 36.2464C59.3 37.0554 58.5312 37.8914 58.2582 38.9392C58.2136 39.1093 58.185 39.2832 58.1712 39.4582C58.136 39.4973 58.1008 39.5363 58.0656 39.5749C57.8636 39.7955 57.6682 40.0217 57.4795 40.254C57.3001 40.4747 57.1267 40.7003 56.9588 40.9298C56.862 41.0624 57.037 41.1895 57.1597 41.1279C55.9726 42.5995 54.5731 43.8933 53.1021 45.0799C51.1374 46.6637 49.0461 48.0885 46.9906 49.5497C44.7788 51.1214 42.5852 52.7185 40.2435 54.0949C38.0213 55.4008 35.7099 56.5499 33.3622 57.611C31.0012 58.6781 28.6018 59.6571 26.199 60.6257C25.9888 60.7105 25.7791 60.7947 25.5689 60.8794C25.5221 60.7484 25.2876 60.7677 25.2799 60.9372C25.2788 60.9581 25.2788 60.9785 25.2783 60.9988C25.1605 61.0682 25.1897 61.2514 25.2954 61.2812C25.3961 62.0159 25.92 62.6377 26.4973 63.084C27.2479 63.6641 28.1604 64.0306 28.8043 64.7461C29.14 65.1192 29.3948 65.555 29.7118 65.9425C29.9974 66.2914 30.3392 66.5935 30.7161 66.8401C31.0909 67.085 31.5048 67.2743 31.9351 67.3976C32.4128 67.5346 32.9142 67.5258 33.3919 67.6546C33.8431 67.7762 34.1926 68.0844 34.5157 68.408C34.8178 68.7101 35.1106 69.0145 35.4507 69.2748C36.1039 69.7745 36.8689 70.1448 37.674 70.3215C38.4456 70.4904 39.2716 70.4855 40.0168 70.2037C40.4059 70.0568 40.752 69.8422 41.0723 69.5785C41.4251 69.288 41.746 68.9528 42.1411 68.7173C42.5693 68.4619 43.0745 68.4014 43.5153 68.1741C43.8879 67.982 44.1982 67.6903 44.4481 67.3563C45.0243 66.5847 45.2092 65.6183 45.2923 64.6795C45.3149 64.4241 45.3303 64.1682 45.3457 63.9123C45.349 63.8589 45.3281 63.8209 45.2962 63.7973C45.4563 61.7522 46.8547 60.0335 48.2768 58.6473C49.1094 57.8355 49.9905 57.0733 50.789 56.2263C51.5678 55.4003 52.2452 54.484 52.7851 53.484C53.0537 52.9865 53.2881 52.4703 53.4879 51.9414C53.6943 51.3955 53.8517 50.8325 54.0668 50.2899C54.271 49.7742 54.55 49.3031 54.8951 48.8695C55.2214 48.46 55.5819 48.0803 55.9193 47.6802C56.2473 47.2917 56.5571 46.8822 56.7811 46.4238C56.9093 46.1618 57.01 45.8861 57.1597 45.6351C57.3061 45.3891 57.5015 45.18 57.6963 44.972C58.4172 44.2015 58.9736 43.3177 59.3143 42.3155C59.5074 41.747 59.6329 41.145 59.6775 40.5391C60.0842 39.5193 60.6389 38.5562 61.3219 37.6966C61.6928 37.2293 62.1001 36.7907 62.5392 36.3873C62.9481 36.0114 63.389 35.6713 63.7929 35.2894C64.1754 34.9273 64.5364 34.5184 64.7516 34.0324C64.8677 33.7705 64.9238 33.5052 64.9723 33.2251C65.0284 32.8988 65.133 32.6555 65.4037 32.453C65.6129 32.2961 65.8324 32.1586 66.0289 31.9841C66.2138 31.8196 66.3806 31.6357 66.5314 31.4393C66.8423 31.0342 67.0778 30.5725 67.2259 30.0832C67.5121 29.1317 67.4642 28.0283 66.9403 27.1643Z" fill="#C6D3D7"/>
</g>
<mask id="mask2_1611_2350" style="mask-type:luminance" maskUnits="userSpaceOnUse" x="0" y="0" width="78" height="78">
<path d="M78 0H0V78H78V0Z" fill="white"/>
</mask>
<g mask="url(#mask2_1611_2350)">
<path d="M28.4988 20.781C28.1648 20.6329 27.8186 20.7848 27.5814 21.033C27.3041 21.3231 27.1423 21.6978 26.9375 22.0374C26.718 22.4023 26.4742 22.7528 26.2133 23.0896C25.696 23.7577 25.117 24.3758 24.5359 24.9888C23.3994 26.1869 22.2118 27.3905 21.454 28.8764C21.0385 29.6904 20.8343 30.5946 20.4051 31.4008C19.9544 32.2472 19.1833 32.7585 18.4844 33.3787C17.7728 34.0105 17.3573 34.8217 16.8301 35.5965C16.304 36.3698 15.5462 36.8601 14.8731 37.488C14.2039 38.1116 13.8429 38.8804 13.6184 39.7571C13.3982 40.6178 13.2551 41.4901 12.8737 42.3007C12.1831 43.7663 11.0642 44.9654 10.1683 46.3005C9.31143 47.5779 8.67745 49.0396 8.91905 50.6069C9.14854 52.0956 10.0847 53.4593 11.3504 54.2639C11.9745 54.6607 12.6784 54.9083 13.4136 54.9837C13.4494 54.9876 13.4786 54.9799 13.5006 54.965C13.5969 55.4449 13.7147 55.9176 14.0383 56.3007C14.5886 56.9517 15.4999 56.9165 16.1934 57.3188C16.7872 57.6633 17.0656 58.3424 17.3843 58.9164C17.676 59.4425 18.0491 59.9885 18.6726 60.131C18.8961 60.1822 19.1244 60.1734 19.3517 60.1827C19.6313 60.1937 19.8635 60.2642 20.1068 60.4023C20.4904 60.6203 20.8349 60.8679 21.2768 60.9532C21.6763 61.0308 22.0985 61.0055 22.4842 60.8745C22.7902 60.7705 23.2938 60.5548 23.3917 60.2091C23.5095 59.792 22.9118 59.5229 22.6444 59.3396C22.2085 59.0413 22.6427 57.2483 22.2019 56.9572C20.4607 55.8065 17.8113 56.2077 16.0024 55.1653C15.1752 54.6887 16.2462 53.0053 15.4064 52.5512C15.3459 52.3911 13.3713 53.4527 13.2909 53.2969C13.073 52.8754 12.8083 52.4786 12.6085 52.0477C11.7588 50.2145 12.5182 48.0842 13.1962 46.3237C14.4752 43.0018 16.3761 39.9623 18.4398 37.0775C20.5184 34.1728 22.7754 31.4013 24.8716 28.5093C25.9227 27.0592 26.9331 25.5788 27.8544 24.0428C28.0839 23.6598 28.3079 23.2734 28.5253 22.8838C28.7377 22.503 28.9947 22.0941 28.9991 21.6434C29.0024 21.2983 28.8257 20.9257 28.4988 20.781Z" fill="#C6D3D7"/>
</g>
<mask id="mask3_1611_2350" style="mask-type:luminance" maskUnits="userSpaceOnUse" x="0" y="0" width="78" height="78">
<path d="M78 0H0V78H78V0Z" fill="white"/>
</mask>
<g mask="url(#mask3_1611_2350)">
<path d="M24.334 23.3745C23.9284 23.7195 23.3869 23.8367 22.9147 24.0607C22.6841 24.1702 22.4623 24.3095 22.2879 24.4977C22.1041 24.6964 21.9814 24.9374 21.8542 25.1735C21.7299 25.4035 21.5961 25.6402 21.3727 25.7882C21.1492 25.9368 20.884 26.0045 20.6517 26.1371C20.0998 26.4519 19.9985 27.1542 19.8229 27.7111C19.5731 28.5041 19.3232 29.2977 19.0728 30.0907C19.0668 30.1094 19.0646 30.1271 19.0657 30.143C19.0431 30.1738 19.0332 30.2151 19.0481 30.2641C19.0971 30.427 19.266 30.5073 19.4284 30.4732C19.5902 30.4391 19.6843 30.3015 19.7503 30.1606C20.5846 29.4683 20.9704 28.4249 21.4167 27.47C21.6445 26.9824 21.8944 26.4938 22.2417 26.0788C22.5999 25.6512 23.0468 25.3111 23.4656 24.9462C23.929 24.5428 24.3544 24.0987 24.5828 23.5186C24.6422 23.3679 24.4347 23.2892 24.334 23.3745Z" fill="#C6D3D7"/>
</g>
<mask id="mask4_1611_2350" style="mask-type:luminance" maskUnits="userSpaceOnUse" x="0" y="0" width="78" height="78">
<path d="M78 0H0V78H78V0Z" fill="white"/>
</mask>
<g mask="url(#mask4_1611_2350)">
<path d="M15.1936 36.0452C14.7963 35.961 14.3521 35.8823 13.9565 36.0166C13.5619 36.1509 13.367 36.4667 13.2267 36.8382C13.1585 37.0187 13.1007 37.213 12.9802 37.3671C12.8514 37.5311 12.6434 37.6092 12.5592 37.8101C12.4684 38.0275 12.5476 38.2707 12.5955 38.4887C12.6588 38.7754 12.7226 39.0621 12.7859 39.3488C12.8156 39.4842 12.989 39.4809 13.0572 39.3841C13.4408 38.8425 13.7347 38.2454 13.9339 37.6125C13.9515 37.5564 13.9366 37.5102 13.9064 37.4788C14.1837 36.9615 14.6449 36.546 15.1931 36.3314C15.3169 36.2835 15.351 36.0782 15.1936 36.0452Z" fill="#C6D3D7"/>
</g>
<mask id="mask5_1611_2350" style="mask-type:luminance" maskUnits="userSpaceOnUse" x="0" y="0" width="78" height="78">
<path d="M78 0H0V78H78V0Z" fill="white"/>
</mask>
<g mask="url(#mask5_1611_2350)">
<path d="M47.6364 61.0412C46.9187 61.7677 46.386 62.6658 46.0899 63.6432C45.9419 64.1324 45.8577 64.6388 45.8324 65.1489C45.817 65.4505 45.8148 65.7526 45.7476 66.0482C45.6816 66.3398 45.5732 66.6205 45.4647 66.8984C45.2919 67.3409 45.0636 67.8885 44.5638 68.0332C44.3806 68.0861 44.4587 68.3733 44.6431 68.3199C44.6464 68.3188 44.6491 68.3177 44.6524 68.3166C44.68 68.375 44.74 68.4168 44.8203 68.3953C45.3937 68.2435 45.9496 67.987 46.4201 67.6232C46.6193 67.4691 46.8043 67.2809 46.8863 67.0377C46.9738 66.7768 46.8846 66.5275 46.812 66.276C46.7756 66.1505 46.7448 66.0195 46.7933 65.8924C46.845 65.7576 46.9451 65.6448 47.0018 65.511C47.1102 65.2557 47.113 64.9761 47.0904 64.7037C47.0673 64.4258 47.0172 64.1451 47.0442 63.8655C47.0728 63.5744 47.2269 63.3312 47.3683 63.0824C47.5307 62.7962 47.6281 62.5139 47.6699 62.1876C47.7112 61.8607 47.7134 61.5189 47.8703 61.2206C47.9462 61.0753 47.7585 60.9174 47.6364 61.0412Z" fill="#C6D3D7"/>
</g>
<mask id="mask6_1611_2350" style="mask-type:luminance" maskUnits="userSpaceOnUse" x="0" y="0" width="78" height="78">
<path d="M78 0H0V78H78V0Z" fill="white"/>
</mask>
<g mask="url(#mask6_1611_2350)">
<path d="M60.1085 42.2506C60.0733 42.1097 59.857 42.1086 59.8218 42.2506C59.3909 43.9957 58.2555 45.4288 57.1697 46.8173C56.6089 47.5344 56.0487 48.2542 55.5677 49.0285C55.0487 49.8645 54.6475 50.75 54.2744 51.658C53.9073 52.5518 53.5012 53.4747 52.7186 54.0839C52.6862 54.1092 52.6707 54.1389 52.6674 54.1687C52.6278 54.1808 52.5882 54.1929 52.5486 54.205C52.4715 54.2281 52.4231 54.309 52.4446 54.3877C52.4572 54.4339 52.4935 54.4702 52.5365 54.4873C52.5596 54.5544 52.6234 54.6084 52.7126 54.5875C53.6806 54.3563 54.8726 54.0091 55.3041 53.008C55.5644 52.4037 55.407 51.7246 55.6321 51.1143C55.7306 50.8479 55.9023 50.6245 56.1764 50.5287C56.4559 50.4313 56.6508 50.3246 56.757 50.0323C56.8511 49.7742 56.883 49.4941 56.97 49.2316C57.0531 48.9812 57.1593 48.7391 57.293 48.5118C57.5489 48.0781 57.9237 47.689 58.4283 47.5701C58.9209 47.454 59.5631 47.6698 59.9401 47.23C60.2571 46.8602 60.0843 46.3567 59.983 45.9395C59.9297 45.7177 59.8614 45.4431 59.9885 45.2334C60.1421 44.9797 60.4679 44.9021 60.5691 44.6011C60.6864 44.2505 60.5009 43.8202 60.4156 43.4806C60.3143 43.0712 60.2114 42.6612 60.1085 42.2506Z" fill="#C6D3D7"/>
</g>
<mask id="mask7_1611_2350" style="mask-type:luminance" maskUnits="userSpaceOnUse" x="0" y="0" width="78" height="78">
<path d="M78 0H0V78H78V0Z" fill="white"/>
</mask>
<g mask="url(#mask7_1611_2350)">
<path d="M61.916 38.1608C61.1483 38.873 60.3299 39.6908 60.2452 40.7942C60.2347 40.9274 60.3762 40.967 60.4681 40.9142C60.4846 40.9296 60.5071 40.9417 60.5358 40.9477C60.8412 41.0121 61.0734 40.8074 61.2077 40.5504C61.3332 40.311 61.3475 39.9445 61.5737 39.77C61.7047 39.6688 61.8808 39.7601 62.0272 39.6902C62.1614 39.6264 62.2275 39.4866 62.2523 39.3474C62.3172 38.9841 62.2567 38.5802 62.1636 38.2269C62.135 38.1152 61.9963 38.0865 61.916 38.1608Z" fill="#C6D3D7"/>
</g>
<mask id="mask8_1611_2350" style="mask-type:luminance" maskUnits="userSpaceOnUse" x="0" y="0" width="78" height="78">
<path d="M78 0H0V78H78V0Z" fill="white"/>
</mask>
<g mask="url(#mask8_1611_2350)">
<path d="M59.245 48.5811C58.8994 49.0764 58.1845 49.1205 57.7938 49.5767C57.5517 49.8596 57.4917 50.2206 57.4086 50.5717C57.3387 50.8689 57.2165 51.2354 56.894 51.3378C56.7971 51.3686 56.774 51.4638 56.801 51.5381C56.8043 51.6008 56.8423 51.6608 56.9144 51.674C56.9215 51.6806 56.9292 51.6867 56.938 51.6927C57.1136 51.8055 57.315 51.8628 57.5236 51.8622C57.545 51.8622 57.5643 51.8584 57.5808 51.8512C58.0525 51.8176 58.4982 51.4561 58.5973 50.9839C58.6336 50.8122 58.5995 50.6652 58.5841 50.4941C58.5659 50.2899 58.72 50.0995 58.8169 49.9306C59.0447 49.531 59.2731 49.1315 59.5009 48.7319C59.5972 48.5624 59.3529 48.4259 59.245 48.5811Z" fill="#C6D3D7"/>
</g>
<mask id="mask9_1611_2350" style="mask-type:luminance" maskUnits="userSpaceOnUse" x="0" y="0" width="78" height="78">
<path d="M78 0H0V78H78V0Z" fill="white"/>
</mask>
<g mask="url(#mask9_1611_2350)">
<path d="M66.5238 32.3097C66.2453 32.6437 65.9608 32.9739 65.6884 33.3124C65.5662 33.4643 65.4528 33.62 65.3758 33.8C65.3004 33.975 65.2574 34.1605 65.1931 34.3388C64.957 34.9931 64.4336 35.5159 63.7985 35.7878C63.7358 35.8148 63.7149 35.8649 63.722 35.9144C63.6378 35.8572 63.4859 35.8962 63.4788 36.0316C63.4573 36.4647 63.9119 36.714 64.2575 36.856C64.5877 36.9914 65.0527 37.0855 65.3152 36.7713C65.4655 36.5913 65.4638 36.3624 65.4776 36.1411C65.4935 35.8863 65.5948 35.6607 65.7252 35.4444C65.8551 35.2298 66.0053 35.0278 66.1319 34.811C66.2602 34.5914 66.3691 34.3602 66.461 34.123C66.6718 33.5788 66.7764 32.9965 66.778 32.4137C66.7775 32.2943 66.6085 32.2079 66.5238 32.3097Z" fill="#C6D3D7"/>
</g>
<mask id="mask10_1611_2350" style="mask-type:luminance" maskUnits="userSpaceOnUse" x="0" y="0" width="78" height="78">
<path d="M78 0H0V78H78V0Z" fill="white"/>
</mask>
<g mask="url(#mask10_1611_2350)">
<path d="M65.5535 28.7428C65.4913 28.0824 65.2228 27.4567 64.8304 26.925C63.9262 25.6994 62.5212 25.0831 61.1349 24.5581C61.125 24.5371 61.1096 24.5168 61.0859 24.4981C58.3018 22.2676 55.4323 20.1438 52.4836 18.1357C49.5476 16.1363 46.534 14.2514 43.4515 12.4859C41.713 11.4904 39.952 10.5328 38.1711 9.61427C38.1221 9.58896 38.0748 9.58786 38.034 9.60162C37.7968 9.43211 37.5046 9.3347 37.2014 9.30609C36.5646 9.2461 35.9873 9.54108 35.5278 9.96153C34.9802 10.4623 34.573 11.1139 34.1421 11.7116C33.6226 12.4325 33.103 13.154 32.5835 13.875C32.0756 14.5799 31.5676 15.2849 31.0597 15.9904C30.6051 16.6217 30.1433 17.2502 29.7455 17.9194C29.0443 19.0987 28.5215 20.4757 28.8154 21.8609C28.8545 22.0447 28.9073 22.2268 28.9728 22.4051C28.6519 22.2918 28.2425 22.3881 27.9728 22.5912C27.7169 22.7843 27.5243 23.0452 27.3256 23.2939C27.0972 23.579 26.87 23.8652 26.6438 24.1514C25.7225 25.317 24.8156 26.4941 23.9235 27.6818C22.1453 30.0487 20.4261 32.4592 18.7668 34.9109C17.1026 37.3704 15.4989 39.8711 13.958 42.4104C13.1914 43.6739 12.4369 44.9457 11.7044 46.2297C11.0198 47.43 10.328 48.7601 10.3291 50.1767C10.3302 51.4204 10.9554 52.5767 12.0164 53.2332C12.766 53.6972 13.6647 53.8331 14.5111 53.6625C14.833 54.7323 15.5325 55.6646 16.4582 56.2887C17.3783 56.9089 18.4933 57.1599 19.589 57.0465C19.8411 58.1163 20.5983 59.0376 21.5609 59.5588C22.4051 60.0161 23.377 60.1284 24.3015 59.9418C24.5861 60.8119 25.1661 61.5719 25.9234 62.0881C26.8034 62.6885 27.8941 62.8899 28.9376 62.7006C28.9651 62.6957 28.9926 62.6902 29.0201 62.6847C29.3305 63.7909 30.0839 64.7605 31.069 65.351C32.0282 65.9267 33.1801 66.0901 34.2631 65.8541C35.0221 67.9635 37.6114 69.1863 39.7296 68.4423C41.0064 67.9938 41.9177 66.92 42.6618 65.8381C43.1087 65.1881 43.5242 64.5156 43.9501 63.8519C44.413 63.1304 44.8758 62.4095 45.3386 61.688L50.9917 52.8772L53.8017 48.4976C54.2755 47.7591 54.7493 47.0205 55.2232 46.282C55.6712 45.5841 56.1356 44.894 56.5588 44.1808C56.9375 43.5424 57.2754 42.855 57.3788 42.1126C57.4487 41.6146 57.4003 41.1154 57.2413 40.6454C57.5362 40.7258 57.8648 40.7016 58.1565 40.5849C58.802 40.3273 59.1927 39.7011 59.5615 39.148C60.5086 37.7259 61.4557 36.3033 62.4028 34.8812C62.8734 34.174 63.3445 33.4674 63.8156 32.7602C64.247 32.1125 64.7126 31.4752 65.0709 30.7829C65.3967 30.1533 65.6207 29.4577 65.5535 28.7428Z" fill="#FDCB71"/>
</g>
<mask id="mask11_1611_2350" style="mask-type:luminance" maskUnits="userSpaceOnUse" x="0" y="0" width="78" height="78">
<path d="M78 0H0V78H78V0Z" fill="white"/>
</mask>
<g mask="url(#mask11_1611_2350)">
<path d="M40.1229 27.8498C38.5913 26.7931 37.0063 25.8146 35.3762 24.917C35.4852 24.7751 35.5936 24.6331 35.7026 24.4916C35.8424 24.3095 35.5325 24.1317 35.3944 24.3117C35.2838 24.4559 35.1732 24.6006 35.0626 24.7453C34.0318 24.1867 32.9839 23.6606 31.9196 23.1686C31.1117 22.7955 30.2945 22.4422 29.4701 22.107C29.2576 22.0206 29.1652 22.3657 29.3754 22.451C31.2438 23.2099 33.0698 24.0723 34.8435 25.0321C33.6047 26.6506 32.3736 28.2746 31.1513 29.9053C29.7474 31.7781 28.3551 33.6586 26.9732 35.5473C25.5974 37.4283 24.232 39.3171 22.8776 41.2141C21.5177 43.1188 20.1689 45.0312 18.831 46.9513C17.4931 48.8714 16.1668 50.7993 14.851 52.7348C14.6886 52.9736 14.5263 53.213 14.3645 53.4519C14.2352 53.6423 14.5444 53.8212 14.6721 53.6318C15.9847 51.6947 17.3088 49.7646 18.6439 47.8423C19.979 45.92 21.3251 44.0059 22.6822 42.099C24.0339 40.2004 25.3965 38.3094 26.7696 36.4262C28.1487 34.5352 29.5389 32.6525 30.9395 30.7781C32.3346 28.9114 33.7407 27.0523 35.1572 25.2016C36.0262 25.6793 36.8831 26.1801 37.7251 26.7034C38.4757 27.1701 39.2148 27.655 39.9418 28.1569C40.1322 28.2884 40.3111 27.9797 40.1229 27.8498Z" fill="#FAE09D"/>
</g>
<mask id="mask12_1611_2350" style="mask-type:luminance" maskUnits="userSpaceOnUse" x="0" y="0" width="78" height="78">
<path d="M78 0H0V78H78V0Z" fill="white"/>
</mask>
<g mask="url(#mask12_1611_2350)">
<path d="M38.8289 28.2036C37.5235 30.0484 36.2296 31.9008 34.9473 33.7615C33.6706 35.6144 32.4053 37.4751 31.1522 39.3435C29.8936 41.2201 28.6466 43.1045 27.4116 44.9971C26.1816 46.8814 24.9637 48.7735 23.7579 50.6732C22.5467 52.5807 21.3475 54.4964 20.161 56.4193C20.0146 56.6565 19.8682 56.8942 19.7218 57.1314C19.6013 57.3273 19.9095 57.5067 20.03 57.3114C21.2143 55.3869 22.4102 53.4695 23.6182 51.5598C24.8212 49.6584 26.0363 47.7647 27.263 45.8782C28.4952 43.9839 29.739 42.0974 30.9948 40.2185C32.2452 38.3479 33.5077 36.4851 34.7811 34.6304C36.0601 32.7676 37.3512 30.9129 38.6538 29.0666C38.8145 28.8387 38.9758 28.6109 39.1365 28.3836C39.2697 28.1959 38.9604 28.0176 38.8289 28.2036Z" fill="#FAE09D"/>
</g>
<mask id="mask13_1611_2350" style="mask-type:luminance" maskUnits="userSpaceOnUse" x="0" y="0" width="78" height="78">
<path d="M78 0H0V78H78V0Z" fill="white"/>
</mask>
<g mask="url(#mask13_1611_2350)">
<path d="M42.6552 32.5821L39.0274 37.9462L35.3996 43.3103C34.196 45.0901 32.9919 46.8699 31.7883 48.6496C30.5792 50.4377 29.3696 52.2257 28.1605 54.0137L24.5327 59.3779C24.383 59.5991 24.2333 59.8209 24.083 60.0421C23.9543 60.2325 24.263 60.4114 24.3912 60.2221C25.6003 58.434 26.8099 56.646 28.019 54.858L31.6468 49.4939C32.8504 47.7141 34.0545 45.9343 35.2581 44.1545C36.4672 42.3665 37.6768 40.5784 38.8859 38.7904L42.5137 33.4263C42.6634 33.2051 42.8131 32.9833 42.9628 32.762C43.0916 32.5716 42.7829 32.3928 42.6552 32.5821Z" fill="#FAE09D"/>
</g>
<mask id="mask14_1611_2350" style="mask-type:luminance" maskUnits="userSpaceOnUse" x="0" y="0" width="78" height="78">
<path d="M78 0H0V78H78V0Z" fill="white"/>
</mask>
<g mask="url(#mask14_1611_2350)">
<path d="M48.9072 31.6824C47.5947 33.7071 46.2821 35.7312 44.9696 37.7559C43.6625 39.7718 42.356 41.7877 41.049 43.8035C39.7364 45.8282 38.4239 47.8524 37.1113 49.877C35.8043 51.8929 34.4978 53.9088 33.1907 55.9247C31.8782 57.9493 30.5657 59.9735 29.2537 61.9982C29.0902 62.2502 28.9268 62.5023 28.7633 62.7543C28.6378 62.9475 28.9466 63.1263 29.0715 62.9343C30.384 60.9096 31.6966 58.8855 33.0091 56.8608L36.9297 50.8132C38.2423 48.7885 39.5548 46.7643 40.8674 44.7397C42.1744 42.7238 43.4809 40.7079 44.7879 38.692C46.1005 36.6674 47.413 34.6432 48.725 32.6185C48.8885 32.3665 49.0519 32.1144 49.2154 31.8629C49.3403 31.6692 49.0316 31.4904 48.9072 31.6824Z" fill="#FAE09D"/>
</g>
<mask id="mask15_1611_2350" style="mask-type:luminance" maskUnits="userSpaceOnUse" x="0" y="0" width="78" height="78">
<path d="M78 0H0V78H78V0Z" fill="white"/>
</mask>
<g mask="url(#mask15_1611_2350)">
<path d="M57.4699 40.2377C56.1216 39.2284 54.732 38.2747 53.3061 37.3782C54.4563 35.6408 55.6065 33.9034 56.7572 32.166C56.9416 31.8881 57.1254 31.6101 57.3098 31.3317C57.4369 31.1396 57.1282 30.9613 57.0021 31.1517C55.6698 33.1643 54.3374 35.1769 53.0045 37.1894C52.3694 36.7954 51.7277 36.4129 51.0789 36.042C50.4532 35.6848 49.8208 35.3387 49.183 35.003C48.9799 34.8962 48.7994 35.2038 49.003 35.3111C50.2963 35.9914 51.5659 36.7173 52.808 37.4872C52.7205 37.6192 52.633 37.7513 52.5461 37.8834L48.0884 44.614L43.613 51.3738C42.1277 53.6175 40.6418 55.8612 39.1564 58.1049C37.6711 60.3486 36.1852 62.5923 34.6998 64.836C34.5155 65.114 34.3317 65.3924 34.1473 65.6703C34.0202 65.8624 34.3289 66.0413 34.4549 65.8503C35.9403 63.6066 37.4262 61.3629 38.9115 59.1192C40.3969 56.8755 41.8828 54.6317 43.3682 52.388L47.844 45.6283C49.3294 43.3846 50.8147 41.1408 52.3006 38.8971C52.5703 38.4899 52.84 38.0826 53.1096 37.6754C53.9313 38.191 54.7408 38.726 55.5371 39.2802C56.1288 39.6918 56.7127 40.1139 57.29 40.5459C57.4732 40.6835 57.6515 40.3742 57.4699 40.2377Z" fill="#FAE09D"/>
</g>
<mask id="mask16_1611_2350" style="mask-type:luminance" maskUnits="userSpaceOnUse" x="0" y="0" width="78" height="78">
<path d="M78 0H0V78H78V0Z" fill="white"/>
</mask>
<g mask="url(#mask16_1611_2350)">
<path d="M15.9553 40.8938C15.6564 40.9791 15.4864 41.2966 15.3218 41.5349C14.93 42.1001 14.5585 42.6791 14.2013 43.2668C13.4727 44.4671 12.8046 45.7026 12.1431 46.9414C12.1156 46.9507 12.0897 46.9689 12.0688 46.9975C11.8833 47.2545 11.7364 47.5363 11.6324 47.8362C11.5361 48.1147 11.4612 48.4306 11.5784 48.7146C11.6907 48.9859 11.9521 49.1383 12.2443 49.0954C12.5382 49.0519 12.7589 48.8384 12.9372 48.615C13.3566 48.0888 13.6532 47.4571 13.9718 46.8682C14.3142 46.2348 14.6493 45.5975 14.9806 44.9585C15.3092 44.3251 15.6366 43.6911 15.9586 43.0544C16.1077 42.7594 16.2513 42.4606 16.3724 42.1529C16.4819 41.8756 16.6371 41.5327 16.5491 41.2306C16.4737 40.9675 16.2205 40.8178 15.9553 40.8938Z" fill="#FCEAC3"/>
</g>
<mask id="mask17_1611_2350" style="mask-type:luminance" maskUnits="userSpaceOnUse" x="0" y="0" width="78" height="78">
<path d="M78 0H0V78H78V0Z" fill="white"/>
</mask>
<g mask="url(#mask17_1611_2350)">
<path d="M18.1655 39.136C18.0918 38.9857 17.9597 38.8575 17.7941 38.8157C17.6735 38.7854 17.5591 38.8113 17.4534 38.8619C17.4138 38.8074 17.345 38.7816 17.2751 38.8355C17.0038 39.043 16.7743 39.4524 16.9394 39.7953C17.0984 40.1255 17.5948 40.2631 17.903 40.0781C18.2178 39.8899 18.3246 39.4601 18.1655 39.136Z" fill="#FCEAC3"/>
</g>
<mask id="mask18_1611_2350" style="mask-type:luminance" maskUnits="userSpaceOnUse" x="0" y="0" width="78" height="78">
<path d="M78 0H0V78H78V0Z" fill="white"/>
</mask>
<g mask="url(#mask18_1611_2350)">
<path d="M53.6806 44.2492C53.3818 44.3345 53.2118 44.6521 53.0472 44.8904C52.6554 45.4556 52.2839 46.0345 51.9267 46.6223C51.1981 47.8226 50.53 49.0586 49.8685 50.2963C49.841 50.3057 49.8151 50.3238 49.7947 50.353C49.6093 50.61 49.4623 50.8918 49.3583 51.1917C49.262 51.4702 49.1872 51.7861 49.3049 52.07C49.4172 52.3419 49.6786 52.4938 49.9708 52.4509C50.2647 52.4074 50.4854 52.1939 50.6637 51.9704C51.0831 51.4443 51.3797 50.8125 51.6983 50.2237C52.0406 49.5908 52.3758 48.9535 52.7071 48.314C53.0356 47.6806 53.3631 47.0466 53.685 46.4098C53.8342 46.1149 53.9778 45.816 54.0989 45.5084C54.2084 45.231 54.3636 44.8882 54.2755 44.586C54.1991 44.323 53.9459 44.1733 53.6806 44.2492Z" fill="#FCEAC3"/>
</g>
<mask id="mask19_1611_2350" style="mask-type:luminance" maskUnits="userSpaceOnUse" x="0" y="0" width="78" height="78">
<path d="M78 0H0V78H78V0Z" fill="white"/>
</mask>
<g mask="url(#mask19_1611_2350)">
<path d="M55.8906 42.4914C55.8169 42.3412 55.6854 42.213 55.5192 42.1711C55.3986 42.1409 55.2842 42.1667 55.1785 42.2174C55.1389 42.1629 55.0701 42.137 55.0002 42.1904C54.7289 42.3984 54.4994 42.8079 54.6645 43.1502C54.8235 43.4804 55.3199 43.618 55.6281 43.4331C55.9429 43.2454 56.0491 42.8156 55.8906 42.4914Z" fill="#FCEAC3"/>
</g>
<mask id="mask20_1611_2350" style="mask-type:luminance" maskUnits="userSpaceOnUse" x="0" y="0" width="78" height="78">
<path d="M78 0H0V78H78V0Z" fill="white"/>
</mask>
<g mask="url(#mask20_1611_2350)">
<path d="M26.6503 29.9828C26.9084 29.8672 26.9777 29.5987 27.0812 29.3846C27.5347 28.4463 28.0811 27.5663 28.6672 26.7078C29.0189 26.1926 29.3629 25.672 29.7492 25.1817C30.4443 24.3006 31.2285 23.507 32.0953 22.7949C32.3138 22.6155 32.5477 22.4542 32.7628 22.2715C32.8823 22.1703 33.0314 22.1482 33.1602 22.0767C33.1981 22.0052 33.2686 21.9732 33.3341 21.9364C34.2179 21.4378 35.0924 20.9226 36.0395 20.544C37.0351 20.1461 38.0537 19.8539 39.1186 19.713C39.8132 19.6211 40.5077 19.5391 41.2077 19.5083C41.3183 19.5033 41.4339 19.4632 41.539 19.5353C41.9529 19.5716 42.3689 19.5727 42.7833 19.6206C43.4932 19.702 44.1883 19.8478 44.8779 20.0278C45.8107 20.2711 46.732 20.5506 47.5998 20.9749C48.5024 21.4163 49.3433 21.9567 50.1413 22.5687C50.778 23.0568 51.3696 23.5923 51.9073 24.1828C52.7779 25.1393 53.5567 26.1679 54.222 27.2807C54.38 27.5448 54.5131 27.8266 54.7102 28.0671C54.8142 28.132 54.8444 28.2476 54.8912 28.3478C55.3007 29.2151 55.6678 30.1 55.9137 31.0295C56.1664 31.9833 56.2979 32.9563 56.3342 33.9414C56.3678 34.85 56.3232 35.7558 56.2241 36.6595C56.217 36.7255 56.234 36.802 56.1597 36.8455C56.1658 37.3089 56.0557 37.7557 55.9523 38.202C55.7332 39.1475 55.4317 40.0671 55.0233 40.9471C54.5852 41.8898 54.0811 42.7973 53.4532 43.6289C53.1131 44.0796 52.7361 44.5017 52.3734 44.9348C51.969 45.4169 51.5265 45.8605 51.0774 46.2986C51.0466 46.3288 51.0262 46.3701 51.0015 46.4064C50.9596 46.4642 50.8991 46.4499 50.8457 46.44C49.8639 46.2628 48.864 46.2188 47.8833 46.0273C46.3357 45.7246 44.8317 45.281 43.3683 44.6938C42.271 44.2535 41.2039 43.7522 40.1659 43.1881C39.5567 42.8568 38.9535 42.5139 38.3509 42.1711C37.1308 41.4776 35.9817 40.6752 34.8304 39.8784C34.1321 39.3946 33.4518 38.8812 32.7903 38.3446C32.07 37.7601 31.3485 37.1768 30.6738 36.5406C29.8417 35.7558 29.0486 34.9342 28.3926 33.9903C27.8126 33.1549 27.3618 32.2557 27.036 31.2931C26.9144 30.9343 26.8088 30.5706 26.6756 30.2156C26.647 30.1424 26.5963 30.0665 26.6503 29.9828Z" fill="#FDFDFD"/>
</g>
<mask id="mask21_1611_2350" style="mask-type:luminance" maskUnits="userSpaceOnUse" x="0" y="0" width="78" height="78">
<path d="M78 0H0V78H78V0Z" fill="white"/>
</mask>
<g mask="url(#mask21_1611_2350)">
<path d="M26.6504 29.9828C26.8227 30.4219 26.9564 30.8743 27.1078 31.3201C27.5976 32.7614 28.3752 34.0332 29.396 35.1576C30.3217 36.1773 31.3464 37.0898 32.4097 37.9648C33.9236 39.2102 35.54 40.3109 37.175 41.3851C38.077 41.9778 39.028 42.4897 39.9724 43.0114C40.9509 43.5518 41.9536 44.0399 42.9827 44.4747C45.2523 45.4334 47.611 46.0404 50.0666 46.2705C50.3797 46.2996 50.6896 46.3607 51.0011 46.4069C51.6241 46.7514 51.8244 47.7123 51.4424 48.3419C51.17 48.791 50.7804 49.0612 50.2834 49.1883C48.7304 49.5862 47.2076 49.4651 45.7118 48.911C45.3745 48.786 45.4675 48.7811 45.2578 49.0375C44.4554 50.0193 43.5963 50.9505 42.7191 51.8657C41.4572 53.181 40.1512 54.4484 38.7424 55.6058C37.8756 56.3179 36.9841 56.9998 36.0782 57.6613C35.9973 57.7207 35.9225 57.789 35.8454 57.8528C35.8289 57.9117 35.7827 57.9464 35.737 57.9794C35.4107 58.2155 35.0821 58.4477 34.6985 58.588C34.266 58.746 33.8565 58.6799 33.4647 58.4642C33.0448 58.2331 32.7118 57.9188 32.5467 57.4538C32.4207 57.0141 32.4636 56.5815 32.5929 56.1506C32.8494 55.2976 33.168 54.4677 33.5103 53.6466C33.6237 53.3747 33.6281 53.3654 33.3761 53.2096C31.5253 52.0655 29.7224 50.8476 27.9211 49.628C27.7852 49.5361 27.674 49.5361 27.5464 49.639C27.1727 49.9395 26.8144 50.2576 26.4446 50.5631C26.2355 50.7359 26.023 50.9043 25.815 51.0776C25.5459 51.2636 25.2922 51.4717 25.0137 51.6445C24.4265 52.0099 23.8377 51.945 23.2576 51.639C23.0821 51.5465 22.9115 51.4342 22.7739 51.2812C22.5493 51.0319 22.4921 50.7227 22.4563 50.4084C22.414 50.0292 22.4844 49.6556 22.5389 49.2813C22.5493 49.2103 22.6115 49.1636 22.6137 49.092C23.0562 47.2192 23.5664 45.3646 24.1486 43.5309C24.7589 41.6097 25.5349 39.755 26.4441 37.9555C26.5805 37.6852 26.695 37.4029 26.8612 37.1492C26.9498 37.0133 26.832 36.9489 26.7743 36.8757C26.3114 36.2896 25.8987 35.6727 25.5652 35.0035C25.0352 33.9402 24.7694 32.8126 24.7639 31.6255C24.7611 31.0603 24.9725 30.5645 25.3219 30.1286C25.6081 29.772 26.2619 29.7059 26.6504 29.9828Z" fill="#4D4D4D"/>
</g>
<mask id="mask22_1611_2350" style="mask-type:luminance" maskUnits="userSpaceOnUse" x="0" y="0" width="78" height="78">
<path d="M78 0H0V78H78V0Z" fill="white"/>
</mask>
<g mask="url(#mask22_1611_2350)">
<path d="M41.5389 19.5344C40.5703 19.5895 39.605 19.677 38.6475 19.8393C37.0053 20.1173 35.4995 20.749 34.0698 21.5822C33.7715 21.7561 33.4754 21.935 33.1601 22.0764C33.1535 21.8701 33.0373 21.6995 32.9746 21.5113C32.6119 20.4232 32.4078 19.3176 32.6994 18.1817C33.4259 15.3503 36.4918 14.1714 38.8087 15.2908C40.1829 15.9545 41.0453 17.0442 41.3634 18.5488C41.4327 18.8751 41.507 19.2009 41.5389 19.5344Z" fill="#4D4D4D"/>
</g>
<mask id="mask23_1611_2350" style="mask-type:luminance" maskUnits="userSpaceOnUse" x="0" y="0" width="78" height="78">
<path d="M78 0H0V78H78V0Z" fill="white"/>
</mask>
<g mask="url(#mask23_1611_2350)">
<path d="M56.16 36.845C56.2954 35.5253 56.3499 34.205 56.2052 32.8815C56.0301 31.2822 55.5349 29.7814 54.8348 28.3412C54.7908 28.2509 54.7517 28.1579 54.7104 28.0666C56.3714 27.3996 57.9415 27.5333 59.3646 28.6565C60.9672 29.9212 61.6001 32.1649 60.5181 34.0922C59.6508 35.6375 58.335 36.5527 56.5777 36.8174C56.4407 36.8384 56.3031 36.9028 56.16 36.845Z" fill="#4D4D4D"/>
</g>
<mask id="mask24_1611_2350" style="mask-type:luminance" maskUnits="userSpaceOnUse" x="0" y="0" width="78" height="78">
<path d="M78 0H0V78H78V0Z" fill="white"/>
</mask>
<g mask="url(#mask24_1611_2350)">
<path d="M47.0885 33.3717C47.3295 33.015 47.6333 32.6348 48.0268 32.3414C48.9134 31.6816 50.2738 31.823 51.0965 32.6419C51.9198 33.4608 52.3805 34.4525 52.5351 35.5945C52.6782 36.6555 52.6452 37.7072 52.3419 38.7407C52.2055 39.2052 51.9969 39.635 51.6766 40.0026C51.2473 40.4952 50.6838 40.6592 50.0514 40.6647C49.2292 40.6718 48.5083 40.3901 47.8501 39.9212C46.4011 38.8893 45.9305 37.4491 46.1474 35.7441C46.2519 34.9214 46.5871 34.1311 47.0885 33.3717Z" fill="#4D4D4D"/>
</g>
<mask id="mask25_1611_2350" style="mask-type:luminance" maskUnits="userSpaceOnUse" x="0" y="0" width="78" height="78">
<path d="M78 0H0V78H78V0Z" fill="white"/>
</mask>
<g mask="url(#mask25_1611_2350)">
<path d="M39.8641 28.841C39.2598 29.6516 38.6115 30.4226 37.7211 30.9372C36.3365 31.7374 35.0591 31.5508 33.8457 30.6829C33.2309 30.2432 32.7345 29.6945 32.4071 29.0083C32.0059 28.1679 32.1022 27.4596 32.7439 26.7794C33.8236 25.6347 35.1428 24.905 36.6953 24.6314C37.6314 24.4669 38.5312 24.6309 39.3721 25.0745C40.3401 25.5846 40.7854 26.9049 40.3539 27.945C40.2235 28.262 40.0534 28.5553 39.8641 28.841Z" fill="#4D4D4D"/>
</g>
<mask id="mask26_1611_2350" style="mask-type:luminance" maskUnits="userSpaceOnUse" x="0" y="0" width="78" height="78">
<path d="M78 0H0V78H78V0Z" fill="white"/>
</mask>
<g mask="url(#mask26_1611_2350)">
<path d="M41.9357 33.599C42.0012 33.3469 42.0017 33.3447 41.7436 33.2369C41.3628 33.0778 41.0931 32.8203 41.0463 32.3954C40.9996 31.9744 41.1514 31.6189 41.5075 31.3833C41.8559 31.1527 42.2505 31.0988 42.6489 31.2237C43.3346 31.4384 43.8751 31.861 44.2592 32.4647C44.4804 32.8126 44.5591 33.1972 44.3929 33.6006C44.159 34.1686 43.5614 34.3502 42.9483 34.0486C42.7111 33.9319 42.5042 33.7696 42.278 33.6381C42.1657 33.6017 42.0584 33.5346 41.9357 33.599Z" fill="#4D4D4D"/>
</g>
<mask id="mask27_1611_2350" style="mask-type:luminance" maskUnits="userSpaceOnUse" x="0" y="0" width="78" height="78">
<path d="M78 0H0V78H78V0Z" fill="white"/>
</mask>
<g mask="url(#mask27_1611_2350)">
<path d="M49.6853 42.7426C49.3275 43.2594 48.9016 43.3799 48.4184 43.375C47.7079 43.3673 46.9545 42.8846 46.7047 42.2919C46.5214 41.8572 46.5038 41.4389 46.8312 41.0718C47.1923 40.6679 47.649 40.516 48.1812 40.6673C48.7002 40.8148 49.1465 41.0938 49.5119 41.4862C49.8361 41.8329 49.9637 42.3904 49.6853 42.7426Z" fill="#CEAFB0"/>
</g>
<mask id="mask28_1611_2350" style="mask-type:luminance" maskUnits="userSpaceOnUse" x="0" y="0" width="78" height="78">
<path d="M78 0H0V78H78V0Z" fill="white"/>
</mask>
<g mask="url(#mask28_1611_2350)">
<path d="M32.6814 30.4658C33.1239 30.7531 33.3947 31.1229 33.519 31.6154C33.6445 32.1124 33.3407 32.5422 32.8961 32.6957C31.8168 33.0683 30.5351 32.1674 30.5192 31.0222C30.5109 30.408 30.9369 30.0233 31.5659 30.0662C31.8807 30.0877 32.3986 30.2446 32.6814 30.4658Z" fill="#CEAFB0"/>
</g>
<mask id="mask29_1611_2350" style="mask-type:luminance" maskUnits="userSpaceOnUse" x="0" y="0" width="78" height="78">
<path d="M78 0H0V78H78V0Z" fill="white"/>
</mask>
<g mask="url(#mask29_1611_2350)">
<path d="M41.9353 33.599C42.0624 33.4554 42.1021 33.4598 42.2771 33.6375C42.1081 34.0679 41.7818 34.4311 41.7119 34.9011C41.6101 35.5824 41.7554 36.2054 42.2914 36.6677C42.6414 36.9698 43.0861 37.0248 43.5412 36.9654C43.8637 36.9236 44.162 36.8031 44.4641 36.6935C44.5219 36.6726 44.6039 36.6115 44.6375 36.7167C44.6606 36.7904 44.638 36.8702 44.5549 36.906C43.998 37.1487 43.4322 37.316 42.8137 37.158C42.025 36.9566 41.593 36.3518 41.4863 35.5687C41.4488 35.294 41.4505 35.0167 41.5292 34.7217C41.1384 35.0233 40.7273 35.1922 40.2596 35.2236C39.7114 35.261 39.2392 35.0882 38.9151 34.6496C38.4759 34.0552 38.2519 33.3805 38.3372 32.6271C38.3405 32.5958 38.3493 32.5655 38.351 32.5341C38.3554 32.4516 38.4104 32.4229 38.4787 32.429C38.5563 32.4362 38.5519 32.5005 38.548 32.5594C38.5271 32.8814 38.5277 33.2017 38.5992 33.5187C38.7043 33.9837 38.8898 34.4031 39.2679 34.7156C39.9783 35.3023 41.0597 34.9171 41.4532 34.3887C41.6387 34.1405 41.7779 33.8643 41.9353 33.599Z" fill="#4D4D4D"/>
</g>
<mask id="mask30_1611_2350" style="mask-type:luminance" maskUnits="userSpaceOnUse" x="0" y="0" width="78" height="78">
<path d="M78 0H0V78H78V0Z" fill="white"/>
</mask>
<g mask="url(#mask30_1611_2350)">
<path d="M31.9564 49.304C30.7776 48.5132 29.8057 47.5254 29.1612 46.2524C28.322 44.5943 28.2791 42.875 28.8464 41.1244C29.016 40.601 29.2465 40.1052 29.5135 39.6242C29.5762 39.5114 29.6098 39.4789 29.7187 39.5785C30.2867 40.1002 30.9008 40.5653 31.5134 41.032C32.7445 41.9697 34.0141 42.853 35.3211 43.6835C36.2864 44.2965 37.2688 44.8793 38.2764 45.4192C39.2494 45.9404 40.2307 46.4472 41.2086 46.9591C41.5438 47.1346 41.8789 47.3113 42.2174 47.4802C42.3181 47.5303 42.3247 47.571 42.2559 47.6569C41.5746 48.5055 40.7964 49.2446 39.8487 49.7916C38.7101 50.4482 37.4735 50.7404 36.167 50.7134C34.9618 50.6881 33.8281 50.3667 32.7637 49.7999C32.4842 49.6507 32.2178 49.4818 31.9564 49.304Z" fill="#FDFDFD"/>
</g>
<mask id="mask31_1611_2350" style="mask-type:luminance" maskUnits="userSpaceOnUse" x="0" y="0" width="78" height="78">
<path d="M78 0H0V78H78V0Z" fill="white"/>
</mask>
<g mask="url(#mask31_1611_2350)">
<path d="M49.8616 37.276C49.6238 37.1956 49.4362 37.1274 49.2447 37.0691C48.6778 36.8968 48.1027 36.8137 47.5095 36.9023C47.2965 36.9342 47.2717 36.893 47.286 36.68C47.3102 36.314 47.5953 36.2056 47.8639 36.1467C48.5622 35.9937 49.2259 36.084 49.7625 36.6084C50.0344 36.8737 50.156 37.2188 50.1681 37.599C50.1692 37.6425 50.1665 37.6893 50.1516 37.7289C50.1252 37.7994 50.0933 37.8803 49.9948 37.8582C49.9045 37.8384 49.9122 37.7603 49.9166 37.6893C49.9249 37.5517 49.9529 37.4163 49.9392 37.276C49.8941 36.811 49.6161 36.538 49.2028 36.3812C48.7125 36.1951 48.2166 36.1946 47.7202 36.3575C47.6355 36.3856 47.554 36.4224 47.5056 36.5028C47.4302 36.6277 47.4726 36.7031 47.6173 36.6998C48.2656 36.6855 48.9002 36.7592 49.5116 36.9871C49.6459 37.0383 49.7559 37.1125 49.8616 37.276Z" fill="#E7E6DB"/>
</g>
<mask id="mask32_1611_2350" style="mask-type:luminance" maskUnits="userSpaceOnUse" x="0" y="0" width="78" height="78">
<path d="M78 0H0V78H78V0Z" fill="white"/>
</mask>
<g mask="url(#mask32_1611_2350)">
<path d="M49.9102 39.1841C49.8623 39.2375 49.8089 39.2661 49.7462 39.2221C49.6928 39.1847 49.6867 39.1274 49.7236 39.0763C49.7599 39.0262 49.8194 39.0119 49.8711 39.0421C49.9239 39.0724 49.9371 39.128 49.9102 39.1841Z" fill="#CBC9C3"/>
</g>
<mask id="mask33_1611_2350" style="mask-type:luminance" maskUnits="userSpaceOnUse" x="0" y="0" width="78" height="78">
<path d="M78 0H0V78H78V0Z" fill="white"/>
</mask>
<g mask="url(#mask33_1611_2350)">
<path d="M36.3001 27.5498C36.7811 27.9383 37.1394 28.4017 37.1817 29.0484C37.1971 29.2817 37.1047 29.4809 36.9291 29.6361C36.8207 29.7324 36.6952 29.793 36.5483 29.7374C36.4008 29.6818 36.403 29.5437 36.3986 29.4182C36.3826 28.9906 36.2687 28.5987 35.993 28.2619C35.7982 28.0242 35.5676 27.8525 35.2523 27.8151C35.1444 27.8024 35.0343 27.7754 35.0151 27.6395C34.9936 27.4915 35.0965 27.421 35.2055 27.3671C35.4432 27.2493 35.6859 27.2895 35.9242 27.366C36.0563 27.4084 36.1807 27.4711 36.3001 27.5498Z" fill="#E8EAE1"/>
</g>
<mask id="mask34_1611_2350" style="mask-type:luminance" maskUnits="userSpaceOnUse" x="0" y="0" width="78" height="78">
<path d="M78 0H0V78H78V0Z" fill="white"/>
</mask>
<g mask="url(#mask34_1611_2350)">
<path d="M33.7467 28.2515C33.8116 28.2955 33.8116 28.3494 33.7825 28.4033C33.7428 28.4765 33.6796 28.4892 33.608 28.4534C33.542 28.421 33.5414 28.3681 33.5783 28.3136C33.6212 28.2509 33.6779 28.2228 33.7467 28.2515Z" fill="#E1E1E0"/>
</g>
<mask id="mask35_1611_2350" style="mask-type:luminance" maskUnits="userSpaceOnUse" x="0" y="0" width="78" height="78">
<path d="M78 0H0V78H78V0Z" fill="white"/>
</mask>
<g mask="url(#mask35_1611_2350)">
<path d="M36.2032 27.6863C36.6066 28.0055 36.9423 28.3714 37.0199 28.908C37.0491 29.1111 37.0464 29.3092 36.9093 29.4831C36.8471 29.5618 36.78 29.6278 36.6738 29.6064C36.5599 29.5838 36.5896 29.477 36.5813 29.4038C36.5213 28.8865 36.3849 28.4066 35.9919 28.0286C35.802 27.8459 35.5847 27.7385 35.3315 27.689C35.2792 27.6786 35.1978 27.6835 35.1923 27.6169C35.1857 27.5355 35.2666 27.5063 35.3321 27.4876C35.627 27.4039 35.8907 27.4909 36.1405 27.6439C36.162 27.6576 36.1823 27.6725 36.2032 27.6863Z" fill="#4D4D4D"/>
</g>
</g>
<defs>
<clipPath id="clip0_1611_2350">
<rect width="78" height="78" fill="white"/>
</clipPath>
</defs>
</svg>
