<svg width="78" height="81" viewBox="0 0 78 81" fill="none" xmlns="http://www.w3.org/2000/svg">
<g clip-path="url(#clip0_1611_12739)">
<mask id="mask0_1611_12739" style="mask-type:luminance" maskUnits="userSpaceOnUse" x="0" y="0" width="78" height="81">
<path d="M78 0.416504H0V80.0415H78V0.416504Z" fill="white"/>
</mask>
<g mask="url(#mask0_1611_12739)">
<mask id="mask1_1611_12739" style="mask-type:luminance" maskUnits="userSpaceOnUse" x="0" y="0" width="78" height="81">
<path d="M78 0.416504H0V80.0415H78V0.416504Z" fill="white"/>
</mask>
<g mask="url(#mask1_1611_12739)">
<path d="M35.9448 14.2233C36.4764 13.7806 36.827 13.6778 36.827 13.6778C36.6096 13.5615 36.2931 13.3958 35.9057 13.2082C35.0103 12.7745 34.2894 12.4907 33.9685 12.3677C32.2999 11.7295 30.9142 11.1997 30.5499 11.675C30.4337 11.8261 30.4607 12.0278 30.4717 12.1104C30.6412 13.3778 33.6967 13.9121 33.924 13.9497C33.924 13.9497 33.8133 13.92 33.6081 13.8773C33.4044 13.8525 33.0946 13.8087 32.7226 13.7278C31.1574 13.3863 30.2598 12.7722 29.972 13.0981C29.89 13.1913 29.8933 13.32 29.8961 13.407C29.8983 13.4913 29.928 13.8823 30.7062 14.3402C30.7062 14.3402 32.3759 15.3228 35.0466 14.7374C35.0835 14.7295 35.1143 14.7211 35.1143 14.7211C35.5254 14.6222 35.7665 14.3722 35.9448 14.2233Z" fill="#FDFDFD"/>
</g>
<mask id="mask2_1611_12739" style="mask-type:luminance" maskUnits="userSpaceOnUse" x="0" y="0" width="78" height="81">
<path d="M78 0.416504H0V80.0415H78V0.416504Z" fill="white"/>
</mask>
<g mask="url(#mask2_1611_12739)">
<path d="M56.5066 58.0789C56.2732 57.5902 55.9149 57.2593 55.8748 57.2227C55.3547 56.7508 54.7972 56.6227 54.5655 56.5722C53.7582 56.3975 53.1038 56.6087 52.7021 56.7385C52.4401 56.8227 52.061 56.9682 51.6229 57.2548C51.0164 57.6514 50.5156 58.1598 50.0357 58.6969C49.8563 58.8975 49.8591 58.8862 49.7 58.6604C49.5294 58.4177 49.5729 58.2581 49.4799 58.2154C49.3874 58.1733 49.2636 58.2649 49.2262 58.293C48.8905 58.5418 48.9901 59.1857 48.8019 59.4845C48.2598 60.3469 47.6357 61.1362 46.8339 61.7688C46.141 62.3154 45.3876 62.7464 44.5693 63.0626C44.2044 63.2037 43.8329 63.325 43.4686 63.4671C43.2308 63.4947 43.1406 63.6396 43.123 63.8744C43.1065 64.0891 43.0349 64.2975 43.0377 64.516C43.0388 64.5992 43.0305 64.6885 43.1334 64.7245C43.2655 64.77 43.418 64.7194 43.418 64.7194C43.6359 64.6424 45.0002 64.4205 46.0012 64.7851C46.2742 64.8846 46.5521 65.0391 46.726 65.1357C47.07 65.3267 47.283 65.4941 47.4134 65.5705C48.3412 66.1138 49.7066 66.4289 49.8932 66.4598C50.5729 66.5716 51.1617 66.6683 51.9096 66.4739C52.5772 66.3003 53.0417 65.9846 53.2992 65.7986C53.4891 65.661 53.9167 65.2913 54.62 64.4486C55.2667 63.6739 55.9535 62.6655 56.3965 61.1486C56.6618 60.2351 56.9931 59.0991 56.5066 58.0789Z" fill="#4D4D4D"/>
</g>
<mask id="mask3_1611_12739" style="mask-type:luminance" maskUnits="userSpaceOnUse" x="0" y="0" width="78" height="81">
<path d="M78 0.416504H0V80.0415H78V0.416504Z" fill="white"/>
</mask>
<g mask="url(#mask3_1611_12739)">
<path d="M25.4517 53.0324C25.1776 52.883 24.4908 52.5605 23.6873 52.7369C22.1057 53.0841 21.6423 55.0178 21.6104 55.1622C21.2224 56.8976 22.3621 58.2819 22.6725 58.6274C23.3533 59.3847 24.1436 59.7066 24.5668 59.8426L25.4517 53.0324Z" fill="#4D4D4D"/>
</g>
<mask id="mask4_1611_12739" style="mask-type:luminance" maskUnits="userSpaceOnUse" x="0" y="0" width="78" height="81">
<path d="M78 0.416504H0V80.0415H78V0.416504Z" fill="white"/>
</mask>
<g mask="url(#mask4_1611_12739)">
<path d="M44.8137 48.2492C45.0872 48.5801 46.8185 50.6885 47.8179 52.6155C48.7117 54.3385 49.9543 56.7335 49.3071 59.0116C48.6066 61.4779 46.0327 62.6032 43.1225 63.8751C39.5305 65.4459 36.5454 65.5341 33.7486 65.6172C30.3316 65.7183 27.9553 65.7537 26.236 64.0773C25.1337 63.0026 24.5938 61.5093 24.5063 61.2599C24.0358 59.9217 24.0798 58.8268 24.1134 57.5318C24.1585 55.7796 24.4942 54.4958 25.0919 52.2655C25.6417 50.2144 26.1793 48.6947 26.1793 48.6947L44.0592 47.3711C44.2457 47.5801 44.5088 47.8801 44.8137 48.2492Z" fill="white"/>
</g>
<mask id="mask5_1611_12739" style="mask-type:luminance" maskUnits="userSpaceOnUse" x="0" y="0" width="78" height="81">
<path d="M78 0.416504H0V80.0415H78V0.416504Z" fill="white"/>
</mask>
<g mask="url(#mask5_1611_12739)">
<path d="M36.9802 69.542C37.3473 69.5926 37.7083 69.6066 38.0644 69.5859C38.5349 69.5583 39.3835 69.5044 40.2795 68.9954C40.979 68.5982 41.3901 68.105 41.6702 67.7623C42.2007 67.1134 42.494 66.4763 42.6564 66.0437C42.1677 63.6078 41.264 62.2341 40.6135 61.4768C40.2602 61.0662 39.5674 60.3544 39.274 60.0527C38.4419 59.1982 37.7303 58.5167 37.2323 58.0516C37.0584 57.9892 36.8085 57.9133 36.5009 57.8684C36.5009 57.8684 35.7277 57.756 34.8438 57.9931C33.003 58.4875 31.9359 60.0532 31.9353 60.0532C30.6431 61.9488 30.7884 64.5561 31.8946 66.1061C32.0355 66.3033 32.1703 66.4533 32.2655 66.5521C32.4378 66.778 32.6155 66.9993 32.8241 67.1926C33.6584 67.9679 34.3843 68.4819 34.7222 68.6735C35.5879 69.1656 36.3914 69.4123 36.9802 69.542Z" fill="#4D4D4D"/>
</g>
<mask id="mask6_1611_12739" style="mask-type:luminance" maskUnits="userSpaceOnUse" x="0" y="0" width="78" height="81">
<path d="M78 0.416504H0V80.0415H78V0.416504Z" fill="white"/>
</mask>
<g mask="url(#mask6_1611_12739)">
<path d="M44.0479 15.8499C44.5558 15.5213 45.449 15.0376 46.6476 14.8617C47.1787 14.7837 49.3756 14.4505 51.2952 15.9814C51.4405 16.0971 53.5637 17.8455 53.534 20.5258C53.529 20.959 53.5142 22.3033 52.6045 23.4556C52.3601 23.7651 52.1108 23.9848 51.9259 24.1286C49.2997 21.3685 46.6735 18.6089 44.0479 15.8499Z" fill="#4D4D4D"/>
</g>
<mask id="mask7_1611_12739" style="mask-type:luminance" maskUnits="userSpaceOnUse" x="0" y="0" width="78" height="81">
<path d="M78 0.416504H0V80.0415H78V0.416504Z" fill="white"/>
</mask>
<g mask="url(#mask7_1611_12739)">
<path d="M48.7722 54.5979C48.2868 54.4367 47.5648 54.2069 46.6699 53.9592C46.1801 53.8238 45.9352 53.7552 45.6771 53.7019C44.9969 53.5603 44.0894 53.4429 42.9959 53.4929C41.0207 53.5839 40.5717 54.0159 38.6851 54.33C36.453 54.7013 34.7343 54.4878 33.0095 54.2732C29.6338 53.8535 28.0009 52.8075 27.406 52.4019C26.9795 52.1114 26.3521 51.6165 26.0417 50.7811C25.9553 50.5479 25.722 49.9193 25.9476 49.2929C25.9983 49.1513 26.2421 48.5389 27.2987 48.0732C40.0235 42.4602 44.675 47.2676 44.675 47.2676C45.7613 48.39 47.0271 50.512 47.8592 52.3103C48.2851 53.2294 48.579 54.026 48.7722 54.5979Z" fill="#D5D5D5"/>
</g>
<mask id="mask8_1611_12739" style="mask-type:luminance" maskUnits="userSpaceOnUse" x="0" y="0" width="78" height="81">
<path d="M78 0.416504H0V80.0415H78V0.416504Z" fill="white"/>
</mask>
<g mask="url(#mask8_1611_12739)">
<path d="M47.1714 47.883C46.8406 47.8605 46.2171 47.8712 45.6029 48.2414C45.4384 48.3409 45.3008 48.4498 45.1869 48.556C45.1841 48.5571 44.3047 48.9852 44.3047 48.9852C44.4291 49.0482 44.5545 49.1178 44.6811 49.1965C45.6189 49.7785 46.2094 50.5819 46.5759 51.2448C47.4339 53.147 48.5582 54.2235 49.2489 54.7757C49.9753 55.356 51.0177 56.1892 51.9417 55.8325C52.5063 55.6145 52.7661 55.0527 52.8162 54.9448C53.2779 53.9482 52.6896 52.8341 52.3335 52.1605C52.1343 51.783 51.7705 51.2021 51.1316 50.624C50.5257 50.0111 49.9759 49.5892 49.5763 49.3122C49.1322 49.0043 48.6909 48.7251 48.0376 48.3712C47.7481 48.2139 47.4361 48.0903 47.1714 47.883Z" fill="#4D4D4D"/>
</g>
<mask id="mask9_1611_12739" style="mask-type:luminance" maskUnits="userSpaceOnUse" x="0" y="0" width="78" height="81">
<path d="M78 0.416504H0V80.0415H78V0.416504Z" fill="white"/>
</mask>
<g mask="url(#mask9_1611_12739)">
<path d="M52.8824 24.1415C51.9375 22.4578 49.2436 17.8078 43.6781 15.2331C36.1005 11.7275 27.4509 14.0348 21.941 18.687C20.6251 19.7983 15.6226 24.0219 14.7751 31.2477C14.5307 33.3303 14.375 37.95 17.1228 42.4388C17.4767 43.0169 19.1992 45.7495 22.5926 47.9012C28.0838 51.3827 33.8898 50.7675 37.6882 50.3647C40.9071 50.0237 44.8426 49.5591 48.8903 46.7832C50.5903 45.6175 53.5791 43.5961 55.1168 39.795C57.8602 33.0112 53.9528 26.0477 52.8824 24.1415Z" fill="white"/>
</g>
<mask id="mask10_1611_12739" style="mask-type:luminance" maskUnits="userSpaceOnUse" x="0" y="0" width="78" height="81">
<path d="M78 0.416504H0V80.0415H78V0.416504Z" fill="white"/>
</mask>
<g mask="url(#mask10_1611_12739)">
<path d="M30.4759 49.5728L29.9712 49.6969V49.9329V51.2885C29.9712 51.2885 31.369 51.4565 33.2649 52.4846C32.2831 51.5548 31.3889 50.5846 30.4759 49.5728Z" fill="#7C9B5A"/>
</g>
<mask id="mask11_1611_12739" style="mask-type:luminance" maskUnits="userSpaceOnUse" x="0" y="0" width="78" height="81">
<path d="M78 0.416504H0V80.0415H78V0.416504Z" fill="white"/>
</mask>
<g mask="url(#mask11_1611_12739)">
<path d="M51.5678 44.3921L51.1953 44.4837C51.3235 45.9747 51.16 47.4854 51.0137 48.9792C50.7055 52.5432 49.0286 56.3169 45.5714 57.7494C42.7306 58.9376 39.5133 57.959 37.1172 56.0022C36.5503 55.5354 36.0418 55.059 35.5349 54.5775C36.1282 56.1202 35.2856 57.8326 35.2856 57.8326C36.2075 58.5534 37.9432 59.7118 40.3856 60.2185C41.6035 60.4714 44.4471 61.0618 47.196 59.618C51.7115 57.2466 52.2574 51.3359 52.3471 50.3606C52.5887 47.75 52.0092 45.6236 51.5678 44.3921Z" fill="#7C9B5A"/>
</g>
<mask id="mask12_1611_12739" style="mask-type:luminance" maskUnits="userSpaceOnUse" x="0" y="0" width="78" height="81">
<path d="M78 0.416504H0V80.0415H78V0.416504Z" fill="white"/>
</mask>
<g mask="url(#mask12_1611_12739)">
<path d="M50.2119 44.7251L44.3684 46.1605C44.4845 46.7459 44.3634 47.3976 43.7867 47.5105C43.8483 48.0245 43.6227 48.5431 43.1984 48.8448C42.7999 49.1279 42.3289 49.1099 41.9563 48.8588C41.9205 49.092 41.838 49.3144 41.6872 49.501C41.3416 49.9285 40.7384 49.9914 40.2469 49.833C39.7803 49.6824 39.3868 49.3538 39.1595 48.9195C38.8386 49.288 38.3461 49.4476 37.8673 49.2375C37.3483 49.0105 37.1051 48.4678 37.1887 47.9245L31.5049 49.3206V49.4622C31.9154 50.2386 32.5142 50.9178 33.1135 51.5639C34.3798 52.9965 35.6462 54.2892 37.3236 55.3375C37.5288 55.4774 37.7688 55.5122 38.0082 55.6869C40.3014 57.2942 42.937 58.2027 45.4696 57.1544C47.5576 56.2808 48.9951 54.3588 49.5085 52.1229C50.1161 49.6414 50.3764 47.1807 50.2119 44.7251Z" fill="#BC6C65"/>
</g>
<mask id="mask13_1611_12739" style="mask-type:luminance" maskUnits="userSpaceOnUse" x="0" y="0" width="78" height="81">
<path d="M78 0.416504H0V80.0415H78V0.416504Z" fill="white"/>
</mask>
<g mask="url(#mask13_1611_12739)">
<path d="M51.1957 44.4829L50.2117 44.7245C50.3763 47.1807 50.116 49.6414 49.5079 52.1228C48.9944 54.3588 47.5569 56.2807 45.469 57.1543C42.9363 58.2026 40.3008 57.2942 38.0075 55.6869C37.7681 55.5122 37.5282 55.4773 37.3229 55.3374C35.646 54.2891 34.3792 52.9964 33.1129 51.5638C32.5135 50.9178 31.9142 50.2385 31.5042 49.4621C31.4927 49.4408 31.4811 49.4194 31.4701 49.3975C31.4811 49.4194 31.4927 49.4402 31.5042 49.4621V49.3206L30.4751 49.5734C31.3881 50.5846 32.2824 51.5554 33.2642 52.4852C33.6153 52.6756 33.9829 52.8953 34.3621 53.1492C34.9735 53.5582 35.3351 54.0582 35.5349 54.5768C36.0417 55.0582 36.5502 55.5346 37.1171 56.0015C39.5132 57.9582 42.7305 58.9363 45.5713 57.7487C49.0285 56.3161 50.7054 52.5425 51.0136 48.9784C51.1605 47.4852 51.324 45.9739 51.1957 44.4829Z" fill="#D5D5D5"/>
</g>
<mask id="mask14_1611_12739" style="mask-type:luminance" maskUnits="userSpaceOnUse" x="0" y="0" width="78" height="81">
<path d="M78 0.416504H0V80.0415H78V0.416504Z" fill="white"/>
</mask>
<g mask="url(#mask14_1611_12739)">
<g opacity="0.55">
<mask id="mask15_1611_12739" style="mask-type:luminance" maskUnits="userSpaceOnUse" x="42" y="50" width="2" height="4">
<path d="M43.7371 50.6958H42.3833V53.1419H43.7371V50.6958Z" fill="white"/>
</mask>
<g mask="url(#mask15_1611_12739)">
<path d="M43.6654 51.994C43.4981 51.5344 43.1921 51.1232 42.8316 50.8035C42.8102 50.7844 42.787 50.7721 42.7639 50.7653C42.6792 50.6676 42.5003 50.6625 42.4761 50.8226C42.3963 51.3507 42.3314 51.9378 42.4387 52.467C42.5207 52.8715 42.8944 53.28 43.3291 53.0979C43.7589 52.917 43.8079 52.3861 43.6654 51.994Z" fill="#4D4D4D"/>
</g>
</g>
</g>
<mask id="mask16_1611_12739" style="mask-type:luminance" maskUnits="userSpaceOnUse" x="0" y="0" width="78" height="81">
<path d="M78 0.416504H0V80.0415H78V0.416504Z" fill="white"/>
</mask>
<g mask="url(#mask16_1611_12739)">
<g opacity="0.55">
<mask id="mask17_1611_12739" style="mask-type:luminance" maskUnits="userSpaceOnUse" x="38" y="50" width="2" height="4">
<path d="M39.7347 50.6958H38.3804V53.1419H39.7347V50.6958Z" fill="white"/>
</mask>
<g mask="url(#mask17_1611_12739)">
<path d="M39.6627 51.994C39.4954 51.5344 39.1894 51.1232 38.8289 50.8035C38.8075 50.7844 38.7844 50.7721 38.7612 50.7653C38.6759 50.6676 38.4976 50.6625 38.4734 50.8226C38.3936 51.3507 38.3292 51.9378 38.436 52.467C38.518 52.8715 38.8917 53.28 39.3264 53.0979C39.7568 52.917 39.8052 52.3861 39.6627 51.994Z" fill="#4D4D4D"/>
</g>
</g>
</g>
<mask id="mask18_1611_12739" style="mask-type:luminance" maskUnits="userSpaceOnUse" x="0" y="0" width="78" height="81">
<path d="M78 0.416504H0V80.0415H78V0.416504Z" fill="white"/>
</mask>
<g mask="url(#mask18_1611_12739)">
<g opacity="0.55">
<mask id="mask19_1611_12739" style="mask-type:luminance" maskUnits="userSpaceOnUse" x="45" y="48" width="3" height="3">
<path d="M47.079 48.3506H45.7246V50.7967H47.079V48.3506Z" fill="white"/>
</mask>
<g mask="url(#mask19_1611_12739)">
<path d="M47.0069 49.6488C46.8396 49.1892 46.5336 48.778 46.1731 48.4583C46.1517 48.4392 46.1285 48.4269 46.106 48.4201C46.0212 48.3224 45.8424 48.3173 45.8182 48.4774C45.7384 49.0055 45.674 49.5926 45.7807 50.1218C45.8627 50.5263 46.2364 50.9347 46.6712 50.7522C47.101 50.5718 47.1494 50.0415 47.0069 49.6488Z" fill="#4D4D4D"/>
</g>
</g>
</g>
<mask id="mask20_1611_12739" style="mask-type:luminance" maskUnits="userSpaceOnUse" x="0" y="0" width="78" height="81">
<path d="M78 0.416504H0V80.0415H78V0.416504Z" fill="white"/>
</mask>
<g mask="url(#mask20_1611_12739)">
<path d="M40.5466 57.4787C40.2049 57.3759 39.3717 57.136 38.413 57.4169C37.1043 57.8001 36.4318 58.899 36.0757 59.4799C35.3537 60.6585 35.2414 61.7613 35.1413 62.8686C35.0328 64.0653 34.8694 66.1788 36.0587 68.0507C36.3652 68.5333 36.707 69.0557 37.3619 69.3529C38.6992 69.9602 40.1526 69.0878 40.4283 68.9226C41.2841 68.4091 41.731 67.7248 42.0623 67.2046C43.2675 65.3125 43.2796 63.3495 43.2719 62.2248C43.2626 60.781 43.2548 59.6664 42.4607 58.7035C41.764 57.8585 40.8141 57.5591 40.5466 57.4787Z" fill="#3A3A3A"/>
</g>
<mask id="mask21_1611_12739" style="mask-type:luminance" maskUnits="userSpaceOnUse" x="0" y="0" width="78" height="81">
<path d="M78 0.416504H0V80.0415H78V0.416504Z" fill="white"/>
</mask>
<g mask="url(#mask21_1611_12739)">
<path d="M22.0117 19.7916C21.6567 19.3843 21.107 18.872 20.326 18.5484C17.7153 17.4675 13.8547 19.0495 12.4656 22.1416C11.4734 24.3506 11.5394 27.7827 13.7589 29.395C15.3791 30.5726 17.3509 30.2012 17.8737 30.0855C18.2997 28.4585 18.8765 26.6332 19.6673 24.6832C20.4185 22.8293 21.2275 21.1973 22.0117 19.7916Z" fill="#4D4D4D"/>
</g>
<mask id="mask22_1611_12739" style="mask-type:luminance" maskUnits="userSpaceOnUse" x="0" y="0" width="78" height="81">
<path d="M78 0.416504H0V80.0415H78V0.416504Z" fill="white"/>
</mask>
<g mask="url(#mask22_1611_12739)">
<path d="M49.8162 28.105C48.9588 27.7252 48.1289 27.6258 48.0606 27.6179C47.5373 27.5589 46.7338 27.4679 45.8521 27.8286C45.8521 27.8286 44.8709 28.2303 44.1824 29.182C42.8049 31.0865 43.5319 34.2786 44.7311 36.3011C45.2159 37.1185 46.6265 39.4966 49.3027 39.8472C49.6357 39.891 52.143 40.1781 53.6553 38.373C55.1148 36.6303 54.5408 34.2595 54.3168 33.3354C53.5392 30.1196 50.8156 28.5477 49.8162 28.105Z" fill="#4D4D4D"/>
</g>
<mask id="mask23_1611_12739" style="mask-type:luminance" maskUnits="userSpaceOnUse" x="0" y="0" width="78" height="81">
<path d="M78 0.416504H0V80.0415H78V0.416504Z" fill="white"/>
</mask>
<g mask="url(#mask23_1611_12739)">
<path d="M35.3876 29.7775C33.9495 29.3701 32.7564 29.664 32.0822 29.8392C28.712 30.7157 27.0571 33.6454 26.8904 33.9527C26.3582 34.9303 25.2427 36.9792 26.0005 39.2837C26.7269 41.4921 28.6817 42.4404 29.1473 42.6663C29.6008 42.8865 32.0327 43.9977 34.1108 42.8387C34.8207 42.4427 35.2461 41.8724 36.0683 40.7483C37.2725 39.1011 38.0275 38.1741 38.4557 36.7117C38.7518 35.7016 39.4171 33.428 38.1915 31.623C37.3071 30.3213 35.8845 29.9179 35.3876 29.7775Z" fill="#4D4D4D"/>
</g>
<mask id="mask24_1611_12739" style="mask-type:luminance" maskUnits="userSpaceOnUse" x="0" y="0" width="78" height="81">
<path d="M78 0.416504H0V80.0415H78V0.416504Z" fill="white"/>
</mask>
<g mask="url(#mask24_1611_12739)">
<path d="M35.2846 33.6729C34.6666 33.3718 34.0788 33.4959 33.8306 33.5482C32.4713 33.8347 31.8406 35.1134 31.779 35.2443C31.626 35.5679 31.2374 36.387 31.5627 37.3077C31.9749 38.4752 33.1801 38.8027 33.3194 38.8381C34.2797 39.0819 35.289 38.7268 35.9279 38.0139C36.7804 37.0622 36.7067 35.769 36.3809 34.96C36.2802 34.7117 36.0022 34.0223 35.2846 33.6729Z" fill="#D3D1CD"/>
</g>
<mask id="mask25_1611_12739" style="mask-type:luminance" maskUnits="userSpaceOnUse" x="0" y="0" width="78" height="81">
<path d="M78 0.416504H0V80.0415H78V0.416504Z" fill="white"/>
</mask>
<g mask="url(#mask25_1611_12739)">
<path d="M43.352 41.0092C43.7323 40.9597 44.0983 40.8631 44.4378 40.6749C44.8665 40.4372 45.2144 40.1052 45.4466 39.6721C45.5561 39.4676 45.6062 39.2704 45.5528 39.0811C45.3663 38.4193 43.789 38.2844 42.7373 38.3884C41.5733 38.5035 40.1216 39.0024 40.1023 39.5968C40.0963 39.7754 40.1986 39.9535 40.3632 40.1069C40.6609 40.3856 41.0181 40.5563 41.3802 40.7215C42.0158 40.9681 42.674 41.0586 43.352 41.0092Z" fill="#4D4D4D"/>
</g>
<mask id="mask26_1611_12739" style="mask-type:luminance" maskUnits="userSpaceOnUse" x="0" y="0" width="78" height="81">
<path d="M78 0.416504H0V80.0415H78V0.416504Z" fill="white"/>
</mask>
<g mask="url(#mask26_1611_12739)">
<path d="M41.5876 43.6545C41.8649 43.5916 42.1522 43.4989 42.7213 43.3163C43.0482 43.2113 43.1901 43.1607 43.4224 43.1365C43.708 43.1068 43.9479 43.1354 44.1086 43.1652C44.3772 43.2472 44.9925 43.3922 45.6832 43.1506C45.9016 43.0742 46.5263 42.8556 46.8163 42.2635C46.9352 42.0208 46.9742 41.7635 46.939 41.7478C46.8911 41.727 46.7591 42.1736 46.3546 42.5388C46.0376 42.8253 45.7024 42.9275 45.5747 42.9646C44.9941 43.1349 44.4994 42.9995 44.2958 42.9304C43.9623 42.8259 43.6876 42.6214 43.4262 42.3955C43.3662 42.3438 43.3222 42.2888 43.2529 42.395C42.8775 42.9702 42.3217 43.2686 41.6828 43.4141C40.4929 43.6849 39.3328 43.6231 38.2245 43.0511C37.9113 42.8893 37.6334 42.6759 37.3549 42.4624C36.9758 42.1719 36.7589 41.9242 36.6423 41.9938C36.5927 42.0236 36.5603 42.1101 36.5724 42.1792C36.5856 42.2551 36.6505 42.3017 36.6758 42.3197C37.7303 43.0568 37.8794 43.1225 37.8794 43.1225C38.5976 43.4377 38.9564 43.595 39.4297 43.6854C39.8788 43.7708 40.2778 43.7843 40.5986 43.7719C41.0213 43.7646 41.3564 43.7068 41.5876 43.6545Z" fill="#4D4D4D"/>
</g>
<mask id="mask27_1611_12739" style="mask-type:luminance" maskUnits="userSpaceOnUse" x="0" y="0" width="78" height="81">
<path d="M78 0.416504H0V80.0415H78V0.416504Z" fill="white"/>
</mask>
<g mask="url(#mask27_1611_12739)">
<path d="M53.9894 40.0306C53.8023 39.6469 53.3901 39.5188 53.2691 39.4811C52.8106 39.339 52.35 39.5171 51.4282 39.8733C50.8822 40.0845 50.6643 40.2205 50.4722 40.3935C50.2571 40.5873 50.0034 40.8154 49.9731 41.1716C49.9318 41.6626 50.3468 42.0199 50.4046 42.0682C50.601 42.189 50.9962 42.3957 51.5349 42.4351C52.2218 42.4845 52.7352 42.2317 52.9416 42.1143C53.1562 41.9924 53.6268 41.725 53.8865 41.1564C53.9834 40.9457 54.2019 40.4671 53.9894 40.0306Z" fill="#CC9897"/>
</g>
<mask id="mask28_1611_12739" style="mask-type:luminance" maskUnits="userSpaceOnUse" x="0" y="0" width="78" height="81">
<path d="M78 0.416504H0V80.0415H78V0.416504Z" fill="white"/>
</mask>
<g mask="url(#mask28_1611_12739)">
<path d="M32.3459 50.6043C31.9244 50.4465 31.4841 50.3954 31.0394 50.3701C30.6107 50.3055 30.1859 50.342 29.7632 50.4218C29.318 50.5055 28.542 50.6319 27.7952 51.165C27.4821 51.3886 27.2669 51.6285 26.9576 51.5847C26.6824 51.5459 26.4425 51.2999 26.3897 51.2459C26.2141 51.0661 26.0391 50.7785 26.0419 50.7824C26.0419 50.7824 25.9323 50.9976 25.9059 51.1128C25.8591 51.3161 25.8591 51.5285 25.7981 51.7302C25.732 52.2645 25.6946 53.0414 25.8619 53.9465C26.3385 56.519 28.0803 58.001 28.4622 58.3111C29.0747 58.8089 31.0686 60.4302 33.5093 59.8757C33.8555 59.7971 36.075 59.2931 36.7728 57.2808C37.1971 56.0572 36.8306 54.9336 36.6749 54.5268C36.4492 53.942 35.8818 52.71 34.6062 51.719C33.7454 51.0487 32.8924 50.7476 32.3459 50.6043Z" fill="#4D4D4D"/>
</g>
<mask id="mask29_1611_12739" style="mask-type:luminance" maskUnits="userSpaceOnUse" x="0" y="0" width="78" height="81">
<path d="M78 0.416504H0V80.0415H78V0.416504Z" fill="white"/>
</mask>
<g mask="url(#mask29_1611_12739)">
<path d="M42.5083 63.8489C42.4951 63.3843 42.4676 62.4321 41.729 61.859C40.9431 61.2489 39.9608 61.5422 39.8408 61.5804C39.0236 61.8388 38.6262 62.5186 38.3808 62.9388C38.0038 63.5843 37.9273 64.1765 37.8937 64.4596C37.82 65.0849 37.6962 66.1152 38.3357 66.7164C38.755 67.1102 39.3279 67.1765 39.4583 67.1866C39.7357 67.2085 39.9999 67.1855 40.2497 67.1214C40.9393 66.9456 41.368 66.5012 41.5595 66.2995C41.7208 66.1298 42.5479 65.2197 42.5083 63.8489Z" fill="#CEAFB0"/>
</g>
<mask id="mask30_1611_12739" style="mask-type:luminance" maskUnits="userSpaceOnUse" x="0" y="0" width="78" height="81">
<path d="M78 0.416504H0V80.0415H78V0.416504Z" fill="white"/>
</mask>
<g mask="url(#mask30_1611_12739)">
<path d="M32.0946 59.9943C32.5954 60.005 33.4479 59.9544 34.3867 59.5308C34.745 59.369 35.3685 59.0803 35.9513 58.4376C36.2375 58.1218 36.9194 57.369 37.0003 56.2033C37.057 55.3904 36.7944 54.7516 36.6354 54.4331C36.6706 54.6016 36.6998 54.8117 36.7025 55.0544C36.7047 55.3196 36.6739 55.5477 36.637 55.7263C36.6238 55.7325 36.6145 55.7404 36.604 55.7415C36.2463 55.7741 36.0933 55.5392 35.9623 55.2516C35.8886 55.0892 35.773 54.9471 35.6762 54.7954L35.3085 54.3673C35.2018 54.2111 35.0719 54.078 34.9118 53.9791C34.8545 53.9443 34.7912 53.9156 34.7241 53.9606C34.7356 54.1342 34.882 54.2072 34.9849 54.3055C35.1137 54.4291 35.2469 54.5465 35.3548 54.6904C35.713 55.1578 35.9783 55.6701 36.0972 56.2561C36.1296 56.4162 36.1346 56.5741 36.0961 56.7325C36.0829 56.787 36.0642 56.8477 35.9954 56.8449C35.9376 56.8426 35.9233 56.7847 35.9106 56.7398C35.7648 56.2151 35.3894 55.8684 35.0108 55.5241C34.7841 55.3353 34.548 55.16 34.3009 54.9993C34.2552 54.9696 34.2084 54.9409 34.1578 54.9196C34.1187 54.9033 34.073 54.8909 34.0461 54.9319C34.0191 54.9735 34.051 55.0128 34.0796 55.0415C34.1908 55.1544 34.319 55.2465 34.4401 55.3482C34.5716 55.4583 34.7059 55.5645 34.8353 55.6774C35.1088 55.9235 35.346 56.1965 35.4555 56.5623C35.5733 57.1656 35.5881 57.76 35.3014 58.3572C35.1203 57.8465 34.7874 57.4634 34.4825 57.0606C34.2172 56.7803 33.9432 56.5106 33.5998 56.3291C33.5634 56.31 33.5282 56.2881 33.4902 56.2729C33.4209 56.2465 33.3306 56.1971 33.2883 56.2797C33.2459 56.3606 33.3505 56.3819 33.3994 56.4207C33.4209 56.4376 33.4462 56.4488 33.4688 56.464C33.9327 56.7606 34.2431 57.1859 34.4555 57.6932C34.5524 57.9151 34.6625 58.1291 34.6817 58.3808C34.7043 58.6746 34.4814 58.7949 34.313 58.9409C34.1919 59.046 34.0538 58.9364 33.9344 58.8746C33.7748 58.7921 33.6471 58.664 33.5095 58.5494C33.1589 58.246 32.8788 57.8769 32.586 57.519C32.5365 57.4589 32.5029 57.3465 32.3835 57.3982C32.34 57.4988 32.3929 57.5831 32.4275 57.6707C32.5959 57.9977 32.755 58.3297 32.9294 58.6533C33.0032 58.7904 33.1215 58.9634 33.0158 59.0977C32.925 59.2134 32.7605 59.0887 32.6361 59.0516C31.919 58.837 31.2564 58.5218 30.7358 57.9499C30.6467 57.8522 30.5702 57.7465 30.4909 57.6421C30.4584 57.5988 30.4183 57.5381 30.3594 57.578C30.306 57.614 30.328 57.6814 30.3544 57.7308C30.5669 58.1258 30.6912 58.5718 31.0302 58.9263C30.4612 58.7634 29.6814 58.4848 28.8328 57.9881C27.8449 57.4106 27.1201 56.8656 27.1201 56.8656C27.1201 56.8656 27.5026 57.4628 27.8708 57.8213C28.1927 58.1353 28.4965 58.3572 28.7199 58.5044C29.0281 58.7578 29.4178 59.0342 29.8944 59.2842C30.7408 59.7297 31.5283 59.9134 32.0946 59.9943Z" fill="#3A3A3A"/>
</g>
<mask id="mask31_1611_12739" style="mask-type:luminance" maskUnits="userSpaceOnUse" x="0" y="0" width="78" height="81">
<path d="M78 0.416504H0V80.0415H78V0.416504Z" fill="white"/>
</mask>
<g mask="url(#mask31_1611_12739)">
<path d="M27.5952 44.741C27.6453 45.1989 27.8693 45.5067 28.0437 45.741C28.4267 46.2539 28.8857 46.4994 29.2242 46.6764C29.3403 46.7371 29.7976 46.9691 30.4844 47.1073C31.0986 47.2315 31.9296 47.3989 32.83 47.0275C33.1249 46.9056 33.6302 46.6893 33.9972 46.1483C34.0473 46.0741 34.5762 45.2691 34.3181 44.4062C34.2702 44.2461 34.1838 43.9764 33.9405 43.7843C33.6769 43.5764 33.3831 43.5809 32.9714 43.5747C32.4888 43.5668 32.0072 43.5247 31.5246 43.5152C30.2957 43.491 30.2318 43.2887 29.2363 43.3303C28.1197 43.3769 27.877 43.6449 27.7983 43.7461C27.5253 44.0994 27.5781 44.5871 27.5952 44.741Z" fill="#CC9897"/>
</g>
<mask id="mask32_1611_12739" style="mask-type:luminance" maskUnits="userSpaceOnUse" x="0" y="0" width="78" height="81">
<path d="M78 0.416504H0V80.0415H78V0.416504Z" fill="white"/>
</mask>
<g mask="url(#mask32_1611_12739)">
<path d="M38.4905 59.578C38.5285 59.8904 38.7811 60.0471 38.8174 60.069C39.0353 60.1994 39.3375 60.2084 39.5686 60.0342C39.8102 59.8522 39.8713 59.5477 39.8223 59.3123C39.8118 59.2623 39.7419 58.9533 39.458 58.8258C39.0992 58.6645 38.7596 58.9561 38.7409 58.9724C38.6886 59.019 38.4498 59.2443 38.4905 59.578Z" fill="#CEAFB0"/>
</g>
<mask id="mask33_1611_12739" style="mask-type:luminance" maskUnits="userSpaceOnUse" x="0" y="0" width="78" height="81">
<path d="M78 0.416504H0V80.0415H78V0.416504Z" fill="white"/>
</mask>
<g mask="url(#mask33_1611_12739)">
<path d="M41.2084 60.2628C41.2475 60.3842 41.3086 60.5735 41.4858 60.6465C41.6558 60.7167 41.8198 60.6325 41.8325 60.6257C42.0763 60.496 42.1352 60.1274 42.0735 59.8679C42.062 59.8184 41.9624 59.4218 41.6756 59.3808C41.4484 59.3482 41.275 59.5634 41.2607 59.5819C41.0686 59.8285 41.1737 60.1561 41.2084 60.2628Z" fill="#CEAFB0"/>
</g>
<mask id="mask34_1611_12739" style="mask-type:luminance" maskUnits="userSpaceOnUse" x="0" y="0" width="78" height="81">
<path d="M78 0.416504H0V80.0415H78V0.416504Z" fill="white"/>
</mask>
<g mask="url(#mask34_1611_12739)">
<path d="M38.0705 61.2122C38.0286 61.0993 37.9499 60.8931 37.7491 60.7926C37.6478 60.7414 37.5196 60.7263 37.3517 60.7628C37.0292 60.8324 36.7249 61.1774 36.7166 61.515C36.7034 62.0645 37.0815 62.4476 37.5757 62.3864C37.9301 62.3426 38.1046 61.91 38.1305 61.624C38.1481 61.4263 38.093 61.2729 38.0705 61.2122Z" fill="#CEAFB0"/>
</g>
<mask id="mask35_1611_12739" style="mask-type:luminance" maskUnits="userSpaceOnUse" x="0" y="0" width="78" height="81">
<path d="M78 0.416504H0V80.0415H78V0.416504Z" fill="white"/>
</mask>
<g mask="url(#mask35_1611_12739)">
<path d="M47.3586 36.8212C47.4687 36.8459 48.9491 37.1589 49.7245 36.2774C50.6435 35.233 49.9738 33.1937 48.7675 32.4133C48.7174 32.3808 47.522 31.6341 46.4544 32.2167C45.925 32.5055 45.6845 32.9802 45.5942 33.165C45.193 33.9841 45.2734 35.0341 45.8182 35.8049C46.3482 36.5549 47.1236 36.7667 47.3586 36.8212Z" fill="#D3D1CD"/>
</g>
<mask id="mask36_1611_12739" style="mask-type:luminance" maskUnits="userSpaceOnUse" x="0" y="0" width="78" height="81">
<path d="M78 0.416504H0V80.0415H78V0.416504Z" fill="white"/>
</mask>
<g mask="url(#mask36_1611_12739)">
<path d="M45.6745 33.4503C45.6013 33.6379 45.3361 34.3486 45.6234 35.1671C45.6729 35.3087 45.8897 35.8817 46.4527 36.2851C47.5016 37.0362 49.2457 36.8351 49.802 35.9149C50.0134 35.5654 50.0172 35.1744 50.0178 34.9166C50.0189 34.3705 49.8285 33.8469 49.4955 33.3458C49.249 32.9744 48.9529 32.7076 48.6287 32.5295C48.49 32.4531 47.3542 31.8283 46.4307 32.4205C45.9585 32.7233 45.773 33.198 45.6745 33.4503Z" fill="#111618"/>
</g>
<mask id="mask37_1611_12739" style="mask-type:luminance" maskUnits="userSpaceOnUse" x="0" y="0" width="78" height="81">
<path d="M78 0.416504H0V80.0415H78V0.416504Z" fill="white"/>
</mask>
<g mask="url(#mask37_1611_12739)">
<path d="M36.2752 35.2475C36.1222 34.8132 35.9169 34.4166 35.5587 34.1126C35.0909 33.7154 34.5686 33.7076 34.376 33.7003C33.3903 33.6626 32.6947 34.33 32.5087 34.525C31.9551 35.1036 31.2875 36.3261 31.8582 37.4688C32.299 38.3514 33.2847 38.798 34.185 38.711C35.3996 38.5935 36.0072 37.5486 36.0809 37.416C36.6423 36.4115 36.3275 35.4059 36.2752 35.2475Z" fill="#111618"/>
</g>
<mask id="mask38_1611_12739" style="mask-type:luminance" maskUnits="userSpaceOnUse" x="0" y="0" width="78" height="81">
<path d="M78 0.416504H0V80.0415H78V0.416504Z" fill="white"/>
</mask>
<g mask="url(#mask38_1611_12739)">
<path d="M47.1989 33.695C47.3612 33.6821 47.4927 33.5023 47.4746 33.3186C47.4575 33.1501 47.3095 33.0006 47.168 33.0102C47.0062 33.0209 46.872 33.1962 46.8819 33.3832C46.8918 33.5608 47.0409 33.7074 47.1989 33.695Z" fill="white"/>
</g>
<mask id="mask39_1611_12739" style="mask-type:luminance" maskUnits="userSpaceOnUse" x="0" y="0" width="78" height="81">
<path d="M78 0.416504H0V80.0415H78V0.416504Z" fill="white"/>
</mask>
<g mask="url(#mask39_1611_12739)">
<path d="M55.1441 56.7566C53.9059 56.205 52.7573 56.8432 52.5845 56.9426C52.0612 57.2454 51.7788 57.6353 51.4415 58.1117C50.7712 59.0589 50.4872 59.9932 50.3485 60.5724C49.8323 62.7263 49.9 65.9123 51.1173 66.3898C51.4861 66.5342 51.9836 66.4404 52.103 66.4179C52.5757 66.3286 52.9444 66.1022 53.426 65.6977C54.4463 64.8404 55.0577 63.9522 55.1353 63.8376C56.0472 62.4937 56.3796 61.2746 56.4512 61.001C56.7379 59.9038 56.9344 59.151 56.5976 58.2982C56.5299 58.1252 56.1452 57.2027 55.1441 56.7566Z" fill="#3A3A3A"/>
</g>
<mask id="mask40_1611_12739" style="mask-type:luminance" maskUnits="userSpaceOnUse" x="0" y="0" width="78" height="81">
<path d="M78 0.416504H0V80.0415H78V0.416504Z" fill="white"/>
</mask>
<g mask="url(#mask40_1611_12739)">
<path d="M53.0974 60.7464C52.0044 60.6997 51.3539 61.9868 51.1706 62.3492C50.6451 63.3891 50.4618 65.0245 51.2119 65.5256C51.6434 65.8138 52.2284 65.6228 52.536 65.5222C53.6367 65.1627 54.1171 64.1183 54.2795 63.7649C54.5409 63.1958 54.8601 62.502 54.5436 61.7823C54.296 61.22 53.717 60.7728 53.0974 60.7464Z" fill="#CEAFB0"/>
</g>
<mask id="mask41_1611_12739" style="mask-type:luminance" maskUnits="userSpaceOnUse" x="0" y="0" width="78" height="81">
<path d="M78 0.416504H0V80.0415H78V0.416504Z" fill="white"/>
</mask>
<g mask="url(#mask41_1611_12739)">
<path d="M56.2513 59.3213C56.3228 59.132 56.2106 58.8966 56.0543 58.7736C55.8567 58.618 55.5127 58.5837 55.3372 58.805C55.1754 59.009 55.2376 59.3264 55.4087 59.4848C55.6608 59.7185 56.1451 59.6017 56.2513 59.3213Z" fill="#CEAFB0"/>
</g>
<mask id="mask42_1611_12739" style="mask-type:luminance" maskUnits="userSpaceOnUse" x="0" y="0" width="78" height="81">
<path d="M78 0.416504H0V80.0415H78V0.416504Z" fill="white"/>
</mask>
<g mask="url(#mask42_1611_12739)">
<path d="M54.2202 57.983C54.2202 58.1437 54.3253 58.3263 54.5014 58.3926C54.7007 58.4679 54.9087 58.3634 55.0132 58.2257C55.1954 57.9858 55.1068 57.5892 54.9059 57.4881C54.6638 57.3662 54.2202 57.6533 54.2202 57.983Z" fill="#CEAFB0"/>
</g>
<mask id="mask43_1611_12739" style="mask-type:luminance" maskUnits="userSpaceOnUse" x="0" y="0" width="78" height="81">
<path d="M78 0.416504H0V80.0415H78V0.416504Z" fill="white"/>
</mask>
<g mask="url(#mask43_1611_12739)">
<path d="M53.3506 57.155C53.1498 57.0876 52.9346 57.2814 52.8421 57.4005C52.6864 57.6011 52.6044 57.9449 52.753 58.0983C52.9285 58.2797 53.415 58.1853 53.5653 57.8668C53.6853 57.6112 53.5796 57.232 53.3506 57.155Z" fill="#CEAFB0"/>
</g>
<mask id="mask44_1611_12739" style="mask-type:luminance" maskUnits="userSpaceOnUse" x="0" y="0" width="78" height="81">
<path d="M78 0.416504H0V80.0415H78V0.416504Z" fill="white"/>
</mask>
<g mask="url(#mask44_1611_12739)">
<path d="M33.8174 35.129C33.7927 34.9234 33.6644 34.8133 33.4746 34.834C33.2247 34.8616 33.0117 35.0807 33.031 35.2897C33.0475 35.4683 33.2786 35.6093 33.5048 35.579C33.7239 35.5498 33.8466 35.3728 33.8174 35.129Z" fill="#F4F7FB"/>
</g>
</g>
</g>
<defs>
<clipPath id="clip0_1611_12739">
<rect width="78" height="79.625" fill="white" transform="translate(0 0.416504)"/>
</clipPath>
</defs>
</svg>
