<svg width="676" height="702" viewBox="0 0 676 702" fill="none" xmlns="http://www.w3.org/2000/svg">
<path opacity="0.15" d="M224.782 678.349C213.017 629.916 219.166 578.858 224.53 529.998C229.487 484.892 238.643 445.169 187.44 426.186C154.318 413.908 121.235 401.54 88.1769 389.046C64.7321 380.182 35.4777 378.197 14.6124 363.502C-56.7916 313.233 160.178 278.81 183.365 274.463C275.803 257.095 248.873 103.255 248.02 35.6201C247.237 -25.6612 287.156 5.30938 307.383 35.7309C340.478 85.4656 373.691 135.122 406.968 184.734C411.356 191.28 416.187 198.176 423.51 201.078C430.371 203.789 438.083 202.455 445.311 200.96C510.836 187.378 572.541 161.654 636.722 143.637C655.428 138.394 676.563 142.07 675.353 164.8C673.286 203.581 613.04 237.625 588.019 261.663C561.633 287.011 523.238 328.618 533.085 368.817C535.716 379.57 541.915 389.043 548.031 398.273C582.206 449.855 617.429 500.765 652.131 551.992C656.709 558.757 661.492 566.247 660.78 574.38C657.208 615.257 455.491 525.959 431.056 516.364C425.525 514.197 419.813 511.987 413.872 512.1C402.458 512.306 392.961 520.94 386.227 530.169C370.015 552.392 354.72 576.709 336.685 597.48C314.697 622.801 291.411 649.289 273.207 677.401C266.855 687.211 259 697.157 247.775 700.356C235.769 703.78 228.692 694.426 224.782 678.349Z" fill="#BDCCC7"/>
</svg>
