<svg width="1920" height="558" viewBox="0 0 1920 558" fill="none" xmlns="http://www.w3.org/2000/svg">
<path d="M556.241 22.7575C362.889 -12.2574 151.751 14.9337 94.0988 22.5587C36.4468 30.1837 0.00053184 56.3984 0.00053184 56.3984V64.6998L0.00041357 309.005C0.00041357 309.005 -0.000264686 481.257 0.000115986 498.394C0.000496659 515.531 154.808 520.87 255.032 510.168C640.162 469.046 706.235 566.666 996.137 557.372C1200.55 550.819 1312.53 509.473 1517.01 505.394C1674.59 502.251 1866.13 573.557 1920.24 522.052L1921 296.374V70.6969H1920.76C1905.98 46.3913 1768.87 0.634465 1580.64 26.3716C1392.41 52.1088 1221.48 -6.6743 991.175 0.63439C773.861 7.53065 749.593 57.7723 556.241 22.7575Z" fill="#89A767"/>
</svg>
