<svg width="248" height="185" viewBox="0 0 248 185" fill="none" xmlns="http://www.w3.org/2000/svg">
<path d="M77.6119 128.14C75.8403 121.186 77.1524 130.777 76.9252 126.583C76.818 124.612 77.2469 122.016 76.8333 120.127C76.0547 116.568 74.8626 125.626 76.9839 119.267C77.6221 117.354 78.4492 115.065 78.7888 113.086C77.5481 120.293 77.7932 114.927 79.1104 112.19C80.3077 109.701 81.3977 107.22 82.766 104.802C83.8612 102.865 85.1248 101.045 86.2863 99.1479C83.4195 103.827 84.4611 101.065 87.2181 98.1651C89.5411 95.7246 99.5762 87.7727 92.8496 92.166C95.216 90.619 97.6003 89.1103 99.9897 87.6016C100.71 87.1472 107.158 83.5401 102.657 85.8938C97.7943 88.4313 106.012 84.7578 107.212 84.4055C109.346 83.7801 111.63 83.4993 113.731 82.8075C106.122 85.3118 111.168 82.8381 114.479 83.0296C117.308 83.193 120.08 83.0883 122.921 83.3895C119.154 82.9887 117.926 82.3505 122.143 83.7418C124.777 84.6098 127.601 85.6436 130.279 86.2487C134.907 87.2927 126.09 83.124 129.722 86.1414C131.721 87.8059 134.751 89.0389 137.079 90.3408C140.671 92.3498 139.9 92.1788 136.972 89.8251C139.198 91.6121 141.325 93.5165 143.382 95.4923C145.46 97.4912 147.377 99.5998 149.343 101.708C152.166 104.739 151.37 104.529 149.315 101.417C152.554 106.321 155.541 111.172 158.377 116.323C160.409 120.012 159.855 119.504 158.482 115.935C159.534 118.664 160.514 121.413 161.377 124.211C164.596 134.657 166.163 145.678 168.588 156.323C177.076 193.632 237.039 194.548 244.96 156.323C260.407 81.7838 193.077 2.18002 117.849 0.735139C80.9203 0.0254616 45.3752 19.7764 23.1557 48.5362C-1.71107 80.7219 -6.15038 119.302 11.3439 156.078C18.9998 172.178 41.3827 177.611 56.6177 170.915C73.1981 163.626 82.1763 146.05 77.6119 128.14Z" fill="white"/>
</svg>
