<svg width="1920" height="613" viewBox="0 0 1920 613" fill="none" xmlns="http://www.w3.org/2000/svg">
<path d="M1223.77 87.8398C1388.83 97.6026 1473.62 -6.24543 1638.7 3.1838C1753.89 9.7631 1926 72.3487 1926 72.3487V81.3426L1926 346.024C1926 346.024 1926 532.643 1926 551.209C1926 569.776 1587.72 599.064 1369.42 607.223C1091.8 617.6 936.387 569.042 658.684 576.84C491.015 581.549 230.239 607.223 230.239 607.223C230.239 607.223 55.0105 632.641 0.763062 576.84L0 332.34V36.5328L0.239868 51.6231C15.0609 25.2902 229.498 97.3972 375.89 87.8414C585.045 74.1887 697.424 -18.1521 905.941 3.18547C1033.69 16.2576 1095.59 80.2582 1223.77 87.8398Z" fill="#99B1B8"/>
</svg>
