<svg width="243" height="600" viewBox="0 0 243 600" fill="none" xmlns="http://www.w3.org/2000/svg">
<g opacity="0.1">
<path d="M109.736 93.9287C109.736 93.9287 115.244 65.5684 115.244 46.9643C115.244 28.3601 109.736 -0.000183105 109.736 -0.000183105H152.108C152.108 -0.000183105 146.599 28.3601 146.599 46.9643C146.599 65.5684 152.108 93.9287 152.108 93.9287H109.736Z" fill="#89A767"/>
<path d="M109.736 195.144C109.736 195.144 115.244 166.784 115.244 148.179C115.244 129.575 109.736 101.216 109.736 101.216H152.108C152.108 101.216 146.599 129.575 146.599 148.179C146.599 166.784 152.108 195.144 152.108 195.144H109.736Z" fill="#89A767"/>
<path d="M109.736 296.356C109.736 296.356 115.244 267.997 115.244 249.393C115.244 230.788 109.736 202.429 109.736 202.429H152.108C152.108 202.429 146.599 230.788 146.599 249.393C146.599 267.997 152.108 296.356 152.108 296.356H109.736Z" fill="#89A767"/>
<path d="M109.736 397.571C109.736 397.571 115.244 369.211 115.244 350.607C115.244 332.003 109.736 303.644 109.736 303.644H152.108C152.108 303.644 146.599 332.003 146.599 350.607C146.599 369.211 152.108 397.571 152.108 397.571H109.736Z" fill="#89A767"/>
<path d="M109.736 498.786C109.736 498.786 115.244 470.427 115.244 451.822C115.244 433.217 109.736 404.858 109.736 404.858H152.108C152.108 404.858 146.599 433.217 146.599 451.822C146.599 470.427 152.108 498.786 152.108 498.786H109.736Z" fill="#89A767"/>
<path d="M109.736 600C109.736 600 115.244 571.64 115.244 553.036C115.244 534.431 109.736 506.072 109.736 506.072H152.108C152.108 506.072 146.599 534.431 146.599 553.036C146.599 571.64 152.108 600 152.108 600H109.736Z" fill="#89A767"/>
<path d="M10.1172 154.681C10.1172 154.681 29.0492 217.434 58.3492 246.611C70.2745 258.487 92.6078 271.393 97.5652 267.795C102.524 264.199 93.6439 235.569 82.2398 218.233C70.8358 200.898 10.1172 154.681 10.1172 154.681Z" fill="#89A767"/>
<path d="M10.1172 380.11C10.1172 380.11 29.0492 442.862 58.3492 472.039C70.2745 483.915 92.6078 496.82 97.5652 493.223C102.524 489.625 93.6439 460.997 82.2398 443.66C70.8358 426.324 10.1172 380.11 10.1172 380.11Z" fill="#89A767"/>
<path d="M242.126 470.138C242.126 470.138 211.261 503.243 191.782 524.007C184.1 532.194 171.082 536.902 167.762 534.492C164.442 532.083 166.805 521.969 173.652 510.031C190.228 481.127 242.126 470.138 242.126 470.138Z" fill="#89A767"/>
<path d="M0 259.478C0 259.478 41.1747 282.107 67.1133 296.266C77.3413 301.85 91.372 302.623 93.6507 299.399C95.9293 296.176 90.0467 287.26 79.2587 277.887C53.1387 255.193 0 259.478 0 259.478Z" fill="#89A767"/>
<path d="M234.518 121.372C234.518 121.372 204.837 155.317 186.101 176.612C178.713 185.01 165.867 190.075 162.463 187.759C159.061 185.442 161.066 175.268 167.486 163.146C183.034 133.796 234.518 121.372 234.518 121.372Z" fill="#89A767"/>
<path d="M237.223 327.614C237.223 327.614 207.542 361.56 188.806 382.855C181.416 391.252 168.572 396.319 165.168 394.001C161.764 391.685 163.77 381.511 170.191 369.39C185.738 340.039 237.223 327.614 237.223 327.614Z" fill="#89A767"/>
<path d="M204.33 261.604C204.33 261.604 212.237 293.039 196.458 319.406C190.236 329.804 176.129 339.433 171.129 338.741C166.129 338.051 163.834 328.231 168.836 314.922C173.837 301.613 204.33 261.604 204.33 261.604Z" fill="#89A767"/>
<path d="M196.393 431.903C196.393 431.903 202.27 455.549 190.109 475.469C185.313 483.323 174.509 490.628 170.698 490.127C166.889 489.626 165.186 482.239 169.065 472.196C172.944 462.153 196.393 431.903 196.393 431.903Z" fill="#89A767"/>
<path d="M58.5518 31.9352C58.5518 31.9352 83.6824 41.4099 94.9238 61.7485C99.3571 69.769 99.7984 81.8116 97.1278 84.2719C94.4571 86.7334 86.6838 83.676 79.7091 75.049C72.7344 66.4208 58.5518 31.9352 58.5518 31.9352Z" fill="#89A767"/>
<path d="M183.837 82.9125C183.837 82.9125 193.158 105.672 184.046 126.833C180.453 135.177 170.821 143.675 166.97 143.621C163.119 143.568 160.339 136.441 162.699 126.035C165.059 115.627 183.837 82.9125 183.837 82.9125Z" fill="#89A767"/>
</g>
</svg>
