<svg width="168" height="168" viewBox="0 0 168 168" fill="none" xmlns="http://www.w3.org/2000/svg">
<g clip-path="url(#clip0_1422_98024)">
<mask id="mask0_1422_98024" style="mask-type:luminance" maskUnits="userSpaceOnUse" x="0" y="0" width="168" height="168">
<path d="M168 0H0V168H168V0Z" fill="white"/>
</mask>
<g mask="url(#mask0_1422_98024)">
<path d="M59.4569 34.8384C58.5406 32.4488 56.9025 30.666 56.9025 30.666C53.9676 27.4739 50.2041 26.7437 48.8114 26.4936C44.6022 25.7374 41.2892 26.9298 39.1876 27.6861C37.7403 28.2076 35.2025 29.1488 32.6303 31.4329C29.9633 33.8024 28.7128 36.3248 28.0312 37.7354C27.2655 39.319 25.9048 42.2147 25.9024 46.1666C25.9012 47.4753 25.9225 49.6788 27.0095 52.213C28.3418 55.3186 30.4801 57.0694 31.8634 58.1741C34.8125 60.5305 37.7131 61.3757 39.3571 61.8356C39.8704 61.979 42.6654 62.7447 44.6378 62.6867C53.753 62.4235 62.9951 44.0757 59.4569 34.8384Z" fill="#4D4D4D"/>
</g>
<mask id="mask1_1422_98024" style="mask-type:luminance" maskUnits="userSpaceOnUse" x="0" y="0" width="168" height="168">
<path d="M168 0H0V168H168V0Z" fill="white"/>
</mask>
<g mask="url(#mask1_1422_98024)">
<path d="M128.503 118.237C127.663 118.237 126.812 118.182 125.973 118.071C122.024 117.555 117.903 115.638 113.372 112.211C108.453 108.49 105.471 104.659 104.256 100.499C104.194 100.288 104.224 100.077 104.34 99.9015C104.467 99.6834 104.693 99.5542 104.953 99.5542C105.085 99.5589 105.181 99.5613 105.277 99.5613C108.51 99.5613 111.515 97.1657 113.771 95.0783C116.324 92.716 118.575 90.0253 120.461 87.0809C121.863 84.8892 123.232 82.3893 124.645 79.4378C124.9 78.9044 125.149 78.3675 125.396 77.8293C126.329 75.8071 127.294 73.7174 128.64 71.8659C130.465 69.353 132.341 67.8452 134.375 67.2573C135.146 67.0345 135.875 66.9219 136.542 66.9219C137.795 66.9219 138.784 67.3154 139.482 68.0906C141.062 69.8461 141.029 72.4337 140.788 74.7332C140.489 77.5816 139.702 80.5426 138.447 83.5308C137.688 85.3372 136.751 87.4471 135.549 89.3935C134.929 90.3974 134.214 91.4014 133.348 92.4801C134.026 92.2869 134.687 92.1897 135.328 92.1897C135.782 92.1897 136.23 92.2395 136.661 92.3367C138.471 92.748 139.932 93.9523 140.571 95.5596C141.25 97.2688 140.978 99.2436 139.858 100.715C139.037 101.792 137.897 102.653 136.457 103.284C138.368 103.759 139.69 104.574 140.478 105.757C142.432 108.692 140.211 112.967 138.094 114.933C135.801 117.064 132.395 118.237 128.503 118.237Z" fill="#BDCCC7"/>
</g>
<mask id="mask2_1422_98024" style="mask-type:luminance" maskUnits="userSpaceOnUse" x="0" y="0" width="168" height="168">
<path d="M168 0H0V168H168V0Z" fill="white"/>
</mask>
<g mask="url(#mask2_1422_98024)">
<path d="M44.8244 119.602C45.6518 119.602 46.4886 119.547 47.3136 119.439C51.198 118.931 55.2542 117.045 59.711 113.674C64.552 110.014 67.4857 106.244 68.6817 102.15C68.7421 101.943 68.7125 101.735 68.5987 101.562C68.4742 101.348 68.2514 101.221 67.9965 101.221C67.8662 101.225 67.7725 101.228 67.6789 101.228C64.4974 101.228 61.5412 98.8702 59.3211 96.8172C56.8082 94.4927 54.5939 91.8447 52.7389 88.9477C51.3592 86.7916 50.0126 84.332 48.6222 81.4279C48.3709 80.904 48.1268 80.3742 47.8826 79.8443C46.9639 77.8553 46.0145 75.7988 44.6917 73.9769C42.8959 71.5043 41.0491 70.0215 39.0471 69.443C38.2897 69.2237 37.5713 69.1123 36.9147 69.1123C35.6819 69.1123 34.7088 69.4987 34.0213 70.2621C32.4661 71.9891 32.4993 74.5352 32.7364 76.798C33.0303 79.6013 33.8043 82.5137 35.0395 85.4545C35.7862 87.2325 36.7084 89.3081 37.8902 91.2224C38.5006 92.2109 39.2024 93.1971 40.0558 94.2604C39.3896 94.0707 38.7377 93.9747 38.1059 93.9747C37.6591 93.9747 37.2181 94.0233 36.7949 94.1193C35.0146 94.5235 33.5756 95.7089 32.9473 97.2913C32.2788 98.9721 32.5479 100.916 33.6491 102.363C34.4563 103.423 35.5788 104.271 36.9953 104.892C35.1153 105.358 33.8138 106.16 33.0386 107.324C31.116 110.211 33.3018 114.418 35.3844 116.351C37.6436 118.447 40.9958 119.602 44.8244 119.602Z" fill="#BDCCC7"/>
</g>
<mask id="mask3_1422_98024" style="mask-type:luminance" maskUnits="userSpaceOnUse" x="0" y="0" width="168" height="168">
<path d="M168 0H0V168H168V0Z" fill="white"/>
</mask>
<g mask="url(#mask3_1422_98024)">
<path d="M47.3901 116.227C47.9982 116.227 48.6146 116.187 49.2203 116.107C52.0769 115.734 55.0592 114.347 58.3367 111.867C61.8963 109.175 64.0536 106.404 64.9331 103.393C64.9781 103.24 64.9568 103.087 64.8726 102.961C64.7814 102.803 64.6178 102.709 64.4293 102.709C64.3345 102.713 64.2646 102.714 64.1958 102.714C61.856 102.714 59.6821 100.98 58.0498 99.471C56.2019 97.7617 54.5733 95.8142 53.2101 93.6842C52.1955 92.0982 51.2045 90.2906 50.1828 88.1546C49.9979 87.7694 49.8189 87.3794 49.6387 86.9906C48.9631 85.5279 48.2649 84.0154 47.2929 82.676C45.9725 80.8577 44.6141 79.7672 43.1419 79.3416C42.5848 79.1804 42.0573 79.0986 41.5737 79.0986C40.6681 79.0986 39.9521 79.3831 39.446 79.9438C38.3021 81.2145 38.3259 83.0861 38.5013 84.7503C38.717 86.8116 39.2872 88.9535 40.1951 91.1156C40.7439 92.423 41.422 93.9497 42.292 95.3567C42.74 96.0833 43.2569 96.8087 43.8839 97.5899C43.3932 97.45 42.9143 97.3789 42.4508 97.3789C42.1225 97.3789 41.7977 97.4144 41.4871 97.4856C40.1774 97.7831 39.12 98.6543 38.6578 99.8171C38.1658 101.053 38.3638 102.483 39.1734 103.546C39.7672 104.326 40.5922 104.948 41.6341 105.406C40.252 105.75 39.2943 106.339 38.7253 107.195C37.3112 109.319 38.9185 112.411 40.45 113.834C42.1094 115.378 44.5738 116.227 47.3901 116.227Z" fill="#E8EDEC"/>
</g>
<mask id="mask4_1422_98024" style="mask-type:luminance" maskUnits="userSpaceOnUse" x="0" y="0" width="168" height="168">
<path d="M168 0H0V168H168V0Z" fill="white"/>
</mask>
<g mask="url(#mask4_1422_98024)">
<path d="M125.897 114.807C125.279 114.807 124.653 114.767 124.036 114.685C121.133 114.305 118.102 112.895 114.771 110.376C111.154 107.641 108.961 104.823 108.067 101.764C108.022 101.609 108.043 101.453 108.129 101.324C108.221 101.164 108.388 101.069 108.579 101.069C108.676 101.073 108.746 101.074 108.817 101.074C111.195 101.074 113.405 99.3125 115.064 97.7775C116.942 96.0398 118.596 94.0615 119.983 91.8959C121.014 90.285 122.021 88.4465 123.059 86.2762C123.246 85.8838 123.429 85.4891 123.611 85.0932C124.298 83.6068 125.008 82.0694 125.996 80.7087C127.338 78.8607 128.719 77.7524 130.215 77.3198C130.782 77.1562 131.317 77.0732 131.809 77.0732C132.73 77.0732 133.458 77.3625 133.971 77.9326C135.134 79.2234 135.109 81.1259 134.931 82.8174C134.712 84.9119 134.132 87.0893 133.21 89.2869C132.652 90.6157 131.963 92.1673 131.079 93.598C130.623 94.3365 130.098 95.0738 129.461 95.8679C129.959 95.7257 130.446 95.6546 130.918 95.6546C131.251 95.6546 131.582 95.6913 131.898 95.7624C133.229 96.0647 134.304 96.9501 134.774 98.1331C135.274 99.3896 135.072 100.842 134.249 101.924C133.645 102.716 132.807 103.35 131.748 103.813C133.152 104.162 134.125 104.762 134.704 105.632C136.14 107.79 134.507 110.934 132.951 112.378C131.264 113.945 128.758 114.807 125.897 114.807Z" fill="#E8EDEC"/>
</g>
<mask id="mask5_1422_98024" style="mask-type:luminance" maskUnits="userSpaceOnUse" x="0" y="0" width="168" height="168">
<path d="M168 0H0V168H168V0Z" fill="white"/>
</mask>
<g mask="url(#mask5_1422_98024)">
<path d="M103.802 29.4084C104.134 27.1065 105.229 25.1981 105.229 25.1981C107.19 21.7808 110.378 20.3785 111.561 19.8771C115.138 18.3623 118.314 18.7546 120.328 19.0023C121.715 19.1742 124.153 19.499 126.891 21.0067C129.73 22.5714 131.344 24.5556 132.231 25.6687C133.227 26.918 135.014 29.2116 135.81 32.7119C136.073 33.8712 136.497 35.8282 136.042 38.2925C135.485 41.3115 133.94 43.2922 132.936 44.5487C130.796 47.2287 128.395 48.5587 127.03 49.2972C126.604 49.5271 124.28 50.7658 122.522 51.1107C114.391 52.7074 102.519 38.3032 103.802 29.4084Z" fill="#4D4D4D"/>
</g>
<mask id="mask6_1422_98024" style="mask-type:luminance" maskUnits="userSpaceOnUse" x="0" y="0" width="168" height="168">
<path d="M168 0H0V168H168V0Z" fill="white"/>
</mask>
<g mask="url(#mask6_1422_98024)">
<path d="M107.144 31.9044C108.269 28.7633 112.371 27.6585 113.118 27.4582C118.075 26.1235 122.038 29.1272 122.846 29.7779C123.702 30.4666 126.151 32.4366 126.672 35.8136C127.065 38.3526 126.163 40.3641 125.762 41.2555C125.297 42.2915 124.538 43.9853 122.73 45.0356C122.73 45.0356 121.575 45.7065 120.14 45.8594C115.284 46.3785 105.011 37.8595 107.144 31.9044Z" fill="#99B1B8"/>
</g>
<mask id="mask7_1422_98024" style="mask-type:luminance" maskUnits="userSpaceOnUse" x="0" y="0" width="168" height="168">
<path d="M168 0H0V168H168V0Z" fill="white"/>
</mask>
<g mask="url(#mask7_1422_98024)">
<path d="M56.4756 38.3302C54.5044 35.2318 49.833 35.0433 48.9808 35.0089C43.335 34.7814 39.811 38.9691 39.1022 39.8629C38.3507 40.81 36.2005 43.5208 36.4624 47.2724C36.6592 50.0935 38.116 52.0327 38.762 52.8933C39.5123 53.8925 40.7391 55.5259 42.9344 56.2146C42.9344 56.2146 44.3366 56.6544 45.9155 56.4706C51.2566 55.846 60.213 44.2048 56.4756 38.3302Z" fill="#99B1B8"/>
</g>
<mask id="mask8_1422_98024" style="mask-type:luminance" maskUnits="userSpaceOnUse" x="0" y="0" width="168" height="168">
<path d="M168 0H0V168H168V0Z" fill="white"/>
</mask>
<g mask="url(#mask8_1422_98024)">
<path d="M87.4222 137.125C87.5123 137.651 87.8703 139.611 89.1078 142.282C90.4626 145.206 91.303 147.019 93.3228 148.332C93.9262 148.724 95.8381 149.968 98.2823 149.622C100.197 149.35 101.454 148.244 102.2 147.588C103.677 146.288 104.354 144.892 104.977 143.57C105.798 141.83 106.13 140.122 106.762 136.776C107.285 134.01 107.539 132.614 107.209 132.064C106.365 130.659 104.311 130.887 96.9926 130.974C90.2066 131.053 88.3243 130.899 87.421 132.313C86.7739 133.328 86.9896 134.594 87.4222 137.125Z" fill="#4D4D4D"/>
</g>
<mask id="mask9_1422_98024" style="mask-type:luminance" maskUnits="userSpaceOnUse" x="0" y="0" width="168" height="168">
<path d="M168 0H0V168H168V0Z" fill="white"/>
</mask>
<g mask="url(#mask9_1422_98024)">
<path d="M86.6183 136.706C86.5282 137.232 86.1702 139.193 84.9316 141.863C83.5767 144.787 82.7363 146.6 80.7165 147.913C80.1132 148.305 78.2012 149.549 75.7571 149.203C73.8428 148.931 72.5851 147.825 71.8395 147.17C70.3626 145.871 69.6858 144.474 69.0623 143.153C68.2409 141.413 67.909 139.705 67.2772 136.358C66.7544 133.592 66.5008 132.198 66.8303 131.647C67.6743 130.241 69.7284 130.47 77.0467 130.555C83.8328 130.634 85.7151 130.48 86.6183 131.894C87.2667 132.91 87.0509 134.175 86.6183 136.706Z" fill="#4D4D4D"/>
</g>
<mask id="mask10_1422_98024" style="mask-type:luminance" maskUnits="userSpaceOnUse" x="0" y="0" width="168" height="168">
<path d="M168 0H0V168H168V0Z" fill="white"/>
</mask>
<g mask="url(#mask10_1422_98024)">
<path d="M127.266 110.697C126.741 111.149 125.911 111.762 124.776 112.207C122.426 113.126 120.307 112.723 118.4 112.36C117.885 112.261 115.691 111.82 113.16 110.462C112.168 109.93 111.473 109.429 110.082 108.429C108.73 107.457 107.16 106.318 105.865 104.893C104.769 103.689 104.106 102.54 103.943 102.41C103.927 102.397 103.831 102.325 103.82 102.218C103.818 102.191 103.821 102.16 103.834 102.127C104.353 101.785 104.978 101.816 105.547 101.689C107.885 101.165 110.176 100.471 112.499 99.8922C114.629 99.3624 116.766 99.3387 118.918 99.7286C121.018 100.109 123.05 100.683 124.919 101.754C125.211 101.886 127.586 103.016 128.255 105.773C128.892 108.401 127.471 110.416 127.266 110.697Z" fill="#4D4D4D"/>
</g>
<mask id="mask11_1422_98024" style="mask-type:luminance" maskUnits="userSpaceOnUse" x="0" y="0" width="168" height="168">
<path d="M168 0H0V168H168V0Z" fill="white"/>
</mask>
<g mask="url(#mask11_1422_98024)">
<path d="M49.2175 108.744C49.4072 107.894 49.7829 106.754 50.5593 105.589C51.3748 104.367 52.2733 103.646 52.834 103.217C53.6056 102.625 54.4709 102.204 55.3125 101.737C55.9799 101.587 56.5595 101.196 57.2541 101.099C58.3671 100.942 59.4458 101.068 60.5078 101.378C61.8982 101.785 63.1986 102.452 64.5795 102.874C65.7245 103.225 66.8494 103.62 67.9707 104.032C68.2836 104.147 68.612 104.235 68.7945 104.555C68.7827 104.785 68.5966 104.898 68.4591 105.036C67.0687 106.436 65.7304 107.898 64.2096 109.151C63.131 110.04 62.1318 111.034 60.9298 111.771C59.9685 112.44 58.3221 113.401 56.0865 113.836C54.1699 114.21 51.9959 114.633 50.5024 113.308C48.8299 111.827 49.1583 109.174 49.2175 108.744Z" fill="#4D4D4D"/>
</g>
<mask id="mask12_1422_98024" style="mask-type:luminance" maskUnits="userSpaceOnUse" x="0" y="0" width="168" height="168">
<path d="M168 0H0V168H168V0Z" fill="white"/>
</mask>
<g mask="url(#mask12_1422_98024)">
<path d="M117.793 113.715C117.793 113.715 118.264 114.16 118.903 114.667C120.807 116.175 122.562 116.528 123.693 118.134C125.065 120.082 124.556 122.505 124.502 122.737C124.297 123.644 123.911 124.248 123.803 124.412C123.571 124.763 122.907 125.72 121.624 126.186C121.072 126.387 120.458 126.465 119.775 126.398C118.8 125.935 118.4 124.958 117.74 124.095C117.905 124.76 118.167 125.294 118.458 125.808C119.315 127.318 118.794 129.675 117.309 131.064C116.091 132.203 113.833 132.463 112.373 131.607C111.658 131.188 111.217 130.496 110.722 129.863C110.562 129.658 110.438 129.421 110.163 129.237C109.945 130.291 109.586 131.276 109.439 132.316C109.293 133.354 109.066 134.363 108.369 135.196C106.737 137.202 103.818 136.924 102.129 135.357C101.807 135.059 101.507 134.736 101.208 134.413C101.019 134.207 100.899 134.172 100.81 134.49C100.598 135.246 100.221 135.926 99.7965 136.579C98.591 138.433 96.845 139.229 94.6699 139.148C92.4296 139.066 90.8223 137.984 89.7792 136.022C89.3075 134.83 88.7539 133.678 88.1292 132.53C87.1063 134.055 86.644 135.831 85.5108 137.234C85.3188 137.472 85.1208 137.707 84.9265 137.942C84.7854 138.317 84.4523 138.5 84.1429 138.684C83.0228 139.354 81.8268 139.562 80.5111 139.44C78.3004 139.234 76.7571 137.976 75.3644 136.43C74.9696 135.993 74.7373 135.223 74.7373 135.223C74.6247 134.985 74.537 134.789 74.4836 134.667C72.9937 136.257 70.8233 138.158 69.0738 137.598C66.4909 136.77 64.8255 131.085 64.8255 131.085C64.5837 131.166 64.1001 133.064 62.2379 134.456C61.9499 134.672 60.2821 135.919 58.2706 135.415C56.7498 135.035 55.555 133.783 55.1627 132.505C54.877 131.574 54.9458 130.749 54.832 130.753C52.6924 130.839 52.0215 130.833 50.6655 129.96C48.7986 128.757 49.5667 124.615 49.6402 124.24C50.4628 120.036 54.0034 117.682 55.0904 117.018C58.9972 113.197 60.2691 111.833 61.4438 110.816C61.5907 110.689 67.0172 105.273 67.9193 104.399C68.276 104.053 71.0995 105.239 71.5416 105.334C73.4951 105.752 74.8772 105.982 76.0056 106.13C77.3391 106.306 78.5683 106.496 80.2242 106.583C81.3136 106.641 82.2405 106.627 84.0932 106.597C87.149 106.549 87.1786 106.442 89.7472 106.418C90.2131 106.414 91.0309 106.41 92.1475 106.332C92.2732 106.324 93.1871 106.251 94.178 106.13C95.4605 105.975 98.1015 105.314 99.3686 105.062C101.745 104.592 102.678 103.962 104.989 103.228" fill="#CEAFB0"/>
</g>
<mask id="mask13_1422_98024" style="mask-type:luminance" maskUnits="userSpaceOnUse" x="0" y="0" width="168" height="168">
<path d="M168 0H0V168H168V0Z" fill="white"/>
</mask>
<g mask="url(#mask13_1422_98024)">
<path d="M71.6611 26.3558C56.4544 30.9656 48.7367 43.3761 46.4775 47.4394C40.1976 58.7333 40.6504 69.2697 40.7677 71.305C41.339 81.2499 45.3135 88.2719 46.7702 90.7777C49.18 94.9228 51.3172 96.9734 51.8945 97.5127C52.6388 98.2085 55.4516 100.752 63.1682 103.808C65.8553 104.872 70.7057 106.793 76.4914 107.761C90.7118 110.14 102.067 105.876 105.921 104.394C109.101 103.17 113.463 101.452 118.22 97.6585C120.549 95.8011 124.267 92.7785 127.151 87.7029C132.565 78.1716 131.1 68.3274 130.519 64.4229C129.683 58.8044 127.918 54.7837 126.859 52.4166C125.065 48.409 121.354 40.3736 112.803 33.8223C102.888 26.2266 92.4827 25.2369 88.2546 24.8908C84.8314 24.611 78.8454 24.1784 71.6611 26.3558Z" fill="#FDFDFD"/>
</g>
<mask id="mask14_1422_98024" style="mask-type:luminance" maskUnits="userSpaceOnUse" x="0" y="0" width="168" height="168">
<path d="M168 0H0V168H168V0Z" fill="white"/>
</mask>
<g mask="url(#mask14_1422_98024)">
<path d="M110.861 82.8732C110.326 82.7073 109.892 82.5022 109.726 82.4204C109.173 82.1501 108.431 81.7282 107.724 81.0217C107.724 81.0217 106.886 80.0829 106.608 78.7838C106.105 76.4368 107.774 73.6845 109.853 72.3202C112.4 70.65 115.786 70.9179 116.491 70.9736C117.641 71.0649 118.57 71.2901 119.949 70.9238C121.021 70.6394 121.967 70.1498 122.681 69.2727C123.583 68.2438 123.912 67.0075 123.986 65.6787C123.995 65.5187 123.997 65.3575 124.003 65.1963C124.345 65.9027 124.855 66.5333 125.067 67.2943C125.219 67.836 125.247 68.4145 125.314 68.9787C125.456 70.1771 125.351 71.3861 125.103 72.5406C124.842 73.7509 124.487 74.9552 123.858 76.0694C122.981 77.6233 121.708 78.8146 120.466 80.0402C119.627 80.8664 118.748 81.35 118.299 81.6298C117.72 81.9913 117.259 82.2782 116.655 82.5389C116.459 82.6243 113.715 83.7622 110.861 82.8732Z" fill="#CEAFB0"/>
</g>
<mask id="mask15_1422_98024" style="mask-type:luminance" maskUnits="userSpaceOnUse" x="0" y="0" width="168" height="168">
<path d="M168 0H0V168H168V0Z" fill="white"/>
</mask>
<g mask="url(#mask15_1422_98024)">
<path d="M58.5104 79.8974C58.6787 79.805 58.847 79.7576 58.847 79.7576C59.2002 79.6592 59.4705 79.7505 59.7277 79.7457C59.9814 79.741 60.3097 79.7161 60.7625 79.6355C61.0932 79.53 61.6088 79.3569 62.2299 79.1128C63.6192 78.5675 64.0601 78.2332 65.0036 77.963C65.6947 77.765 66.3857 77.5908 67.1123 77.6145C67.4229 77.5647 67.7323 77.5647 68.0428 77.6145C69.1108 77.6358 70.1326 77.8942 71.1425 78.2214C71.568 78.3589 71.9805 78.5426 72.4286 78.6078C72.8707 78.8935 73.3259 79.1578 73.7514 79.4719C74.7672 80.2222 75.4298 81.2369 75.7309 82.4187C75.9526 83.2922 75.987 84.2547 75.7238 85.1354C75.4844 85.9344 75.0588 86.4322 74.7364 86.8234C73.6424 88.1509 72.3065 88.6843 71.8098 88.8574C71.1212 89.0968 70.5771 89.1146 69.4961 89.232C68.2372 89.3683 66.9654 89.2723 65.7267 89.1277C64.8661 89.0269 63.9937 88.7673 63.1367 88.5362C62.3331 88.3181 61.5484 88.0277 60.7471 87.8167C59.6175 87.5192 59.0947 87.2359 58.5898 86.8791C58.2674 86.6515 57.5016 86.1098 57.0619 85.1639C55.9631 82.8015 57.971 80.195 58.5104 79.8974Z" fill="#CEAFB0"/>
</g>
<mask id="mask16_1422_98024" style="mask-type:luminance" maskUnits="userSpaceOnUse" x="0" y="0" width="168" height="168">
<path d="M168 0H0V168H168V0Z" fill="white"/>
</mask>
<g mask="url(#mask16_1422_98024)">
<path d="M114.923 56.3873C114.903 56.4193 114.881 56.4513 114.861 56.4845C114.507 56.0056 114.087 55.5753 113.786 55.0561C114.676 54.8724 115.309 54.2833 115.924 53.6776C116.204 53.4014 116.471 53.1003 116.527 52.6819C116.638 52.542 116.713 52.3026 116.955 52.4294C117.171 52.5432 117.237 52.7459 117.156 52.9913C116.925 53.6954 116.441 54.2217 115.926 54.7183C115.644 54.9898 115.344 55.2636 115.006 55.4532C114.63 55.6642 114.561 55.874 114.816 56.2083C114.858 56.2628 114.887 56.328 114.923 56.3873Z" fill="#4D4D4D"/>
</g>
<mask id="mask17_1422_98024" style="mask-type:luminance" maskUnits="userSpaceOnUse" x="0" y="0" width="168" height="168">
<path d="M168 0H0V168H168V0Z" fill="white"/>
</mask>
<g mask="url(#mask17_1422_98024)">
<path d="M116.26 57.6936C115.732 57.8122 115.343 57.4992 115.273 56.9018C115.391 57.082 115.492 57.1555 115.755 57.0737C117.463 56.5427 118.763 55.5446 119.549 53.916C119.587 53.8365 119.628 53.7595 119.672 53.6836C119.685 53.6599 119.715 53.6469 119.759 53.6113C120.029 53.8899 120.008 54.2075 119.892 54.5347C119.633 55.2589 119.166 55.8409 118.597 56.334C117.907 56.9338 117.139 57.4139 116.26 57.6936Z" fill="#4D4D4D"/>
</g>
<mask id="mask18_1422_98024" style="mask-type:luminance" maskUnits="userSpaceOnUse" x="0" y="0" width="168" height="168">
<path d="M168 0H0V168H168V0Z" fill="white"/>
</mask>
<g mask="url(#mask18_1422_98024)">
<path d="M65.3426 57.5967C65.543 57.7733 65.3414 57.8658 65.2466 57.9333C63.1984 59.3972 62.0166 61.5095 60.9213 63.6869C60.7044 64.1184 60.5029 64.557 60.2848 64.9872C60.2149 65.1259 60.1568 65.2919 59.9612 65.3132C58.7747 65.2018 57.6024 65.0335 56.5214 64.4811C56.0994 64.2654 55.7082 64.0093 55.4083 63.6371C55.1973 63.374 55.1156 63.0682 55.1487 62.7351C55.2246 62.7126 55.2649 62.7529 55.3005 62.8003C56.455 64.3199 58.0896 64.6731 59.8676 64.6838C60.0714 64.685 60.2042 64.5973 60.2848 64.423C60.465 64.0378 60.8312 63.6099 60.7613 63.2744C60.689 62.9271 60.0809 62.9449 59.6992 62.8311C58.8648 62.5834 58.0504 62.3013 57.4033 61.6813C57.2622 61.5462 56.973 61.4004 57.1057 61.2084C57.2646 60.9796 57.5064 61.2001 57.6711 61.3222C58.6016 62.0121 59.6744 62.3226 60.7826 62.5715C61.1205 62.6474 61.2497 62.5407 61.3884 62.2811C61.9976 61.1373 62.7385 60.0847 63.6026 59.1163C64.1206 58.5343 64.6954 58.0258 65.3426 57.5967Z" fill="#4D4D4D"/>
</g>
<mask id="mask19_1422_98024" style="mask-type:luminance" maskUnits="userSpaceOnUse" x="0" y="0" width="168" height="168">
<path d="M168 0H0V168H168V0Z" fill="white"/>
</mask>
<g mask="url(#mask19_1422_98024)">
<path d="M65.0929 57.5963C65.573 57.2395 66.0874 56.9372 66.0874 56.9372C66.3991 56.7547 66.7524 56.5674 67.1471 56.3896C68.0159 56.1122 68.8943 55.8835 69.8117 55.8527C72.276 55.7697 74.3243 56.7227 76.0644 58.4071C77.4453 59.7429 78.3307 61.3917 78.9246 63.1934C79.2991 64.3302 80.1893 66.9035 79.5848 70.149C79.4639 70.7986 79.0478 72.7413 77.7274 74.76C77.0743 75.7592 76.4614 76.3756 76.2896 76.5451C75.6649 77.1614 74.7415 78.0718 73.5455 78.4629C71.6087 79.0959 70.9484 77.7162 68.2056 77.9343C67.4481 77.9947 67.4446 78.1038 64.7171 78.8434C63.0589 79.2927 61.6922 79.6234 60.783 79.8356C60.2176 79.9031 58.986 79.9707 57.6146 79.3757C56.1294 78.7296 55.3471 77.6759 55.1503 77.4163C53.9863 75.8777 53.8784 74.2123 54.7117 72.4936C55.2333 71.4185 55.9717 70.4821 56.7683 69.6014C58.065 68.1683 58.7549 66.9024 59.7127 65.314C61.109 62.9979 60.9561 62.6269 62.3512 60.5573C62.35 60.5561 63.5982 58.7069 65.0929 57.5963Z" fill="#4D4D4D"/>
</g>
<mask id="mask20_1422_98024" style="mask-type:luminance" maskUnits="userSpaceOnUse" x="0" y="0" width="168" height="168">
<path d="M168 0H0V168H168V0Z" fill="white"/>
</mask>
<g mask="url(#mask20_1422_98024)">
<path d="M107.922 73.2042C106.394 73.3594 105.179 72.8711 104.421 72.557C102.152 71.6158 100.886 70.0038 100.366 69.3364C99.6448 68.4119 99.0711 67.3522 98.6551 66.1431C97.6155 63.1253 97.2694 60.0564 98.1928 56.9935C99.2015 53.6485 101.378 51.3312 104.897 50.5346C107.021 50.0534 108.963 50.6389 110.766 51.7685C111.197 52.0376 111.661 52.3849 111.661 52.3849C111.924 52.5829 112.697 53.1708 113.377 53.9531C114.032 54.7058 114.01 54.9559 114.599 55.794C114.76 56.0239 115.989 57.7367 117.933 58.9149C118.317 59.1485 118.918 59.4875 119.769 60.1074C119.843 60.1607 120.241 60.4594 120.687 60.8411C122.294 62.2161 123.413 63.1739 123.881 64.2833C124.735 66.3055 123.357 68.6774 122.907 69.3921C122.527 69.858 121.936 70.4257 121.088 70.811C120.522 71.0682 120.031 71.1571 119.762 71.2057C118.854 71.3693 118.14 71.2827 117.919 71.2614C116.359 71.1026 113.293 71.3053 110.75 72.1895C109.206 72.7229 109.079 73.0868 107.922 73.2042Z" fill="#4D4D4D"/>
</g>
<mask id="mask21_1422_98024" style="mask-type:luminance" maskUnits="userSpaceOnUse" x="0" y="0" width="168" height="168">
<path d="M168 0H0V168H168V0Z" fill="white"/>
</mask>
<g mask="url(#mask21_1422_98024)">
<path d="M93.3321 68.908C93.1792 69.1711 93.0239 69.4331 92.8758 69.6986C92.5534 70.2806 92.0259 70.6137 91.4308 70.8389C90.5276 71.1814 89.5995 71.3059 88.6358 71.102C87.9957 70.9669 87.5252 70.6077 87.1304 70.1111C86.8981 69.8195 86.9064 69.5267 87.0901 69.2161C87.2751 68.9044 87.5346 68.9506 87.8179 69.0336C87.9507 69.0727 88.0917 69.1225 88.2767 69.0336C87.8179 68.6839 87.3912 68.339 87.0605 67.8886C86.7926 67.5235 86.7914 67.2212 87.0546 66.8241C88.087 65.2642 90.6758 65.1338 91.8955 66.0797C92.2025 66.318 92.4336 66.6072 92.6114 66.9498C92.7477 67.2129 92.7454 67.4429 92.519 67.6515C92.4822 67.7961 92.3898 67.9063 92.3021 68.0225C92.0674 68.3331 92.1492 68.5571 92.5261 68.6555C92.711 68.7041 92.9018 68.6744 93.0891 68.6816C93.2254 68.6887 93.4163 68.6567 93.3321 68.908Z" fill="#4D4D4D"/>
</g>
<mask id="mask22_1422_98024" style="mask-type:luminance" maskUnits="userSpaceOnUse" x="0" y="0" width="168" height="168">
<path d="M168 0H0V168H168V0Z" fill="white"/>
</mask>
<g mask="url(#mask22_1422_98024)">
<path d="M89.9792 78.7865C87.8136 78.5791 85.8684 77.9426 84.4223 76.2191C84.2528 76.0164 84.0833 75.8149 83.9233 75.6051C83.7989 75.4415 83.557 75.2874 83.7811 75.0492C83.9364 74.8844 84.3643 74.9852 84.5065 75.2163C84.8171 75.7213 85.2296 76.1361 85.648 76.5474C86.8096 77.6901 88.2569 78.1559 89.8334 78.2034C91.8295 78.2638 93.521 77.5028 94.8651 76.0318C95.4874 75.3503 95.9236 74.5549 95.8762 73.577C95.8668 73.3921 95.8869 73.2119 96.1323 73.1965C96.3551 73.1823 96.4985 73.2961 96.5543 73.5047C96.6123 73.7192 96.6052 73.9326 96.5412 74.1531C95.798 76.7039 93.9904 78.0445 91.4929 78.5886C90.9938 78.6976 90.4782 78.7237 89.9792 78.7865Z" fill="#4D4D4D"/>
</g>
<mask id="mask23_1422_98024" style="mask-type:luminance" maskUnits="userSpaceOnUse" x="0" y="0" width="168" height="168">
<path d="M168 0H0V168H168V0Z" fill="white"/>
</mask>
<g mask="url(#mask23_1422_98024)">
<path d="M62.0391 75.3164C62.4338 75.2903 62.7491 75.3982 63.0549 75.5464C63.2149 75.6234 63.3726 75.6898 63.5539 75.7052C63.7957 75.7253 63.9012 75.6673 63.8621 75.3875C63.5598 73.2681 64.5615 71.4024 66.4853 70.2728C68.6331 69.0116 71.4103 69.5189 73.0864 71.4949C73.4373 71.9086 73.7703 72.3376 74.1058 72.7644C74.3168 73.0334 74.4507 73.344 74.523 73.6771C74.5764 73.9248 74.459 74.0931 74.2456 74.22C74.037 74.3444 73.8687 74.2757 73.7336 74.1263C73.4278 73.7909 73.1421 73.4365 72.8434 73.0951C72.0516 72.1907 71.1875 71.3574 69.9903 71.0456C68.5928 70.6817 67.424 71.2329 66.4165 72.1575C65.7397 72.7786 65.2039 73.5135 64.9882 74.4345C64.9514 74.5898 64.9408 74.7534 64.9384 74.9134C64.923 75.9458 64.2805 76.4365 63.2801 76.1781C62.8368 76.062 62.4018 75.7668 62.0391 75.3164Z" fill="#FDFDFD"/>
</g>
<mask id="mask24_1422_98024" style="mask-type:luminance" maskUnits="userSpaceOnUse" x="0" y="0" width="168" height="168">
<path d="M168 0H0V168H168V0Z" fill="white"/>
</mask>
<g mask="url(#mask24_1422_98024)">
<path d="M115.575 68.9747C115.274 68.9948 114.961 69.1039 114.731 69.009C114.463 68.8988 114.564 68.5136 114.466 68.2575C113.691 66.2235 111.378 64.8829 109.333 65.2764C108.278 65.4791 107.679 66.2116 107.158 67.0509C106.794 67.6388 106.528 68.2741 106.263 68.9118C106.089 69.3315 105.897 69.744 105.602 70.0996C105.352 70.3994 105.195 70.384 105.053 70.0118C104.871 69.5377 104.803 69.0316 104.891 68.5396C105.319 66.1476 107.471 63.5387 110.502 63.5352C112.284 63.5328 113.624 64.4099 114.621 65.8454C115.24 66.7356 115.842 67.6376 116.45 68.5361C116.521 68.6416 116.641 68.7542 116.575 68.8893C116.502 69.0339 116.339 68.9676 116.213 68.9723C115.993 68.9818 115.772 68.9747 115.575 68.9747Z" fill="#FDFDFD"/>
</g>
<mask id="mask25_1422_98024" style="mask-type:luminance" maskUnits="userSpaceOnUse" x="0" y="0" width="168" height="168">
<path d="M168 0H0V168H168V0Z" fill="white"/>
</mask>
<g mask="url(#mask25_1422_98024)">
<path d="M102.419 118.588C102.085 118.586 101.849 118.461 101.846 118.087C101.842 117.671 102.221 117.257 102.592 117.257C102.905 117.257 103.152 117.521 103.156 117.859C103.161 118.311 102.877 118.593 102.419 118.588Z" fill="#FBF3F6"/>
</g>
<mask id="mask26_1422_98024" style="mask-type:luminance" maskUnits="userSpaceOnUse" x="0" y="0" width="168" height="168">
<path d="M168 0H0V168H168V0Z" fill="white"/>
</mask>
<g mask="url(#mask26_1422_98024)">
<path d="M109.878 125.094C109.846 125.303 109.741 125.442 109.51 125.441C109.316 125.44 109.149 125.376 109.15 125.151C109.153 124.911 109.291 124.769 109.537 124.772C109.735 124.775 109.871 124.868 109.878 125.094Z" fill="#FBF3F6"/>
</g>
<mask id="mask27_1422_98024" style="mask-type:luminance" maskUnits="userSpaceOnUse" x="0" y="0" width="168" height="168">
<path d="M168 0H0V168H168V0Z" fill="white"/>
</mask>
<g mask="url(#mask27_1422_98024)">
<path d="M108.467 119.77C108.46 119.245 108.689 118.861 108.992 118.854C109.312 118.845 109.573 119.248 109.565 119.753C109.562 119.868 109.561 119.993 109.521 120.097C109.409 120.387 109.208 120.621 108.877 120.588C108.555 120.556 108.505 120.267 108.481 119.996C108.474 119.909 108.471 119.821 108.467 119.77Z" fill="#FBF3F6"/>
</g>
<mask id="mask28_1422_98024" style="mask-type:luminance" maskUnits="userSpaceOnUse" x="0" y="0" width="168" height="168">
<path d="M168 0H0V168H168V0Z" fill="white"/>
</mask>
<g mask="url(#mask28_1422_98024)">
<path d="M78.6185 113.223C79.2171 113.139 79.805 113.149 80.3621 113.425C80.5968 113.955 80.6383 114.498 80.464 115.053C80.2898 115.607 79.9212 115.953 79.3463 116.046C78.7631 116.139 78.3695 115.841 78.0685 115.377C77.7508 114.89 77.7354 114.394 78.0045 113.881C78.1372 113.629 78.3648 113.46 78.5426 113.248C78.5699 113.245 78.5948 113.236 78.6185 113.223Z" fill="#FBF3F6"/>
</g>
<mask id="mask29_1422_98024" style="mask-type:luminance" maskUnits="userSpaceOnUse" x="0" y="0" width="168" height="168">
<path d="M168 0H0V168H168V0Z" fill="white"/>
</mask>
<g mask="url(#mask29_1422_98024)">
<path d="M93.7789 113.712C93.7718 114.53 93.217 115.118 92.4655 115.106C91.6951 115.094 90.8606 114.294 90.8843 113.59C90.9092 112.862 91.554 112.292 92.3399 112.304C93.2538 112.319 93.7872 112.841 93.7789 113.712Z" fill="#FBF3F6"/>
</g>
<mask id="mask30_1422_98024" style="mask-type:luminance" maskUnits="userSpaceOnUse" x="0" y="0" width="168" height="168">
<path d="M168 0H0V168H168V0Z" fill="white"/>
</mask>
<g mask="url(#mask30_1422_98024)">
<path d="M68.6985 121.66C68.695 122.566 68.4117 122.85 67.5215 122.845C66.8186 122.84 66.4014 122.426 66.4014 121.732C66.4014 120.989 66.8909 120.27 67.3923 120.285C68.0205 120.304 68.8301 120.805 68.6985 121.66Z" fill="#FBF3F6"/>
</g>
<mask id="mask31_1422_98024" style="mask-type:luminance" maskUnits="userSpaceOnUse" x="0" y="0" width="168" height="168">
<path d="M168 0H0V168H168V0Z" fill="white"/>
</mask>
<g mask="url(#mask31_1422_98024)">
<path d="M59.439 120.531C58.7112 120.543 58.1861 120.083 58.1778 119.427C58.1695 118.727 58.6437 118.247 59.3501 118.236C60.0886 118.226 60.7085 118.734 60.7311 119.371C60.7559 120.082 60.2723 120.517 59.439 120.531Z" fill="#FBF3F6"/>
</g>
<mask id="mask32_1422_98024" style="mask-type:luminance" maskUnits="userSpaceOnUse" x="0" y="0" width="168" height="168">
<path d="M168 0H0V168H168V0Z" fill="white"/>
</mask>
<g mask="url(#mask32_1422_98024)">
<path d="M91.0908 126.545C91.092 125.836 91.495 125.439 92.2074 125.442C93.017 125.446 93.5777 125.947 93.5753 126.662C93.5729 127.277 93.036 127.736 92.3271 127.729C91.5934 127.721 91.0885 127.237 91.0908 126.545Z" fill="#FBF3F6"/>
</g>
<mask id="mask33_1422_98024" style="mask-type:luminance" maskUnits="userSpaceOnUse" x="0" y="0" width="168" height="168">
<path d="M168 0H0V168H168V0Z" fill="white"/>
</mask>
<g mask="url(#mask33_1422_98024)">
<path d="M84.1791 125.305C84.1946 124.718 84.7185 124.325 85.4581 124.347C85.9939 124.362 86.3969 124.809 86.3756 125.362C86.3519 125.985 85.7355 126.564 85.1239 126.539C84.6189 126.518 84.1626 125.923 84.1791 125.305Z" fill="#FBF3F6"/>
</g>
<mask id="mask34_1422_98024" style="mask-type:luminance" maskUnits="userSpaceOnUse" x="0" y="0" width="168" height="168">
<path d="M168 0H0V168H168V0Z" fill="white"/>
</mask>
<g mask="url(#mask34_1422_98024)">
<path d="M107.317 130.419C107.313 130.987 106.842 131.445 106.279 131.431C105.752 131.418 105.294 130.889 105.299 130.299C105.304 129.652 105.677 129.249 106.272 129.25C106.865 129.249 107.322 129.761 107.317 130.419Z" fill="#FBF3F6"/>
</g>
<mask id="mask35_1422_98024" style="mask-type:luminance" maskUnits="userSpaceOnUse" x="0" y="0" width="168" height="168">
<path d="M168 0H0V168H168V0Z" fill="white"/>
</mask>
<g mask="url(#mask35_1422_98024)">
<path d="M77.7617 127.635C77.7629 127.012 78.0818 126.724 78.7041 126.687C79.407 126.645 79.6689 127.191 79.6879 127.719C79.7069 128.244 79.1936 128.723 78.6649 128.723C78.1683 128.722 77.7605 128.231 77.7617 127.635Z" fill="#FBF3F6"/>
</g>
<mask id="mask36_1422_98024" style="mask-type:luminance" maskUnits="userSpaceOnUse" x="0" y="0" width="168" height="168">
<path d="M168 0H0V168H168V0Z" fill="white"/>
</mask>
<g mask="url(#mask36_1422_98024)">
<path d="M65.8171 114.241C65.8053 113.58 65.9487 113.335 66.3967 113.218C66.8507 113.098 67.2253 113.245 67.4659 113.608C67.5892 113.794 67.5856 113.948 67.4683 114.132C67.23 114.507 66.9289 114.82 66.5757 115.085C66.1822 115.38 65.893 115.262 65.8207 114.766C65.7958 114.595 65.8171 114.416 65.8171 114.241Z" fill="#FBF3F6"/>
</g>
<mask id="mask37_1422_98024" style="mask-type:luminance" maskUnits="userSpaceOnUse" x="0" y="0" width="168" height="168">
<path d="M168 0H0V168H168V0Z" fill="white"/>
</mask>
<g mask="url(#mask37_1422_98024)">
<path d="M65.8072 131.52C65.6128 131.196 65.5986 130.886 65.8949 130.609C66.2221 130.304 66.599 130.103 67.0506 130.234C67.3553 130.323 67.4264 130.617 67.4631 130.904C67.4963 131.167 67.3387 131.317 67.1372 131.426C66.746 131.638 66.3205 131.64 65.8926 131.599C65.8523 131.587 65.8226 131.56 65.8072 131.52Z" fill="#FBF3F6"/>
</g>
<mask id="mask38_1422_98024" style="mask-type:luminance" maskUnits="userSpaceOnUse" x="0" y="0" width="168" height="168">
<path d="M168 0H0V168H168V0Z" fill="white"/>
</mask>
<g mask="url(#mask38_1422_98024)">
<path d="M59.6435 127.348C59.8 127.401 60.1461 127.284 60.2409 127.653C60.3191 127.956 59.9161 128.692 59.6222 128.788C59.2618 128.906 58.9453 128.8 58.7343 128.493C58.5565 128.234 58.7296 127.983 58.8529 127.758C58.9999 127.488 59.2037 127.283 59.6435 127.348Z" fill="#FBF3F6"/>
</g>
<mask id="mask39_1422_98024" style="mask-type:luminance" maskUnits="userSpaceOnUse" x="0" y="0" width="168" height="168">
<path d="M168 0H0V168H168V0Z" fill="white"/>
</mask>
<g mask="url(#mask39_1422_98024)">
<path d="M79.7833 134.796C79.9967 134.774 80.2254 134.828 80.4578 134.858C80.6462 134.882 80.8122 134.927 80.8608 135.129C80.9094 135.333 80.8157 135.504 80.6723 135.64C80.2669 136.026 79.4147 135.87 79.1657 135.369C78.9595 134.953 79.0365 134.818 79.4988 134.796C79.5842 134.793 79.6719 134.796 79.7833 134.796Z" fill="#FBF3F6"/>
</g>
<mask id="mask40_1422_98024" style="mask-type:luminance" maskUnits="userSpaceOnUse" x="0" y="0" width="168" height="168">
<path d="M168 0H0V168H168V0Z" fill="white"/>
</mask>
<g mask="url(#mask40_1422_98024)">
<path d="M71.9677 127.19C71.9689 127.671 71.7117 128.006 71.3501 127.997C70.9649 127.986 70.9127 127.728 70.9151 127.422C70.9187 127.007 71.2067 126.647 71.5433 126.677C71.8432 126.703 71.9606 126.908 71.9677 127.19Z" fill="#FBF3F6"/>
</g>
<mask id="mask41_1422_98024" style="mask-type:luminance" maskUnits="userSpaceOnUse" x="0" y="0" width="168" height="168">
<path d="M168 0H0V168H168V0Z" fill="white"/>
</mask>
<g mask="url(#mask41_1422_98024)">
<path d="M73.402 113.705C73.005 113.705 72.7916 113.589 72.8141 113.216C72.8331 112.889 73.1247 112.627 73.4637 112.65C73.7991 112.672 73.9627 112.867 73.9615 113.194C73.9603 113.521 73.7173 113.711 73.402 113.705Z" fill="#FBF3F6"/>
</g>
<mask id="mask42_1422_98024" style="mask-type:luminance" maskUnits="userSpaceOnUse" x="0" y="0" width="168" height="168">
<path d="M168 0H0V168H168V0Z" fill="white"/>
</mask>
<g mask="url(#mask42_1422_98024)">
<path d="M96.7185 132.846C96.2716 132.836 96.0334 132.63 96.0642 132.272C96.0879 132.001 96.2242 131.803 96.5359 131.8C96.907 131.796 97.1938 132.036 97.1843 132.362C97.176 132.678 97.0634 132.908 96.7185 132.846Z" fill="#FBF3F6"/>
</g>
<mask id="mask43_1422_98024" style="mask-type:luminance" maskUnits="userSpaceOnUse" x="0" y="0" width="168" height="168">
<path d="M168 0H0V168H168V0Z" fill="white"/>
</mask>
<g mask="url(#mask43_1422_98024)">
<path d="M73.4851 120.815C73.5705 120.569 73.6677 120.274 74.0007 120.284C74.2603 120.294 74.4927 120.466 74.4263 120.774C74.3635 121.066 74.2023 121.339 73.8407 121.3C73.6013 121.274 73.4733 121.094 73.4851 120.815Z" fill="#FBF3F6"/>
</g>
<mask id="mask44_1422_98024" style="mask-type:luminance" maskUnits="userSpaceOnUse" x="0" y="0" width="168" height="168">
<path d="M168 0H0V168H168V0Z" fill="white"/>
</mask>
<g mask="url(#mask44_1422_98024)">
<path d="M87.053 130.377C86.9119 130.617 87.0636 131.03 86.708 131.031C86.4674 131.031 86.2292 130.782 86.2766 130.467C86.3133 130.22 86.4117 129.957 86.7211 129.957C86.9925 129.957 86.989 130.21 87.053 130.377Z" fill="#FBF3F6"/>
</g>
<mask id="mask45_1422_98024" style="mask-type:luminance" maskUnits="userSpaceOnUse" x="0" y="0" width="168" height="168">
<path d="M168 0H0V168H168V0Z" fill="white"/>
</mask>
<g mask="url(#mask45_1422_98024)">
<path d="M105.123 127.683C105.085 127.952 104.952 128.086 104.71 128.085C104.461 128.084 104.333 127.938 104.323 127.701C104.312 127.438 104.503 127.33 104.716 127.321C104.958 127.311 105.059 127.504 105.123 127.683Z" fill="#FBF3F6"/>
</g>
<mask id="mask46_1422_98024" style="mask-type:luminance" maskUnits="userSpaceOnUse" x="0" y="0" width="168" height="168">
<path d="M168 0H0V168H168V0Z" fill="white"/>
</mask>
<g mask="url(#mask46_1422_98024)">
<path d="M86.148 119.753C86.0983 119.912 86.1291 120.168 85.8707 120.167C85.6348 120.167 85.4605 120.031 85.4629 119.752C85.4653 119.522 85.5684 119.404 85.8019 119.385C86.0674 119.363 86.1172 119.537 86.148 119.753Z" fill="#FBF3F6"/>
</g>
<mask id="mask47_1422_98024" style="mask-type:luminance" maskUnits="userSpaceOnUse" x="0" y="0" width="168" height="168">
<path d="M168 0H0V168H168V0Z" fill="white"/>
</mask>
<g mask="url(#mask47_1422_98024)">
<path d="M96.7269 118.909C96.7281 119.138 96.7151 119.326 96.5788 119.374C96.4045 119.436 96.3808 119.207 96.2824 119.114C96.2611 119.093 96.2409 119.069 96.2326 119.041C96.1757 118.859 95.9588 118.708 96.1177 118.482C96.19 118.38 96.3014 118.377 96.395 118.414C96.6534 118.515 96.6973 118.75 96.7269 118.909Z" fill="#FBF3F6"/>
</g>
<mask id="mask48_1422_98024" style="mask-type:luminance" maskUnits="userSpaceOnUse" x="0" y="0" width="168" height="168">
<path d="M168 0H0V168H168V0Z" fill="white"/>
</mask>
<g mask="url(#mask48_1422_98024)">
<path d="M105.346 111.126C105.347 110.503 105.666 110.215 106.287 110.177C106.99 110.136 107.252 110.681 107.271 111.209C107.29 111.735 106.776 112.213 106.248 112.213C105.752 112.215 105.345 111.723 105.346 111.126Z" fill="#FBF3F6"/>
</g>
<mask id="mask49_1422_98024" style="mask-type:luminance" maskUnits="userSpaceOnUse" x="0" y="0" width="168" height="168">
<path d="M168 0H0V168H168V0Z" fill="white"/>
</mask>
<g mask="url(#mask49_1422_98024)">
<path d="M99.526 125.139C98.797 125.151 98.2731 124.691 98.2648 124.034C98.2565 123.335 98.7306 122.855 99.4371 122.844C100.176 122.833 100.795 123.343 100.818 123.978C100.844 124.691 100.359 125.126 99.526 125.139Z" fill="#FBF3F6"/>
</g>
<mask id="mask50_1422_98024" style="mask-type:luminance" maskUnits="userSpaceOnUse" x="0" y="0" width="168" height="168">
<path d="M168 0H0V168H168V0Z" fill="white"/>
</mask>
<g mask="url(#mask50_1422_98024)">
<path d="M122.169 121.329C121.772 121.329 121.558 121.213 121.581 120.84C121.6 120.513 121.891 120.251 122.23 120.274C122.566 120.296 122.729 120.491 122.728 120.818C122.727 121.145 122.484 121.335 122.169 121.329Z" fill="#FBF3F6"/>
</g>
<mask id="mask51_1422_98024" style="mask-type:luminance" maskUnits="userSpaceOnUse" x="0" y="0" width="168" height="168">
<path d="M168 0H0V168H168V0Z" fill="white"/>
</mask>
<g mask="url(#mask51_1422_98024)">
<path d="M114.084 127.427C114.051 127.317 114.064 127.2 114.104 127.092C114.184 126.88 114.298 126.673 114.577 126.684C114.837 126.693 115.069 126.865 115.003 127.174C114.94 127.465 114.779 127.739 114.417 127.7C114.247 127.68 114.132 127.582 114.084 127.427Z" fill="#FBF3F6"/>
</g>
<mask id="mask52_1422_98024" style="mask-type:luminance" maskUnits="userSpaceOnUse" x="0" y="0" width="168" height="168">
<path d="M168 0H0V168H168V0Z" fill="white"/>
</mask>
<g mask="url(#mask52_1422_98024)">
<path d="M141.869 83.699C142.245 83.923 142.427 84.2561 142.273 84.441L115.946 116.089C115.452 116.685 114.481 116.845 113.797 116.438C113.113 116.031 112.98 115.215 113.495 114.632L140.895 83.6208C141.055 83.4394 141.492 83.475 141.869 83.699Z" fill="#99B1B8"/>
</g>
<mask id="mask53_1422_98024" style="mask-type:luminance" maskUnits="userSpaceOnUse" x="0" y="0" width="168" height="168">
<path d="M168 0H0V168H168V0Z" fill="white"/>
</mask>
<g mask="url(#mask53_1422_98024)">
<path d="M144.42 88.6877C144.584 88.5147 144.714 88.3096 144.841 88.1069C145.321 87.3435 145.8 86.5802 146.28 85.8156C146.497 85.4707 146.719 85.1187 147.034 84.8603C148.356 83.7769 150.649 84.347 152.204 84.2972C153.233 84.264 153.03 83.2506 152.633 82.6958C151.863 81.616 150.962 80.6286 150.104 79.6199C149.963 79.4539 149.817 79.2797 149.76 79.0699C149.688 78.8056 149.766 78.5258 149.843 78.2627L150.912 74.6237C151.111 73.9469 150.97 72.7675 149.925 73.1752C148.627 73.6825 147.329 74.1922 146.033 74.7067C145.77 74.811 145.493 74.9177 145.212 74.8797C144.952 74.8454 144.726 74.6925 144.51 74.5443L141.471 72.4534C141.088 72.1902 140.605 71.9176 140.189 72.1226C138.987 72.7165 139.865 76.2393 139.986 77.2279C140.01 77.4247 140.033 77.6297 139.973 77.8182C139.889 78.0778 139.661 78.2603 139.445 78.4274C138.427 79.2145 137.409 80.0016 136.39 80.7886C136.035 81.0624 135.642 81.4358 135.731 81.8744C135.798 82.2051 136.119 82.4137 136.423 82.5619C137.615 83.1415 138.917 83.1866 140.181 83.5042C140.497 83.5837 140.822 83.6666 141.08 83.8646C141.829 84.4371 142.706 87.8639 142.954 88.5478C143.172 89.1512 143.777 89.2247 144.26 88.8347C144.318 88.7885 144.372 88.7399 144.42 88.6877Z" fill="#BB8F91"/>
</g>
<mask id="mask54_1422_98024" style="mask-type:luminance" maskUnits="userSpaceOnUse" x="0" y="0" width="168" height="168">
<path d="M168 0H0V168H168V0Z" fill="white"/>
</mask>
<g mask="url(#mask54_1422_98024)">
<path d="M144.034 84.9895C144.124 84.8935 144.196 84.7797 144.267 84.6671C144.533 84.2439 144.798 83.8207 145.065 83.3976C145.185 83.2067 145.308 83.0111 145.484 82.8677C146.216 82.2668 147.488 82.5832 148.35 82.556C148.92 82.5382 148.807 81.9763 148.588 81.6682C148.161 81.0696 147.662 80.5231 147.186 79.9636C147.107 79.8712 147.027 79.7752 146.995 79.659C146.955 79.512 146.998 79.3579 147.041 79.2122L147.634 77.1947C147.744 76.819 147.666 76.1658 147.086 76.3922C146.367 76.6732 145.647 76.9553 144.93 77.2409C144.784 77.299 144.63 77.3571 144.475 77.3369C144.331 77.318 144.206 77.2338 144.086 77.1508C143.524 76.7644 142.964 76.378 142.402 75.9916C142.19 75.8458 141.922 75.6941 141.69 75.809C141.024 76.1386 141.51 78.0908 141.578 78.6384C141.591 78.7475 141.604 78.8613 141.571 78.9656C141.525 79.109 141.398 79.211 141.278 79.3034C140.714 79.7396 140.148 80.1758 139.584 80.612C139.389 80.7638 139.169 80.97 139.219 81.213C139.257 81.3967 139.435 81.5117 139.603 81.5935C140.263 81.9147 140.985 81.9396 141.687 82.115C141.861 82.1589 142.043 82.2051 142.185 82.3142C142.6 82.6318 143.087 84.5308 143.224 84.9101C143.345 85.2443 143.681 85.2858 143.949 85.0701C143.978 85.0464 144.007 85.0191 144.034 84.9895Z" fill="#CEAFB0"/>
</g>
<mask id="mask55_1422_98024" style="mask-type:luminance" maskUnits="userSpaceOnUse" x="0" y="0" width="168" height="168">
<path d="M168 0H0V168H168V0Z" fill="white"/>
</mask>
<g mask="url(#mask55_1422_98024)">
<path d="M41.6492 45.1878C41.8756 45.1712 42.1458 45.3158 42.1778 45.5517C42.2122 45.8089 41.9503 46.0626 41.6824 46.0472C41.3884 46.0306 41.1691 45.694 41.2521 45.4521C41.309 45.2862 41.4986 45.1997 41.6492 45.1878Z" fill="#C6D3D7"/>
</g>
<mask id="mask56_1422_98024" style="mask-type:luminance" maskUnits="userSpaceOnUse" x="0" y="0" width="168" height="168">
<path d="M168 0H0V168H168V0Z" fill="white"/>
</mask>
<g mask="url(#mask56_1422_98024)">
<path d="M39.3595 49.6518C39.3773 49.653 39.5634 49.6731 39.6238 49.8177C39.689 49.973 39.5693 50.1781 39.4259 50.2148C39.2255 50.2658 38.9754 49.9896 39.0288 49.8177C39.0632 49.7051 39.2255 49.6399 39.3595 49.6518Z" fill="#C6D3D7"/>
</g>
<mask id="mask57_1422_98024" style="mask-type:luminance" maskUnits="userSpaceOnUse" x="0" y="0" width="168" height="168">
<path d="M168 0H0V168H168V0Z" fill="white"/>
</mask>
<g mask="url(#mask57_1422_98024)">
<path d="M41.8717 47.4362C41.9191 47.4255 42.2486 47.3532 42.4667 47.5689C42.6919 47.7906 42.6754 48.1948 42.4999 48.3951C42.1894 48.7507 41.3359 48.5219 41.2435 48.164C41.1759 47.9032 41.4948 47.5191 41.8717 47.4362Z" fill="#C6D3D7"/>
</g>
<mask id="mask58_1422_98024" style="mask-type:luminance" maskUnits="userSpaceOnUse" x="0" y="0" width="168" height="168">
<path d="M168 0H0V168H168V0Z" fill="white"/>
</mask>
<g mask="url(#mask58_1422_98024)">
<path d="M41.5078 51.5359C41.7662 51.5927 41.8954 51.9223 41.8053 52.1641C41.7437 52.3288 41.5706 52.4758 41.375 52.4616C41.132 52.445 40.9424 52.1866 40.9779 51.9329C41.0147 51.6781 41.2707 51.4837 41.5078 51.5359Z" fill="#C6D3D7"/>
</g>
<mask id="mask59_1422_98024" style="mask-type:luminance" maskUnits="userSpaceOnUse" x="0" y="0" width="168" height="168">
<path d="M168 0H0V168H168V0Z" fill="white"/>
</mask>
<g mask="url(#mask59_1422_98024)">
<path d="M44.6796 47.6544C44.9392 47.6271 45.2118 47.8784 45.175 48.0847C45.1442 48.2601 44.8917 48.3857 44.6796 48.349C44.5136 48.3205 44.3074 48.1807 44.3157 47.9851C44.324 47.799 44.5172 47.671 44.6796 47.6544Z" fill="#C6D3D7"/>
</g>
<mask id="mask60_1422_98024" style="mask-type:luminance" maskUnits="userSpaceOnUse" x="0" y="0" width="168" height="168">
<path d="M168 0H0V168H168V0Z" fill="white"/>
</mask>
<g mask="url(#mask60_1422_98024)">
<path d="M38.3665 47.3374C38.4601 47.463 38.6142 47.7499 38.4993 47.8993C38.3748 48.0605 37.9587 48.0391 37.8046 47.7997C37.6387 47.5425 37.8402 47.1347 38.0358 47.1051C38.178 47.0849 38.3132 47.2651 38.3665 47.3374Z" fill="#C6D3D7"/>
</g>
<mask id="mask61_1422_98024" style="mask-type:luminance" maskUnits="userSpaceOnUse" x="0" y="0" width="168" height="168">
<path d="M168 0H0V168H168V0Z" fill="white"/>
</mask>
<g mask="url(#mask61_1422_98024)">
<path d="M78.4067 35.59C76.5196 35.59 74.6326 35.2913 72.7917 34.5042C70.2622 33.3829 68.1286 31.983 65.8694 30.5025C65.5766 30.3105 65.2815 30.1173 64.9839 29.9229C63.974 29.2461 63.0376 28.7684 62.1308 28.3073C62.0585 28.2706 62.0301 28.1817 62.0668 28.1094C62.1036 28.037 62.1913 28.0086 62.2648 28.0453C63.1787 28.5112 64.1222 28.9924 65.1463 29.6776C65.4438 29.8708 65.739 30.0652 66.0318 30.2572C68.2804 31.7317 70.4045 33.1233 72.9103 34.2352C76.9392 35.9586 81.2159 35.2866 85.2378 34.3027C85.316 34.2838 85.3954 34.3312 85.4156 34.4106C85.4345 34.49 85.3871 34.5694 85.3077 34.5884C83.0591 35.136 80.7323 35.59 78.4067 35.59Z" fill="#AFAFAF"/>
</g>
<mask id="mask62_1422_98024" style="mask-type:luminance" maskUnits="userSpaceOnUse" x="0" y="0" width="168" height="168">
<path d="M168 0H0V168H168V0Z" fill="white"/>
</mask>
<g mask="url(#mask62_1422_98024)">
<path d="M73.1776 35.1534C73.6541 36.6778 71.6153 38.016 70.7726 38.5755C69.7437 39.2583 68.6223 39.7371 67.4655 39.9801C66.9676 40.0844 66.3252 40.3049 66.612 39.4621C66.7507 39.0532 67.0162 38.713 67.2165 38.3503C67.827 37.2444 68.1316 36.6908 68.4647 36.257C68.9862 35.579 69.3739 35.074 69.9748 34.7409C70.7571 34.3071 71.8666 34.1329 72.6762 34.5703C72.9476 34.7172 73.1041 34.9211 73.1776 35.1534Z" fill="#BDCCC7"/>
</g>
<mask id="mask63_1422_98024" style="mask-type:luminance" maskUnits="userSpaceOnUse" x="0" y="0" width="168" height="168">
<path d="M168 0H0V168H168V0Z" fill="white"/>
</mask>
<g mask="url(#mask63_1422_98024)">
<path d="M70.4174 32.7403C69.6611 32.9596 68.7282 31.3534 68.5919 31.1176C68.2482 30.5249 68.1048 30.0045 67.9447 29.4107C67.5927 28.0961 67.7681 27.8152 67.4647 25.5868C67.3153 24.4868 67.1992 24.0209 67.3627 23.9107C67.4659 23.8408 67.6472 23.938 68.701 25.1008C69.5141 25.9969 69.9207 26.445 70.2253 26.9084C70.7018 27.6339 71.0551 28.1732 71.2364 28.9401C71.6003 30.4704 71.1843 32.5174 70.4174 32.7403Z" fill="#BDCCC7"/>
</g>
<mask id="mask64_1422_98024" style="mask-type:luminance" maskUnits="userSpaceOnUse" x="0" y="0" width="168" height="168">
<path d="M168 0H0V168H168V0Z" fill="white"/>
</mask>
<g mask="url(#mask64_1422_98024)">
<path d="M65.4256 30.3954C65.0333 29.6736 63.4259 29.9604 63.1913 30.0031C62.5986 30.1098 62.1885 30.3255 61.7214 30.5756C60.6902 31.1292 57.9817 33.3837 58.0279 33.5792C58.0576 33.7037 61.3161 33.9657 61.8032 33.9099C62.5666 33.8234 63.1344 33.7582 63.7199 33.4169C64.8863 32.7353 65.8227 31.128 65.4256 30.3954Z" fill="#BDCCC7"/>
</g>
<mask id="mask65_1422_98024" style="mask-type:luminance" maskUnits="userSpaceOnUse" x="0" y="0" width="168" height="168">
<path d="M168 0H0V168H168V0Z" fill="white"/>
</mask>
<g mask="url(#mask65_1422_98024)">
<path d="M62.4591 28.4646C61.55 29.2754 60.1738 27.6147 59.6001 26.9296C58.8272 26.0062 58.1978 24.9133 57.7438 23.7268C57.5933 23.3321 57.713 23.05 58.09 23.1413C59.3701 23.4495 61.0936 24.0528 61.9814 25.2784C62.4567 25.9339 62.8337 26.9652 62.7317 27.847C62.6974 28.1422 62.5978 28.3401 62.4591 28.4646Z" fill="#BDCCC7"/>
</g>
<mask id="mask66_1422_98024" style="mask-type:luminance" maskUnits="userSpaceOnUse" x="0" y="0" width="168" height="168">
<path d="M168 0H0V168H168V0Z" fill="white"/>
</mask>
<g mask="url(#mask66_1422_98024)">
<path d="M78.1554 33.8045C75.7611 33.8045 73.3643 33.4169 71.0494 32.9475C70.9699 32.9309 70.919 32.8539 70.9344 32.7744C70.951 32.695 71.028 32.6429 71.1074 32.6595C75.2585 33.5022 79.6727 34.0771 83.8356 32.6002C86.4196 31.6496 88.6101 30.4583 90.9286 29.1983C91.2297 29.0347 91.5343 28.8688 91.8425 28.7028C92.8963 28.1173 93.8694 27.706 94.8106 27.3077C94.8853 27.2757 94.9718 27.3112 95.0026 27.3859C95.0346 27.4606 94.9991 27.5471 94.9244 27.5791C93.9904 27.9738 93.0255 28.3828 91.9836 28.9612C91.6742 29.1284 91.3708 29.2931 91.0697 29.4579C88.7405 30.7238 86.5417 31.9198 83.9363 32.8788C82.041 33.5497 80.0994 33.8045 78.1554 33.8045Z" fill="#AFAFAF"/>
</g>
<mask id="mask67_1422_98024" style="mask-type:luminance" maskUnits="userSpaceOnUse" x="0" y="0" width="168" height="168">
<path d="M168 0H0V168H168V0Z" fill="white"/>
</mask>
<g mask="url(#mask67_1422_98024)">
<path d="M83.5472 33.411C83.0553 34.7149 85.1581 35.8587 86.027 36.3376C87.0878 36.9208 88.2447 37.3309 89.4372 37.5383C89.9504 37.6284 90.613 37.8157 90.3179 37.0962C90.1744 36.7465 89.9018 36.4561 89.6944 36.1456C89.065 35.1997 88.7509 34.7267 88.4071 34.3557C87.8702 33.7761 87.4695 33.3446 86.8496 33.0589C86.0436 32.6879 84.8985 32.5398 84.064 32.9131C83.7843 33.0376 83.6219 33.2119 83.5472 33.411Z" fill="#BDCCC7"/>
</g>
<mask id="mask68_1422_98024" style="mask-type:luminance" maskUnits="userSpaceOnUse" x="0" y="0" width="168" height="168">
<path d="M168 0H0V168H168V0Z" fill="white"/>
</mask>
<g mask="url(#mask68_1422_98024)">
<path d="M86.3933 31.3457C87.1732 31.533 88.1345 30.1592 88.2756 29.9577C88.63 29.4504 88.7781 29.0059 88.9417 28.4974C89.3056 27.3737 89.1243 27.133 89.436 25.2282C89.5901 24.2882 89.7086 23.8888 89.5415 23.7951C89.4348 23.7347 89.2487 23.8188 88.1618 24.8122C87.3237 25.5791 86.9041 25.9619 86.59 26.3578C86.0993 26.9778 85.7342 27.4389 85.5469 28.0955C85.1747 29.4053 85.6038 31.1561 86.3933 31.3457Z" fill="#BDCCC7"/>
</g>
<mask id="mask69_1422_98024" style="mask-type:luminance" maskUnits="userSpaceOnUse" x="0" y="0" width="168" height="168">
<path d="M168 0H0V168H168V0Z" fill="white"/>
</mask>
<g mask="url(#mask69_1422_98024)">
<path d="M91.5402 29.3416C91.9444 28.724 93.6015 28.9706 93.8445 29.0061C94.4561 29.0974 94.8781 29.2811 95.3593 29.4957C96.4214 29.9686 99.2152 31.8971 99.1678 32.0643C99.137 32.171 95.7777 32.395 95.2752 32.3476C94.4881 32.2729 93.9025 32.2172 93.2992 31.9256C92.0961 31.3424 91.13 29.9686 91.5402 29.3416Z" fill="#BDCCC7"/>
</g>
<mask id="mask70_1422_98024" style="mask-type:luminance" maskUnits="userSpaceOnUse" x="0" y="0" width="168" height="168">
<path d="M168 0H0V168H168V0Z" fill="white"/>
</mask>
<g mask="url(#mask70_1422_98024)">
<path d="M94.5993 27.6905C95.5369 28.3839 96.9557 26.9639 97.5472 26.3772C98.3437 25.5877 98.9921 24.6537 99.4603 23.6379C99.6156 23.3012 99.4923 23.0594 99.1035 23.1365C97.7831 23.3996 96.0074 23.9164 95.0912 24.9642C94.6016 25.5249 94.2117 26.4068 94.3172 27.1607C94.3527 27.4155 94.4558 27.585 94.5993 27.6905Z" fill="#BDCCC7"/>
</g>
<mask id="mask71_1422_98024" style="mask-type:luminance" maskUnits="userSpaceOnUse" x="0" y="0" width="168" height="168">
<path d="M168 0H0V168H168V0Z" fill="white"/>
</mask>
<g mask="url(#mask71_1422_98024)">
<path d="M77.0968 33.8354C77.8258 37.2207 76.6962 40.0312 75.0011 40.6653C73.9889 41.0434 72.5914 40.7139 71.8565 39.717C70.8205 38.31 71.4321 36.0247 72.5558 34.7849C73.6771 33.545 75.4634 33.1799 77.0968 33.8354Z" fill="#CEAFB0"/>
</g>
<mask id="mask72_1422_98024" style="mask-type:luminance" maskUnits="userSpaceOnUse" x="0" y="0" width="168" height="168">
<path d="M168 0H0V168H168V0Z" fill="white"/>
</mask>
<g mask="url(#mask72_1422_98024)">
<path d="M78.8887 33.3486C81.3305 31.1 84.148 30.9104 85.4412 32.2605C86.2129 33.0665 86.5803 34.5671 86.0979 35.7323C85.4175 37.3752 83.2649 37.8256 81.737 37.3064C80.2103 36.7872 79.0973 35.2262 78.8887 33.3486Z" fill="#CEAFB0"/>
</g>
<mask id="mask73_1422_98024" style="mask-type:luminance" maskUnits="userSpaceOnUse" x="0" y="0" width="168" height="168">
<path d="M168 0H0V168H168V0Z" fill="white"/>
</mask>
<g mask="url(#mask73_1422_98024)">
<path d="M78.6218 33.2713C77.8929 29.886 79.0225 27.0755 80.7175 26.4414C81.7298 26.0633 83.1273 26.3928 83.8622 27.3896C84.8982 28.7966 84.2866 31.082 83.1629 32.3218C82.0415 33.5629 80.2552 33.9268 78.6218 33.2713Z" fill="#CEAFB0"/>
</g>
<mask id="mask74_1422_98024" style="mask-type:luminance" maskUnits="userSpaceOnUse" x="0" y="0" width="168" height="168">
<path d="M168 0H0V168H168V0Z" fill="white"/>
</mask>
<g mask="url(#mask74_1422_98024)">
<path d="M77.3539 33.0001C74.9121 35.2487 72.0945 35.4384 70.8013 34.0883C70.0297 33.2822 69.6622 31.7816 70.1447 30.6164C70.825 28.9735 72.9776 28.5231 74.5055 29.0423C76.0322 29.5627 77.1452 31.1226 77.3539 33.0001Z" fill="#CEAFB0"/>
</g>
<mask id="mask75_1422_98024" style="mask-type:luminance" maskUnits="userSpaceOnUse" x="0" y="0" width="168" height="168">
<path d="M168 0H0V168H168V0Z" fill="white"/>
</mask>
<g mask="url(#mask75_1422_98024)">
<path d="M77.816 32.9147C74.8243 31.6773 73.3106 29.0885 73.7764 27.2074C74.0538 26.0837 75.0874 25.0109 76.2597 24.9066C77.9132 24.7608 79.3155 26.591 79.6332 28.2943C79.9496 29.9988 79.2301 31.8112 77.816 32.9147Z" fill="#CEAFB0"/>
</g>
<mask id="mask76_1422_98024" style="mask-type:luminance" maskUnits="userSpaceOnUse" x="0" y="0" width="168" height="168">
<path d="M168 0H0V168H168V0Z" fill="white"/>
</mask>
<g mask="url(#mask76_1422_98024)">
<path d="M78.0126 34.2939C80.9557 35.6618 82.371 38.3158 81.8364 40.1744C81.5176 41.2851 80.4449 42.3116 79.2702 42.3637C77.6131 42.4372 76.2796 40.5466 76.0259 38.829C75.7711 37.1139 76.5593 35.3359 78.0126 34.2939Z" fill="#CEAFB0"/>
</g>
<mask id="mask77_1422_98024" style="mask-type:luminance" maskUnits="userSpaceOnUse" x="0" y="0" width="168" height="168">
<path d="M168 0H0V168H168V0Z" fill="white"/>
</mask>
<g mask="url(#mask77_1422_98024)">
<path d="M79.8918 34.2151C79.8918 33.1673 79.1095 32.3174 78.1446 32.3174C77.1798 32.3174 76.3975 33.1673 76.3975 34.2151C76.3975 35.2629 77.1798 36.1128 78.1446 36.1128C79.1095 36.1128 79.8918 35.2629 79.8918 34.2151Z" fill="#C6D3D7"/>
</g>
</g>
<defs>
<clipPath id="clip0_1422_98024">
<rect width="168" height="168" fill="white"/>
</clipPath>
</defs>
</svg>
