<svg width="100" height="51" viewBox="0 0 100 51" fill="none" xmlns="http://www.w3.org/2000/svg">
<path d="M39.0092 45.3473C39.0421 45.2618 39.0695 45.1762 39.0914 45.0849C39.1188 44.9937 39.1517 44.9024 39.1901 44.8054C39.2723 44.5715 39.4258 44.4917 39.656 44.5658C39.8698 44.6514 39.9466 44.8168 39.8698 45.0621L39.4532 46.2543C39.3491 46.5852 39.2285 46.9218 39.0805 47.2754C39.0695 47.2983 39.0476 47.3439 39.0201 47.418C38.9927 47.4922 38.9599 47.5721 38.927 47.6633C38.8941 47.7546 38.8667 47.8459 38.8447 47.9371C38.8173 48.0284 38.8064 48.0969 38.8064 48.1539C38.8283 48.3992 38.8392 48.6502 38.8447 48.9012C38.8502 49.1579 38.8612 49.4032 38.8831 49.6485C38.8831 49.831 38.8119 49.9508 38.6693 50.0135C38.5871 50.0478 38.5049 50.0535 38.4281 50.0307C38.3514 50.0078 38.2911 49.9622 38.2527 49.888C38.1814 49.7511 38.1321 49.5971 38.1157 49.426C38.1047 49.1636 38.1047 48.9012 38.1102 48.6445C38.1157 48.3878 38.1102 48.1311 38.1047 47.863C38.0828 47.6919 38.0554 47.5492 38.0115 47.4352C37.869 47.0644 37.721 46.6993 37.573 46.3342C37.425 45.9748 37.277 45.6098 37.1344 45.2504C37.1235 45.2162 37.118 45.1876 37.1125 45.1648C37.107 45.1363 37.1015 45.1078 37.0906 45.0792C37.0687 44.9823 37.0851 44.891 37.1344 44.7997C37.1838 44.7085 37.2605 44.6514 37.3482 44.6343C37.5456 44.583 37.6826 44.6571 37.7648 44.8568C37.8142 44.9709 37.8525 45.0849 37.88 45.1933C37.9074 45.3017 37.9403 45.4044 37.9786 45.5128C38.0608 45.7238 38.1486 45.9292 38.2418 46.1232C38.3349 46.3228 38.4226 46.5225 38.5049 46.7221C38.62 46.5282 38.7132 46.3114 38.7844 46.0661C38.8502 45.8208 38.927 45.5812 39.0092 45.3473Z" fill="white"/>
<path d="M42.9421 46.8504C42.8927 46.5823 42.8653 46.3313 42.8708 46.0917C42.8763 45.8521 42.9256 45.6183 43.0188 45.3844C43.1723 44.9622 43.4573 44.6827 43.8685 44.5572C43.9946 44.5116 44.1206 44.5116 44.2577 44.5401C44.6798 44.6599 44.9484 44.9337 45.0635 45.3673C45.1457 45.7266 45.1786 46.0803 45.1567 46.4283C45.1348 46.7763 45.0416 47.1185 44.8771 47.4551C44.7949 47.6262 44.6852 47.7574 44.5537 47.843C44.4221 47.9342 44.2796 47.9856 44.1261 47.997C43.9781 48.0084 43.8246 47.9799 43.6766 47.9171C43.5286 47.8544 43.3971 47.746 43.2819 47.5977C43.1887 47.4779 43.1175 47.3581 43.0681 47.2212C43.0133 47.09 42.9695 46.9645 42.9421 46.8504ZM44.4112 45.6354C44.4002 45.6126 44.3947 45.5897 44.3947 45.5612C44.3947 45.5327 44.3838 45.5042 44.3618 45.4756C44.2577 45.2532 44.1152 45.2018 43.9288 45.3159C43.8027 45.4129 43.715 45.5213 43.6656 45.6525C43.5725 45.8978 43.5341 46.1316 43.556 46.3598C43.578 46.588 43.6437 46.8162 43.7588 47.0386C43.7698 47.0786 43.8027 47.1299 43.852 47.1813C43.9014 47.244 43.9671 47.2782 44.0439 47.2782C44.1206 47.2782 44.1864 47.2383 44.2358 47.1527C44.2686 47.1014 44.2906 47.0501 44.3125 46.993C44.4715 46.5652 44.5044 46.1145 44.4112 45.6354Z" fill="white"/>
<path d="M48.1367 45.5072V45.0452V44.8683C48.1696 44.6344 48.2792 44.5261 48.4766 44.5489C48.663 44.5489 48.7671 44.663 48.789 44.8854C48.8 45.0109 48.8055 45.1421 48.8055 45.2676C48.8055 45.3931 48.811 45.5186 48.8219 45.6327C48.8329 45.8552 48.8494 46.0777 48.8658 46.2944C48.8877 46.5112 48.9316 46.728 49.0028 46.939C49.0357 47.0246 49.0686 47.0987 49.1015 47.1672C49.1399 47.2357 49.1947 47.2756 49.2769 47.287C49.3592 47.2984 49.4304 47.2756 49.4907 47.2128C49.551 47.1558 49.6003 47.0816 49.6277 46.9961C49.6771 46.8706 49.7319 46.7337 49.7812 46.5968C49.8306 46.4599 49.8744 46.3172 49.9073 46.1689C49.9402 46.0434 49.9567 45.9122 49.9676 45.781C49.9786 45.6498 49.995 45.5129 50.0115 45.376L50.0553 44.9425C50.1047 44.6972 50.2253 44.5888 50.4116 44.6116C50.5048 44.6344 50.5816 44.6801 50.6364 44.7485C50.6912 44.817 50.7186 44.9083 50.7077 45.028C50.6967 45.1764 50.6857 45.319 50.6748 45.4616C50.6638 45.5985 50.6473 45.7411 50.6309 45.8894C50.598 46.1005 50.5596 46.3115 50.5158 46.5283C50.4719 46.7394 50.4061 46.9504 50.3239 47.1672C50.2746 47.287 50.2143 47.3954 50.1485 47.4924C50.0827 47.595 50.0005 47.6863 49.9073 47.7719C49.6387 48.0057 49.3701 48.0913 49.096 48.0286C48.8219 47.9658 48.6082 47.7662 48.4547 47.4239C48.3615 47.2128 48.2957 46.9904 48.2518 46.7622C48.208 46.534 48.1806 46.3001 48.1587 46.0548C48.1477 46.0149 48.1422 45.9579 48.1422 45.8951V45.7183C48.1477 45.6498 48.1422 45.5814 48.1367 45.5072Z" fill="white"/>
<path d="M58.1587 44.8227C58.2848 44.7714 58.367 44.7257 58.4054 44.6972C58.6027 44.5888 58.7946 44.5375 58.9864 44.5318C59.1783 44.5261 59.3756 44.5546 59.5839 44.6173C59.7923 44.6687 59.9622 44.817 60.0937 45.0452C60.1869 45.2163 60.2472 45.4102 60.2692 45.627C60.2966 45.8438 60.2911 46.0662 60.2637 46.2887C60.2308 46.5112 60.1705 46.7222 60.0828 46.9276C59.9951 47.1273 59.8854 47.2984 59.7484 47.4353C59.551 47.635 59.3373 47.7662 59.107 47.8232C58.8768 47.8802 58.6246 47.9088 58.356 47.8974C58.2738 47.8974 58.1971 47.8917 58.1313 47.8803C58.0655 47.8688 57.9888 47.8574 57.9065 47.846C57.7695 47.846 57.6763 47.8175 57.6105 47.7662C57.5502 47.7148 57.5119 47.6121 57.5009 47.4638C57.468 47.1672 57.457 46.8535 57.457 46.5226V42.809C57.457 42.7463 57.4625 42.6949 57.4735 42.6664C57.5228 42.4554 57.6489 42.3584 57.8462 42.3812C57.9285 42.3926 57.9997 42.4268 58.0545 42.4839C58.1094 42.5409 58.1422 42.6151 58.1532 42.7007V43.2882C58.1422 43.4993 58.1368 43.7103 58.1368 43.9271V44.566C58.1368 44.6059 58.1422 44.6458 58.1422 44.6858C58.1532 44.7257 58.1587 44.7714 58.1587 44.8227ZM58.1696 47.1159C58.4383 47.2128 58.7069 47.2128 58.9755 47.1159C59.2441 47.0189 59.4195 46.8021 59.5017 46.4599C59.5839 46.1632 59.6059 45.8951 59.562 45.6498C59.5291 45.4787 59.4798 45.3703 59.414 45.3133C59.3482 45.2619 59.2276 45.2391 59.0522 45.2505C58.8439 45.2505 58.6795 45.3133 58.5479 45.4388C58.4218 45.5643 58.2848 45.7012 58.1532 45.8381C58.1422 45.8495 58.1368 45.8837 58.1368 45.9522C58.1477 46.1404 58.1532 46.3344 58.1532 46.5283C58.1587 46.7166 58.1587 46.9162 58.1696 47.1159Z" fill="white"/>
<path d="M65.2667 46.557C65.1735 46.6711 65.0913 46.7738 65.0255 46.8593C64.9597 46.9449 64.883 47.0305 64.8008 47.116C64.7405 47.1788 64.6692 47.2415 64.5979 47.3043C64.5267 47.367 64.4499 47.4241 64.3677 47.4811C64.132 47.6294 63.9018 47.6523 63.677 47.5553C63.4577 47.4526 63.3207 47.2587 63.2659 46.9734C63.1946 46.5684 63.2001 46.1919 63.2878 45.8326C63.3755 45.4789 63.5729 45.1594 63.8853 44.8856C64.143 44.6403 64.4499 44.5091 64.8117 44.4863C65.0913 44.4749 65.338 44.5662 65.5518 44.7544C65.6066 44.8058 65.6559 44.8571 65.7162 44.9084C65.771 44.9541 65.8258 45.0111 65.8807 45.0739C65.9136 45.1252 65.941 45.188 65.9684 45.2507C65.9958 45.3135 66.0068 45.3762 66.0068 45.4447C66.0177 45.5644 66.0177 45.6728 66.0177 45.7869C66.0122 45.901 66.0068 46.0151 66.0068 46.1292C66.0068 46.3117 66.0122 46.4943 66.0177 46.6768C66.0232 46.8651 66.0232 47.0476 66.0232 47.2244C66.0232 47.2758 66.0232 47.3385 66.0287 47.4013C66.0342 47.464 66.0342 47.5268 66.0342 47.5952C66.0013 47.8291 65.8807 47.9375 65.6614 47.9147C65.4641 47.9147 65.3599 47.8063 65.338 47.5952C65.3161 47.4697 65.3051 47.3442 65.2996 47.2187C65.2941 47.0989 65.2886 46.9734 65.2777 46.8422V46.7281C65.2832 46.6939 65.2777 46.6312 65.2667 46.557ZM63.984 46.8137C64.2526 46.6312 64.4719 46.4144 64.6418 46.1577C64.8117 45.901 64.9817 45.65 65.1461 45.3933C65.031 45.2222 64.8994 45.1708 64.7459 45.2336C64.5815 45.2849 64.4445 45.3591 64.3403 45.4561C64.132 45.6386 64.0169 45.844 63.984 46.0778C63.9511 46.3174 63.9511 46.557 63.984 46.8137Z" fill="white"/>
<path d="M69.7671 44.8227C69.8932 44.7714 69.9754 44.7257 70.0138 44.6972C70.2111 44.5888 70.403 44.5375 70.5948 44.5318C70.7867 44.5261 70.984 44.5546 71.1923 44.6173C71.4006 44.6687 71.5706 44.817 71.7021 45.0452C71.7953 45.2163 71.8556 45.4102 71.8776 45.627C71.905 45.8438 71.8995 46.0662 71.8721 46.2887C71.8392 46.5112 71.7789 46.7222 71.6912 46.9276C71.6035 47.1273 71.4938 47.2984 71.3568 47.4353C71.1595 47.635 70.9457 47.7662 70.7154 47.8232C70.4852 47.8802 70.233 47.9088 69.9644 47.8974C69.8822 47.8974 69.8055 47.8917 69.7397 47.8803C69.6739 47.8688 69.5972 47.8574 69.5149 47.846C69.3779 47.846 69.2847 47.8175 69.2189 47.7662C69.1586 47.7148 69.1203 47.6121 69.1093 47.4638C69.0764 47.1672 69.0654 46.8535 69.0654 46.5226V42.809C69.0654 42.7463 69.0709 42.6949 69.0819 42.6664C69.1312 42.4554 69.2573 42.3584 69.4546 42.3812C69.5369 42.3926 69.6081 42.4268 69.6629 42.4839C69.7178 42.5409 69.7507 42.6151 69.7616 42.7007V43.2882C69.7507 43.4993 69.7452 43.7103 69.7452 43.9271V44.566C69.7452 44.6059 69.7506 44.6458 69.7506 44.6858C69.7671 44.7257 69.7671 44.7714 69.7671 44.8227ZM69.7835 47.1159C70.0521 47.2128 70.3207 47.2128 70.5893 47.1159C70.858 47.0189 71.0334 46.8021 71.1156 46.4599C71.1978 46.1632 71.2198 45.8951 71.1759 45.6498C71.143 45.4787 71.0937 45.3703 71.0279 45.3133C70.9621 45.2619 70.8415 45.2391 70.6661 45.2505C70.4578 45.2505 70.2933 45.3133 70.1618 45.4388C70.0357 45.5643 69.8987 45.7012 69.7671 45.8381C69.7561 45.8495 69.7506 45.8837 69.7506 45.9522C69.7616 46.1404 69.7671 46.3344 69.7671 46.5283C69.7671 46.7166 69.7726 46.9162 69.7835 47.1159Z" fill="white"/>
<path d="M76.7553 45.3473C76.7882 45.2618 76.8156 45.1762 76.8375 45.0849C76.8649 44.9937 76.8978 44.9024 76.9362 44.8054C77.0184 44.5715 77.1719 44.4917 77.4021 44.5658C77.6159 44.6514 77.6927 44.8168 77.6159 45.0621L77.1993 46.2543C77.0951 46.5852 76.9746 46.9218 76.8265 47.2754C76.8156 47.2983 76.7937 47.3439 76.7663 47.418C76.7388 47.4922 76.7059 47.5721 76.6731 47.6633C76.6402 47.7546 76.6128 47.8459 76.5908 47.9371C76.5634 48.0284 76.5525 48.0969 76.5525 48.1539C76.5744 48.3992 76.5854 48.6502 76.5908 48.9012C76.5963 49.1579 76.6073 49.4032 76.6292 49.6485C76.6292 49.831 76.5579 49.9508 76.4154 50.0135C76.3332 50.0478 76.251 50.0535 76.1742 50.0307C76.0975 50.0078 76.0372 49.9622 75.9988 49.888C75.9276 49.7511 75.8782 49.5971 75.8618 49.426C75.8508 49.1636 75.8508 48.9012 75.8563 48.6445C75.8618 48.3878 75.8563 48.1311 75.8508 47.863C75.8289 47.6919 75.8015 47.5492 75.7576 47.4352C75.6151 47.0644 75.4671 46.6993 75.3191 46.3342C75.1711 45.9748 75.0231 45.6098 74.8805 45.2504C74.8696 45.2162 74.8641 45.1876 74.8586 45.1648C74.8531 45.1363 74.8476 45.1078 74.8367 45.0792C74.8147 44.9823 74.8312 44.891 74.8805 44.7997C74.9299 44.7085 75.0066 44.6514 75.0943 44.6343C75.2917 44.583 75.4287 44.6571 75.5109 44.8568C75.5603 44.9709 75.5986 45.0849 75.626 45.1933C75.6535 45.3017 75.6864 45.4044 75.7247 45.5128C75.807 45.7238 75.8947 45.9292 75.9878 46.1232C76.081 46.3228 76.1687 46.5225 76.251 46.7221C76.3661 46.5282 76.4593 46.3114 76.5305 46.0661C76.5963 45.8208 76.6731 45.5812 76.7553 45.3473Z" fill="white"/>
<path d="M0.389206 45.1214C0.389206 44.8932 0.411131 44.6422 0.454984 44.3969C0.761961 42.6285 0.871593 40.6035 0.871593 38.47C0.871593 33.2505 0.197342 27.3692 0 22.8285V22.5775C0 19.8965 1.85282 18.3335 3.57957 18.3335C5.04319 18.3335 6.41362 19.4686 6.41362 22.0356C6.41362 22.3779 6.36976 22.7373 6.32591 23.148C6.26013 23.5587 6.21628 24.2375 6.1505 25.1445C6.12857 25.5781 6.10664 26.12 6.06279 26.6904C6.34784 25.7606 6.64933 24.962 6.93438 24.2375C8.22259 21.1286 10.3824 18.2422 13.8085 18.2422H13.8304C17.3003 18.2422 19.3505 22.0128 19.3505 26.0743C19.3505 29.3886 17.9965 32.931 14.9651 34.8135C13.7427 35.5608 12.4106 35.9943 11.106 35.9943C9.77392 35.9943 8.48572 35.538 7.37841 34.5169C6.76446 36.81 6.6603 38.5328 6.6603 40.2384L6.70415 43.0792L6.68223 44.1003C6.63837 46.6673 4.8294 47.9108 3.16844 47.9108C1.71578 47.9165 0.389206 46.9867 0.389206 45.1214ZM13.6276 28.6641C14.6746 27.5061 15.1954 26.1428 15.1954 25.0304C15.1954 23.9865 14.713 23.1708 13.7537 22.9426C13.5563 22.897 13.359 22.8742 13.189 22.8742C10.2234 22.8742 8.69402 28.4588 8.10747 30.8889C8.43638 31.0258 8.80366 31.0714 9.17642 31.0714C10.7058 31.0714 12.4271 30.0503 13.6276 28.6641Z" fill="white"/>
<path d="M34.2171 34.7515L34.2609 34.3236C34.4583 33.1656 34.524 32.0989 34.524 31.0094L34.5021 30.0795C32.7151 33.5079 30.336 35.8695 26.3234 35.8695H25.8629C22.4149 35.7326 20.8252 32.8063 20.8252 29.4007C20.8252 25.1338 23.3578 20.1368 27.8911 18.9788C28.5654 18.7962 29.2451 18.705 29.8975 18.705C31.4926 18.705 32.9508 19.2298 34.1074 20.3821C34.5898 18.4996 35.9822 17.4785 37.2923 17.4785C38.734 17.4785 40.0606 18.6822 40.0606 21.272C40.0606 21.637 40.0387 22.0192 39.9729 22.4528C39.7975 23.702 39.5782 25.1795 39.5782 26.8794C39.5782 28.1971 39.7097 29.646 40.1483 31.2376C40.3895 32.0989 40.4991 32.8519 40.4991 33.5307C40.4991 36.1205 38.8217 37.2101 37.1827 37.2101C35.6807 37.1987 34.2171 36.2688 34.2171 34.7515ZM34.1129 25.9439C33.4825 24.763 32.1066 24.2439 30.7087 24.2439C29.5082 24.2439 28.3077 24.6318 27.6116 25.3107C26.2357 26.6512 25.693 27.8548 25.693 28.8531C25.693 30.2621 26.8496 31.1691 28.3297 31.1691C30.2264 31.1634 32.6931 29.7088 34.1129 25.9439Z" fill="white"/>
<path d="M42.8774 32.7711L42.8335 30.5463C42.8335 29.183 42.8774 27.9565 42.8774 26.7985C42.8774 24.8705 42.7677 23.1192 42.2689 21.2367C42.225 21.0542 42.2031 20.8489 42.2031 20.672C42.2031 19.1261 43.9463 17.9681 45.6292 17.9453C47.1586 17.9453 48.6387 18.8979 48.6387 21.4193C48.6387 21.9213 48.5729 22.486 48.4413 23.1192C48.2001 24.1859 48.1124 25.207 48.1124 26.114C48.1124 26.5932 48.1344 27.021 48.1782 27.4546L48.2221 27.5915C48.7045 21.5049 51.8893 18.145 54.5699 18.145C56.4666 18.145 58.1276 19.8221 58.3468 23.4558C58.4565 25.1329 58.6538 28.5156 58.6538 31.0597C58.6538 31.8983 58.6319 32.6513 58.5661 33.216C58.3687 35.6233 57.2779 36.5075 56.0993 36.5075C54.5918 36.5075 52.9364 35.0072 52.9364 33.3073C52.9364 33.0791 52.9583 32.8737 53.0241 32.6513C53.6106 30.3353 53.8518 28.3616 53.8518 26.8157C53.8518 24.1574 53.1556 22.7085 52.2566 22.7085C51.2096 22.7085 49.8776 24.7735 49.1814 29.3142L49.0279 32.1094C49.0717 32.4288 49.0937 32.7197 49.0937 32.9935C49.0937 35.378 47.63 36.5816 46.1061 36.5816C44.5603 36.5873 42.9651 35.3152 42.8774 32.7711Z" fill="white"/>
<path d="M72.2705 33.0683C70.6151 35.1333 68.5814 36.0403 66.6408 36.0403C65.9008 36.0403 65.1553 35.9034 64.4591 35.6524C61.5593 34.6085 60.293 31.5452 60.293 28.2994C60.293 23.5077 63.0448 18.2882 67.4685 18.2882H67.5124C70.3903 18.3338 71.7882 20.0337 72.594 22.3725L72.6159 19.8968C72.6159 18.4878 72.594 17.1302 72.5501 15.9265C72.5282 15.0424 72.2651 13.4508 72.2651 12.1559C72.2651 11.5684 72.3089 11.0436 72.4624 10.6785C73.049 9.17822 75.1046 7.56958 76.6724 7.56958C77.7632 7.56958 78.6348 8.36249 78.6348 10.5188L78.6129 10.9751C78.3498 16.0121 77.829 21.3742 77.829 26.5481C77.829 27.6377 77.851 28.7044 77.8948 29.7711C77.9167 30.7922 78.0044 31.6536 78.1141 32.2697C78.1579 32.5435 78.2018 32.8173 78.2018 33.0854C78.2018 35.0363 76.7601 36.2399 75.28 36.2399C73.9918 36.2456 72.6598 35.293 72.2705 33.0683ZM72.3583 28.9611V28.5732C71.6182 24.3976 69.2392 22.5779 67.3863 22.5779C66.4051 22.5779 65.5554 23.097 65.1827 24.0553C64.8538 24.8939 64.7003 25.6697 64.7003 26.3713C64.7003 29.0296 66.7504 30.6154 68.9102 30.6154C70.1327 30.6154 71.399 30.1191 72.3583 28.9611Z" fill="white"/>
<path d="M93.4192 34.7515L93.4631 34.3236C93.6604 33.1656 93.7262 32.0989 93.7262 31.0094L93.7043 30.0795C91.9172 33.5079 89.5381 35.8695 85.5255 35.8695H85.0651C81.617 35.7326 80.0273 32.8063 80.0273 29.4007C80.0273 25.1338 82.5599 20.1368 87.0933 18.9788C87.7676 18.7962 88.4473 18.705 89.0996 18.705C90.6948 18.705 92.1529 19.2298 93.3096 20.3821C93.792 18.4996 95.1843 17.4785 96.4945 17.4785C97.9362 17.4785 99.2627 18.6822 99.2627 21.272C99.2627 21.637 99.2408 22.0192 99.175 22.4528C98.9996 23.702 98.7803 25.1795 98.7803 26.8794C98.7803 28.1971 98.9119 29.646 99.3504 31.2376C99.5916 32.0989 99.7013 32.8519 99.7013 33.5307C99.7013 36.1205 98.0239 37.2101 96.3848 37.2101C94.8828 37.1987 93.4192 36.2688 93.4192 34.7515ZM93.3151 25.9439C92.6847 24.763 91.3087 24.2439 89.9109 24.2439C88.7104 24.2439 87.5099 24.6318 86.8137 25.3107C85.4378 26.6512 84.8951 27.8548 84.8951 28.8531C84.8951 30.2621 86.0518 31.1691 87.5373 31.1691C89.4285 31.1634 91.8953 29.7088 93.3151 25.9439Z" fill="white"/>
<path d="M27.4255 50.2549C27.2994 50.3804 27.1788 50.5059 27.0582 50.6314C27.0472 50.62 27.0362 50.6143 27.0198 50.6029C25.0628 49.057 22.3768 47.6423 21.9328 44.7787C21.7793 43.7918 21.9766 42.5996 22.7769 42.1262C23.5608 41.6584 24.5475 42.1033 25.2437 42.7137C25.8412 43.2385 26.351 43.8831 26.7348 44.6133C27.0637 43.9915 27.3926 43.364 27.8366 42.8449C28.2806 42.3201 28.8562 41.9037 29.503 41.8067C29.9416 41.744 30.413 41.8352 30.7474 42.149C30.9612 42.3486 31.1147 42.6167 31.2133 42.9077C31.46 43.615 31.4216 44.4193 31.2078 45.1438C30.9941 45.8683 30.6213 46.5186 30.2156 47.1346C29.4372 48.2983 28.4067 49.2681 27.4255 50.2549Z" fill="white"/>
<path fill-rule="evenodd" clip-rule="evenodd" d="M86.759 0C85.0158 0.136906 83.333 1.1523 82.0776 2.57269C81.8036 2.86362 81.5569 3.18876 81.3321 3.53673C80.4934 4.7974 79.9727 6.25203 79.9727 7.65531C81.7158 5.0484 83.3001 3.06897 84.7143 1.71132C82.878 4.19274 81.3266 6.49732 80.0549 8.62506C83.8866 8.0261 87.1263 3.86188 86.759 0Z" fill="white"/>
<path fill-rule="evenodd" clip-rule="evenodd" d="M87.5769 10.1176C86.6889 9.27337 85.4061 8.86836 84.1289 8.87977C83.8548 8.87406 83.5862 8.89688 83.3121 8.94252C82.309 9.10224 81.3606 9.51295 80.6864 10.1747C82.7639 9.86092 84.4688 9.75254 85.7899 9.84952C83.7287 10.0606 81.8814 10.3344 80.2588 10.671C82.3473 12.3937 85.883 12.1256 87.5769 10.1176Z" fill="white"/>
</svg>
