<svg width="30" height="28" viewBox="0 0 30 28" fill="none" xmlns="http://www.w3.org/2000/svg">
<path fill-rule="evenodd" clip-rule="evenodd" d="M24.4533 1.43047C20.5392 0.60807 16.207 1.68177 12.5712 3.88778C11.7845 4.33377 11.047 4.86531 10.333 5.4533C7.71643 7.59103 5.68478 10.3271 4.8216 13.2958C10.2548 8.89645 14.9591 5.71521 18.8969 3.74317C13.3369 7.82663 8.50308 11.7117 4.40544 15.4056C13.2088 16.5734 22.8952 9.83486 24.4533 1.43047Z" fill="#89A767"/>
<path fill-rule="evenodd" clip-rule="evenodd" d="M20.0483 23.3558C18.6168 21.0023 16.0359 19.3317 13.2143 18.5451C12.6195 18.3601 12.0049 18.2402 11.373 18.1586C9.06607 17.8516 6.73418 18.1204 4.83608 19.0859C9.60663 19.7419 13.4216 20.6059 16.268 21.6546C11.5966 20.7861 7.36687 20.1888 3.5802 19.8711C7.14226 24.8438 15.0921 26.5339 20.0483 23.3558Z" fill="#89A767"/>
</svg>
