<svg width="100" height="83" viewBox="0 0 100 83" fill="none" xmlns="http://www.w3.org/2000/svg">
<path d="M39.0092 77.7155C39.0421 77.6299 39.0695 77.5444 39.0914 77.4531C39.1188 77.3618 39.1517 77.2706 39.1901 77.1736C39.2723 76.9397 39.4258 76.8598 39.656 76.934C39.8698 77.0196 39.9466 77.185 39.8698 77.4303L39.4532 78.6225C39.3491 78.9534 39.2285 79.2899 39.0805 79.6436C39.0695 79.6664 39.0476 79.7121 39.0201 79.7862C38.9927 79.8604 38.9599 79.9402 38.927 80.0315C38.8941 80.1228 38.8667 80.214 38.8447 80.3053C38.8173 80.3966 38.8064 80.465 38.8064 80.5221C38.8283 80.7674 38.8392 81.0184 38.8447 81.2694C38.8502 81.5261 38.8612 81.7713 38.8831 82.0166C38.8831 82.1992 38.8119 82.319 38.6693 82.3817C38.5871 82.4159 38.5049 82.4216 38.4281 82.3988C38.3514 82.376 38.2911 82.3304 38.2527 82.2562C38.1814 82.1193 38.1321 81.9653 38.1157 81.7942C38.1047 81.5318 38.1047 81.2694 38.1102 81.0127C38.1157 80.756 38.1102 80.4993 38.1047 80.2312C38.0828 80.06 38.0554 79.9174 38.0115 79.8033C37.869 79.4325 37.721 79.0675 37.573 78.7024C37.425 78.343 37.277 77.9779 37.1344 77.6185C37.1235 77.5843 37.118 77.5558 37.1125 77.533C37.107 77.5044 37.1015 77.4759 37.0906 77.4474C37.0687 77.3504 37.0851 77.2592 37.1344 77.1679C37.1838 77.0766 37.2605 77.0196 37.3482 77.0025C37.5456 76.9511 37.6826 77.0253 37.7648 77.2249C37.8142 77.339 37.8525 77.4531 37.88 77.5615C37.9074 77.6699 37.9403 77.7726 37.9786 77.8809C38.0608 78.092 38.1486 78.2974 38.2418 78.4913C38.3349 78.691 38.4226 78.8906 38.5049 79.0903C38.62 78.8963 38.7132 78.6796 38.7844 78.4343C38.8502 78.189 38.927 77.9494 39.0092 77.7155Z" fill="#4E4E4E"/>
<path d="M42.9421 79.2186C42.8927 78.9505 42.8653 78.6995 42.8708 78.4599C42.8763 78.2203 42.9256 77.9864 43.0188 77.7525C43.1723 77.3304 43.4573 77.0509 43.8685 76.9254C43.9946 76.8798 44.1206 76.8798 44.2577 76.9083C44.6798 77.0281 44.9484 77.3019 45.0635 77.7354C45.1457 78.0948 45.1786 78.4485 45.1567 78.7965C45.1348 79.1444 45.0416 79.4867 44.8771 79.8232C44.7949 79.9944 44.6852 80.1256 44.5537 80.2111C44.4221 80.3024 44.2796 80.3538 44.1261 80.3652C43.9781 80.3766 43.8246 80.348 43.6766 80.2853C43.5286 80.2225 43.3971 80.1142 43.2819 79.9659C43.1887 79.8461 43.1175 79.7263 43.0681 79.5894C43.0133 79.4582 42.9695 79.3327 42.9421 79.2186ZM44.4112 78.0035C44.4002 77.9807 44.3947 77.9579 44.3947 77.9294C44.3947 77.9009 44.3838 77.8723 44.3618 77.8438C44.2577 77.6213 44.1152 77.57 43.9288 77.6841C43.8027 77.7811 43.715 77.8894 43.6656 78.0206C43.5725 78.2659 43.5341 78.4998 43.556 78.728C43.578 78.9562 43.6437 79.1843 43.7588 79.4068C43.7698 79.4467 43.8027 79.4981 43.852 79.5494C43.9014 79.6122 43.9671 79.6464 44.0439 79.6464C44.1206 79.6464 44.1864 79.6065 44.2358 79.5209C44.2686 79.4696 44.2906 79.4182 44.3125 79.3612C44.4715 78.9334 44.5044 78.4827 44.4112 78.0035Z" fill="#4E4E4E"/>
<path d="M48.1367 77.8754V77.4133V77.2365C48.1696 77.0026 48.2792 76.8942 48.4766 76.917C48.663 76.917 48.7671 77.0311 48.789 77.2536C48.8 77.3791 48.8055 77.5103 48.8055 77.6358C48.8055 77.7613 48.811 77.8868 48.8219 78.0009C48.8329 78.2233 48.8494 78.4458 48.8658 78.6626C48.8877 78.8794 48.9316 79.0961 49.0028 79.3072C49.0357 79.3928 49.0686 79.4669 49.1015 79.5354C49.1399 79.6038 49.1947 79.6437 49.2769 79.6552C49.3592 79.6666 49.4304 79.6437 49.4907 79.581C49.551 79.5239 49.6003 79.4498 49.6277 79.3642C49.6771 79.2387 49.7319 79.1018 49.7812 78.9649C49.8306 78.828 49.8744 78.6854 49.9073 78.5371C49.9402 78.4116 49.9567 78.2804 49.9676 78.1492C49.9786 78.018 49.995 77.8811 50.0115 77.7442L50.0553 77.3106C50.1047 77.0654 50.2253 76.957 50.4116 76.9798C50.5048 77.0026 50.5816 77.0482 50.6364 77.1167C50.6912 77.1852 50.7186 77.2764 50.7077 77.3962C50.6967 77.5445 50.6857 77.6871 50.6748 77.8298C50.6638 77.9667 50.6473 78.1093 50.6309 78.2576C50.598 78.4686 50.5596 78.6797 50.5158 78.8965C50.4719 79.1075 50.4061 79.3186 50.3239 79.5354C50.2746 79.6552 50.2143 79.7635 50.1485 79.8605C50.0827 79.9632 50.0005 80.0545 49.9073 80.14C49.6387 80.3739 49.3701 80.4595 49.096 80.3967C48.8219 80.334 48.6082 80.1343 48.4547 79.7921C48.3615 79.581 48.2957 79.3585 48.2518 79.1304C48.208 78.9022 48.1806 78.6683 48.1587 78.423C48.1477 78.3831 48.1422 78.326 48.1422 78.2633V78.0864C48.1477 78.018 48.1422 77.9495 48.1367 77.8754Z" fill="#4E4E4E"/>
<path d="M58.1587 77.1909C58.2848 77.1395 58.367 77.0939 58.4054 77.0654C58.6027 76.957 58.7946 76.9056 58.9864 76.8999C59.1783 76.8942 59.3756 76.9227 59.5839 76.9855C59.7923 77.0368 59.9622 77.1851 60.0937 77.4133C60.1869 77.5845 60.2472 77.7784 60.2692 77.9952C60.2966 78.2119 60.2911 78.4344 60.2637 78.6569C60.2308 78.8794 60.1705 79.0904 60.0828 79.2958C59.9951 79.4954 59.8854 79.6666 59.7484 79.8035C59.551 80.0031 59.3373 80.1343 59.107 80.1914C58.8768 80.2484 58.6246 80.2769 58.356 80.2655C58.2738 80.2655 58.1971 80.2598 58.1313 80.2484C58.0655 80.237 57.9888 80.2256 57.9065 80.2142C57.7695 80.2142 57.6763 80.1857 57.6105 80.1343C57.5502 80.083 57.5119 79.9803 57.5009 79.832C57.468 79.5354 57.457 79.2216 57.457 78.8908V75.1772C57.457 75.1144 57.4625 75.0631 57.4735 75.0346C57.5228 74.8235 57.6489 74.7265 57.8462 74.7494C57.9285 74.7608 57.9997 74.795 58.0545 74.8521C58.1094 74.9091 58.1422 74.9833 58.1532 75.0688V75.6564C58.1422 75.8674 58.1368 76.0785 58.1368 76.2953V76.9342C58.1368 76.9741 58.1422 77.014 58.1422 77.0539C58.1532 77.0939 58.1587 77.1395 58.1587 77.1909ZM58.1696 79.484C58.4383 79.581 58.7069 79.581 58.9755 79.484C59.2441 79.3871 59.4195 79.1703 59.5017 78.828C59.5839 78.5314 59.6059 78.2633 59.562 78.018C59.5291 77.8469 59.4798 77.7385 59.414 77.6814C59.3482 77.6301 59.2276 77.6073 59.0522 77.6187C58.8439 77.6187 58.6795 77.6814 58.5479 77.8069C58.4218 77.9324 58.2848 78.0693 58.1532 78.2062C58.1422 78.2177 58.1368 78.2519 58.1368 78.3203C58.1477 78.5086 58.1532 78.7025 58.1532 78.8965C58.1587 79.0847 58.1587 79.2844 58.1696 79.484Z" fill="#4E4E4E"/>
<path d="M65.2667 78.9252C65.1735 79.0393 65.0913 79.1419 65.0255 79.2275C64.9597 79.3131 64.883 79.3986 64.8008 79.4842C64.7405 79.547 64.6692 79.6097 64.5979 79.6724C64.5267 79.7352 64.4499 79.7922 64.3677 79.8493C64.132 79.9976 63.9018 80.0204 63.677 79.9234C63.4577 79.8208 63.3207 79.6268 63.2659 79.3416C63.1946 78.9366 63.2001 78.5601 63.2878 78.2007C63.3755 77.847 63.5729 77.5276 63.8853 77.2538C64.143 77.0085 64.4499 76.8773 64.8117 76.8545C65.0913 76.8431 65.338 76.9343 65.5518 77.1226C65.6066 77.1739 65.6559 77.2253 65.7162 77.2766C65.771 77.3222 65.8258 77.3793 65.8807 77.442C65.9136 77.4934 65.941 77.5561 65.9684 77.6189C65.9958 77.6816 66.0068 77.7444 66.0068 77.8128C66.0177 77.9326 66.0177 78.041 66.0177 78.1551C66.0122 78.2692 66.0068 78.3833 66.0068 78.4973C66.0068 78.6799 66.0122 78.8624 66.0177 79.045C66.0232 79.2332 66.0232 79.4158 66.0232 79.5926C66.0232 79.6439 66.0232 79.7067 66.0287 79.7694C66.0342 79.8322 66.0342 79.8949 66.0342 79.9634C66.0013 80.1973 65.8807 80.3056 65.6614 80.2828C65.4641 80.2828 65.3599 80.1744 65.338 79.9634C65.3161 79.8379 65.3051 79.7124 65.2996 79.5869C65.2941 79.4671 65.2886 79.3416 65.2777 79.2104V79.0963C65.2832 79.0621 65.2777 78.9993 65.2667 78.9252ZM63.984 79.1819C64.2526 78.9993 64.4719 78.7826 64.6418 78.5259C64.8117 78.2692 64.9817 78.0182 65.1461 77.7615C65.031 77.5904 64.8994 77.539 64.7459 77.6017C64.5815 77.6531 64.4445 77.7272 64.3403 77.8242C64.132 78.0068 64.0169 78.2121 63.984 78.446C63.9511 78.6856 63.9511 78.9252 63.984 79.1819Z" fill="#4E4E4E"/>
<path d="M69.7671 77.1909C69.8932 77.1395 69.9754 77.0939 70.0138 77.0654C70.2111 76.957 70.403 76.9056 70.5948 76.8999C70.7867 76.8942 70.984 76.9227 71.1923 76.9855C71.4006 77.0368 71.5706 77.1851 71.7021 77.4133C71.7953 77.5845 71.8556 77.7784 71.8776 77.9952C71.905 78.2119 71.8995 78.4344 71.8721 78.6569C71.8392 78.8794 71.7789 79.0904 71.6912 79.2958C71.6035 79.4954 71.4938 79.6666 71.3568 79.8035C71.1595 80.0031 70.9457 80.1343 70.7154 80.1914C70.4852 80.2484 70.233 80.2769 69.9644 80.2655C69.8822 80.2655 69.8055 80.2598 69.7397 80.2484C69.6739 80.237 69.5972 80.2256 69.5149 80.2142C69.3779 80.2142 69.2847 80.1857 69.2189 80.1343C69.1586 80.083 69.1203 79.9803 69.1093 79.832C69.0764 79.5354 69.0654 79.2216 69.0654 78.8908V75.1772C69.0654 75.1144 69.0709 75.0631 69.0819 75.0346C69.1312 74.8235 69.2573 74.7265 69.4546 74.7494C69.5369 74.7608 69.6081 74.795 69.6629 74.8521C69.7178 74.9091 69.7507 74.9833 69.7616 75.0688V75.6564C69.7507 75.8674 69.7452 76.0785 69.7452 76.2953V76.9342C69.7452 76.9741 69.7506 77.014 69.7506 77.0539C69.7671 77.0939 69.7671 77.1395 69.7671 77.1909ZM69.7835 79.484C70.0521 79.581 70.3207 79.581 70.5893 79.484C70.858 79.3871 71.0334 79.1703 71.1156 78.828C71.1978 78.5314 71.2198 78.2633 71.1759 78.018C71.143 77.8469 71.0937 77.7385 71.0279 77.6814C70.9621 77.6301 70.8415 77.6073 70.6661 77.6187C70.4578 77.6187 70.2933 77.6814 70.1618 77.8069C70.0357 77.9324 69.8987 78.0693 69.7671 78.2062C69.7561 78.2177 69.7506 78.2519 69.7506 78.3203C69.7616 78.5086 69.7671 78.7025 69.7671 78.8965C69.7671 79.0847 69.7726 79.2844 69.7835 79.484Z" fill="#4E4E4E"/>
<path d="M76.7553 77.7155C76.7882 77.6299 76.8156 77.5444 76.8375 77.4531C76.8649 77.3618 76.8978 77.2706 76.9362 77.1736C77.0184 76.9397 77.1719 76.8598 77.4021 76.934C77.6159 77.0196 77.6927 77.185 77.6159 77.4303L77.1993 78.6225C77.0951 78.9534 76.9746 79.2899 76.8265 79.6436C76.8156 79.6664 76.7937 79.7121 76.7663 79.7862C76.7388 79.8604 76.7059 79.9402 76.6731 80.0315C76.6402 80.1228 76.6128 80.214 76.5908 80.3053C76.5634 80.3966 76.5525 80.465 76.5525 80.5221C76.5744 80.7674 76.5854 81.0184 76.5908 81.2694C76.5963 81.5261 76.6073 81.7713 76.6292 82.0166C76.6292 82.1992 76.5579 82.319 76.4154 82.3817C76.3332 82.4159 76.251 82.4216 76.1742 82.3988C76.0975 82.376 76.0372 82.3304 75.9988 82.2562C75.9276 82.1193 75.8782 81.9653 75.8618 81.7942C75.8508 81.5318 75.8508 81.2694 75.8563 81.0127C75.8618 80.756 75.8563 80.4993 75.8508 80.2312C75.8289 80.06 75.8015 79.9174 75.7576 79.8033C75.6151 79.4325 75.4671 79.0675 75.3191 78.7024C75.1711 78.343 75.0231 77.9779 74.8805 77.6185C74.8696 77.5843 74.8641 77.5558 74.8586 77.533C74.8531 77.5044 74.8476 77.4759 74.8367 77.4474C74.8147 77.3504 74.8312 77.2592 74.8805 77.1679C74.9299 77.0766 75.0066 77.0196 75.0943 77.0025C75.2917 76.9511 75.4287 77.0253 75.5109 77.2249C75.5603 77.339 75.5986 77.4531 75.626 77.5615C75.6535 77.6699 75.6864 77.7726 75.7247 77.8809C75.807 78.092 75.8947 78.2974 75.9878 78.4913C76.081 78.691 76.1687 78.8906 76.251 79.0903C76.3661 78.8963 76.4593 78.6796 76.5305 78.4343C76.5963 78.189 76.6731 77.9494 76.7553 77.7155Z" fill="#4E4E4E"/>
<path d="M0.389206 77.4895C0.389206 77.2614 0.411131 77.0104 0.454984 76.7651C0.761961 74.9967 0.871593 72.9716 0.871593 70.8382C0.871593 65.6187 0.197342 59.7374 0 55.1967V54.9457C0 52.2646 1.85282 50.7016 3.57957 50.7016C5.04319 50.7016 6.41362 51.8368 6.41362 54.4038C6.41362 54.7461 6.36976 55.1054 6.32591 55.5161C6.26013 55.9269 6.21628 56.6057 6.1505 57.5127C6.12857 57.9462 6.10664 58.4881 6.06279 59.0586C6.34784 58.1288 6.64933 57.3301 6.93438 56.6057C8.22259 53.4968 10.3824 50.6104 13.8085 50.6104H13.8304C17.3003 50.6104 19.3505 54.381 19.3505 58.4425C19.3505 61.7568 17.9965 65.2992 14.9651 67.1817C13.7427 67.9289 12.4106 68.3625 11.106 68.3625C9.77392 68.3625 8.48572 67.9061 7.37841 66.885C6.76446 69.1782 6.6603 70.9009 6.6603 72.6066L6.70415 75.4473L6.68223 76.4684C6.63837 79.0354 4.8294 80.279 3.16844 80.279C1.71578 80.2847 0.389206 79.3549 0.389206 77.4895ZM13.6276 61.0323C14.6746 59.8743 15.1954 58.511 15.1954 57.3986C15.1954 56.3547 14.713 55.539 13.7537 55.3108C13.5563 55.2652 13.359 55.2423 13.189 55.2423C10.2234 55.2423 8.69402 60.827 8.10747 63.257C8.43638 63.3939 8.80366 63.4396 9.17642 63.4396C10.7058 63.4396 12.4271 62.4185 13.6276 61.0323Z" fill="#89867F"/>
<path d="M34.2171 67.1196L34.2609 66.6918C34.4583 65.5338 34.524 64.4671 34.524 63.3775L34.5021 62.4477C32.7151 65.8761 30.336 68.2377 26.3234 68.2377H25.8629C22.4149 68.1008 20.8252 65.1744 20.8252 61.7689C20.8252 57.502 23.3578 52.5049 27.8911 51.3469C28.5654 51.1644 29.2451 51.0731 29.8975 51.0731C31.4926 51.0731 32.9508 51.5979 34.1074 52.7502C34.5898 50.8678 35.9822 49.8467 37.2923 49.8467C38.734 49.8467 40.0606 51.0503 40.0606 53.6401C40.0606 54.0052 40.0387 54.3874 39.9729 54.8209C39.7975 56.0702 39.5782 57.5476 39.5782 59.2475C39.5782 60.5653 39.7097 62.0142 40.1483 63.6057C40.3895 64.4671 40.4991 65.2201 40.4991 65.8989C40.4991 68.4887 38.8217 69.5782 37.1827 69.5782C35.6807 69.5668 34.2171 68.637 34.2171 67.1196ZM34.1129 58.312C33.4825 57.1312 32.1066 56.6121 30.7087 56.6121C29.5082 56.6121 28.3077 57 27.6116 57.6788C26.2357 59.0194 25.693 60.223 25.693 61.2213C25.693 62.6303 26.8496 63.5373 28.3297 63.5373C30.2264 63.5316 32.6931 62.0769 34.1129 58.312Z" fill="#89867F"/>
<path d="M42.8774 65.1392L42.8335 62.9145C42.8335 61.5512 42.8774 60.3247 42.8774 59.1667C42.8774 57.2386 42.7677 55.4874 42.2689 53.6049C42.225 53.4224 42.2031 53.217 42.2031 53.0402C42.2031 51.4943 43.9463 50.3363 45.6292 50.3135C47.1586 50.3135 48.6387 51.2661 48.6387 53.7875C48.6387 54.2894 48.5729 54.8542 48.4413 55.4874C48.2001 56.5541 48.1124 57.5752 48.1124 58.4822C48.1124 58.9614 48.1344 59.3892 48.1782 59.8227L48.2221 59.9596C48.7045 53.873 51.8893 50.5131 54.5699 50.5131C56.4666 50.5131 58.1276 52.1902 58.3468 55.8239C58.4565 57.501 58.6538 60.8837 58.6538 63.4279C58.6538 64.2665 58.6319 65.0194 58.5661 65.5842C58.3687 67.9914 57.2779 68.8756 56.0993 68.8756C54.5918 68.8756 52.9364 67.3754 52.9364 65.6754C52.9364 65.4473 52.9583 65.2419 53.0241 65.0194C53.6106 62.7034 53.8518 60.7297 53.8518 59.1838C53.8518 56.5256 53.1556 55.0767 52.2566 55.0767C51.2096 55.0767 49.8776 57.1416 49.1814 61.6824L49.0279 64.4775C49.0717 64.797 49.0937 65.0879 49.0937 65.3617C49.0937 67.7461 47.63 68.9498 46.1061 68.9498C44.5603 68.9555 42.9651 67.6834 42.8774 65.1392Z" fill="#89867F"/>
<path d="M72.2705 65.4362C70.6151 67.5012 68.5814 68.4082 66.6408 68.4082C65.9008 68.4082 65.1553 68.2713 64.4591 68.0203C61.5593 66.9764 60.293 63.9131 60.293 60.6673C60.293 55.8756 63.0448 50.6561 67.4685 50.6561H67.5124C70.3903 50.7017 71.7882 52.4016 72.594 54.7404L72.6159 52.2647C72.6159 50.8557 72.594 49.4981 72.5501 48.2945C72.5282 47.4103 72.2651 45.8187 72.2651 44.5238C72.2651 43.9363 72.3089 43.4115 72.4624 43.0464C73.049 41.5461 75.1046 39.9375 76.6724 39.9375C77.7632 39.9375 78.6348 40.7304 78.6348 42.8867L78.6129 43.343C78.3498 48.38 77.829 53.7422 77.829 58.9161C77.829 60.0056 77.851 61.0723 77.8948 62.1391C77.9167 63.1601 78.0044 64.0215 78.1141 64.6376C78.1579 64.9114 78.2018 65.1852 78.2018 65.4533C78.2018 67.4042 76.7601 68.6078 75.28 68.6078C73.9918 68.6136 72.6598 67.6609 72.2705 65.4362ZM72.3583 61.329V60.9411C71.6182 56.7655 69.2392 54.9458 67.3863 54.9458C66.4051 54.9458 65.5554 55.4649 65.1827 56.4232C64.8538 57.2618 64.7003 58.0376 64.7003 58.7392C64.7003 61.3975 66.7504 62.9833 68.9102 62.9833C70.1327 62.9833 71.399 62.487 72.3583 61.329Z" fill="#89867F"/>
<path d="M93.4192 67.1196L93.4631 66.6918C93.6604 65.5338 93.7262 64.4671 93.7262 63.3775L93.7043 62.4477C91.9172 65.8761 89.5381 68.2377 85.5255 68.2377H85.0651C81.617 68.1008 80.0273 65.1744 80.0273 61.7689C80.0273 57.502 82.5599 52.5049 87.0933 51.3469C87.7676 51.1644 88.4473 51.0731 89.0996 51.0731C90.6948 51.0731 92.1529 51.5979 93.3096 52.7502C93.792 50.8678 95.1843 49.8467 96.4945 49.8467C97.9362 49.8467 99.2627 51.0503 99.2627 53.6401C99.2627 54.0052 99.2408 54.3874 99.175 54.8209C98.9996 56.0702 98.7803 57.5476 98.7803 59.2475C98.7803 60.5653 98.9119 62.0142 99.3504 63.6057C99.5916 64.4671 99.7013 65.2201 99.7013 65.8989C99.7013 68.4887 98.0239 69.5782 96.3848 69.5782C94.8828 69.5668 93.4192 68.637 93.4192 67.1196ZM93.3151 58.312C92.6847 57.1312 91.3087 56.6121 89.9109 56.6121C88.7104 56.6121 87.5099 57 86.8137 57.6788C85.4378 59.0194 84.8951 60.223 84.8951 61.2213C84.8951 62.6303 86.0518 63.5373 87.5373 63.5373C89.4285 63.5316 91.8953 62.0769 93.3151 58.312Z" fill="#89867F"/>
<path d="M27.4255 82.6231C27.2994 82.7486 27.1788 82.8741 27.0582 82.9996C27.0472 82.9882 27.0362 82.9825 27.0198 82.9711C25.0628 81.4252 22.3768 80.0105 21.9328 77.1469C21.7793 76.16 21.9766 74.9678 22.7769 74.4943C23.5608 74.0266 24.5475 74.4715 25.2437 75.0819C25.8412 75.6067 26.351 76.2513 26.7348 76.9814C27.0637 76.3597 27.3926 75.7322 27.8366 75.2131C28.2806 74.6883 28.8562 74.2719 29.503 74.1749C29.9416 74.1121 30.413 74.2034 30.7474 74.5171C30.9612 74.7168 31.1147 74.9849 31.2133 75.2758C31.46 75.9832 31.4216 76.7875 31.2078 77.512C30.9941 78.2364 30.6213 78.8867 30.2156 79.5028C29.4372 80.6665 28.4067 81.6362 27.4255 82.6231Z" fill="#D39F9A"/>
<path fill-rule="evenodd" clip-rule="evenodd" d="M86.759 32.3682C85.0158 32.5051 83.333 33.5205 82.0776 34.9409C81.8036 35.2318 81.5569 35.5569 81.3321 35.9049C80.4934 37.1656 79.9727 38.6202 79.9727 40.0235C81.7158 37.4166 83.3001 35.4371 84.7143 34.0795C82.878 36.5609 81.3266 38.8655 80.0549 40.9932C83.8866 40.3943 87.1263 36.23 86.759 32.3682Z" fill="#89A767"/>
<path fill-rule="evenodd" clip-rule="evenodd" d="M87.5769 42.4858C86.6889 41.6415 85.4061 41.2365 84.1289 41.2479C83.8548 41.2422 83.5862 41.265 83.3121 41.3107C82.309 41.4704 81.3606 41.8811 80.6864 42.5428C82.7639 42.2291 84.4688 42.1207 85.7899 42.2177C83.7287 42.4287 81.8814 42.7026 80.2588 43.0391C82.3473 44.7618 85.883 44.4937 87.5769 42.4858Z" fill="#89A767"/>
<path d="M65.1016 5.22593C65.8745 3.20086 66.8557 1.38116 68.8401 0.559727C71.4713 -0.518406 73.9436 -0.0278247 76.0431 1.93449C77.6931 3.47468 78.9813 5.3172 79.5021 7.58185C79.9899 9.70959 79.4308 11.6605 78.0932 13.3547C77.3751 14.2674 76.5145 14.9919 75.4236 15.3741C74.4643 15.7106 73.9765 15.4767 73.664 14.4956C72.2826 10.1602 69.4102 7.26811 65.4579 5.40847C65.3647 5.36284 65.2715 5.31149 65.1016 5.22593Z" fill="#4E4E4E"/>
<path d="M20.1019 8.92711C20.0909 7.72348 20.3814 6.59401 20.9899 5.57862C22.3932 3.22841 24.0158 1.04362 26.7676 0.370496C30.8022 -0.610662 33.4937 1.35165 34.771 5.40178C34.9135 5.84672 34.5846 5.87525 34.3269 5.97793C32.2494 6.78225 30.4075 7.96877 28.8123 9.57171C27.4419 10.9522 26.4497 12.5779 25.7316 14.3976C25.3534 15.356 24.871 15.5556 23.9226 15.1734C21.7683 14.295 20.0964 11.5682 20.1019 8.92711Z" fill="#4E4E4E"/>
<path d="M35.5976 31.8541C34.9124 31.7057 34.2162 31.6031 33.5474 31.4034C30.083 30.3595 27.6546 28.2489 27.0242 24.3927C26.6733 22.2193 26.9584 20.1201 28.126 18.2433C30.1268 15.026 32.7635 12.5047 36.1951 10.9987C38.174 10.1317 40.268 9.95483 42.3894 10.3484C44.33 10.7135 45.7497 11.8202 46.435 13.7426C47.6629 17.1994 48.0137 20.7704 46.7748 24.2615C45.2783 28.477 42.1976 30.89 37.9438 31.7057C37.73 31.7457 37.5217 31.8027 37.3079 31.8541H35.5976Z" fill="#4E4E4E"/>
<path d="M51.9062 20.6041C52.0652 18.02 52.438 15.5043 53.2657 13.0629C54.1702 10.4103 56.0614 9.18386 58.6926 9.01272C62.2119 8.78455 65.0898 10.0966 67.4524 12.789C70.0398 15.7439 71.1307 19.2122 70.9498 23.1368C70.7908 26.6336 68.1541 29.8623 64.5416 30.8948C59.3504 32.378 53.633 29.6113 52.1913 23.8955C51.9227 22.8516 51.994 21.7107 51.9062 20.6041Z" fill="#4E4E4E"/>
<path d="M43.3596 24.4891C43.3596 26.0578 42.3619 27.3356 41.1285 27.3356C39.8951 27.3356 38.8975 26.0635 38.8975 24.4891C38.8975 22.9204 39.8951 21.6426 41.1285 21.6426C42.3619 21.6483 43.3596 22.9204 43.3596 24.4891Z" fill="white"/>
<path d="M60.1291 24.4031C60.1291 25.9719 59.1314 27.2496 57.8981 27.2496C56.6647 27.2496 55.667 25.9776 55.667 24.4031C55.667 22.8344 56.6647 21.5566 57.8981 21.5566C59.1314 21.5566 60.1291 22.8344 60.1291 24.4031Z" fill="white"/>
<path d="M60.332 39.0192V39.1561C60.2224 39.293 60.0908 39.4128 60.0031 39.5611C58.6601 41.7973 56.6812 42.5388 54.2473 42.0654C51.5832 41.5406 48.9465 41.5463 46.2824 42.0597C43.8814 42.5274 41.908 41.8258 40.5704 39.6125C40.4717 39.4471 40.3237 39.3044 40.2031 39.1504V39.0135C40.3128 39.082 40.4388 39.1276 40.5211 39.2189C41.9573 40.8389 43.7498 41.5006 45.8329 41.204C47.0608 41.0272 48.2668 40.6735 49.4782 40.3826C50.0648 40.24 50.2895 39.7437 50.0209 39.1789C49.9277 38.985 49.7687 38.8025 49.5933 38.677C48.5957 37.9468 47.5651 37.268 46.5893 36.515C45.6684 35.8019 44.6982 35.1174 43.9472 34.2389C43.0975 33.2464 43.5799 32.1682 44.8187 31.9344C44.901 31.9172 44.9832 31.883 45.0654 31.8545H45.5917C46.0192 31.9344 46.4578 31.9686 46.8744 32.0998C49.5495 32.9497 52.1752 32.5105 54.801 31.8545H55.5903C55.7383 31.9001 55.8809 31.9743 56.0234 31.98C56.7031 32.0028 56.906 32.4534 56.9388 33.0524C56.9827 33.9594 56.5003 34.6097 55.8535 35.1003C54.801 35.9046 53.6882 36.6177 52.6192 37.3935C51.9614 37.8726 51.2927 38.3518 50.7061 38.9165C50.1251 39.4756 50.3553 40.2 51.1063 40.3997C52.0601 40.6507 53.0085 40.9302 53.9678 41.1242C55.9795 41.5235 57.8433 41.204 59.444 39.7893C59.751 39.5326 60.0415 39.2759 60.332 39.0192Z" fill="#4E4E4E"/>
</svg>
