<svg width="400" height="430" viewBox="0 0 400 430" fill="none" xmlns="http://www.w3.org/2000/svg">
<path fill-rule="evenodd" clip-rule="evenodd" d="M0 428.717L399.42 430C399.42 430 396.342 421.096 390.867 405.861C390.537 404.954 390.2 404.024 389.855 403.071L389.159 401.152L388.96 400.601L388.938 400.54C388.185 398.461 387.397 396.287 386.576 394.024C362.427 327.662 308.055 184.153 256.655 89.8831C227.657 36.6738 199.604 -0.86503 178.453 0.0151583C164.178 0.603324 138.139 44.507 108.876 104.193L108.875 104.194C108.884 104.22 108.897 104.242 108.909 104.265L108.909 104.265C108.917 104.278 108.925 104.292 108.931 104.306C108.934 104.312 108.936 104.317 108.939 104.323C108.941 104.33 108.944 104.337 108.946 104.344C120.843 128.075 153.734 138.923 185.54 149.413C224.405 162.245 264.594 175.515 269.008 213.34C273.607 252.676 246.338 279.022 224.407 300.21L224.356 300.259C199.22 324.515 185.869 339.292 203.333 360.907C233.502 398.215 288.262 395.957 336.572 393.944C354.812 393.185 372.016 392.477 386.575 394.024C387.478 396.51 388.339 398.888 389.159 401.152C389.75 402.783 390.319 404.354 390.866 405.863C376.382 403.428 357.419 404.208 337.045 405.049C288.625 407.058 228.378 409.546 194.695 367.9C169.967 337.326 193.704 314.409 216.646 292.271L216.727 292.193C237.928 271.703 261.938 248.496 257.979 214.612C254.389 183.844 219.255 172.243 182.044 159.965L181.953 159.935C150.948 149.693 119.006 139.142 103.071 116.14C103.557 115.127 104.043 114.118 104.528 113.114C104.043 114.118 103.557 115.126 103.072 116.138C102.856 116.588 102.638 117.039 102.42 117.491L102.42 117.492C101.795 118.79 101.165 120.097 100.545 121.415C62.8918 200.308 37.0858 298.435 20.2188 362.571C10.9303 397.89 4.3526 422.901 0 428.717ZM247.339 92.2167C245.816 97.9162 234.276 89.6115 229.507 86.1802L229.506 86.1796C228.86 85.7143 228.338 85.3388 227.983 85.0999C223.341 81.9811 216.867 80.0813 212.351 83.3792C208.436 86.2386 207.789 91.5226 207.184 96.466C207.104 97.1238 207.024 97.7755 206.937 98.4147C206.178 104.009 204.455 109.472 201.867 114.489C200.368 117.394 198.312 120.361 195.173 121.276C190.85 122.536 186.526 119.418 183.402 116.174C177.131 109.659 172.285 101.778 169.304 93.2404C168.131 89.8834 166.464 85.7603 162.915 85.5079C160.143 85.3105 157.967 87.7079 156.123 89.7898C147.147 99.9298 135.208 107.414 122.17 111.073C120.9 111.429 119.432 111.721 118.348 110.969C117.102 110.103 117.002 108.314 117.158 106.802C117.808 100.478 120.665 94.6182 123.566 88.9605C135.733 65.234 149.498 42.3267 164.735 20.445C167.204 16.8999 169.979 13.1756 174.073 11.7958C178.315 10.3661 182.992 11.8161 186.982 13.8472C195.409 18.1392 202.29 24.9182 208.632 31.9333C216.959 41.1443 224.369 51.1337 231.204 61.4894C234.7 66.7889 238.047 72.187 241.319 77.63C241.902 78.6013 242.584 79.5676 243.274 80.5466C244.872 82.8116 246.517 85.1444 247.111 87.7639C247.564 89.7573 247.609 91.2073 247.339 92.2167ZM120.112 178.822C120.112 183.255 119.119 190.013 119.119 190.013H126.759C126.759 190.013 125.766 183.255 125.766 178.822C125.766 174.389 126.759 167.631 126.759 167.631H119.119C119.119 167.631 120.112 174.389 120.112 178.822ZM119.119 214.129C119.119 214.129 120.112 207.372 120.112 202.938C120.112 198.505 119.119 191.747 119.119 191.747H126.759C126.759 191.747 125.766 198.505 125.766 202.938C125.766 207.372 126.759 214.129 126.759 214.129H119.119ZM120.112 227.058C120.112 231.492 119.119 238.249 119.119 238.249H126.759C126.759 238.249 125.766 231.492 125.766 227.058C125.766 222.626 126.759 215.867 126.759 215.867H119.119C119.119 215.867 120.112 222.626 120.112 227.058ZM119.12 262.367C119.12 262.367 120.113 255.61 120.113 251.176C120.113 246.744 119.12 239.985 119.12 239.985H126.76C126.76 239.985 125.767 246.744 125.767 251.176C125.767 255.61 126.76 262.367 126.76 262.367H119.12ZM109.973 204.113C104.393 198.459 100.329 185.89 100.329 185.89C100.329 185.89 111.745 194.714 113.979 198.129C116.213 201.544 118.111 207.276 117.255 208.052C116.4 208.828 112.244 206.414 109.973 204.113ZM99.6121 208.896C99.6121 208.896 107.569 212.496 112.58 214.745C114.557 215.632 117.085 215.46 117.407 214.756C117.73 214.053 116.443 212.394 114.267 210.756C109 206.791 99.6121 208.896 99.6121 208.896ZM133.281 241.685C137.86 238.652 145.126 233.806 145.126 233.806C145.126 233.806 135.523 233.255 130.968 238.023C129.088 239.993 128.088 241.84 128.521 242.481C128.952 243.123 131.476 242.881 133.281 241.685ZM141.994 201.263C141.994 201.263 136.504 208.055 133.037 212.315C131.67 213.995 129.334 214.978 128.731 214.494C128.126 214.011 128.53 211.949 129.738 209.509C132.662 203.599 141.994 201.263 141.994 201.263ZM129.702 230.864C131.833 226.781 136.411 224.969 136.411 224.969C136.411 224.969 133.678 231.915 132.377 233.637C131.076 235.359 129.659 235.945 129.19 235.433C128.721 234.92 128.863 232.475 129.702 230.864ZM136.064 189.4C136.064 189.4 130.561 193.643 128.768 198.834C128.062 200.882 128.459 203.385 129.189 203.643C129.917 203.902 131.614 202.564 132.892 200.158C134.172 197.754 136.064 189.4 136.064 189.4ZM186.666 237.123C186.666 241.724 185.635 248.737 185.635 248.737H193.563C193.563 248.737 192.532 241.724 192.532 237.123C192.532 232.522 193.563 225.509 193.563 225.509H185.635C185.635 225.509 186.666 232.522 186.666 237.123ZM185.635 273.768C185.635 273.768 186.666 266.755 186.666 262.154C186.666 257.553 185.635 250.541 185.635 250.541H193.563C193.563 250.541 192.532 257.553 192.532 262.154C192.532 266.755 193.563 273.768 193.563 273.768H185.635ZM176.252 237.648C170.689 231.563 166.974 218.368 166.974 218.368C166.974 218.368 178.461 227.972 180.644 231.601C182.824 235.231 184.565 241.25 183.647 242.021C182.73 242.792 178.516 240.124 176.252 237.648ZM165.273 241.556C165.273 241.556 173.531 245.292 178.732 247.626C180.781 248.546 183.405 248.367 183.74 247.638C184.075 246.908 182.74 245.185 180.482 243.485C175.015 239.371 165.273 241.556 165.273 241.556ZM199.455 247.13C203.053 242.71 208.752 235.661 208.752 235.661C208.752 235.661 199.066 238.086 196.031 244.219C194.779 246.751 194.359 248.89 194.986 249.392C195.612 249.894 198.038 248.874 199.455 247.13ZM73.8505 308.555C73.8505 308.555 74.8539 301.731 74.8539 297.255C74.8539 292.779 73.8505 285.955 73.8505 285.955H81.5647C81.5647 285.955 80.5624 292.779 80.5624 297.255C80.5624 301.731 81.5647 308.555 81.5647 308.555H73.8505ZM74.8539 321.606C74.8539 326.083 73.8505 332.906 73.8505 332.906H81.5647C81.5647 332.906 80.5624 326.083 80.5624 321.606C80.5624 317.13 81.5647 310.306 81.5647 310.306H73.8505C73.8505 310.306 74.8539 317.13 74.8539 321.606ZM73.8505 357.26C73.8505 357.26 74.8539 350.436 74.8539 345.96C74.8539 341.484 73.8505 334.66 73.8505 334.66H81.5647C81.5647 334.66 80.5624 341.484 80.5624 345.96C80.5624 350.436 81.5647 357.26 81.5647 357.26H73.8505ZM74.8539 370.314C74.8539 374.79 73.8505 381.614 73.8505 381.614H81.5647C81.5647 381.614 80.5624 374.79 80.5624 370.314C80.5624 365.837 81.5647 359.013 81.5647 359.013H73.8505C73.8505 359.013 74.8539 365.837 74.8539 370.314ZM73.8505 405.968C73.8505 405.968 74.8539 399.144 74.8539 394.668C74.8539 390.192 73.8505 383.368 73.8505 383.368H81.5647C81.5647 383.368 80.5624 390.192 80.5624 394.668C80.5624 399.144 81.5647 405.968 81.5647 405.968H73.8505ZM64.0852 374.279C58.7512 368.288 55.3037 355.403 55.3037 355.403C55.3037 355.403 66.3574 364.893 68.4343 368.453C70.5101 372.012 72.127 377.889 71.2244 378.628C70.3219 379.367 66.2567 376.717 64.0852 374.279ZM51.2695 293.686C51.2695 293.686 55.936 306.181 61.8196 311.633C64.2149 313.852 68.5151 316.1 69.3434 315.278C70.1707 314.457 67.9982 308.76 65.5906 305.417C63.1831 302.072 51.2695 293.686 51.2695 293.686ZM83.3141 285.956C85.2719 279.159 93.8194 271.489 93.8194 271.489C93.8194 271.489 90.2132 285.622 88.5423 288.808C86.8725 291.994 84.988 294.509 84.0223 294.13C83.0577 293.752 82.5183 288.723 83.3141 285.956ZM53.499 379.548C53.499 379.548 61.5336 383.183 66.594 385.453C68.5884 386.349 71.1425 386.175 71.4671 385.465C71.7937 384.755 70.4943 383.079 68.2974 381.426C62.9776 377.422 53.499 379.548 53.499 379.548ZM66.594 322.426C61.5336 320.156 53.499 316.52 53.499 316.52C53.499 316.52 62.9776 314.393 68.2974 318.399C70.4943 320.052 71.7937 321.728 71.4671 322.437C71.1425 323.148 68.5884 323.322 66.594 322.426ZM96.1618 290.461C96.1618 290.461 90.7575 297.431 87.3466 301.803C86.0024 303.527 83.6631 304.567 83.0434 304.092C82.4237 303.616 82.789 301.527 83.9582 299.038C86.789 293.012 96.1618 290.461 96.1618 290.461ZM87.5759 378.43C89.7901 374.339 88.7206 369.484 88.7206 369.484C88.7206 369.484 84.451 375.695 83.7448 377.757C83.0386 379.82 83.3489 381.336 84.0419 381.44C84.7359 381.542 86.7028 380.042 87.5759 378.43ZM138.849 317.031C138.849 317.031 139.905 309.841 139.905 305.125C139.905 300.409 138.849 293.22 138.849 293.22H146.976C146.976 293.22 145.92 300.409 145.92 305.125C145.92 309.841 146.976 317.031 146.976 317.031H138.849ZM139.905 330.782C139.905 335.499 138.849 342.688 138.849 342.688H146.976C146.976 342.688 145.92 335.499 145.92 330.782C145.92 326.066 146.976 318.877 146.976 318.877H138.849C138.849 318.877 139.905 326.066 139.905 330.782ZM138.849 368.346C138.849 368.346 139.905 361.157 139.905 356.44C139.905 351.724 138.849 344.535 138.849 344.535H146.976C146.976 344.535 145.92 351.724 145.92 356.44C145.92 361.157 146.976 368.346 146.976 368.346H138.849ZM139.905 382.102C139.905 386.818 138.849 394.007 138.849 394.007H146.976C146.976 394.007 145.92 386.818 145.92 382.102C145.92 377.385 146.976 370.196 146.976 370.196H138.849C138.849 370.196 139.905 377.385 139.905 382.102ZM159.213 301.45C159.213 301.45 150.791 312.699 149.308 321.02C148.704 324.406 149.159 329.499 150.359 329.765C151.56 330.031 155.372 324.862 156.966 320.824C158.559 316.786 159.213 301.45 159.213 301.45ZM153.669 338.733C157.263 334.125 162.957 326.782 162.957 326.782C162.957 326.782 153.081 329.47 150.098 335.819C148.867 338.441 148.483 340.642 149.136 341.143C149.789 341.645 152.252 340.549 153.669 338.733ZM162.957 361.022C162.957 361.022 157.263 368.365 153.669 372.973C152.252 374.789 149.789 375.885 149.136 375.383C148.483 374.883 148.867 372.682 150.098 370.059C153.081 363.71 162.957 361.022 162.957 361.022ZM134.662 311.083C132.235 306.827 127.296 305.083 127.296 305.083C127.296 305.083 130.477 312.358 131.93 314.137C133.381 315.916 134.91 316.483 135.389 315.92C135.867 315.356 135.62 312.761 134.662 311.083ZM152.717 352.18C152.717 352.18 154.506 357.103 152.758 361.681C152.068 363.486 150.221 365.324 149.482 365.313C148.743 365.302 148.21 363.76 148.663 361.508C149.116 359.257 152.717 352.18 152.717 352.18ZM313.561 275.296C313.561 279.73 312.567 286.487 312.567 286.487H320.207C320.207 286.487 319.214 279.73 319.214 275.296C319.214 270.864 320.207 264.105 320.207 264.105H312.567C312.567 264.105 313.561 270.864 313.561 275.296ZM312.567 310.607C312.567 310.607 313.561 303.849 313.561 299.415C313.561 294.983 312.567 288.224 312.567 288.224H320.207C320.207 288.224 319.214 294.983 319.214 299.415C319.214 303.849 320.207 310.607 320.207 310.607H312.567ZM313.561 323.534C313.561 327.967 312.567 334.725 312.567 334.725H320.207C320.207 334.725 319.214 327.967 319.214 323.534C319.214 319.101 320.207 312.343 320.207 312.343H312.567C312.567 312.343 313.561 319.101 313.561 323.534ZM312.567 358.843C312.567 358.843 313.561 352.085 313.561 347.652C313.561 343.218 312.567 336.461 312.567 336.461H320.207C320.207 336.461 319.214 343.218 319.214 347.652C319.214 352.085 320.207 358.843 320.207 358.843H312.567ZM303.428 300.588C297.847 294.934 293.783 282.365 293.783 282.365C293.783 282.365 305.199 291.189 307.433 294.604C309.667 298.018 311.565 303.75 310.71 304.527C309.855 305.303 305.699 302.889 303.428 300.588ZM293.063 305.371C293.063 305.371 301.02 308.971 306.03 311.22C308.007 312.107 310.535 311.934 310.858 311.231C311.18 310.528 309.893 308.868 307.717 307.231C302.451 303.266 293.063 305.371 293.063 305.371ZM326.735 338.161C331.314 335.127 338.581 330.282 338.581 330.282C338.581 330.282 328.977 329.73 324.423 334.499C322.542 336.469 321.542 338.315 321.975 338.957C322.406 339.599 324.931 339.356 326.735 338.161ZM335.447 297.738C335.447 297.738 329.956 304.531 326.489 308.79C325.122 310.47 322.786 311.453 322.183 310.97C321.578 310.486 321.982 308.425 323.19 305.985C326.115 300.075 335.447 297.738 335.447 297.738ZM323.156 327.34C325.287 323.256 329.865 321.444 329.865 321.444C329.865 321.444 327.132 328.39 325.831 330.113C324.531 331.834 323.113 332.421 322.644 331.909C322.175 331.396 322.317 328.951 323.156 327.34ZM329.513 285.875C329.513 285.875 324.01 290.118 322.217 295.31C321.511 297.357 321.908 299.861 322.638 300.119C323.366 300.377 325.064 299.039 326.342 296.634C327.621 294.229 329.513 285.875 329.513 285.875ZM256.741 327.52C256.741 332.12 255.71 339.133 255.71 339.133H263.639C263.639 339.133 262.608 332.12 262.608 327.52C262.608 322.918 263.639 315.906 263.639 315.906H255.71C255.71 315.906 256.741 322.918 256.741 327.52ZM255.71 364.16C255.71 364.16 256.741 357.147 256.741 352.547C256.741 347.947 255.71 340.934 255.71 340.934H263.639C263.639 340.934 262.608 347.947 262.608 352.547C262.608 357.147 263.639 364.16 263.639 364.16H255.71ZM246.328 328.038C240.766 321.954 237.051 308.759 237.051 308.759C237.051 308.759 248.538 318.362 250.721 321.991C252.901 325.622 254.642 331.641 253.725 332.412C252.806 333.182 248.593 330.514 246.328 328.038ZM235.352 331.949C235.352 331.949 243.61 335.686 248.81 338.019C250.86 338.94 253.484 338.761 253.818 338.031C254.154 337.302 252.818 335.579 250.56 333.879C245.094 329.765 235.352 331.949 235.352 331.949ZM269.532 337.521C273.128 333.101 278.828 326.052 278.828 326.052C278.828 326.052 269.142 328.477 266.108 334.61C264.854 337.143 264.435 339.282 265.062 339.783C265.689 340.285 268.114 339.266 269.532 337.521Z" fill="url(#paint0_linear_818_3788)"/>
<defs>
<linearGradient id="paint0_linear_818_3788" x1="199.71" y1="0" x2="199.71" y2="430" gradientUnits="userSpaceOnUse">
<stop stop-color="#F5F5F5"/>
<stop offset="1" stop-color="#99B1B8"/>
</linearGradient>
</defs>
</svg>
