<svg width="576" height="555" viewBox="0 0 576 555" fill="none" xmlns="http://www.w3.org/2000/svg">
<path d="M575.234 389.133L556.402 389.523L547.727 389.711L525.846 390.163L517.343 390.347L500.099 390.707L491.693 390.887L462.353 391.492L454.316 391.666L431.942 392.132L424.137 392.302L387.678 393.067L380.139 393.22L351.027 393.833L343.703 393.982L304.496 394.805C307.288 378.351 312.746 354.28 319.946 326.002C321.086 321.476 322.277 316.85 323.515 312.119C331.913 279.913 342.352 242.678 353.354 206.058C355.561 198.685 357.807 191.426 360.061 184.182L360.059 184.164C360.041 184.147 360.041 184.147 360.056 184.127C360.037 184.111 360.037 184.111 360.051 184.091C366.814 162.166 373.6 141.185 379.962 122.761C382.57 115.181 385.087 108.051 387.501 101.528C396.572 76.9069 403.724 61.0177 407.25 60.2158C424.257 56.3472 422.3 74.5685 436.868 99.0536L436.869 99.0761C440.139 104.527 443.557 110.434 447.113 116.678V116.699C450.631 122.917 454.261 129.454 457.978 136.26C462.273 144.096 466.667 152.274 471.082 160.62C486.522 189.772 502.309 220.971 516.296 249.516C516.279 249.534 516.277 249.551 516.292 249.566C519.261 255.616 522.152 261.498 524.944 267.265C524.925 267.282 524.924 267.299 524.94 267.313C534.034 286.156 542.148 303.391 548.677 317.657C548.693 317.657 548.691 317.67 548.689 317.684C552.833 326.75 556.383 334.649 559.159 341.123C559.173 341.136 559.171 341.149 559.169 341.162C560.429 344.115 561.55 346.762 562.492 349.083C571.974 372.354 575.234 389.133 575.234 389.133Z" fill="#BFCDC8"/>
<path d="M556.401 389.523L547.726 389.711C547.942 387.737 548.161 385.74 548.352 383.743C550.352 362.846 550.507 340.771 548.688 317.684C552.832 326.751 556.382 334.649 559.158 341.123C559.172 341.136 559.17 341.15 559.168 341.162C559.275 357.915 558.342 374.053 556.401 389.523Z" fill="#F5F5F5"/>
<path d="M525.845 390.168L517.342 390.352C516.73 384.777 516.181 379.104 515.696 373.331C513.445 346.305 512.859 316.963 514.145 285.132C514.611 273.625 515.323 261.773 516.291 249.572C519.26 255.622 522.151 261.504 524.942 267.271C524.924 267.287 524.923 267.304 524.939 267.319C523.174 291.645 522.478 314.538 522.784 336.064C523.042 355.071 524.088 373.083 525.845 390.168Z" fill="#F5F5F5"/>
<path d="M500.098 390.708L491.692 390.887C491.108 387.811 490.518 384.71 489.939 381.572C482.915 343.752 476.433 301.627 470.523 254.451C466.009 218.508 461.82 179.257 457.978 136.26C462.272 144.096 466.666 152.274 471.082 160.62C471.702 167.959 472.349 175.182 472.985 182.275C477.967 237.229 483.683 285.848 490.033 329.165C493.209 350.853 496.571 371.336 500.098 390.708Z" fill="#F5F5F5"/>
<path d="M351.023 393.833L343.699 393.981C335.832 372.719 327.926 350.091 319.942 326.002C321.083 321.476 322.273 316.85 323.511 312.119C330.893 335.496 338.219 357.498 345.486 378.252C347.334 383.519 349.179 388.713 351.023 393.833Z" fill="#F5F5F5"/>
<path d="M462.352 391.494L454.315 391.668C452.592 383.215 450.899 374.552 449.26 365.67C441.737 324.739 435.497 278.692 434.244 226.251C433.33 187.759 434.601 145.549 436.868 99.078C440.137 104.529 443.554 110.436 447.111 116.68V116.701C446.599 125.677 446.151 134.5 445.765 143.133C444.288 175.916 443.604 206.458 444.233 234.932C444.818 261.395 446.683 286.207 449.377 309.461C452.778 338.963 457.489 366.175 462.352 391.494Z" fill="#F5F5F5"/>
<path d="M431.944 392.139L424.138 392.309C423.557 388.841 422.985 385.328 422.406 381.791L398.952 238.627C393.146 203.17 386.828 164.687 379.964 122.768C382.571 115.188 385.089 108.058 387.502 101.535C390.293 119.728 392.967 137.295 395.563 154.224C405.405 218.606 414.015 274.832 421.581 324.347C425.244 348.33 428.701 370.894 431.944 392.139Z" fill="#F5F5F5"/>
<path d="M387.674 393.066L380.135 393.219C378.975 385.086 377.783 376.749 376.565 368.222C372.078 336.848 367.169 302.626 361.805 265.12C359.12 246.331 356.31 226.664 353.351 206.056C355.558 198.684 357.804 191.425 360.058 184.181C361.179 192.665 362.276 200.991 363.356 209.163C369.009 251.937 374.135 290.739 378.821 326.087C381.947 349.807 384.897 372.083 387.674 393.066Z" fill="#F5F5F5"/>
<path d="M420.317 394.308C416 396.471 410.995 396.561 406.18 396.61C354.703 397.176 303.225 397.751 251.735 397.506C211.581 398.038 170.329 403.444 130.724 394.442C104.517 388.465 93.3163 394.21 104.044 342.108C114.002 293.732 128.669 252.786 140.47 212.038C142.237 205.939 170.477 141.642 184.315 117.434C194.075 100.376 203.357 82.706 210.139 61.4874C210.272 61.0814 210.405 60.6755 210.529 60.2696C214.547 47.4271 218.662 34.3993 225.853 23.0573C236.466 6.29503 251.683 -2.4457 265.201 0.598393C273.85 2.54888 281.812 9.32291 287.422 21.9196C287.837 22.8584 288.261 23.7711 288.685 24.6919C289.222 25.862 289.731 27.0312 290.25 28.1653C307.838 67.1084 327.273 105.133 345.903 143.559C350.766 153.572 355.559 163.609 360.256 173.7C362.184 177.847 364.096 182.002 365.998 186.174C367.97 190.516 369.932 194.891 371.86 199.259C372.846 201.482 373.831 203.705 374.817 205.93C388.045 235.676 401.823 265.284 411.725 296.367C417.545 314.605 444.354 382.313 420.317 394.308Z" fill="#CEB4AF"/>
<path d="M323.903 122.389C322.626 125.332 319.843 127.683 316.543 127.278C311.003 126.599 310.313 119.896 308.69 115.715C307.607 112.919 305.437 110.113 302.472 110C299.258 109.878 296.911 112.845 294.464 114.957C288.843 119.81 279.786 120.514 274.055 115.794C266.987 109.972 268.221 91.2552 257.149 90.9276C252.813 90.798 249.432 94.6296 247.163 98.3713C243.104 105.067 240.402 112.604 235.675 118.836C230.95 125.067 223.284 129.972 215.704 128.277C207.381 126.415 202.398 117.168 202.223 108.544C202.049 99.9213 205.483 91.7071 208.463 83.627C217.021 60.4318 229.319 2.35915 265.204 14.6921C288.515 22.7029 293.498 49.3688 302.352 69.2751C306.418 78.4164 310.779 87.4209 315.426 96.2732C319.142 103.356 325.296 111.079 324.626 119.545C324.55 120.506 324.298 121.476 323.903 122.389Z" fill="white"/>
<path d="M171.717 267.791C175.057 279.026 178.397 290.261 181.737 301.496C181.928 302.133 181.47 302.779 180.812 302.804C173.157 303.085 165.502 303.367 157.846 303.65C157.141 303.675 156.629 302.976 156.862 302.301C160.025 293.13 167.13 274.666 169.82 267.711C170.169 266.813 171.442 266.868 171.717 267.791Z" fill="#F5F5F5"/>
<path d="M249.01 266.884C242.789 268.936 237.079 270.354 230.035 269.842C229.461 269.801 229.041 269.271 229.116 268.695C229.718 264.125 232.33 245.973 236.696 238.941C237.114 238.268 238.111 238.344 238.444 239.064C241.232 245.076 249.928 266.58 249.01 266.884Z" fill="#F5F5F5"/>
<path d="M335.229 312.459C328.752 313.39 322.884 313.787 316.035 312.047C315.477 311.906 315.154 311.312 315.327 310.757C316.702 306.361 322.382 288.941 327.886 282.781C328.414 282.191 329.381 282.44 329.587 283.209C331.302 289.619 336.186 312.322 335.229 312.459Z" fill="#F5F5F5"/>
<path d="M357.69 330.66L370.387 362.866C370.642 363.512 370.195 364.22 369.508 364.257C362.333 364.649 355.157 365.038 347.982 365.429C347.254 365.47 346.723 364.733 346.994 364.048C350.939 354.06 353.28 340.284 357.394 330.696L357.69 330.66Z" fill="#F5F5F5"/>
<path d="M167.431 354.113C169.309 363.691 171.189 373.27 173.068 382.85C173.195 383.497 172.686 384.095 172.034 384.062C167.035 383.816 162.034 383.569 157.034 383.322C156.423 383.292 155.982 382.725 156.095 382.116C157.679 373.586 163.04 359.96 165.519 353.919C165.899 352.991 167.237 353.126 167.431 354.113Z" fill="#F5F5F5"/>
<path d="M194.855 328.069C195.373 328.68 196.221 328.859 197.006 328.983C203.043 329.927 209.263 329.65 215.192 328.169C216.361 327.877 212.797 306.689 209.89 297.044C209.641 296.213 208.539 296.068 208.084 296.805C204.888 301.959 195.958 316.897 194.5 325.126C194.32 326.134 194.198 327.292 194.855 328.069Z" fill="#F5F5F5"/>
<path d="M241.486 378.433C235.719 379.171 220.853 378.159 221.113 377.447C223.924 369.73 225.861 348.467 234.333 346.565C234.675 346.488 235.026 346.627 235.263 346.887C240.431 352.527 241.622 378.415 241.486 378.433Z" fill="#F5F5F5"/>
<path d="M401.791 327.315C401.932 327.954 401.448 328.553 400.801 328.546C395.041 328.484 389.281 328.481 383.521 328.538C386.671 320.481 389.649 310.574 394.621 303.408C395.118 302.694 396.221 302.913 396.424 303.762C397.659 308.956 400.481 321.431 401.791 327.315Z" fill="#F5F5F5"/>
<path d="M313.557 335.816C317.796 349.072 321.243 364.167 325.203 377.352C325.392 377.983 324.947 378.623 324.296 378.656C314.5 379.158 309.406 378.261 302.309 379.322C301.636 379.422 301.06 378.827 301.177 378.149C303.05 367.32 309.301 344.293 311.632 335.85C311.901 334.878 313.25 334.857 313.557 335.816Z" fill="#F5F5F5"/>
<path d="M370.379 221.906C370.436 221.983 370.482 222.069 370.515 222.159L384.745 260.936C385.05 261.765 385.351 262.702 384.98 263.503C384.472 264.602 383.042 264.803 381.846 264.857C373.475 265.232 365.105 265.607 356.735 265.981C356.089 266.01 355.579 265.422 355.697 264.777C358.39 250.116 362.744 235.767 368.647 222.103C368.956 221.389 369.918 221.281 370.379 221.906Z" fill="#F5F5F5"/>
<path d="M287.328 321.209C287.571 321.884 287.066 322.595 286.356 322.575C266.657 322.032 266.254 323.037 257.891 322.147C259.859 317.424 269.386 296.834 272.419 290.292C272.784 289.504 273.891 289.513 274.241 290.308C276.961 296.475 285.1 315.021 287.328 321.209Z" fill="#F5F5F5"/>
<path d="M88.8616 473.473C89.1384 480.94 89.3088 482.46 93.6532 488.501C95.53 490.907 95.8068 491.298 94.4865 489.671C95.7829 490.991 97.1591 492.271 98.6153 493.512C98.767 493.641 105.827 498.729 102.087 496.338C105.518 498.531 109.386 500.458 113.32 502.204C109.239 500.393 119.88 504.388 121.227 504.774C122.691 505.192 134.939 507.502 129.048 506.747C130.669 506.954 140.697 507.758 138.421 507.715C141.932 507.782 154.837 506.061 157.443 505.201C158.78 504.761 169.308 501.222 166.218 502.508C169.918 500.969 173.381 499.105 176.695 497.205C181.522 494.439 186.374 490.775 191.6 485.31C193.849 482.835 194.267 482.406 192.854 484.021C194.012 482.5 195.087 480.953 196.085 479.381C198.077 476.241 199.512 472.975 201.436 469.816C215.958 446.007 274.197 454.627 267.46 481.427C256.868 523.551 195.122 556.845 133.16 554.921C71.5797 553.009 23.1308 515.6 25.0554 474.217C25.5585 463.427 41.741 455.011 56.4833 455C70.7944 454.991 88.4516 462.411 88.8616 473.473Z" fill="#F5F5F5"/>
<path d="M225.229 196.45C235.443 193.635 246.869 194.901 255.99 200.397C262.88 204.482 268.403 210.933 271.142 218.488C273.523 224.954 273.764 232.021 272.933 238.804C271.947 246.745 268.472 254.23 263.534 260.476C261.185 263.238 258.542 265.731 255.888 268.198C254.151 265.56 252.558 262.83 251.03 260.069C245.942 251.318 240.108 242.943 233.148 235.571C224.677 226.579 214.548 219.276 203.813 213.228C208.607 205.319 216.269 198.987 225.229 196.45Z" fill="#4E4E4E"/>
<path d="M26.1636 199.517C34.453 197.126 43.5736 197.297 51.6271 200.493C59.2517 203.522 65.5251 209.179 70.6832 215.436C59.7986 223.758 49.0051 232.562 40.8015 243.661C35.52 250.637 31.1609 258.267 27.4022 266.16C26.3298 268.406 25.1502 270.605 23.8901 272.755C23.1663 272.24 22.4425 271.72 21.7186 271.216C17.413 268.262 13.4774 264.776 9.9922 260.894C4.71612 255.002 0.994977 247.549 0.185335 239.635C-0.0720345 235.897 -0.12565 232.123 0.44807 228.418C2.75367 214.997 13.1182 203.399 26.1636 199.517Z" fill="#4E4E4E"/>
<path d="M192.393 262.3C196.951 261.468 201.615 262.391 205.932 263.897C212.832 266.262 218.977 270.568 223.835 275.978C230.264 283.141 235.502 291.549 238.092 300.878C239.309 305.441 239.706 310.422 238.103 314.948C236.553 319.248 233.004 322.465 229.17 324.76C224.044 327.881 217.964 329.151 212.012 329.001C204.822 328.958 197.551 326.883 191.755 322.545C186.474 318.631 182.517 313.168 179.643 307.307C176.667 301.259 175.423 294.492 175.214 287.795C175.101 283.109 175.509 278.31 177.267 273.924C179.787 267.72 185.916 263.468 192.393 262.3ZM195.782 300.492C194.146 301.913 192.388 303.473 191.776 305.634C191.246 307.398 192.452 308.959 193.283 310.401C196.264 308.331 199.026 305.897 202.366 304.406C205.685 302.717 209.412 302.149 212.795 300.632C211.331 300.406 209.819 300.267 208.388 300.712C204.586 301.79 200.913 303.382 197.605 305.559C196.2 306.487 194.688 307.248 193.106 307.833C193.197 306.562 193.165 305.146 194.093 304.149C196.747 300.878 200.506 298.444 204.65 297.586C206.945 297.12 209.487 297.2 211.524 298.471C213.669 299.763 214.827 302.079 216.012 304.192C216.393 304.213 217.16 304.251 217.54 304.272C217.31 303.157 217.202 301.945 216.484 301.023C214.296 298.176 210.806 296.417 207.213 296.358C203.015 296.063 198.929 297.806 195.782 300.492Z" fill="#4E4E4E"/>
<path d="M78.7259 264.98C81.5892 264.444 84.5757 264.277 87.4282 264.969C94.5381 266.669 100.474 272.594 102.109 279.725C103.058 283.945 103.16 288.315 102.785 292.615C102.216 299.778 101.122 307.065 97.8946 313.569C95.4121 318.776 91.6534 323.537 86.5864 326.422C80.7902 329.821 73.8466 330.663 67.2408 330.164C61.2301 329.751 55.2999 327.918 50.2169 324.663C47.5413 322.931 45.1714 320.566 43.9113 317.601C42.7424 314.91 42.5548 311.891 42.914 309.006C44.8067 295.108 51.7557 281.913 62.3293 272.663C66.962 268.674 72.7206 266.074 78.7259 264.98ZM70.6938 296.631C67.659 296.878 64.1738 298.089 62.8762 301.097C62.3829 302.041 62.8065 303.156 63.6483 303.735C66.029 303.494 68.2703 302.186 70.7099 302.545C74.179 303.022 77.4873 304.776 79.75 307.467C80.7902 308.583 81.6267 309.95 82.9564 310.76C84.0395 311.006 85.1762 310.357 85.6534 309.382C86.6615 307.285 86.4256 304.604 84.9457 302.781C81.6213 298.508 75.986 296.524 70.6938 296.631Z" fill="#4E4E4E"/>
<path d="M137.058 291.602C141.117 290.916 145.337 291.361 149.219 292.712C151.085 293.377 152.919 294.235 154.409 295.564C157.063 297.918 158.238 301.881 157.144 305.28C156.205 308.079 153.514 309.988 150.704 310.594C148.13 311.114 145.492 311.076 142.892 311.312C143.09 313.956 143.208 316.615 143.664 319.237C144.254 322.663 146.114 325.784 148.538 328.245C151.809 331.5 156.801 333.248 161.331 331.977C165.213 330.819 168.318 327.929 170.629 324.696C171.599 323.484 172.382 321.918 173.953 321.393C174.425 322.261 174.329 323.237 173.749 324.041C171.401 327.838 168.168 331.291 164.002 333.071C160.318 334.658 155.959 334.803 152.291 333.098C147.83 331.108 144.506 327.167 142.581 322.744C141.31 325.339 140.05 328.02 137.986 330.095C135.546 332.577 132.393 334.594 128.855 334.883C125.745 335.173 122.742 333.998 120.04 332.594C116.066 330.524 112.619 327.344 110.463 323.403C110.034 322.481 109.257 321.242 110.195 320.379C112.061 321.623 112.871 323.832 114.281 325.5C117.579 329.596 122.41 333.006 127.852 332.953C133.557 332.829 138.254 328.1 139.879 322.883C140.865 318.926 140.297 314.781 139.584 310.835C136.592 310.851 133.369 311.677 130.56 310.261C127.434 308.572 125.364 304.899 125.868 301.334C126.222 298.68 127.67 296.213 129.702 294.487C131.766 292.755 134.447 292.02 137.058 291.602Z" fill="#4E4E4E"/>
<path d="M66.0188 299.421C68.6354 297.678 71.9758 297.807 74.941 298.343C78.5978 298.997 82.2492 300.793 84.3028 303.994C85.3537 305.549 85.8041 307.849 84.3564 309.319C82.9677 309.222 82.1795 307.908 81.2465 307.051C78.8069 304.284 75.579 302.053 71.8793 301.447C69.1823 300.997 66.5443 301.946 63.8955 302.289C64.4692 301.249 64.9572 300.059 66.0188 299.421Z" fill="#4E4E4E"/>
<path d="M8.29333 362.851C9.96623 360.615 12.6901 359.532 15.3978 359.231C21.3012 363.617 26.8936 368.459 33.2475 372.207C40.5503 376.534 48.443 379.885 56.6467 382.084C61.5742 383.403 66.5661 384.47 71.5902 385.349C91.5739 388.797 111.89 389.885 132.142 389.837C138.549 389.805 144.957 389.88 151.359 389.494C173.75 388.11 196.27 385.805 217.857 379.397C229.765 375.907 241.347 371.301 252.398 365.666C256.435 363.607 260.365 361.301 264.596 359.66C268.762 359.392 272.671 362.02 274.875 365.424C276.885 368.406 276.891 372.239 276.328 375.666C275.561 379.751 272.612 382.915 269.749 385.73C262.344 393.086 253.02 398.416 243.014 401.344C240.923 401.944 238.821 402.491 236.741 403.118C235.738 414.979 233.899 426.748 231.862 438.469C229.524 451.901 226.677 465.246 222.982 478.372C220.001 488.876 216.42 499.187 212.849 509.498C211.637 514.141 210.248 518.865 207.342 522.768C205.792 524.876 203.53 526.447 200.999 527.117C197.353 528.077 193.38 527.985 189.868 526.575C187.106 525.465 184.881 523.31 183.358 520.79C181.535 517.793 180.634 514.372 179.696 511.031C178.318 505.862 177.031 500.672 176.039 495.418C175.739 493.997 175.492 492.527 174.769 491.257C171.97 490.812 169.128 491.267 166.313 491.3C150.806 491.653 135.295 491.82 119.783 491.675C118.389 491.702 116.93 491.611 115.611 492.147C114.828 493.112 114.485 494.345 114.121 495.514C111.911 503.332 109.879 511.224 106.802 518.758C105.794 521.267 104.217 523.61 101.976 525.176C98.6301 527.519 94.362 528.243 90.3513 527.932C87.7616 527.728 85.456 526.275 83.708 524.425C80.6946 521.251 78.6785 517.251 77.3274 513.122C75.9708 508.999 74.3354 504.978 72.9414 500.871C68.7537 489.101 64.9254 477.203 61.4509 465.209C56.0837 446.523 52.6735 427.311 50.6092 407.992C45.0168 406.078 39.4082 404.121 34.1697 401.338C24.454 396.432 16.0251 389.017 9.91797 380.009C7.98234 377.172 6.85635 373.81 6.66868 370.384C6.50782 367.81 6.54536 364.931 8.29333 362.851ZM199.476 409.815C191.894 410.652 184.318 411.51 176.736 412.314C148.705 415.51 120.367 415.606 92.2494 413.51C88.5229 413.284 84.8393 412.523 81.0968 412.518C81.8635 425.182 85.9171 437.836 93.6703 447.976C99.7185 455.927 108.18 461.852 117.423 465.52C126.335 469.048 135.992 470.41 145.541 470.265C157.986 470.211 170.533 466.828 180.945 459.922C187.991 455.338 194.146 449.343 198.666 442.239C205.047 432.324 208.146 420.571 208.859 408.882C205.717 409.027 202.597 409.451 199.476 409.815Z" fill="#4E4E4E"/>
<path d="M125.723 196.145C137.31 195.067 149.047 195.7 160.484 197.812C171.782 200.155 182.854 203.641 193.401 208.327C196.859 209.984 200.355 211.56 203.813 213.228C214.548 219.276 224.676 226.579 233.148 235.57C240.108 242.943 245.941 251.318 251.03 260.069C252.558 262.83 254.151 265.559 255.888 268.197C257.18 270.353 258.081 272.718 259.121 275.007C264.37 287.57 267.528 301.012 268.359 314.604C268.585 318.004 269.051 321.398 268.885 324.813C268.402 332.62 267.523 340.406 266.477 348.159C265.947 352.009 264.901 355.778 264.595 359.66C260.365 361.301 256.435 363.607 252.397 365.665C241.346 371.301 229.765 375.907 217.856 379.397C196.269 385.805 173.749 388.11 151.358 389.494C144.956 389.88 138.549 389.805 132.141 389.837C111.889 389.885 91.5733 388.797 71.5897 385.349C66.5656 384.47 61.5737 383.403 56.6461 382.084C48.4425 379.885 40.5498 376.534 33.2469 372.207C26.8931 368.459 21.3007 363.617 15.3973 359.231C15.7083 357.29 15.8959 355.312 15.6439 353.36C14.8772 347.982 14.3625 342.561 14.1641 337.135C14.207 329.618 14.148 322.1 14.1855 314.583C14.9201 301.243 17.5206 287.967 22.2444 275.452C22.9039 274.026 22.2551 272.551 21.7189 271.216C22.4428 271.72 23.1666 272.24 23.8905 272.755C25.1505 270.605 26.3301 268.407 27.4025 266.16C31.1612 258.267 35.5204 250.637 40.8018 243.662C49.0055 232.562 59.7989 223.758 70.6835 215.437C76.0722 211.919 81.7343 208.767 87.7182 206.375C99.8735 201.399 112.549 197.196 125.723 196.145ZM192.393 262.299C185.915 263.468 179.787 267.72 177.267 273.924C175.508 278.31 175.101 283.109 175.213 287.795C175.422 294.492 176.666 301.259 179.642 307.307C182.516 313.167 186.473 318.631 191.754 322.545C197.551 326.883 204.821 328.958 212.012 329.001C217.963 329.151 224.044 327.88 229.17 324.76C233.003 322.465 236.553 319.248 238.102 314.948C239.706 310.422 239.309 305.441 238.092 300.878C235.502 291.548 230.263 283.141 223.835 275.978C218.977 270.567 212.832 266.262 205.931 263.897C201.615 262.391 196.95 261.468 192.393 262.299ZM78.7263 264.98C72.721 266.074 66.9624 268.675 62.3297 272.664C51.7561 281.913 44.8071 295.109 42.9144 309.007C42.5551 311.891 42.7428 314.91 43.9117 317.602C45.1717 320.567 47.5417 322.931 50.2173 324.663C55.3003 327.918 61.2305 329.752 67.2412 330.165C73.847 330.663 80.7906 329.821 86.5868 326.422C91.6538 323.537 95.4124 318.776 97.895 313.57C101.123 307.066 102.217 299.779 102.785 292.615C103.16 288.315 103.058 283.945 102.109 279.725C100.474 272.594 94.5384 266.669 87.4286 264.97C84.5761 264.278 81.5895 264.444 78.7263 264.98ZM137.058 291.602C134.447 292.02 131.766 292.755 129.702 294.487C127.669 296.213 126.222 298.68 125.868 301.334C125.364 304.899 127.434 308.572 130.559 310.261C133.369 311.677 136.592 310.851 139.584 310.835C140.297 314.781 140.865 318.926 139.878 322.883C138.254 328.1 133.557 332.829 127.852 332.953C122.409 333.006 117.578 329.596 114.281 325.5C112.871 323.832 112.061 321.623 110.195 320.379C109.257 321.242 110.034 322.481 110.463 323.403C112.619 327.344 116.066 330.524 120.039 332.593C122.742 333.998 125.745 335.173 128.854 334.883C132.393 334.593 135.546 332.577 137.986 330.095C140.05 328.02 141.31 325.339 142.581 322.744C144.506 327.167 147.83 331.108 152.291 333.098C155.959 334.803 160.318 334.658 164.001 333.071C168.168 331.291 171.401 327.837 173.749 324.041C174.328 323.237 174.425 322.261 173.953 321.393C172.382 321.918 171.599 323.484 170.629 324.695C168.318 327.929 165.213 330.819 161.331 331.977C156.8 333.248 151.809 331.5 148.538 328.245C146.114 325.784 144.254 322.663 143.664 319.237C143.208 316.615 143.09 313.956 142.892 311.312C145.492 311.076 148.13 311.114 150.704 310.594C153.514 309.988 156.205 308.079 157.144 305.28C158.237 301.881 157.063 297.918 154.409 295.564C152.918 294.235 151.085 293.377 149.219 292.712C145.337 291.361 141.117 290.916 137.058 291.602ZM223.545 331.473C220.494 331.703 217.363 332.293 214.719 333.907C210.671 336.384 208.773 341.843 210.371 346.298C212.451 350.722 217.454 353.205 222.215 353.215C227.845 353.414 233.909 350.776 236.66 345.682C238.258 342.32 238.676 337.628 235.733 334.867C232.564 331.736 227.77 331.323 223.545 331.473ZM55.681 334.679C53.1663 335.237 50.673 336.202 48.6677 337.848C46.8554 339.333 45.7347 341.671 45.9117 344.03C46.0886 346.883 47.8473 349.403 50.035 351.146C54.7319 354.995 61.6434 355.451 67.0964 353.028C70.7425 351.339 74.1151 347.843 73.8953 343.559C73.8792 340.577 71.7291 338.164 69.3162 336.679C65.3377 334.036 60.2493 333.795 55.681 334.679Z" fill="white"/>
<path d="M199.476 409.816C202.597 409.451 205.717 409.028 208.859 408.883C208.146 420.572 205.047 432.325 198.666 442.239C194.146 449.343 187.991 455.338 180.945 459.922C170.533 466.829 157.986 470.212 145.541 470.265C135.991 470.41 126.335 469.048 117.423 465.52C108.179 461.853 99.7185 455.928 93.6703 447.976C85.917 437.837 81.8634 425.183 81.0967 412.518C84.8393 412.524 88.5229 413.285 92.2494 413.51C120.367 415.607 148.704 415.51 176.736 412.314C184.318 411.51 191.894 410.652 199.476 409.816Z" fill="white"/>
<path d="M70.6946 296.631C75.9868 296.524 81.6221 298.508 84.9464 302.781C86.4263 304.604 86.6622 307.285 85.6542 309.382C85.177 310.357 84.0403 311.006 82.9572 310.76C81.6274 309.95 80.791 308.583 79.7508 307.467C77.4881 304.776 74.1798 303.022 70.7107 302.545C68.271 302.186 66.0298 303.494 63.6491 303.736C62.8073 303.156 62.3837 302.041 62.877 301.098C64.1746 298.09 67.6598 296.878 70.6946 296.631ZM66.019 299.419C64.9574 300.057 64.4695 301.248 63.8958 302.288C66.5445 301.945 69.1825 300.996 71.8796 301.446C75.5793 302.052 78.8071 304.282 81.2467 307.049C82.1797 307.907 82.9679 309.221 84.3566 309.317C85.8043 307.848 85.3539 305.548 84.303 303.993C82.2494 300.792 78.598 298.996 74.9412 298.342C71.9761 297.805 68.6356 297.677 66.019 299.419Z" fill="#EAF4E2"/>
<path d="M195.781 300.493C198.929 297.806 203.014 296.064 207.213 296.359C210.805 296.418 214.296 298.176 216.483 301.023C217.202 301.946 217.309 303.157 217.54 304.273C217.159 304.251 216.392 304.214 216.012 304.192C214.827 302.08 213.669 299.763 211.524 298.471C209.486 297.2 206.945 297.12 204.65 297.586C200.505 298.444 196.746 300.879 194.092 304.149C193.165 305.147 193.197 306.562 193.106 307.833C194.688 307.249 196.2 306.487 197.604 305.56C200.913 303.383 204.586 301.79 208.387 300.712C209.819 300.267 211.331 300.407 212.795 300.632C209.411 302.149 205.685 302.718 202.366 304.407C199.025 305.897 196.264 308.332 193.283 310.401C192.452 308.959 191.245 307.399 191.776 305.635C192.387 303.474 194.146 301.914 195.781 300.493Z" fill="#E9F1DE"/>
<path d="M223.545 331.474C227.77 331.323 232.563 331.736 235.732 334.868C238.676 337.629 238.258 342.321 236.66 345.682C233.909 350.776 227.845 353.414 222.215 353.216C217.454 353.205 212.451 350.723 210.371 346.299C208.773 341.843 210.671 336.385 214.719 333.908C217.362 332.294 220.494 331.704 223.545 331.474Z" fill="#D1B4C2"/>
<path d="M55.6812 334.68C60.2495 333.795 65.3379 334.036 69.3164 336.68C71.7292 338.165 73.8794 340.578 73.8954 343.559C74.1153 347.843 70.7427 351.339 67.0966 353.028C61.6436 355.452 54.7321 354.996 50.0351 351.146C47.8475 349.404 46.0888 346.884 45.9118 344.031C45.7349 341.672 46.8555 339.334 48.6679 337.849C50.6732 336.203 53.1665 335.238 55.6812 334.68Z" fill="#D1B4C2"/>
</svg>
