<svg width="168" height="168" viewBox="0 0 168 168" fill="none" xmlns="http://www.w3.org/2000/svg">
<g clip-path="url(#clip0_1422_99604)">
<mask id="mask0_1422_99604" style="mask-type:luminance" maskUnits="userSpaceOnUse" x="0" y="0" width="168" height="168">
<path d="M168 0H0V168H168V0Z" fill="white"/>
</mask>
<g mask="url(#mask0_1422_99604)">
<path d="M129.317 47.2994C133.752 45.8735 136.032 41.982 136.682 40.741C139.984 34.4231 137.763 26.4162 133.115 21.6393C132.643 21.1545 127.314 15.856 119.422 16.4617C117.993 16.5708 112.316 17.007 108.606 21.6393C108.199 22.1478 105.876 25.1277 105.729 29.0038C105.351 38.899 119.301 50.5212 129.317 47.2994Z" fill="#4D4D4D"/>
</g>
<mask id="mask1_1422_99604" style="mask-type:luminance" maskUnits="userSpaceOnUse" x="0" y="0" width="168" height="168">
<path d="M168 0H0V168H168V0Z" fill="white"/>
</mask>
<g mask="url(#mask1_1422_99604)">
<path d="M122.049 42.3452C122.109 42.0038 122.442 41.9955 122.662 41.8841C125.046 40.6762 126.795 38.8638 127.746 36.3687C128.541 34.2825 128.547 32.1418 127.689 30.0568C126.946 28.2527 125.641 26.937 123.824 26.2448C120.331 24.9136 117.033 25.255 114.048 27.6316C113.398 28.1496 112.917 28.8371 112.331 29.4191C111.561 30.4717 111.073 31.6404 110.88 32.9301C111.373 33.5381 112.09 33.8558 112.692 34.3228C114.547 35.7642 116.374 37.2387 118.127 38.8022C119.44 39.9769 120.742 41.1646 122.049 42.3452Z" fill="#BDCCC7"/>
</g>
<mask id="mask2_1422_99604" style="mask-type:luminance" maskUnits="userSpaceOnUse" x="0" y="0" width="168" height="168">
<path d="M168 0H0V168H168V0Z" fill="white"/>
</mask>
<g mask="url(#mask2_1422_99604)">
<path d="M38.2286 47.2994C33.7943 45.8735 31.5137 41.982 30.8641 40.741C27.5618 34.4231 29.7831 26.4162 34.4308 21.6393C34.9026 21.1545 40.2318 15.856 48.1238 16.4617C49.5533 16.5708 55.2299 17.007 58.94 21.6393C59.3466 22.1478 61.6686 25.1277 61.8168 29.0038C62.1949 38.899 48.2447 50.5212 38.2286 47.2994Z" fill="#4D4D4D"/>
</g>
<mask id="mask3_1422_99604" style="mask-type:luminance" maskUnits="userSpaceOnUse" x="0" y="0" width="168" height="168">
<path d="M168 0H0V168H168V0Z" fill="white"/>
</mask>
<g mask="url(#mask3_1422_99604)">
<path d="M45.4965 42.3452C45.4372 42.0038 45.1042 41.9955 44.8837 41.8841C42.5 40.6762 40.7504 38.8638 39.7998 36.3687C39.0044 34.2825 38.9985 32.1418 39.8567 30.0568C40.5999 28.2527 41.9049 26.937 43.7221 26.2448C47.2152 24.9136 50.5128 25.255 53.4975 27.6316C54.1483 28.1496 54.6283 28.8371 55.2151 29.4191C55.9844 30.4717 56.4727 31.6404 56.6659 32.9301C56.1728 33.5381 55.4557 33.8558 54.8536 34.3228C52.9985 35.7642 51.1719 37.2387 49.4188 38.8022C48.1054 39.9769 46.8039 41.1646 45.4965 42.3452Z" fill="#BDCCC7"/>
</g>
<mask id="mask4_1422_99604" style="mask-type:luminance" maskUnits="userSpaceOnUse" x="0" y="0" width="168" height="168">
<path d="M168 0H0V168H168V0Z" fill="white"/>
</mask>
<g mask="url(#mask4_1422_99604)">
<path d="M40.1379 119.917C40.203 118.419 39.7704 117.871 40.0312 117.607C40.9534 116.673 47.0223 122.828 55.028 126.889C62.229 130.541 68.8005 131.383 72.9408 131.914C79.8857 132.804 85.1901 132.32 88.9737 131.952C98.7456 131.001 106.243 128.506 110.415 126.889C117.587 124.108 122.272 121.075 123.571 120.216C125.528 118.92 127.107 117.718 128.251 116.802C128.412 117.063 128.673 117.493 128.98 118.029C130.812 121.231 134.894 128.564 134.197 137.13C133.931 140.389 133.116 142.097 132.854 142.615C131.175 145.937 128.48 147.463 127.944 147.754C126.68 148.443 124.671 149.538 122.152 149.058C119.924 148.634 118.55 147.219 117.934 146.566C116.222 144.753 114.71 141.623 115.517 138.933C115.891 137.685 116.773 136.504 116.438 136.209C116.198 135.999 115.531 136.402 115.402 136.478C112.705 138.049 97.6492 140.622 95.8024 140.928C91.0279 141.718 81.1837 143.346 69.9123 140.583C64.4906 139.254 58.4027 137.767 55.4133 137.169C54.356 136.958 53.8759 136.082 53.6874 136.44C53.5191 136.762 53.8901 137.116 54.1865 138.473C54.5338 140.062 54.4401 141.478 54.2635 142.539C54.1462 143.279 53.7988 144.786 52.6147 146.183C51.0382 148.041 48.9959 148.501 48.05 148.715C45.4636 149.298 43.3774 148.62 42.5263 148.331C41.4275 147.958 39.397 147.072 37.7316 145.07C37.523 144.818 36.8497 143.985 36.1978 142.577C34.5122 138.937 34.8027 135.425 34.856 134.867C35.1784 131.458 36.7134 128.345 39.1137 123.476C39.4456 122.797 40.0655 121.585 40.1379 119.917Z" fill="#4D4D4D"/>
</g>
<mask id="mask5_1422_99604" style="mask-type:luminance" maskUnits="userSpaceOnUse" x="0" y="0" width="168" height="168">
<path d="M168 0H0V168H168V0Z" fill="white"/>
</mask>
<g mask="url(#mask5_1422_99604)">
<path d="M117.747 146.361C118.807 147.701 111.365 148.853 108.9 149.179C94.5535 151.071 97.5595 151.841 89.8952 152.3C82.507 152.742 76.0647 152.25 70.9262 151.509C63.2192 149.799 57.6398 148.564 55.8914 148.295C54.5283 148.085 53.2209 147.573 51.949 147.037C51.7451 146.952 51.469 146.917 51.4512 146.603C52.6602 145.387 53.4722 143.964 53.7223 142.247C53.7329 142.171 53.7863 142.101 53.8195 142.028C53.9665 141.884 53.6109 141.519 54.0494 141.504C54.2486 141.732 54.5176 141.832 54.7962 141.921C57.9658 142.926 61.1792 143.747 64.4602 144.32C66.7942 144.729 69.1281 145.13 71.4905 145.295C73.5103 145.435 75.5182 145.689 77.5463 145.768C79.0114 145.825 80.4741 145.797 81.9368 145.851C82.6848 145.878 83.4303 145.99 84.1795 145.944C86.5395 145.797 88.9054 145.832 91.2678 145.666C94.1067 145.467 96.9337 145.193 99.7441 144.76C102.693 144.306 105.597 143.649 108.465 142.815C110.661 142.176 112.797 141.381 114.941 140.6C115.126 140.532 115.258 140.448 115.34 140.327C115.464 140.141 115.425 139.936 115.44 139.935C115.489 139.93 115.367 141.986 116.115 143.772C116.826 145.465 117.377 145.893 117.747 146.361Z" fill="#99B1B8"/>
</g>
<mask id="mask6_1422_99604" style="mask-type:luminance" maskUnits="userSpaceOnUse" x="0" y="0" width="168" height="168">
<path d="M168 0H0V168H168V0Z" fill="white"/>
</mask>
<g mask="url(#mask6_1422_99604)">
<path d="M48.369 38.7416C59.4863 29.7176 70.709 27.3268 73.2231 26.8325C95.8512 22.384 113.497 33.9516 116.72 36.1528C134.845 48.5301 145.648 71.1842 142.438 91.3859C141.95 94.4595 140.465 103.149 133.981 111.58C126.958 120.713 118.074 124.337 111.888 126.769C106.701 128.809 75.8889 140.925 48.3702 123.836C42.9923 120.497 31.1295 113.13 26.1048 98.8085C17.3689 73.9129 37.9286 49.3136 40.2435 46.6039C43.79 42.4505 47.416 39.5156 48.369 38.7416Z" fill="#FDFDFD"/>
</g>
<mask id="mask7_1422_99604" style="mask-type:luminance" maskUnits="userSpaceOnUse" x="0" y="0" width="168" height="168">
<path d="M168 0H0V168H168V0Z" fill="white"/>
</mask>
<g mask="url(#mask7_1422_99604)">
<path d="M111.177 52.3279C112.916 53.4563 114.163 54.3216 114.433 54.5469C114.529 54.6275 114.627 54.7104 114.627 54.7104C114.806 54.8645 114.982 55.0234 115.16 55.1786C116.643 56.5086 118.064 57.9037 119.368 59.4079C122.208 62.683 124.83 66.111 126.574 70.1234C127.542 72.3482 128.342 74.6312 128.599 77.0564C129.181 82.5575 127.017 87.5727 121.596 90.4566C120.795 90.8833 119.927 91.1619 119.051 91.4001C115.439 92.2571 111.99 91.8197 108.675 90.1555C106.738 89.1824 105.039 87.901 103.498 86.3873C100.914 83.8484 98.6385 81.0581 96.6021 78.0651C94.4092 74.8422 93.2192 71.2684 92.7699 67.4149C92.3799 64.0687 92.4783 60.7521 93.2867 57.4746C93.41 56.9756 93.5676 56.4944 93.7597 56.0309C93.7597 56.0309 94.5052 54.2244 95.8423 52.8317C98.2426 50.3318 102.954 49.9489 106.348 50.5618C107.532 50.7727 109.254 51.2338 111.177 52.3279Z" fill="#4D4D4D"/>
</g>
<mask id="mask8_1422_99604" style="mask-type:luminance" maskUnits="userSpaceOnUse" x="0" y="0" width="168" height="168">
<path d="M168 0H0V168H168V0Z" fill="white"/>
</mask>
<g mask="url(#mask8_1422_99604)">
<path d="M74.4225 65.049C74.4652 70.8489 71.9736 76.5314 67.9957 81.6615C66.1098 84.0938 64.0426 86.3507 61.5178 88.1429C59.1353 89.8332 56.588 91.1501 53.6507 91.6029C49.9311 92.1754 46.6667 91.1881 43.8089 88.7961C40.9167 86.3756 39.3994 83.2001 38.9881 79.509C38.5661 75.7182 39.5677 72.1765 41.213 68.8042C43.5754 63.9633 47.0863 60.0244 51.0714 56.4743C52.5223 55.1823 54.0051 53.9247 55.6362 52.865C58.1254 51.247 60.8102 50.1043 63.8019 49.8981C68.3299 49.5863 72.0365 51.9309 73.5335 56.7695C74.2886 59.203 74.5197 61.7017 74.4225 65.049Z" fill="#4D4D4D"/>
</g>
<mask id="mask9_1422_99604" style="mask-type:luminance" maskUnits="userSpaceOnUse" x="0" y="0" width="168" height="168">
<path d="M168 0H0V168H168V0Z" fill="white"/>
</mask>
<g mask="url(#mask9_1422_99604)">
<path d="M99.7782 89.2452C100.262 89.4645 100.295 89.9019 100.327 90.3192C100.402 91.2698 100.472 92.2216 100.512 93.1746C100.651 96.3715 100.537 99.5458 99.5281 102.622C98.6723 105.234 97.3495 107.579 95.3261 109.462C92.8997 111.72 90.03 113.034 86.7004 113.311C84.3167 113.509 81.9508 113.514 79.5718 113.143C76.516 112.665 74.0671 111.166 71.9975 108.95C69.404 106.174 67.9353 102.853 67.3202 99.1381C66.8614 96.3656 66.7986 93.58 67.204 90.7921C67.2455 90.5088 67.332 90.2303 67.4126 89.9541C67.4766 89.7324 67.6817 89.5831 67.8678 89.6151C68.0622 89.6483 67.9816 89.9043 67.9792 90.0596C67.9591 91.7297 68.4261 93.2126 69.6185 94.4263C71.2128 96.0491 73.1307 96.7982 75.416 96.6737C77.4263 96.5647 79.26 96.01 80.865 94.7701C82.1724 93.7602 83.0377 92.5274 82.9263 90.7803C82.9002 90.3737 83.0816 89.8818 82.9085 89.5771C82.7272 89.2571 82.1712 89.397 81.786 89.301C79.6678 88.777 77.6468 88.0445 75.9613 86.5936C75.3769 86.0911 74.853 85.5316 74.5223 84.8216C73.9154 83.5201 74.0789 82.4414 75.0628 81.3936C76.1071 80.2806 77.3979 79.5966 78.8796 79.2564C82.3194 78.4682 85.7201 78.7171 89.0746 79.7021C90.3749 80.0838 91.5662 80.7179 92.4896 81.7575C93.7211 83.1455 93.7211 84.773 92.518 86.1812C91.5603 87.3025 90.241 87.8228 88.9359 88.3622C87.7672 88.8458 86.5345 89.1054 85.3005 89.3638C84.3665 89.5594 84.1792 89.864 84.3238 90.7992C84.4411 91.5567 84.5846 92.3058 84.8667 93.0253C85.1808 93.8266 85.6609 94.5034 86.3887 94.9574C88.6443 96.3644 91.0944 97.0376 93.7472 96.6228C97.1823 96.0858 99.2389 93.2552 99.6229 90.1022C99.6585 89.8225 99.6455 89.5345 99.7782 89.2452Z" fill="#4D4D4D"/>
</g>
<mask id="mask10_1422_99604" style="mask-type:luminance" maskUnits="userSpaceOnUse" x="0" y="0" width="168" height="168">
<path d="M168 0H0V168H168V0Z" fill="white"/>
</mask>
<g mask="url(#mask10_1422_99604)">
<path d="M119.159 92.3008C120.978 92.4418 122.838 92.3316 124.58 93.0108C126.594 93.7955 128.121 95.1053 128.695 97.2721C129.225 99.2729 128.57 100.995 127.228 102.473C125.561 104.311 123.381 105.127 120.985 105.504C120.17 105.632 119.355 105.559 118.542 105.609C116.372 105.435 114.263 105.029 112.437 103.758C111.177 102.881 110.098 101.811 109.668 100.276C109.135 98.3815 109.911 96.2515 111.519 95.0045C112.754 94.0468 114.108 93.3048 115.606 92.865C116.514 92.5995 117.448 92.4134 118.405 92.3944C118.657 92.3885 118.909 92.334 119.159 92.3008Z" fill="#CEAFB0"/>
</g>
<mask id="mask11_1422_99604" style="mask-type:luminance" maskUnits="userSpaceOnUse" x="0" y="0" width="168" height="168">
<path d="M168 0H0V168H168V0Z" fill="white"/>
</mask>
<g mask="url(#mask11_1422_99604)">
<path d="M47.7551 105.591C45.3809 105.583 43.1833 104.992 41.2607 103.559C39.8371 102.498 38.7146 101.205 38.3364 99.4082C38.0211 97.9123 38.5237 96.6215 39.4447 95.4741C40.8114 93.7696 42.6392 92.8853 44.7752 92.602C47.9329 92.1824 51.0231 92.506 53.9497 93.7542C55.8924 94.5815 57.1181 96.1485 57.4772 98.2549C57.8613 100.509 56.7613 102.138 55.0437 103.436C53.2954 104.758 51.2898 105.36 49.1254 105.498C48.8895 105.514 48.656 105.571 48.4201 105.587C48.1984 105.604 47.9768 105.591 47.7551 105.591Z" fill="#CEAFB0"/>
</g>
<mask id="mask12_1422_99604" style="mask-type:luminance" maskUnits="userSpaceOnUse" x="0" y="0" width="168" height="168">
<path d="M168 0H0V168H168V0Z" fill="white"/>
</mask>
<g mask="url(#mask12_1422_99604)">
<path d="M76.3104 116.342C77.5681 117.603 79.0071 118.547 80.7057 119.036C83.9227 119.963 86.9631 119.561 89.7972 117.75C90.1599 117.518 90.4361 117.19 90.7395 116.893C90.8877 116.747 91.0465 116.484 91.2848 116.695C91.4934 116.88 91.3215 117.113 91.2101 117.292C90.7289 118.059 90.0615 118.657 89.2863 119.085C85.8204 120.999 82.2881 121.107 78.7428 119.317C77.7566 118.819 76.9671 118.059 76.4562 117.052C76.3507 116.841 76.2595 116.62 76.3104 116.342Z" fill="#4D4D4D"/>
</g>
<mask id="mask13_1422_99604" style="mask-type:luminance" maskUnits="userSpaceOnUse" x="0" y="0" width="168" height="168">
<path d="M168 0H0V168H168V0Z" fill="white"/>
</mask>
<g mask="url(#mask13_1422_99604)">
<path d="M53.9956 141.469C54.2552 139.622 53.896 137.855 53.2832 136.104C63.6371 139.463 74.2459 140.971 85.0715 140.892C95.8771 140.812 106.454 139.178 116.786 135.852C116.354 136.558 116.162 137.166 116.067 137.587C115.987 137.94 115.571 139.775 115.573 140.243C115.573 140.281 115.575 140.412 115.492 140.521C115.446 140.581 115.378 140.625 115.282 140.659C113.536 141.272 111.808 141.941 110.045 142.497C107.152 143.409 104.216 144.161 101.221 144.673C99.2019 145.018 97.175 145.284 95.1386 145.494C93.2492 145.689 91.3562 145.8 89.4608 145.917C88.2352 145.993 87.0096 145.912 85.791 146.016C84.889 146.093 83.9858 146.145 83.092 146.077C81.5262 145.96 79.9604 146.063 78.3981 145.984C76.3688 145.881 74.3442 145.683 72.3197 145.508C70.4635 145.348 68.6108 145.183 66.7723 144.873C64.436 144.48 62.0997 144.084 59.799 143.511C57.9724 143.057 56.1695 142.514 54.3725 141.952C54.0869 141.861 53.9873 141.736 53.9956 141.469Z" fill="#FDFDFD"/>
</g>
<mask id="mask14_1422_99604" style="mask-type:luminance" maskUnits="userSpaceOnUse" x="0" y="0" width="168" height="168">
<path d="M168 0H0V168H168V0Z" fill="white"/>
</mask>
<g mask="url(#mask14_1422_99604)">
<path d="M75.832 111.923C75.832 111.923 76.158 109.132 76.7376 108.024C77.0067 107.511 77.29 107.119 77.4986 106.856C77.5792 106.77 77.7286 106.617 77.9348 106.437C78.9032 105.595 79.9238 105.219 80.603 105.037C80.897 104.99 85.4937 104.284 88.1382 105.791C89.3022 106.455 90.0051 107.352 90.0051 107.352C90.3085 107.726 90.759 108.381 90.9937 109.299C91.277 110.405 91.3825 112.116 91.3825 112.116C91.3825 112.116 89.1161 113.445 83.7465 113.445C78.1826 113.445 75.832 111.923 75.832 111.923Z" fill="#CEAFB0"/>
</g>
<mask id="mask15_1422_99604" style="mask-type:luminance" maskUnits="userSpaceOnUse" x="0" y="0" width="168" height="168">
<path d="M168 0H0V168H168V0Z" fill="white"/>
</mask>
<g mask="url(#mask15_1422_99604)">
<path d="M68.6767 70.9199C68.4231 75.2926 66.798 78.787 62.5403 80.6622C58.9416 82.2481 55.145 80.6503 52.9793 78.0888C50.4724 75.1231 50.2543 71.6619 52.4033 68.5302C54.4907 65.4875 57.2786 63.3977 61.0479 62.9438C64.758 62.4981 67.265 64.2298 68.2571 67.8226C68.5345 68.8325 68.6779 69.8614 68.6767 70.9199Z" fill="#D3D1CD"/>
</g>
<mask id="mask16_1422_99604" style="mask-type:luminance" maskUnits="userSpaceOnUse" x="0" y="0" width="168" height="168">
<path d="M168 0H0V168H168V0Z" fill="white"/>
</mask>
<g mask="url(#mask16_1422_99604)">
<path d="M68.0997 70.9933C67.98 74.8669 66.228 77.8374 62.8107 79.7731C59.9659 81.3851 56.2202 80.5601 53.7322 77.8493C51.3758 75.2806 51.0534 72.1656 52.9629 69.252C54.8453 66.3811 57.4115 64.4099 60.8229 63.63C63.8811 62.9306 66.3584 64.2286 67.4501 67.1646C67.9029 68.3784 68.0677 69.6467 68.0997 70.9933Z" fill="#111618"/>
</g>
<mask id="mask17_1422_99604" style="mask-type:luminance" maskUnits="userSpaceOnUse" x="0" y="0" width="168" height="168">
<path d="M168 0H0V168H168V0Z" fill="white"/>
</mask>
<g mask="url(#mask17_1422_99604)">
<path d="M64.7583 69.8718C64.7738 70.8307 64.2712 71.4851 63.5031 71.5052C62.633 71.5289 62.0534 70.9291 62.0202 69.9726C61.993 69.1701 62.7859 68.2657 63.509 68.274C64.1503 68.2835 64.7453 69.0444 64.7583 69.8718Z" fill="white"/>
</g>
<mask id="mask18_1422_99604" style="mask-type:luminance" maskUnits="userSpaceOnUse" x="0" y="0" width="168" height="168">
<path d="M168 0H0V168H168V0Z" fill="white"/>
</mask>
<g mask="url(#mask18_1422_99604)">
<path d="M63.5378 75.6873C63.5366 76.1993 63.2106 76.568 62.7519 76.5763C62.2173 76.5869 61.691 76.0666 61.6993 75.5367C61.7088 74.9761 62.0597 74.5885 62.5575 74.5908C63.1039 74.5932 63.5401 75.0804 63.5378 75.6873Z" fill="#F9FBFC"/>
</g>
<mask id="mask19_1422_99604" style="mask-type:luminance" maskUnits="userSpaceOnUse" x="0" y="0" width="168" height="168">
<path d="M168 0H0V168H168V0Z" fill="white"/>
</mask>
<g mask="url(#mask19_1422_99604)">
<path d="M57.7626 75.0091C57.7709 75.4974 57.3892 75.9147 56.9282 75.9206C56.4682 75.9253 56.0842 75.5555 56.0735 75.0944C56.0605 74.5966 56.5014 74.158 57.0135 74.1592C57.4461 74.1616 57.7531 74.5089 57.7626 75.0091Z" fill="#F7F8FC"/>
</g>
<mask id="mask20_1422_99604" style="mask-type:luminance" maskUnits="userSpaceOnUse" x="0" y="0" width="168" height="168">
<path d="M168 0H0V168H168V0Z" fill="white"/>
</mask>
<g mask="url(#mask20_1422_99604)">
<path d="M115.79 71.6963C115.537 67.3236 113.911 63.8293 109.654 61.9541C106.055 60.3681 102.258 61.9659 100.092 64.5274C97.5847 67.4931 97.3666 70.9543 99.5156 74.086C101.603 77.1287 104.391 79.2185 108.161 79.6725C111.872 80.1181 114.379 78.3864 115.371 74.7936C115.648 73.7849 115.79 72.7548 115.79 71.6963Z" fill="#D3D1CD"/>
</g>
<mask id="mask21_1422_99604" style="mask-type:luminance" maskUnits="userSpaceOnUse" x="0" y="0" width="168" height="168">
<path d="M168 0H0V168H168V0Z" fill="white"/>
</mask>
<g mask="url(#mask21_1422_99604)">
<path d="M115.212 71.6241C115.092 67.7505 113.34 64.7812 109.923 62.8443C107.078 61.2323 103.333 62.0573 100.845 64.7681C98.4881 67.3368 98.1657 70.4518 100.075 73.3654C101.958 76.2363 104.524 78.2075 107.935 78.9874C110.993 79.6868 113.471 78.3888 114.562 75.4528C115.016 74.239 115.181 72.9707 115.212 71.6241Z" fill="#111618"/>
</g>
<mask id="mask22_1422_99604" style="mask-type:luminance" maskUnits="userSpaceOnUse" x="0" y="0" width="168" height="168">
<path d="M168 0H0V168H168V0Z" fill="white"/>
</mask>
<g mask="url(#mask22_1422_99604)">
<path d="M106.246 68.2942C106.261 67.3353 105.758 66.681 104.99 66.6608C104.12 66.6371 103.541 67.2369 103.508 68.1935C103.48 68.9959 104.273 69.9004 104.996 69.8921C105.636 69.8838 106.231 69.1216 106.246 68.2942Z" fill="white"/>
</g>
<mask id="mask23_1422_99604" style="mask-type:luminance" maskUnits="userSpaceOnUse" x="0" y="0" width="168" height="168">
<path d="M168 0H0V168H168V0Z" fill="white"/>
</mask>
<g mask="url(#mask23_1422_99604)">
<path d="M111.341 72.668C111.34 72.1559 111.014 71.7873 110.554 71.779C110.019 71.7683 109.493 72.2887 109.501 72.8185C109.511 73.3792 109.861 73.7668 110.359 73.7644C110.906 73.762 111.342 73.2749 111.341 72.668Z" fill="#F9FBFC"/>
</g>
<mask id="mask24_1422_99604" style="mask-type:luminance" maskUnits="userSpaceOnUse" x="0" y="0" width="168" height="168">
<path d="M168 0H0V168H168V0Z" fill="white"/>
</mask>
<g mask="url(#mask24_1422_99604)">
<path d="M106.566 75.6684C106.575 75.18 106.193 74.7628 105.732 74.7569C105.272 74.7521 104.888 75.122 104.877 75.5831C104.864 76.0809 105.305 76.5195 105.817 76.5183C106.25 76.5171 106.557 76.1698 106.566 75.6684Z" fill="#F7F8FC"/>
</g>
</g>
<defs>
<clipPath id="clip0_1422_99604">
<rect width="168" height="168" fill="white"/>
</clipPath>
</defs>
</svg>
