<svg width="292" height="272" viewBox="0 0 292 272" fill="none" xmlns="http://www.w3.org/2000/svg">
<path d="M170.323 260.351C166.447 264.209 162.74 268.067 159.033 271.924C158.696 271.574 158.359 271.398 157.853 271.047C97.695 223.526 15.1247 180.037 1.47533 92.0085C-3.24297 61.6718 2.82356 25.0224 27.4261 10.4678C51.5232 -3.91141 81.8551 9.76637 103.256 28.5295C121.624 44.6623 137.295 64.4774 149.091 86.923C159.202 67.8091 169.312 48.5204 182.962 32.5629C196.611 16.4301 214.305 3.62896 234.189 0.647899C247.67 -1.28102 262.162 1.52479 272.441 11.1694C279.013 17.3069 283.731 25.5484 286.764 34.4916C294.347 56.2358 293.167 80.9613 286.596 103.232C280.024 125.502 268.565 145.492 256.095 164.431C232.167 200.204 200.487 230.014 170.323 260.351Z" fill="#D39F9A"/>
</svg>
