<svg width="25" height="25" viewBox="0 0 25 25" fill="none" xmlns="http://www.w3.org/2000/svg">
<path fill-rule="evenodd" clip-rule="evenodd" d="M15.8535 7.25979C15.9261 7.18704 16.0123 7.12932 16.1072 7.08993C16.2022 7.05055 16.3039 7.03027 16.4067 7.03027C16.5094 7.03027 16.6112 7.05055 16.7061 7.08993C16.801 7.12932 16.8872 7.18704 16.9598 7.25979L21.6473 11.9473C21.7201 12.0199 21.7778 12.1061 21.8172 12.201C21.8565 12.2959 21.8768 12.3977 21.8768 12.5004C21.8768 12.6032 21.8565 12.7049 21.8172 12.7998C21.7778 12.8948 21.7201 12.981 21.6473 13.0535L16.9598 17.741C16.8131 17.8877 16.6141 17.9702 16.4067 17.9702C16.1992 17.9702 16.0002 17.8877 15.8535 17.741C15.7068 17.5943 15.6244 17.3954 15.6244 17.1879C15.6244 16.9805 15.7068 16.7815 15.8535 16.6348L19.9895 12.5004L15.8535 8.36604C15.7808 8.29347 15.7231 8.20726 15.6837 8.11235C15.6443 8.01743 15.624 7.91568 15.624 7.81292C15.624 7.71016 15.6443 7.60841 15.6837 7.51349C15.7231 7.41858 15.7808 7.33237 15.8535 7.25979Z" fill="#89A767"/>
<path fill-rule="evenodd" clip-rule="evenodd" d="M3.125 12.5C3.125 12.2928 3.20731 12.0941 3.35382 11.9476C3.50034 11.8011 3.69905 11.7187 3.90625 11.7187L20.3125 11.7187C20.5197 11.7187 20.7184 11.8011 20.8649 11.9476C21.0114 12.0941 21.0938 12.2928 21.0938 12.5C21.0938 12.7072 21.0114 12.9059 20.8649 13.0524C20.7184 13.1989 20.5197 13.2812 20.3125 13.2812L3.90625 13.2812C3.69905 13.2812 3.50034 13.1989 3.35382 13.0524C3.20731 12.9059 3.125 12.7072 3.125 12.5Z" fill="#89A767"/>
</svg>
