<svg width="25" height="25" viewBox="0 0 25 25" fill="none" xmlns="http://www.w3.org/2000/svg">
<path fill-rule="evenodd" clip-rule="evenodd" d="M9.14646 17.7402C9.07388 17.813 8.98767 17.8707 8.89276 17.9101C8.79784 17.9495 8.69609 17.9697 8.59333 17.9697C8.49057 17.9697 8.38882 17.9495 8.2939 17.9101C8.19899 17.8707 8.11278 17.813 8.0402 17.7402L3.3527 13.0527C3.27995 12.9801 3.22223 12.8939 3.18284 12.799C3.14346 12.7041 3.12318 12.6023 3.12318 12.4996C3.12318 12.3968 3.14346 12.2951 3.18284 12.2002C3.22223 12.1052 3.27995 12.019 3.3527 11.9465L8.0402 7.25896C8.1869 7.11226 8.38587 7.02984 8.59333 7.02984C8.80079 7.02984 8.99976 7.11226 9.14645 7.25896C9.29315 7.40565 9.37557 7.60462 9.37557 7.81208C9.37557 8.01954 9.29315 8.21851 9.14645 8.36521L5.01052 12.4996L9.14646 16.634C9.21921 16.7065 9.27693 16.7927 9.31632 16.8877C9.3557 16.9826 9.37598 17.0843 9.37598 17.1871C9.37598 17.2898 9.3557 17.3916 9.31632 17.4865C9.27693 17.5814 9.21921 17.6676 9.14646 17.7402Z" fill="white"/>
<path fill-rule="evenodd" clip-rule="evenodd" d="M21.875 12.5C21.875 12.7072 21.7927 12.9059 21.6462 13.0524C21.4997 13.1989 21.301 13.2813 21.0938 13.2813L4.6875 13.2813C4.4803 13.2813 4.28159 13.1989 4.13507 13.0524C3.98856 12.9059 3.90625 12.7072 3.90625 12.5C3.90625 12.2928 3.98856 12.0941 4.13507 11.9476C4.28159 11.8011 4.4803 11.7188 4.6875 11.7188L21.0937 11.7188C21.301 11.7188 21.4997 11.8011 21.6462 11.9476C21.7927 12.0941 21.875 12.2928 21.875 12.5Z" fill="white"/>
</svg>
