<svg width="14" height="14" viewBox="0 0 14 14" fill="none" xmlns="http://www.w3.org/2000/svg">
<path fill-rule="evenodd" clip-rule="evenodd" d="M8.80083 10.8593C8.84531 10.9039 8.89815 10.9393 8.95632 10.9634C9.0145 10.9876 9.07686 11 9.13984 11C9.20283 11 9.26519 10.9876 9.32336 10.9634C9.38154 10.9393 9.43437 10.9039 9.47885 10.8593L12.3518 7.98635C12.3964 7.94187 12.4318 7.88903 12.4559 7.83085C12.4801 7.77268 12.4925 7.71032 12.4925 7.64733C12.4925 7.58435 12.4801 7.52199 12.4559 7.46381C12.4318 7.40564 12.3964 7.3528 12.3518 7.30832L9.47885 4.43534C9.38894 4.34543 9.267 4.29492 9.13984 4.29492C9.01269 4.29492 8.89074 4.34543 8.80083 4.43534C8.71092 4.52525 8.66041 4.6472 8.66041 4.77435C8.66041 4.90151 8.71092 5.02345 8.80083 5.11336L11.3358 7.64733L8.80083 10.1813C8.75624 10.2258 8.72086 10.2786 8.69672 10.3368C8.67258 10.395 8.66016 10.4573 8.66016 10.5203C8.66016 10.5833 8.67258 10.6457 8.69672 10.7038C8.72086 10.762 8.75624 10.8148 8.80083 10.8593Z" fill="#99B1B8"/>
<path fill-rule="evenodd" clip-rule="evenodd" d="M1 7.64715C1 7.77414 1.05045 7.89593 1.14025 7.98573C1.23004 8.07553 1.35184 8.12598 1.47883 8.12598L11.5343 8.12598C11.6613 8.12598 11.783 8.07553 11.8728 7.98573C11.9626 7.89593 12.0131 7.77414 12.0131 7.64715C12.0131 7.52015 11.9626 7.39836 11.8728 7.30856C11.783 7.21876 11.6613 7.16832 11.5343 7.16832L1.47883 7.16832C1.35184 7.16832 1.23004 7.21876 1.14025 7.30856C1.05045 7.39836 1 7.52015 1 7.64715Z" fill="#99B1B8"/>
</svg>
