<svg width="21" height="21" viewBox="0 0 21 21" fill="none" xmlns="http://www.w3.org/2000/svg">
<path d="M1.75 10.1147V11.751C1.75 14.376 3.5 16.126 6.125 16.126H9.625L13.5188 18.716C14.0963 19.101 14.875 18.6898 14.875 17.9898V16.126C17.5 16.126 19.25 14.376 19.25 11.751V6.50098C19.25 3.87598 17.5 2.12598 14.875 2.12598H6.125C3.5 2.12598 1.75 3.87598 1.75 6.50098" stroke="#89A767" stroke-width="1.5" stroke-miterlimit="10" stroke-linecap="round" stroke-linejoin="round"/>
<path d="M10.4994 9.93994V9.75623C10.4994 9.16123 10.8669 8.84621 11.2344 8.59246C11.5931 8.34746 11.9518 8.03247 11.9518 7.45497C11.9518 6.64997 11.3044 6.00244 10.4994 6.00244C9.69435 6.00244 9.04688 6.64997 9.04688 7.45497" stroke="#89A767" stroke-width="1.5" stroke-linecap="round" stroke-linejoin="round"/>
<path d="M10.4961 12.0312H10.5039" stroke="#89A767" stroke-width="1.5" stroke-linecap="round" stroke-linejoin="round"/>
</svg>
