<svg width="27" height="28" viewBox="0 0 27 28" fill="none" xmlns="http://www.w3.org/2000/svg">
<path d="M10.5638 7.26125C10.7663 7.5425 10.9125 7.80125 11.0137 8.04875C11.115 8.285 11.1713 8.52125 11.1713 8.735C11.1713 9.005 11.0925 9.275 10.935 9.53375C10.7888 9.7925 10.575 10.0625 10.305 10.3325L9.45 11.2212C9.32625 11.345 9.27 11.4913 9.27 11.6713C9.27 11.7613 9.28125 11.84 9.30375 11.93C9.3375 12.02 9.37125 12.0875 9.39375 12.155C9.59625 12.5262 9.945 13.01 10.44 13.595C10.9462 14.18 11.4862 14.7763 12.0712 15.3725C12.6787 15.9688 13.2637 16.52 13.86 17.0262C14.445 17.5212 14.9287 17.8587 15.3112 18.0612C15.3675 18.0837 15.435 18.1175 15.5137 18.1512C15.6037 18.185 15.6937 18.1962 15.795 18.1962C15.9862 18.1962 16.1325 18.1288 16.2562 18.005L17.1113 17.1613C17.3925 16.88 17.6625 16.6662 17.9213 16.5312C18.18 16.3737 18.4387 16.295 18.72 16.295C18.9337 16.295 19.1588 16.34 19.4062 16.4413C19.6537 16.5425 19.9125 16.6888 20.1938 16.88L23.9175 19.5237C24.21 19.7262 24.4125 19.9625 24.5362 20.2437C24.6487 20.525 24.7162 20.8062 24.7162 21.1212C24.7162 21.5262 24.6262 21.9425 24.435 22.3475C24.2437 22.7525 23.9963 23.135 23.67 23.495C23.1188 24.1025 22.5112 24.5413 21.825 24.8225C21.15 25.1038 20.4188 25.25 19.6313 25.25C18.4838 25.25 17.2575 24.98 15.9637 24.4288C14.67 23.8775 13.3762 23.135 12.0938 22.2013C10.8 21.2563 9.57375 20.21 8.40375 19.0512C7.245 17.8812 6.19875 16.655 5.265 15.3725C4.3425 14.09 3.6 12.8075 3.06 11.5363C2.52 10.2538 2.25 9.0275 2.25 7.8575C2.25 7.0925 2.385 6.36125 2.655 5.68625C2.925 5 3.3525 4.37 3.94875 3.8075C4.66875 3.09875 5.45625 2.75 6.28875 2.75C6.60375 2.75 6.91875 2.8175 7.2 2.9525C7.4925 3.0875 7.75125 3.29 7.95375 3.5825" stroke="#89A767" stroke-width="1.5" stroke-miterlimit="10" stroke-linecap="round" stroke-linejoin="round"/>
<path d="M20.8125 10.625C20.8125 9.95 20.2837 8.915 19.4962 8.07125C18.7762 7.295 17.82 6.6875 16.875 6.6875" stroke="#89A767" stroke-width="1.5" stroke-linecap="round" stroke-linejoin="round"/>
<path d="M19.1362 3.07625C18.4162 2.8625 17.6625 2.75 16.875 2.75" stroke="#89A767" stroke-width="1.5" stroke-linecap="round" stroke-linejoin="round"/>
<path d="M24.75 10.625C24.75 7.95871 23.4225 5.59621 21.3975 4.17871" stroke="#89A767" stroke-width="1.5" stroke-linecap="round" stroke-linejoin="round"/>
</svg>
