<svg width="35" height="33" viewBox="0 0 35 33" fill="none" xmlns="http://www.w3.org/2000/svg">
<path fill-rule="evenodd" clip-rule="evenodd" d="M34.1007 13.5982C35.1769 14.6744 35.1769 16.4194 34.1007 17.4956L19.4026 32.1936C18.3264 33.2699 16.5815 33.2699 15.5052 32.1936L0.807179 17.4956C-0.26906 16.4194 -0.26906 14.6744 0.807179 13.5982C1.88342 12.522 3.62835 12.522 4.70459 13.5982L17.4539 26.3475L30.2033 13.5982C31.2795 12.522 33.0244 12.522 34.1007 13.5982Z" fill="#89A767"/>
<path fill-rule="evenodd" clip-rule="evenodd" d="M34.1007 0.80718C35.1769 1.88342 35.1769 3.62835 34.1007 4.70459L19.4026 19.4026C18.3264 20.4789 16.5815 20.4789 15.5052 19.4026L0.807179 4.70459C-0.26906 3.62835 -0.26906 1.88342 0.807179 0.807181C1.88342 -0.269059 3.62835 -0.269059 4.70459 0.807181L17.4539 13.5565L30.2033 0.80718C31.2795 -0.26906 33.0244 -0.26906 34.1007 0.80718Z" fill="#89A767"/>
</svg>
