<svg width="20" height="20" viewBox="0 0 20 20" fill="none" xmlns="http://www.w3.org/2000/svg">
<path fill-rule="evenodd" clip-rule="evenodd" d="M4.82331 11.6827C4.85979 11.695 4.89661 11.7037 4.93339 11.709C4.9735 11.8033 5.02534 11.9253 5.0858 12.0679C5.23336 12.4159 5.43219 12.8866 5.63742 13.3776C6.05595 14.379 6.47813 15.4113 6.57137 15.7068C6.6868 16.072 6.8088 16.3204 6.942 16.4899C7.01087 16.5776 7.09052 16.6541 7.18373 16.7121C7.23064 16.7413 7.2802 16.7652 7.33194 16.783C7.33421 16.7838 7.33649 16.7846 7.33877 16.7853C7.60545 16.886 7.84858 16.8441 8.0008 16.7928C8.08226 16.7654 8.14816 16.7322 8.19487 16.7054C8.21868 16.6917 8.2388 16.6789 8.25485 16.6681L8.25863 16.6656L10.6138 15.1968L13.3342 17.2825C13.3744 17.3133 13.4182 17.3391 13.4645 17.3593C13.7914 17.502 14.1078 17.5517 14.4056 17.511C14.7027 17.4704 14.9387 17.3456 15.1144 17.205C15.2864 17.0674 15.403 16.9133 15.4756 16.7988C15.5127 16.7403 15.5406 16.6885 15.5602 16.6489C15.57 16.629 15.578 16.6118 15.5841 16.5981L15.592 16.5799L15.5949 16.5728L15.5962 16.5697L15.5967 16.5683L15.5973 16.567C15.6116 16.5313 15.6225 16.4943 15.63 16.4565L18.1135 3.93529C18.1215 3.89525 18.1255 3.85452 18.1255 3.81369C18.1255 3.44702 17.9873 3.09835 17.6624 2.88677C17.3848 2.70594 17.0755 2.69816 16.88 2.71299C16.6691 2.729 16.4744 2.78105 16.3437 2.82265C16.2757 2.8443 16.2187 2.86519 16.1775 2.88112C16.1569 2.88913 16.1399 2.896 16.1273 2.90124L16.1178 2.90523L2.18974 8.36902L2.18794 8.36966C2.17906 8.37289 2.16767 8.37715 2.15413 8.38242C2.12716 8.39292 2.09102 8.40771 2.04881 8.42685C1.96649 8.46415 1.85101 8.52246 1.7325 8.60361C1.54318 8.73326 1.10777 9.08835 1.18108 9.67443C1.23957 10.142 1.55989 10.4291 1.75505 10.5672C1.86221 10.6431 1.96401 10.6973 2.03816 10.7326C2.07255 10.749 2.14397 10.778 2.17495 10.7906L2.18277 10.7937L4.82331 11.6827ZM16.6053 4.05623L16.6033 4.05707C16.5964 4.06009 16.5894 4.06298 16.5824 4.06574L2.63737 9.53616C2.63009 9.53902 2.62275 9.54174 2.61537 9.54432L2.60761 9.54726C2.59868 9.55073 2.58366 9.55683 2.56481 9.56537C2.55412 9.57022 2.54297 9.5755 2.53159 9.58118C2.54722 9.58998 2.56218 9.59762 2.57547 9.60395C2.58822 9.61002 2.59796 9.61418 2.60328 9.61636L5.22214 10.498C5.27007 10.5142 5.31476 10.5355 5.35578 10.5613L14.0031 5.49924L14.0112 5.49445C14.0175 5.49074 14.0257 5.48595 14.0357 5.48034C14.0554 5.46922 14.0824 5.4544 14.1145 5.43804C14.1746 5.40749 14.2706 5.36215 14.3788 5.32872C14.4541 5.30544 14.6761 5.23987 14.9162 5.31687C15.0644 5.3644 15.2178 5.46657 15.3176 5.63966C15.3671 5.72565 15.3936 5.81203 15.4064 5.89111C15.4403 6.01568 15.435 6.13868 15.4084 6.24488C15.3511 6.47363 15.1904 6.65207 15.0441 6.78855C14.9188 6.90556 13.2977 8.46877 11.6984 10.0119C10.9008 10.7814 10.1114 11.5434 9.52138 12.113L9.13384 12.4871L14.0271 16.2386C14.1393 16.2788 14.2057 16.2767 14.2364 16.2725C14.273 16.2675 14.3029 16.2535 14.3334 16.229C14.3676 16.2016 14.3975 16.1647 14.4199 16.1295L14.4208 16.128L16.8295 3.98386C16.7938 3.99245 16.7577 4.00268 16.7228 4.01377C16.6834 4.02633 16.6508 4.03829 16.6292 4.04665C16.6186 4.05079 16.6109 4.05393 16.6067 4.05566L16.6053 4.05623ZM9.55422 14.3845L8.57799 13.636L8.34143 15.1408L9.55422 14.3845ZM7.68242 12.1508L8.65323 11.2136C9.2433 10.644 10.0328 9.882 10.8304 9.11238L11.6408 8.33051L6.20747 11.5112L6.23663 11.5799C6.38471 11.9292 6.58442 12.4019 6.79074 12.8956C6.94501 13.2647 7.10634 13.6534 7.25328 14.0132L7.48914 12.5129C7.51188 12.3682 7.58254 12.243 7.68242 12.1508Z" fill="#BDCCC7"/>
</svg>
