<svg width="20" height="20" viewBox="0 0 20 20" fill="none" xmlns="http://www.w3.org/2000/svg">
<path d="M7.40453 5.9752C7.557 5.97929 7.72603 5.98753 7.88685 6.34452C7.9935 6.58216 8.17315 7.01967 8.31949 7.37605C8.43337 7.65338 8.52707 7.88159 8.55052 7.92829C8.60411 8.03496 8.63709 8.15804 8.56702 8.30162C8.55875 8.31856 8.55095 8.33476 8.54344 8.35035C8.48722 8.46702 8.44721 8.55004 8.35268 8.65861C8.31381 8.70322 8.27332 8.75215 8.23298 8.8009C8.16203 8.88664 8.09153 8.97182 8.03111 9.03201C7.92394 9.1386 7.8126 9.25358 7.93626 9.46691C8.05999 9.68024 8.49284 10.3819 9.1318 10.9481C9.81874 11.5597 10.4161 11.8174 10.718 11.9477C10.7767 11.973 10.8242 11.9935 10.859 12.0108C11.0734 12.1175 11.2012 12.1011 11.3248 11.9575C11.4486 11.8138 11.8607 11.3338 12.0051 11.1204C12.1452 10.9071 12.2895 10.9399 12.4874 11.0138C12.6852 11.0876 13.7406 11.6046 13.9549 11.7113C13.9973 11.7324 14.0369 11.7514 14.0736 11.769C14.2228 11.8405 14.3241 11.8891 14.3671 11.9616C14.4207 12.0518 14.4207 12.4786 14.2435 12.9791C14.0621 13.4797 13.1882 13.9598 12.7924 13.9967C12.7549 14.0002 12.7176 14.0047 12.6793 14.0094C12.3166 14.0532 11.8562 14.1089 10.2159 13.4633C8.19478 12.6685 6.86059 10.6965 6.59085 10.2978C6.56955 10.2663 6.55489 10.2447 6.54705 10.2341L6.54249 10.228C6.41976 10.0638 5.66898 9.05921 5.66898 8.0227C5.66898 7.03101 6.15749 6.51471 6.38032 6.27922C6.39444 6.26429 6.40749 6.2505 6.41929 6.23778C6.61713 6.02445 6.84803 5.97112 6.99228 5.97112C7.13661 5.97112 7.28087 5.97112 7.40453 5.9752Z" fill="#BDCCC7"/>
<path fill-rule="evenodd" clip-rule="evenodd" d="M1.81972 17.7765C1.75154 18.024 1.97695 18.2524 2.22532 18.1876L6.06477 17.1847C7.27674 17.8412 8.64124 18.1899 10.0305 18.1899H10.0346C14.6063 18.1899 18.3329 14.4849 18.3329 9.93054C18.3329 7.72311 17.4713 5.64694 15.9048 4.08775C14.3384 2.52863 12.2565 1.66699 10.0346 1.66699C5.46297 1.66699 1.73633 5.37203 1.73633 9.92646C1.73581 11.3753 2.11824 12.7988 2.84523 14.0541L1.81972 17.7765ZM4.05034 14.3861C4.13935 14.063 4.09488 13.7176 3.92691 13.4276C3.31012 12.3626 2.98589 11.1549 2.98633 9.92646C2.98633 6.06831 6.14739 2.91699 10.0346 2.91699C11.9261 2.91699 13.6909 3.64781 15.023 4.9737C16.3536 6.29813 17.0829 8.05542 17.0829 9.93054C17.0829 13.7886 13.9219 16.9399 10.0346 16.9399H10.0305C8.85008 16.9399 7.6901 16.6435 6.66013 16.0856C6.38135 15.9346 6.05562 15.8952 5.74888 15.9753L3.44687 16.5766L4.05034 14.3861Z" fill="#BDCCC7"/>
</svg>
